M48
; DRILL file {KiCad 6.0.4-6f826c9f35~116~ubuntu20.04.1} date Thu Aug 11 09:53:35 2022
; FORMAT={-:-/ absolute / metric / decimal}
; #@! TF.CreationDate,2022-08-11T09:53:35+00:00
; #@! TF.GenerationSoftware,Kicad,Pcbnew,6.0.4-6f826c9f35~116~ubuntu20.04.1
; #@! TF.FileFunction,Plated,1,2,PTH
FMAT,2
METRIC
; #@! TA.AperFunction,Plated,PTH,ComponentDrill
T1C0.740
; #@! TA.AperFunction,Plated,PTH,ComponentDrill
T2C1.350
; #@! TA.AperFunction,Plated,PTH,ComponentDrill
T3C3.000
%
G90
G05
T1
X8.349Y22.76
X8.349Y21.49
X8.349Y18.95
X8.349Y17.68
X9.849Y24.03
X9.849Y20.22
X9.849Y16.41
X52.324Y22.76
X52.324Y21.49
X52.324Y18.95
X52.324Y17.68
X53.824Y24.03
X53.824Y20.22
X53.824Y16.41
T2
X7.349Y13.66
X8.349Y26.49
X51.324Y13.66
X52.324Y26.49
T3
X5.08Y35.56
X5.08Y5.08
X55.88Y35.56
X55.88Y5.08
T0
M30
