%TF.GenerationSoftware,KiCad,Pcbnew,(5.99.0-10394-g2e15de97e0)*%
%TF.CreationDate,2021-05-18T08:03:29+02:00*%
%TF.ProjectId,BP02,42503032-2e6b-4696-9361-645f70636258,rev?*%
%TF.SameCoordinates,Original*%
%TF.FileFunction,Copper,L1,Top*%
%TF.FilePolarity,Positive*%
%FSLAX46Y46*%
G04 Gerber Fmt 4.6, Leading zero omitted, Abs format (unit mm)*
G04 Created by KiCad (PCBNEW (5.99.0-10394-g2e15de97e0)) date 2021-05-18 08:03:29*
%MOMM*%
%LPD*%
G01*
G04 APERTURE LIST*
%TA.AperFunction,ComponentPad*%
%ADD10C,6.000000*%
%TD*%
%TA.AperFunction,ComponentPad*%
%ADD11O,1.300000X1.100000*%
%TD*%
%TA.AperFunction,ComponentPad*%
%ADD12C,2.500000*%
%TD*%
%TA.AperFunction,Conductor*%
%ADD13C,0.254000*%
%TD*%
G04 APERTURE END LIST*
D10*
%TO.P,M1,1*%
%TO.N,GND*%
X5080000Y35560000D03*
%TD*%
%TO.P,M3,1*%
%TO.N,GND*%
X55880000Y5080000D03*
%TD*%
D11*
%TO.P,J1,1,1*%
%TO.N,GND*%
X9849000Y24030000D03*
%TO.P,J1,2,2*%
%TO.N,3rd_order_in_P*%
X8349000Y22760000D03*
%TO.P,J1,3,3*%
%TO.N,3rd_order_in_N*%
X8349000Y21490000D03*
%TO.P,J1,4,4*%
%TO.N,GND*%
X9849000Y20220000D03*
%TO.P,J1,5,5*%
%TO.N,2rd_order_in_P*%
X8349000Y18950000D03*
%TO.P,J1,6,6*%
%TO.N,2rd_order_in_N*%
X8349000Y17680000D03*
%TO.P,J1,7,7*%
%TO.N,GND*%
X9849000Y16410000D03*
D12*
%TO.P,J1,8,4*%
X7349000Y13660000D03*
%TO.P,J1,9,7*%
X8349000Y26490000D03*
%TD*%
D11*
%TO.P,J2,1,1*%
%TO.N,GND*%
X53824000Y24030000D03*
%TO.P,J2,2,2*%
%TO.N,3rd_order_out_P*%
X52324000Y22760000D03*
%TO.P,J2,3,3*%
%TO.N,3rd_order_out_N*%
X52324000Y21490000D03*
%TO.P,J2,4,4*%
%TO.N,GND*%
X53824000Y20220000D03*
%TO.P,J2,5,5*%
%TO.N,2rd_order_out_P*%
X52324000Y18950000D03*
%TO.P,J2,6,6*%
%TO.N,2rd_order_out_N*%
X52324000Y17680000D03*
%TO.P,J2,7,7*%
%TO.N,GND*%
X53824000Y16410000D03*
D12*
%TO.P,J2,8,4*%
X51324000Y13660000D03*
%TO.P,J2,9,7*%
X52324000Y26490000D03*
%TD*%
D10*
%TO.P,M4,1*%
%TO.N,GND*%
X5080000Y5080000D03*
%TD*%
%TO.P,M2,1*%
%TO.N,GND*%
X55880000Y35560000D03*
%TD*%
%TO.N,GND*%
D13*
X60072000Y888000D02*
X888000Y888000D01*
X888000Y12276981D01*
X6175287Y12276981D01*
X6180352Y12206166D01*
X6223903Y12148586D01*
X6340247Y12063279D01*
X6356085Y12053383D01*
X6587338Y11931715D01*
X6604464Y11924268D01*
X6851161Y11838118D01*
X6869200Y11833284D01*
X7125921Y11784544D01*
X7144476Y11782430D01*
X7405581Y11772171D01*
X7424245Y11772823D01*
X7683998Y11801271D01*
X7702361Y11804674D01*
X7955057Y11871203D01*
X7972715Y11877283D01*
X8212801Y11980432D01*
X8229366Y11989056D01*
X8451568Y12126559D01*
X8466674Y12137533D01*
X8483366Y12151663D01*
X8522436Y12210943D01*
X8523197Y12276981D01*
X50150287Y12276981D01*
X50155352Y12206166D01*
X50198903Y12148586D01*
X50315247Y12063279D01*
X50331085Y12053383D01*
X50562338Y11931715D01*
X50579464Y11924268D01*
X50826161Y11838118D01*
X50844200Y11833284D01*
X51100921Y11784544D01*
X51119476Y11782430D01*
X51380581Y11772171D01*
X51399245Y11772823D01*
X51658998Y11801271D01*
X51677361Y11804674D01*
X51930057Y11871203D01*
X51947715Y11877283D01*
X52187801Y11980432D01*
X52204366Y11989056D01*
X52426568Y12126559D01*
X52441674Y12137533D01*
X52458366Y12151663D01*
X52497436Y12210943D01*
X52498254Y12281935D01*
X52466052Y12336928D01*
X51413095Y13389885D01*
X51350783Y13423911D01*
X51279968Y13418846D01*
X51234905Y13389885D01*
X50184313Y12339293D01*
X50150287Y12276981D01*
X8523197Y12276981D01*
X8523254Y12281935D01*
X8491052Y12336928D01*
X7438095Y13389885D01*
X7375783Y13423911D01*
X7304968Y13418846D01*
X7259905Y13389885D01*
X6209313Y12339293D01*
X6175287Y12276981D01*
X888000Y12276981D01*
X888000Y13700105D01*
X5460749Y13700105D01*
X5473286Y13439099D01*
X5475562Y13420562D01*
X5526541Y13164277D01*
X5531532Y13146282D01*
X5619831Y12900346D01*
X5627427Y12883284D01*
X5751109Y12653102D01*
X5761143Y12637353D01*
X5838277Y12534057D01*
X5895061Y12491442D01*
X5965871Y12486293D01*
X6028330Y12520350D01*
X7078885Y13570905D01*
X7112911Y13633217D01*
X7109080Y13686783D01*
X7585089Y13686783D01*
X7590154Y13615968D01*
X7619115Y13570905D01*
X8672681Y12517339D01*
X8734993Y12483313D01*
X8805808Y12488378D01*
X8862644Y12530925D01*
X8867747Y12538271D01*
X9004326Y12750606D01*
X9013237Y12767019D01*
X9120560Y13005268D01*
X9126947Y13022817D01*
X9197876Y13274313D01*
X9201600Y13292613D01*
X9234577Y13551831D01*
X9235541Y13564434D01*
X9237957Y13656702D01*
X9237654Y13669338D01*
X9235368Y13700105D01*
X49435749Y13700105D01*
X49448286Y13439099D01*
X49450562Y13420562D01*
X49501541Y13164277D01*
X49506532Y13146282D01*
X49594831Y12900346D01*
X49602427Y12883284D01*
X49726109Y12653102D01*
X49736143Y12637353D01*
X49813277Y12534057D01*
X49870061Y12491442D01*
X49940871Y12486293D01*
X50003330Y12520350D01*
X51053885Y13570905D01*
X51087911Y13633217D01*
X51084080Y13686783D01*
X51560089Y13686783D01*
X51565154Y13615968D01*
X51594115Y13570905D01*
X52647681Y12517339D01*
X52709993Y12483313D01*
X52780808Y12488378D01*
X52837644Y12530925D01*
X52842747Y12538271D01*
X52979326Y12750606D01*
X52988237Y12767019D01*
X53095560Y13005268D01*
X53101947Y13022817D01*
X53172876Y13274313D01*
X53176600Y13292613D01*
X53209577Y13551831D01*
X53210541Y13564434D01*
X53212957Y13656702D01*
X53212654Y13669338D01*
X53193289Y13929926D01*
X53190528Y13948396D01*
X53132858Y14203259D01*
X53127398Y14221118D01*
X53032691Y14464658D01*
X53024651Y14481514D01*
X52894986Y14708380D01*
X52884543Y14723863D01*
X52833176Y14789022D01*
X52775295Y14830135D01*
X52704375Y14833429D01*
X52645131Y14800111D01*
X51594115Y13749095D01*
X51560089Y13686783D01*
X51084080Y13686783D01*
X51082846Y13704032D01*
X51053885Y13749095D01*
X50001555Y14801425D01*
X49939243Y14835451D01*
X49868428Y14830386D01*
X49815587Y14792900D01*
X49791841Y14764349D01*
X49780995Y14749144D01*
X49645436Y14525750D01*
X49636958Y14509111D01*
X49535908Y14268134D01*
X49529982Y14250423D01*
X49465661Y13997157D01*
X49462418Y13978766D01*
X49436238Y13718774D01*
X49435749Y13700105D01*
X9235368Y13700105D01*
X9218289Y13929926D01*
X9215528Y13948396D01*
X9157858Y14203259D01*
X9152398Y14221118D01*
X9057691Y14464658D01*
X9049651Y14481514D01*
X8919986Y14708380D01*
X8909543Y14723863D01*
X8858176Y14789022D01*
X8800295Y14830135D01*
X8729375Y14833429D01*
X8670131Y14800111D01*
X7619115Y13749095D01*
X7585089Y13686783D01*
X7109080Y13686783D01*
X7107846Y13704032D01*
X7078885Y13749095D01*
X6026555Y14801425D01*
X5964243Y14835451D01*
X5893428Y14830386D01*
X5840587Y14792900D01*
X5816841Y14764349D01*
X5805995Y14749144D01*
X5670436Y14525750D01*
X5661958Y14509111D01*
X5560908Y14268134D01*
X5554982Y14250423D01*
X5490661Y13997157D01*
X5487418Y13978766D01*
X5461238Y13718774D01*
X5460749Y13700105D01*
X888000Y13700105D01*
X888000Y15052988D01*
X6171604Y15052988D01*
X6201685Y14988679D01*
X6207058Y14982962D01*
X7259905Y13930115D01*
X7322217Y13896089D01*
X7393032Y13901154D01*
X7438095Y13930115D01*
X8489376Y14981396D01*
X8523402Y15043708D01*
X8522738Y15052988D01*
X50146604Y15052988D01*
X50176685Y14988679D01*
X50182058Y14982962D01*
X51234905Y13930115D01*
X51297217Y13896089D01*
X51368032Y13901154D01*
X51413095Y13930115D01*
X52464376Y14981396D01*
X52498402Y15043708D01*
X52493337Y15114523D01*
X52447100Y15174019D01*
X52290609Y15282580D01*
X52274518Y15292058D01*
X52040159Y15407631D01*
X52022844Y15414627D01*
X51773977Y15494290D01*
X51755818Y15498650D01*
X51497910Y15540653D01*
X51479306Y15542280D01*
X51218021Y15545701D01*
X51199379Y15544561D01*
X50940460Y15509323D01*
X50922194Y15505440D01*
X50671326Y15432319D01*
X50653833Y15425779D01*
X50416530Y15316381D01*
X50400196Y15307327D01*
X50202068Y15177429D01*
X50156067Y15123352D01*
X50146604Y15052988D01*
X8522738Y15052988D01*
X8518337Y15114523D01*
X8472100Y15174019D01*
X8315609Y15282580D01*
X8299518Y15292058D01*
X8065159Y15407631D01*
X8047844Y15414627D01*
X7798977Y15494290D01*
X7780818Y15498650D01*
X7522910Y15540653D01*
X7504306Y15542280D01*
X7243021Y15545701D01*
X7224379Y15544561D01*
X6965460Y15509323D01*
X6947194Y15505440D01*
X6696326Y15432319D01*
X6678833Y15425779D01*
X6441530Y15316381D01*
X6425196Y15307327D01*
X6227068Y15177429D01*
X6181067Y15123352D01*
X6171604Y15052988D01*
X888000Y15052988D01*
X888000Y16138068D01*
X8596244Y16138068D01*
X8600088Y16120425D01*
X8642530Y15976218D01*
X8651742Y15953418D01*
X8747858Y15769565D01*
X8761324Y15748988D01*
X8891320Y15587306D01*
X8908524Y15569737D01*
X9067448Y15436383D01*
X9087739Y15422489D01*
X9269539Y15322544D01*
X9292141Y15312857D01*
X9489891Y15250127D01*
X9513946Y15245014D01*
X9580956Y15237498D01*
X9650881Y15249783D01*
X9703065Y15297922D01*
X9721000Y15362713D01*
X9721000Y16156000D01*
X9977000Y16156000D01*
X9977000Y15362100D01*
X9997002Y15293979D01*
X10050658Y15247486D01*
X10115296Y15236701D01*
X10167767Y15241846D01*
X10191889Y15246623D01*
X10390496Y15306586D01*
X10413231Y15315957D01*
X10596408Y15413354D01*
X10616890Y15426962D01*
X10777661Y15558083D01*
X10795111Y15575411D01*
X10927352Y15735263D01*
X10941103Y15755649D01*
X11039777Y15938142D01*
X11049306Y15960813D01*
X11098192Y16118742D01*
X11098474Y16138068D01*
X52571244Y16138068D01*
X52575088Y16120425D01*
X52617530Y15976218D01*
X52626742Y15953418D01*
X52722858Y15769565D01*
X52736324Y15748988D01*
X52866320Y15587306D01*
X52883524Y15569737D01*
X53042448Y15436383D01*
X53062739Y15422489D01*
X53244539Y15322544D01*
X53267141Y15312857D01*
X53464891Y15250127D01*
X53488946Y15245014D01*
X53555956Y15237498D01*
X53625881Y15249783D01*
X53678065Y15297922D01*
X53696000Y15362713D01*
X53696000Y16156000D01*
X53952000Y16156000D01*
X53952000Y15362100D01*
X53972002Y15293979D01*
X54025658Y15247486D01*
X54090296Y15236701D01*
X54142767Y15241846D01*
X54166889Y15246623D01*
X54365496Y15306586D01*
X54388231Y15315957D01*
X54571408Y15413354D01*
X54591890Y15426962D01*
X54752661Y15558083D01*
X54770111Y15575411D01*
X54902352Y15735263D01*
X54916103Y15755649D01*
X55014777Y15938142D01*
X55024306Y15960813D01*
X55073192Y16118742D01*
X55074228Y16189731D01*
X55036720Y16250010D01*
X54972576Y16280443D01*
X54952827Y16282000D01*
X54078000Y16282000D01*
X54009879Y16261998D01*
X53963386Y16208342D01*
X53952000Y16156000D01*
X53696000Y16156000D01*
X53675998Y16224121D01*
X53622342Y16270614D01*
X53570000Y16282000D01*
X52695962Y16282000D01*
X52627841Y16261998D01*
X52581348Y16208342D01*
X52571244Y16138068D01*
X11098474Y16138068D01*
X11099228Y16189731D01*
X11061720Y16250010D01*
X10997576Y16280443D01*
X10977827Y16282000D01*
X10103000Y16282000D01*
X10034879Y16261998D01*
X9988386Y16208342D01*
X9977000Y16156000D01*
X9721000Y16156000D01*
X9700998Y16224121D01*
X9647342Y16270614D01*
X9595000Y16282000D01*
X8720962Y16282000D01*
X8652841Y16261998D01*
X8606348Y16208342D01*
X8596244Y16138068D01*
X888000Y16138068D01*
X888000Y18946005D01*
X7060045Y18946005D01*
X7078857Y18739300D01*
X7083464Y18715145D01*
X7142066Y18516031D01*
X7151278Y18493231D01*
X7245150Y18313671D01*
X7157763Y18152052D01*
X7148234Y18129382D01*
X7086857Y17931105D01*
X7081912Y17907017D01*
X7060216Y17700596D01*
X7060045Y17676005D01*
X7078857Y17469300D01*
X7083464Y17445145D01*
X7142066Y17246031D01*
X7151278Y17223231D01*
X7247439Y17039292D01*
X7260904Y17018715D01*
X7390961Y16856956D01*
X7408167Y16839386D01*
X7567167Y16705970D01*
X7587457Y16692077D01*
X7769342Y16592085D01*
X7791944Y16582398D01*
X7989787Y16519638D01*
X8013841Y16514525D01*
X8176457Y16496285D01*
X8190502Y16495500D01*
X8499994Y16495500D01*
X8512289Y16496101D01*
X8667863Y16511355D01*
X8691986Y16516132D01*
X8764416Y16538000D01*
X9595000Y16538000D01*
X9663121Y16558002D01*
X9709614Y16611658D01*
X9721000Y16664000D01*
X9721000Y17457287D01*
X9977000Y17457287D01*
X9977000Y16664000D01*
X9997002Y16595879D01*
X10050658Y16549386D01*
X10103000Y16538000D01*
X10977038Y16538000D01*
X11045159Y16558002D01*
X11091652Y16611658D01*
X11101756Y16681932D01*
X11097912Y16699575D01*
X11055470Y16843782D01*
X11046258Y16866582D01*
X10950142Y17050435D01*
X10936676Y17071012D01*
X10806680Y17232694D01*
X10789476Y17250263D01*
X10630552Y17383617D01*
X10610261Y17397511D01*
X10428461Y17497456D01*
X10405859Y17507143D01*
X10208109Y17569873D01*
X10184054Y17574986D01*
X10117044Y17582502D01*
X10047119Y17570217D01*
X9994935Y17522078D01*
X9977000Y17457287D01*
X9721000Y17457287D01*
X9721000Y17457900D01*
X9700998Y17526021D01*
X9647342Y17572514D01*
X9628974Y17575579D01*
X9637784Y17659404D01*
X9637955Y17683995D01*
X9619143Y17890700D01*
X9614536Y17914855D01*
X9555934Y18113969D01*
X9546722Y18136769D01*
X9452850Y18316329D01*
X9540237Y18477948D01*
X9549766Y18500618D01*
X9611143Y18698895D01*
X9616088Y18722983D01*
X9637784Y18929404D01*
X9637899Y18946005D01*
X51035045Y18946005D01*
X51053857Y18739300D01*
X51058464Y18715145D01*
X51117066Y18516031D01*
X51126278Y18493231D01*
X51220150Y18313671D01*
X51132763Y18152052D01*
X51123234Y18129382D01*
X51061857Y17931105D01*
X51056912Y17907017D01*
X51035216Y17700596D01*
X51035045Y17676005D01*
X51053857Y17469300D01*
X51058464Y17445145D01*
X51117066Y17246031D01*
X51126278Y17223231D01*
X51222439Y17039292D01*
X51235904Y17018715D01*
X51365961Y16856956D01*
X51383167Y16839386D01*
X51542167Y16705970D01*
X51562457Y16692077D01*
X51744342Y16592085D01*
X51766944Y16582398D01*
X51964787Y16519638D01*
X51988841Y16514525D01*
X52151457Y16496285D01*
X52165502Y16495500D01*
X52474994Y16495500D01*
X52487289Y16496101D01*
X52642863Y16511355D01*
X52666986Y16516132D01*
X52739416Y16538000D01*
X53570000Y16538000D01*
X53638121Y16558002D01*
X53684614Y16611658D01*
X53696000Y16664000D01*
X53696000Y17457287D01*
X53952000Y17457287D01*
X53952000Y16664000D01*
X53972002Y16595879D01*
X54025658Y16549386D01*
X54078000Y16538000D01*
X54952038Y16538000D01*
X55020159Y16558002D01*
X55066652Y16611658D01*
X55076756Y16681932D01*
X55072912Y16699575D01*
X55030470Y16843782D01*
X55021258Y16866582D01*
X54925142Y17050435D01*
X54911676Y17071012D01*
X54781680Y17232694D01*
X54764476Y17250263D01*
X54605552Y17383617D01*
X54585261Y17397511D01*
X54403461Y17497456D01*
X54380859Y17507143D01*
X54183109Y17569873D01*
X54159054Y17574986D01*
X54092044Y17582502D01*
X54022119Y17570217D01*
X53969935Y17522078D01*
X53952000Y17457287D01*
X53696000Y17457287D01*
X53696000Y17457900D01*
X53675998Y17526021D01*
X53622342Y17572514D01*
X53603974Y17575579D01*
X53612784Y17659404D01*
X53612955Y17683995D01*
X53594143Y17890700D01*
X53589536Y17914855D01*
X53530934Y18113969D01*
X53521722Y18136769D01*
X53427850Y18316329D01*
X53515237Y18477948D01*
X53524766Y18500618D01*
X53586143Y18698895D01*
X53591088Y18722983D01*
X53612784Y18929404D01*
X53612955Y18953995D01*
X53603682Y19055883D01*
X53625881Y19059783D01*
X53678065Y19107922D01*
X53696000Y19172713D01*
X53696000Y19966000D01*
X53952000Y19966000D01*
X53952000Y19172100D01*
X53972002Y19103979D01*
X54025658Y19057486D01*
X54090296Y19046701D01*
X54142767Y19051846D01*
X54166889Y19056623D01*
X54365496Y19116586D01*
X54388231Y19125957D01*
X54571408Y19223354D01*
X54591890Y19236962D01*
X54752661Y19368083D01*
X54770111Y19385411D01*
X54902352Y19545263D01*
X54916103Y19565649D01*
X55014777Y19748142D01*
X55024306Y19770813D01*
X55073192Y19928742D01*
X55074228Y19999731D01*
X55036720Y20060010D01*
X54972576Y20090443D01*
X54952827Y20092000D01*
X54078000Y20092000D01*
X54009879Y20071998D01*
X53963386Y20018342D01*
X53952000Y19966000D01*
X53696000Y19966000D01*
X53675998Y20034121D01*
X53622342Y20080614D01*
X53570000Y20092000D01*
X52741097Y20092000D01*
X52683213Y20110362D01*
X52659159Y20115475D01*
X52496543Y20133715D01*
X52482498Y20134500D01*
X52173006Y20134500D01*
X52160711Y20133899D01*
X52005137Y20118645D01*
X51981014Y20113868D01*
X51782314Y20053877D01*
X51759579Y20044506D01*
X51576315Y19947063D01*
X51555832Y19933455D01*
X51394986Y19802271D01*
X51377538Y19784944D01*
X51245235Y19625018D01*
X51231483Y19604631D01*
X51132763Y19422052D01*
X51123234Y19399382D01*
X51061857Y19201105D01*
X51056912Y19177017D01*
X51035216Y18970596D01*
X51035045Y18946005D01*
X9637899Y18946005D01*
X9637955Y18953995D01*
X9628682Y19055883D01*
X9650881Y19059783D01*
X9703065Y19107922D01*
X9721000Y19172713D01*
X9721000Y19966000D01*
X9977000Y19966000D01*
X9977000Y19172100D01*
X9997002Y19103979D01*
X10050658Y19057486D01*
X10115296Y19046701D01*
X10167767Y19051846D01*
X10191889Y19056623D01*
X10390496Y19116586D01*
X10413231Y19125957D01*
X10596408Y19223354D01*
X10616890Y19236962D01*
X10777661Y19368083D01*
X10795111Y19385411D01*
X10927352Y19545263D01*
X10941103Y19565649D01*
X11039777Y19748142D01*
X11049306Y19770813D01*
X11098192Y19928742D01*
X11099228Y19999731D01*
X11061720Y20060010D01*
X10997576Y20090443D01*
X10977827Y20092000D01*
X10103000Y20092000D01*
X10034879Y20071998D01*
X9988386Y20018342D01*
X9977000Y19966000D01*
X9721000Y19966000D01*
X9700998Y20034121D01*
X9647342Y20080614D01*
X9595000Y20092000D01*
X8766097Y20092000D01*
X8708213Y20110362D01*
X8684159Y20115475D01*
X8521543Y20133715D01*
X8507498Y20134500D01*
X8198006Y20134500D01*
X8185711Y20133899D01*
X8030137Y20118645D01*
X8006014Y20113868D01*
X7807314Y20053877D01*
X7784579Y20044506D01*
X7601315Y19947063D01*
X7580832Y19933455D01*
X7419986Y19802271D01*
X7402538Y19784944D01*
X7270235Y19625018D01*
X7256483Y19604631D01*
X7157763Y19422052D01*
X7148234Y19399382D01*
X7086857Y19201105D01*
X7081912Y19177017D01*
X7060216Y18970596D01*
X7060045Y18946005D01*
X888000Y18946005D01*
X888000Y22756005D01*
X7060045Y22756005D01*
X7078857Y22549300D01*
X7083464Y22525145D01*
X7142066Y22326031D01*
X7151278Y22303231D01*
X7245150Y22123671D01*
X7157763Y21962052D01*
X7148234Y21939382D01*
X7086857Y21741105D01*
X7081912Y21717017D01*
X7060216Y21510596D01*
X7060045Y21486005D01*
X7078857Y21279300D01*
X7083464Y21255145D01*
X7142066Y21056031D01*
X7151278Y21033231D01*
X7247439Y20849292D01*
X7260904Y20828715D01*
X7390961Y20666956D01*
X7408167Y20649386D01*
X7567167Y20515970D01*
X7587457Y20502077D01*
X7769342Y20402085D01*
X7791944Y20392398D01*
X7989787Y20329638D01*
X8013841Y20324525D01*
X8176457Y20306285D01*
X8190502Y20305500D01*
X8499994Y20305500D01*
X8512289Y20306101D01*
X8667863Y20321355D01*
X8691986Y20326132D01*
X8764416Y20348000D01*
X9595000Y20348000D01*
X9663121Y20368002D01*
X9709614Y20421658D01*
X9721000Y20474000D01*
X9721000Y21267287D01*
X9977000Y21267287D01*
X9977000Y20474000D01*
X9997002Y20405879D01*
X10050658Y20359386D01*
X10103000Y20348000D01*
X10977038Y20348000D01*
X11045159Y20368002D01*
X11091652Y20421658D01*
X11101756Y20491932D01*
X11097912Y20509575D01*
X11055470Y20653782D01*
X11046258Y20676582D01*
X10950142Y20860435D01*
X10936676Y20881012D01*
X10806680Y21042694D01*
X10789476Y21060263D01*
X10630552Y21193617D01*
X10610261Y21207511D01*
X10428461Y21307456D01*
X10405859Y21317143D01*
X10208109Y21379873D01*
X10184054Y21384986D01*
X10117044Y21392502D01*
X10047119Y21380217D01*
X9994935Y21332078D01*
X9977000Y21267287D01*
X9721000Y21267287D01*
X9721000Y21267900D01*
X9700998Y21336021D01*
X9647342Y21382514D01*
X9628974Y21385579D01*
X9637784Y21469404D01*
X9637955Y21493995D01*
X9619143Y21700700D01*
X9614536Y21724855D01*
X9555934Y21923969D01*
X9546722Y21946769D01*
X9452850Y22126329D01*
X9540237Y22287948D01*
X9549766Y22310618D01*
X9611143Y22508895D01*
X9616088Y22532983D01*
X9637784Y22739404D01*
X9637899Y22756005D01*
X51035045Y22756005D01*
X51053857Y22549300D01*
X51058464Y22525145D01*
X51117066Y22326031D01*
X51126278Y22303231D01*
X51220150Y22123671D01*
X51132763Y21962052D01*
X51123234Y21939382D01*
X51061857Y21741105D01*
X51056912Y21717017D01*
X51035216Y21510596D01*
X51035045Y21486005D01*
X51053857Y21279300D01*
X51058464Y21255145D01*
X51117066Y21056031D01*
X51126278Y21033231D01*
X51222439Y20849292D01*
X51235904Y20828715D01*
X51365961Y20666956D01*
X51383167Y20649386D01*
X51542167Y20515970D01*
X51562457Y20502077D01*
X51744342Y20402085D01*
X51766944Y20392398D01*
X51964787Y20329638D01*
X51988841Y20324525D01*
X52151457Y20306285D01*
X52165502Y20305500D01*
X52474994Y20305500D01*
X52487289Y20306101D01*
X52642863Y20321355D01*
X52666986Y20326132D01*
X52739416Y20348000D01*
X53570000Y20348000D01*
X53638121Y20368002D01*
X53684614Y20421658D01*
X53696000Y20474000D01*
X53696000Y21267287D01*
X53952000Y21267287D01*
X53952000Y20474000D01*
X53972002Y20405879D01*
X54025658Y20359386D01*
X54078000Y20348000D01*
X54952038Y20348000D01*
X55020159Y20368002D01*
X55066652Y20421658D01*
X55076756Y20491932D01*
X55072912Y20509575D01*
X55030470Y20653782D01*
X55021258Y20676582D01*
X54925142Y20860435D01*
X54911676Y20881012D01*
X54781680Y21042694D01*
X54764476Y21060263D01*
X54605552Y21193617D01*
X54585261Y21207511D01*
X54403461Y21307456D01*
X54380859Y21317143D01*
X54183109Y21379873D01*
X54159054Y21384986D01*
X54092044Y21392502D01*
X54022119Y21380217D01*
X53969935Y21332078D01*
X53952000Y21267287D01*
X53696000Y21267287D01*
X53696000Y21267900D01*
X53675998Y21336021D01*
X53622342Y21382514D01*
X53603974Y21385579D01*
X53612784Y21469404D01*
X53612955Y21493995D01*
X53594143Y21700700D01*
X53589536Y21724855D01*
X53530934Y21923969D01*
X53521722Y21946769D01*
X53427850Y22126329D01*
X53515237Y22287948D01*
X53524766Y22310618D01*
X53586143Y22508895D01*
X53591088Y22532983D01*
X53612784Y22739404D01*
X53612955Y22763995D01*
X53603682Y22865883D01*
X53625881Y22869783D01*
X53678065Y22917922D01*
X53696000Y22982713D01*
X53696000Y23776000D01*
X53952000Y23776000D01*
X53952000Y22982100D01*
X53972002Y22913979D01*
X54025658Y22867486D01*
X54090296Y22856701D01*
X54142767Y22861846D01*
X54166889Y22866623D01*
X54365496Y22926586D01*
X54388231Y22935957D01*
X54571408Y23033354D01*
X54591890Y23046962D01*
X54752661Y23178083D01*
X54770111Y23195411D01*
X54902352Y23355263D01*
X54916103Y23375649D01*
X55014777Y23558142D01*
X55024306Y23580813D01*
X55073192Y23738742D01*
X55074228Y23809731D01*
X55036720Y23870010D01*
X54972576Y23900443D01*
X54952827Y23902000D01*
X54078000Y23902000D01*
X54009879Y23881998D01*
X53963386Y23828342D01*
X53952000Y23776000D01*
X53696000Y23776000D01*
X53675998Y23844121D01*
X53622342Y23890614D01*
X53570000Y23902000D01*
X52741097Y23902000D01*
X52683213Y23920362D01*
X52659159Y23925475D01*
X52496543Y23943715D01*
X52482498Y23944500D01*
X52173006Y23944500D01*
X52160711Y23943899D01*
X52005137Y23928645D01*
X51981014Y23923868D01*
X51782314Y23863877D01*
X51759579Y23854506D01*
X51576315Y23757063D01*
X51555832Y23743455D01*
X51394986Y23612271D01*
X51377538Y23594944D01*
X51245235Y23435018D01*
X51231483Y23414631D01*
X51132763Y23232052D01*
X51123234Y23209382D01*
X51061857Y23011105D01*
X51056912Y22987017D01*
X51035216Y22780596D01*
X51035045Y22756005D01*
X9637899Y22756005D01*
X9637955Y22763995D01*
X9628682Y22865883D01*
X9650881Y22869783D01*
X9703065Y22917922D01*
X9721000Y22982713D01*
X9721000Y23776000D01*
X9977000Y23776000D01*
X9977000Y22982100D01*
X9997002Y22913979D01*
X10050658Y22867486D01*
X10115296Y22856701D01*
X10167767Y22861846D01*
X10191889Y22866623D01*
X10390496Y22926586D01*
X10413231Y22935957D01*
X10596408Y23033354D01*
X10616890Y23046962D01*
X10777661Y23178083D01*
X10795111Y23195411D01*
X10927352Y23355263D01*
X10941103Y23375649D01*
X11039777Y23558142D01*
X11049306Y23580813D01*
X11098192Y23738742D01*
X11099228Y23809731D01*
X11061720Y23870010D01*
X10997576Y23900443D01*
X10977827Y23902000D01*
X10103000Y23902000D01*
X10034879Y23881998D01*
X9988386Y23828342D01*
X9977000Y23776000D01*
X9721000Y23776000D01*
X9700998Y23844121D01*
X9647342Y23890614D01*
X9595000Y23902000D01*
X8766097Y23902000D01*
X8708213Y23920362D01*
X8684159Y23925475D01*
X8521543Y23943715D01*
X8507498Y23944500D01*
X8198006Y23944500D01*
X8185711Y23943899D01*
X8030137Y23928645D01*
X8006014Y23923868D01*
X7807314Y23863877D01*
X7784579Y23854506D01*
X7601315Y23757063D01*
X7580832Y23743455D01*
X7419986Y23612271D01*
X7402538Y23594944D01*
X7270235Y23435018D01*
X7256483Y23414631D01*
X7157763Y23232052D01*
X7148234Y23209382D01*
X7086857Y23011105D01*
X7081912Y22987017D01*
X7060216Y22780596D01*
X7060045Y22756005D01*
X888000Y22756005D01*
X888000Y25106981D01*
X7175287Y25106981D01*
X7180352Y25036166D01*
X7223903Y24978586D01*
X7340247Y24893279D01*
X7356085Y24883383D01*
X7587338Y24761715D01*
X7604464Y24754268D01*
X7851161Y24668118D01*
X7869200Y24663284D01*
X8125921Y24614544D01*
X8144476Y24612430D01*
X8405581Y24602171D01*
X8424245Y24602823D01*
X8683998Y24631271D01*
X8702361Y24634674D01*
X8734630Y24643170D01*
X8658223Y24501858D01*
X8648694Y24479187D01*
X8599808Y24321258D01*
X8598772Y24250269D01*
X8636280Y24189990D01*
X8700424Y24159557D01*
X8720173Y24158000D01*
X9595000Y24158000D01*
X9663121Y24178002D01*
X9709614Y24231658D01*
X9721000Y24284000D01*
X9721000Y25077287D01*
X9977000Y25077287D01*
X9977000Y24284000D01*
X9997002Y24215879D01*
X10050658Y24169386D01*
X10103000Y24158000D01*
X10977038Y24158000D01*
X11045159Y24178002D01*
X11091652Y24231658D01*
X11101756Y24301932D01*
X11097912Y24319575D01*
X11055470Y24463782D01*
X11046258Y24486582D01*
X10950142Y24670435D01*
X10936676Y24691012D01*
X10806680Y24852694D01*
X10789476Y24870263D01*
X10630552Y25003617D01*
X10610261Y25017511D01*
X10447515Y25106981D01*
X51150287Y25106981D01*
X51155352Y25036166D01*
X51198903Y24978586D01*
X51315247Y24893279D01*
X51331085Y24883383D01*
X51562338Y24761715D01*
X51579464Y24754268D01*
X51826161Y24668118D01*
X51844200Y24663284D01*
X52100921Y24614544D01*
X52119476Y24612430D01*
X52380581Y24602171D01*
X52399245Y24602823D01*
X52658998Y24631271D01*
X52677361Y24634674D01*
X52709630Y24643170D01*
X52633223Y24501858D01*
X52623694Y24479187D01*
X52574808Y24321258D01*
X52573772Y24250269D01*
X52611280Y24189990D01*
X52675424Y24159557D01*
X52695173Y24158000D01*
X53570000Y24158000D01*
X53638121Y24178002D01*
X53684614Y24231658D01*
X53696000Y24284000D01*
X53696000Y25077287D01*
X53952000Y25077287D01*
X53952000Y24284000D01*
X53972002Y24215879D01*
X54025658Y24169386D01*
X54078000Y24158000D01*
X54952038Y24158000D01*
X55020159Y24178002D01*
X55066652Y24231658D01*
X55076756Y24301932D01*
X55072912Y24319575D01*
X55030470Y24463782D01*
X55021258Y24486582D01*
X54925142Y24670435D01*
X54911676Y24691012D01*
X54781680Y24852694D01*
X54764476Y24870263D01*
X54605552Y25003617D01*
X54585261Y25017511D01*
X54403461Y25117456D01*
X54380859Y25127143D01*
X54183109Y25189873D01*
X54159054Y25194986D01*
X54092044Y25202502D01*
X54022119Y25190217D01*
X53969935Y25142078D01*
X53952000Y25077287D01*
X53696000Y25077287D01*
X53696000Y25077900D01*
X53675998Y25146021D01*
X53622342Y25192514D01*
X53557704Y25203299D01*
X53505233Y25198154D01*
X53481111Y25193377D01*
X53449229Y25183751D01*
X52413095Y26219885D01*
X52350783Y26253911D01*
X52279968Y26248846D01*
X52234905Y26219885D01*
X51184313Y25169293D01*
X51150287Y25106981D01*
X10447515Y25106981D01*
X10428461Y25117456D01*
X10405859Y25127143D01*
X10208109Y25189873D01*
X10184054Y25194986D01*
X10117044Y25202502D01*
X10047119Y25190217D01*
X9994935Y25142078D01*
X9977000Y25077287D01*
X9721000Y25077287D01*
X9721000Y25077900D01*
X9700998Y25146021D01*
X9647342Y25192514D01*
X9582704Y25203299D01*
X9530233Y25198154D01*
X9506111Y25193377D01*
X9474229Y25183751D01*
X8438095Y26219885D01*
X8375783Y26253911D01*
X8304968Y26248846D01*
X8259905Y26219885D01*
X7209313Y25169293D01*
X7175287Y25106981D01*
X888000Y25106981D01*
X888000Y26530105D01*
X6460749Y26530105D01*
X6473286Y26269099D01*
X6475562Y26250562D01*
X6526541Y25994277D01*
X6531532Y25976282D01*
X6619831Y25730346D01*
X6627427Y25713284D01*
X6751109Y25483102D01*
X6761143Y25467353D01*
X6838277Y25364057D01*
X6895061Y25321442D01*
X6965871Y25316293D01*
X7028330Y25350350D01*
X8078885Y26400905D01*
X8112911Y26463217D01*
X8109080Y26516783D01*
X8585089Y26516783D01*
X8590154Y26445968D01*
X8619115Y26400905D01*
X9672681Y25347339D01*
X9734993Y25313313D01*
X9805808Y25318378D01*
X9862644Y25360925D01*
X9867747Y25368271D01*
X10004326Y25580606D01*
X10013237Y25597019D01*
X10120560Y25835268D01*
X10126947Y25852817D01*
X10197876Y26104313D01*
X10201600Y26122613D01*
X10234577Y26381831D01*
X10235541Y26394434D01*
X10237957Y26486702D01*
X10237654Y26499338D01*
X10235368Y26530105D01*
X50435749Y26530105D01*
X50448286Y26269099D01*
X50450562Y26250562D01*
X50501541Y25994277D01*
X50506532Y25976282D01*
X50594831Y25730346D01*
X50602427Y25713284D01*
X50726109Y25483102D01*
X50736143Y25467353D01*
X50813277Y25364057D01*
X50870061Y25321442D01*
X50940871Y25316293D01*
X51003330Y25350350D01*
X52053885Y26400905D01*
X52087911Y26463217D01*
X52084080Y26516783D01*
X52560089Y26516783D01*
X52565154Y26445968D01*
X52594115Y26400905D01*
X53647681Y25347339D01*
X53709993Y25313313D01*
X53780808Y25318378D01*
X53837644Y25360925D01*
X53842747Y25368271D01*
X53979326Y25580606D01*
X53988237Y25597019D01*
X54095560Y25835268D01*
X54101947Y25852817D01*
X54172876Y26104313D01*
X54176600Y26122613D01*
X54209577Y26381831D01*
X54210541Y26394434D01*
X54212957Y26486702D01*
X54212654Y26499338D01*
X54193289Y26759926D01*
X54190528Y26778396D01*
X54132858Y27033259D01*
X54127398Y27051118D01*
X54032691Y27294658D01*
X54024651Y27311514D01*
X53894986Y27538380D01*
X53884543Y27553863D01*
X53833176Y27619022D01*
X53775295Y27660135D01*
X53704375Y27663429D01*
X53645131Y27630111D01*
X52594115Y26579095D01*
X52560089Y26516783D01*
X52084080Y26516783D01*
X52082846Y26534032D01*
X52053885Y26579095D01*
X51001555Y27631425D01*
X50939243Y27665451D01*
X50868428Y27660386D01*
X50815587Y27622900D01*
X50791841Y27594349D01*
X50780995Y27579144D01*
X50645436Y27355750D01*
X50636958Y27339111D01*
X50535908Y27098134D01*
X50529982Y27080423D01*
X50465661Y26827157D01*
X50462418Y26808766D01*
X50436238Y26548774D01*
X50435749Y26530105D01*
X10235368Y26530105D01*
X10218289Y26759926D01*
X10215528Y26778396D01*
X10157858Y27033259D01*
X10152398Y27051118D01*
X10057691Y27294658D01*
X10049651Y27311514D01*
X9919986Y27538380D01*
X9909543Y27553863D01*
X9858176Y27619022D01*
X9800295Y27660135D01*
X9729375Y27663429D01*
X9670131Y27630111D01*
X8619115Y26579095D01*
X8585089Y26516783D01*
X8109080Y26516783D01*
X8107846Y26534032D01*
X8078885Y26579095D01*
X7026555Y27631425D01*
X6964243Y27665451D01*
X6893428Y27660386D01*
X6840587Y27622900D01*
X6816841Y27594349D01*
X6805995Y27579144D01*
X6670436Y27355750D01*
X6661958Y27339111D01*
X6560908Y27098134D01*
X6554982Y27080423D01*
X6490661Y26827157D01*
X6487418Y26808766D01*
X6461238Y26548774D01*
X6460749Y26530105D01*
X888000Y26530105D01*
X888000Y27882988D01*
X7171604Y27882988D01*
X7201685Y27818679D01*
X7207058Y27812962D01*
X8259905Y26760115D01*
X8322217Y26726089D01*
X8393032Y26731154D01*
X8438095Y26760115D01*
X9489376Y27811396D01*
X9523402Y27873708D01*
X9522738Y27882988D01*
X51146604Y27882988D01*
X51176685Y27818679D01*
X51182058Y27812962D01*
X52234905Y26760115D01*
X52297217Y26726089D01*
X52368032Y26731154D01*
X52413095Y26760115D01*
X53464376Y27811396D01*
X53498402Y27873708D01*
X53493337Y27944523D01*
X53447100Y28004019D01*
X53290609Y28112580D01*
X53274518Y28122058D01*
X53040159Y28237631D01*
X53022844Y28244627D01*
X52773977Y28324290D01*
X52755818Y28328650D01*
X52497910Y28370653D01*
X52479306Y28372280D01*
X52218021Y28375701D01*
X52199379Y28374561D01*
X51940460Y28339323D01*
X51922194Y28335440D01*
X51671326Y28262319D01*
X51653833Y28255779D01*
X51416530Y28146381D01*
X51400196Y28137327D01*
X51202068Y28007429D01*
X51156067Y27953352D01*
X51146604Y27882988D01*
X9522738Y27882988D01*
X9518337Y27944523D01*
X9472100Y28004019D01*
X9315609Y28112580D01*
X9299518Y28122058D01*
X9065159Y28237631D01*
X9047844Y28244627D01*
X8798977Y28324290D01*
X8780818Y28328650D01*
X8522910Y28370653D01*
X8504306Y28372280D01*
X8243021Y28375701D01*
X8224379Y28374561D01*
X7965460Y28339323D01*
X7947194Y28335440D01*
X7696326Y28262319D01*
X7678833Y28255779D01*
X7441530Y28146381D01*
X7425196Y28137327D01*
X7227068Y28007429D01*
X7181067Y27953352D01*
X7171604Y27882988D01*
X888000Y27882988D01*
X888000Y39752000D01*
X60072000Y39752000D01*
X60072000Y888000D01*
%TA.AperFunction,Conductor*%
G36*
X60072000Y888000D02*
G01*
X888000Y888000D01*
X888000Y12276981D01*
X6175287Y12276981D01*
X6180352Y12206166D01*
X6223903Y12148586D01*
X6340247Y12063279D01*
X6356085Y12053383D01*
X6587338Y11931715D01*
X6604464Y11924268D01*
X6851161Y11838118D01*
X6869200Y11833284D01*
X7125921Y11784544D01*
X7144476Y11782430D01*
X7405581Y11772171D01*
X7424245Y11772823D01*
X7683998Y11801271D01*
X7702361Y11804674D01*
X7955057Y11871203D01*
X7972715Y11877283D01*
X8212801Y11980432D01*
X8229366Y11989056D01*
X8451568Y12126559D01*
X8466674Y12137533D01*
X8483366Y12151663D01*
X8522436Y12210943D01*
X8523197Y12276981D01*
X50150287Y12276981D01*
X50155352Y12206166D01*
X50198903Y12148586D01*
X50315247Y12063279D01*
X50331085Y12053383D01*
X50562338Y11931715D01*
X50579464Y11924268D01*
X50826161Y11838118D01*
X50844200Y11833284D01*
X51100921Y11784544D01*
X51119476Y11782430D01*
X51380581Y11772171D01*
X51399245Y11772823D01*
X51658998Y11801271D01*
X51677361Y11804674D01*
X51930057Y11871203D01*
X51947715Y11877283D01*
X52187801Y11980432D01*
X52204366Y11989056D01*
X52426568Y12126559D01*
X52441674Y12137533D01*
X52458366Y12151663D01*
X52497436Y12210943D01*
X52498254Y12281935D01*
X52466052Y12336928D01*
X51413095Y13389885D01*
X51350783Y13423911D01*
X51279968Y13418846D01*
X51234905Y13389885D01*
X50184313Y12339293D01*
X50150287Y12276981D01*
X8523197Y12276981D01*
X8523254Y12281935D01*
X8491052Y12336928D01*
X7438095Y13389885D01*
X7375783Y13423911D01*
X7304968Y13418846D01*
X7259905Y13389885D01*
X6209313Y12339293D01*
X6175287Y12276981D01*
X888000Y12276981D01*
X888000Y13700105D01*
X5460749Y13700105D01*
X5473286Y13439099D01*
X5475562Y13420562D01*
X5526541Y13164277D01*
X5531532Y13146282D01*
X5619831Y12900346D01*
X5627427Y12883284D01*
X5751109Y12653102D01*
X5761143Y12637353D01*
X5838277Y12534057D01*
X5895061Y12491442D01*
X5965871Y12486293D01*
X6028330Y12520350D01*
X7078885Y13570905D01*
X7112911Y13633217D01*
X7109080Y13686783D01*
X7585089Y13686783D01*
X7590154Y13615968D01*
X7619115Y13570905D01*
X8672681Y12517339D01*
X8734993Y12483313D01*
X8805808Y12488378D01*
X8862644Y12530925D01*
X8867747Y12538271D01*
X9004326Y12750606D01*
X9013237Y12767019D01*
X9120560Y13005268D01*
X9126947Y13022817D01*
X9197876Y13274313D01*
X9201600Y13292613D01*
X9234577Y13551831D01*
X9235541Y13564434D01*
X9237957Y13656702D01*
X9237654Y13669338D01*
X9235368Y13700105D01*
X49435749Y13700105D01*
X49448286Y13439099D01*
X49450562Y13420562D01*
X49501541Y13164277D01*
X49506532Y13146282D01*
X49594831Y12900346D01*
X49602427Y12883284D01*
X49726109Y12653102D01*
X49736143Y12637353D01*
X49813277Y12534057D01*
X49870061Y12491442D01*
X49940871Y12486293D01*
X50003330Y12520350D01*
X51053885Y13570905D01*
X51087911Y13633217D01*
X51084080Y13686783D01*
X51560089Y13686783D01*
X51565154Y13615968D01*
X51594115Y13570905D01*
X52647681Y12517339D01*
X52709993Y12483313D01*
X52780808Y12488378D01*
X52837644Y12530925D01*
X52842747Y12538271D01*
X52979326Y12750606D01*
X52988237Y12767019D01*
X53095560Y13005268D01*
X53101947Y13022817D01*
X53172876Y13274313D01*
X53176600Y13292613D01*
X53209577Y13551831D01*
X53210541Y13564434D01*
X53212957Y13656702D01*
X53212654Y13669338D01*
X53193289Y13929926D01*
X53190528Y13948396D01*
X53132858Y14203259D01*
X53127398Y14221118D01*
X53032691Y14464658D01*
X53024651Y14481514D01*
X52894986Y14708380D01*
X52884543Y14723863D01*
X52833176Y14789022D01*
X52775295Y14830135D01*
X52704375Y14833429D01*
X52645131Y14800111D01*
X51594115Y13749095D01*
X51560089Y13686783D01*
X51084080Y13686783D01*
X51082846Y13704032D01*
X51053885Y13749095D01*
X50001555Y14801425D01*
X49939243Y14835451D01*
X49868428Y14830386D01*
X49815587Y14792900D01*
X49791841Y14764349D01*
X49780995Y14749144D01*
X49645436Y14525750D01*
X49636958Y14509111D01*
X49535908Y14268134D01*
X49529982Y14250423D01*
X49465661Y13997157D01*
X49462418Y13978766D01*
X49436238Y13718774D01*
X49435749Y13700105D01*
X9235368Y13700105D01*
X9218289Y13929926D01*
X9215528Y13948396D01*
X9157858Y14203259D01*
X9152398Y14221118D01*
X9057691Y14464658D01*
X9049651Y14481514D01*
X8919986Y14708380D01*
X8909543Y14723863D01*
X8858176Y14789022D01*
X8800295Y14830135D01*
X8729375Y14833429D01*
X8670131Y14800111D01*
X7619115Y13749095D01*
X7585089Y13686783D01*
X7109080Y13686783D01*
X7107846Y13704032D01*
X7078885Y13749095D01*
X6026555Y14801425D01*
X5964243Y14835451D01*
X5893428Y14830386D01*
X5840587Y14792900D01*
X5816841Y14764349D01*
X5805995Y14749144D01*
X5670436Y14525750D01*
X5661958Y14509111D01*
X5560908Y14268134D01*
X5554982Y14250423D01*
X5490661Y13997157D01*
X5487418Y13978766D01*
X5461238Y13718774D01*
X5460749Y13700105D01*
X888000Y13700105D01*
X888000Y15052988D01*
X6171604Y15052988D01*
X6201685Y14988679D01*
X6207058Y14982962D01*
X7259905Y13930115D01*
X7322217Y13896089D01*
X7393032Y13901154D01*
X7438095Y13930115D01*
X8489376Y14981396D01*
X8523402Y15043708D01*
X8522738Y15052988D01*
X50146604Y15052988D01*
X50176685Y14988679D01*
X50182058Y14982962D01*
X51234905Y13930115D01*
X51297217Y13896089D01*
X51368032Y13901154D01*
X51413095Y13930115D01*
X52464376Y14981396D01*
X52498402Y15043708D01*
X52493337Y15114523D01*
X52447100Y15174019D01*
X52290609Y15282580D01*
X52274518Y15292058D01*
X52040159Y15407631D01*
X52022844Y15414627D01*
X51773977Y15494290D01*
X51755818Y15498650D01*
X51497910Y15540653D01*
X51479306Y15542280D01*
X51218021Y15545701D01*
X51199379Y15544561D01*
X50940460Y15509323D01*
X50922194Y15505440D01*
X50671326Y15432319D01*
X50653833Y15425779D01*
X50416530Y15316381D01*
X50400196Y15307327D01*
X50202068Y15177429D01*
X50156067Y15123352D01*
X50146604Y15052988D01*
X8522738Y15052988D01*
X8518337Y15114523D01*
X8472100Y15174019D01*
X8315609Y15282580D01*
X8299518Y15292058D01*
X8065159Y15407631D01*
X8047844Y15414627D01*
X7798977Y15494290D01*
X7780818Y15498650D01*
X7522910Y15540653D01*
X7504306Y15542280D01*
X7243021Y15545701D01*
X7224379Y15544561D01*
X6965460Y15509323D01*
X6947194Y15505440D01*
X6696326Y15432319D01*
X6678833Y15425779D01*
X6441530Y15316381D01*
X6425196Y15307327D01*
X6227068Y15177429D01*
X6181067Y15123352D01*
X6171604Y15052988D01*
X888000Y15052988D01*
X888000Y16138068D01*
X8596244Y16138068D01*
X8600088Y16120425D01*
X8642530Y15976218D01*
X8651742Y15953418D01*
X8747858Y15769565D01*
X8761324Y15748988D01*
X8891320Y15587306D01*
X8908524Y15569737D01*
X9067448Y15436383D01*
X9087739Y15422489D01*
X9269539Y15322544D01*
X9292141Y15312857D01*
X9489891Y15250127D01*
X9513946Y15245014D01*
X9580956Y15237498D01*
X9650881Y15249783D01*
X9703065Y15297922D01*
X9721000Y15362713D01*
X9721000Y16156000D01*
X9977000Y16156000D01*
X9977000Y15362100D01*
X9997002Y15293979D01*
X10050658Y15247486D01*
X10115296Y15236701D01*
X10167767Y15241846D01*
X10191889Y15246623D01*
X10390496Y15306586D01*
X10413231Y15315957D01*
X10596408Y15413354D01*
X10616890Y15426962D01*
X10777661Y15558083D01*
X10795111Y15575411D01*
X10927352Y15735263D01*
X10941103Y15755649D01*
X11039777Y15938142D01*
X11049306Y15960813D01*
X11098192Y16118742D01*
X11098474Y16138068D01*
X52571244Y16138068D01*
X52575088Y16120425D01*
X52617530Y15976218D01*
X52626742Y15953418D01*
X52722858Y15769565D01*
X52736324Y15748988D01*
X52866320Y15587306D01*
X52883524Y15569737D01*
X53042448Y15436383D01*
X53062739Y15422489D01*
X53244539Y15322544D01*
X53267141Y15312857D01*
X53464891Y15250127D01*
X53488946Y15245014D01*
X53555956Y15237498D01*
X53625881Y15249783D01*
X53678065Y15297922D01*
X53696000Y15362713D01*
X53696000Y16156000D01*
X53952000Y16156000D01*
X53952000Y15362100D01*
X53972002Y15293979D01*
X54025658Y15247486D01*
X54090296Y15236701D01*
X54142767Y15241846D01*
X54166889Y15246623D01*
X54365496Y15306586D01*
X54388231Y15315957D01*
X54571408Y15413354D01*
X54591890Y15426962D01*
X54752661Y15558083D01*
X54770111Y15575411D01*
X54902352Y15735263D01*
X54916103Y15755649D01*
X55014777Y15938142D01*
X55024306Y15960813D01*
X55073192Y16118742D01*
X55074228Y16189731D01*
X55036720Y16250010D01*
X54972576Y16280443D01*
X54952827Y16282000D01*
X54078000Y16282000D01*
X54009879Y16261998D01*
X53963386Y16208342D01*
X53952000Y16156000D01*
X53696000Y16156000D01*
X53675998Y16224121D01*
X53622342Y16270614D01*
X53570000Y16282000D01*
X52695962Y16282000D01*
X52627841Y16261998D01*
X52581348Y16208342D01*
X52571244Y16138068D01*
X11098474Y16138068D01*
X11099228Y16189731D01*
X11061720Y16250010D01*
X10997576Y16280443D01*
X10977827Y16282000D01*
X10103000Y16282000D01*
X10034879Y16261998D01*
X9988386Y16208342D01*
X9977000Y16156000D01*
X9721000Y16156000D01*
X9700998Y16224121D01*
X9647342Y16270614D01*
X9595000Y16282000D01*
X8720962Y16282000D01*
X8652841Y16261998D01*
X8606348Y16208342D01*
X8596244Y16138068D01*
X888000Y16138068D01*
X888000Y18946005D01*
X7060045Y18946005D01*
X7078857Y18739300D01*
X7083464Y18715145D01*
X7142066Y18516031D01*
X7151278Y18493231D01*
X7245150Y18313671D01*
X7157763Y18152052D01*
X7148234Y18129382D01*
X7086857Y17931105D01*
X7081912Y17907017D01*
X7060216Y17700596D01*
X7060045Y17676005D01*
X7078857Y17469300D01*
X7083464Y17445145D01*
X7142066Y17246031D01*
X7151278Y17223231D01*
X7247439Y17039292D01*
X7260904Y17018715D01*
X7390961Y16856956D01*
X7408167Y16839386D01*
X7567167Y16705970D01*
X7587457Y16692077D01*
X7769342Y16592085D01*
X7791944Y16582398D01*
X7989787Y16519638D01*
X8013841Y16514525D01*
X8176457Y16496285D01*
X8190502Y16495500D01*
X8499994Y16495500D01*
X8512289Y16496101D01*
X8667863Y16511355D01*
X8691986Y16516132D01*
X8764416Y16538000D01*
X9595000Y16538000D01*
X9663121Y16558002D01*
X9709614Y16611658D01*
X9721000Y16664000D01*
X9721000Y17457287D01*
X9977000Y17457287D01*
X9977000Y16664000D01*
X9997002Y16595879D01*
X10050658Y16549386D01*
X10103000Y16538000D01*
X10977038Y16538000D01*
X11045159Y16558002D01*
X11091652Y16611658D01*
X11101756Y16681932D01*
X11097912Y16699575D01*
X11055470Y16843782D01*
X11046258Y16866582D01*
X10950142Y17050435D01*
X10936676Y17071012D01*
X10806680Y17232694D01*
X10789476Y17250263D01*
X10630552Y17383617D01*
X10610261Y17397511D01*
X10428461Y17497456D01*
X10405859Y17507143D01*
X10208109Y17569873D01*
X10184054Y17574986D01*
X10117044Y17582502D01*
X10047119Y17570217D01*
X9994935Y17522078D01*
X9977000Y17457287D01*
X9721000Y17457287D01*
X9721000Y17457900D01*
X9700998Y17526021D01*
X9647342Y17572514D01*
X9628974Y17575579D01*
X9637784Y17659404D01*
X9637955Y17683995D01*
X9619143Y17890700D01*
X9614536Y17914855D01*
X9555934Y18113969D01*
X9546722Y18136769D01*
X9452850Y18316329D01*
X9540237Y18477948D01*
X9549766Y18500618D01*
X9611143Y18698895D01*
X9616088Y18722983D01*
X9637784Y18929404D01*
X9637899Y18946005D01*
X51035045Y18946005D01*
X51053857Y18739300D01*
X51058464Y18715145D01*
X51117066Y18516031D01*
X51126278Y18493231D01*
X51220150Y18313671D01*
X51132763Y18152052D01*
X51123234Y18129382D01*
X51061857Y17931105D01*
X51056912Y17907017D01*
X51035216Y17700596D01*
X51035045Y17676005D01*
X51053857Y17469300D01*
X51058464Y17445145D01*
X51117066Y17246031D01*
X51126278Y17223231D01*
X51222439Y17039292D01*
X51235904Y17018715D01*
X51365961Y16856956D01*
X51383167Y16839386D01*
X51542167Y16705970D01*
X51562457Y16692077D01*
X51744342Y16592085D01*
X51766944Y16582398D01*
X51964787Y16519638D01*
X51988841Y16514525D01*
X52151457Y16496285D01*
X52165502Y16495500D01*
X52474994Y16495500D01*
X52487289Y16496101D01*
X52642863Y16511355D01*
X52666986Y16516132D01*
X52739416Y16538000D01*
X53570000Y16538000D01*
X53638121Y16558002D01*
X53684614Y16611658D01*
X53696000Y16664000D01*
X53696000Y17457287D01*
X53952000Y17457287D01*
X53952000Y16664000D01*
X53972002Y16595879D01*
X54025658Y16549386D01*
X54078000Y16538000D01*
X54952038Y16538000D01*
X55020159Y16558002D01*
X55066652Y16611658D01*
X55076756Y16681932D01*
X55072912Y16699575D01*
X55030470Y16843782D01*
X55021258Y16866582D01*
X54925142Y17050435D01*
X54911676Y17071012D01*
X54781680Y17232694D01*
X54764476Y17250263D01*
X54605552Y17383617D01*
X54585261Y17397511D01*
X54403461Y17497456D01*
X54380859Y17507143D01*
X54183109Y17569873D01*
X54159054Y17574986D01*
X54092044Y17582502D01*
X54022119Y17570217D01*
X53969935Y17522078D01*
X53952000Y17457287D01*
X53696000Y17457287D01*
X53696000Y17457900D01*
X53675998Y17526021D01*
X53622342Y17572514D01*
X53603974Y17575579D01*
X53612784Y17659404D01*
X53612955Y17683995D01*
X53594143Y17890700D01*
X53589536Y17914855D01*
X53530934Y18113969D01*
X53521722Y18136769D01*
X53427850Y18316329D01*
X53515237Y18477948D01*
X53524766Y18500618D01*
X53586143Y18698895D01*
X53591088Y18722983D01*
X53612784Y18929404D01*
X53612955Y18953995D01*
X53603682Y19055883D01*
X53625881Y19059783D01*
X53678065Y19107922D01*
X53696000Y19172713D01*
X53696000Y19966000D01*
X53952000Y19966000D01*
X53952000Y19172100D01*
X53972002Y19103979D01*
X54025658Y19057486D01*
X54090296Y19046701D01*
X54142767Y19051846D01*
X54166889Y19056623D01*
X54365496Y19116586D01*
X54388231Y19125957D01*
X54571408Y19223354D01*
X54591890Y19236962D01*
X54752661Y19368083D01*
X54770111Y19385411D01*
X54902352Y19545263D01*
X54916103Y19565649D01*
X55014777Y19748142D01*
X55024306Y19770813D01*
X55073192Y19928742D01*
X55074228Y19999731D01*
X55036720Y20060010D01*
X54972576Y20090443D01*
X54952827Y20092000D01*
X54078000Y20092000D01*
X54009879Y20071998D01*
X53963386Y20018342D01*
X53952000Y19966000D01*
X53696000Y19966000D01*
X53675998Y20034121D01*
X53622342Y20080614D01*
X53570000Y20092000D01*
X52741097Y20092000D01*
X52683213Y20110362D01*
X52659159Y20115475D01*
X52496543Y20133715D01*
X52482498Y20134500D01*
X52173006Y20134500D01*
X52160711Y20133899D01*
X52005137Y20118645D01*
X51981014Y20113868D01*
X51782314Y20053877D01*
X51759579Y20044506D01*
X51576315Y19947063D01*
X51555832Y19933455D01*
X51394986Y19802271D01*
X51377538Y19784944D01*
X51245235Y19625018D01*
X51231483Y19604631D01*
X51132763Y19422052D01*
X51123234Y19399382D01*
X51061857Y19201105D01*
X51056912Y19177017D01*
X51035216Y18970596D01*
X51035045Y18946005D01*
X9637899Y18946005D01*
X9637955Y18953995D01*
X9628682Y19055883D01*
X9650881Y19059783D01*
X9703065Y19107922D01*
X9721000Y19172713D01*
X9721000Y19966000D01*
X9977000Y19966000D01*
X9977000Y19172100D01*
X9997002Y19103979D01*
X10050658Y19057486D01*
X10115296Y19046701D01*
X10167767Y19051846D01*
X10191889Y19056623D01*
X10390496Y19116586D01*
X10413231Y19125957D01*
X10596408Y19223354D01*
X10616890Y19236962D01*
X10777661Y19368083D01*
X10795111Y19385411D01*
X10927352Y19545263D01*
X10941103Y19565649D01*
X11039777Y19748142D01*
X11049306Y19770813D01*
X11098192Y19928742D01*
X11099228Y19999731D01*
X11061720Y20060010D01*
X10997576Y20090443D01*
X10977827Y20092000D01*
X10103000Y20092000D01*
X10034879Y20071998D01*
X9988386Y20018342D01*
X9977000Y19966000D01*
X9721000Y19966000D01*
X9700998Y20034121D01*
X9647342Y20080614D01*
X9595000Y20092000D01*
X8766097Y20092000D01*
X8708213Y20110362D01*
X8684159Y20115475D01*
X8521543Y20133715D01*
X8507498Y20134500D01*
X8198006Y20134500D01*
X8185711Y20133899D01*
X8030137Y20118645D01*
X8006014Y20113868D01*
X7807314Y20053877D01*
X7784579Y20044506D01*
X7601315Y19947063D01*
X7580832Y19933455D01*
X7419986Y19802271D01*
X7402538Y19784944D01*
X7270235Y19625018D01*
X7256483Y19604631D01*
X7157763Y19422052D01*
X7148234Y19399382D01*
X7086857Y19201105D01*
X7081912Y19177017D01*
X7060216Y18970596D01*
X7060045Y18946005D01*
X888000Y18946005D01*
X888000Y22756005D01*
X7060045Y22756005D01*
X7078857Y22549300D01*
X7083464Y22525145D01*
X7142066Y22326031D01*
X7151278Y22303231D01*
X7245150Y22123671D01*
X7157763Y21962052D01*
X7148234Y21939382D01*
X7086857Y21741105D01*
X7081912Y21717017D01*
X7060216Y21510596D01*
X7060045Y21486005D01*
X7078857Y21279300D01*
X7083464Y21255145D01*
X7142066Y21056031D01*
X7151278Y21033231D01*
X7247439Y20849292D01*
X7260904Y20828715D01*
X7390961Y20666956D01*
X7408167Y20649386D01*
X7567167Y20515970D01*
X7587457Y20502077D01*
X7769342Y20402085D01*
X7791944Y20392398D01*
X7989787Y20329638D01*
X8013841Y20324525D01*
X8176457Y20306285D01*
X8190502Y20305500D01*
X8499994Y20305500D01*
X8512289Y20306101D01*
X8667863Y20321355D01*
X8691986Y20326132D01*
X8764416Y20348000D01*
X9595000Y20348000D01*
X9663121Y20368002D01*
X9709614Y20421658D01*
X9721000Y20474000D01*
X9721000Y21267287D01*
X9977000Y21267287D01*
X9977000Y20474000D01*
X9997002Y20405879D01*
X10050658Y20359386D01*
X10103000Y20348000D01*
X10977038Y20348000D01*
X11045159Y20368002D01*
X11091652Y20421658D01*
X11101756Y20491932D01*
X11097912Y20509575D01*
X11055470Y20653782D01*
X11046258Y20676582D01*
X10950142Y20860435D01*
X10936676Y20881012D01*
X10806680Y21042694D01*
X10789476Y21060263D01*
X10630552Y21193617D01*
X10610261Y21207511D01*
X10428461Y21307456D01*
X10405859Y21317143D01*
X10208109Y21379873D01*
X10184054Y21384986D01*
X10117044Y21392502D01*
X10047119Y21380217D01*
X9994935Y21332078D01*
X9977000Y21267287D01*
X9721000Y21267287D01*
X9721000Y21267900D01*
X9700998Y21336021D01*
X9647342Y21382514D01*
X9628974Y21385579D01*
X9637784Y21469404D01*
X9637955Y21493995D01*
X9619143Y21700700D01*
X9614536Y21724855D01*
X9555934Y21923969D01*
X9546722Y21946769D01*
X9452850Y22126329D01*
X9540237Y22287948D01*
X9549766Y22310618D01*
X9611143Y22508895D01*
X9616088Y22532983D01*
X9637784Y22739404D01*
X9637899Y22756005D01*
X51035045Y22756005D01*
X51053857Y22549300D01*
X51058464Y22525145D01*
X51117066Y22326031D01*
X51126278Y22303231D01*
X51220150Y22123671D01*
X51132763Y21962052D01*
X51123234Y21939382D01*
X51061857Y21741105D01*
X51056912Y21717017D01*
X51035216Y21510596D01*
X51035045Y21486005D01*
X51053857Y21279300D01*
X51058464Y21255145D01*
X51117066Y21056031D01*
X51126278Y21033231D01*
X51222439Y20849292D01*
X51235904Y20828715D01*
X51365961Y20666956D01*
X51383167Y20649386D01*
X51542167Y20515970D01*
X51562457Y20502077D01*
X51744342Y20402085D01*
X51766944Y20392398D01*
X51964787Y20329638D01*
X51988841Y20324525D01*
X52151457Y20306285D01*
X52165502Y20305500D01*
X52474994Y20305500D01*
X52487289Y20306101D01*
X52642863Y20321355D01*
X52666986Y20326132D01*
X52739416Y20348000D01*
X53570000Y20348000D01*
X53638121Y20368002D01*
X53684614Y20421658D01*
X53696000Y20474000D01*
X53696000Y21267287D01*
X53952000Y21267287D01*
X53952000Y20474000D01*
X53972002Y20405879D01*
X54025658Y20359386D01*
X54078000Y20348000D01*
X54952038Y20348000D01*
X55020159Y20368002D01*
X55066652Y20421658D01*
X55076756Y20491932D01*
X55072912Y20509575D01*
X55030470Y20653782D01*
X55021258Y20676582D01*
X54925142Y20860435D01*
X54911676Y20881012D01*
X54781680Y21042694D01*
X54764476Y21060263D01*
X54605552Y21193617D01*
X54585261Y21207511D01*
X54403461Y21307456D01*
X54380859Y21317143D01*
X54183109Y21379873D01*
X54159054Y21384986D01*
X54092044Y21392502D01*
X54022119Y21380217D01*
X53969935Y21332078D01*
X53952000Y21267287D01*
X53696000Y21267287D01*
X53696000Y21267900D01*
X53675998Y21336021D01*
X53622342Y21382514D01*
X53603974Y21385579D01*
X53612784Y21469404D01*
X53612955Y21493995D01*
X53594143Y21700700D01*
X53589536Y21724855D01*
X53530934Y21923969D01*
X53521722Y21946769D01*
X53427850Y22126329D01*
X53515237Y22287948D01*
X53524766Y22310618D01*
X53586143Y22508895D01*
X53591088Y22532983D01*
X53612784Y22739404D01*
X53612955Y22763995D01*
X53603682Y22865883D01*
X53625881Y22869783D01*
X53678065Y22917922D01*
X53696000Y22982713D01*
X53696000Y23776000D01*
X53952000Y23776000D01*
X53952000Y22982100D01*
X53972002Y22913979D01*
X54025658Y22867486D01*
X54090296Y22856701D01*
X54142767Y22861846D01*
X54166889Y22866623D01*
X54365496Y22926586D01*
X54388231Y22935957D01*
X54571408Y23033354D01*
X54591890Y23046962D01*
X54752661Y23178083D01*
X54770111Y23195411D01*
X54902352Y23355263D01*
X54916103Y23375649D01*
X55014777Y23558142D01*
X55024306Y23580813D01*
X55073192Y23738742D01*
X55074228Y23809731D01*
X55036720Y23870010D01*
X54972576Y23900443D01*
X54952827Y23902000D01*
X54078000Y23902000D01*
X54009879Y23881998D01*
X53963386Y23828342D01*
X53952000Y23776000D01*
X53696000Y23776000D01*
X53675998Y23844121D01*
X53622342Y23890614D01*
X53570000Y23902000D01*
X52741097Y23902000D01*
X52683213Y23920362D01*
X52659159Y23925475D01*
X52496543Y23943715D01*
X52482498Y23944500D01*
X52173006Y23944500D01*
X52160711Y23943899D01*
X52005137Y23928645D01*
X51981014Y23923868D01*
X51782314Y23863877D01*
X51759579Y23854506D01*
X51576315Y23757063D01*
X51555832Y23743455D01*
X51394986Y23612271D01*
X51377538Y23594944D01*
X51245235Y23435018D01*
X51231483Y23414631D01*
X51132763Y23232052D01*
X51123234Y23209382D01*
X51061857Y23011105D01*
X51056912Y22987017D01*
X51035216Y22780596D01*
X51035045Y22756005D01*
X9637899Y22756005D01*
X9637955Y22763995D01*
X9628682Y22865883D01*
X9650881Y22869783D01*
X9703065Y22917922D01*
X9721000Y22982713D01*
X9721000Y23776000D01*
X9977000Y23776000D01*
X9977000Y22982100D01*
X9997002Y22913979D01*
X10050658Y22867486D01*
X10115296Y22856701D01*
X10167767Y22861846D01*
X10191889Y22866623D01*
X10390496Y22926586D01*
X10413231Y22935957D01*
X10596408Y23033354D01*
X10616890Y23046962D01*
X10777661Y23178083D01*
X10795111Y23195411D01*
X10927352Y23355263D01*
X10941103Y23375649D01*
X11039777Y23558142D01*
X11049306Y23580813D01*
X11098192Y23738742D01*
X11099228Y23809731D01*
X11061720Y23870010D01*
X10997576Y23900443D01*
X10977827Y23902000D01*
X10103000Y23902000D01*
X10034879Y23881998D01*
X9988386Y23828342D01*
X9977000Y23776000D01*
X9721000Y23776000D01*
X9700998Y23844121D01*
X9647342Y23890614D01*
X9595000Y23902000D01*
X8766097Y23902000D01*
X8708213Y23920362D01*
X8684159Y23925475D01*
X8521543Y23943715D01*
X8507498Y23944500D01*
X8198006Y23944500D01*
X8185711Y23943899D01*
X8030137Y23928645D01*
X8006014Y23923868D01*
X7807314Y23863877D01*
X7784579Y23854506D01*
X7601315Y23757063D01*
X7580832Y23743455D01*
X7419986Y23612271D01*
X7402538Y23594944D01*
X7270235Y23435018D01*
X7256483Y23414631D01*
X7157763Y23232052D01*
X7148234Y23209382D01*
X7086857Y23011105D01*
X7081912Y22987017D01*
X7060216Y22780596D01*
X7060045Y22756005D01*
X888000Y22756005D01*
X888000Y25106981D01*
X7175287Y25106981D01*
X7180352Y25036166D01*
X7223903Y24978586D01*
X7340247Y24893279D01*
X7356085Y24883383D01*
X7587338Y24761715D01*
X7604464Y24754268D01*
X7851161Y24668118D01*
X7869200Y24663284D01*
X8125921Y24614544D01*
X8144476Y24612430D01*
X8405581Y24602171D01*
X8424245Y24602823D01*
X8683998Y24631271D01*
X8702361Y24634674D01*
X8734630Y24643170D01*
X8658223Y24501858D01*
X8648694Y24479187D01*
X8599808Y24321258D01*
X8598772Y24250269D01*
X8636280Y24189990D01*
X8700424Y24159557D01*
X8720173Y24158000D01*
X9595000Y24158000D01*
X9663121Y24178002D01*
X9709614Y24231658D01*
X9721000Y24284000D01*
X9721000Y25077287D01*
X9977000Y25077287D01*
X9977000Y24284000D01*
X9997002Y24215879D01*
X10050658Y24169386D01*
X10103000Y24158000D01*
X10977038Y24158000D01*
X11045159Y24178002D01*
X11091652Y24231658D01*
X11101756Y24301932D01*
X11097912Y24319575D01*
X11055470Y24463782D01*
X11046258Y24486582D01*
X10950142Y24670435D01*
X10936676Y24691012D01*
X10806680Y24852694D01*
X10789476Y24870263D01*
X10630552Y25003617D01*
X10610261Y25017511D01*
X10447515Y25106981D01*
X51150287Y25106981D01*
X51155352Y25036166D01*
X51198903Y24978586D01*
X51315247Y24893279D01*
X51331085Y24883383D01*
X51562338Y24761715D01*
X51579464Y24754268D01*
X51826161Y24668118D01*
X51844200Y24663284D01*
X52100921Y24614544D01*
X52119476Y24612430D01*
X52380581Y24602171D01*
X52399245Y24602823D01*
X52658998Y24631271D01*
X52677361Y24634674D01*
X52709630Y24643170D01*
X52633223Y24501858D01*
X52623694Y24479187D01*
X52574808Y24321258D01*
X52573772Y24250269D01*
X52611280Y24189990D01*
X52675424Y24159557D01*
X52695173Y24158000D01*
X53570000Y24158000D01*
X53638121Y24178002D01*
X53684614Y24231658D01*
X53696000Y24284000D01*
X53696000Y25077287D01*
X53952000Y25077287D01*
X53952000Y24284000D01*
X53972002Y24215879D01*
X54025658Y24169386D01*
X54078000Y24158000D01*
X54952038Y24158000D01*
X55020159Y24178002D01*
X55066652Y24231658D01*
X55076756Y24301932D01*
X55072912Y24319575D01*
X55030470Y24463782D01*
X55021258Y24486582D01*
X54925142Y24670435D01*
X54911676Y24691012D01*
X54781680Y24852694D01*
X54764476Y24870263D01*
X54605552Y25003617D01*
X54585261Y25017511D01*
X54403461Y25117456D01*
X54380859Y25127143D01*
X54183109Y25189873D01*
X54159054Y25194986D01*
X54092044Y25202502D01*
X54022119Y25190217D01*
X53969935Y25142078D01*
X53952000Y25077287D01*
X53696000Y25077287D01*
X53696000Y25077900D01*
X53675998Y25146021D01*
X53622342Y25192514D01*
X53557704Y25203299D01*
X53505233Y25198154D01*
X53481111Y25193377D01*
X53449229Y25183751D01*
X52413095Y26219885D01*
X52350783Y26253911D01*
X52279968Y26248846D01*
X52234905Y26219885D01*
X51184313Y25169293D01*
X51150287Y25106981D01*
X10447515Y25106981D01*
X10428461Y25117456D01*
X10405859Y25127143D01*
X10208109Y25189873D01*
X10184054Y25194986D01*
X10117044Y25202502D01*
X10047119Y25190217D01*
X9994935Y25142078D01*
X9977000Y25077287D01*
X9721000Y25077287D01*
X9721000Y25077900D01*
X9700998Y25146021D01*
X9647342Y25192514D01*
X9582704Y25203299D01*
X9530233Y25198154D01*
X9506111Y25193377D01*
X9474229Y25183751D01*
X8438095Y26219885D01*
X8375783Y26253911D01*
X8304968Y26248846D01*
X8259905Y26219885D01*
X7209313Y25169293D01*
X7175287Y25106981D01*
X888000Y25106981D01*
X888000Y26530105D01*
X6460749Y26530105D01*
X6473286Y26269099D01*
X6475562Y26250562D01*
X6526541Y25994277D01*
X6531532Y25976282D01*
X6619831Y25730346D01*
X6627427Y25713284D01*
X6751109Y25483102D01*
X6761143Y25467353D01*
X6838277Y25364057D01*
X6895061Y25321442D01*
X6965871Y25316293D01*
X7028330Y25350350D01*
X8078885Y26400905D01*
X8112911Y26463217D01*
X8109080Y26516783D01*
X8585089Y26516783D01*
X8590154Y26445968D01*
X8619115Y26400905D01*
X9672681Y25347339D01*
X9734993Y25313313D01*
X9805808Y25318378D01*
X9862644Y25360925D01*
X9867747Y25368271D01*
X10004326Y25580606D01*
X10013237Y25597019D01*
X10120560Y25835268D01*
X10126947Y25852817D01*
X10197876Y26104313D01*
X10201600Y26122613D01*
X10234577Y26381831D01*
X10235541Y26394434D01*
X10237957Y26486702D01*
X10237654Y26499338D01*
X10235368Y26530105D01*
X50435749Y26530105D01*
X50448286Y26269099D01*
X50450562Y26250562D01*
X50501541Y25994277D01*
X50506532Y25976282D01*
X50594831Y25730346D01*
X50602427Y25713284D01*
X50726109Y25483102D01*
X50736143Y25467353D01*
X50813277Y25364057D01*
X50870061Y25321442D01*
X50940871Y25316293D01*
X51003330Y25350350D01*
X52053885Y26400905D01*
X52087911Y26463217D01*
X52084080Y26516783D01*
X52560089Y26516783D01*
X52565154Y26445968D01*
X52594115Y26400905D01*
X53647681Y25347339D01*
X53709993Y25313313D01*
X53780808Y25318378D01*
X53837644Y25360925D01*
X53842747Y25368271D01*
X53979326Y25580606D01*
X53988237Y25597019D01*
X54095560Y25835268D01*
X54101947Y25852817D01*
X54172876Y26104313D01*
X54176600Y26122613D01*
X54209577Y26381831D01*
X54210541Y26394434D01*
X54212957Y26486702D01*
X54212654Y26499338D01*
X54193289Y26759926D01*
X54190528Y26778396D01*
X54132858Y27033259D01*
X54127398Y27051118D01*
X54032691Y27294658D01*
X54024651Y27311514D01*
X53894986Y27538380D01*
X53884543Y27553863D01*
X53833176Y27619022D01*
X53775295Y27660135D01*
X53704375Y27663429D01*
X53645131Y27630111D01*
X52594115Y26579095D01*
X52560089Y26516783D01*
X52084080Y26516783D01*
X52082846Y26534032D01*
X52053885Y26579095D01*
X51001555Y27631425D01*
X50939243Y27665451D01*
X50868428Y27660386D01*
X50815587Y27622900D01*
X50791841Y27594349D01*
X50780995Y27579144D01*
X50645436Y27355750D01*
X50636958Y27339111D01*
X50535908Y27098134D01*
X50529982Y27080423D01*
X50465661Y26827157D01*
X50462418Y26808766D01*
X50436238Y26548774D01*
X50435749Y26530105D01*
X10235368Y26530105D01*
X10218289Y26759926D01*
X10215528Y26778396D01*
X10157858Y27033259D01*
X10152398Y27051118D01*
X10057691Y27294658D01*
X10049651Y27311514D01*
X9919986Y27538380D01*
X9909543Y27553863D01*
X9858176Y27619022D01*
X9800295Y27660135D01*
X9729375Y27663429D01*
X9670131Y27630111D01*
X8619115Y26579095D01*
X8585089Y26516783D01*
X8109080Y26516783D01*
X8107846Y26534032D01*
X8078885Y26579095D01*
X7026555Y27631425D01*
X6964243Y27665451D01*
X6893428Y27660386D01*
X6840587Y27622900D01*
X6816841Y27594349D01*
X6805995Y27579144D01*
X6670436Y27355750D01*
X6661958Y27339111D01*
X6560908Y27098134D01*
X6554982Y27080423D01*
X6490661Y26827157D01*
X6487418Y26808766D01*
X6461238Y26548774D01*
X6460749Y26530105D01*
X888000Y26530105D01*
X888000Y27882988D01*
X7171604Y27882988D01*
X7201685Y27818679D01*
X7207058Y27812962D01*
X8259905Y26760115D01*
X8322217Y26726089D01*
X8393032Y26731154D01*
X8438095Y26760115D01*
X9489376Y27811396D01*
X9523402Y27873708D01*
X9522738Y27882988D01*
X51146604Y27882988D01*
X51176685Y27818679D01*
X51182058Y27812962D01*
X52234905Y26760115D01*
X52297217Y26726089D01*
X52368032Y26731154D01*
X52413095Y26760115D01*
X53464376Y27811396D01*
X53498402Y27873708D01*
X53493337Y27944523D01*
X53447100Y28004019D01*
X53290609Y28112580D01*
X53274518Y28122058D01*
X53040159Y28237631D01*
X53022844Y28244627D01*
X52773977Y28324290D01*
X52755818Y28328650D01*
X52497910Y28370653D01*
X52479306Y28372280D01*
X52218021Y28375701D01*
X52199379Y28374561D01*
X51940460Y28339323D01*
X51922194Y28335440D01*
X51671326Y28262319D01*
X51653833Y28255779D01*
X51416530Y28146381D01*
X51400196Y28137327D01*
X51202068Y28007429D01*
X51156067Y27953352D01*
X51146604Y27882988D01*
X9522738Y27882988D01*
X9518337Y27944523D01*
X9472100Y28004019D01*
X9315609Y28112580D01*
X9299518Y28122058D01*
X9065159Y28237631D01*
X9047844Y28244627D01*
X8798977Y28324290D01*
X8780818Y28328650D01*
X8522910Y28370653D01*
X8504306Y28372280D01*
X8243021Y28375701D01*
X8224379Y28374561D01*
X7965460Y28339323D01*
X7947194Y28335440D01*
X7696326Y28262319D01*
X7678833Y28255779D01*
X7441530Y28146381D01*
X7425196Y28137327D01*
X7227068Y28007429D01*
X7181067Y27953352D01*
X7171604Y27882988D01*
X888000Y27882988D01*
X888000Y39752000D01*
X60072000Y39752000D01*
X60072000Y888000D01*
G37*
%TD.AperFunction*%
%TD*%
M02*
