  0
SECTION
  2
HEADER
  9
$ANGBASE
  50
0.0
  9
$ANGDIR
  70
1
  9
$MEASUREMENT
  70
0
  0
ENDSEC
  0
SECTION
  2
TABLES
  0
TABLE
  2
LTYPE
  70
4
  0
LTYPE
  5
40F
  2
CONTINUOUS
  70
0
  3
Solid line
  72
65
  73
0
  40
0.0
  0
LTYPE
  5
410
  2
DASHDOT
 70
0
  3
Dash Dot ____ _ ____ _
 72
65
 73
4
 40
2.0
 49
1.25
 49
-0.25
 49
0.25
 49
-0.25
  0
LTYPE
  5
411
  2
DASHED
 70
0
  3
Dashed __ __ __ __ __
 72
65
 73
2
 40
0.75
 49
0.5
 49
-0.25
  0
LTYPE
  5
43B
  2
DOTTED
 70
0
  3
Dotted .  .  .  .
 72
65
 73
2
 40
0.2
 49
0.0
 49
-0.2
  0
ENDTAB
  0
TABLE
  2
STYLE
  70
4
  0
STYLE
  2
KICAD
  70
0
  40
0
  41
1
  42
1
  50
0
  71
0
  3
isocp.shx
  0
STYLE
  2
KICADB
  70
0
  40
0
  41
1
  42
1
  50
0
  71
0
  3
isocp.shx
  0
STYLE
  2
KICADI
  70
0
  40
0
  41
1
  42
1
  50
15
  71
0
  3
isocp.shx
  0
STYLE
  2
KICADBI
  70
0
  40
0
  41
1
  42
1
  50
15
  71
0
  3
isocp.shx
  0
ENDTAB
  0
TABLE
  2
LAYER
  70
1
  0
LAYER
  2
BLACK
  70
0
  62
7
  6
CONTINUOUS
  0
ENDTAB
  0
ENDSEC
  0
SECTION
  2
ENTITIES
0
LINE
8
BLACK
6
CONTINUOUS
10
2.21492
20
0.325098
11
2.22877
21
0.322656
0
LINE
8
BLACK
6
CONTINUOUS
10
2.22877
20
0.322656
11
2.24226
21
0.318684
0
LINE
8
BLACK
6
CONTINUOUS
10
2.24226
20
0.318684
11
2.25523
21
0.313234
0
LINE
8
BLACK
6
CONTINUOUS
10
2.25523
20
0.313234
11
2.26751
21
0.306372
0
LINE
8
BLACK
6
CONTINUOUS
10
2.26751
20
0.306372
11
2.27894
21
0.298184
0
LINE
8
BLACK
6
CONTINUOUS
10
2.27894
20
0.298184
11
2.28939
21
0.288773
0
LINE
8
BLACK
6
CONTINUOUS
10
2.28939
20
0.288773
11
2.29873
21
0.278255
0
LINE
8
BLACK
6
CONTINUOUS
10
2.29873
20
0.278255
11
2.30684
21
0.266761
0
LINE
8
BLACK
6
CONTINUOUS
10
2.30684
20
0.266761
11
2.31362
21
0.254436
0
LINE
8
BLACK
6
CONTINUOUS
10
2.31362
20
0.254436
11
2.31898
21
0.241432
0
LINE
8
BLACK
6
CONTINUOUS
10
2.31898
20
0.241432
11
2.32285
21
0.227912
0
LINE
8
BLACK
6
CONTINUOUS
10
2.32285
20
0.227912
11
2.3252
21
0.214043
0
LINE
8
BLACK
6
CONTINUOUS
10
2.3252
20
0.214043
11
2.32598
21
0.2
0
LINE
8
BLACK
6
CONTINUOUS
10
2.32598
20
0.2
11
2.32594
21
0.196482
0
LINE
8
BLACK
6
CONTINUOUS
10
2.32594
20
0.196482
11
2.32476
21
0.182466
0
LINE
8
BLACK
6
CONTINUOUS
10
2.32476
20
0.182466
11
2.32203
21
0.168669
0
LINE
8
BLACK
6
CONTINUOUS
10
2.32203
20
0.168669
11
2.31777
21
0.155262
0
LINE
8
BLACK
6
CONTINUOUS
10
2.31777
20
0.155262
11
2.31205
21
0.142413
0
LINE
8
BLACK
6
CONTINUOUS
10
2.31205
20
0.142413
11
2.30493
21
0.130281
0
LINE
8
BLACK
6
CONTINUOUS
10
2.30493
20
0.130281
11
2.29651
21
0.119019
0
LINE
8
BLACK
6
CONTINUOUS
10
2.29651
20
0.119019
11
2.28688
21
0.108766
0
LINE
8
BLACK
6
CONTINUOUS
10
2.28688
20
0.108766
11
2.27617
21
0.0996498
0
LINE
8
BLACK
6
CONTINUOUS
10
2.27617
20
0.0996498
11
2.26451
21
0.0917846
0
LINE
8
BLACK
6
CONTINUOUS
10
2.26451
20
0.0917846
11
2.25204
21
0.0852682
0
LINE
8
BLACK
6
CONTINUOUS
10
2.25204
20
0.0852682
11
2.23893
21
0.0801819
0
LINE
8
BLACK
6
CONTINUOUS
10
2.23893
20
0.0801819
11
2.22533
21
0.0765889
0
LINE
8
BLACK
6
CONTINUOUS
10
2.22533
20
0.0765889
11
2.21142
21
0.0745343
0
LINE
8
BLACK
6
CONTINUOUS
10
2.21142
20
0.0745343
11
2.19736
21
0.0740434
0
LINE
8
BLACK
6
CONTINUOUS
10
2.19736
20
0.0740434
11
2.18334
21
0.0751224
0
LINE
8
BLACK
6
CONTINUOUS
10
2.18334
20
0.0751224
11
2.16952
21
0.077758
0
LINE
8
BLACK
6
CONTINUOUS
10
2.16952
20
0.077758
11
2.15609
21
0.0819172
0
LINE
8
BLACK
6
CONTINUOUS
10
2.15609
20
0.0819172
11
2.1432
21
0.0875482
0
LINE
8
BLACK
6
CONTINUOUS
10
2.1432
20
0.0875482
11
2.13102
21
0.0945809
0
LINE
8
BLACK
6
CONTINUOUS
10
2.13102
20
0.0945809
11
2.11969
21
0.102927
0
LINE
8
BLACK
6
CONTINUOUS
10
2.11969
20
0.102927
11
2.10937
21
0.112484
0
LINE
8
BLACK
6
CONTINUOUS
10
2.10937
20
0.112484
11
2.10018
21
0.123131
0
LINE
8
BLACK
6
CONTINUOUS
10
2.10018
20
0.123131
11
2.09224
21
0.134737
0
LINE
8
BLACK
6
CONTINUOUS
10
2.09224
20
0.134737
11
2.08563
21
0.147156
0
LINE
8
BLACK
6
CONTINUOUS
10
2.08563
20
0.147156
11
2.08046
21
0.160233
0
LINE
8
BLACK
6
CONTINUOUS
10
2.08046
20
0.160233
11
2.07677
21
0.173806
0
LINE
8
BLACK
6
CONTINUOUS
10
2.07677
20
0.173806
11
2.07462
21
0.187706
0
LINE
8
BLACK
6
CONTINUOUS
10
2.07462
20
0.187706
11
2.07403
21
0.201759
0
LINE
8
BLACK
6
CONTINUOUS
10
2.07403
20
0.201759
11
2.07501
21
0.21579
0
LINE
8
BLACK
6
CONTINUOUS
10
2.07501
20
0.21579
11
2.07755
21
0.229624
0
LINE
8
BLACK
6
CONTINUOUS
10
2.07755
20
0.229624
11
2.08161
21
0.243089
0
LINE
8
BLACK
6
CONTINUOUS
10
2.08161
20
0.243089
11
2.08715
21
0.256017
0
LINE
8
BLACK
6
CONTINUOUS
10
2.08715
20
0.256017
11
2.0941
21
0.268247
0
LINE
8
BLACK
6
CONTINUOUS
10
2.0941
20
0.268247
11
2.10237
21
0.279626
0
LINE
8
BLACK
6
CONTINUOUS
10
2.10237
20
0.279626
11
2.11185
21
0.290012
0
LINE
8
BLACK
6
CONTINUOUS
10
2.11185
20
0.290012
11
2.12244
21
0.299277
0
LINE
8
BLACK
6
CONTINUOUS
10
2.12244
20
0.299277
11
2.13399
21
0.307304
0
LINE
8
BLACK
6
CONTINUOUS
10
2.13399
20
0.307304
11
2.14636
21
0.313994
0
LINE
8
BLACK
6
CONTINUOUS
10
2.14636
20
0.313994
11
2.1594
21
0.319263
0
LINE
8
BLACK
6
CONTINUOUS
10
2.1594
20
0.319263
11
2.17295
21
0.323045
0
LINE
8
BLACK
6
CONTINUOUS
10
2.17295
20
0.323045
11
2.18683
21
0.325294
0
LINE
8
BLACK
6
CONTINUOUS
10
2.18683
20
0.325294
11
2.20088
21
0.325981
0
LINE
8
BLACK
6
CONTINUOUS
10
2.20088
20
0.325981
11
2.21492
21
0.325098
0
LINE
8
BLACK
6
CONTINUOUS
10
0.214917
20
0.325098
11
0.228769
21
0.322656
0
LINE
8
BLACK
6
CONTINUOUS
10
0.228769
20
0.322656
11
0.242262
21
0.318684
0
LINE
8
BLACK
6
CONTINUOUS
10
0.242262
20
0.318684
11
0.255228
21
0.313234
0
LINE
8
BLACK
6
CONTINUOUS
10
0.255228
20
0.313234
11
0.267506
21
0.306372
0
LINE
8
BLACK
6
CONTINUOUS
10
0.267506
20
0.306372
11
0.278942
21
0.298184
0
LINE
8
BLACK
6
CONTINUOUS
10
0.278942
20
0.298184
11
0.289395
21
0.288773
0
LINE
8
BLACK
6
CONTINUOUS
10
0.289395
20
0.288773
11
0.298733
21
0.278255
0
LINE
8
BLACK
6
CONTINUOUS
10
0.298733
20
0.278255
11
0.306841
21
0.266761
0
LINE
8
BLACK
6
CONTINUOUS
10
0.306841
20
0.266761
11
0.313617
21
0.254436
0
LINE
8
BLACK
6
CONTINUOUS
10
0.313617
20
0.254436
11
0.318977
21
0.241432
0
LINE
8
BLACK
6
CONTINUOUS
10
0.318977
20
0.241432
11
0.322853
21
0.227912
0
LINE
8
BLACK
6
CONTINUOUS
10
0.322853
20
0.227912
11
0.325199
21
0.214043
0
LINE
8
BLACK
6
CONTINUOUS
10
0.325199
20
0.214043
11
0.325984
21
0.2
0
LINE
8
BLACK
6
CONTINUOUS
10
0.325984
20
0.2
11
0.325935
21
0.196482
0
LINE
8
BLACK
6
CONTINUOUS
10
0.325935
20
0.196482
11
0.324758
21
0.182466
0
LINE
8
BLACK
6
CONTINUOUS
10
0.324758
20
0.182466
11
0.322026
21
0.168669
0
LINE
8
BLACK
6
CONTINUOUS
10
0.322026
20
0.168669
11
0.317773
21
0.155262
0
LINE
8
BLACK
6
CONTINUOUS
10
0.317773
20
0.155262
11
0.312052
21
0.142413
0
LINE
8
BLACK
6
CONTINUOUS
10
0.312052
20
0.142413
11
0.304935
21
0.130281
0
LINE
8
BLACK
6
CONTINUOUS
10
0.304935
20
0.130281
11
0.29651
21
0.119019
0
LINE
8
BLACK
6
CONTINUOUS
10
0.29651
20
0.119019
11
0.286881
21
0.108766
0
LINE
8
BLACK
6
CONTINUOUS
10
0.286881
20
0.108766
11
0.27617
21
0.0996498
0
LINE
8
BLACK
6
CONTINUOUS
10
0.27617
20
0.0996498
11
0.264509
21
0.0917846
0
LINE
8
BLACK
6
CONTINUOUS
10
0.264509
20
0.0917846
11
0.252045
21
0.0852682
0
LINE
8
BLACK
6
CONTINUOUS
10
0.252045
20
0.0852682
11
0.238931
21
0.0801819
0
LINE
8
BLACK
6
CONTINUOUS
10
0.238931
20
0.0801819
11
0.225333
21
0.0765889
0
LINE
8
BLACK
6
CONTINUOUS
10
0.225333
20
0.0765889
11
0.211418
21
0.0745343
0
LINE
8
BLACK
6
CONTINUOUS
10
0.211418
20
0.0745343
11
0.197362
21
0.0740434
0
LINE
8
BLACK
6
CONTINUOUS
10
0.197362
20
0.0740434
11
0.183338
21
0.0751224
0
LINE
8
BLACK
6
CONTINUOUS
10
0.183338
20
0.0751224
11
0.169522
21
0.077758
0
LINE
8
BLACK
6
CONTINUOUS
10
0.169522
20
0.077758
11
0.156085
21
0.0819172
0
LINE
8
BLACK
6
CONTINUOUS
10
0.156085
20
0.0819172
11
0.143197
21
0.0875482
0
LINE
8
BLACK
6
CONTINUOUS
10
0.143197
20
0.0875482
11
0.131016
21
0.0945809
0
LINE
8
BLACK
6
CONTINUOUS
10
0.131016
20
0.0945809
11
0.119695
21
0.102927
0
LINE
8
BLACK
6
CONTINUOUS
10
0.119695
20
0.102927
11
0.109375
21
0.112484
0
LINE
8
BLACK
6
CONTINUOUS
10
0.109375
20
0.112484
11
0.100184
21
0.123131
0
LINE
8
BLACK
6
CONTINUOUS
10
0.100184
20
0.123131
11
0.0922376
21
0.134737
0
LINE
8
BLACK
6
CONTINUOUS
10
0.0922376
20
0.134737
11
0.0856343
21
0.147156
0
LINE
8
BLACK
6
CONTINUOUS
10
0.0856343
20
0.147156
11
0.0804566
21
0.160233
0
LINE
8
BLACK
6
CONTINUOUS
10
0.0804566
20
0.160233
11
0.0767688
21
0.173806
0
LINE
8
BLACK
6
CONTINUOUS
10
0.0767688
20
0.173806
11
0.074617
21
0.187706
0
LINE
8
BLACK
6
CONTINUOUS
10
0.074617
20
0.187706
11
0.074028
21
0.201759
0
LINE
8
BLACK
6
CONTINUOUS
10
0.074028
20
0.201759
11
0.0750092
21
0.21579
0
LINE
8
BLACK
6
CONTINUOUS
10
0.0750092
20
0.21579
11
0.0775482
21
0.229624
0
LINE
8
BLACK
6
CONTINUOUS
10
0.0775482
20
0.229624
11
0.0816135
21
0.243089
0
LINE
8
BLACK
6
CONTINUOUS
10
0.0816135
20
0.243089
11
0.0871544
21
0.256017
0
LINE
8
BLACK
6
CONTINUOUS
10
0.0871544
20
0.256017
11
0.0941019
21
0.268247
0
LINE
8
BLACK
6
CONTINUOUS
10
0.0941019
20
0.268247
11
0.102369
21
0.279626
0
LINE
8
BLACK
6
CONTINUOUS
10
0.102369
20
0.279626
11
0.111853
21
0.290012
0
LINE
8
BLACK
6
CONTINUOUS
10
0.111853
20
0.290012
11
0.122436
21
0.299277
0
LINE
8
BLACK
6
CONTINUOUS
10
0.122436
20
0.299277
11
0.133986
21
0.307304
0
LINE
8
BLACK
6
CONTINUOUS
10
0.133986
20
0.307304
11
0.146359
21
0.313994
0
LINE
8
BLACK
6
CONTINUOUS
10
0.146359
20
0.313994
11
0.1594
21
0.319263
0
LINE
8
BLACK
6
CONTINUOUS
10
0.1594
20
0.319263
11
0.172947
21
0.323045
0
LINE
8
BLACK
6
CONTINUOUS
10
0.172947
20
0.323045
11
0.186831
21
0.325294
0
LINE
8
BLACK
6
CONTINUOUS
10
0.186831
20
0.325294
11
0.20088
21
0.325981
0
LINE
8
BLACK
6
CONTINUOUS
10
0.20088
20
0.325981
11
0.214917
21
0.325098
0
LINE
8
BLACK
6
CONTINUOUS
10
0.294703
20
0.594629
11
0.303913
21
0.592988
0
LINE
8
BLACK
6
CONTINUOUS
10
0.303913
20
0.592988
11
0.312732
21
0.589865
0
LINE
8
BLACK
6
CONTINUOUS
10
0.312732
20
0.589865
11
0.320922
21
0.585344
0
LINE
8
BLACK
6
CONTINUOUS
10
0.320922
20
0.585344
11
0.328264
21
0.579546
0
LINE
8
BLACK
6
CONTINUOUS
10
0.328264
20
0.579546
11
0.33456
21
0.572626
0
LINE
8
BLACK
6
CONTINUOUS
10
0.33456
20
0.572626
11
0.339641
21
0.564772
0
LINE
8
BLACK
6
CONTINUOUS
10
0.339641
20
0.564772
11
0.343372
21
0.556192
0
LINE
8
BLACK
6
CONTINUOUS
10
0.343372
20
0.556192
11
0.345651
21
0.547119
0
LINE
8
BLACK
6
CONTINUOUS
10
0.345651
20
0.547119
11
0.346417
21
0.537795
0
LINE
8
BLACK
6
CONTINUOUS
10
0.346417
20
0.537795
11
0.346349
21
0.535007
0
LINE
8
BLACK
6
CONTINUOUS
10
0.346349
20
0.535007
11
0.345128
21
0.525731
0
LINE
8
BLACK
6
CONTINUOUS
10
0.345128
20
0.525731
11
0.342409
21
0.51678
0
LINE
8
BLACK
6
CONTINUOUS
10
0.342409
20
0.51678
11
0.338264
21
0.508394
0
LINE
8
BLACK
6
CONTINUOUS
10
0.338264
20
0.508394
11
0.332804
21
0.500796
0
LINE
8
BLACK
6
CONTINUOUS
10
0.332804
20
0.500796
11
0.326178
21
0.494193
0
LINE
8
BLACK
6
CONTINUOUS
10
0.326178
20
0.494193
11
0.318561
21
0.48876
0
LINE
8
BLACK
6
CONTINUOUS
10
0.318561
20
0.48876
11
0.31016
21
0.484644
0
LINE
8
BLACK
6
CONTINUOUS
10
0.31016
20
0.484644
11
0.3012
21
0.481956
0
LINE
8
BLACK
6
CONTINUOUS
10
0.3012
20
0.481956
11
0.29192
21
0.480767
0
LINE
8
BLACK
6
CONTINUOUS
10
0.29192
20
0.480767
11
0.282571
21
0.48111
0
LINE
8
BLACK
6
CONTINUOUS
10
0.282571
20
0.48111
11
0.273404
21
0.482975
0
LINE
8
BLACK
6
CONTINUOUS
10
0.273404
20
0.482975
11
0.264664
21
0.486313
0
LINE
8
BLACK
6
CONTINUOUS
10
0.264664
20
0.486313
11
0.256587
21
0.491033
0
LINE
8
BLACK
6
CONTINUOUS
10
0.256587
20
0.491033
11
0.249389
21
0.497008
0
LINE
8
BLACK
6
CONTINUOUS
10
0.249389
20
0.497008
11
0.243264
21
0.50408
0
LINE
8
BLACK
6
CONTINUOUS
10
0.243264
20
0.50408
11
0.238376
21
0.512056
0
LINE
8
BLACK
6
CONTINUOUS
10
0.238376
20
0.512056
11
0.234856
21
0.520724
0
LINE
8
BLACK
6
CONTINUOUS
10
0.234856
20
0.520724
11
0.2328
21
0.52985
0
LINE
8
BLACK
6
CONTINUOUS
10
0.2328
20
0.52985
11
0.232261
21
0.53919
0
LINE
8
BLACK
6
CONTINUOUS
10
0.232261
20
0.53919
11
0.233255
21
0.548492
0
LINE
8
BLACK
6
CONTINUOUS
10
0.233255
20
0.548492
11
0.235755
21
0.557507
0
LINE
8
BLACK
6
CONTINUOUS
10
0.235755
20
0.557507
11
0.239694
21
0.565993
0
LINE
8
BLACK
6
CONTINUOUS
10
0.239694
20
0.565993
11
0.244966
21
0.573721
0
LINE
8
BLACK
6
CONTINUOUS
10
0.244966
20
0.573721
11
0.251429
21
0.580485
0
LINE
8
BLACK
6
CONTINUOUS
10
0.251429
20
0.580485
11
0.258911
21
0.586102
0
LINE
8
BLACK
6
CONTINUOUS
10
0.258911
20
0.586102
11
0.267209
21
0.590421
0
LINE
8
BLACK
6
CONTINUOUS
10
0.267209
20
0.590421
11
0.276101
21
0.593328
0
LINE
8
BLACK
6
CONTINUOUS
10
0.276101
20
0.593328
11
0.285349
21
0.594743
0
LINE
8
BLACK
6
CONTINUOUS
10
0.285349
20
0.594743
11
0.294703
21
0.594629
0
LINE
8
BLACK
6
CONTINUOUS
10
2.026
20
0.594629
11
2.03521
21
0.592988
0
LINE
8
BLACK
6
CONTINUOUS
10
2.03521
20
0.592988
11
2.04403
21
0.589865
0
LINE
8
BLACK
6
CONTINUOUS
10
2.04403
20
0.589865
11
2.05222
21
0.585344
0
LINE
8
BLACK
6
CONTINUOUS
10
2.05222
20
0.585344
11
2.05956
21
0.579546
0
LINE
8
BLACK
6
CONTINUOUS
10
2.05956
20
0.579546
11
2.06586
21
0.572626
0
LINE
8
BLACK
6
CONTINUOUS
10
2.06586
20
0.572626
11
2.07094
21
0.564772
0
LINE
8
BLACK
6
CONTINUOUS
10
2.07094
20
0.564772
11
2.07467
21
0.556192
0
LINE
8
BLACK
6
CONTINUOUS
10
2.07467
20
0.556192
11
2.07695
21
0.547119
0
LINE
8
BLACK
6
CONTINUOUS
10
2.07695
20
0.547119
11
2.07772
21
0.537795
0
LINE
8
BLACK
6
CONTINUOUS
10
2.07772
20
0.537795
11
2.07765
21
0.535007
0
LINE
8
BLACK
6
CONTINUOUS
10
2.07765
20
0.535007
11
2.07643
21
0.525731
0
LINE
8
BLACK
6
CONTINUOUS
10
2.07643
20
0.525731
11
2.07371
21
0.51678
0
LINE
8
BLACK
6
CONTINUOUS
10
2.07371
20
0.51678
11
2.06956
21
0.508394
0
LINE
8
BLACK
6
CONTINUOUS
10
2.06956
20
0.508394
11
2.0641
21
0.500796
0
LINE
8
BLACK
6
CONTINUOUS
10
2.0641
20
0.500796
11
2.05748
21
0.494193
0
LINE
8
BLACK
6
CONTINUOUS
10
2.05748
20
0.494193
11
2.04986
21
0.48876
0
LINE
8
BLACK
6
CONTINUOUS
10
2.04986
20
0.48876
11
2.04146
21
0.484644
0
LINE
8
BLACK
6
CONTINUOUS
10
2.04146
20
0.484644
11
2.0325
21
0.481956
0
LINE
8
BLACK
6
CONTINUOUS
10
2.0325
20
0.481956
11
2.02322
21
0.480767
0
LINE
8
BLACK
6
CONTINUOUS
10
2.02322
20
0.480767
11
2.01387
21
0.48111
0
LINE
8
BLACK
6
CONTINUOUS
10
2.01387
20
0.48111
11
2.0047
21
0.482975
0
LINE
8
BLACK
6
CONTINUOUS
10
2.0047
20
0.482975
11
1.99596
21
0.486313
0
LINE
8
BLACK
6
CONTINUOUS
10
1.99596
20
0.486313
11
1.98789
21
0.491033
0
LINE
8
BLACK
6
CONTINUOUS
10
1.98789
20
0.491033
11
1.98069
21
0.497008
0
LINE
8
BLACK
6
CONTINUOUS
10
1.98069
20
0.497008
11
1.97456
21
0.50408
0
LINE
8
BLACK
6
CONTINUOUS
10
1.97456
20
0.50408
11
1.96968
21
0.512056
0
LINE
8
BLACK
6
CONTINUOUS
10
1.96968
20
0.512056
11
1.96616
21
0.520724
0
LINE
8
BLACK
6
CONTINUOUS
10
1.96616
20
0.520724
11
1.9641
21
0.52985
0
LINE
8
BLACK
6
CONTINUOUS
10
1.9641
20
0.52985
11
1.96356
21
0.53919
0
LINE
8
BLACK
6
CONTINUOUS
10
1.96356
20
0.53919
11
1.96455
21
0.548492
0
LINE
8
BLACK
6
CONTINUOUS
10
1.96455
20
0.548492
11
1.96705
21
0.557507
0
LINE
8
BLACK
6
CONTINUOUS
10
1.96705
20
0.557507
11
1.97099
21
0.565993
0
LINE
8
BLACK
6
CONTINUOUS
10
1.97099
20
0.565993
11
1.97627
21
0.573721
0
LINE
8
BLACK
6
CONTINUOUS
10
1.97627
20
0.573721
11
1.98273
21
0.580485
0
LINE
8
BLACK
6
CONTINUOUS
10
1.98273
20
0.580485
11
1.99021
21
0.586102
0
LINE
8
BLACK
6
CONTINUOUS
10
1.99021
20
0.586102
11
1.99851
21
0.590421
0
LINE
8
BLACK
6
CONTINUOUS
10
1.99851
20
0.590421
11
2.0074
21
0.593328
0
LINE
8
BLACK
6
CONTINUOUS
10
2.0074
20
0.593328
11
2.01665
21
0.594743
0
LINE
8
BLACK
6
CONTINUOUS
10
2.01665
20
0.594743
11
2.026
21
0.594629
0
LINE
8
BLACK
6
CONTINUOUS
10
0.744328
20
0.617505
11
0.749298
21
0.61576
0
LINE
8
BLACK
6
CONTINUOUS
10
0.749298
20
0.61576
11
0.753535
21
0.61263
0
LINE
8
BLACK
6
CONTINUOUS
10
0.753535
20
0.61263
11
0.756665
21
0.608392
0
LINE
8
BLACK
6
CONTINUOUS
10
0.756665
20
0.608392
11
0.758411
21
0.603422
0
LINE
8
BLACK
6
CONTINUOUS
10
0.758411
20
0.603422
11
0.758724
21
0.600102
0
LINE
8
BLACK
6
CONTINUOUS
10
0.758724
20
0.600102
11
0.758724
21
0.562701
0
LINE
8
BLACK
6
CONTINUOUS
10
0.758724
20
0.562701
11
0.758411
21
0.559381
0
LINE
8
BLACK
6
CONTINUOUS
10
0.758411
20
0.559381
11
0.756665
21
0.554411
0
LINE
8
BLACK
6
CONTINUOUS
10
0.756665
20
0.554411
11
0.753535
21
0.550173
0
LINE
8
BLACK
6
CONTINUOUS
10
0.753535
20
0.550173
11
0.749298
21
0.547044
0
LINE
8
BLACK
6
CONTINUOUS
10
0.749298
20
0.547044
11
0.744328
21
0.545298
0
LINE
8
BLACK
6
CONTINUOUS
10
0.744328
20
0.545298
11
0.741008
21
0.544984
0
LINE
8
BLACK
6
CONTINUOUS
10
0.741008
20
0.544984
11
0.721323
21
0.544984
0
LINE
8
BLACK
6
CONTINUOUS
10
0.721323
20
0.544984
11
0.718003
21
0.545298
0
LINE
8
BLACK
6
CONTINUOUS
10
0.718003
20
0.545298
11
0.713033
21
0.547044
0
LINE
8
BLACK
6
CONTINUOUS
10
0.713033
20
0.547044
11
0.708795
21
0.550173
0
LINE
8
BLACK
6
CONTINUOUS
10
0.708795
20
0.550173
11
0.705666
21
0.554411
0
LINE
8
BLACK
6
CONTINUOUS
10
0.705666
20
0.554411
11
0.70392
21
0.559381
0
LINE
8
BLACK
6
CONTINUOUS
10
0.70392
20
0.559381
11
0.703606
21
0.562701
0
LINE
8
BLACK
6
CONTINUOUS
10
0.703606
20
0.562701
11
0.703606
21
0.600102
0
LINE
8
BLACK
6
CONTINUOUS
10
0.703606
20
0.600102
11
0.70392
21
0.603422
0
LINE
8
BLACK
6
CONTINUOUS
10
0.70392
20
0.603422
11
0.705666
21
0.608392
0
LINE
8
BLACK
6
CONTINUOUS
10
0.705666
20
0.608392
11
0.708795
21
0.61263
0
LINE
8
BLACK
6
CONTINUOUS
10
0.708795
20
0.61263
11
0.713033
21
0.61576
0
LINE
8
BLACK
6
CONTINUOUS
10
0.713033
20
0.61576
11
0.718003
21
0.617505
0
LINE
8
BLACK
6
CONTINUOUS
10
0.718003
20
0.617505
11
0.721323
21
0.617819
0
LINE
8
BLACK
6
CONTINUOUS
10
0.721323
20
0.617819
11
0.741008
21
0.617819
0
LINE
8
BLACK
6
CONTINUOUS
10
0.741008
20
0.617819
11
0.744328
21
0.617505
0
LINE
8
BLACK
6
CONTINUOUS
10
0.669524
20
0.617505
11
0.674495
21
0.61576
0
LINE
8
BLACK
6
CONTINUOUS
10
0.674495
20
0.61576
11
0.678732
21
0.61263
0
LINE
8
BLACK
6
CONTINUOUS
10
0.678732
20
0.61263
11
0.681862
21
0.608392
0
LINE
8
BLACK
6
CONTINUOUS
10
0.681862
20
0.608392
11
0.683607
21
0.603422
0
LINE
8
BLACK
6
CONTINUOUS
10
0.683607
20
0.603422
11
0.683921
21
0.600102
0
LINE
8
BLACK
6
CONTINUOUS
10
0.683921
20
0.600102
11
0.683921
21
0.562701
0
LINE
8
BLACK
6
CONTINUOUS
10
0.683921
20
0.562701
11
0.683607
21
0.559381
0
LINE
8
BLACK
6
CONTINUOUS
10
0.683607
20
0.559381
11
0.681862
21
0.554411
0
LINE
8
BLACK
6
CONTINUOUS
10
0.681862
20
0.554411
11
0.678732
21
0.550173
0
LINE
8
BLACK
6
CONTINUOUS
10
0.678732
20
0.550173
11
0.674495
21
0.547044
0
LINE
8
BLACK
6
CONTINUOUS
10
0.674495
20
0.547044
11
0.669524
21
0.545298
0
LINE
8
BLACK
6
CONTINUOUS
10
0.669524
20
0.545298
11
0.666205
21
0.544984
0
LINE
8
BLACK
6
CONTINUOUS
10
0.666205
20
0.544984
11
0.64652
21
0.544984
0
LINE
8
BLACK
6
CONTINUOUS
10
0.64652
20
0.544984
11
0.6432
21
0.545298
0
LINE
8
BLACK
6
CONTINUOUS
10
0.6432
20
0.545298
11
0.63823
21
0.547044
0
LINE
8
BLACK
6
CONTINUOUS
10
0.63823
20
0.547044
11
0.633992
21
0.550173
0
LINE
8
BLACK
6
CONTINUOUS
10
0.633992
20
0.550173
11
0.630862
21
0.554411
0
LINE
8
BLACK
6
CONTINUOUS
10
0.630862
20
0.554411
11
0.629117
21
0.559381
0
LINE
8
BLACK
6
CONTINUOUS
10
0.629117
20
0.559381
11
0.628803
21
0.562701
0
LINE
8
BLACK
6
CONTINUOUS
10
0.628803
20
0.562701
11
0.628803
21
0.600102
0
LINE
8
BLACK
6
CONTINUOUS
10
0.628803
20
0.600102
11
0.629117
21
0.603422
0
LINE
8
BLACK
6
CONTINUOUS
10
0.629117
20
0.603422
11
0.630862
21
0.608392
0
LINE
8
BLACK
6
CONTINUOUS
10
0.630862
20
0.608392
11
0.633992
21
0.61263
0
LINE
8
BLACK
6
CONTINUOUS
10
0.633992
20
0.61263
11
0.63823
21
0.61576
0
LINE
8
BLACK
6
CONTINUOUS
10
0.63823
20
0.61576
11
0.6432
21
0.617505
0
LINE
8
BLACK
6
CONTINUOUS
10
0.6432
20
0.617505
11
0.64652
21
0.617819
0
LINE
8
BLACK
6
CONTINUOUS
10
0.64652
20
0.617819
11
0.666205
21
0.617819
0
LINE
8
BLACK
6
CONTINUOUS
10
0.666205
20
0.617819
11
0.669524
21
0.617505
0
LINE
8
BLACK
6
CONTINUOUS
10
1.65856
20
0.620104
11
1.66353
21
0.618358
0
LINE
8
BLACK
6
CONTINUOUS
10
1.66353
20
0.618358
11
1.66777
21
0.615228
0
LINE
8
BLACK
6
CONTINUOUS
10
1.66777
20
0.615228
11
1.6709
21
0.610991
0
LINE
8
BLACK
6
CONTINUOUS
10
1.6709
20
0.610991
11
1.67265
21
0.606021
0
LINE
8
BLACK
6
CONTINUOUS
10
1.67265
20
0.606021
11
1.67296
21
0.602701
0
LINE
8
BLACK
6
CONTINUOUS
10
1.67296
20
0.602701
11
1.67296
21
0.565299
0
LINE
8
BLACK
6
CONTINUOUS
10
1.67296
20
0.565299
11
1.67265
21
0.561979
0
LINE
8
BLACK
6
CONTINUOUS
10
1.67265
20
0.561979
11
1.6709
21
0.557009
0
LINE
8
BLACK
6
CONTINUOUS
10
1.6709
20
0.557009
11
1.66777
21
0.552772
0
LINE
8
BLACK
6
CONTINUOUS
10
1.66777
20
0.552772
11
1.66353
21
0.549642
0
LINE
8
BLACK
6
CONTINUOUS
10
1.66353
20
0.549642
11
1.65856
21
0.547896
0
LINE
8
BLACK
6
CONTINUOUS
10
1.65856
20
0.547896
11
1.65524
21
0.547583
0
LINE
8
BLACK
6
CONTINUOUS
10
1.65524
20
0.547583
11
1.63556
21
0.547583
0
LINE
8
BLACK
6
CONTINUOUS
10
1.63556
20
0.547583
11
1.63224
21
0.547896
0
LINE
8
BLACK
6
CONTINUOUS
10
1.63224
20
0.547896
11
1.62727
21
0.549642
0
LINE
8
BLACK
6
CONTINUOUS
10
1.62727
20
0.549642
11
1.62303
21
0.552772
0
LINE
8
BLACK
6
CONTINUOUS
10
1.62303
20
0.552772
11
1.6199
21
0.557009
0
LINE
8
BLACK
6
CONTINUOUS
10
1.6199
20
0.557009
11
1.61816
21
0.561979
0
LINE
8
BLACK
6
CONTINUOUS
10
1.61816
20
0.561979
11
1.61784
21
0.565299
0
LINE
8
BLACK
6
CONTINUOUS
10
1.61784
20
0.565299
11
1.61784
21
0.602701
0
LINE
8
BLACK
6
CONTINUOUS
10
1.61784
20
0.602701
11
1.61816
21
0.606021
0
LINE
8
BLACK
6
CONTINUOUS
10
1.61816
20
0.606021
11
1.6199
21
0.610991
0
LINE
8
BLACK
6
CONTINUOUS
10
1.6199
20
0.610991
11
1.62303
21
0.615228
0
LINE
8
BLACK
6
CONTINUOUS
10
1.62303
20
0.615228
11
1.62727
21
0.618358
0
LINE
8
BLACK
6
CONTINUOUS
10
1.62727
20
0.618358
11
1.63224
21
0.620104
0
LINE
8
BLACK
6
CONTINUOUS
10
1.63224
20
0.620104
11
1.63556
21
0.620417
0
LINE
8
BLACK
6
CONTINUOUS
10
1.63556
20
0.620417
11
1.65524
21
0.620417
0
LINE
8
BLACK
6
CONTINUOUS
10
1.65524
20
0.620417
11
1.65856
21
0.620104
0
LINE
8
BLACK
6
CONTINUOUS
10
1.58376
20
0.620104
11
1.58873
21
0.618358
0
LINE
8
BLACK
6
CONTINUOUS
10
1.58873
20
0.618358
11
1.59297
21
0.615228
0
LINE
8
BLACK
6
CONTINUOUS
10
1.59297
20
0.615228
11
1.5961
21
0.610991
0
LINE
8
BLACK
6
CONTINUOUS
10
1.5961
20
0.610991
11
1.59784
21
0.606021
0
LINE
8
BLACK
6
CONTINUOUS
10
1.59784
20
0.606021
11
1.59816
21
0.602701
0
LINE
8
BLACK
6
CONTINUOUS
10
1.59816
20
0.602701
11
1.59816
21
0.565299
0
LINE
8
BLACK
6
CONTINUOUS
10
1.59816
20
0.565299
11
1.59784
21
0.561979
0
LINE
8
BLACK
6
CONTINUOUS
10
1.59784
20
0.561979
11
1.5961
21
0.557009
0
LINE
8
BLACK
6
CONTINUOUS
10
1.5961
20
0.557009
11
1.59297
21
0.552772
0
LINE
8
BLACK
6
CONTINUOUS
10
1.59297
20
0.552772
11
1.58873
21
0.549642
0
LINE
8
BLACK
6
CONTINUOUS
10
1.58873
20
0.549642
11
1.58376
21
0.547896
0
LINE
8
BLACK
6
CONTINUOUS
10
1.58376
20
0.547896
11
1.58044
21
0.547583
0
LINE
8
BLACK
6
CONTINUOUS
10
1.58044
20
0.547583
11
1.56076
21
0.547583
0
LINE
8
BLACK
6
CONTINUOUS
10
1.56076
20
0.547583
11
1.55744
21
0.547896
0
LINE
8
BLACK
6
CONTINUOUS
10
1.55744
20
0.547896
11
1.55247
21
0.549642
0
LINE
8
BLACK
6
CONTINUOUS
10
1.55247
20
0.549642
11
1.54823
21
0.552772
0
LINE
8
BLACK
6
CONTINUOUS
10
1.54823
20
0.552772
11
1.5451
21
0.557009
0
LINE
8
BLACK
6
CONTINUOUS
10
1.5451
20
0.557009
11
1.54335
21
0.561979
0
LINE
8
BLACK
6
CONTINUOUS
10
1.54335
20
0.561979
11
1.54304
21
0.565299
0
LINE
8
BLACK
6
CONTINUOUS
10
1.54304
20
0.565299
11
1.54304
21
0.602701
0
LINE
8
BLACK
6
CONTINUOUS
10
1.54304
20
0.602701
11
1.54335
21
0.606021
0
LINE
8
BLACK
6
CONTINUOUS
10
1.54335
20
0.606021
11
1.5451
21
0.610991
0
LINE
8
BLACK
6
CONTINUOUS
10
1.5451
20
0.610991
11
1.54823
21
0.615228
0
LINE
8
BLACK
6
CONTINUOUS
10
1.54823
20
0.615228
11
1.55247
21
0.618358
0
LINE
8
BLACK
6
CONTINUOUS
10
1.55247
20
0.618358
11
1.55744
21
0.620104
0
LINE
8
BLACK
6
CONTINUOUS
10
1.55744
20
0.620104
11
1.56076
21
0.620417
0
LINE
8
BLACK
6
CONTINUOUS
10
1.56076
20
0.620417
11
1.58044
21
0.620417
0
LINE
8
BLACK
6
CONTINUOUS
10
1.58044
20
0.620417
11
1.58376
21
0.620104
0
LINE
8
BLACK
6
CONTINUOUS
10
0.895537
20
0.616689
11
0.900133
21
0.614347
0
LINE
8
BLACK
6
CONTINUOUS
10
0.900133
20
0.614347
11
0.903781
21
0.6107
0
LINE
8
BLACK
6
CONTINUOUS
10
0.903781
20
0.6107
11
0.906122
21
0.606104
0
LINE
8
BLACK
6
CONTINUOUS
10
0.906122
20
0.606104
11
0.906929
21
0.60101
0
LINE
8
BLACK
6
CONTINUOUS
10
0.906929
20
0.60101
11
0.906929
21
0.57099
0
LINE
8
BLACK
6
CONTINUOUS
10
0.906929
20
0.57099
11
0.906122
21
0.565896
0
LINE
8
BLACK
6
CONTINUOUS
10
0.906122
20
0.565896
11
0.903781
21
0.5613
0
LINE
8
BLACK
6
CONTINUOUS
10
0.903781
20
0.5613
11
0.900133
21
0.557653
0
LINE
8
BLACK
6
CONTINUOUS
10
0.900133
20
0.557653
11
0.895537
21
0.555311
0
LINE
8
BLACK
6
CONTINUOUS
10
0.895537
20
0.555311
11
0.890443
21
0.554504
0
LINE
8
BLACK
6
CONTINUOUS
10
0.890443
20
0.554504
11
0.873219
21
0.554504
0
LINE
8
BLACK
6
CONTINUOUS
10
0.873219
20
0.554504
11
0.868124
21
0.555311
0
LINE
8
BLACK
6
CONTINUOUS
10
0.868124
20
0.555311
11
0.863528
21
0.557653
0
LINE
8
BLACK
6
CONTINUOUS
10
0.863528
20
0.557653
11
0.859881
21
0.5613
0
LINE
8
BLACK
6
CONTINUOUS
10
0.859881
20
0.5613
11
0.857539
21
0.565896
0
LINE
8
BLACK
6
CONTINUOUS
10
0.857539
20
0.565896
11
0.856732
21
0.57099
0
LINE
8
BLACK
6
CONTINUOUS
10
0.856732
20
0.57099
11
0.856732
21
0.60101
0
LINE
8
BLACK
6
CONTINUOUS
10
0.856732
20
0.60101
11
0.857539
21
0.606104
0
LINE
8
BLACK
6
CONTINUOUS
10
0.857539
20
0.606104
11
0.859881
21
0.6107
0
LINE
8
BLACK
6
CONTINUOUS
10
0.859881
20
0.6107
11
0.863528
21
0.614347
0
LINE
8
BLACK
6
CONTINUOUS
10
0.863528
20
0.614347
11
0.868124
21
0.616689
0
LINE
8
BLACK
6
CONTINUOUS
10
0.868124
20
0.616689
11
0.873219
21
0.617496
0
LINE
8
BLACK
6
CONTINUOUS
10
0.873219
20
0.617496
11
0.890443
21
0.617496
0
LINE
8
BLACK
6
CONTINUOUS
10
0.890443
20
0.617496
11
0.895537
21
0.616689
0
LINE
8
BLACK
6
CONTINUOUS
10
0.811876
20
0.616689
11
0.816472
21
0.614347
0
LINE
8
BLACK
6
CONTINUOUS
10
0.816472
20
0.614347
11
0.820119
21
0.6107
0
LINE
8
BLACK
6
CONTINUOUS
10
0.820119
20
0.6107
11
0.822461
21
0.606104
0
LINE
8
BLACK
6
CONTINUOUS
10
0.822461
20
0.606104
11
0.823268
21
0.60101
0
LINE
8
BLACK
6
CONTINUOUS
10
0.823268
20
0.60101
11
0.823268
21
0.57099
0
LINE
8
BLACK
6
CONTINUOUS
10
0.823268
20
0.57099
11
0.822461
21
0.565896
0
LINE
8
BLACK
6
CONTINUOUS
10
0.822461
20
0.565896
11
0.820119
21
0.5613
0
LINE
8
BLACK
6
CONTINUOUS
10
0.820119
20
0.5613
11
0.816472
21
0.557653
0
LINE
8
BLACK
6
CONTINUOUS
10
0.816472
20
0.557653
11
0.811876
21
0.555311
0
LINE
8
BLACK
6
CONTINUOUS
10
0.811876
20
0.555311
11
0.806781
21
0.554504
0
LINE
8
BLACK
6
CONTINUOUS
10
0.806781
20
0.554504
11
0.789557
21
0.554504
0
LINE
8
BLACK
6
CONTINUOUS
10
0.789557
20
0.554504
11
0.784463
21
0.555311
0
LINE
8
BLACK
6
CONTINUOUS
10
0.784463
20
0.555311
11
0.779867
21
0.557653
0
LINE
8
BLACK
6
CONTINUOUS
10
0.779867
20
0.557653
11
0.776219
21
0.5613
0
LINE
8
BLACK
6
CONTINUOUS
10
0.776219
20
0.5613
11
0.773878
21
0.565896
0
LINE
8
BLACK
6
CONTINUOUS
10
0.773878
20
0.565896
11
0.773071
21
0.57099
0
LINE
8
BLACK
6
CONTINUOUS
10
0.773071
20
0.57099
11
0.773071
21
0.60101
0
LINE
8
BLACK
6
CONTINUOUS
10
0.773071
20
0.60101
11
0.773878
21
0.606104
0
LINE
8
BLACK
6
CONTINUOUS
10
0.773878
20
0.606104
11
0.776219
21
0.6107
0
LINE
8
BLACK
6
CONTINUOUS
10
0.776219
20
0.6107
11
0.779867
21
0.614347
0
LINE
8
BLACK
6
CONTINUOUS
10
0.779867
20
0.614347
11
0.784463
21
0.616689
0
LINE
8
BLACK
6
CONTINUOUS
10
0.784463
20
0.616689
11
0.789557
21
0.617496
0
LINE
8
BLACK
6
CONTINUOUS
10
0.789557
20
0.617496
11
0.806781
21
0.617496
0
LINE
8
BLACK
6
CONTINUOUS
10
0.806781
20
0.617496
11
0.811876
21
0.616689
0
LINE
8
BLACK
6
CONTINUOUS
10
1.20554
20
0.618689
11
1.21013
21
0.616347
0
LINE
8
BLACK
6
CONTINUOUS
10
1.21013
20
0.616347
11
1.21378
21
0.6127
0
LINE
8
BLACK
6
CONTINUOUS
10
1.21378
20
0.6127
11
1.21612
21
0.608104
0
LINE
8
BLACK
6
CONTINUOUS
10
1.21612
20
0.608104
11
1.21693
21
0.60301
0
LINE
8
BLACK
6
CONTINUOUS
10
1.21693
20
0.60301
11
1.21693
21
0.57299
0
LINE
8
BLACK
6
CONTINUOUS
10
1.21693
20
0.57299
11
1.21612
21
0.567896
0
LINE
8
BLACK
6
CONTINUOUS
10
1.21612
20
0.567896
11
1.21378
21
0.5633
0
LINE
8
BLACK
6
CONTINUOUS
10
1.21378
20
0.5633
11
1.21013
21
0.559653
0
LINE
8
BLACK
6
CONTINUOUS
10
1.21013
20
0.559653
11
1.20554
21
0.557311
0
LINE
8
BLACK
6
CONTINUOUS
10
1.20554
20
0.557311
11
1.20044
21
0.556504
0
LINE
8
BLACK
6
CONTINUOUS
10
1.20044
20
0.556504
11
1.18322
21
0.556504
0
LINE
8
BLACK
6
CONTINUOUS
10
1.18322
20
0.556504
11
1.17812
21
0.557311
0
LINE
8
BLACK
6
CONTINUOUS
10
1.17812
20
0.557311
11
1.17353
21
0.559653
0
LINE
8
BLACK
6
CONTINUOUS
10
1.17353
20
0.559653
11
1.16988
21
0.5633
0
LINE
8
BLACK
6
CONTINUOUS
10
1.16988
20
0.5633
11
1.16754
21
0.567896
0
LINE
8
BLACK
6
CONTINUOUS
10
1.16754
20
0.567896
11
1.16673
21
0.57299
0
LINE
8
BLACK
6
CONTINUOUS
10
1.16673
20
0.57299
11
1.16673
21
0.60301
0
LINE
8
BLACK
6
CONTINUOUS
10
1.16673
20
0.60301
11
1.16754
21
0.608104
0
LINE
8
BLACK
6
CONTINUOUS
10
1.16754
20
0.608104
11
1.16988
21
0.6127
0
LINE
8
BLACK
6
CONTINUOUS
10
1.16988
20
0.6127
11
1.17353
21
0.616347
0
LINE
8
BLACK
6
CONTINUOUS
10
1.17353
20
0.616347
11
1.17812
21
0.618689
0
LINE
8
BLACK
6
CONTINUOUS
10
1.17812
20
0.618689
11
1.18322
21
0.619496
0
LINE
8
BLACK
6
CONTINUOUS
10
1.18322
20
0.619496
11
1.20044
21
0.619496
0
LINE
8
BLACK
6
CONTINUOUS
10
1.20044
20
0.619496
11
1.20554
21
0.618689
0
LINE
8
BLACK
6
CONTINUOUS
10
1.12188
20
0.618689
11
1.12647
21
0.616347
0
LINE
8
BLACK
6
CONTINUOUS
10
1.12647
20
0.616347
11
1.13012
21
0.6127
0
LINE
8
BLACK
6
CONTINUOUS
10
1.13012
20
0.6127
11
1.13246
21
0.608104
0
LINE
8
BLACK
6
CONTINUOUS
10
1.13246
20
0.608104
11
1.13327
21
0.60301
0
LINE
8
BLACK
6
CONTINUOUS
10
1.13327
20
0.60301
11
1.13327
21
0.57299
0
LINE
8
BLACK
6
CONTINUOUS
10
1.13327
20
0.57299
11
1.13246
21
0.567896
0
LINE
8
BLACK
6
CONTINUOUS
10
1.13246
20
0.567896
11
1.13012
21
0.5633
0
LINE
8
BLACK
6
CONTINUOUS
10
1.13012
20
0.5633
11
1.12647
21
0.559653
0
LINE
8
BLACK
6
CONTINUOUS
10
1.12647
20
0.559653
11
1.12188
21
0.557311
0
LINE
8
BLACK
6
CONTINUOUS
10
1.12188
20
0.557311
11
1.11678
21
0.556504
0
LINE
8
BLACK
6
CONTINUOUS
10
1.11678
20
0.556504
11
1.09956
21
0.556504
0
LINE
8
BLACK
6
CONTINUOUS
10
1.09956
20
0.556504
11
1.09446
21
0.557311
0
LINE
8
BLACK
6
CONTINUOUS
10
1.09446
20
0.557311
11
1.08987
21
0.559653
0
LINE
8
BLACK
6
CONTINUOUS
10
1.08987
20
0.559653
11
1.08622
21
0.5633
0
LINE
8
BLACK
6
CONTINUOUS
10
1.08622
20
0.5633
11
1.08388
21
0.567896
0
LINE
8
BLACK
6
CONTINUOUS
10
1.08388
20
0.567896
11
1.08307
21
0.57299
0
LINE
8
BLACK
6
CONTINUOUS
10
1.08307
20
0.57299
11
1.08307
21
0.60301
0
LINE
8
BLACK
6
CONTINUOUS
10
1.08307
20
0.60301
11
1.08388
21
0.608104
0
LINE
8
BLACK
6
CONTINUOUS
10
1.08388
20
0.608104
11
1.08622
21
0.6127
0
LINE
8
BLACK
6
CONTINUOUS
10
1.08622
20
0.6127
11
1.08987
21
0.616347
0
LINE
8
BLACK
6
CONTINUOUS
10
1.08987
20
0.616347
11
1.09446
21
0.618689
0
LINE
8
BLACK
6
CONTINUOUS
10
1.09446
20
0.618689
11
1.09956
21
0.619496
0
LINE
8
BLACK
6
CONTINUOUS
10
1.09956
20
0.619496
11
1.11678
21
0.619496
0
LINE
8
BLACK
6
CONTINUOUS
10
1.11678
20
0.619496
11
1.12188
21
0.618689
0
LINE
8
BLACK
6
CONTINUOUS
10
1.51654
20
0.619689
11
1.52113
21
0.617347
0
LINE
8
BLACK
6
CONTINUOUS
10
1.52113
20
0.617347
11
1.52478
21
0.6137
0
LINE
8
BLACK
6
CONTINUOUS
10
1.52478
20
0.6137
11
1.52712
21
0.609104
0
LINE
8
BLACK
6
CONTINUOUS
10
1.52712
20
0.609104
11
1.52793
21
0.60401
0
LINE
8
BLACK
6
CONTINUOUS
10
1.52793
20
0.60401
11
1.52793
21
0.57399
0
LINE
8
BLACK
6
CONTINUOUS
10
1.52793
20
0.57399
11
1.52712
21
0.568896
0
LINE
8
BLACK
6
CONTINUOUS
10
1.52712
20
0.568896
11
1.52478
21
0.5643
0
LINE
8
BLACK
6
CONTINUOUS
10
1.52478
20
0.5643
11
1.52113
21
0.560653
0
LINE
8
BLACK
6
CONTINUOUS
10
1.52113
20
0.560653
11
1.51654
21
0.558311
0
LINE
8
BLACK
6
CONTINUOUS
10
1.51654
20
0.558311
11
1.51144
21
0.557504
0
LINE
8
BLACK
6
CONTINUOUS
10
1.51144
20
0.557504
11
1.49422
21
0.557504
0
LINE
8
BLACK
6
CONTINUOUS
10
1.49422
20
0.557504
11
1.48912
21
0.558311
0
LINE
8
BLACK
6
CONTINUOUS
10
1.48912
20
0.558311
11
1.48453
21
0.560653
0
LINE
8
BLACK
6
CONTINUOUS
10
1.48453
20
0.560653
11
1.48088
21
0.5643
0
LINE
8
BLACK
6
CONTINUOUS
10
1.48088
20
0.5643
11
1.47854
21
0.568896
0
LINE
8
BLACK
6
CONTINUOUS
10
1.47854
20
0.568896
11
1.47773
21
0.57399
0
LINE
8
BLACK
6
CONTINUOUS
10
1.47773
20
0.57399
11
1.47773
21
0.60401
0
LINE
8
BLACK
6
CONTINUOUS
10
1.47773
20
0.60401
11
1.47854
21
0.609104
0
LINE
8
BLACK
6
CONTINUOUS
10
1.47854
20
0.609104
11
1.48088
21
0.6137
0
LINE
8
BLACK
6
CONTINUOUS
10
1.48088
20
0.6137
11
1.48453
21
0.617347
0
LINE
8
BLACK
6
CONTINUOUS
10
1.48453
20
0.617347
11
1.48912
21
0.619689
0
LINE
8
BLACK
6
CONTINUOUS
10
1.48912
20
0.619689
11
1.49422
21
0.620496
0
LINE
8
BLACK
6
CONTINUOUS
10
1.49422
20
0.620496
11
1.51144
21
0.620496
0
LINE
8
BLACK
6
CONTINUOUS
10
1.51144
20
0.620496
11
1.51654
21
0.619689
0
LINE
8
BLACK
6
CONTINUOUS
10
1.43288
20
0.619689
11
1.43747
21
0.617347
0
LINE
8
BLACK
6
CONTINUOUS
10
1.43747
20
0.617347
11
1.44112
21
0.6137
0
LINE
8
BLACK
6
CONTINUOUS
10
1.44112
20
0.6137
11
1.44346
21
0.609104
0
LINE
8
BLACK
6
CONTINUOUS
10
1.44346
20
0.609104
11
1.44427
21
0.60401
0
LINE
8
BLACK
6
CONTINUOUS
10
1.44427
20
0.60401
11
1.44427
21
0.57399
0
LINE
8
BLACK
6
CONTINUOUS
10
1.44427
20
0.57399
11
1.44346
21
0.568896
0
LINE
8
BLACK
6
CONTINUOUS
10
1.44346
20
0.568896
11
1.44112
21
0.5643
0
LINE
8
BLACK
6
CONTINUOUS
10
1.44112
20
0.5643
11
1.43747
21
0.560653
0
LINE
8
BLACK
6
CONTINUOUS
10
1.43747
20
0.560653
11
1.43288
21
0.558311
0
LINE
8
BLACK
6
CONTINUOUS
10
1.43288
20
0.558311
11
1.42778
21
0.557504
0
LINE
8
BLACK
6
CONTINUOUS
10
1.42778
20
0.557504
11
1.41056
21
0.557504
0
LINE
8
BLACK
6
CONTINUOUS
10
1.41056
20
0.557504
11
1.40546
21
0.558311
0
LINE
8
BLACK
6
CONTINUOUS
10
1.40546
20
0.558311
11
1.40087
21
0.560653
0
LINE
8
BLACK
6
CONTINUOUS
10
1.40087
20
0.560653
11
1.39722
21
0.5643
0
LINE
8
BLACK
6
CONTINUOUS
10
1.39722
20
0.5643
11
1.39488
21
0.568896
0
LINE
8
BLACK
6
CONTINUOUS
10
1.39488
20
0.568896
11
1.39407
21
0.57399
0
LINE
8
BLACK
6
CONTINUOUS
10
1.39407
20
0.57399
11
1.39407
21
0.60401
0
LINE
8
BLACK
6
CONTINUOUS
10
1.39407
20
0.60401
11
1.39488
21
0.609104
0
LINE
8
BLACK
6
CONTINUOUS
10
1.39488
20
0.609104
11
1.39722
21
0.6137
0
LINE
8
BLACK
6
CONTINUOUS
10
1.39722
20
0.6137
11
1.40087
21
0.617347
0
LINE
8
BLACK
6
CONTINUOUS
10
1.40087
20
0.617347
11
1.40546
21
0.619689
0
LINE
8
BLACK
6
CONTINUOUS
10
1.40546
20
0.619689
11
1.41056
21
0.620496
0
LINE
8
BLACK
6
CONTINUOUS
10
1.41056
20
0.620496
11
1.42778
21
0.620496
0
LINE
8
BLACK
6
CONTINUOUS
10
1.42778
20
0.620496
11
1.43288
21
0.619689
0
LINE
8
BLACK
6
CONTINUOUS
10
1.0581
20
0.608862
11
1.0627
21
0.606521
0
LINE
8
BLACK
6
CONTINUOUS
10
1.0627
20
0.606521
11
1.06635
21
0.602873
0
LINE
8
BLACK
6
CONTINUOUS
10
1.06635
20
0.602873
11
1.06869
21
0.598278
0
LINE
8
BLACK
6
CONTINUOUS
10
1.06869
20
0.598278
11
1.0695
21
0.593183
0
LINE
8
BLACK
6
CONTINUOUS
10
1.0695
20
0.593183
11
1.0695
21
0.575959
0
LINE
8
BLACK
6
CONTINUOUS
10
1.0695
20
0.575959
11
1.06869
21
0.570864
0
LINE
8
BLACK
6
CONTINUOUS
10
1.06869
20
0.570864
11
1.06635
21
0.566268
0
LINE
8
BLACK
6
CONTINUOUS
10
1.06635
20
0.566268
11
1.0627
21
0.562621
0
LINE
8
BLACK
6
CONTINUOUS
10
1.0627
20
0.562621
11
1.0581
21
0.560279
0
LINE
8
BLACK
6
CONTINUOUS
10
1.0581
20
0.560279
11
1.05301
21
0.559472
0
LINE
8
BLACK
6
CONTINUOUS
10
1.05301
20
0.559472
11
1.02299
21
0.559472
0
LINE
8
BLACK
6
CONTINUOUS
10
1.02299
20
0.559472
11
1.0179
21
0.560279
0
LINE
8
BLACK
6
CONTINUOUS
10
1.0179
20
0.560279
11
1.0133
21
0.562621
0
LINE
8
BLACK
6
CONTINUOUS
10
1.0133
20
0.562621
11
1.00965
21
0.566268
0
LINE
8
BLACK
6
CONTINUOUS
10
1.00965
20
0.566268
11
1.00731
21
0.570864
0
LINE
8
BLACK
6
CONTINUOUS
10
1.00731
20
0.570864
11
1.0065
21
0.575959
0
LINE
8
BLACK
6
CONTINUOUS
10
1.0065
20
0.575959
11
1.0065
21
0.593183
0
LINE
8
BLACK
6
CONTINUOUS
10
1.0065
20
0.593183
11
1.00731
21
0.598278
0
LINE
8
BLACK
6
CONTINUOUS
10
1.00731
20
0.598278
11
1.00965
21
0.602873
0
LINE
8
BLACK
6
CONTINUOUS
10
1.00965
20
0.602873
11
1.0133
21
0.606521
0
LINE
8
BLACK
6
CONTINUOUS
10
1.0133
20
0.606521
11
1.0179
21
0.608862
0
LINE
8
BLACK
6
CONTINUOUS
10
1.0179
20
0.608862
11
1.02299
21
0.609669
0
LINE
8
BLACK
6
CONTINUOUS
10
1.02299
20
0.609669
11
1.05301
21
0.609669
0
LINE
8
BLACK
6
CONTINUOUS
10
1.05301
20
0.609669
11
1.0581
21
0.608862
0
LINE
8
BLACK
6
CONTINUOUS
10
0.980021
20
0.616245
11
0.984991
21
0.6145
0
LINE
8
BLACK
6
CONTINUOUS
10
0.984991
20
0.6145
11
0.989228
21
0.61137
0
LINE
8
BLACK
6
CONTINUOUS
10
0.989228
20
0.61137
11
0.992358
21
0.607133
0
LINE
8
BLACK
6
CONTINUOUS
10
0.992358
20
0.607133
11
0.994104
21
0.602162
0
LINE
8
BLACK
6
CONTINUOUS
10
0.994104
20
0.602162
11
0.994417
21
0.598843
0
LINE
8
BLACK
6
CONTINUOUS
10
0.994417
20
0.598843
11
0.994417
21
0.579157
0
LINE
8
BLACK
6
CONTINUOUS
10
0.994417
20
0.579157
11
0.994104
21
0.575838
0
LINE
8
BLACK
6
CONTINUOUS
10
0.994104
20
0.575838
11
0.992358
21
0.570867
0
LINE
8
BLACK
6
CONTINUOUS
10
0.992358
20
0.570867
11
0.989228
21
0.56663
0
LINE
8
BLACK
6
CONTINUOUS
10
0.989228
20
0.56663
11
0.984991
21
0.5635
0
LINE
8
BLACK
6
CONTINUOUS
10
0.984991
20
0.5635
11
0.980021
21
0.561755
0
LINE
8
BLACK
6
CONTINUOUS
10
0.980021
20
0.561755
11
0.976701
21
0.561441
0
LINE
8
BLACK
6
CONTINUOUS
10
0.976701
20
0.561441
11
0.939299
21
0.561441
0
LINE
8
BLACK
6
CONTINUOUS
10
0.939299
20
0.561441
11
0.935979
21
0.561755
0
LINE
8
BLACK
6
CONTINUOUS
10
0.935979
20
0.561755
11
0.931009
21
0.5635
0
LINE
8
BLACK
6
CONTINUOUS
10
0.931009
20
0.5635
11
0.926772
21
0.56663
0
LINE
8
BLACK
6
CONTINUOUS
10
0.926772
20
0.56663
11
0.923642
21
0.570867
0
LINE
8
BLACK
6
CONTINUOUS
10
0.923642
20
0.570867
11
0.921896
21
0.575838
0
LINE
8
BLACK
6
CONTINUOUS
10
0.921896
20
0.575838
11
0.921583
21
0.579157
0
LINE
8
BLACK
6
CONTINUOUS
10
0.921583
20
0.579157
11
0.921583
21
0.598843
0
LINE
8
BLACK
6
CONTINUOUS
10
0.921583
20
0.598843
11
0.921896
21
0.602162
0
LINE
8
BLACK
6
CONTINUOUS
10
0.921896
20
0.602162
11
0.923642
21
0.607133
0
LINE
8
BLACK
6
CONTINUOUS
10
0.923642
20
0.607133
11
0.926772
21
0.61137
0
LINE
8
BLACK
6
CONTINUOUS
10
0.926772
20
0.61137
11
0.931009
21
0.6145
0
LINE
8
BLACK
6
CONTINUOUS
10
0.931009
20
0.6145
11
0.935979
21
0.616245
0
LINE
8
BLACK
6
CONTINUOUS
10
0.935979
20
0.616245
11
0.939299
21
0.616559
0
LINE
8
BLACK
6
CONTINUOUS
10
0.939299
20
0.616559
11
0.976701
21
0.616559
0
LINE
8
BLACK
6
CONTINUOUS
10
0.976701
20
0.616559
11
0.980021
21
0.616245
0
LINE
8
BLACK
6
CONTINUOUS
10
1.3681
20
0.612461
11
1.3727
21
0.610119
0
LINE
8
BLACK
6
CONTINUOUS
10
1.3727
20
0.610119
11
1.37635
21
0.606472
0
LINE
8
BLACK
6
CONTINUOUS
10
1.37635
20
0.606472
11
1.37869
21
0.601876
0
LINE
8
BLACK
6
CONTINUOUS
10
1.37869
20
0.601876
11
1.3795
21
0.596781
0
LINE
8
BLACK
6
CONTINUOUS
10
1.3795
20
0.596781
11
1.3795
21
0.579557
0
LINE
8
BLACK
6
CONTINUOUS
10
1.3795
20
0.579557
11
1.37869
21
0.574463
0
LINE
8
BLACK
6
CONTINUOUS
10
1.37869
20
0.574463
11
1.37635
21
0.569867
0
LINE
8
BLACK
6
CONTINUOUS
10
1.37635
20
0.569867
11
1.3727
21
0.566219
0
LINE
8
BLACK
6
CONTINUOUS
10
1.3727
20
0.566219
11
1.3681
21
0.563878
0
LINE
8
BLACK
6
CONTINUOUS
10
1.3681
20
0.563878
11
1.36301
21
0.563071
0
LINE
8
BLACK
6
CONTINUOUS
10
1.36301
20
0.563071
11
1.33299
21
0.563071
0
LINE
8
BLACK
6
CONTINUOUS
10
1.33299
20
0.563071
11
1.3279
21
0.563878
0
LINE
8
BLACK
6
CONTINUOUS
10
1.3279
20
0.563878
11
1.3233
21
0.566219
0
LINE
8
BLACK
6
CONTINUOUS
10
1.3233
20
0.566219
11
1.31965
21
0.569867
0
LINE
8
BLACK
6
CONTINUOUS
10
1.31965
20
0.569867
11
1.31731
21
0.574463
0
LINE
8
BLACK
6
CONTINUOUS
10
1.31731
20
0.574463
11
1.3165
21
0.579557
0
LINE
8
BLACK
6
CONTINUOUS
10
1.3165
20
0.579557
11
1.3165
21
0.596781
0
LINE
8
BLACK
6
CONTINUOUS
10
1.3165
20
0.596781
11
1.31731
21
0.601876
0
LINE
8
BLACK
6
CONTINUOUS
10
1.31731
20
0.601876
11
1.31965
21
0.606472
0
LINE
8
BLACK
6
CONTINUOUS
10
1.31965
20
0.606472
11
1.3233
21
0.610119
0
LINE
8
BLACK
6
CONTINUOUS
10
1.3233
20
0.610119
11
1.3279
21
0.612461
0
LINE
8
BLACK
6
CONTINUOUS
10
1.3279
20
0.612461
11
1.33299
21
0.613268
0
LINE
8
BLACK
6
CONTINUOUS
10
1.33299
20
0.613268
11
1.36301
21
0.613268
0
LINE
8
BLACK
6
CONTINUOUS
10
1.36301
20
0.613268
11
1.3681
21
0.612461
0
LINE
8
BLACK
6
CONTINUOUS
10
1.29002
20
0.619844
11
1.29499
21
0.618098
0
LINE
8
BLACK
6
CONTINUOUS
10
1.29499
20
0.618098
11
1.29923
21
0.614968
0
LINE
8
BLACK
6
CONTINUOUS
10
1.29923
20
0.614968
11
1.30236
21
0.610731
0
LINE
8
BLACK
6
CONTINUOUS
10
1.30236
20
0.610731
11
1.3041
21
0.605761
0
LINE
8
BLACK
6
CONTINUOUS
10
1.3041
20
0.605761
11
1.30442
21
0.602441
0
LINE
8
BLACK
6
CONTINUOUS
10
1.30442
20
0.602441
11
1.30442
21
0.582756
0
LINE
8
BLACK
6
CONTINUOUS
10
1.30442
20
0.582756
11
1.3041
21
0.579436
0
LINE
8
BLACK
6
CONTINUOUS
10
1.3041
20
0.579436
11
1.30236
21
0.574466
0
LINE
8
BLACK
6
CONTINUOUS
10
1.30236
20
0.574466
11
1.29923
21
0.570228
0
LINE
8
BLACK
6
CONTINUOUS
10
1.29923
20
0.570228
11
1.29499
21
0.567099
0
LINE
8
BLACK
6
CONTINUOUS
10
1.29499
20
0.567099
11
1.29002
21
0.565353
0
LINE
8
BLACK
6
CONTINUOUS
10
1.29002
20
0.565353
11
1.2867
21
0.565039
0
LINE
8
BLACK
6
CONTINUOUS
10
1.2867
20
0.565039
11
1.2493
21
0.565039
0
LINE
8
BLACK
6
CONTINUOUS
10
1.2493
20
0.565039
11
1.24598
21
0.565353
0
LINE
8
BLACK
6
CONTINUOUS
10
1.24598
20
0.565353
11
1.24101
21
0.567099
0
LINE
8
BLACK
6
CONTINUOUS
10
1.24101
20
0.567099
11
1.23677
21
0.570228
0
LINE
8
BLACK
6
CONTINUOUS
10
1.23677
20
0.570228
11
1.23364
21
0.574466
0
LINE
8
BLACK
6
CONTINUOUS
10
1.23364
20
0.574466
11
1.2319
21
0.579436
0
LINE
8
BLACK
6
CONTINUOUS
10
1.2319
20
0.579436
11
1.23158
21
0.582756
0
LINE
8
BLACK
6
CONTINUOUS
10
1.23158
20
0.582756
11
1.23158
21
0.602441
0
LINE
8
BLACK
6
CONTINUOUS
10
1.23158
20
0.602441
11
1.2319
21
0.605761
0
LINE
8
BLACK
6
CONTINUOUS
10
1.2319
20
0.605761
11
1.23364
21
0.610731
0
LINE
8
BLACK
6
CONTINUOUS
10
1.23364
20
0.610731
11
1.23677
21
0.614968
0
LINE
8
BLACK
6
CONTINUOUS
10
1.23677
20
0.614968
11
1.24101
21
0.618098
0
LINE
8
BLACK
6
CONTINUOUS
10
1.24101
20
0.618098
11
1.24598
21
0.619844
0
LINE
8
BLACK
6
CONTINUOUS
10
1.24598
20
0.619844
11
1.2493
21
0.620157
0
LINE
8
BLACK
6
CONTINUOUS
10
1.2493
20
0.620157
11
1.2867
21
0.620157
0
LINE
8
BLACK
6
CONTINUOUS
10
1.2867
20
0.620157
11
1.29002
21
0.619844
0
LINE
8
BLACK
6
CONTINUOUS
10
2.12664
20
0.675364
11
2.13328
21
0.673739
0
LINE
8
BLACK
6
CONTINUOUS
10
2.13328
20
0.673739
11
2.13938
21
0.670629
0
LINE
8
BLACK
6
CONTINUOUS
10
2.13938
20
0.670629
11
2.14459
21
0.666201
0
LINE
8
BLACK
6
CONTINUOUS
10
2.14459
20
0.666201
11
2.14864
21
0.660693
0
LINE
8
BLACK
6
CONTINUOUS
10
2.14864
20
0.660693
11
2.15132
21
0.6544
0
LINE
8
BLACK
6
CONTINUOUS
10
2.15132
20
0.6544
11
2.15248
21
0.64766
0
LINE
8
BLACK
6
CONTINUOUS
10
2.15248
20
0.64766
11
2.15205
21
0.640834
0
LINE
8
BLACK
6
CONTINUOUS
10
2.15205
20
0.640834
11
2.15007
21
0.634289
0
LINE
8
BLACK
6
CONTINUOUS
10
2.15007
20
0.634289
11
2.14664
21
0.628375
0
LINE
8
BLACK
6
CONTINUOUS
10
2.14664
20
0.628375
11
2.14193
21
0.62341
0
LINE
8
BLACK
6
CONTINUOUS
10
2.14193
20
0.62341
11
2.13621
21
0.619661
0
LINE
8
BLACK
6
CONTINUOUS
10
2.13621
20
0.619661
11
2.12978
21
0.617327
0
LINE
8
BLACK
6
CONTINUOUS
10
2.12978
20
0.617327
11
2.12299
21
0.616535
0
LINE
8
BLACK
6
CONTINUOUS
10
2.12299
20
0.616535
11
2.11512
21
0.616535
0
LINE
8
BLACK
6
CONTINUOUS
10
2.11512
20
0.616535
11
2.11147
21
0.616762
0
LINE
8
BLACK
6
CONTINUOUS
10
2.11147
20
0.616762
11
2.10483
21
0.618387
0
LINE
8
BLACK
6
CONTINUOUS
10
2.10483
20
0.618387
11
2.09873
21
0.621497
0
LINE
8
BLACK
6
CONTINUOUS
10
2.09873
20
0.621497
11
2.09352
21
0.625925
0
LINE
8
BLACK
6
CONTINUOUS
10
2.09352
20
0.625925
11
2.08947
21
0.631433
0
LINE
8
BLACK
6
CONTINUOUS
10
2.08947
20
0.631433
11
2.08679
21
0.637726
0
LINE
8
BLACK
6
CONTINUOUS
10
2.08679
20
0.637726
11
2.08563
21
0.644466
0
LINE
8
BLACK
6
CONTINUOUS
10
2.08563
20
0.644466
11
2.08606
21
0.651292
0
LINE
8
BLACK
6
CONTINUOUS
10
2.08606
20
0.651292
11
2.08804
21
0.657837
0
LINE
8
BLACK
6
CONTINUOUS
10
2.08804
20
0.657837
11
2.09147
21
0.663751
0
LINE
8
BLACK
6
CONTINUOUS
10
2.09147
20
0.663751
11
2.09618
21
0.668716
0
LINE
8
BLACK
6
CONTINUOUS
10
2.09618
20
0.668716
11
2.1019
21
0.672465
0
LINE
8
BLACK
6
CONTINUOUS
10
2.1019
20
0.672465
11
2.10833
21
0.674799
0
LINE
8
BLACK
6
CONTINUOUS
10
2.10833
20
0.674799
11
2.11512
21
0.675591
0
LINE
8
BLACK
6
CONTINUOUS
10
2.11512
20
0.675591
11
2.12299
21
0.675591
0
LINE
8
BLACK
6
CONTINUOUS
10
2.12299
20
0.675591
11
2.12664
21
0.675364
0
LINE
8
BLACK
6
CONTINUOUS
10
0.395343
20
0.675364
11
0.401985
21
0.673739
0
LINE
8
BLACK
6
CONTINUOUS
10
0.401985
20
0.673739
11
0.408076
21
0.670629
0
LINE
8
BLACK
6
CONTINUOUS
10
0.408076
20
0.670629
11
0.413288
21
0.666201
0
LINE
8
BLACK
6
CONTINUOUS
10
0.413288
20
0.666201
11
0.417341
21
0.660693
0
LINE
8
BLACK
6
CONTINUOUS
10
0.417341
20
0.660693
11
0.420019
21
0.6544
0
LINE
8
BLACK
6
CONTINUOUS
10
0.420019
20
0.6544
11
0.421177
21
0.64766
0
LINE
8
BLACK
6
CONTINUOUS
10
0.421177
20
0.64766
11
0.420754
21
0.640834
0
LINE
8
BLACK
6
CONTINUOUS
10
0.420754
20
0.640834
11
0.418771
21
0.634289
0
LINE
8
BLACK
6
CONTINUOUS
10
0.418771
20
0.634289
11
0.415337
21
0.628375
0
LINE
8
BLACK
6
CONTINUOUS
10
0.415337
20
0.628375
11
0.410633
21
0.62341
0
LINE
8
BLACK
6
CONTINUOUS
10
0.410633
20
0.62341
11
0.404914
21
0.619661
0
LINE
8
BLACK
6
CONTINUOUS
10
0.404914
20
0.619661
11
0.398486
21
0.617327
0
LINE
8
BLACK
6
CONTINUOUS
10
0.398486
20
0.617327
11
0.391693
21
0.616535
0
LINE
8
BLACK
6
CONTINUOUS
10
0.391693
20
0.616535
11
0.383819
21
0.616535
0
LINE
8
BLACK
6
CONTINUOUS
10
0.383819
20
0.616535
11
0.380169
21
0.616762
0
LINE
8
BLACK
6
CONTINUOUS
10
0.380169
20
0.616762
11
0.373526
21
0.618387
0
LINE
8
BLACK
6
CONTINUOUS
10
0.373526
20
0.618387
11
0.367436
21
0.621497
0
LINE
8
BLACK
6
CONTINUOUS
10
0.367436
20
0.621497
11
0.362224
21
0.625925
0
LINE
8
BLACK
6
CONTINUOUS
10
0.362224
20
0.625925
11
0.35817
21
0.631433
0
LINE
8
BLACK
6
CONTINUOUS
10
0.35817
20
0.631433
11
0.355493
21
0.637726
0
LINE
8
BLACK
6
CONTINUOUS
10
0.355493
20
0.637726
11
0.354335
21
0.644466
0
LINE
8
BLACK
6
CONTINUOUS
10
0.354335
20
0.644466
11
0.354758
21
0.651292
0
LINE
8
BLACK
6
CONTINUOUS
10
0.354758
20
0.651292
11
0.35674
21
0.657837
0
LINE
8
BLACK
6
CONTINUOUS
10
0.35674
20
0.657837
11
0.360175
21
0.663751
0
LINE
8
BLACK
6
CONTINUOUS
10
0.360175
20
0.663751
11
0.364878
21
0.668716
0
LINE
8
BLACK
6
CONTINUOUS
10
0.364878
20
0.668716
11
0.370598
21
0.672465
0
LINE
8
BLACK
6
CONTINUOUS
10
0.370598
20
0.672465
11
0.377026
21
0.674799
0
LINE
8
BLACK
6
CONTINUOUS
10
0.377026
20
0.674799
11
0.383819
21
0.675591
0
LINE
8
BLACK
6
CONTINUOUS
10
0.383819
20
0.675591
11
0.391693
21
0.675591
0
LINE
8
BLACK
6
CONTINUOUS
10
0.391693
20
0.675591
11
0.395343
21
0.675364
0
LINE
8
BLACK
6
CONTINUOUS
10
0.811876
20
0.696689
11
0.816472
21
0.694347
0
LINE
8
BLACK
6
CONTINUOUS
10
0.816472
20
0.694347
11
0.820119
21
0.6907
0
LINE
8
BLACK
6
CONTINUOUS
10
0.820119
20
0.6907
11
0.822461
21
0.686104
0
LINE
8
BLACK
6
CONTINUOUS
10
0.822461
20
0.686104
11
0.823268
21
0.68101
0
LINE
8
BLACK
6
CONTINUOUS
10
0.823268
20
0.68101
11
0.823268
21
0.65099
0
LINE
8
BLACK
6
CONTINUOUS
10
0.823268
20
0.65099
11
0.822461
21
0.645896
0
LINE
8
BLACK
6
CONTINUOUS
10
0.822461
20
0.645896
11
0.820119
21
0.6413
0
LINE
8
BLACK
6
CONTINUOUS
10
0.820119
20
0.6413
11
0.816472
21
0.637653
0
LINE
8
BLACK
6
CONTINUOUS
10
0.816472
20
0.637653
11
0.811876
21
0.635311
0
LINE
8
BLACK
6
CONTINUOUS
10
0.811876
20
0.635311
11
0.806781
21
0.634504
0
LINE
8
BLACK
6
CONTINUOUS
10
0.806781
20
0.634504
11
0.789557
21
0.634504
0
LINE
8
BLACK
6
CONTINUOUS
10
0.789557
20
0.634504
11
0.784463
21
0.635311
0
LINE
8
BLACK
6
CONTINUOUS
10
0.784463
20
0.635311
11
0.779867
21
0.637653
0
LINE
8
BLACK
6
CONTINUOUS
10
0.779867
20
0.637653
11
0.776219
21
0.6413
0
LINE
8
BLACK
6
CONTINUOUS
10
0.776219
20
0.6413
11
0.773878
21
0.645896
0
LINE
8
BLACK
6
CONTINUOUS
10
0.773878
20
0.645896
11
0.773071
21
0.65099
0
LINE
8
BLACK
6
CONTINUOUS
10
0.773071
20
0.65099
11
0.773071
21
0.68101
0
LINE
8
BLACK
6
CONTINUOUS
10
0.773071
20
0.68101
11
0.773878
21
0.686104
0
LINE
8
BLACK
6
CONTINUOUS
10
0.773878
20
0.686104
11
0.776219
21
0.6907
0
LINE
8
BLACK
6
CONTINUOUS
10
0.776219
20
0.6907
11
0.779867
21
0.694347
0
LINE
8
BLACK
6
CONTINUOUS
10
0.779867
20
0.694347
11
0.784463
21
0.696689
0
LINE
8
BLACK
6
CONTINUOUS
10
0.784463
20
0.696689
11
0.789557
21
0.697496
0
LINE
8
BLACK
6
CONTINUOUS
10
0.789557
20
0.697496
11
0.806781
21
0.697496
0
LINE
8
BLACK
6
CONTINUOUS
10
0.806781
20
0.697496
11
0.811876
21
0.696689
0
LINE
8
BLACK
6
CONTINUOUS
10
0.895537
20
0.696689
11
0.900133
21
0.694347
0
LINE
8
BLACK
6
CONTINUOUS
10
0.900133
20
0.694347
11
0.903781
21
0.6907
0
LINE
8
BLACK
6
CONTINUOUS
10
0.903781
20
0.6907
11
0.906122
21
0.686104
0
LINE
8
BLACK
6
CONTINUOUS
10
0.906122
20
0.686104
11
0.906929
21
0.68101
0
LINE
8
BLACK
6
CONTINUOUS
10
0.906929
20
0.68101
11
0.906929
21
0.65099
0
LINE
8
BLACK
6
CONTINUOUS
10
0.906929
20
0.65099
11
0.906122
21
0.645896
0
LINE
8
BLACK
6
CONTINUOUS
10
0.906122
20
0.645896
11
0.903781
21
0.6413
0
LINE
8
BLACK
6
CONTINUOUS
10
0.903781
20
0.6413
11
0.900133
21
0.637653
0
LINE
8
BLACK
6
CONTINUOUS
10
0.900133
20
0.637653
11
0.895537
21
0.635311
0
LINE
8
BLACK
6
CONTINUOUS
10
0.895537
20
0.635311
11
0.890443
21
0.634504
0
LINE
8
BLACK
6
CONTINUOUS
10
0.890443
20
0.634504
11
0.873219
21
0.634504
0
LINE
8
BLACK
6
CONTINUOUS
10
0.873219
20
0.634504
11
0.868124
21
0.635311
0
LINE
8
BLACK
6
CONTINUOUS
10
0.868124
20
0.635311
11
0.863528
21
0.637653
0
LINE
8
BLACK
6
CONTINUOUS
10
0.863528
20
0.637653
11
0.859881
21
0.6413
0
LINE
8
BLACK
6
CONTINUOUS
10
0.859881
20
0.6413
11
0.857539
21
0.645896
0
LINE
8
BLACK
6
CONTINUOUS
10
0.857539
20
0.645896
11
0.856732
21
0.65099
0
LINE
8
BLACK
6
CONTINUOUS
10
0.856732
20
0.65099
11
0.856732
21
0.68101
0
LINE
8
BLACK
6
CONTINUOUS
10
0.856732
20
0.68101
11
0.857539
21
0.686104
0
LINE
8
BLACK
6
CONTINUOUS
10
0.857539
20
0.686104
11
0.859881
21
0.6907
0
LINE
8
BLACK
6
CONTINUOUS
10
0.859881
20
0.6907
11
0.863528
21
0.694347
0
LINE
8
BLACK
6
CONTINUOUS
10
0.863528
20
0.694347
11
0.868124
21
0.696689
0
LINE
8
BLACK
6
CONTINUOUS
10
0.868124
20
0.696689
11
0.873219
21
0.697496
0
LINE
8
BLACK
6
CONTINUOUS
10
0.873219
20
0.697496
11
0.890443
21
0.697496
0
LINE
8
BLACK
6
CONTINUOUS
10
0.890443
20
0.697496
11
0.895537
21
0.696689
0
LINE
8
BLACK
6
CONTINUOUS
10
0.744328
20
0.707505
11
0.749298
21
0.70576
0
LINE
8
BLACK
6
CONTINUOUS
10
0.749298
20
0.70576
11
0.753535
21
0.70263
0
LINE
8
BLACK
6
CONTINUOUS
10
0.753535
20
0.70263
11
0.756665
21
0.698392
0
LINE
8
BLACK
6
CONTINUOUS
10
0.756665
20
0.698392
11
0.758411
21
0.693422
0
LINE
8
BLACK
6
CONTINUOUS
10
0.758411
20
0.693422
11
0.758724
21
0.690102
0
LINE
8
BLACK
6
CONTINUOUS
10
0.758724
20
0.690102
11
0.758724
21
0.652701
0
LINE
8
BLACK
6
CONTINUOUS
10
0.758724
20
0.652701
11
0.758411
21
0.649381
0
LINE
8
BLACK
6
CONTINUOUS
10
0.758411
20
0.649381
11
0.756665
21
0.644411
0
LINE
8
BLACK
6
CONTINUOUS
10
0.756665
20
0.644411
11
0.753535
21
0.640173
0
LINE
8
BLACK
6
CONTINUOUS
10
0.753535
20
0.640173
11
0.749298
21
0.637044
0
LINE
8
BLACK
6
CONTINUOUS
10
0.749298
20
0.637044
11
0.744328
21
0.635298
0
LINE
8
BLACK
6
CONTINUOUS
10
0.744328
20
0.635298
11
0.741008
21
0.634984
0
LINE
8
BLACK
6
CONTINUOUS
10
0.741008
20
0.634984
11
0.721323
21
0.634984
0
LINE
8
BLACK
6
CONTINUOUS
10
0.721323
20
0.634984
11
0.718003
21
0.635298
0
LINE
8
BLACK
6
CONTINUOUS
10
0.718003
20
0.635298
11
0.713033
21
0.637044
0
LINE
8
BLACK
6
CONTINUOUS
10
0.713033
20
0.637044
11
0.708795
21
0.640173
0
LINE
8
BLACK
6
CONTINUOUS
10
0.708795
20
0.640173
11
0.705666
21
0.644411
0
LINE
8
BLACK
6
CONTINUOUS
10
0.705666
20
0.644411
11
0.70392
21
0.649381
0
LINE
8
BLACK
6
CONTINUOUS
10
0.70392
20
0.649381
11
0.703606
21
0.652701
0
LINE
8
BLACK
6
CONTINUOUS
10
0.703606
20
0.652701
11
0.703606
21
0.690102
0
LINE
8
BLACK
6
CONTINUOUS
10
0.703606
20
0.690102
11
0.70392
21
0.693422
0
LINE
8
BLACK
6
CONTINUOUS
10
0.70392
20
0.693422
11
0.705666
21
0.698392
0
LINE
8
BLACK
6
CONTINUOUS
10
0.705666
20
0.698392
11
0.708795
21
0.70263
0
LINE
8
BLACK
6
CONTINUOUS
10
0.708795
20
0.70263
11
0.713033
21
0.70576
0
LINE
8
BLACK
6
CONTINUOUS
10
0.713033
20
0.70576
11
0.718003
21
0.707505
0
LINE
8
BLACK
6
CONTINUOUS
10
0.718003
20
0.707505
11
0.721323
21
0.707819
0
LINE
8
BLACK
6
CONTINUOUS
10
0.721323
20
0.707819
11
0.741008
21
0.707819
0
LINE
8
BLACK
6
CONTINUOUS
10
0.741008
20
0.707819
11
0.744328
21
0.707505
0
LINE
8
BLACK
6
CONTINUOUS
10
0.669524
20
0.707505
11
0.674495
21
0.70576
0
LINE
8
BLACK
6
CONTINUOUS
10
0.674495
20
0.70576
11
0.678732
21
0.70263
0
LINE
8
BLACK
6
CONTINUOUS
10
0.678732
20
0.70263
11
0.681862
21
0.698392
0
LINE
8
BLACK
6
CONTINUOUS
10
0.681862
20
0.698392
11
0.683607
21
0.693422
0
LINE
8
BLACK
6
CONTINUOUS
10
0.683607
20
0.693422
11
0.683921
21
0.690102
0
LINE
8
BLACK
6
CONTINUOUS
10
0.683921
20
0.690102
11
0.683921
21
0.652701
0
LINE
8
BLACK
6
CONTINUOUS
10
0.683921
20
0.652701
11
0.683607
21
0.649381
0
LINE
8
BLACK
6
CONTINUOUS
10
0.683607
20
0.649381
11
0.681862
21
0.644411
0
LINE
8
BLACK
6
CONTINUOUS
10
0.681862
20
0.644411
11
0.678732
21
0.640173
0
LINE
8
BLACK
6
CONTINUOUS
10
0.678732
20
0.640173
11
0.674495
21
0.637044
0
LINE
8
BLACK
6
CONTINUOUS
10
0.674495
20
0.637044
11
0.669524
21
0.635298
0
LINE
8
BLACK
6
CONTINUOUS
10
0.669524
20
0.635298
11
0.666205
21
0.634984
0
LINE
8
BLACK
6
CONTINUOUS
10
0.666205
20
0.634984
11
0.64652
21
0.634984
0
LINE
8
BLACK
6
CONTINUOUS
10
0.64652
20
0.634984
11
0.6432
21
0.635298
0
LINE
8
BLACK
6
CONTINUOUS
10
0.6432
20
0.635298
11
0.63823
21
0.637044
0
LINE
8
BLACK
6
CONTINUOUS
10
0.63823
20
0.637044
11
0.633992
21
0.640173
0
LINE
8
BLACK
6
CONTINUOUS
10
0.633992
20
0.640173
11
0.630862
21
0.644411
0
LINE
8
BLACK
6
CONTINUOUS
10
0.630862
20
0.644411
11
0.629117
21
0.649381
0
LINE
8
BLACK
6
CONTINUOUS
10
0.629117
20
0.649381
11
0.628803
21
0.652701
0
LINE
8
BLACK
6
CONTINUOUS
10
0.628803
20
0.652701
11
0.628803
21
0.690102
0
LINE
8
BLACK
6
CONTINUOUS
10
0.628803
20
0.690102
11
0.629117
21
0.693422
0
LINE
8
BLACK
6
CONTINUOUS
10
0.629117
20
0.693422
11
0.630862
21
0.698392
0
LINE
8
BLACK
6
CONTINUOUS
10
0.630862
20
0.698392
11
0.633992
21
0.70263
0
LINE
8
BLACK
6
CONTINUOUS
10
0.633992
20
0.70263
11
0.63823
21
0.70576
0
LINE
8
BLACK
6
CONTINUOUS
10
0.63823
20
0.70576
11
0.6432
21
0.707505
0
LINE
8
BLACK
6
CONTINUOUS
10
0.6432
20
0.707505
11
0.64652
21
0.707819
0
LINE
8
BLACK
6
CONTINUOUS
10
0.64652
20
0.707819
11
0.666205
21
0.707819
0
LINE
8
BLACK
6
CONTINUOUS
10
0.666205
20
0.707819
11
0.669524
21
0.707505
0
LINE
8
BLACK
6
CONTINUOUS
10
0.980021
20
0.691048
11
0.984991
21
0.689303
0
LINE
8
BLACK
6
CONTINUOUS
10
0.984991
20
0.689303
11
0.989228
21
0.686173
0
LINE
8
BLACK
6
CONTINUOUS
10
0.989228
20
0.686173
11
0.992358
21
0.681936
0
LINE
8
BLACK
6
CONTINUOUS
10
0.992358
20
0.681936
11
0.994104
21
0.676965
0
LINE
8
BLACK
6
CONTINUOUS
10
0.994104
20
0.676965
11
0.994417
21
0.673646
0
LINE
8
BLACK
6
CONTINUOUS
10
0.994417
20
0.673646
11
0.994417
21
0.653961
0
LINE
8
BLACK
6
CONTINUOUS
10
0.994417
20
0.653961
11
0.994104
21
0.650641
0
LINE
8
BLACK
6
CONTINUOUS
10
0.994104
20
0.650641
11
0.992358
21
0.645671
0
LINE
8
BLACK
6
CONTINUOUS
10
0.992358
20
0.645671
11
0.989228
21
0.641433
0
LINE
8
BLACK
6
CONTINUOUS
10
0.989228
20
0.641433
11
0.984991
21
0.638303
0
LINE
8
BLACK
6
CONTINUOUS
10
0.984991
20
0.638303
11
0.980021
21
0.636558
0
LINE
8
BLACK
6
CONTINUOUS
10
0.980021
20
0.636558
11
0.976701
21
0.636244
0
LINE
8
BLACK
6
CONTINUOUS
10
0.976701
20
0.636244
11
0.939299
21
0.636244
0
LINE
8
BLACK
6
CONTINUOUS
10
0.939299
20
0.636244
11
0.935979
21
0.636558
0
LINE
8
BLACK
6
CONTINUOUS
10
0.935979
20
0.636558
11
0.931009
21
0.638303
0
LINE
8
BLACK
6
CONTINUOUS
10
0.931009
20
0.638303
11
0.926772
21
0.641433
0
LINE
8
BLACK
6
CONTINUOUS
10
0.926772
20
0.641433
11
0.923642
21
0.645671
0
LINE
8
BLACK
6
CONTINUOUS
10
0.923642
20
0.645671
11
0.921896
21
0.650641
0
LINE
8
BLACK
6
CONTINUOUS
10
0.921896
20
0.650641
11
0.921583
21
0.653961
0
LINE
8
BLACK
6
CONTINUOUS
10
0.921583
20
0.653961
11
0.921583
21
0.673646
0
LINE
8
BLACK
6
CONTINUOUS
10
0.921583
20
0.673646
11
0.921896
21
0.676965
0
LINE
8
BLACK
6
CONTINUOUS
10
0.921896
20
0.676965
11
0.923642
21
0.681936
0
LINE
8
BLACK
6
CONTINUOUS
10
0.923642
20
0.681936
11
0.926772
21
0.686173
0
LINE
8
BLACK
6
CONTINUOUS
10
0.926772
20
0.686173
11
0.931009
21
0.689303
0
LINE
8
BLACK
6
CONTINUOUS
10
0.931009
20
0.689303
11
0.935979
21
0.691048
0
LINE
8
BLACK
6
CONTINUOUS
10
0.935979
20
0.691048
11
0.939299
21
0.691362
0
LINE
8
BLACK
6
CONTINUOUS
10
0.939299
20
0.691362
11
0.976701
21
0.691362
0
LINE
8
BLACK
6
CONTINUOUS
10
0.976701
20
0.691362
11
0.980021
21
0.691048
0
LINE
8
BLACK
6
CONTINUOUS
10
1.12188
20
0.698689
11
1.12647
21
0.696347
0
LINE
8
BLACK
6
CONTINUOUS
10
1.12647
20
0.696347
11
1.13012
21
0.6927
0
LINE
8
BLACK
6
CONTINUOUS
10
1.13012
20
0.6927
11
1.13246
21
0.688104
0
LINE
8
BLACK
6
CONTINUOUS
10
1.13246
20
0.688104
11
1.13327
21
0.68301
0
LINE
8
BLACK
6
CONTINUOUS
10
1.13327
20
0.68301
11
1.13327
21
0.65299
0
LINE
8
BLACK
6
CONTINUOUS
10
1.13327
20
0.65299
11
1.13246
21
0.647896
0
LINE
8
BLACK
6
CONTINUOUS
10
1.13246
20
0.647896
11
1.13012
21
0.6433
0
LINE
8
BLACK
6
CONTINUOUS
10
1.13012
20
0.6433
11
1.12647
21
0.639653
0
LINE
8
BLACK
6
CONTINUOUS
10
1.12647
20
0.639653
11
1.12188
21
0.637311
0
LINE
8
BLACK
6
CONTINUOUS
10
1.12188
20
0.637311
11
1.11678
21
0.636504
0
LINE
8
BLACK
6
CONTINUOUS
10
1.11678
20
0.636504
11
1.09956
21
0.636504
0
LINE
8
BLACK
6
CONTINUOUS
10
1.09956
20
0.636504
11
1.09446
21
0.637311
0
LINE
8
BLACK
6
CONTINUOUS
10
1.09446
20
0.637311
11
1.08987
21
0.639653
0
LINE
8
BLACK
6
CONTINUOUS
10
1.08987
20
0.639653
11
1.08622
21
0.6433
0
LINE
8
BLACK
6
CONTINUOUS
10
1.08622
20
0.6433
11
1.08388
21
0.647896
0
LINE
8
BLACK
6
CONTINUOUS
10
1.08388
20
0.647896
11
1.08307
21
0.65299
0
LINE
8
BLACK
6
CONTINUOUS
10
1.08307
20
0.65299
11
1.08307
21
0.68301
0
LINE
8
BLACK
6
CONTINUOUS
10
1.08307
20
0.68301
11
1.08388
21
0.688104
0
LINE
8
BLACK
6
CONTINUOUS
10
1.08388
20
0.688104
11
1.08622
21
0.6927
0
LINE
8
BLACK
6
CONTINUOUS
10
1.08622
20
0.6927
11
1.08987
21
0.696347
0
LINE
8
BLACK
6
CONTINUOUS
10
1.08987
20
0.696347
11
1.09446
21
0.698689
0
LINE
8
BLACK
6
CONTINUOUS
10
1.09446
20
0.698689
11
1.09956
21
0.699496
0
LINE
8
BLACK
6
CONTINUOUS
10
1.09956
20
0.699496
11
1.11678
21
0.699496
0
LINE
8
BLACK
6
CONTINUOUS
10
1.11678
20
0.699496
11
1.12188
21
0.698689
0
LINE
8
BLACK
6
CONTINUOUS
10
1.20554
20
0.698689
11
1.21013
21
0.696347
0
LINE
8
BLACK
6
CONTINUOUS
10
1.21013
20
0.696347
11
1.21378
21
0.6927
0
LINE
8
BLACK
6
CONTINUOUS
10
1.21378
20
0.6927
11
1.21612
21
0.688104
0
LINE
8
BLACK
6
CONTINUOUS
10
1.21612
20
0.688104
11
1.21693
21
0.68301
0
LINE
8
BLACK
6
CONTINUOUS
10
1.21693
20
0.68301
11
1.21693
21
0.65299
0
LINE
8
BLACK
6
CONTINUOUS
10
1.21693
20
0.65299
11
1.21612
21
0.647896
0
LINE
8
BLACK
6
CONTINUOUS
10
1.21612
20
0.647896
11
1.21378
21
0.6433
0
LINE
8
BLACK
6
CONTINUOUS
10
1.21378
20
0.6433
11
1.21013
21
0.639653
0
LINE
8
BLACK
6
CONTINUOUS
10
1.21013
20
0.639653
11
1.20554
21
0.637311
0
LINE
8
BLACK
6
CONTINUOUS
10
1.20554
20
0.637311
11
1.20044
21
0.636504
0
LINE
8
BLACK
6
CONTINUOUS
10
1.20044
20
0.636504
11
1.18322
21
0.636504
0
LINE
8
BLACK
6
CONTINUOUS
10
1.18322
20
0.636504
11
1.17812
21
0.637311
0
LINE
8
BLACK
6
CONTINUOUS
10
1.17812
20
0.637311
11
1.17353
21
0.639653
0
LINE
8
BLACK
6
CONTINUOUS
10
1.17353
20
0.639653
11
1.16988
21
0.6433
0
LINE
8
BLACK
6
CONTINUOUS
10
1.16988
20
0.6433
11
1.16754
21
0.647896
0
LINE
8
BLACK
6
CONTINUOUS
10
1.16754
20
0.647896
11
1.16673
21
0.65299
0
LINE
8
BLACK
6
CONTINUOUS
10
1.16673
20
0.65299
11
1.16673
21
0.68301
0
LINE
8
BLACK
6
CONTINUOUS
10
1.16673
20
0.68301
11
1.16754
21
0.688104
0
LINE
8
BLACK
6
CONTINUOUS
10
1.16754
20
0.688104
11
1.16988
21
0.6927
0
LINE
8
BLACK
6
CONTINUOUS
10
1.16988
20
0.6927
11
1.17353
21
0.696347
0
LINE
8
BLACK
6
CONTINUOUS
10
1.17353
20
0.696347
11
1.17812
21
0.698689
0
LINE
8
BLACK
6
CONTINUOUS
10
1.17812
20
0.698689
11
1.18322
21
0.699496
0
LINE
8
BLACK
6
CONTINUOUS
10
1.18322
20
0.699496
11
1.20044
21
0.699496
0
LINE
8
BLACK
6
CONTINUOUS
10
1.20044
20
0.699496
11
1.20554
21
0.698689
0
LINE
8
BLACK
6
CONTINUOUS
10
1.43288
20
0.699689
11
1.43747
21
0.697347
0
LINE
8
BLACK
6
CONTINUOUS
10
1.43747
20
0.697347
11
1.44112
21
0.6937
0
LINE
8
BLACK
6
CONTINUOUS
10
1.44112
20
0.6937
11
1.44346
21
0.689104
0
LINE
8
BLACK
6
CONTINUOUS
10
1.44346
20
0.689104
11
1.44427
21
0.68401
0
LINE
8
BLACK
6
CONTINUOUS
10
1.44427
20
0.68401
11
1.44427
21
0.65399
0
LINE
8
BLACK
6
CONTINUOUS
10
1.44427
20
0.65399
11
1.44346
21
0.648896
0
LINE
8
BLACK
6
CONTINUOUS
10
1.44346
20
0.648896
11
1.44112
21
0.6443
0
LINE
8
BLACK
6
CONTINUOUS
10
1.44112
20
0.6443
11
1.43747
21
0.640653
0
LINE
8
BLACK
6
CONTINUOUS
10
1.43747
20
0.640653
11
1.43288
21
0.638311
0
LINE
8
BLACK
6
CONTINUOUS
10
1.43288
20
0.638311
11
1.42778
21
0.637504
0
LINE
8
BLACK
6
CONTINUOUS
10
1.42778
20
0.637504
11
1.41056
21
0.637504
0
LINE
8
BLACK
6
CONTINUOUS
10
1.41056
20
0.637504
11
1.40546
21
0.638311
0
LINE
8
BLACK
6
CONTINUOUS
10
1.40546
20
0.638311
11
1.40087
21
0.640653
0
LINE
8
BLACK
6
CONTINUOUS
10
1.40087
20
0.640653
11
1.39722
21
0.6443
0
LINE
8
BLACK
6
CONTINUOUS
10
1.39722
20
0.6443
11
1.39488
21
0.648896
0
LINE
8
BLACK
6
CONTINUOUS
10
1.39488
20
0.648896
11
1.39407
21
0.65399
0
LINE
8
BLACK
6
CONTINUOUS
10
1.39407
20
0.65399
11
1.39407
21
0.68401
0
LINE
8
BLACK
6
CONTINUOUS
10
1.39407
20
0.68401
11
1.39488
21
0.689104
0
LINE
8
BLACK
6
CONTINUOUS
10
1.39488
20
0.689104
11
1.39722
21
0.6937
0
LINE
8
BLACK
6
CONTINUOUS
10
1.39722
20
0.6937
11
1.40087
21
0.697347
0
LINE
8
BLACK
6
CONTINUOUS
10
1.40087
20
0.697347
11
1.40546
21
0.699689
0
LINE
8
BLACK
6
CONTINUOUS
10
1.40546
20
0.699689
11
1.41056
21
0.700496
0
LINE
8
BLACK
6
CONTINUOUS
10
1.41056
20
0.700496
11
1.42778
21
0.700496
0
LINE
8
BLACK
6
CONTINUOUS
10
1.42778
20
0.700496
11
1.43288
21
0.699689
0
LINE
8
BLACK
6
CONTINUOUS
10
1.51654
20
0.699689
11
1.52113
21
0.697347
0
LINE
8
BLACK
6
CONTINUOUS
10
1.52113
20
0.697347
11
1.52478
21
0.6937
0
LINE
8
BLACK
6
CONTINUOUS
10
1.52478
20
0.6937
11
1.52712
21
0.689104
0
LINE
8
BLACK
6
CONTINUOUS
10
1.52712
20
0.689104
11
1.52793
21
0.68401
0
LINE
8
BLACK
6
CONTINUOUS
10
1.52793
20
0.68401
11
1.52793
21
0.65399
0
LINE
8
BLACK
6
CONTINUOUS
10
1.52793
20
0.65399
11
1.52712
21
0.648896
0
LINE
8
BLACK
6
CONTINUOUS
10
1.52712
20
0.648896
11
1.52478
21
0.6443
0
LINE
8
BLACK
6
CONTINUOUS
10
1.52478
20
0.6443
11
1.52113
21
0.640653
0
LINE
8
BLACK
6
CONTINUOUS
10
1.52113
20
0.640653
11
1.51654
21
0.638311
0
LINE
8
BLACK
6
CONTINUOUS
10
1.51654
20
0.638311
11
1.51144
21
0.637504
0
LINE
8
BLACK
6
CONTINUOUS
10
1.51144
20
0.637504
11
1.49422
21
0.637504
0
LINE
8
BLACK
6
CONTINUOUS
10
1.49422
20
0.637504
11
1.48912
21
0.638311
0
LINE
8
BLACK
6
CONTINUOUS
10
1.48912
20
0.638311
11
1.48453
21
0.640653
0
LINE
8
BLACK
6
CONTINUOUS
10
1.48453
20
0.640653
11
1.48088
21
0.6443
0
LINE
8
BLACK
6
CONTINUOUS
10
1.48088
20
0.6443
11
1.47854
21
0.648896
0
LINE
8
BLACK
6
CONTINUOUS
10
1.47854
20
0.648896
11
1.47773
21
0.65399
0
LINE
8
BLACK
6
CONTINUOUS
10
1.47773
20
0.65399
11
1.47773
21
0.68401
0
LINE
8
BLACK
6
CONTINUOUS
10
1.47773
20
0.68401
11
1.47854
21
0.689104
0
LINE
8
BLACK
6
CONTINUOUS
10
1.47854
20
0.689104
11
1.48088
21
0.6937
0
LINE
8
BLACK
6
CONTINUOUS
10
1.48088
20
0.6937
11
1.48453
21
0.697347
0
LINE
8
BLACK
6
CONTINUOUS
10
1.48453
20
0.697347
11
1.48912
21
0.699689
0
LINE
8
BLACK
6
CONTINUOUS
10
1.48912
20
0.699689
11
1.49422
21
0.700496
0
LINE
8
BLACK
6
CONTINUOUS
10
1.49422
20
0.700496
11
1.51144
21
0.700496
0
LINE
8
BLACK
6
CONTINUOUS
10
1.51144
20
0.700496
11
1.51654
21
0.699689
0
LINE
8
BLACK
6
CONTINUOUS
10
1.65856
20
0.710104
11
1.66353
21
0.708358
0
LINE
8
BLACK
6
CONTINUOUS
10
1.66353
20
0.708358
11
1.66777
21
0.705228
0
LINE
8
BLACK
6
CONTINUOUS
10
1.66777
20
0.705228
11
1.6709
21
0.700991
0
LINE
8
BLACK
6
CONTINUOUS
10
1.6709
20
0.700991
11
1.67265
21
0.696021
0
LINE
8
BLACK
6
CONTINUOUS
10
1.67265
20
0.696021
11
1.67296
21
0.692701
0
LINE
8
BLACK
6
CONTINUOUS
10
1.67296
20
0.692701
11
1.67296
21
0.655299
0
LINE
8
BLACK
6
CONTINUOUS
10
1.67296
20
0.655299
11
1.67265
21
0.651979
0
LINE
8
BLACK
6
CONTINUOUS
10
1.67265
20
0.651979
11
1.6709
21
0.647009
0
LINE
8
BLACK
6
CONTINUOUS
10
1.6709
20
0.647009
11
1.66777
21
0.642772
0
LINE
8
BLACK
6
CONTINUOUS
10
1.66777
20
0.642772
11
1.66353
21
0.639642
0
LINE
8
BLACK
6
CONTINUOUS
10
1.66353
20
0.639642
11
1.65856
21
0.637896
0
LINE
8
BLACK
6
CONTINUOUS
10
1.65856
20
0.637896
11
1.65524
21
0.637583
0
LINE
8
BLACK
6
CONTINUOUS
10
1.65524
20
0.637583
11
1.63556
21
0.637583
0
LINE
8
BLACK
6
CONTINUOUS
10
1.63556
20
0.637583
11
1.63224
21
0.637896
0
LINE
8
BLACK
6
CONTINUOUS
10
1.63224
20
0.637896
11
1.62727
21
0.639642
0
LINE
8
BLACK
6
CONTINUOUS
10
1.62727
20
0.639642
11
1.62303
21
0.642772
0
LINE
8
BLACK
6
CONTINUOUS
10
1.62303
20
0.642772
11
1.6199
21
0.647009
0
LINE
8
BLACK
6
CONTINUOUS
10
1.6199
20
0.647009
11
1.61816
21
0.651979
0
LINE
8
BLACK
6
CONTINUOUS
10
1.61816
20
0.651979
11
1.61784
21
0.655299
0
LINE
8
BLACK
6
CONTINUOUS
10
1.61784
20
0.655299
11
1.61784
21
0.692701
0
LINE
8
BLACK
6
CONTINUOUS
10
1.61784
20
0.692701
11
1.61816
21
0.696021
0
LINE
8
BLACK
6
CONTINUOUS
10
1.61816
20
0.696021
11
1.6199
21
0.700991
0
LINE
8
BLACK
6
CONTINUOUS
10
1.6199
20
0.700991
11
1.62303
21
0.705228
0
LINE
8
BLACK
6
CONTINUOUS
10
1.62303
20
0.705228
11
1.62727
21
0.708358
0
LINE
8
BLACK
6
CONTINUOUS
10
1.62727
20
0.708358
11
1.63224
21
0.710104
0
LINE
8
BLACK
6
CONTINUOUS
10
1.63224
20
0.710104
11
1.63556
21
0.710417
0
LINE
8
BLACK
6
CONTINUOUS
10
1.63556
20
0.710417
11
1.65524
21
0.710417
0
LINE
8
BLACK
6
CONTINUOUS
10
1.65524
20
0.710417
11
1.65856
21
0.710104
0
LINE
8
BLACK
6
CONTINUOUS
10
1.58376
20
0.710104
11
1.58873
21
0.708358
0
LINE
8
BLACK
6
CONTINUOUS
10
1.58873
20
0.708358
11
1.59297
21
0.705228
0
LINE
8
BLACK
6
CONTINUOUS
10
1.59297
20
0.705228
11
1.5961
21
0.700991
0
LINE
8
BLACK
6
CONTINUOUS
10
1.5961
20
0.700991
11
1.59784
21
0.696021
0
LINE
8
BLACK
6
CONTINUOUS
10
1.59784
20
0.696021
11
1.59816
21
0.692701
0
LINE
8
BLACK
6
CONTINUOUS
10
1.59816
20
0.692701
11
1.59816
21
0.655299
0
LINE
8
BLACK
6
CONTINUOUS
10
1.59816
20
0.655299
11
1.59784
21
0.651979
0
LINE
8
BLACK
6
CONTINUOUS
10
1.59784
20
0.651979
11
1.5961
21
0.647009
0
LINE
8
BLACK
6
CONTINUOUS
10
1.5961
20
0.647009
11
1.59297
21
0.642772
0
LINE
8
BLACK
6
CONTINUOUS
10
1.59297
20
0.642772
11
1.58873
21
0.639642
0
LINE
8
BLACK
6
CONTINUOUS
10
1.58873
20
0.639642
11
1.58376
21
0.637896
0
LINE
8
BLACK
6
CONTINUOUS
10
1.58376
20
0.637896
11
1.58044
21
0.637583
0
LINE
8
BLACK
6
CONTINUOUS
10
1.58044
20
0.637583
11
1.56076
21
0.637583
0
LINE
8
BLACK
6
CONTINUOUS
10
1.56076
20
0.637583
11
1.55744
21
0.637896
0
LINE
8
BLACK
6
CONTINUOUS
10
1.55744
20
0.637896
11
1.55247
21
0.639642
0
LINE
8
BLACK
6
CONTINUOUS
10
1.55247
20
0.639642
11
1.54823
21
0.642772
0
LINE
8
BLACK
6
CONTINUOUS
10
1.54823
20
0.642772
11
1.5451
21
0.647009
0
LINE
8
BLACK
6
CONTINUOUS
10
1.5451
20
0.647009
11
1.54335
21
0.651979
0
LINE
8
BLACK
6
CONTINUOUS
10
1.54335
20
0.651979
11
1.54304
21
0.655299
0
LINE
8
BLACK
6
CONTINUOUS
10
1.54304
20
0.655299
11
1.54304
21
0.692701
0
LINE
8
BLACK
6
CONTINUOUS
10
1.54304
20
0.692701
11
1.54335
21
0.696021
0
LINE
8
BLACK
6
CONTINUOUS
10
1.54335
20
0.696021
11
1.5451
21
0.700991
0
LINE
8
BLACK
6
CONTINUOUS
10
1.5451
20
0.700991
11
1.54823
21
0.705228
0
LINE
8
BLACK
6
CONTINUOUS
10
1.54823
20
0.705228
11
1.55247
21
0.708358
0
LINE
8
BLACK
6
CONTINUOUS
10
1.55247
20
0.708358
11
1.55744
21
0.710104
0
LINE
8
BLACK
6
CONTINUOUS
10
1.55744
20
0.710104
11
1.56076
21
0.710417
0
LINE
8
BLACK
6
CONTINUOUS
10
1.56076
20
0.710417
11
1.58044
21
0.710417
0
LINE
8
BLACK
6
CONTINUOUS
10
1.58044
20
0.710417
11
1.58376
21
0.710104
0
LINE
8
BLACK
6
CONTINUOUS
10
1.29002
20
0.694647
11
1.29499
21
0.692901
0
LINE
8
BLACK
6
CONTINUOUS
10
1.29499
20
0.692901
11
1.29923
21
0.689772
0
LINE
8
BLACK
6
CONTINUOUS
10
1.29923
20
0.689772
11
1.30236
21
0.685534
0
LINE
8
BLACK
6
CONTINUOUS
10
1.30236
20
0.685534
11
1.3041
21
0.680564
0
LINE
8
BLACK
6
CONTINUOUS
10
1.3041
20
0.680564
11
1.30442
21
0.677244
0
LINE
8
BLACK
6
CONTINUOUS
10
1.30442
20
0.677244
11
1.30442
21
0.657559
0
LINE
8
BLACK
6
CONTINUOUS
10
1.30442
20
0.657559
11
1.3041
21
0.654239
0
LINE
8
BLACK
6
CONTINUOUS
10
1.3041
20
0.654239
11
1.30236
21
0.649269
0
LINE
8
BLACK
6
CONTINUOUS
10
1.30236
20
0.649269
11
1.29923
21
0.645032
0
LINE
8
BLACK
6
CONTINUOUS
10
1.29923
20
0.645032
11
1.29499
21
0.641902
0
LINE
8
BLACK
6
CONTINUOUS
10
1.29499
20
0.641902
11
1.29002
21
0.640156
0
LINE
8
BLACK
6
CONTINUOUS
10
1.29002
20
0.640156
11
1.2867
21
0.639843
0
LINE
8
BLACK
6
CONTINUOUS
10
1.2867
20
0.639843
11
1.2493
21
0.639843
0
LINE
8
BLACK
6
CONTINUOUS
10
1.2493
20
0.639843
11
1.24598
21
0.640156
0
LINE
8
BLACK
6
CONTINUOUS
10
1.24598
20
0.640156
11
1.24101
21
0.641902
0
LINE
8
BLACK
6
CONTINUOUS
10
1.24101
20
0.641902
11
1.23677
21
0.645032
0
LINE
8
BLACK
6
CONTINUOUS
10
1.23677
20
0.645032
11
1.23364
21
0.649269
0
LINE
8
BLACK
6
CONTINUOUS
10
1.23364
20
0.649269
11
1.2319
21
0.654239
0
LINE
8
BLACK
6
CONTINUOUS
10
1.2319
20
0.654239
11
1.23158
21
0.657559
0
LINE
8
BLACK
6
CONTINUOUS
10
1.23158
20
0.657559
11
1.23158
21
0.677244
0
LINE
8
BLACK
6
CONTINUOUS
10
1.23158
20
0.677244
11
1.2319
21
0.680564
0
LINE
8
BLACK
6
CONTINUOUS
10
1.2319
20
0.680564
11
1.23364
21
0.685534
0
LINE
8
BLACK
6
CONTINUOUS
10
1.23364
20
0.685534
11
1.23677
21
0.689772
0
LINE
8
BLACK
6
CONTINUOUS
10
1.23677
20
0.689772
11
1.24101
21
0.692901
0
LINE
8
BLACK
6
CONTINUOUS
10
1.24101
20
0.692901
11
1.24598
21
0.694647
0
LINE
8
BLACK
6
CONTINUOUS
10
1.24598
20
0.694647
11
1.2493
21
0.694961
0
LINE
8
BLACK
6
CONTINUOUS
10
1.2493
20
0.694961
11
1.2867
21
0.694961
0
LINE
8
BLACK
6
CONTINUOUS
10
1.2867
20
0.694961
11
1.29002
21
0.694647
0
LINE
8
BLACK
6
CONTINUOUS
10
1.0581
20
0.692524
11
1.0627
21
0.690182
0
LINE
8
BLACK
6
CONTINUOUS
10
1.0627
20
0.690182
11
1.06635
21
0.686535
0
LINE
8
BLACK
6
CONTINUOUS
10
1.06635
20
0.686535
11
1.06869
21
0.681939
0
LINE
8
BLACK
6
CONTINUOUS
10
1.06869
20
0.681939
11
1.0695
21
0.676844
0
LINE
8
BLACK
6
CONTINUOUS
10
1.0695
20
0.676844
11
1.0695
21
0.65962
0
LINE
8
BLACK
6
CONTINUOUS
10
1.0695
20
0.65962
11
1.06869
21
0.654526
0
LINE
8
BLACK
6
CONTINUOUS
10
1.06869
20
0.654526
11
1.06635
21
0.64993
0
LINE
8
BLACK
6
CONTINUOUS
10
1.06635
20
0.64993
11
1.0627
21
0.646282
0
LINE
8
BLACK
6
CONTINUOUS
10
1.0627
20
0.646282
11
1.0581
21
0.643941
0
LINE
8
BLACK
6
CONTINUOUS
10
1.0581
20
0.643941
11
1.05301
21
0.643134
0
LINE
8
BLACK
6
CONTINUOUS
10
1.05301
20
0.643134
11
1.02299
21
0.643134
0
LINE
8
BLACK
6
CONTINUOUS
10
1.02299
20
0.643134
11
1.0179
21
0.643941
0
LINE
8
BLACK
6
CONTINUOUS
10
1.0179
20
0.643941
11
1.0133
21
0.646282
0
LINE
8
BLACK
6
CONTINUOUS
10
1.0133
20
0.646282
11
1.00965
21
0.64993
0
LINE
8
BLACK
6
CONTINUOUS
10
1.00965
20
0.64993
11
1.00731
21
0.654526
0
LINE
8
BLACK
6
CONTINUOUS
10
1.00731
20
0.654526
11
1.0065
21
0.65962
0
LINE
8
BLACK
6
CONTINUOUS
10
1.0065
20
0.65962
11
1.0065
21
0.676844
0
LINE
8
BLACK
6
CONTINUOUS
10
1.0065
20
0.676844
11
1.00731
21
0.681939
0
LINE
8
BLACK
6
CONTINUOUS
10
1.00731
20
0.681939
11
1.00965
21
0.686535
0
LINE
8
BLACK
6
CONTINUOUS
10
1.00965
20
0.686535
11
1.0133
21
0.690182
0
LINE
8
BLACK
6
CONTINUOUS
10
1.0133
20
0.690182
11
1.0179
21
0.692524
0
LINE
8
BLACK
6
CONTINUOUS
10
1.0179
20
0.692524
11
1.02299
21
0.693331
0
LINE
8
BLACK
6
CONTINUOUS
10
1.02299
20
0.693331
11
1.05301
21
0.693331
0
LINE
8
BLACK
6
CONTINUOUS
10
1.05301
20
0.693331
11
1.0581
21
0.692524
0
LINE
8
BLACK
6
CONTINUOUS
10
1.3681
20
0.696122
11
1.3727
21
0.693781
0
LINE
8
BLACK
6
CONTINUOUS
10
1.3727
20
0.693781
11
1.37635
21
0.690133
0
LINE
8
BLACK
6
CONTINUOUS
10
1.37635
20
0.690133
11
1.37869
21
0.685537
0
LINE
8
BLACK
6
CONTINUOUS
10
1.37869
20
0.685537
11
1.3795
21
0.680443
0
LINE
8
BLACK
6
CONTINUOUS
10
1.3795
20
0.680443
11
1.3795
21
0.663219
0
LINE
8
BLACK
6
CONTINUOUS
10
1.3795
20
0.663219
11
1.37869
21
0.658124
0
LINE
8
BLACK
6
CONTINUOUS
10
1.37869
20
0.658124
11
1.37635
21
0.653528
0
LINE
8
BLACK
6
CONTINUOUS
10
1.37635
20
0.653528
11
1.3727
21
0.649881
0
LINE
8
BLACK
6
CONTINUOUS
10
1.3727
20
0.649881
11
1.3681
21
0.647539
0
LINE
8
BLACK
6
CONTINUOUS
10
1.3681
20
0.647539
11
1.36301
21
0.646732
0
LINE
8
BLACK
6
CONTINUOUS
10
1.36301
20
0.646732
11
1.33299
21
0.646732
0
LINE
8
BLACK
6
CONTINUOUS
10
1.33299
20
0.646732
11
1.3279
21
0.647539
0
LINE
8
BLACK
6
CONTINUOUS
10
1.3279
20
0.647539
11
1.3233
21
0.649881
0
LINE
8
BLACK
6
CONTINUOUS
10
1.3233
20
0.649881
11
1.31965
21
0.653528
0
LINE
8
BLACK
6
CONTINUOUS
10
1.31965
20
0.653528
11
1.31731
21
0.658124
0
LINE
8
BLACK
6
CONTINUOUS
10
1.31731
20
0.658124
11
1.3165
21
0.663219
0
LINE
8
BLACK
6
CONTINUOUS
10
1.3165
20
0.663219
11
1.3165
21
0.680443
0
LINE
8
BLACK
6
CONTINUOUS
10
1.3165
20
0.680443
11
1.31731
21
0.685537
0
LINE
8
BLACK
6
CONTINUOUS
10
1.31731
20
0.685537
11
1.31965
21
0.690133
0
LINE
8
BLACK
6
CONTINUOUS
10
1.31965
20
0.690133
11
1.3233
21
0.693781
0
LINE
8
BLACK
6
CONTINUOUS
10
1.3233
20
0.693781
11
1.3279
21
0.696122
0
LINE
8
BLACK
6
CONTINUOUS
10
1.3279
20
0.696122
11
1.33299
21
0.696929
0
LINE
8
BLACK
6
CONTINUOUS
10
1.33299
20
0.696929
11
1.36301
21
0.696929
0
LINE
8
BLACK
6
CONTINUOUS
10
1.36301
20
0.696929
11
1.3681
21
0.696122
0
LINE
8
BLACK
6
CONTINUOUS
10
2.06759
20
0.775364
11
2.07423
21
0.773739
0
LINE
8
BLACK
6
CONTINUOUS
10
2.07423
20
0.773739
11
2.08032
21
0.770629
0
LINE
8
BLACK
6
CONTINUOUS
10
2.08032
20
0.770629
11
2.08553
21
0.766201
0
LINE
8
BLACK
6
CONTINUOUS
10
2.08553
20
0.766201
11
2.08959
21
0.760693
0
LINE
8
BLACK
6
CONTINUOUS
10
2.08959
20
0.760693
11
2.09226
21
0.7544
0
LINE
8
BLACK
6
CONTINUOUS
10
2.09226
20
0.7544
11
2.09342
21
0.74766
0
LINE
8
BLACK
6
CONTINUOUS
10
2.09342
20
0.74766
11
2.093
21
0.740834
0
LINE
8
BLACK
6
CONTINUOUS
10
2.093
20
0.740834
11
2.09102
21
0.734289
0
LINE
8
BLACK
6
CONTINUOUS
10
2.09102
20
0.734289
11
2.08758
21
0.728375
0
LINE
8
BLACK
6
CONTINUOUS
10
2.08758
20
0.728375
11
2.08288
21
0.72341
0
LINE
8
BLACK
6
CONTINUOUS
10
2.08288
20
0.72341
11
2.07937
21
0.721113
0
LINE
8
BLACK
6
CONTINUOUS
10
2.07937
20
0.721113
11
2.08032
21
0.720629
0
LINE
8
BLACK
6
CONTINUOUS
10
2.08032
20
0.720629
11
2.08553
21
0.716201
0
LINE
8
BLACK
6
CONTINUOUS
10
2.08553
20
0.716201
11
2.08959
21
0.710693
0
LINE
8
BLACK
6
CONTINUOUS
10
2.08959
20
0.710693
11
2.09226
21
0.7044
0
LINE
8
BLACK
6
CONTINUOUS
10
2.09226
20
0.7044
11
2.09342
21
0.69766
0
LINE
8
BLACK
6
CONTINUOUS
10
2.09342
20
0.69766
11
2.093
21
0.690834
0
LINE
8
BLACK
6
CONTINUOUS
10
2.093
20
0.690834
11
2.09102
21
0.684289
0
LINE
8
BLACK
6
CONTINUOUS
10
2.09102
20
0.684289
11
2.08758
21
0.678375
0
LINE
8
BLACK
6
CONTINUOUS
10
2.08758
20
0.678375
11
2.08288
21
0.67341
0
LINE
8
BLACK
6
CONTINUOUS
10
2.08288
20
0.67341
11
2.07716
21
0.669661
0
LINE
8
BLACK
6
CONTINUOUS
10
2.07716
20
0.669661
11
2.07073
21
0.667327
0
LINE
8
BLACK
6
CONTINUOUS
10
2.07073
20
0.667327
11
2.06394
21
0.666535
0
LINE
8
BLACK
6
CONTINUOUS
10
2.06394
20
0.666535
11
2.05606
21
0.666535
0
LINE
8
BLACK
6
CONTINUOUS
10
2.05606
20
0.666535
11
2.05241
21
0.666762
0
LINE
8
BLACK
6
CONTINUOUS
10
2.05241
20
0.666762
11
2.04577
21
0.668387
0
LINE
8
BLACK
6
CONTINUOUS
10
2.04577
20
0.668387
11
2.03968
21
0.671497
0
LINE
8
BLACK
6
CONTINUOUS
10
2.03968
20
0.671497
11
2.03447
21
0.675925
0
LINE
8
BLACK
6
CONTINUOUS
10
2.03447
20
0.675925
11
2.03041
21
0.681433
0
LINE
8
BLACK
6
CONTINUOUS
10
2.03041
20
0.681433
11
2.02774
21
0.687726
0
LINE
8
BLACK
6
CONTINUOUS
10
2.02774
20
0.687726
11
2.02658
21
0.694466
0
LINE
8
BLACK
6
CONTINUOUS
10
2.02658
20
0.694466
11
2.027
21
0.701292
0
LINE
8
BLACK
6
CONTINUOUS
10
2.027
20
0.701292
11
2.02898
21
0.707837
0
LINE
8
BLACK
6
CONTINUOUS
10
2.02898
20
0.707837
11
2.03242
21
0.713751
0
LINE
8
BLACK
6
CONTINUOUS
10
2.03242
20
0.713751
11
2.03712
21
0.718716
0
LINE
8
BLACK
6
CONTINUOUS
10
2.03712
20
0.718716
11
2.04063
21
0.721013
0
LINE
8
BLACK
6
CONTINUOUS
10
2.04063
20
0.721013
11
2.03968
21
0.721497
0
LINE
8
BLACK
6
CONTINUOUS
10
2.03968
20
0.721497
11
2.03447
21
0.725925
0
LINE
8
BLACK
6
CONTINUOUS
10
2.03447
20
0.725925
11
2.03041
21
0.731433
0
LINE
8
BLACK
6
CONTINUOUS
10
2.03041
20
0.731433
11
2.02774
21
0.737726
0
LINE
8
BLACK
6
CONTINUOUS
10
2.02774
20
0.737726
11
2.02658
21
0.744466
0
LINE
8
BLACK
6
CONTINUOUS
10
2.02658
20
0.744466
11
2.027
21
0.751292
0
LINE
8
BLACK
6
CONTINUOUS
10
2.027
20
0.751292
11
2.02898
21
0.757837
0
LINE
8
BLACK
6
CONTINUOUS
10
2.02898
20
0.757837
11
2.03242
21
0.763751
0
LINE
8
BLACK
6
CONTINUOUS
10
2.03242
20
0.763751
11
2.03712
21
0.768716
0
LINE
8
BLACK
6
CONTINUOUS
10
2.03712
20
0.768716
11
2.04284
21
0.772465
0
LINE
8
BLACK
6
CONTINUOUS
10
2.04284
20
0.772465
11
2.04927
21
0.774799
0
LINE
8
BLACK
6
CONTINUOUS
10
2.04927
20
0.774799
11
2.05606
21
0.775591
0
LINE
8
BLACK
6
CONTINUOUS
10
2.05606
20
0.775591
11
2.06394
21
0.775591
0
LINE
8
BLACK
6
CONTINUOUS
10
2.06394
20
0.775591
11
2.06759
21
0.775364
0
LINE
8
BLACK
6
CONTINUOUS
10
0.336287
20
0.775364
11
0.34293
21
0.773739
0
LINE
8
BLACK
6
CONTINUOUS
10
0.34293
20
0.773739
11
0.349021
21
0.770629
0
LINE
8
BLACK
6
CONTINUOUS
10
0.349021
20
0.770629
11
0.354233
21
0.766201
0
LINE
8
BLACK
6
CONTINUOUS
10
0.354233
20
0.766201
11
0.358286
21
0.760693
0
LINE
8
BLACK
6
CONTINUOUS
10
0.358286
20
0.760693
11
0.360964
21
0.7544
0
LINE
8
BLACK
6
CONTINUOUS
10
0.360964
20
0.7544
11
0.362122
21
0.74766
0
LINE
8
BLACK
6
CONTINUOUS
10
0.362122
20
0.74766
11
0.361699
21
0.740834
0
LINE
8
BLACK
6
CONTINUOUS
10
0.361699
20
0.740834
11
0.359716
21
0.734289
0
LINE
8
BLACK
6
CONTINUOUS
10
0.359716
20
0.734289
11
0.356281
21
0.728375
0
LINE
8
BLACK
6
CONTINUOUS
10
0.356281
20
0.728375
11
0.351578
21
0.72341
0
LINE
8
BLACK
6
CONTINUOUS
10
0.351578
20
0.72341
11
0.348073
21
0.721113
0
LINE
8
BLACK
6
CONTINUOUS
10
0.348073
20
0.721113
11
0.349021
21
0.720629
0
LINE
8
BLACK
6
CONTINUOUS
10
0.349021
20
0.720629
11
0.354233
21
0.716201
0
LINE
8
BLACK
6
CONTINUOUS
10
0.354233
20
0.716201
11
0.358286
21
0.710693
0
LINE
8
BLACK
6
CONTINUOUS
10
0.358286
20
0.710693
11
0.360964
21
0.7044
0
LINE
8
BLACK
6
CONTINUOUS
10
0.360964
20
0.7044
11
0.362122
21
0.69766
0
LINE
8
BLACK
6
CONTINUOUS
10
0.362122
20
0.69766
11
0.361699
21
0.690834
0
LINE
8
BLACK
6
CONTINUOUS
10
0.361699
20
0.690834
11
0.359716
21
0.684289
0
LINE
8
BLACK
6
CONTINUOUS
10
0.359716
20
0.684289
11
0.356281
21
0.678375
0
LINE
8
BLACK
6
CONTINUOUS
10
0.356281
20
0.678375
11
0.351578
21
0.67341
0
LINE
8
BLACK
6
CONTINUOUS
10
0.351578
20
0.67341
11
0.345859
21
0.669661
0
LINE
8
BLACK
6
CONTINUOUS
10
0.345859
20
0.669661
11
0.339431
21
0.667327
0
LINE
8
BLACK
6
CONTINUOUS
10
0.339431
20
0.667327
11
0.332638
21
0.666535
0
LINE
8
BLACK
6
CONTINUOUS
10
0.332638
20
0.666535
11
0.324764
21
0.666535
0
LINE
8
BLACK
6
CONTINUOUS
10
0.324764
20
0.666535
11
0.321114
21
0.666762
0
LINE
8
BLACK
6
CONTINUOUS
10
0.321114
20
0.666762
11
0.314471
21
0.668387
0
LINE
8
BLACK
6
CONTINUOUS
10
0.314471
20
0.668387
11
0.308381
21
0.671497
0
LINE
8
BLACK
6
CONTINUOUS
10
0.308381
20
0.671497
11
0.303169
21
0.675925
0
LINE
8
BLACK
6
CONTINUOUS
10
0.303169
20
0.675925
11
0.299115
21
0.681433
0
LINE
8
BLACK
6
CONTINUOUS
10
0.299115
20
0.681433
11
0.296438
21
0.687726
0
LINE
8
BLACK
6
CONTINUOUS
10
0.296438
20
0.687726
11
0.295279
21
0.694466
0
LINE
8
BLACK
6
CONTINUOUS
10
0.295279
20
0.694466
11
0.295703
21
0.701292
0
LINE
8
BLACK
6
CONTINUOUS
10
0.295703
20
0.701292
11
0.297685
21
0.707837
0
LINE
8
BLACK
6
CONTINUOUS
10
0.297685
20
0.707837
11
0.30112
21
0.713751
0
LINE
8
BLACK
6
CONTINUOUS
10
0.30112
20
0.713751
11
0.305823
21
0.718716
0
LINE
8
BLACK
6
CONTINUOUS
10
0.305823
20
0.718716
11
0.309328
21
0.721013
0
LINE
8
BLACK
6
CONTINUOUS
10
0.309328
20
0.721013
11
0.308381
21
0.721497
0
LINE
8
BLACK
6
CONTINUOUS
10
0.308381
20
0.721497
11
0.303169
21
0.725925
0
LINE
8
BLACK
6
CONTINUOUS
10
0.303169
20
0.725925
11
0.299115
21
0.731433
0
LINE
8
BLACK
6
CONTINUOUS
10
0.299115
20
0.731433
11
0.296438
21
0.737726
0
LINE
8
BLACK
6
CONTINUOUS
10
0.296438
20
0.737726
11
0.295279
21
0.744466
0
LINE
8
BLACK
6
CONTINUOUS
10
0.295279
20
0.744466
11
0.295703
21
0.751292
0
LINE
8
BLACK
6
CONTINUOUS
10
0.295703
20
0.751292
11
0.297685
21
0.757837
0
LINE
8
BLACK
6
CONTINUOUS
10
0.297685
20
0.757837
11
0.30112
21
0.763751
0
LINE
8
BLACK
6
CONTINUOUS
10
0.30112
20
0.763751
11
0.305823
21
0.768716
0
LINE
8
BLACK
6
CONTINUOUS
10
0.305823
20
0.768716
11
0.311543
21
0.772465
0
LINE
8
BLACK
6
CONTINUOUS
10
0.311543
20
0.772465
11
0.317971
21
0.774799
0
LINE
8
BLACK
6
CONTINUOUS
10
0.317971
20
0.774799
11
0.324764
21
0.775591
0
LINE
8
BLACK
6
CONTINUOUS
10
0.324764
20
0.775591
11
0.332638
21
0.775591
0
LINE
8
BLACK
6
CONTINUOUS
10
0.332638
20
0.775591
11
0.336287
21
0.775364
0
LINE
8
BLACK
6
CONTINUOUS
10
0.395343
20
0.825364
11
0.401985
21
0.823739
0
LINE
8
BLACK
6
CONTINUOUS
10
0.401985
20
0.823739
11
0.408076
21
0.820629
0
LINE
8
BLACK
6
CONTINUOUS
10
0.408076
20
0.820629
11
0.413288
21
0.816201
0
LINE
8
BLACK
6
CONTINUOUS
10
0.413288
20
0.816201
11
0.417341
21
0.810693
0
LINE
8
BLACK
6
CONTINUOUS
10
0.417341
20
0.810693
11
0.420019
21
0.8044
0
LINE
8
BLACK
6
CONTINUOUS
10
0.420019
20
0.8044
11
0.421177
21
0.79766
0
LINE
8
BLACK
6
CONTINUOUS
10
0.421177
20
0.79766
11
0.420754
21
0.790834
0
LINE
8
BLACK
6
CONTINUOUS
10
0.420754
20
0.790834
11
0.418771
21
0.784289
0
LINE
8
BLACK
6
CONTINUOUS
10
0.418771
20
0.784289
11
0.415337
21
0.778375
0
LINE
8
BLACK
6
CONTINUOUS
10
0.415337
20
0.778375
11
0.410633
21
0.77341
0
LINE
8
BLACK
6
CONTINUOUS
10
0.410633
20
0.77341
11
0.404914
21
0.769661
0
LINE
8
BLACK
6
CONTINUOUS
10
0.404914
20
0.769661
11
0.398486
21
0.767327
0
LINE
8
BLACK
6
CONTINUOUS
10
0.398486
20
0.767327
11
0.391693
21
0.766535
0
LINE
8
BLACK
6
CONTINUOUS
10
0.391693
20
0.766535
11
0.383819
21
0.766535
0
LINE
8
BLACK
6
CONTINUOUS
10
0.383819
20
0.766535
11
0.380169
21
0.766762
0
LINE
8
BLACK
6
CONTINUOUS
10
0.380169
20
0.766762
11
0.373526
21
0.768387
0
LINE
8
BLACK
6
CONTINUOUS
10
0.373526
20
0.768387
11
0.367436
21
0.771497
0
LINE
8
BLACK
6
CONTINUOUS
10
0.367436
20
0.771497
11
0.362224
21
0.775925
0
LINE
8
BLACK
6
CONTINUOUS
10
0.362224
20
0.775925
11
0.35817
21
0.781433
0
LINE
8
BLACK
6
CONTINUOUS
10
0.35817
20
0.781433
11
0.355493
21
0.787726
0
LINE
8
BLACK
6
CONTINUOUS
10
0.355493
20
0.787726
11
0.354335
21
0.794466
0
LINE
8
BLACK
6
CONTINUOUS
10
0.354335
20
0.794466
11
0.354758
21
0.801292
0
LINE
8
BLACK
6
CONTINUOUS
10
0.354758
20
0.801292
11
0.35674
21
0.807837
0
LINE
8
BLACK
6
CONTINUOUS
10
0.35674
20
0.807837
11
0.360175
21
0.813751
0
LINE
8
BLACK
6
CONTINUOUS
10
0.360175
20
0.813751
11
0.364878
21
0.818716
0
LINE
8
BLACK
6
CONTINUOUS
10
0.364878
20
0.818716
11
0.370598
21
0.822465
0
LINE
8
BLACK
6
CONTINUOUS
10
0.370598
20
0.822465
11
0.377026
21
0.824799
0
LINE
8
BLACK
6
CONTINUOUS
10
0.377026
20
0.824799
11
0.383819
21
0.825591
0
LINE
8
BLACK
6
CONTINUOUS
10
0.383819
20
0.825591
11
0.391693
21
0.825591
0
LINE
8
BLACK
6
CONTINUOUS
10
0.391693
20
0.825591
11
0.395343
21
0.825364
0
LINE
8
BLACK
6
CONTINUOUS
10
2.12664
20
0.825364
11
2.13328
21
0.823739
0
LINE
8
BLACK
6
CONTINUOUS
10
2.13328
20
0.823739
11
2.13938
21
0.820629
0
LINE
8
BLACK
6
CONTINUOUS
10
2.13938
20
0.820629
11
2.14459
21
0.816201
0
LINE
8
BLACK
6
CONTINUOUS
10
2.14459
20
0.816201
11
2.14864
21
0.810693
0
LINE
8
BLACK
6
CONTINUOUS
10
2.14864
20
0.810693
11
2.15132
21
0.8044
0
LINE
8
BLACK
6
CONTINUOUS
10
2.15132
20
0.8044
11
2.15248
21
0.79766
0
LINE
8
BLACK
6
CONTINUOUS
10
2.15248
20
0.79766
11
2.15205
21
0.790834
0
LINE
8
BLACK
6
CONTINUOUS
10
2.15205
20
0.790834
11
2.15007
21
0.784289
0
LINE
8
BLACK
6
CONTINUOUS
10
2.15007
20
0.784289
11
2.14664
21
0.778375
0
LINE
8
BLACK
6
CONTINUOUS
10
2.14664
20
0.778375
11
2.14193
21
0.77341
0
LINE
8
BLACK
6
CONTINUOUS
10
2.14193
20
0.77341
11
2.13621
21
0.769661
0
LINE
8
BLACK
6
CONTINUOUS
10
2.13621
20
0.769661
11
2.12978
21
0.767327
0
LINE
8
BLACK
6
CONTINUOUS
10
2.12978
20
0.767327
11
2.12299
21
0.766535
0
LINE
8
BLACK
6
CONTINUOUS
10
2.12299
20
0.766535
11
2.11512
21
0.766535
0
LINE
8
BLACK
6
CONTINUOUS
10
2.11512
20
0.766535
11
2.11147
21
0.766762
0
LINE
8
BLACK
6
CONTINUOUS
10
2.11147
20
0.766762
11
2.10483
21
0.768387
0
LINE
8
BLACK
6
CONTINUOUS
10
2.10483
20
0.768387
11
2.09873
21
0.771497
0
LINE
8
BLACK
6
CONTINUOUS
10
2.09873
20
0.771497
11
2.09352
21
0.775925
0
LINE
8
BLACK
6
CONTINUOUS
10
2.09352
20
0.775925
11
2.08947
21
0.781433
0
LINE
8
BLACK
6
CONTINUOUS
10
2.08947
20
0.781433
11
2.08679
21
0.787726
0
LINE
8
BLACK
6
CONTINUOUS
10
2.08679
20
0.787726
11
2.08563
21
0.794466
0
LINE
8
BLACK
6
CONTINUOUS
10
2.08563
20
0.794466
11
2.08606
21
0.801292
0
LINE
8
BLACK
6
CONTINUOUS
10
2.08606
20
0.801292
11
2.08804
21
0.807837
0
LINE
8
BLACK
6
CONTINUOUS
10
2.08804
20
0.807837
11
2.09147
21
0.813751
0
LINE
8
BLACK
6
CONTINUOUS
10
2.09147
20
0.813751
11
2.09618
21
0.818716
0
LINE
8
BLACK
6
CONTINUOUS
10
2.09618
20
0.818716
11
2.1019
21
0.822465
0
LINE
8
BLACK
6
CONTINUOUS
10
2.1019
20
0.822465
11
2.10833
21
0.824799
0
LINE
8
BLACK
6
CONTINUOUS
10
2.10833
20
0.824799
11
2.11512
21
0.825591
0
LINE
8
BLACK
6
CONTINUOUS
10
2.11512
20
0.825591
11
2.12299
21
0.825591
0
LINE
8
BLACK
6
CONTINUOUS
10
2.12299
20
0.825591
11
2.12664
21
0.825364
0
LINE
8
BLACK
6
CONTINUOUS
10
1.28894
20
0.859689
11
1.29353
21
0.857347
0
LINE
8
BLACK
6
CONTINUOUS
10
1.29353
20
0.857347
11
1.29718
21
0.8537
0
LINE
8
BLACK
6
CONTINUOUS
10
1.29718
20
0.8537
11
1.29952
21
0.849104
0
LINE
8
BLACK
6
CONTINUOUS
10
1.29952
20
0.849104
11
1.30033
21
0.84401
0
LINE
8
BLACK
6
CONTINUOUS
10
1.30033
20
0.84401
11
1.30033
21
0.81399
0
LINE
8
BLACK
6
CONTINUOUS
10
1.30033
20
0.81399
11
1.29952
21
0.808896
0
LINE
8
BLACK
6
CONTINUOUS
10
1.29952
20
0.808896
11
1.29718
21
0.8043
0
LINE
8
BLACK
6
CONTINUOUS
10
1.29718
20
0.8043
11
1.29353
21
0.800653
0
LINE
8
BLACK
6
CONTINUOUS
10
1.29353
20
0.800653
11
1.28894
21
0.798311
0
LINE
8
BLACK
6
CONTINUOUS
10
1.28894
20
0.798311
11
1.28384
21
0.797504
0
LINE
8
BLACK
6
CONTINUOUS
10
1.28384
20
0.797504
11
1.26662
21
0.797504
0
LINE
8
BLACK
6
CONTINUOUS
10
1.26662
20
0.797504
11
1.26153
21
0.798311
0
LINE
8
BLACK
6
CONTINUOUS
10
1.26153
20
0.798311
11
1.25693
21
0.800653
0
LINE
8
BLACK
6
CONTINUOUS
10
1.25693
20
0.800653
11
1.25328
21
0.8043
0
LINE
8
BLACK
6
CONTINUOUS
10
1.25328
20
0.8043
11
1.25094
21
0.808896
0
LINE
8
BLACK
6
CONTINUOUS
10
1.25094
20
0.808896
11
1.25013
21
0.81399
0
LINE
8
BLACK
6
CONTINUOUS
10
1.25013
20
0.81399
11
1.25013
21
0.84401
0
LINE
8
BLACK
6
CONTINUOUS
10
1.25013
20
0.84401
11
1.25094
21
0.849104
0
LINE
8
BLACK
6
CONTINUOUS
10
1.25094
20
0.849104
11
1.25328
21
0.8537
0
LINE
8
BLACK
6
CONTINUOUS
10
1.25328
20
0.8537
11
1.25693
21
0.857347
0
LINE
8
BLACK
6
CONTINUOUS
10
1.25693
20
0.857347
11
1.26153
21
0.859689
0
LINE
8
BLACK
6
CONTINUOUS
10
1.26153
20
0.859689
11
1.26662
21
0.860496
0
LINE
8
BLACK
6
CONTINUOUS
10
1.26662
20
0.860496
11
1.28384
21
0.860496
0
LINE
8
BLACK
6
CONTINUOUS
10
1.28384
20
0.860496
11
1.28894
21
0.859689
0
LINE
8
BLACK
6
CONTINUOUS
10
1.20528
20
0.859689
11
1.20987
21
0.857347
0
LINE
8
BLACK
6
CONTINUOUS
10
1.20987
20
0.857347
11
1.21352
21
0.8537
0
LINE
8
BLACK
6
CONTINUOUS
10
1.21352
20
0.8537
11
1.21586
21
0.849104
0
LINE
8
BLACK
6
CONTINUOUS
10
1.21586
20
0.849104
11
1.21667
21
0.84401
0
LINE
8
BLACK
6
CONTINUOUS
10
1.21667
20
0.84401
11
1.21667
21
0.81399
0
LINE
8
BLACK
6
CONTINUOUS
10
1.21667
20
0.81399
11
1.21586
21
0.808896
0
LINE
8
BLACK
6
CONTINUOUS
10
1.21586
20
0.808896
11
1.21352
21
0.8043
0
LINE
8
BLACK
6
CONTINUOUS
10
1.21352
20
0.8043
11
1.20987
21
0.800653
0
LINE
8
BLACK
6
CONTINUOUS
10
1.20987
20
0.800653
11
1.20528
21
0.798311
0
LINE
8
BLACK
6
CONTINUOUS
10
1.20528
20
0.798311
11
1.20018
21
0.797504
0
LINE
8
BLACK
6
CONTINUOUS
10
1.20018
20
0.797504
11
1.18296
21
0.797504
0
LINE
8
BLACK
6
CONTINUOUS
10
1.18296
20
0.797504
11
1.17786
21
0.798311
0
LINE
8
BLACK
6
CONTINUOUS
10
1.17786
20
0.798311
11
1.17327
21
0.800653
0
LINE
8
BLACK
6
CONTINUOUS
10
1.17327
20
0.800653
11
1.16962
21
0.8043
0
LINE
8
BLACK
6
CONTINUOUS
10
1.16962
20
0.8043
11
1.16728
21
0.808896
0
LINE
8
BLACK
6
CONTINUOUS
10
1.16728
20
0.808896
11
1.16647
21
0.81399
0
LINE
8
BLACK
6
CONTINUOUS
10
1.16647
20
0.81399
11
1.16647
21
0.84401
0
LINE
8
BLACK
6
CONTINUOUS
10
1.16647
20
0.84401
11
1.16728
21
0.849104
0
LINE
8
BLACK
6
CONTINUOUS
10
1.16728
20
0.849104
11
1.16962
21
0.8537
0
LINE
8
BLACK
6
CONTINUOUS
10
1.16962
20
0.8537
11
1.17327
21
0.857347
0
LINE
8
BLACK
6
CONTINUOUS
10
1.17327
20
0.857347
11
1.17786
21
0.859689
0
LINE
8
BLACK
6
CONTINUOUS
10
1.17786
20
0.859689
11
1.18296
21
0.860496
0
LINE
8
BLACK
6
CONTINUOUS
10
1.18296
20
0.860496
11
1.20018
21
0.860496
0
LINE
8
BLACK
6
CONTINUOUS
10
1.20018
20
0.860496
11
1.20528
21
0.859689
0
LINE
8
BLACK
6
CONTINUOUS
10
1.12294
20
0.861689
11
1.12753
21
0.859347
0
LINE
8
BLACK
6
CONTINUOUS
10
1.12753
20
0.859347
11
1.13118
21
0.8557
0
LINE
8
BLACK
6
CONTINUOUS
10
1.13118
20
0.8557
11
1.13352
21
0.851104
0
LINE
8
BLACK
6
CONTINUOUS
10
1.13352
20
0.851104
11
1.13433
21
0.84601
0
LINE
8
BLACK
6
CONTINUOUS
10
1.13433
20
0.84601
11
1.13433
21
0.81599
0
LINE
8
BLACK
6
CONTINUOUS
10
1.13433
20
0.81599
11
1.13352
21
0.810896
0
LINE
8
BLACK
6
CONTINUOUS
10
1.13352
20
0.810896
11
1.13118
21
0.8063
0
LINE
8
BLACK
6
CONTINUOUS
10
1.13118
20
0.8063
11
1.12753
21
0.802653
0
LINE
8
BLACK
6
CONTINUOUS
10
1.12753
20
0.802653
11
1.12294
21
0.800311
0
LINE
8
BLACK
6
CONTINUOUS
10
1.12294
20
0.800311
11
1.11784
21
0.799504
0
LINE
8
BLACK
6
CONTINUOUS
10
1.11784
20
0.799504
11
1.10062
21
0.799504
0
LINE
8
BLACK
6
CONTINUOUS
10
1.10062
20
0.799504
11
1.09553
21
0.800311
0
LINE
8
BLACK
6
CONTINUOUS
10
1.09553
20
0.800311
11
1.09093
21
0.802653
0
LINE
8
BLACK
6
CONTINUOUS
10
1.09093
20
0.802653
11
1.08728
21
0.8063
0
LINE
8
BLACK
6
CONTINUOUS
10
1.08728
20
0.8063
11
1.08494
21
0.810896
0
LINE
8
BLACK
6
CONTINUOUS
10
1.08494
20
0.810896
11
1.08413
21
0.81599
0
LINE
8
BLACK
6
CONTINUOUS
10
1.08413
20
0.81599
11
1.08413
21
0.84601
0
LINE
8
BLACK
6
CONTINUOUS
10
1.08413
20
0.84601
11
1.08494
21
0.851104
0
LINE
8
BLACK
6
CONTINUOUS
10
1.08494
20
0.851104
11
1.08728
21
0.8557
0
LINE
8
BLACK
6
CONTINUOUS
10
1.08728
20
0.8557
11
1.09093
21
0.859347
0
LINE
8
BLACK
6
CONTINUOUS
10
1.09093
20
0.859347
11
1.09553
21
0.861689
0
LINE
8
BLACK
6
CONTINUOUS
10
1.09553
20
0.861689
11
1.10062
21
0.862496
0
LINE
8
BLACK
6
CONTINUOUS
10
1.10062
20
0.862496
11
1.11784
21
0.862496
0
LINE
8
BLACK
6
CONTINUOUS
10
1.11784
20
0.862496
11
1.12294
21
0.861689
0
LINE
8
BLACK
6
CONTINUOUS
10
1.03928
20
0.861689
11
1.04387
21
0.859347
0
LINE
8
BLACK
6
CONTINUOUS
10
1.04387
20
0.859347
11
1.04752
21
0.8557
0
LINE
8
BLACK
6
CONTINUOUS
10
1.04752
20
0.8557
11
1.04986
21
0.851104
0
LINE
8
BLACK
6
CONTINUOUS
10
1.04986
20
0.851104
11
1.05067
21
0.84601
0
LINE
8
BLACK
6
CONTINUOUS
10
1.05067
20
0.84601
11
1.05067
21
0.81599
0
LINE
8
BLACK
6
CONTINUOUS
10
1.05067
20
0.81599
11
1.04986
21
0.810896
0
LINE
8
BLACK
6
CONTINUOUS
10
1.04986
20
0.810896
11
1.04752
21
0.8063
0
LINE
8
BLACK
6
CONTINUOUS
10
1.04752
20
0.8063
11
1.04387
21
0.802653
0
LINE
8
BLACK
6
CONTINUOUS
10
1.04387
20
0.802653
11
1.03928
21
0.800311
0
LINE
8
BLACK
6
CONTINUOUS
10
1.03928
20
0.800311
11
1.03418
21
0.799504
0
LINE
8
BLACK
6
CONTINUOUS
10
1.03418
20
0.799504
11
1.01696
21
0.799504
0
LINE
8
BLACK
6
CONTINUOUS
10
1.01696
20
0.799504
11
1.01186
21
0.800311
0
LINE
8
BLACK
6
CONTINUOUS
10
1.01186
20
0.800311
11
1.00727
21
0.802653
0
LINE
8
BLACK
6
CONTINUOUS
10
1.00727
20
0.802653
11
1.00362
21
0.8063
0
LINE
8
BLACK
6
CONTINUOUS
10
1.00362
20
0.8063
11
1.00128
21
0.810896
0
LINE
8
BLACK
6
CONTINUOUS
10
1.00128
20
0.810896
11
1.00047
21
0.81599
0
LINE
8
BLACK
6
CONTINUOUS
10
1.00047
20
0.81599
11
1.00047
21
0.84601
0
LINE
8
BLACK
6
CONTINUOUS
10
1.00047
20
0.84601
11
1.00128
21
0.851104
0
LINE
8
BLACK
6
CONTINUOUS
10
1.00128
20
0.851104
11
1.00362
21
0.8557
0
LINE
8
BLACK
6
CONTINUOUS
10
1.00362
20
0.8557
11
1.00727
21
0.859347
0
LINE
8
BLACK
6
CONTINUOUS
10
1.00727
20
0.859347
11
1.01186
21
0.861689
0
LINE
8
BLACK
6
CONTINUOUS
10
1.01186
20
0.861689
11
1.01696
21
0.862496
0
LINE
8
BLACK
6
CONTINUOUS
10
1.01696
20
0.862496
11
1.03418
21
0.862496
0
LINE
8
BLACK
6
CONTINUOUS
10
1.03418
20
0.862496
11
1.03928
21
0.861689
0
LINE
8
BLACK
6
CONTINUOUS
10
0.336287
20
0.925364
11
0.34293
21
0.923739
0
LINE
8
BLACK
6
CONTINUOUS
10
0.34293
20
0.923739
11
0.349021
21
0.920629
0
LINE
8
BLACK
6
CONTINUOUS
10
0.349021
20
0.920629
11
0.354233
21
0.916201
0
LINE
8
BLACK
6
CONTINUOUS
10
0.354233
20
0.916201
11
0.358286
21
0.910693
0
LINE
8
BLACK
6
CONTINUOUS
10
0.358286
20
0.910693
11
0.360964
21
0.9044
0
LINE
8
BLACK
6
CONTINUOUS
10
0.360964
20
0.9044
11
0.362122
21
0.89766
0
LINE
8
BLACK
6
CONTINUOUS
10
0.362122
20
0.89766
11
0.361699
21
0.890834
0
LINE
8
BLACK
6
CONTINUOUS
10
0.361699
20
0.890834
11
0.359716
21
0.884289
0
LINE
8
BLACK
6
CONTINUOUS
10
0.359716
20
0.884289
11
0.356281
21
0.878375
0
LINE
8
BLACK
6
CONTINUOUS
10
0.356281
20
0.878375
11
0.351578
21
0.87341
0
LINE
8
BLACK
6
CONTINUOUS
10
0.351578
20
0.87341
11
0.348073
21
0.871113
0
LINE
8
BLACK
6
CONTINUOUS
10
0.348073
20
0.871113
11
0.349021
21
0.870629
0
LINE
8
BLACK
6
CONTINUOUS
10
0.349021
20
0.870629
11
0.354233
21
0.866201
0
LINE
8
BLACK
6
CONTINUOUS
10
0.354233
20
0.866201
11
0.358286
21
0.860693
0
LINE
8
BLACK
6
CONTINUOUS
10
0.358286
20
0.860693
11
0.360964
21
0.8544
0
LINE
8
BLACK
6
CONTINUOUS
10
0.360964
20
0.8544
11
0.362122
21
0.84766
0
LINE
8
BLACK
6
CONTINUOUS
10
0.362122
20
0.84766
11
0.361699
21
0.840834
0
LINE
8
BLACK
6
CONTINUOUS
10
0.361699
20
0.840834
11
0.359716
21
0.834289
0
LINE
8
BLACK
6
CONTINUOUS
10
0.359716
20
0.834289
11
0.356281
21
0.828375
0
LINE
8
BLACK
6
CONTINUOUS
10
0.356281
20
0.828375
11
0.351578
21
0.82341
0
LINE
8
BLACK
6
CONTINUOUS
10
0.351578
20
0.82341
11
0.345859
21
0.819661
0
LINE
8
BLACK
6
CONTINUOUS
10
0.345859
20
0.819661
11
0.339431
21
0.817327
0
LINE
8
BLACK
6
CONTINUOUS
10
0.339431
20
0.817327
11
0.332638
21
0.816535
0
LINE
8
BLACK
6
CONTINUOUS
10
0.332638
20
0.816535
11
0.324764
21
0.816535
0
LINE
8
BLACK
6
CONTINUOUS
10
0.324764
20
0.816535
11
0.321114
21
0.816762
0
LINE
8
BLACK
6
CONTINUOUS
10
0.321114
20
0.816762
11
0.314471
21
0.818387
0
LINE
8
BLACK
6
CONTINUOUS
10
0.314471
20
0.818387
11
0.308381
21
0.821497
0
LINE
8
BLACK
6
CONTINUOUS
10
0.308381
20
0.821497
11
0.303169
21
0.825925
0
LINE
8
BLACK
6
CONTINUOUS
10
0.303169
20
0.825925
11
0.299115
21
0.831433
0
LINE
8
BLACK
6
CONTINUOUS
10
0.299115
20
0.831433
11
0.296438
21
0.837726
0
LINE
8
BLACK
6
CONTINUOUS
10
0.296438
20
0.837726
11
0.295279
21
0.844466
0
LINE
8
BLACK
6
CONTINUOUS
10
0.295279
20
0.844466
11
0.295703
21
0.851292
0
LINE
8
BLACK
6
CONTINUOUS
10
0.295703
20
0.851292
11
0.297685
21
0.857837
0
LINE
8
BLACK
6
CONTINUOUS
10
0.297685
20
0.857837
11
0.30112
21
0.863751
0
LINE
8
BLACK
6
CONTINUOUS
10
0.30112
20
0.863751
11
0.305823
21
0.868716
0
LINE
8
BLACK
6
CONTINUOUS
10
0.305823
20
0.868716
11
0.309328
21
0.871013
0
LINE
8
BLACK
6
CONTINUOUS
10
0.309328
20
0.871013
11
0.308381
21
0.871497
0
LINE
8
BLACK
6
CONTINUOUS
10
0.308381
20
0.871497
11
0.303169
21
0.875925
0
LINE
8
BLACK
6
CONTINUOUS
10
0.303169
20
0.875925
11
0.299115
21
0.881433
0
LINE
8
BLACK
6
CONTINUOUS
10
0.299115
20
0.881433
11
0.296438
21
0.887726
0
LINE
8
BLACK
6
CONTINUOUS
10
0.296438
20
0.887726
11
0.295279
21
0.894466
0
LINE
8
BLACK
6
CONTINUOUS
10
0.295279
20
0.894466
11
0.295703
21
0.901292
0
LINE
8
BLACK
6
CONTINUOUS
10
0.295703
20
0.901292
11
0.297685
21
0.907837
0
LINE
8
BLACK
6
CONTINUOUS
10
0.297685
20
0.907837
11
0.30112
21
0.913751
0
LINE
8
BLACK
6
CONTINUOUS
10
0.30112
20
0.913751
11
0.305823
21
0.918716
0
LINE
8
BLACK
6
CONTINUOUS
10
0.305823
20
0.918716
11
0.311543
21
0.922465
0
LINE
8
BLACK
6
CONTINUOUS
10
0.311543
20
0.922465
11
0.317971
21
0.924799
0
LINE
8
BLACK
6
CONTINUOUS
10
0.317971
20
0.924799
11
0.324764
21
0.925591
0
LINE
8
BLACK
6
CONTINUOUS
10
0.324764
20
0.925591
11
0.332638
21
0.925591
0
LINE
8
BLACK
6
CONTINUOUS
10
0.332638
20
0.925591
11
0.336287
21
0.925364
0
LINE
8
BLACK
6
CONTINUOUS
10
2.06759
20
0.925364
11
2.07423
21
0.923739
0
LINE
8
BLACK
6
CONTINUOUS
10
2.07423
20
0.923739
11
2.08032
21
0.920629
0
LINE
8
BLACK
6
CONTINUOUS
10
2.08032
20
0.920629
11
2.08553
21
0.916201
0
LINE
8
BLACK
6
CONTINUOUS
10
2.08553
20
0.916201
11
2.08959
21
0.910693
0
LINE
8
BLACK
6
CONTINUOUS
10
2.08959
20
0.910693
11
2.09226
21
0.9044
0
LINE
8
BLACK
6
CONTINUOUS
10
2.09226
20
0.9044
11
2.09342
21
0.89766
0
LINE
8
BLACK
6
CONTINUOUS
10
2.09342
20
0.89766
11
2.093
21
0.890834
0
LINE
8
BLACK
6
CONTINUOUS
10
2.093
20
0.890834
11
2.09102
21
0.884289
0
LINE
8
BLACK
6
CONTINUOUS
10
2.09102
20
0.884289
11
2.08758
21
0.878375
0
LINE
8
BLACK
6
CONTINUOUS
10
2.08758
20
0.878375
11
2.08288
21
0.87341
0
LINE
8
BLACK
6
CONTINUOUS
10
2.08288
20
0.87341
11
2.07937
21
0.871113
0
LINE
8
BLACK
6
CONTINUOUS
10
2.07937
20
0.871113
11
2.08032
21
0.870629
0
LINE
8
BLACK
6
CONTINUOUS
10
2.08032
20
0.870629
11
2.08553
21
0.866201
0
LINE
8
BLACK
6
CONTINUOUS
10
2.08553
20
0.866201
11
2.08959
21
0.860693
0
LINE
8
BLACK
6
CONTINUOUS
10
2.08959
20
0.860693
11
2.09226
21
0.8544
0
LINE
8
BLACK
6
CONTINUOUS
10
2.09226
20
0.8544
11
2.09342
21
0.84766
0
LINE
8
BLACK
6
CONTINUOUS
10
2.09342
20
0.84766
11
2.093
21
0.840834
0
LINE
8
BLACK
6
CONTINUOUS
10
2.093
20
0.840834
11
2.09102
21
0.834289
0
LINE
8
BLACK
6
CONTINUOUS
10
2.09102
20
0.834289
11
2.08758
21
0.828375
0
LINE
8
BLACK
6
CONTINUOUS
10
2.08758
20
0.828375
11
2.08288
21
0.82341
0
LINE
8
BLACK
6
CONTINUOUS
10
2.08288
20
0.82341
11
2.07716
21
0.819661
0
LINE
8
BLACK
6
CONTINUOUS
10
2.07716
20
0.819661
11
2.07073
21
0.817327
0
LINE
8
BLACK
6
CONTINUOUS
10
2.07073
20
0.817327
11
2.06394
21
0.816535
0
LINE
8
BLACK
6
CONTINUOUS
10
2.06394
20
0.816535
11
2.05606
21
0.816535
0
LINE
8
BLACK
6
CONTINUOUS
10
2.05606
20
0.816535
11
2.05241
21
0.816762
0
LINE
8
BLACK
6
CONTINUOUS
10
2.05241
20
0.816762
11
2.04577
21
0.818387
0
LINE
8
BLACK
6
CONTINUOUS
10
2.04577
20
0.818387
11
2.03968
21
0.821497
0
LINE
8
BLACK
6
CONTINUOUS
10
2.03968
20
0.821497
11
2.03447
21
0.825925
0
LINE
8
BLACK
6
CONTINUOUS
10
2.03447
20
0.825925
11
2.03041
21
0.831433
0
LINE
8
BLACK
6
CONTINUOUS
10
2.03041
20
0.831433
11
2.02774
21
0.837726
0
LINE
8
BLACK
6
CONTINUOUS
10
2.02774
20
0.837726
11
2.02658
21
0.844466
0
LINE
8
BLACK
6
CONTINUOUS
10
2.02658
20
0.844466
11
2.027
21
0.851292
0
LINE
8
BLACK
6
CONTINUOUS
10
2.027
20
0.851292
11
2.02898
21
0.857837
0
LINE
8
BLACK
6
CONTINUOUS
10
2.02898
20
0.857837
11
2.03242
21
0.863751
0
LINE
8
BLACK
6
CONTINUOUS
10
2.03242
20
0.863751
11
2.03712
21
0.868716
0
LINE
8
BLACK
6
CONTINUOUS
10
2.03712
20
0.868716
11
2.04063
21
0.871013
0
LINE
8
BLACK
6
CONTINUOUS
10
2.04063
20
0.871013
11
2.03968
21
0.871497
0
LINE
8
BLACK
6
CONTINUOUS
10
2.03968
20
0.871497
11
2.03447
21
0.875925
0
LINE
8
BLACK
6
CONTINUOUS
10
2.03447
20
0.875925
11
2.03041
21
0.881433
0
LINE
8
BLACK
6
CONTINUOUS
10
2.03041
20
0.881433
11
2.02774
21
0.887726
0
LINE
8
BLACK
6
CONTINUOUS
10
2.02774
20
0.887726
11
2.02658
21
0.894466
0
LINE
8
BLACK
6
CONTINUOUS
10
2.02658
20
0.894466
11
2.027
21
0.901292
0
LINE
8
BLACK
6
CONTINUOUS
10
2.027
20
0.901292
11
2.02898
21
0.907837
0
LINE
8
BLACK
6
CONTINUOUS
10
2.02898
20
0.907837
11
2.03242
21
0.913751
0
LINE
8
BLACK
6
CONTINUOUS
10
2.03242
20
0.913751
11
2.03712
21
0.918716
0
LINE
8
BLACK
6
CONTINUOUS
10
2.03712
20
0.918716
11
2.04284
21
0.922465
0
LINE
8
BLACK
6
CONTINUOUS
10
2.04284
20
0.922465
11
2.04927
21
0.924799
0
LINE
8
BLACK
6
CONTINUOUS
10
2.04927
20
0.924799
11
2.05606
21
0.925591
0
LINE
8
BLACK
6
CONTINUOUS
10
2.05606
20
0.925591
11
2.06394
21
0.925591
0
LINE
8
BLACK
6
CONTINUOUS
10
2.06394
20
0.925591
11
2.06759
21
0.925364
0
LINE
8
BLACK
6
CONTINUOUS
10
0.731985
20
0.929773
11
0.736955
21
0.928027
0
LINE
8
BLACK
6
CONTINUOUS
10
0.736955
20
0.928027
11
0.741193
21
0.924898
0
LINE
8
BLACK
6
CONTINUOUS
10
0.741193
20
0.924898
11
0.744323
21
0.92066
0
LINE
8
BLACK
6
CONTINUOUS
10
0.744323
20
0.92066
11
0.746068
21
0.91569
0
LINE
8
BLACK
6
CONTINUOUS
10
0.746068
20
0.91569
11
0.746382
21
0.91237
0
LINE
8
BLACK
6
CONTINUOUS
10
0.746382
20
0.91237
11
0.746382
21
0.874969
0
LINE
8
BLACK
6
CONTINUOUS
10
0.746382
20
0.874969
11
0.746068
21
0.871649
0
LINE
8
BLACK
6
CONTINUOUS
10
0.746068
20
0.871649
11
0.744323
21
0.866678
0
LINE
8
BLACK
6
CONTINUOUS
10
0.744323
20
0.866678
11
0.741193
21
0.862441
0
LINE
8
BLACK
6
CONTINUOUS
10
0.741193
20
0.862441
11
0.736955
21
0.859311
0
LINE
8
BLACK
6
CONTINUOUS
10
0.736955
20
0.859311
11
0.731985
21
0.857566
0
LINE
8
BLACK
6
CONTINUOUS
10
0.731985
20
0.857566
11
0.728665
21
0.857252
0
LINE
8
BLACK
6
CONTINUOUS
10
0.728665
20
0.857252
11
0.70898
21
0.857252
0
LINE
8
BLACK
6
CONTINUOUS
10
0.70898
20
0.857252
11
0.705661
21
0.857566
0
LINE
8
BLACK
6
CONTINUOUS
10
0.705661
20
0.857566
11
0.70069
21
0.859311
0
LINE
8
BLACK
6
CONTINUOUS
10
0.70069
20
0.859311
11
0.696453
21
0.862441
0
LINE
8
BLACK
6
CONTINUOUS
10
0.696453
20
0.862441
11
0.693323
21
0.866678
0
LINE
8
BLACK
6
CONTINUOUS
10
0.693323
20
0.866678
11
0.691578
21
0.871649
0
LINE
8
BLACK
6
CONTINUOUS
10
0.691578
20
0.871649
11
0.691264
21
0.874969
0
LINE
8
BLACK
6
CONTINUOUS
10
0.691264
20
0.874969
11
0.691264
21
0.91237
0
LINE
8
BLACK
6
CONTINUOUS
10
0.691264
20
0.91237
11
0.691578
21
0.91569
0
LINE
8
BLACK
6
CONTINUOUS
10
0.691578
20
0.91569
11
0.693323
21
0.92066
0
LINE
8
BLACK
6
CONTINUOUS
10
0.693323
20
0.92066
11
0.696453
21
0.924898
0
LINE
8
BLACK
6
CONTINUOUS
10
0.696453
20
0.924898
11
0.70069
21
0.928027
0
LINE
8
BLACK
6
CONTINUOUS
10
0.70069
20
0.928027
11
0.705661
21
0.929773
0
LINE
8
BLACK
6
CONTINUOUS
10
0.705661
20
0.929773
11
0.70898
21
0.930087
0
LINE
8
BLACK
6
CONTINUOUS
10
0.70898
20
0.930087
11
0.728665
21
0.930087
0
LINE
8
BLACK
6
CONTINUOUS
10
0.728665
20
0.930087
11
0.731985
21
0.929773
0
LINE
8
BLACK
6
CONTINUOUS
10
0.657182
20
0.929773
11
0.662152
21
0.928027
0
LINE
8
BLACK
6
CONTINUOUS
10
0.662152
20
0.928027
11
0.66639
21
0.924898
0
LINE
8
BLACK
6
CONTINUOUS
10
0.66639
20
0.924898
11
0.669519
21
0.92066
0
LINE
8
BLACK
6
CONTINUOUS
10
0.669519
20
0.92066
11
0.671265
21
0.91569
0
LINE
8
BLACK
6
CONTINUOUS
10
0.671265
20
0.91569
11
0.671579
21
0.91237
0
LINE
8
BLACK
6
CONTINUOUS
10
0.671579
20
0.91237
11
0.671579
21
0.874969
0
LINE
8
BLACK
6
CONTINUOUS
10
0.671579
20
0.874969
11
0.671265
21
0.871649
0
LINE
8
BLACK
6
CONTINUOUS
10
0.671265
20
0.871649
11
0.669519
21
0.866678
0
LINE
8
BLACK
6
CONTINUOUS
10
0.669519
20
0.866678
11
0.66639
21
0.862441
0
LINE
8
BLACK
6
CONTINUOUS
10
0.66639
20
0.862441
11
0.662152
21
0.859311
0
LINE
8
BLACK
6
CONTINUOUS
10
0.662152
20
0.859311
11
0.657182
21
0.857566
0
LINE
8
BLACK
6
CONTINUOUS
10
0.657182
20
0.857566
11
0.653862
21
0.857252
0
LINE
8
BLACK
6
CONTINUOUS
10
0.653862
20
0.857252
11
0.634177
21
0.857252
0
LINE
8
BLACK
6
CONTINUOUS
10
0.634177
20
0.857252
11
0.630857
21
0.857566
0
LINE
8
BLACK
6
CONTINUOUS
10
0.630857
20
0.857566
11
0.625887
21
0.859311
0
LINE
8
BLACK
6
CONTINUOUS
10
0.625887
20
0.859311
11
0.62165
21
0.862441
0
LINE
8
BLACK
6
CONTINUOUS
10
0.62165
20
0.862441
11
0.61852
21
0.866678
0
LINE
8
BLACK
6
CONTINUOUS
10
0.61852
20
0.866678
11
0.616774
21
0.871649
0
LINE
8
BLACK
6
CONTINUOUS
10
0.616774
20
0.871649
11
0.616461
21
0.874969
0
LINE
8
BLACK
6
CONTINUOUS
10
0.616461
20
0.874969
11
0.616461
21
0.91237
0
LINE
8
BLACK
6
CONTINUOUS
10
0.616461
20
0.91237
11
0.616774
21
0.91569
0
LINE
8
BLACK
6
CONTINUOUS
10
0.616774
20
0.91569
11
0.61852
21
0.92066
0
LINE
8
BLACK
6
CONTINUOUS
10
0.61852
20
0.92066
11
0.62165
21
0.924898
0
LINE
8
BLACK
6
CONTINUOUS
10
0.62165
20
0.924898
11
0.625887
21
0.928027
0
LINE
8
BLACK
6
CONTINUOUS
10
0.625887
20
0.928027
11
0.630857
21
0.929773
0
LINE
8
BLACK
6
CONTINUOUS
10
0.630857
20
0.929773
11
0.634177
21
0.930087
0
LINE
8
BLACK
6
CONTINUOUS
10
0.634177
20
0.930087
11
0.653862
21
0.930087
0
LINE
8
BLACK
6
CONTINUOUS
10
0.653862
20
0.930087
11
0.657182
21
0.929773
0
LINE
8
BLACK
6
CONTINUOUS
10
1.66397
20
0.931104
11
1.66894
21
0.929358
0
LINE
8
BLACK
6
CONTINUOUS
10
1.66894
20
0.929358
11
1.67317
21
0.926228
0
LINE
8
BLACK
6
CONTINUOUS
10
1.67317
20
0.926228
11
1.6763
21
0.921991
0
LINE
8
BLACK
6
CONTINUOUS
10
1.6763
20
0.921991
11
1.67805
21
0.917021
0
LINE
8
BLACK
6
CONTINUOUS
10
1.67805
20
0.917021
11
1.67836
21
0.913701
0
LINE
8
BLACK
6
CONTINUOUS
10
1.67836
20
0.913701
11
1.67836
21
0.876299
0
LINE
8
BLACK
6
CONTINUOUS
10
1.67836
20
0.876299
11
1.67805
21
0.872979
0
LINE
8
BLACK
6
CONTINUOUS
10
1.67805
20
0.872979
11
1.6763
21
0.868009
0
LINE
8
BLACK
6
CONTINUOUS
10
1.6763
20
0.868009
11
1.67317
21
0.863772
0
LINE
8
BLACK
6
CONTINUOUS
10
1.67317
20
0.863772
11
1.66894
21
0.860642
0
LINE
8
BLACK
6
CONTINUOUS
10
1.66894
20
0.860642
11
1.66397
21
0.858896
0
LINE
8
BLACK
6
CONTINUOUS
10
1.66397
20
0.858896
11
1.66065
21
0.858583
0
LINE
8
BLACK
6
CONTINUOUS
10
1.66065
20
0.858583
11
1.64096
21
0.858583
0
LINE
8
BLACK
6
CONTINUOUS
10
1.64096
20
0.858583
11
1.63764
21
0.858896
0
LINE
8
BLACK
6
CONTINUOUS
10
1.63764
20
0.858896
11
1.63267
21
0.860642
0
LINE
8
BLACK
6
CONTINUOUS
10
1.63267
20
0.860642
11
1.62843
21
0.863772
0
LINE
8
BLACK
6
CONTINUOUS
10
1.62843
20
0.863772
11
1.6253
21
0.868009
0
LINE
8
BLACK
6
CONTINUOUS
10
1.6253
20
0.868009
11
1.62356
21
0.872979
0
LINE
8
BLACK
6
CONTINUOUS
10
1.62356
20
0.872979
11
1.62324
21
0.876299
0
LINE
8
BLACK
6
CONTINUOUS
10
1.62324
20
0.876299
11
1.62324
21
0.913701
0
LINE
8
BLACK
6
CONTINUOUS
10
1.62324
20
0.913701
11
1.62356
21
0.917021
0
LINE
8
BLACK
6
CONTINUOUS
10
1.62356
20
0.917021
11
1.6253
21
0.921991
0
LINE
8
BLACK
6
CONTINUOUS
10
1.6253
20
0.921991
11
1.62843
21
0.926228
0
LINE
8
BLACK
6
CONTINUOUS
10
1.62843
20
0.926228
11
1.63267
21
0.929358
0
LINE
8
BLACK
6
CONTINUOUS
10
1.63267
20
0.929358
11
1.63764
21
0.931104
0
LINE
8
BLACK
6
CONTINUOUS
10
1.63764
20
0.931104
11
1.64096
21
0.931417
0
LINE
8
BLACK
6
CONTINUOUS
10
1.64096
20
0.931417
11
1.66065
21
0.931417
0
LINE
8
BLACK
6
CONTINUOUS
10
1.66065
20
0.931417
11
1.66397
21
0.931104
0
LINE
8
BLACK
6
CONTINUOUS
10
1.58916
20
0.931104
11
1.59413
21
0.929358
0
LINE
8
BLACK
6
CONTINUOUS
10
1.59413
20
0.929358
11
1.59837
21
0.926228
0
LINE
8
BLACK
6
CONTINUOUS
10
1.59837
20
0.926228
11
1.6015
21
0.921991
0
LINE
8
BLACK
6
CONTINUOUS
10
1.6015
20
0.921991
11
1.60325
21
0.917021
0
LINE
8
BLACK
6
CONTINUOUS
10
1.60325
20
0.917021
11
1.60356
21
0.913701
0
LINE
8
BLACK
6
CONTINUOUS
10
1.60356
20
0.913701
11
1.60356
21
0.876299
0
LINE
8
BLACK
6
CONTINUOUS
10
1.60356
20
0.876299
11
1.60325
21
0.872979
0
LINE
8
BLACK
6
CONTINUOUS
10
1.60325
20
0.872979
11
1.6015
21
0.868009
0
LINE
8
BLACK
6
CONTINUOUS
10
1.6015
20
0.868009
11
1.59837
21
0.863772
0
LINE
8
BLACK
6
CONTINUOUS
10
1.59837
20
0.863772
11
1.59413
21
0.860642
0
LINE
8
BLACK
6
CONTINUOUS
10
1.59413
20
0.860642
11
1.58916
21
0.858896
0
LINE
8
BLACK
6
CONTINUOUS
10
1.58916
20
0.858896
11
1.58584
21
0.858583
0
LINE
8
BLACK
6
CONTINUOUS
10
1.58584
20
0.858583
11
1.56616
21
0.858583
0
LINE
8
BLACK
6
CONTINUOUS
10
1.56616
20
0.858583
11
1.56284
21
0.858896
0
LINE
8
BLACK
6
CONTINUOUS
10
1.56284
20
0.858896
11
1.55787
21
0.860642
0
LINE
8
BLACK
6
CONTINUOUS
10
1.55787
20
0.860642
11
1.55363
21
0.863772
0
LINE
8
BLACK
6
CONTINUOUS
10
1.55363
20
0.863772
11
1.5505
21
0.868009
0
LINE
8
BLACK
6
CONTINUOUS
10
1.5505
20
0.868009
11
1.54875
21
0.872979
0
LINE
8
BLACK
6
CONTINUOUS
10
1.54875
20
0.872979
11
1.54844
21
0.876299
0
LINE
8
BLACK
6
CONTINUOUS
10
1.54844
20
0.876299
11
1.54844
21
0.913701
0
LINE
8
BLACK
6
CONTINUOUS
10
1.54844
20
0.913701
11
1.54875
21
0.917021
0
LINE
8
BLACK
6
CONTINUOUS
10
1.54875
20
0.917021
11
1.5505
21
0.921991
0
LINE
8
BLACK
6
CONTINUOUS
10
1.5505
20
0.921991
11
1.55363
21
0.926228
0
LINE
8
BLACK
6
CONTINUOUS
10
1.55363
20
0.926228
11
1.55787
21
0.929358
0
LINE
8
BLACK
6
CONTINUOUS
10
1.55787
20
0.929358
11
1.56284
21
0.931104
0
LINE
8
BLACK
6
CONTINUOUS
10
1.56284
20
0.931104
11
1.56616
21
0.931417
0
LINE
8
BLACK
6
CONTINUOUS
10
1.56616
20
0.931417
11
1.58584
21
0.931417
0
LINE
8
BLACK
6
CONTINUOUS
10
1.58584
20
0.931417
11
1.58916
21
0.931104
0
LINE
8
BLACK
6
CONTINUOUS
10
0.884789
20
0.928358
11
0.889385
21
0.926017
0
LINE
8
BLACK
6
CONTINUOUS
10
0.889385
20
0.926017
11
0.893033
21
0.922369
0
LINE
8
BLACK
6
CONTINUOUS
10
0.893033
20
0.922369
11
0.895374
21
0.917774
0
LINE
8
BLACK
6
CONTINUOUS
10
0.895374
20
0.917774
11
0.896181
21
0.912679
0
LINE
8
BLACK
6
CONTINUOUS
10
0.896181
20
0.912679
11
0.896181
21
0.882659
0
LINE
8
BLACK
6
CONTINUOUS
10
0.896181
20
0.882659
11
0.895374
21
0.877565
0
LINE
8
BLACK
6
CONTINUOUS
10
0.895374
20
0.877565
11
0.893033
21
0.872969
0
LINE
8
BLACK
6
CONTINUOUS
10
0.893033
20
0.872969
11
0.889385
21
0.869322
0
LINE
8
BLACK
6
CONTINUOUS
10
0.889385
20
0.869322
11
0.884789
21
0.86698
0
LINE
8
BLACK
6
CONTINUOUS
10
0.884789
20
0.86698
11
0.879695
21
0.866173
0
LINE
8
BLACK
6
CONTINUOUS
10
0.879695
20
0.866173
11
0.86247
21
0.866173
0
LINE
8
BLACK
6
CONTINUOUS
10
0.86247
20
0.866173
11
0.857376
21
0.86698
0
LINE
8
BLACK
6
CONTINUOUS
10
0.857376
20
0.86698
11
0.85278
21
0.869322
0
LINE
8
BLACK
6
CONTINUOUS
10
0.85278
20
0.869322
11
0.849133
21
0.872969
0
LINE
8
BLACK
6
CONTINUOUS
10
0.849133
20
0.872969
11
0.846791
21
0.877565
0
LINE
8
BLACK
6
CONTINUOUS
10
0.846791
20
0.877565
11
0.845984
21
0.882659
0
LINE
8
BLACK
6
CONTINUOUS
10
0.845984
20
0.882659
11
0.845984
21
0.912679
0
LINE
8
BLACK
6
CONTINUOUS
10
0.845984
20
0.912679
11
0.846791
21
0.917774
0
LINE
8
BLACK
6
CONTINUOUS
10
0.846791
20
0.917774
11
0.849133
21
0.922369
0
LINE
8
BLACK
6
CONTINUOUS
10
0.849133
20
0.922369
11
0.85278
21
0.926017
0
LINE
8
BLACK
6
CONTINUOUS
10
0.85278
20
0.926017
11
0.857376
21
0.928358
0
LINE
8
BLACK
6
CONTINUOUS
10
0.857376
20
0.928358
11
0.86247
21
0.929165
0
LINE
8
BLACK
6
CONTINUOUS
10
0.86247
20
0.929165
11
0.879695
21
0.929165
0
LINE
8
BLACK
6
CONTINUOUS
10
0.879695
20
0.929165
11
0.884789
21
0.928358
0
LINE
8
BLACK
6
CONTINUOUS
10
0.801128
20
0.928358
11
0.805724
21
0.926017
0
LINE
8
BLACK
6
CONTINUOUS
10
0.805724
20
0.926017
11
0.809371
21
0.922369
0
LINE
8
BLACK
6
CONTINUOUS
10
0.809371
20
0.922369
11
0.811713
21
0.917774
0
LINE
8
BLACK
6
CONTINUOUS
10
0.811713
20
0.917774
11
0.81252
21
0.912679
0
LINE
8
BLACK
6
CONTINUOUS
10
0.81252
20
0.912679
11
0.81252
21
0.882659
0
LINE
8
BLACK
6
CONTINUOUS
10
0.81252
20
0.882659
11
0.811713
21
0.877565
0
LINE
8
BLACK
6
CONTINUOUS
10
0.811713
20
0.877565
11
0.809371
21
0.872969
0
LINE
8
BLACK
6
CONTINUOUS
10
0.809371
20
0.872969
11
0.805724
21
0.869322
0
LINE
8
BLACK
6
CONTINUOUS
10
0.805724
20
0.869322
11
0.801128
21
0.86698
0
LINE
8
BLACK
6
CONTINUOUS
10
0.801128
20
0.86698
11
0.796033
21
0.866173
0
LINE
8
BLACK
6
CONTINUOUS
10
0.796033
20
0.866173
11
0.778809
21
0.866173
0
LINE
8
BLACK
6
CONTINUOUS
10
0.778809
20
0.866173
11
0.773715
21
0.86698
0
LINE
8
BLACK
6
CONTINUOUS
10
0.773715
20
0.86698
11
0.769119
21
0.869322
0
LINE
8
BLACK
6
CONTINUOUS
10
0.769119
20
0.869322
11
0.765471
21
0.872969
0
LINE
8
BLACK
6
CONTINUOUS
10
0.765471
20
0.872969
11
0.76313
21
0.877565
0
LINE
8
BLACK
6
CONTINUOUS
10
0.76313
20
0.877565
11
0.762323
21
0.882659
0
LINE
8
BLACK
6
CONTINUOUS
10
0.762323
20
0.882659
11
0.762323
21
0.912679
0
LINE
8
BLACK
6
CONTINUOUS
10
0.762323
20
0.912679
11
0.76313
21
0.917774
0
LINE
8
BLACK
6
CONTINUOUS
10
0.76313
20
0.917774
11
0.765471
21
0.922369
0
LINE
8
BLACK
6
CONTINUOUS
10
0.765471
20
0.922369
11
0.769119
21
0.926017
0
LINE
8
BLACK
6
CONTINUOUS
10
0.769119
20
0.926017
11
0.773715
21
0.928358
0
LINE
8
BLACK
6
CONTINUOUS
10
0.773715
20
0.928358
11
0.778809
21
0.929165
0
LINE
8
BLACK
6
CONTINUOUS
10
0.778809
20
0.929165
11
0.796033
21
0.929165
0
LINE
8
BLACK
6
CONTINUOUS
10
0.796033
20
0.929165
11
0.801128
21
0.928358
0
LINE
8
BLACK
6
CONTINUOUS
10
1.43928
20
0.929689
11
1.44387
21
0.927347
0
LINE
8
BLACK
6
CONTINUOUS
10
1.44387
20
0.927347
11
1.44752
21
0.9237
0
LINE
8
BLACK
6
CONTINUOUS
10
1.44752
20
0.9237
11
1.44986
21
0.919104
0
LINE
8
BLACK
6
CONTINUOUS
10
1.44986
20
0.919104
11
1.45067
21
0.91401
0
LINE
8
BLACK
6
CONTINUOUS
10
1.45067
20
0.91401
11
1.45067
21
0.88399
0
LINE
8
BLACK
6
CONTINUOUS
10
1.45067
20
0.88399
11
1.44986
21
0.878896
0
LINE
8
BLACK
6
CONTINUOUS
10
1.44986
20
0.878896
11
1.44752
21
0.8743
0
LINE
8
BLACK
6
CONTINUOUS
10
1.44752
20
0.8743
11
1.44387
21
0.870653
0
LINE
8
BLACK
6
CONTINUOUS
10
1.44387
20
0.870653
11
1.43928
21
0.868311
0
LINE
8
BLACK
6
CONTINUOUS
10
1.43928
20
0.868311
11
1.43418
21
0.867504
0
LINE
8
BLACK
6
CONTINUOUS
10
1.43418
20
0.867504
11
1.41696
21
0.867504
0
LINE
8
BLACK
6
CONTINUOUS
10
1.41696
20
0.867504
11
1.41186
21
0.868311
0
LINE
8
BLACK
6
CONTINUOUS
10
1.41186
20
0.868311
11
1.40727
21
0.870653
0
LINE
8
BLACK
6
CONTINUOUS
10
1.40727
20
0.870653
11
1.40362
21
0.8743
0
LINE
8
BLACK
6
CONTINUOUS
10
1.40362
20
0.8743
11
1.40128
21
0.878896
0
LINE
8
BLACK
6
CONTINUOUS
10
1.40128
20
0.878896
11
1.40047
21
0.88399
0
LINE
8
BLACK
6
CONTINUOUS
10
1.40047
20
0.88399
11
1.40047
21
0.91401
0
LINE
8
BLACK
6
CONTINUOUS
10
1.40047
20
0.91401
11
1.40128
21
0.919104
0
LINE
8
BLACK
6
CONTINUOUS
10
1.40128
20
0.919104
11
1.40362
21
0.9237
0
LINE
8
BLACK
6
CONTINUOUS
10
1.40362
20
0.9237
11
1.40727
21
0.927347
0
LINE
8
BLACK
6
CONTINUOUS
10
1.40727
20
0.927347
11
1.41186
21
0.929689
0
LINE
8
BLACK
6
CONTINUOUS
10
1.41186
20
0.929689
11
1.41696
21
0.930496
0
LINE
8
BLACK
6
CONTINUOUS
10
1.41696
20
0.930496
11
1.43418
21
0.930496
0
LINE
8
BLACK
6
CONTINUOUS
10
1.43418
20
0.930496
11
1.43928
21
0.929689
0
LINE
8
BLACK
6
CONTINUOUS
10
1.52294
20
0.929689
11
1.52753
21
0.927347
0
LINE
8
BLACK
6
CONTINUOUS
10
1.52753
20
0.927347
11
1.53118
21
0.9237
0
LINE
8
BLACK
6
CONTINUOUS
10
1.53118
20
0.9237
11
1.53352
21
0.919104
0
LINE
8
BLACK
6
CONTINUOUS
10
1.53352
20
0.919104
11
1.53433
21
0.91401
0
LINE
8
BLACK
6
CONTINUOUS
10
1.53433
20
0.91401
11
1.53433
21
0.88399
0
LINE
8
BLACK
6
CONTINUOUS
10
1.53433
20
0.88399
11
1.53352
21
0.878896
0
LINE
8
BLACK
6
CONTINUOUS
10
1.53352
20
0.878896
11
1.53118
21
0.8743
0
LINE
8
BLACK
6
CONTINUOUS
10
1.53118
20
0.8743
11
1.52753
21
0.870653
0
LINE
8
BLACK
6
CONTINUOUS
10
1.52753
20
0.870653
11
1.52294
21
0.868311
0
LINE
8
BLACK
6
CONTINUOUS
10
1.52294
20
0.868311
11
1.51784
21
0.867504
0
LINE
8
BLACK
6
CONTINUOUS
10
1.51784
20
0.867504
11
1.50062
21
0.867504
0
LINE
8
BLACK
6
CONTINUOUS
10
1.50062
20
0.867504
11
1.49553
21
0.868311
0
LINE
8
BLACK
6
CONTINUOUS
10
1.49553
20
0.868311
11
1.49093
21
0.870653
0
LINE
8
BLACK
6
CONTINUOUS
10
1.49093
20
0.870653
11
1.48728
21
0.8743
0
LINE
8
BLACK
6
CONTINUOUS
10
1.48728
20
0.8743
11
1.48494
21
0.878896
0
LINE
8
BLACK
6
CONTINUOUS
10
1.48494
20
0.878896
11
1.48413
21
0.88399
0
LINE
8
BLACK
6
CONTINUOUS
10
1.48413
20
0.88399
11
1.48413
21
0.91401
0
LINE
8
BLACK
6
CONTINUOUS
10
1.48413
20
0.91401
11
1.48494
21
0.919104
0
LINE
8
BLACK
6
CONTINUOUS
10
1.48494
20
0.919104
11
1.48728
21
0.9237
0
LINE
8
BLACK
6
CONTINUOUS
10
1.48728
20
0.9237
11
1.49093
21
0.927347
0
LINE
8
BLACK
6
CONTINUOUS
10
1.49093
20
0.927347
11
1.49553
21
0.929689
0
LINE
8
BLACK
6
CONTINUOUS
10
1.49553
20
0.929689
11
1.50062
21
0.930496
0
LINE
8
BLACK
6
CONTINUOUS
10
1.50062
20
0.930496
11
1.51784
21
0.930496
0
LINE
8
BLACK
6
CONTINUOUS
10
1.51784
20
0.930496
11
1.52294
21
0.929689
0
LINE
8
BLACK
6
CONTINUOUS
10
1.37551
20
0.921461
11
1.3801
21
0.919119
0
LINE
8
BLACK
6
CONTINUOUS
10
1.3801
20
0.919119
11
1.38375
21
0.915472
0
LINE
8
BLACK
6
CONTINUOUS
10
1.38375
20
0.915472
11
1.38609
21
0.910876
0
LINE
8
BLACK
6
CONTINUOUS
10
1.38609
20
0.910876
11
1.3869
21
0.905781
0
LINE
8
BLACK
6
CONTINUOUS
10
1.3869
20
0.905781
11
1.3869
21
0.888557
0
LINE
8
BLACK
6
CONTINUOUS
10
1.3869
20
0.888557
11
1.38609
21
0.883463
0
LINE
8
BLACK
6
CONTINUOUS
10
1.38609
20
0.883463
11
1.38375
21
0.878867
0
LINE
8
BLACK
6
CONTINUOUS
10
1.38375
20
0.878867
11
1.3801
21
0.875219
0
LINE
8
BLACK
6
CONTINUOUS
10
1.3801
20
0.875219
11
1.37551
21
0.872878
0
LINE
8
BLACK
6
CONTINUOUS
10
1.37551
20
0.872878
11
1.37041
21
0.872071
0
LINE
8
BLACK
6
CONTINUOUS
10
1.37041
20
0.872071
11
1.34039
21
0.872071
0
LINE
8
BLACK
6
CONTINUOUS
10
1.34039
20
0.872071
11
1.3353
21
0.872878
0
LINE
8
BLACK
6
CONTINUOUS
10
1.3353
20
0.872878
11
1.3307
21
0.875219
0
LINE
8
BLACK
6
CONTINUOUS
10
1.3307
20
0.875219
11
1.32705
21
0.878867
0
LINE
8
BLACK
6
CONTINUOUS
10
1.32705
20
0.878867
11
1.32471
21
0.883463
0
LINE
8
BLACK
6
CONTINUOUS
10
1.32471
20
0.883463
11
1.32391
21
0.888557
0
LINE
8
BLACK
6
CONTINUOUS
10
1.32391
20
0.888557
11
1.32391
21
0.905781
0
LINE
8
BLACK
6
CONTINUOUS
10
1.32391
20
0.905781
11
1.32471
21
0.910876
0
LINE
8
BLACK
6
CONTINUOUS
10
1.32471
20
0.910876
11
1.32705
21
0.915472
0
LINE
8
BLACK
6
CONTINUOUS
10
1.32705
20
0.915472
11
1.3307
21
0.919119
0
LINE
8
BLACK
6
CONTINUOUS
10
1.3307
20
0.919119
11
1.3353
21
0.921461
0
LINE
8
BLACK
6
CONTINUOUS
10
1.3353
20
0.921461
11
1.34039
21
0.922268
0
LINE
8
BLACK
6
CONTINUOUS
10
1.34039
20
0.922268
11
1.37041
21
0.922268
0
LINE
8
BLACK
6
CONTINUOUS
10
1.37041
20
0.922268
11
1.37551
21
0.921461
0
LINE
8
BLACK
6
CONTINUOUS
10
1.21151
20
0.922292
11
1.2161
21
0.91995
0
LINE
8
BLACK
6
CONTINUOUS
10
1.2161
20
0.91995
11
1.21975
21
0.916303
0
LINE
8
BLACK
6
CONTINUOUS
10
1.21975
20
0.916303
11
1.22209
21
0.911707
0
LINE
8
BLACK
6
CONTINUOUS
10
1.22209
20
0.911707
11
1.2229
21
0.906612
0
LINE
8
BLACK
6
CONTINUOUS
10
1.2229
20
0.906612
11
1.2229
21
0.889388
0
LINE
8
BLACK
6
CONTINUOUS
10
1.2229
20
0.889388
11
1.22209
21
0.884293
0
LINE
8
BLACK
6
CONTINUOUS
10
1.22209
20
0.884293
11
1.21975
21
0.879697
0
LINE
8
BLACK
6
CONTINUOUS
10
1.21975
20
0.879697
11
1.2161
21
0.87605
0
LINE
8
BLACK
6
CONTINUOUS
10
1.2161
20
0.87605
11
1.21151
21
0.873708
0
LINE
8
BLACK
6
CONTINUOUS
10
1.21151
20
0.873708
11
1.20641
21
0.872902
0
LINE
8
BLACK
6
CONTINUOUS
10
1.20641
20
0.872902
11
1.17639
21
0.872902
0
LINE
8
BLACK
6
CONTINUOUS
10
1.17639
20
0.872902
11
1.1713
21
0.873708
0
LINE
8
BLACK
6
CONTINUOUS
10
1.1713
20
0.873708
11
1.1667
21
0.87605
0
LINE
8
BLACK
6
CONTINUOUS
10
1.1667
20
0.87605
11
1.16305
21
0.879697
0
LINE
8
BLACK
6
CONTINUOUS
10
1.16305
20
0.879697
11
1.16071
21
0.884293
0
LINE
8
BLACK
6
CONTINUOUS
10
1.16071
20
0.884293
11
1.15991
21
0.889388
0
LINE
8
BLACK
6
CONTINUOUS
10
1.15991
20
0.889388
11
1.15991
21
0.906612
0
LINE
8
BLACK
6
CONTINUOUS
10
1.15991
20
0.906612
11
1.16071
21
0.911707
0
LINE
8
BLACK
6
CONTINUOUS
10
1.16071
20
0.911707
11
1.16305
21
0.916303
0
LINE
8
BLACK
6
CONTINUOUS
10
1.16305
20
0.916303
11
1.1667
21
0.91995
0
LINE
8
BLACK
6
CONTINUOUS
10
1.1667
20
0.91995
11
1.1713
21
0.922292
0
LINE
8
BLACK
6
CONTINUOUS
10
1.1713
20
0.922292
11
1.17639
21
0.923098
0
LINE
8
BLACK
6
CONTINUOUS
10
1.17639
20
0.923098
11
1.20641
21
0.923098
0
LINE
8
BLACK
6
CONTINUOUS
10
1.20641
20
0.923098
11
1.21151
21
0.922292
0
LINE
8
BLACK
6
CONTINUOUS
10
1.04651
20
0.922461
11
1.0511
21
0.920119
0
LINE
8
BLACK
6
CONTINUOUS
10
1.0511
20
0.920119
11
1.05475
21
0.916472
0
LINE
8
BLACK
6
CONTINUOUS
10
1.05475
20
0.916472
11
1.05709
21
0.911876
0
LINE
8
BLACK
6
CONTINUOUS
10
1.05709
20
0.911876
11
1.0579
21
0.906781
0
LINE
8
BLACK
6
CONTINUOUS
10
1.0579
20
0.906781
11
1.0579
21
0.889557
0
LINE
8
BLACK
6
CONTINUOUS
10
1.0579
20
0.889557
11
1.05709
21
0.884463
0
LINE
8
BLACK
6
CONTINUOUS
10
1.05709
20
0.884463
11
1.05475
21
0.879867
0
LINE
8
BLACK
6
CONTINUOUS
10
1.05475
20
0.879867
11
1.0511
21
0.876219
0
LINE
8
BLACK
6
CONTINUOUS
10
1.0511
20
0.876219
11
1.04651
21
0.873878
0
LINE
8
BLACK
6
CONTINUOUS
10
1.04651
20
0.873878
11
1.04141
21
0.873071
0
LINE
8
BLACK
6
CONTINUOUS
10
1.04141
20
0.873071
11
1.01139
21
0.873071
0
LINE
8
BLACK
6
CONTINUOUS
10
1.01139
20
0.873071
11
1.0063
21
0.873878
0
LINE
8
BLACK
6
CONTINUOUS
10
1.0063
20
0.873878
11
1.0017
21
0.876219
0
LINE
8
BLACK
6
CONTINUOUS
10
1.0017
20
0.876219
11
0.998054
21
0.879867
0
LINE
8
BLACK
6
CONTINUOUS
10
0.998054
20
0.879867
11
0.995712
21
0.884463
0
LINE
8
BLACK
6
CONTINUOUS
10
0.995712
20
0.884463
11
0.994906
21
0.889557
0
LINE
8
BLACK
6
CONTINUOUS
10
0.994906
20
0.889557
11
0.994906
21
0.906781
0
LINE
8
BLACK
6
CONTINUOUS
10
0.994906
20
0.906781
11
0.995712
21
0.911876
0
LINE
8
BLACK
6
CONTINUOUS
10
0.995712
20
0.911876
11
0.998054
21
0.916472
0
LINE
8
BLACK
6
CONTINUOUS
10
0.998054
20
0.916472
11
1.0017
21
0.920119
0
LINE
8
BLACK
6
CONTINUOUS
10
1.0017
20
0.920119
11
1.0063
21
0.922461
0
LINE
8
BLACK
6
CONTINUOUS
10
1.0063
20
0.922461
11
1.01139
21
0.923268
0
LINE
8
BLACK
6
CONTINUOUS
10
1.01139
20
0.923268
11
1.04141
21
0.923268
0
LINE
8
BLACK
6
CONTINUOUS
10
1.04141
20
0.923268
11
1.04651
21
0.922461
0
LINE
8
BLACK
6
CONTINUOUS
10
1.29742
20
0.928844
11
1.30239
21
0.927098
0
LINE
8
BLACK
6
CONTINUOUS
10
1.30239
20
0.927098
11
1.30663
21
0.923968
0
LINE
8
BLACK
6
CONTINUOUS
10
1.30663
20
0.923968
11
1.30976
21
0.919731
0
LINE
8
BLACK
6
CONTINUOUS
10
1.30976
20
0.919731
11
1.31151
21
0.914761
0
LINE
8
BLACK
6
CONTINUOUS
10
1.31151
20
0.914761
11
1.31182
21
0.911441
0
LINE
8
BLACK
6
CONTINUOUS
10
1.31182
20
0.911441
11
1.31182
21
0.891756
0
LINE
8
BLACK
6
CONTINUOUS
10
1.31182
20
0.891756
11
1.31151
21
0.888436
0
LINE
8
BLACK
6
CONTINUOUS
10
1.31151
20
0.888436
11
1.30976
21
0.883466
0
LINE
8
BLACK
6
CONTINUOUS
10
1.30976
20
0.883466
11
1.30663
21
0.879228
0
LINE
8
BLACK
6
CONTINUOUS
10
1.30663
20
0.879228
11
1.30239
21
0.876099
0
LINE
8
BLACK
6
CONTINUOUS
10
1.30239
20
0.876099
11
1.29742
21
0.874353
0
LINE
8
BLACK
6
CONTINUOUS
10
1.29742
20
0.874353
11
1.2941
21
0.874039
0
LINE
8
BLACK
6
CONTINUOUS
10
1.2941
20
0.874039
11
1.2567
21
0.874039
0
LINE
8
BLACK
6
CONTINUOUS
10
1.2567
20
0.874039
11
1.25338
21
0.874353
0
LINE
8
BLACK
6
CONTINUOUS
10
1.25338
20
0.874353
11
1.24841
21
0.876099
0
LINE
8
BLACK
6
CONTINUOUS
10
1.24841
20
0.876099
11
1.24417
21
0.879228
0
LINE
8
BLACK
6
CONTINUOUS
10
1.24417
20
0.879228
11
1.24104
21
0.883466
0
LINE
8
BLACK
6
CONTINUOUS
10
1.24104
20
0.883466
11
1.2393
21
0.888436
0
LINE
8
BLACK
6
CONTINUOUS
10
1.2393
20
0.888436
11
1.23898
21
0.891756
0
LINE
8
BLACK
6
CONTINUOUS
10
1.23898
20
0.891756
11
1.23898
21
0.911441
0
LINE
8
BLACK
6
CONTINUOUS
10
1.23898
20
0.911441
11
1.2393
21
0.914761
0
LINE
8
BLACK
6
CONTINUOUS
10
1.2393
20
0.914761
11
1.24104
21
0.919731
0
LINE
8
BLACK
6
CONTINUOUS
10
1.24104
20
0.919731
11
1.24417
21
0.923968
0
LINE
8
BLACK
6
CONTINUOUS
10
1.24417
20
0.923968
11
1.24841
21
0.927098
0
LINE
8
BLACK
6
CONTINUOUS
10
1.24841
20
0.927098
11
1.25338
21
0.928844
0
LINE
8
BLACK
6
CONTINUOUS
10
1.25338
20
0.928844
11
1.2567
21
0.929157
0
LINE
8
BLACK
6
CONTINUOUS
10
1.2567
20
0.929157
11
1.2941
21
0.929157
0
LINE
8
BLACK
6
CONTINUOUS
10
1.2941
20
0.929157
11
1.29742
21
0.928844
0
LINE
8
BLACK
6
CONTINUOUS
10
1.13342
20
0.929674
11
1.13839
21
0.927929
0
LINE
8
BLACK
6
CONTINUOUS
10
1.13839
20
0.927929
11
1.14263
21
0.924799
0
LINE
8
BLACK
6
CONTINUOUS
10
1.14263
20
0.924799
11
1.14576
21
0.920562
0
LINE
8
BLACK
6
CONTINUOUS
10
1.14576
20
0.920562
11
1.14751
21
0.915591
0
LINE
8
BLACK
6
CONTINUOUS
10
1.14751
20
0.915591
11
1.14782
21
0.912272
0
LINE
8
BLACK
6
CONTINUOUS
10
1.14782
20
0.912272
11
1.14782
21
0.892587
0
LINE
8
BLACK
6
CONTINUOUS
10
1.14782
20
0.892587
11
1.14751
21
0.889267
0
LINE
8
BLACK
6
CONTINUOUS
10
1.14751
20
0.889267
11
1.14576
21
0.884297
0
LINE
8
BLACK
6
CONTINUOUS
10
1.14576
20
0.884297
11
1.14263
21
0.880059
0
LINE
8
BLACK
6
CONTINUOUS
10
1.14263
20
0.880059
11
1.13839
21
0.876929
0
LINE
8
BLACK
6
CONTINUOUS
10
1.13839
20
0.876929
11
1.13342
21
0.875184
0
LINE
8
BLACK
6
CONTINUOUS
10
1.13342
20
0.875184
11
1.1301
21
0.87487
0
LINE
8
BLACK
6
CONTINUOUS
10
1.1301
20
0.87487
11
1.0927
21
0.87487
0
LINE
8
BLACK
6
CONTINUOUS
10
1.0927
20
0.87487
11
1.08938
21
0.875184
0
LINE
8
BLACK
6
CONTINUOUS
10
1.08938
20
0.875184
11
1.08441
21
0.876929
0
LINE
8
BLACK
6
CONTINUOUS
10
1.08441
20
0.876929
11
1.08017
21
0.880059
0
LINE
8
BLACK
6
CONTINUOUS
10
1.08017
20
0.880059
11
1.07704
21
0.884297
0
LINE
8
BLACK
6
CONTINUOUS
10
1.07704
20
0.884297
11
1.0753
21
0.889267
0
LINE
8
BLACK
6
CONTINUOUS
10
1.0753
20
0.889267
11
1.07498
21
0.892587
0
LINE
8
BLACK
6
CONTINUOUS
10
1.07498
20
0.892587
11
1.07498
21
0.912272
0
LINE
8
BLACK
6
CONTINUOUS
10
1.07498
20
0.912272
11
1.0753
21
0.915591
0
LINE
8
BLACK
6
CONTINUOUS
10
1.0753
20
0.915591
11
1.07704
21
0.920562
0
LINE
8
BLACK
6
CONTINUOUS
10
1.07704
20
0.920562
11
1.08017
21
0.924799
0
LINE
8
BLACK
6
CONTINUOUS
10
1.08017
20
0.924799
11
1.08441
21
0.927929
0
LINE
8
BLACK
6
CONTINUOUS
10
1.08441
20
0.927929
11
1.08938
21
0.929674
0
LINE
8
BLACK
6
CONTINUOUS
10
1.08938
20
0.929674
11
1.0927
21
0.929988
0
LINE
8
BLACK
6
CONTINUOUS
10
1.0927
20
0.929988
11
1.1301
21
0.929988
0
LINE
8
BLACK
6
CONTINUOUS
10
1.1301
20
0.929988
11
1.13342
21
0.929674
0
LINE
8
BLACK
6
CONTINUOUS
10
0.968422
20
0.929844
11
0.973392
21
0.928098
0
LINE
8
BLACK
6
CONTINUOUS
10
0.973392
20
0.928098
11
0.97763
21
0.924968
0
LINE
8
BLACK
6
CONTINUOUS
10
0.97763
20
0.924968
11
0.98076
21
0.920731
0
LINE
8
BLACK
6
CONTINUOUS
10
0.98076
20
0.920731
11
0.982505
21
0.915761
0
LINE
8
BLACK
6
CONTINUOUS
10
0.982505
20
0.915761
11
0.982819
21
0.912441
0
LINE
8
BLACK
6
CONTINUOUS
10
0.982819
20
0.912441
11
0.982819
21
0.892756
0
LINE
8
BLACK
6
CONTINUOUS
10
0.982819
20
0.892756
11
0.982505
21
0.889436
0
LINE
8
BLACK
6
CONTINUOUS
10
0.982505
20
0.889436
11
0.98076
21
0.884466
0
LINE
8
BLACK
6
CONTINUOUS
10
0.98076
20
0.884466
11
0.97763
21
0.880228
0
LINE
8
BLACK
6
CONTINUOUS
10
0.97763
20
0.880228
11
0.973392
21
0.877099
0
LINE
8
BLACK
6
CONTINUOUS
10
0.973392
20
0.877099
11
0.968422
21
0.875353
0
LINE
8
BLACK
6
CONTINUOUS
10
0.968422
20
0.875353
11
0.965102
21
0.875039
0
LINE
8
BLACK
6
CONTINUOUS
10
0.965102
20
0.875039
11
0.927701
21
0.875039
0
LINE
8
BLACK
6
CONTINUOUS
10
0.927701
20
0.875039
11
0.924381
21
0.875353
0
LINE
8
BLACK
6
CONTINUOUS
10
0.924381
20
0.875353
11
0.919411
21
0.877099
0
LINE
8
BLACK
6
CONTINUOUS
10
0.919411
20
0.877099
11
0.915173
21
0.880228
0
LINE
8
BLACK
6
CONTINUOUS
10
0.915173
20
0.880228
11
0.912044
21
0.884466
0
LINE
8
BLACK
6
CONTINUOUS
10
0.912044
20
0.884466
11
0.910298
21
0.889436
0
LINE
8
BLACK
6
CONTINUOUS
10
0.910298
20
0.889436
11
0.909984
21
0.892756
0
LINE
8
BLACK
6
CONTINUOUS
10
0.909984
20
0.892756
11
0.909984
21
0.912441
0
LINE
8
BLACK
6
CONTINUOUS
10
0.909984
20
0.912441
11
0.910298
21
0.915761
0
LINE
8
BLACK
6
CONTINUOUS
10
0.910298
20
0.915761
11
0.912044
21
0.920731
0
LINE
8
BLACK
6
CONTINUOUS
10
0.912044
20
0.920731
11
0.915173
21
0.924968
0
LINE
8
BLACK
6
CONTINUOUS
10
0.915173
20
0.924968
11
0.919411
21
0.928098
0
LINE
8
BLACK
6
CONTINUOUS
10
0.919411
20
0.928098
11
0.924381
21
0.929844
0
LINE
8
BLACK
6
CONTINUOUS
10
0.924381
20
0.929844
11
0.927701
21
0.930157
0
LINE
8
BLACK
6
CONTINUOUS
10
0.927701
20
0.930157
11
0.965102
21
0.930157
0
LINE
8
BLACK
6
CONTINUOUS
10
0.965102
20
0.930157
11
0.968422
21
0.929844
0
LINE
8
BLACK
6
CONTINUOUS
10
0.395343
20
0.975364
11
0.401985
21
0.973739
0
LINE
8
BLACK
6
CONTINUOUS
10
0.401985
20
0.973739
11
0.408076
21
0.970629
0
LINE
8
BLACK
6
CONTINUOUS
10
0.408076
20
0.970629
11
0.413288
21
0.966201
0
LINE
8
BLACK
6
CONTINUOUS
10
0.413288
20
0.966201
11
0.417341
21
0.960693
0
LINE
8
BLACK
6
CONTINUOUS
10
0.417341
20
0.960693
11
0.420019
21
0.9544
0
LINE
8
BLACK
6
CONTINUOUS
10
0.420019
20
0.9544
11
0.421177
21
0.94766
0
LINE
8
BLACK
6
CONTINUOUS
10
0.421177
20
0.94766
11
0.420754
21
0.940834
0
LINE
8
BLACK
6
CONTINUOUS
10
0.420754
20
0.940834
11
0.418771
21
0.934289
0
LINE
8
BLACK
6
CONTINUOUS
10
0.418771
20
0.934289
11
0.415337
21
0.928375
0
LINE
8
BLACK
6
CONTINUOUS
10
0.415337
20
0.928375
11
0.410633
21
0.92341
0
LINE
8
BLACK
6
CONTINUOUS
10
0.410633
20
0.92341
11
0.404914
21
0.919661
0
LINE
8
BLACK
6
CONTINUOUS
10
0.404914
20
0.919661
11
0.398486
21
0.917327
0
LINE
8
BLACK
6
CONTINUOUS
10
0.398486
20
0.917327
11
0.391693
21
0.916535
0
LINE
8
BLACK
6
CONTINUOUS
10
0.391693
20
0.916535
11
0.383819
21
0.916535
0
LINE
8
BLACK
6
CONTINUOUS
10
0.383819
20
0.916535
11
0.380169
21
0.916762
0
LINE
8
BLACK
6
CONTINUOUS
10
0.380169
20
0.916762
11
0.373526
21
0.918387
0
LINE
8
BLACK
6
CONTINUOUS
10
0.373526
20
0.918387
11
0.367436
21
0.921497
0
LINE
8
BLACK
6
CONTINUOUS
10
0.367436
20
0.921497
11
0.362224
21
0.925925
0
LINE
8
BLACK
6
CONTINUOUS
10
0.362224
20
0.925925
11
0.35817
21
0.931433
0
LINE
8
BLACK
6
CONTINUOUS
10
0.35817
20
0.931433
11
0.355493
21
0.937726
0
LINE
8
BLACK
6
CONTINUOUS
10
0.355493
20
0.937726
11
0.354335
21
0.944466
0
LINE
8
BLACK
6
CONTINUOUS
10
0.354335
20
0.944466
11
0.354758
21
0.951292
0
LINE
8
BLACK
6
CONTINUOUS
10
0.354758
20
0.951292
11
0.35674
21
0.957837
0
LINE
8
BLACK
6
CONTINUOUS
10
0.35674
20
0.957837
11
0.360175
21
0.963751
0
LINE
8
BLACK
6
CONTINUOUS
10
0.360175
20
0.963751
11
0.364878
21
0.968716
0
LINE
8
BLACK
6
CONTINUOUS
10
0.364878
20
0.968716
11
0.370598
21
0.972465
0
LINE
8
BLACK
6
CONTINUOUS
10
0.370598
20
0.972465
11
0.377026
21
0.974799
0
LINE
8
BLACK
6
CONTINUOUS
10
0.377026
20
0.974799
11
0.383819
21
0.975591
0
LINE
8
BLACK
6
CONTINUOUS
10
0.383819
20
0.975591
11
0.391693
21
0.975591
0
LINE
8
BLACK
6
CONTINUOUS
10
0.391693
20
0.975591
11
0.395343
21
0.975364
0
LINE
8
BLACK
6
CONTINUOUS
10
2.12664
20
0.975364
11
2.13328
21
0.973739
0
LINE
8
BLACK
6
CONTINUOUS
10
2.13328
20
0.973739
11
2.13938
21
0.970629
0
LINE
8
BLACK
6
CONTINUOUS
10
2.13938
20
0.970629
11
2.14459
21
0.966201
0
LINE
8
BLACK
6
CONTINUOUS
10
2.14459
20
0.966201
11
2.14864
21
0.960693
0
LINE
8
BLACK
6
CONTINUOUS
10
2.14864
20
0.960693
11
2.15132
21
0.9544
0
LINE
8
BLACK
6
CONTINUOUS
10
2.15132
20
0.9544
11
2.15248
21
0.94766
0
LINE
8
BLACK
6
CONTINUOUS
10
2.15248
20
0.94766
11
2.15205
21
0.940834
0
LINE
8
BLACK
6
CONTINUOUS
10
2.15205
20
0.940834
11
2.15007
21
0.934289
0
LINE
8
BLACK
6
CONTINUOUS
10
2.15007
20
0.934289
11
2.14664
21
0.928375
0
LINE
8
BLACK
6
CONTINUOUS
10
2.14664
20
0.928375
11
2.14193
21
0.92341
0
LINE
8
BLACK
6
CONTINUOUS
10
2.14193
20
0.92341
11
2.13621
21
0.919661
0
LINE
8
BLACK
6
CONTINUOUS
10
2.13621
20
0.919661
11
2.12978
21
0.917327
0
LINE
8
BLACK
6
CONTINUOUS
10
2.12978
20
0.917327
11
2.12299
21
0.916535
0
LINE
8
BLACK
6
CONTINUOUS
10
2.12299
20
0.916535
11
2.11512
21
0.916535
0
LINE
8
BLACK
6
CONTINUOUS
10
2.11512
20
0.916535
11
2.11147
21
0.916762
0
LINE
8
BLACK
6
CONTINUOUS
10
2.11147
20
0.916762
11
2.10483
21
0.918387
0
LINE
8
BLACK
6
CONTINUOUS
10
2.10483
20
0.918387
11
2.09873
21
0.921497
0
LINE
8
BLACK
6
CONTINUOUS
10
2.09873
20
0.921497
11
2.09352
21
0.925925
0
LINE
8
BLACK
6
CONTINUOUS
10
2.09352
20
0.925925
11
2.08947
21
0.931433
0
LINE
8
BLACK
6
CONTINUOUS
10
2.08947
20
0.931433
11
2.08679
21
0.937726
0
LINE
8
BLACK
6
CONTINUOUS
10
2.08679
20
0.937726
11
2.08563
21
0.944466
0
LINE
8
BLACK
6
CONTINUOUS
10
2.08563
20
0.944466
11
2.08606
21
0.951292
0
LINE
8
BLACK
6
CONTINUOUS
10
2.08606
20
0.951292
11
2.08804
21
0.957837
0
LINE
8
BLACK
6
CONTINUOUS
10
2.08804
20
0.957837
11
2.09147
21
0.963751
0
LINE
8
BLACK
6
CONTINUOUS
10
2.09147
20
0.963751
11
2.09618
21
0.968716
0
LINE
8
BLACK
6
CONTINUOUS
10
2.09618
20
0.968716
11
2.1019
21
0.972465
0
LINE
8
BLACK
6
CONTINUOUS
10
2.1019
20
0.972465
11
2.10833
21
0.974799
0
LINE
8
BLACK
6
CONTINUOUS
10
2.10833
20
0.974799
11
2.11512
21
0.975591
0
LINE
8
BLACK
6
CONTINUOUS
10
2.11512
20
0.975591
11
2.12299
21
0.975591
0
LINE
8
BLACK
6
CONTINUOUS
10
2.12299
20
0.975591
11
2.12664
21
0.975364
0
LINE
8
BLACK
6
CONTINUOUS
10
0.884789
20
1.00836
11
0.889385
21
1.00602
0
LINE
8
BLACK
6
CONTINUOUS
10
0.889385
20
1.00602
11
0.893033
21
1.00237
0
LINE
8
BLACK
6
CONTINUOUS
10
0.893033
20
1.00237
11
0.895374
21
0.997774
0
LINE
8
BLACK
6
CONTINUOUS
10
0.895374
20
0.997774
11
0.896181
21
0.992679
0
LINE
8
BLACK
6
CONTINUOUS
10
0.896181
20
0.992679
11
0.896181
21
0.962659
0
LINE
8
BLACK
6
CONTINUOUS
10
0.896181
20
0.962659
11
0.895374
21
0.957565
0
LINE
8
BLACK
6
CONTINUOUS
10
0.895374
20
0.957565
11
0.893033
21
0.952969
0
LINE
8
BLACK
6
CONTINUOUS
10
0.893033
20
0.952969
11
0.889385
21
0.949322
0
LINE
8
BLACK
6
CONTINUOUS
10
0.889385
20
0.949322
11
0.884789
21
0.94698
0
LINE
8
BLACK
6
CONTINUOUS
10
0.884789
20
0.94698
11
0.879695
21
0.946173
0
LINE
8
BLACK
6
CONTINUOUS
10
0.879695
20
0.946173
11
0.86247
21
0.946173
0
LINE
8
BLACK
6
CONTINUOUS
10
0.86247
20
0.946173
11
0.857376
21
0.94698
0
LINE
8
BLACK
6
CONTINUOUS
10
0.857376
20
0.94698
11
0.85278
21
0.949322
0
LINE
8
BLACK
6
CONTINUOUS
10
0.85278
20
0.949322
11
0.849133
21
0.952969
0
LINE
8
BLACK
6
CONTINUOUS
10
0.849133
20
0.952969
11
0.846791
21
0.957565
0
LINE
8
BLACK
6
CONTINUOUS
10
0.846791
20
0.957565
11
0.845984
21
0.962659
0
LINE
8
BLACK
6
CONTINUOUS
10
0.845984
20
0.962659
11
0.845984
21
0.992679
0
LINE
8
BLACK
6
CONTINUOUS
10
0.845984
20
0.992679
11
0.846791
21
0.997774
0
LINE
8
BLACK
6
CONTINUOUS
10
0.846791
20
0.997774
11
0.849133
21
1.00237
0
LINE
8
BLACK
6
CONTINUOUS
10
0.849133
20
1.00237
11
0.85278
21
1.00602
0
LINE
8
BLACK
6
CONTINUOUS
10
0.85278
20
1.00602
11
0.857376
21
1.00836
0
LINE
8
BLACK
6
CONTINUOUS
10
0.857376
20
1.00836
11
0.86247
21
1.00917
0
LINE
8
BLACK
6
CONTINUOUS
10
0.86247
20
1.00917
11
0.879695
21
1.00917
0
LINE
8
BLACK
6
CONTINUOUS
10
0.879695
20
1.00917
11
0.884789
21
1.00836
0
LINE
8
BLACK
6
CONTINUOUS
10
0.801128
20
1.00836
11
0.805724
21
1.00602
0
LINE
8
BLACK
6
CONTINUOUS
10
0.805724
20
1.00602
11
0.809371
21
1.00237
0
LINE
8
BLACK
6
CONTINUOUS
10
0.809371
20
1.00237
11
0.811713
21
0.997774
0
LINE
8
BLACK
6
CONTINUOUS
10
0.811713
20
0.997774
11
0.81252
21
0.992679
0
LINE
8
BLACK
6
CONTINUOUS
10
0.81252
20
0.992679
11
0.81252
21
0.962659
0
LINE
8
BLACK
6
CONTINUOUS
10
0.81252
20
0.962659
11
0.811713
21
0.957565
0
LINE
8
BLACK
6
CONTINUOUS
10
0.811713
20
0.957565
11
0.809371
21
0.952969
0
LINE
8
BLACK
6
CONTINUOUS
10
0.809371
20
0.952969
11
0.805724
21
0.949322
0
LINE
8
BLACK
6
CONTINUOUS
10
0.805724
20
0.949322
11
0.801128
21
0.94698
0
LINE
8
BLACK
6
CONTINUOUS
10
0.801128
20
0.94698
11
0.796033
21
0.946173
0
LINE
8
BLACK
6
CONTINUOUS
10
0.796033
20
0.946173
11
0.778809
21
0.946173
0
LINE
8
BLACK
6
CONTINUOUS
10
0.778809
20
0.946173
11
0.773715
21
0.94698
0
LINE
8
BLACK
6
CONTINUOUS
10
0.773715
20
0.94698
11
0.769119
21
0.949322
0
LINE
8
BLACK
6
CONTINUOUS
10
0.769119
20
0.949322
11
0.765471
21
0.952969
0
LINE
8
BLACK
6
CONTINUOUS
10
0.765471
20
0.952969
11
0.76313
21
0.957565
0
LINE
8
BLACK
6
CONTINUOUS
10
0.76313
20
0.957565
11
0.762323
21
0.962659
0
LINE
8
BLACK
6
CONTINUOUS
10
0.762323
20
0.962659
11
0.762323
21
0.992679
0
LINE
8
BLACK
6
CONTINUOUS
10
0.762323
20
0.992679
11
0.76313
21
0.997774
0
LINE
8
BLACK
6
CONTINUOUS
10
0.76313
20
0.997774
11
0.765471
21
1.00237
0
LINE
8
BLACK
6
CONTINUOUS
10
0.765471
20
1.00237
11
0.769119
21
1.00602
0
LINE
8
BLACK
6
CONTINUOUS
10
0.769119
20
1.00602
11
0.773715
21
1.00836
0
LINE
8
BLACK
6
CONTINUOUS
10
0.773715
20
1.00836
11
0.778809
21
1.00917
0
LINE
8
BLACK
6
CONTINUOUS
10
0.778809
20
1.00917
11
0.796033
21
1.00917
0
LINE
8
BLACK
6
CONTINUOUS
10
0.796033
20
1.00917
11
0.801128
21
1.00836
0
LINE
8
BLACK
6
CONTINUOUS
10
0.731985
20
1.01977
11
0.736955
21
1.01803
0
LINE
8
BLACK
6
CONTINUOUS
10
0.736955
20
1.01803
11
0.741193
21
1.0149
0
LINE
8
BLACK
6
CONTINUOUS
10
0.741193
20
1.0149
11
0.744323
21
1.01066
0
LINE
8
BLACK
6
CONTINUOUS
10
0.744323
20
1.01066
11
0.746068
21
1.00569
0
LINE
8
BLACK
6
CONTINUOUS
10
0.746068
20
1.00569
11
0.746382
21
1.00237
0
LINE
8
BLACK
6
CONTINUOUS
10
0.746382
20
1.00237
11
0.746382
21
0.964969
0
LINE
8
BLACK
6
CONTINUOUS
10
0.746382
20
0.964969
11
0.746068
21
0.961649
0
LINE
8
BLACK
6
CONTINUOUS
10
0.746068
20
0.961649
11
0.744323
21
0.956678
0
LINE
8
BLACK
6
CONTINUOUS
10
0.744323
20
0.956678
11
0.741193
21
0.952441
0
LINE
8
BLACK
6
CONTINUOUS
10
0.741193
20
0.952441
11
0.736955
21
0.949311
0
LINE
8
BLACK
6
CONTINUOUS
10
0.736955
20
0.949311
11
0.731985
21
0.947566
0
LINE
8
BLACK
6
CONTINUOUS
10
0.731985
20
0.947566
11
0.728665
21
0.947252
0
LINE
8
BLACK
6
CONTINUOUS
10
0.728665
20
0.947252
11
0.70898
21
0.947252
0
LINE
8
BLACK
6
CONTINUOUS
10
0.70898
20
0.947252
11
0.705661
21
0.947566
0
LINE
8
BLACK
6
CONTINUOUS
10
0.705661
20
0.947566
11
0.70069
21
0.949311
0
LINE
8
BLACK
6
CONTINUOUS
10
0.70069
20
0.949311
11
0.696453
21
0.952441
0
LINE
8
BLACK
6
CONTINUOUS
10
0.696453
20
0.952441
11
0.693323
21
0.956678
0
LINE
8
BLACK
6
CONTINUOUS
10
0.693323
20
0.956678
11
0.691578
21
0.961649
0
LINE
8
BLACK
6
CONTINUOUS
10
0.691578
20
0.961649
11
0.691264
21
0.964969
0
LINE
8
BLACK
6
CONTINUOUS
10
0.691264
20
0.964969
11
0.691264
21
1.00237
0
LINE
8
BLACK
6
CONTINUOUS
10
0.691264
20
1.00237
11
0.691578
21
1.00569
0
LINE
8
BLACK
6
CONTINUOUS
10
0.691578
20
1.00569
11
0.693323
21
1.01066
0
LINE
8
BLACK
6
CONTINUOUS
10
0.693323
20
1.01066
11
0.696453
21
1.0149
0
LINE
8
BLACK
6
CONTINUOUS
10
0.696453
20
1.0149
11
0.70069
21
1.01803
0
LINE
8
BLACK
6
CONTINUOUS
10
0.70069
20
1.01803
11
0.705661
21
1.01977
0
LINE
8
BLACK
6
CONTINUOUS
10
0.705661
20
1.01977
11
0.70898
21
1.02009
0
LINE
8
BLACK
6
CONTINUOUS
10
0.70898
20
1.02009
11
0.728665
21
1.02009
0
LINE
8
BLACK
6
CONTINUOUS
10
0.728665
20
1.02009
11
0.731985
21
1.01977
0
LINE
8
BLACK
6
CONTINUOUS
10
0.657182
20
1.01977
11
0.662152
21
1.01803
0
LINE
8
BLACK
6
CONTINUOUS
10
0.662152
20
1.01803
11
0.66639
21
1.0149
0
LINE
8
BLACK
6
CONTINUOUS
10
0.66639
20
1.0149
11
0.669519
21
1.01066
0
LINE
8
BLACK
6
CONTINUOUS
10
0.669519
20
1.01066
11
0.671265
21
1.00569
0
LINE
8
BLACK
6
CONTINUOUS
10
0.671265
20
1.00569
11
0.671579
21
1.00237
0
LINE
8
BLACK
6
CONTINUOUS
10
0.671579
20
1.00237
11
0.671579
21
0.964969
0
LINE
8
BLACK
6
CONTINUOUS
10
0.671579
20
0.964969
11
0.671265
21
0.961649
0
LINE
8
BLACK
6
CONTINUOUS
10
0.671265
20
0.961649
11
0.669519
21
0.956678
0
LINE
8
BLACK
6
CONTINUOUS
10
0.669519
20
0.956678
11
0.66639
21
0.952441
0
LINE
8
BLACK
6
CONTINUOUS
10
0.66639
20
0.952441
11
0.662152
21
0.949311
0
LINE
8
BLACK
6
CONTINUOUS
10
0.662152
20
0.949311
11
0.657182
21
0.947566
0
LINE
8
BLACK
6
CONTINUOUS
10
0.657182
20
0.947566
11
0.653862
21
0.947252
0
LINE
8
BLACK
6
CONTINUOUS
10
0.653862
20
0.947252
11
0.634177
21
0.947252
0
LINE
8
BLACK
6
CONTINUOUS
10
0.634177
20
0.947252
11
0.630857
21
0.947566
0
LINE
8
BLACK
6
CONTINUOUS
10
0.630857
20
0.947566
11
0.625887
21
0.949311
0
LINE
8
BLACK
6
CONTINUOUS
10
0.625887
20
0.949311
11
0.62165
21
0.952441
0
LINE
8
BLACK
6
CONTINUOUS
10
0.62165
20
0.952441
11
0.61852
21
0.956678
0
LINE
8
BLACK
6
CONTINUOUS
10
0.61852
20
0.956678
11
0.616774
21
0.961649
0
LINE
8
BLACK
6
CONTINUOUS
10
0.616774
20
0.961649
11
0.616461
21
0.964969
0
LINE
8
BLACK
6
CONTINUOUS
10
0.616461
20
0.964969
11
0.616461
21
1.00237
0
LINE
8
BLACK
6
CONTINUOUS
10
0.616461
20
1.00237
11
0.616774
21
1.00569
0
LINE
8
BLACK
6
CONTINUOUS
10
0.616774
20
1.00569
11
0.61852
21
1.01066
0
LINE
8
BLACK
6
CONTINUOUS
10
0.61852
20
1.01066
11
0.62165
21
1.0149
0
LINE
8
BLACK
6
CONTINUOUS
10
0.62165
20
1.0149
11
0.625887
21
1.01803
0
LINE
8
BLACK
6
CONTINUOUS
10
0.625887
20
1.01803
11
0.630857
21
1.01977
0
LINE
8
BLACK
6
CONTINUOUS
10
0.630857
20
1.01977
11
0.634177
21
1.02009
0
LINE
8
BLACK
6
CONTINUOUS
10
0.634177
20
1.02009
11
0.653862
21
1.02009
0
LINE
8
BLACK
6
CONTINUOUS
10
0.653862
20
1.02009
11
0.657182
21
1.01977
0
LINE
8
BLACK
6
CONTINUOUS
10
1.52294
20
1.00969
11
1.52753
21
1.00735
0
LINE
8
BLACK
6
CONTINUOUS
10
1.52753
20
1.00735
11
1.53118
21
1.0037
0
LINE
8
BLACK
6
CONTINUOUS
10
1.53118
20
1.0037
11
1.53352
21
0.999104
0
LINE
8
BLACK
6
CONTINUOUS
10
1.53352
20
0.999104
11
1.53433
21
0.99401
0
LINE
8
BLACK
6
CONTINUOUS
10
1.53433
20
0.99401
11
1.53433
21
0.96399
0
LINE
8
BLACK
6
CONTINUOUS
10
1.53433
20
0.96399
11
1.53352
21
0.958896
0
LINE
8
BLACK
6
CONTINUOUS
10
1.53352
20
0.958896
11
1.53118
21
0.9543
0
LINE
8
BLACK
6
CONTINUOUS
10
1.53118
20
0.9543
11
1.52753
21
0.950653
0
LINE
8
BLACK
6
CONTINUOUS
10
1.52753
20
0.950653
11
1.52294
21
0.948311
0
LINE
8
BLACK
6
CONTINUOUS
10
1.52294
20
0.948311
11
1.51784
21
0.947504
0
LINE
8
BLACK
6
CONTINUOUS
10
1.51784
20
0.947504
11
1.50062
21
0.947504
0
LINE
8
BLACK
6
CONTINUOUS
10
1.50062
20
0.947504
11
1.49553
21
0.948311
0
LINE
8
BLACK
6
CONTINUOUS
10
1.49553
20
0.948311
11
1.49093
21
0.950653
0
LINE
8
BLACK
6
CONTINUOUS
10
1.49093
20
0.950653
11
1.48728
21
0.9543
0
LINE
8
BLACK
6
CONTINUOUS
10
1.48728
20
0.9543
11
1.48494
21
0.958896
0
LINE
8
BLACK
6
CONTINUOUS
10
1.48494
20
0.958896
11
1.48413
21
0.96399
0
LINE
8
BLACK
6
CONTINUOUS
10
1.48413
20
0.96399
11
1.48413
21
0.99401
0
LINE
8
BLACK
6
CONTINUOUS
10
1.48413
20
0.99401
11
1.48494
21
0.999104
0
LINE
8
BLACK
6
CONTINUOUS
10
1.48494
20
0.999104
11
1.48728
21
1.0037
0
LINE
8
BLACK
6
CONTINUOUS
10
1.48728
20
1.0037
11
1.49093
21
1.00735
0
LINE
8
BLACK
6
CONTINUOUS
10
1.49093
20
1.00735
11
1.49553
21
1.00969
0
LINE
8
BLACK
6
CONTINUOUS
10
1.49553
20
1.00969
11
1.50062
21
1.0105
0
LINE
8
BLACK
6
CONTINUOUS
10
1.50062
20
1.0105
11
1.51784
21
1.0105
0
LINE
8
BLACK
6
CONTINUOUS
10
1.51784
20
1.0105
11
1.52294
21
1.00969
0
LINE
8
BLACK
6
CONTINUOUS
10
1.43928
20
1.00969
11
1.44387
21
1.00735
0
LINE
8
BLACK
6
CONTINUOUS
10
1.44387
20
1.00735
11
1.44752
21
1.0037
0
LINE
8
BLACK
6
CONTINUOUS
10
1.44752
20
1.0037
11
1.44986
21
0.999104
0
LINE
8
BLACK
6
CONTINUOUS
10
1.44986
20
0.999104
11
1.45067
21
0.99401
0
LINE
8
BLACK
6
CONTINUOUS
10
1.45067
20
0.99401
11
1.45067
21
0.96399
0
LINE
8
BLACK
6
CONTINUOUS
10
1.45067
20
0.96399
11
1.44986
21
0.958896
0
LINE
8
BLACK
6
CONTINUOUS
10
1.44986
20
0.958896
11
1.44752
21
0.9543
0
LINE
8
BLACK
6
CONTINUOUS
10
1.44752
20
0.9543
11
1.44387
21
0.950653
0
LINE
8
BLACK
6
CONTINUOUS
10
1.44387
20
0.950653
11
1.43928
21
0.948311
0
LINE
8
BLACK
6
CONTINUOUS
10
1.43928
20
0.948311
11
1.43418
21
0.947504
0
LINE
8
BLACK
6
CONTINUOUS
10
1.43418
20
0.947504
11
1.41696
21
0.947504
0
LINE
8
BLACK
6
CONTINUOUS
10
1.41696
20
0.947504
11
1.41186
21
0.948311
0
LINE
8
BLACK
6
CONTINUOUS
10
1.41186
20
0.948311
11
1.40727
21
0.950653
0
LINE
8
BLACK
6
CONTINUOUS
10
1.40727
20
0.950653
11
1.40362
21
0.9543
0
LINE
8
BLACK
6
CONTINUOUS
10
1.40362
20
0.9543
11
1.40128
21
0.958896
0
LINE
8
BLACK
6
CONTINUOUS
10
1.40128
20
0.958896
11
1.40047
21
0.96399
0
LINE
8
BLACK
6
CONTINUOUS
10
1.40047
20
0.96399
11
1.40047
21
0.99401
0
LINE
8
BLACK
6
CONTINUOUS
10
1.40047
20
0.99401
11
1.40128
21
0.999104
0
LINE
8
BLACK
6
CONTINUOUS
10
1.40128
20
0.999104
11
1.40362
21
1.0037
0
LINE
8
BLACK
6
CONTINUOUS
10
1.40362
20
1.0037
11
1.40727
21
1.00735
0
LINE
8
BLACK
6
CONTINUOUS
10
1.40727
20
1.00735
11
1.41186
21
1.00969
0
LINE
8
BLACK
6
CONTINUOUS
10
1.41186
20
1.00969
11
1.41696
21
1.0105
0
LINE
8
BLACK
6
CONTINUOUS
10
1.41696
20
1.0105
11
1.43418
21
1.0105
0
LINE
8
BLACK
6
CONTINUOUS
10
1.43418
20
1.0105
11
1.43928
21
1.00969
0
LINE
8
BLACK
6
CONTINUOUS
10
1.66397
20
1.0211
11
1.66894
21
1.01936
0
LINE
8
BLACK
6
CONTINUOUS
10
1.66894
20
1.01936
11
1.67317
21
1.01623
0
LINE
8
BLACK
6
CONTINUOUS
10
1.67317
20
1.01623
11
1.6763
21
1.01199
0
LINE
8
BLACK
6
CONTINUOUS
10
1.6763
20
1.01199
11
1.67805
21
1.00702
0
LINE
8
BLACK
6
CONTINUOUS
10
1.67805
20
1.00702
11
1.67836
21
1.0037
0
LINE
8
BLACK
6
CONTINUOUS
10
1.67836
20
1.0037
11
1.67836
21
0.966299
0
LINE
8
BLACK
6
CONTINUOUS
10
1.67836
20
0.966299
11
1.67805
21
0.962979
0
LINE
8
BLACK
6
CONTINUOUS
10
1.67805
20
0.962979
11
1.6763
21
0.958009
0
LINE
8
BLACK
6
CONTINUOUS
10
1.6763
20
0.958009
11
1.67317
21
0.953772
0
LINE
8
BLACK
6
CONTINUOUS
10
1.67317
20
0.953772
11
1.66894
21
0.950642
0
LINE
8
BLACK
6
CONTINUOUS
10
1.66894
20
0.950642
11
1.66397
21
0.948896
0
LINE
8
BLACK
6
CONTINUOUS
10
1.66397
20
0.948896
11
1.66065
21
0.948583
0
LINE
8
BLACK
6
CONTINUOUS
10
1.66065
20
0.948583
11
1.64096
21
0.948583
0
LINE
8
BLACK
6
CONTINUOUS
10
1.64096
20
0.948583
11
1.63764
21
0.948896
0
LINE
8
BLACK
6
CONTINUOUS
10
1.63764
20
0.948896
11
1.63267
21
0.950642
0
LINE
8
BLACK
6
CONTINUOUS
10
1.63267
20
0.950642
11
1.62843
21
0.953772
0
LINE
8
BLACK
6
CONTINUOUS
10
1.62843
20
0.953772
11
1.6253
21
0.958009
0
LINE
8
BLACK
6
CONTINUOUS
10
1.6253
20
0.958009
11
1.62356
21
0.962979
0
LINE
8
BLACK
6
CONTINUOUS
10
1.62356
20
0.962979
11
1.62324
21
0.966299
0
LINE
8
BLACK
6
CONTINUOUS
10
1.62324
20
0.966299
11
1.62324
21
1.0037
0
LINE
8
BLACK
6
CONTINUOUS
10
1.62324
20
1.0037
11
1.62356
21
1.00702
0
LINE
8
BLACK
6
CONTINUOUS
10
1.62356
20
1.00702
11
1.6253
21
1.01199
0
LINE
8
BLACK
6
CONTINUOUS
10
1.6253
20
1.01199
11
1.62843
21
1.01623
0
LINE
8
BLACK
6
CONTINUOUS
10
1.62843
20
1.01623
11
1.63267
21
1.01936
0
LINE
8
BLACK
6
CONTINUOUS
10
1.63267
20
1.01936
11
1.63764
21
1.0211
0
LINE
8
BLACK
6
CONTINUOUS
10
1.63764
20
1.0211
11
1.64096
21
1.02142
0
LINE
8
BLACK
6
CONTINUOUS
10
1.64096
20
1.02142
11
1.66065
21
1.02142
0
LINE
8
BLACK
6
CONTINUOUS
10
1.66065
20
1.02142
11
1.66397
21
1.0211
0
LINE
8
BLACK
6
CONTINUOUS
10
1.58916
20
1.0211
11
1.59413
21
1.01936
0
LINE
8
BLACK
6
CONTINUOUS
10
1.59413
20
1.01936
11
1.59837
21
1.01623
0
LINE
8
BLACK
6
CONTINUOUS
10
1.59837
20
1.01623
11
1.6015
21
1.01199
0
LINE
8
BLACK
6
CONTINUOUS
10
1.6015
20
1.01199
11
1.60325
21
1.00702
0
LINE
8
BLACK
6
CONTINUOUS
10
1.60325
20
1.00702
11
1.60356
21
1.0037
0
LINE
8
BLACK
6
CONTINUOUS
10
1.60356
20
1.0037
11
1.60356
21
0.966299
0
LINE
8
BLACK
6
CONTINUOUS
10
1.60356
20
0.966299
11
1.60325
21
0.962979
0
LINE
8
BLACK
6
CONTINUOUS
10
1.60325
20
0.962979
11
1.6015
21
0.958009
0
LINE
8
BLACK
6
CONTINUOUS
10
1.6015
20
0.958009
11
1.59837
21
0.953772
0
LINE
8
BLACK
6
CONTINUOUS
10
1.59837
20
0.953772
11
1.59413
21
0.950642
0
LINE
8
BLACK
6
CONTINUOUS
10
1.59413
20
0.950642
11
1.58916
21
0.948896
0
LINE
8
BLACK
6
CONTINUOUS
10
1.58916
20
0.948896
11
1.58584
21
0.948583
0
LINE
8
BLACK
6
CONTINUOUS
10
1.58584
20
0.948583
11
1.56616
21
0.948583
0
LINE
8
BLACK
6
CONTINUOUS
10
1.56616
20
0.948583
11
1.56284
21
0.948896
0
LINE
8
BLACK
6
CONTINUOUS
10
1.56284
20
0.948896
11
1.55787
21
0.950642
0
LINE
8
BLACK
6
CONTINUOUS
10
1.55787
20
0.950642
11
1.55363
21
0.953772
0
LINE
8
BLACK
6
CONTINUOUS
10
1.55363
20
0.953772
11
1.5505
21
0.958009
0
LINE
8
BLACK
6
CONTINUOUS
10
1.5505
20
0.958009
11
1.54875
21
0.962979
0
LINE
8
BLACK
6
CONTINUOUS
10
1.54875
20
0.962979
11
1.54844
21
0.966299
0
LINE
8
BLACK
6
CONTINUOUS
10
1.54844
20
0.966299
11
1.54844
21
1.0037
0
LINE
8
BLACK
6
CONTINUOUS
10
1.54844
20
1.0037
11
1.54875
21
1.00702
0
LINE
8
BLACK
6
CONTINUOUS
10
1.54875
20
1.00702
11
1.5505
21
1.01199
0
LINE
8
BLACK
6
CONTINUOUS
10
1.5505
20
1.01199
11
1.55363
21
1.01623
0
LINE
8
BLACK
6
CONTINUOUS
10
1.55363
20
1.01623
11
1.55787
21
1.01936
0
LINE
8
BLACK
6
CONTINUOUS
10
1.55787
20
1.01936
11
1.56284
21
1.0211
0
LINE
8
BLACK
6
CONTINUOUS
10
1.56284
20
1.0211
11
1.56616
21
1.02142
0
LINE
8
BLACK
6
CONTINUOUS
10
1.56616
20
1.02142
11
1.58584
21
1.02142
0
LINE
8
BLACK
6
CONTINUOUS
10
1.58584
20
1.02142
11
1.58916
21
1.0211
0
LINE
8
BLACK
6
CONTINUOUS
10
1.29742
20
1.00365
11
1.30239
21
1.0019
0
LINE
8
BLACK
6
CONTINUOUS
10
1.30239
20
1.0019
11
1.30663
21
0.998772
0
LINE
8
BLACK
6
CONTINUOUS
10
1.30663
20
0.998772
11
1.30976
21
0.994534
0
LINE
8
BLACK
6
CONTINUOUS
10
1.30976
20
0.994534
11
1.31151
21
0.989564
0
LINE
8
BLACK
6
CONTINUOUS
10
1.31151
20
0.989564
11
1.31182
21
0.986244
0
LINE
8
BLACK
6
CONTINUOUS
10
1.31182
20
0.986244
11
1.31182
21
0.966559
0
LINE
8
BLACK
6
CONTINUOUS
10
1.31182
20
0.966559
11
1.31151
21
0.963239
0
LINE
8
BLACK
6
CONTINUOUS
10
1.31151
20
0.963239
11
1.30976
21
0.958269
0
LINE
8
BLACK
6
CONTINUOUS
10
1.30976
20
0.958269
11
1.30663
21
0.954032
0
LINE
8
BLACK
6
CONTINUOUS
10
1.30663
20
0.954032
11
1.30239
21
0.950902
0
LINE
8
BLACK
6
CONTINUOUS
10
1.30239
20
0.950902
11
1.29742
21
0.949156
0
LINE
8
BLACK
6
CONTINUOUS
10
1.29742
20
0.949156
11
1.2941
21
0.948843
0
LINE
8
BLACK
6
CONTINUOUS
10
1.2941
20
0.948843
11
1.2567
21
0.948843
0
LINE
8
BLACK
6
CONTINUOUS
10
1.2567
20
0.948843
11
1.25338
21
0.949156
0
LINE
8
BLACK
6
CONTINUOUS
10
1.25338
20
0.949156
11
1.24841
21
0.950902
0
LINE
8
BLACK
6
CONTINUOUS
10
1.24841
20
0.950902
11
1.24417
21
0.954032
0
LINE
8
BLACK
6
CONTINUOUS
10
1.24417
20
0.954032
11
1.24104
21
0.958269
0
LINE
8
BLACK
6
CONTINUOUS
10
1.24104
20
0.958269
11
1.2393
21
0.963239
0
LINE
8
BLACK
6
CONTINUOUS
10
1.2393
20
0.963239
11
1.23898
21
0.966559
0
LINE
8
BLACK
6
CONTINUOUS
10
1.23898
20
0.966559
11
1.23898
21
0.986244
0
LINE
8
BLACK
6
CONTINUOUS
10
1.23898
20
0.986244
11
1.2393
21
0.989564
0
LINE
8
BLACK
6
CONTINUOUS
10
1.2393
20
0.989564
11
1.24104
21
0.994534
0
LINE
8
BLACK
6
CONTINUOUS
10
1.24104
20
0.994534
11
1.24417
21
0.998772
0
LINE
8
BLACK
6
CONTINUOUS
10
1.24417
20
0.998772
11
1.24841
21
1.0019
0
LINE
8
BLACK
6
CONTINUOUS
10
1.24841
20
1.0019
11
1.25338
21
1.00365
0
LINE
8
BLACK
6
CONTINUOUS
10
1.25338
20
1.00365
11
1.2567
21
1.00396
0
LINE
8
BLACK
6
CONTINUOUS
10
1.2567
20
1.00396
11
1.2941
21
1.00396
0
LINE
8
BLACK
6
CONTINUOUS
10
1.2941
20
1.00396
11
1.29742
21
1.00365
0
LINE
8
BLACK
6
CONTINUOUS
10
1.13342
20
1.00448
11
1.13839
21
1.00273
0
LINE
8
BLACK
6
CONTINUOUS
10
1.13839
20
1.00273
11
1.14263
21
0.999602
0
LINE
8
BLACK
6
CONTINUOUS
10
1.14263
20
0.999602
11
1.14576
21
0.995365
0
LINE
8
BLACK
6
CONTINUOUS
10
1.14576
20
0.995365
11
1.14751
21
0.990395
0
LINE
8
BLACK
6
CONTINUOUS
10
1.14751
20
0.990395
11
1.14782
21
0.987075
0
LINE
8
BLACK
6
CONTINUOUS
10
1.14782
20
0.987075
11
1.14782
21
0.96739
0
LINE
8
BLACK
6
CONTINUOUS
10
1.14782
20
0.96739
11
1.14751
21
0.96407
0
LINE
8
BLACK
6
CONTINUOUS
10
1.14751
20
0.96407
11
1.14576
21
0.9591
0
LINE
8
BLACK
6
CONTINUOUS
10
1.14576
20
0.9591
11
1.14263
21
0.954862
0
LINE
8
BLACK
6
CONTINUOUS
10
1.14263
20
0.954862
11
1.13839
21
0.951732
0
LINE
8
BLACK
6
CONTINUOUS
10
1.13839
20
0.951732
11
1.13342
21
0.949987
0
LINE
8
BLACK
6
CONTINUOUS
10
1.13342
20
0.949987
11
1.1301
21
0.949673
0
LINE
8
BLACK
6
CONTINUOUS
10
1.1301
20
0.949673
11
1.0927
21
0.949673
0
LINE
8
BLACK
6
CONTINUOUS
10
1.0927
20
0.949673
11
1.08938
21
0.949987
0
LINE
8
BLACK
6
CONTINUOUS
10
1.08938
20
0.949987
11
1.08441
21
0.951732
0
LINE
8
BLACK
6
CONTINUOUS
10
1.08441
20
0.951732
11
1.08017
21
0.954862
0
LINE
8
BLACK
6
CONTINUOUS
10
1.08017
20
0.954862
11
1.07704
21
0.9591
0
LINE
8
BLACK
6
CONTINUOUS
10
1.07704
20
0.9591
11
1.0753
21
0.96407
0
LINE
8
BLACK
6
CONTINUOUS
10
1.0753
20
0.96407
11
1.07498
21
0.96739
0
LINE
8
BLACK
6
CONTINUOUS
10
1.07498
20
0.96739
11
1.07498
21
0.987075
0
LINE
8
BLACK
6
CONTINUOUS
10
1.07498
20
0.987075
11
1.0753
21
0.990395
0
LINE
8
BLACK
6
CONTINUOUS
10
1.0753
20
0.990395
11
1.07704
21
0.995365
0
LINE
8
BLACK
6
CONTINUOUS
10
1.07704
20
0.995365
11
1.08017
21
0.999602
0
LINE
8
BLACK
6
CONTINUOUS
10
1.08017
20
0.999602
11
1.08441
21
1.00273
0
LINE
8
BLACK
6
CONTINUOUS
10
1.08441
20
1.00273
11
1.08938
21
1.00448
0
LINE
8
BLACK
6
CONTINUOUS
10
1.08938
20
1.00448
11
1.0927
21
1.00479
0
LINE
8
BLACK
6
CONTINUOUS
10
1.0927
20
1.00479
11
1.1301
21
1.00479
0
LINE
8
BLACK
6
CONTINUOUS
10
1.1301
20
1.00479
11
1.13342
21
1.00448
0
LINE
8
BLACK
6
CONTINUOUS
10
0.968422
20
1.00465
11
0.973392
21
1.0029
0
LINE
8
BLACK
6
CONTINUOUS
10
0.973392
20
1.0029
11
0.97763
21
0.999772
0
LINE
8
BLACK
6
CONTINUOUS
10
0.97763
20
0.999772
11
0.98076
21
0.995534
0
LINE
8
BLACK
6
CONTINUOUS
10
0.98076
20
0.995534
11
0.982505
21
0.990564
0
LINE
8
BLACK
6
CONTINUOUS
10
0.982505
20
0.990564
11
0.982819
21
0.987244
0
LINE
8
BLACK
6
CONTINUOUS
10
0.982819
20
0.987244
11
0.982819
21
0.967559
0
LINE
8
BLACK
6
CONTINUOUS
10
0.982819
20
0.967559
11
0.982505
21
0.964239
0
LINE
8
BLACK
6
CONTINUOUS
10
0.982505
20
0.964239
11
0.98076
21
0.959269
0
LINE
8
BLACK
6
CONTINUOUS
10
0.98076
20
0.959269
11
0.97763
21
0.955032
0
LINE
8
BLACK
6
CONTINUOUS
10
0.97763
20
0.955032
11
0.973392
21
0.951902
0
LINE
8
BLACK
6
CONTINUOUS
10
0.973392
20
0.951902
11
0.968422
21
0.950156
0
LINE
8
BLACK
6
CONTINUOUS
10
0.968422
20
0.950156
11
0.965102
21
0.949843
0
LINE
8
BLACK
6
CONTINUOUS
10
0.965102
20
0.949843
11
0.927701
21
0.949843
0
LINE
8
BLACK
6
CONTINUOUS
10
0.927701
20
0.949843
11
0.924381
21
0.950156
0
LINE
8
BLACK
6
CONTINUOUS
10
0.924381
20
0.950156
11
0.919411
21
0.951902
0
LINE
8
BLACK
6
CONTINUOUS
10
0.919411
20
0.951902
11
0.915173
21
0.955032
0
LINE
8
BLACK
6
CONTINUOUS
10
0.915173
20
0.955032
11
0.912044
21
0.959269
0
LINE
8
BLACK
6
CONTINUOUS
10
0.912044
20
0.959269
11
0.910298
21
0.964239
0
LINE
8
BLACK
6
CONTINUOUS
10
0.910298
20
0.964239
11
0.909984
21
0.967559
0
LINE
8
BLACK
6
CONTINUOUS
10
0.909984
20
0.967559
11
0.909984
21
0.987244
0
LINE
8
BLACK
6
CONTINUOUS
10
0.909984
20
0.987244
11
0.910298
21
0.990564
0
LINE
8
BLACK
6
CONTINUOUS
10
0.910298
20
0.990564
11
0.912044
21
0.995534
0
LINE
8
BLACK
6
CONTINUOUS
10
0.912044
20
0.995534
11
0.915173
21
0.999772
0
LINE
8
BLACK
6
CONTINUOUS
10
0.915173
20
0.999772
11
0.919411
21
1.0029
0
LINE
8
BLACK
6
CONTINUOUS
10
0.919411
20
1.0029
11
0.924381
21
1.00465
0
LINE
8
BLACK
6
CONTINUOUS
10
0.924381
20
1.00465
11
0.927701
21
1.00496
0
LINE
8
BLACK
6
CONTINUOUS
10
0.927701
20
1.00496
11
0.965102
21
1.00496
0
LINE
8
BLACK
6
CONTINUOUS
10
0.965102
20
1.00496
11
0.968422
21
1.00465
0
LINE
8
BLACK
6
CONTINUOUS
10
1.37551
20
1.00512
11
1.3801
21
1.00278
0
LINE
8
BLACK
6
CONTINUOUS
10
1.3801
20
1.00278
11
1.38375
21
0.999133
0
LINE
8
BLACK
6
CONTINUOUS
10
1.38375
20
0.999133
11
1.38609
21
0.994537
0
LINE
8
BLACK
6
CONTINUOUS
10
1.38609
20
0.994537
11
1.3869
21
0.989443
0
LINE
8
BLACK
6
CONTINUOUS
10
1.3869
20
0.989443
11
1.3869
21
0.972219
0
LINE
8
BLACK
6
CONTINUOUS
10
1.3869
20
0.972219
11
1.38609
21
0.967124
0
LINE
8
BLACK
6
CONTINUOUS
10
1.38609
20
0.967124
11
1.38375
21
0.962528
0
LINE
8
BLACK
6
CONTINUOUS
10
1.38375
20
0.962528
11
1.3801
21
0.958881
0
LINE
8
BLACK
6
CONTINUOUS
10
1.3801
20
0.958881
11
1.37551
21
0.956539
0
LINE
8
BLACK
6
CONTINUOUS
10
1.37551
20
0.956539
11
1.37041
21
0.955732
0
LINE
8
BLACK
6
CONTINUOUS
10
1.37041
20
0.955732
11
1.34039
21
0.955732
0
LINE
8
BLACK
6
CONTINUOUS
10
1.34039
20
0.955732
11
1.3353
21
0.956539
0
LINE
8
BLACK
6
CONTINUOUS
10
1.3353
20
0.956539
11
1.3307
21
0.958881
0
LINE
8
BLACK
6
CONTINUOUS
10
1.3307
20
0.958881
11
1.32705
21
0.962528
0
LINE
8
BLACK
6
CONTINUOUS
10
1.32705
20
0.962528
11
1.32471
21
0.967124
0
LINE
8
BLACK
6
CONTINUOUS
10
1.32471
20
0.967124
11
1.32391
21
0.972219
0
LINE
8
BLACK
6
CONTINUOUS
10
1.32391
20
0.972219
11
1.32391
21
0.989443
0
LINE
8
BLACK
6
CONTINUOUS
10
1.32391
20
0.989443
11
1.32471
21
0.994537
0
LINE
8
BLACK
6
CONTINUOUS
10
1.32471
20
0.994537
11
1.32705
21
0.999133
0
LINE
8
BLACK
6
CONTINUOUS
10
1.32705
20
0.999133
11
1.3307
21
1.00278
0
LINE
8
BLACK
6
CONTINUOUS
10
1.3307
20
1.00278
11
1.3353
21
1.00512
0
LINE
8
BLACK
6
CONTINUOUS
10
1.3353
20
1.00512
11
1.34039
21
1.00593
0
LINE
8
BLACK
6
CONTINUOUS
10
1.34039
20
1.00593
11
1.37041
21
1.00593
0
LINE
8
BLACK
6
CONTINUOUS
10
1.37041
20
1.00593
11
1.37551
21
1.00512
0
LINE
8
BLACK
6
CONTINUOUS
10
1.21151
20
1.00595
11
1.2161
21
1.00361
0
LINE
8
BLACK
6
CONTINUOUS
10
1.2161
20
1.00361
11
1.21975
21
0.999964
0
LINE
8
BLACK
6
CONTINUOUS
10
1.21975
20
0.999964
11
1.22209
21
0.995368
0
LINE
8
BLACK
6
CONTINUOUS
10
1.22209
20
0.995368
11
1.2229
21
0.990274
0
LINE
8
BLACK
6
CONTINUOUS
10
1.2229
20
0.990274
11
1.2229
21
0.973049
0
LINE
8
BLACK
6
CONTINUOUS
10
1.2229
20
0.973049
11
1.22209
21
0.967955
0
LINE
8
BLACK
6
CONTINUOUS
10
1.22209
20
0.967955
11
1.21975
21
0.963359
0
LINE
8
BLACK
6
CONTINUOUS
10
1.21975
20
0.963359
11
1.2161
21
0.959712
0
LINE
8
BLACK
6
CONTINUOUS
10
1.2161
20
0.959712
11
1.21151
21
0.95737
0
LINE
8
BLACK
6
CONTINUOUS
10
1.21151
20
0.95737
11
1.20641
21
0.956563
0
LINE
8
BLACK
6
CONTINUOUS
10
1.20641
20
0.956563
11
1.17639
21
0.956563
0
LINE
8
BLACK
6
CONTINUOUS
10
1.17639
20
0.956563
11
1.1713
21
0.95737
0
LINE
8
BLACK
6
CONTINUOUS
10
1.1713
20
0.95737
11
1.1667
21
0.959712
0
LINE
8
BLACK
6
CONTINUOUS
10
1.1667
20
0.959712
11
1.16305
21
0.963359
0
LINE
8
BLACK
6
CONTINUOUS
10
1.16305
20
0.963359
11
1.16071
21
0.967955
0
LINE
8
BLACK
6
CONTINUOUS
10
1.16071
20
0.967955
11
1.15991
21
0.973049
0
LINE
8
BLACK
6
CONTINUOUS
10
1.15991
20
0.973049
11
1.15991
21
0.990274
0
LINE
8
BLACK
6
CONTINUOUS
10
1.15991
20
0.990274
11
1.16071
21
0.995368
0
LINE
8
BLACK
6
CONTINUOUS
10
1.16071
20
0.995368
11
1.16305
21
0.999964
0
LINE
8
BLACK
6
CONTINUOUS
10
1.16305
20
0.999964
11
1.1667
21
1.00361
0
LINE
8
BLACK
6
CONTINUOUS
10
1.1667
20
1.00361
11
1.1713
21
1.00595
0
LINE
8
BLACK
6
CONTINUOUS
10
1.1713
20
1.00595
11
1.17639
21
1.00676
0
LINE
8
BLACK
6
CONTINUOUS
10
1.17639
20
1.00676
11
1.20641
21
1.00676
0
LINE
8
BLACK
6
CONTINUOUS
10
1.20641
20
1.00676
11
1.21151
21
1.00595
0
LINE
8
BLACK
6
CONTINUOUS
10
1.04651
20
1.00612
11
1.0511
21
1.00378
0
LINE
8
BLACK
6
CONTINUOUS
10
1.0511
20
1.00378
11
1.05475
21
1.00013
0
LINE
8
BLACK
6
CONTINUOUS
10
1.05475
20
1.00013
11
1.05709
21
0.995537
0
LINE
8
BLACK
6
CONTINUOUS
10
1.05709
20
0.995537
11
1.0579
21
0.990443
0
LINE
8
BLACK
6
CONTINUOUS
10
1.0579
20
0.990443
11
1.0579
21
0.973219
0
LINE
8
BLACK
6
CONTINUOUS
10
1.0579
20
0.973219
11
1.05709
21
0.968124
0
LINE
8
BLACK
6
CONTINUOUS
10
1.05709
20
0.968124
11
1.05475
21
0.963528
0
LINE
8
BLACK
6
CONTINUOUS
10
1.05475
20
0.963528
11
1.0511
21
0.959881
0
LINE
8
BLACK
6
CONTINUOUS
10
1.0511
20
0.959881
11
1.04651
21
0.957539
0
LINE
8
BLACK
6
CONTINUOUS
10
1.04651
20
0.957539
11
1.04141
21
0.956732
0
LINE
8
BLACK
6
CONTINUOUS
10
1.04141
20
0.956732
11
1.01139
21
0.956732
0
LINE
8
BLACK
6
CONTINUOUS
10
1.01139
20
0.956732
11
1.0063
21
0.957539
0
LINE
8
BLACK
6
CONTINUOUS
10
1.0063
20
0.957539
11
1.0017
21
0.959881
0
LINE
8
BLACK
6
CONTINUOUS
10
1.0017
20
0.959881
11
0.998054
21
0.963528
0
LINE
8
BLACK
6
CONTINUOUS
10
0.998054
20
0.963528
11
0.995712
21
0.968124
0
LINE
8
BLACK
6
CONTINUOUS
10
0.995712
20
0.968124
11
0.994906
21
0.973219
0
LINE
8
BLACK
6
CONTINUOUS
10
0.994906
20
0.973219
11
0.994906
21
0.990443
0
LINE
8
BLACK
6
CONTINUOUS
10
0.994906
20
0.990443
11
0.995712
21
0.995537
0
LINE
8
BLACK
6
CONTINUOUS
10
0.995712
20
0.995537
11
0.998054
21
1.00013
0
LINE
8
BLACK
6
CONTINUOUS
10
0.998054
20
1.00013
11
1.0017
21
1.00378
0
LINE
8
BLACK
6
CONTINUOUS
10
1.0017
20
1.00378
11
1.0063
21
1.00612
0
LINE
8
BLACK
6
CONTINUOUS
10
1.0063
20
1.00612
11
1.01139
21
1.00693
0
LINE
8
BLACK
6
CONTINUOUS
10
1.01139
20
1.00693
11
1.04141
21
1.00693
0
LINE
8
BLACK
6
CONTINUOUS
10
1.04141
20
1.00693
11
1.04651
21
1.00612
0
LINE
8
BLACK
6
CONTINUOUS
10
2.06537
20
1.09975
11
2.07458
21
1.09811
0
LINE
8
BLACK
6
CONTINUOUS
10
2.07458
20
1.09811
11
2.0834
21
1.09498
0
LINE
8
BLACK
6
CONTINUOUS
10
2.0834
20
1.09498
11
2.09159
21
1.09046
0
LINE
8
BLACK
6
CONTINUOUS
10
2.09159
20
1.09046
11
2.09893
21
1.08466
0
LINE
8
BLACK
6
CONTINUOUS
10
2.09893
20
1.08466
11
2.10523
21
1.07774
0
LINE
8
BLACK
6
CONTINUOUS
10
2.10523
20
1.07774
11
2.11031
21
1.06989
0
LINE
8
BLACK
6
CONTINUOUS
10
2.11031
20
1.06989
11
2.11404
21
1.06131
0
LINE
8
BLACK
6
CONTINUOUS
10
2.11404
20
1.06131
11
2.11632
21
1.05224
0
LINE
8
BLACK
6
CONTINUOUS
10
2.11632
20
1.05224
11
2.11709
21
1.04291
0
LINE
8
BLACK
6
CONTINUOUS
10
2.11709
20
1.04291
11
2.11702
21
1.04012
0
LINE
8
BLACK
6
CONTINUOUS
10
2.11702
20
1.04012
11
2.1158
21
1.03085
0
LINE
8
BLACK
6
CONTINUOUS
10
2.1158
20
1.03085
11
2.11308
21
1.0219
0
LINE
8
BLACK
6
CONTINUOUS
10
2.11308
20
1.0219
11
2.10893
21
1.01351
0
LINE
8
BLACK
6
CONTINUOUS
10
2.10893
20
1.01351
11
2.10347
21
1.00591
0
LINE
8
BLACK
6
CONTINUOUS
10
2.10347
20
1.00591
11
2.09685
21
0.999311
0
LINE
8
BLACK
6
CONTINUOUS
10
2.09685
20
0.999311
11
2.08923
21
0.993878
0
LINE
8
BLACK
6
CONTINUOUS
10
2.08923
20
0.993878
11
2.08083
21
0.989763
0
LINE
8
BLACK
6
CONTINUOUS
10
2.08083
20
0.989763
11
2.07187
21
0.987074
0
LINE
8
BLACK
6
CONTINUOUS
10
2.07187
20
0.987074
11
2.06259
21
0.985886
0
LINE
8
BLACK
6
CONTINUOUS
10
2.06259
20
0.985886
11
2.05324
21
0.986228
0
LINE
8
BLACK
6
CONTINUOUS
10
2.05324
20
0.986228
11
2.04407
21
0.988093
0
LINE
8
BLACK
6
CONTINUOUS
10
2.04407
20
0.988093
11
2.03533
21
0.991431
0
LINE
8
BLACK
6
CONTINUOUS
10
2.03533
20
0.991431
11
2.02726
21
0.996151
0
LINE
8
BLACK
6
CONTINUOUS
10
2.02726
20
0.996151
11
2.02006
21
1.00213
0
LINE
8
BLACK
6
CONTINUOUS
10
2.02006
20
1.00213
11
2.01393
21
1.0092
0
LINE
8
BLACK
6
CONTINUOUS
10
2.01393
20
1.0092
11
2.00905
21
1.01717
0
LINE
8
BLACK
6
CONTINUOUS
10
2.00905
20
1.01717
11
2.00553
21
1.02584
0
LINE
8
BLACK
6
CONTINUOUS
10
2.00553
20
1.02584
11
2.00347
21
1.03497
0
LINE
8
BLACK
6
CONTINUOUS
10
2.00347
20
1.03497
11
2.00293
21
1.04431
0
LINE
8
BLACK
6
CONTINUOUS
10
2.00293
20
1.04431
11
2.00392
21
1.05361
0
LINE
8
BLACK
6
CONTINUOUS
10
2.00392
20
1.05361
11
2.00642
21
1.06263
0
LINE
8
BLACK
6
CONTINUOUS
10
2.00642
20
1.06263
11
2.01036
21
1.07111
0
LINE
8
BLACK
6
CONTINUOUS
10
2.01036
20
1.07111
11
2.01564
21
1.07884
0
LINE
8
BLACK
6
CONTINUOUS
10
2.01564
20
1.07884
11
2.0221
21
1.0856
0
LINE
8
BLACK
6
CONTINUOUS
10
2.0221
20
1.0856
11
2.02958
21
1.09122
0
LINE
8
BLACK
6
CONTINUOUS
10
2.02958
20
1.09122
11
2.03788
21
1.09554
0
LINE
8
BLACK
6
CONTINUOUS
10
2.03788
20
1.09554
11
2.04677
21
1.09845
0
LINE
8
BLACK
6
CONTINUOUS
10
2.04677
20
1.09845
11
2.05602
21
1.09986
0
LINE
8
BLACK
6
CONTINUOUS
10
2.05602
20
1.09986
11
2.06537
21
1.09975
0
LINE
8
BLACK
6
CONTINUOUS
10
0.334073
20
1.09975
11
0.343283
21
1.09811
0
LINE
8
BLACK
6
CONTINUOUS
10
0.343283
20
1.09811
11
0.352102
21
1.09498
0
LINE
8
BLACK
6
CONTINUOUS
10
0.352102
20
1.09498
11
0.360292
21
1.09046
0
LINE
8
BLACK
6
CONTINUOUS
10
0.360292
20
1.09046
11
0.367634
21
1.08466
0
LINE
8
BLACK
6
CONTINUOUS
10
0.367634
20
1.08466
11
0.37393
21
1.07774
0
LINE
8
BLACK
6
CONTINUOUS
10
0.37393
20
1.07774
11
0.379011
21
1.06989
0
LINE
8
BLACK
6
CONTINUOUS
10
0.379011
20
1.06989
11
0.382742
21
1.06131
0
LINE
8
BLACK
6
CONTINUOUS
10
0.382742
20
1.06131
11
0.385021
21
1.05224
0
LINE
8
BLACK
6
CONTINUOUS
10
0.385021
20
1.05224
11
0.385787
21
1.04291
0
LINE
8
BLACK
6
CONTINUOUS
10
0.385787
20
1.04291
11
0.385719
21
1.04012
0
LINE
8
BLACK
6
CONTINUOUS
10
0.385719
20
1.04012
11
0.384498
21
1.03085
0
LINE
8
BLACK
6
CONTINUOUS
10
0.384498
20
1.03085
11
0.381779
21
1.0219
0
LINE
8
BLACK
6
CONTINUOUS
10
0.381779
20
1.0219
11
0.377634
21
1.01351
0
LINE
8
BLACK
6
CONTINUOUS
10
0.377634
20
1.01351
11
0.372174
21
1.00591
0
LINE
8
BLACK
6
CONTINUOUS
10
0.372174
20
1.00591
11
0.365548
21
0.999311
0
LINE
8
BLACK
6
CONTINUOUS
10
0.365548
20
0.999311
11
0.357932
21
0.993878
0
LINE
8
BLACK
6
CONTINUOUS
10
0.357932
20
0.993878
11
0.34953
21
0.989763
0
LINE
8
BLACK
6
CONTINUOUS
10
0.34953
20
0.989763
11
0.34057
21
0.987074
0
LINE
8
BLACK
6
CONTINUOUS
10
0.34057
20
0.987074
11
0.33129
21
0.985886
0
LINE
8
BLACK
6
CONTINUOUS
10
0.33129
20
0.985886
11
0.321941
21
0.986228
0
LINE
8
BLACK
6
CONTINUOUS
10
0.321941
20
0.986228
11
0.312774
21
0.988093
0
LINE
8
BLACK
6
CONTINUOUS
10
0.312774
20
0.988093
11
0.304034
21
0.991431
0
LINE
8
BLACK
6
CONTINUOUS
10
0.304034
20
0.991431
11
0.295957
21
0.996151
0
LINE
8
BLACK
6
CONTINUOUS
10
0.295957
20
0.996151
11
0.288759
21
1.00213
0
LINE
8
BLACK
6
CONTINUOUS
10
0.288759
20
1.00213
11
0.282634
21
1.0092
0
LINE
8
BLACK
6
CONTINUOUS
10
0.282634
20
1.0092
11
0.277746
21
1.01717
0
LINE
8
BLACK
6
CONTINUOUS
10
0.277746
20
1.01717
11
0.274226
21
1.02584
0
LINE
8
BLACK
6
CONTINUOUS
10
0.274226
20
1.02584
11
0.27217
21
1.03497
0
LINE
8
BLACK
6
CONTINUOUS
10
0.27217
20
1.03497
11
0.271631
21
1.04431
0
LINE
8
BLACK
6
CONTINUOUS
10
0.271631
20
1.04431
11
0.272625
21
1.05361
0
LINE
8
BLACK
6
CONTINUOUS
10
0.272625
20
1.05361
11
0.275125
21
1.06263
0
LINE
8
BLACK
6
CONTINUOUS
10
0.275125
20
1.06263
11
0.279064
21
1.07111
0
LINE
8
BLACK
6
CONTINUOUS
10
0.279064
20
1.07111
11
0.284336
21
1.07884
0
LINE
8
BLACK
6
CONTINUOUS
10
0.284336
20
1.07884
11
0.290799
21
1.0856
0
LINE
8
BLACK
6
CONTINUOUS
10
0.290799
20
1.0856
11
0.298281
21
1.09122
0
LINE
8
BLACK
6
CONTINUOUS
10
0.298281
20
1.09122
11
0.306579
21
1.09554
0
LINE
8
BLACK
6
CONTINUOUS
10
0.306579
20
1.09554
11
0.315471
21
1.09845
0
LINE
8
BLACK
6
CONTINUOUS
10
0.315471
20
1.09845
11
0.324719
21
1.09986
0
LINE
8
BLACK
6
CONTINUOUS
10
0.324719
20
1.09986
11
0.334073
21
1.09975
0
LINE
8
BLACK
6
CONTINUOUS
10
1.12394
20
1.08169
11
1.12853
21
1.07935
0
LINE
8
BLACK
6
CONTINUOUS
10
1.12853
20
1.07935
11
1.13218
21
1.0757
0
LINE
8
BLACK
6
CONTINUOUS
10
1.13218
20
1.0757
11
1.13452
21
1.0711
0
LINE
8
BLACK
6
CONTINUOUS
10
1.13452
20
1.0711
11
1.13533
21
1.06601
0
LINE
8
BLACK
6
CONTINUOUS
10
1.13533
20
1.06601
11
1.13533
21
1.03599
0
LINE
8
BLACK
6
CONTINUOUS
10
1.13533
20
1.03599
11
1.13452
21
1.0309
0
LINE
8
BLACK
6
CONTINUOUS
10
1.13452
20
1.0309
11
1.13218
21
1.0263
0
LINE
8
BLACK
6
CONTINUOUS
10
1.13218
20
1.0263
11
1.12853
21
1.02265
0
LINE
8
BLACK
6
CONTINUOUS
10
1.12853
20
1.02265
11
1.12394
21
1.02031
0
LINE
8
BLACK
6
CONTINUOUS
10
1.12394
20
1.02031
11
1.11884
21
1.0195
0
LINE
8
BLACK
6
CONTINUOUS
10
1.11884
20
1.0195
11
1.10162
21
1.0195
0
LINE
8
BLACK
6
CONTINUOUS
10
1.10162
20
1.0195
11
1.09653
21
1.02031
0
LINE
8
BLACK
6
CONTINUOUS
10
1.09653
20
1.02031
11
1.09193
21
1.02265
0
LINE
8
BLACK
6
CONTINUOUS
10
1.09193
20
1.02265
11
1.08828
21
1.0263
0
LINE
8
BLACK
6
CONTINUOUS
10
1.08828
20
1.0263
11
1.08594
21
1.0309
0
LINE
8
BLACK
6
CONTINUOUS
10
1.08594
20
1.0309
11
1.08513
21
1.03599
0
LINE
8
BLACK
6
CONTINUOUS
10
1.08513
20
1.03599
11
1.08513
21
1.06601
0
LINE
8
BLACK
6
CONTINUOUS
10
1.08513
20
1.06601
11
1.08594
21
1.0711
0
LINE
8
BLACK
6
CONTINUOUS
10
1.08594
20
1.0711
11
1.08828
21
1.0757
0
LINE
8
BLACK
6
CONTINUOUS
10
1.08828
20
1.0757
11
1.09193
21
1.07935
0
LINE
8
BLACK
6
CONTINUOUS
10
1.09193
20
1.07935
11
1.09653
21
1.08169
0
LINE
8
BLACK
6
CONTINUOUS
10
1.09653
20
1.08169
11
1.10162
21
1.0825
0
LINE
8
BLACK
6
CONTINUOUS
10
1.10162
20
1.0825
11
1.11884
21
1.0825
0
LINE
8
BLACK
6
CONTINUOUS
10
1.11884
20
1.0825
11
1.12394
21
1.08169
0
LINE
8
BLACK
6
CONTINUOUS
10
1.04028
20
1.08169
11
1.04487
21
1.07935
0
LINE
8
BLACK
6
CONTINUOUS
10
1.04487
20
1.07935
11
1.04852
21
1.0757
0
LINE
8
BLACK
6
CONTINUOUS
10
1.04852
20
1.0757
11
1.05086
21
1.0711
0
LINE
8
BLACK
6
CONTINUOUS
10
1.05086
20
1.0711
11
1.05167
21
1.06601
0
LINE
8
BLACK
6
CONTINUOUS
10
1.05167
20
1.06601
11
1.05167
21
1.03599
0
LINE
8
BLACK
6
CONTINUOUS
10
1.05167
20
1.03599
11
1.05086
21
1.0309
0
LINE
8
BLACK
6
CONTINUOUS
10
1.05086
20
1.0309
11
1.04852
21
1.0263
0
LINE
8
BLACK
6
CONTINUOUS
10
1.04852
20
1.0263
11
1.04487
21
1.02265
0
LINE
8
BLACK
6
CONTINUOUS
10
1.04487
20
1.02265
11
1.04028
21
1.02031
0
LINE
8
BLACK
6
CONTINUOUS
10
1.04028
20
1.02031
11
1.03518
21
1.0195
0
LINE
8
BLACK
6
CONTINUOUS
10
1.03518
20
1.0195
11
1.01796
21
1.0195
0
LINE
8
BLACK
6
CONTINUOUS
10
1.01796
20
1.0195
11
1.01286
21
1.02031
0
LINE
8
BLACK
6
CONTINUOUS
10
1.01286
20
1.02031
11
1.00827
21
1.02265
0
LINE
8
BLACK
6
CONTINUOUS
10
1.00827
20
1.02265
11
1.00462
21
1.0263
0
LINE
8
BLACK
6
CONTINUOUS
10
1.00462
20
1.0263
11
1.00228
21
1.0309
0
LINE
8
BLACK
6
CONTINUOUS
10
1.00228
20
1.0309
11
1.00147
21
1.03599
0
LINE
8
BLACK
6
CONTINUOUS
10
1.00147
20
1.03599
11
1.00147
21
1.06601
0
LINE
8
BLACK
6
CONTINUOUS
10
1.00147
20
1.06601
11
1.00228
21
1.0711
0
LINE
8
BLACK
6
CONTINUOUS
10
1.00228
20
1.0711
11
1.00462
21
1.0757
0
LINE
8
BLACK
6
CONTINUOUS
10
1.00462
20
1.0757
11
1.00827
21
1.07935
0
LINE
8
BLACK
6
CONTINUOUS
10
1.00827
20
1.07935
11
1.01286
21
1.08169
0
LINE
8
BLACK
6
CONTINUOUS
10
1.01286
20
1.08169
11
1.01796
21
1.0825
0
LINE
8
BLACK
6
CONTINUOUS
10
1.01796
20
1.0825
11
1.03518
21
1.0825
0
LINE
8
BLACK
6
CONTINUOUS
10
1.03518
20
1.0825
11
1.04028
21
1.08169
0
LINE
8
BLACK
6
CONTINUOUS
10
1.20528
20
1.08169
11
1.20987
21
1.07935
0
LINE
8
BLACK
6
CONTINUOUS
10
1.20987
20
1.07935
11
1.21352
21
1.0757
0
LINE
8
BLACK
6
CONTINUOUS
10
1.21352
20
1.0757
11
1.21586
21
1.0711
0
LINE
8
BLACK
6
CONTINUOUS
10
1.21586
20
1.0711
11
1.21667
21
1.06601
0
LINE
8
BLACK
6
CONTINUOUS
10
1.21667
20
1.06601
11
1.21667
21
1.03599
0
LINE
8
BLACK
6
CONTINUOUS
10
1.21667
20
1.03599
11
1.21586
21
1.0309
0
LINE
8
BLACK
6
CONTINUOUS
10
1.21586
20
1.0309
11
1.21352
21
1.0263
0
LINE
8
BLACK
6
CONTINUOUS
10
1.21352
20
1.0263
11
1.20987
21
1.02265
0
LINE
8
BLACK
6
CONTINUOUS
10
1.20987
20
1.02265
11
1.20528
21
1.02031
0
LINE
8
BLACK
6
CONTINUOUS
10
1.20528
20
1.02031
11
1.20018
21
1.0195
0
LINE
8
BLACK
6
CONTINUOUS
10
1.20018
20
1.0195
11
1.18296
21
1.0195
0
LINE
8
BLACK
6
CONTINUOUS
10
1.18296
20
1.0195
11
1.17786
21
1.02031
0
LINE
8
BLACK
6
CONTINUOUS
10
1.17786
20
1.02031
11
1.17327
21
1.02265
0
LINE
8
BLACK
6
CONTINUOUS
10
1.17327
20
1.02265
11
1.16962
21
1.0263
0
LINE
8
BLACK
6
CONTINUOUS
10
1.16962
20
1.0263
11
1.16728
21
1.0309
0
LINE
8
BLACK
6
CONTINUOUS
10
1.16728
20
1.0309
11
1.16647
21
1.03599
0
LINE
8
BLACK
6
CONTINUOUS
10
1.16647
20
1.03599
11
1.16647
21
1.06601
0
LINE
8
BLACK
6
CONTINUOUS
10
1.16647
20
1.06601
11
1.16728
21
1.0711
0
LINE
8
BLACK
6
CONTINUOUS
10
1.16728
20
1.0711
11
1.16962
21
1.0757
0
LINE
8
BLACK
6
CONTINUOUS
10
1.16962
20
1.0757
11
1.17327
21
1.07935
0
LINE
8
BLACK
6
CONTINUOUS
10
1.17327
20
1.07935
11
1.17786
21
1.08169
0
LINE
8
BLACK
6
CONTINUOUS
10
1.17786
20
1.08169
11
1.18296
21
1.0825
0
LINE
8
BLACK
6
CONTINUOUS
10
1.18296
20
1.0825
11
1.20018
21
1.0825
0
LINE
8
BLACK
6
CONTINUOUS
10
1.20018
20
1.0825
11
1.20528
21
1.08169
0
LINE
8
BLACK
6
CONTINUOUS
10
1.28894
20
1.08169
11
1.29353
21
1.07935
0
LINE
8
BLACK
6
CONTINUOUS
10
1.29353
20
1.07935
11
1.29718
21
1.0757
0
LINE
8
BLACK
6
CONTINUOUS
10
1.29718
20
1.0757
11
1.29952
21
1.0711
0
LINE
8
BLACK
6
CONTINUOUS
10
1.29952
20
1.0711
11
1.30033
21
1.06601
0
LINE
8
BLACK
6
CONTINUOUS
10
1.30033
20
1.06601
11
1.30033
21
1.03599
0
LINE
8
BLACK
6
CONTINUOUS
10
1.30033
20
1.03599
11
1.29952
21
1.0309
0
LINE
8
BLACK
6
CONTINUOUS
10
1.29952
20
1.0309
11
1.29718
21
1.0263
0
LINE
8
BLACK
6
CONTINUOUS
10
1.29718
20
1.0263
11
1.29353
21
1.02265
0
LINE
8
BLACK
6
CONTINUOUS
10
1.29353
20
1.02265
11
1.28894
21
1.02031
0
LINE
8
BLACK
6
CONTINUOUS
10
1.28894
20
1.02031
11
1.28384
21
1.0195
0
LINE
8
BLACK
6
CONTINUOUS
10
1.28384
20
1.0195
11
1.26662
21
1.0195
0
LINE
8
BLACK
6
CONTINUOUS
10
1.26662
20
1.0195
11
1.26153
21
1.02031
0
LINE
8
BLACK
6
CONTINUOUS
10
1.26153
20
1.02031
11
1.25693
21
1.02265
0
LINE
8
BLACK
6
CONTINUOUS
10
1.25693
20
1.02265
11
1.25328
21
1.0263
0
LINE
8
BLACK
6
CONTINUOUS
10
1.25328
20
1.0263
11
1.25094
21
1.0309
0
LINE
8
BLACK
6
CONTINUOUS
10
1.25094
20
1.0309
11
1.25013
21
1.03599
0
LINE
8
BLACK
6
CONTINUOUS
10
1.25013
20
1.03599
11
1.25013
21
1.06601
0
LINE
8
BLACK
6
CONTINUOUS
10
1.25013
20
1.06601
11
1.25094
21
1.0711
0
LINE
8
BLACK
6
CONTINUOUS
10
1.25094
20
1.0711
11
1.25328
21
1.0757
0
LINE
8
BLACK
6
CONTINUOUS
10
1.25328
20
1.0757
11
1.25693
21
1.07935
0
LINE
8
BLACK
6
CONTINUOUS
10
1.25693
20
1.07935
11
1.26153
21
1.08169
0
LINE
8
BLACK
6
CONTINUOUS
10
1.26153
20
1.08169
11
1.26662
21
1.0825
0
LINE
8
BLACK
6
CONTINUOUS
10
1.26662
20
1.0825
11
1.28384
21
1.0825
0
LINE
8
BLACK
6
CONTINUOUS
10
1.28384
20
1.0825
11
1.28894
21
1.08169
0
LINE
8
BLACK
6
CONTINUOUS
10
2.21492
20
1.5251
11
2.22877
21
1.52266
0
LINE
8
BLACK
6
CONTINUOUS
10
2.22877
20
1.52266
11
2.24226
21
1.51868
0
LINE
8
BLACK
6
CONTINUOUS
10
2.24226
20
1.51868
11
2.25523
21
1.51323
0
LINE
8
BLACK
6
CONTINUOUS
10
2.25523
20
1.51323
11
2.26751
21
1.50637
0
LINE
8
BLACK
6
CONTINUOUS
10
2.26751
20
1.50637
11
2.27894
21
1.49818
0
LINE
8
BLACK
6
CONTINUOUS
10
2.27894
20
1.49818
11
2.28939
21
1.48877
0
LINE
8
BLACK
6
CONTINUOUS
10
2.28939
20
1.48877
11
2.29873
21
1.47825
0
LINE
8
BLACK
6
CONTINUOUS
10
2.29873
20
1.47825
11
2.30684
21
1.46676
0
LINE
8
BLACK
6
CONTINUOUS
10
2.30684
20
1.46676
11
2.31362
21
1.45444
0
LINE
8
BLACK
6
CONTINUOUS
10
2.31362
20
1.45444
11
2.31898
21
1.44143
0
LINE
8
BLACK
6
CONTINUOUS
10
2.31898
20
1.44143
11
2.32285
21
1.42791
0
LINE
8
BLACK
6
CONTINUOUS
10
2.32285
20
1.42791
11
2.3252
21
1.41404
0
LINE
8
BLACK
6
CONTINUOUS
10
2.3252
20
1.41404
11
2.32598
21
1.4
0
LINE
8
BLACK
6
CONTINUOUS
10
2.32598
20
1.4
11
2.32594
21
1.39648
0
LINE
8
BLACK
6
CONTINUOUS
10
2.32594
20
1.39648
11
2.32476
21
1.38247
0
LINE
8
BLACK
6
CONTINUOUS
10
2.32476
20
1.38247
11
2.32203
21
1.36867
0
LINE
8
BLACK
6
CONTINUOUS
10
2.32203
20
1.36867
11
2.31777
21
1.35526
0
LINE
8
BLACK
6
CONTINUOUS
10
2.31777
20
1.35526
11
2.31205
21
1.34241
0
LINE
8
BLACK
6
CONTINUOUS
10
2.31205
20
1.34241
11
2.30493
21
1.33028
0
LINE
8
BLACK
6
CONTINUOUS
10
2.30493
20
1.33028
11
2.29651
21
1.31902
0
LINE
8
BLACK
6
CONTINUOUS
10
2.29651
20
1.31902
11
2.28688
21
1.30877
0
LINE
8
BLACK
6
CONTINUOUS
10
2.28688
20
1.30877
11
2.27617
21
1.29965
0
LINE
8
BLACK
6
CONTINUOUS
10
2.27617
20
1.29965
11
2.26451
21
1.29178
0
LINE
8
BLACK
6
CONTINUOUS
10
2.26451
20
1.29178
11
2.25204
21
1.28527
0
LINE
8
BLACK
6
CONTINUOUS
10
2.25204
20
1.28527
11
2.23893
21
1.28018
0
LINE
8
BLACK
6
CONTINUOUS
10
2.23893
20
1.28018
11
2.22533
21
1.27659
0
LINE
8
BLACK
6
CONTINUOUS
10
2.22533
20
1.27659
11
2.21142
21
1.27453
0
LINE
8
BLACK
6
CONTINUOUS
10
2.21142
20
1.27453
11
2.19736
21
1.27404
0
LINE
8
BLACK
6
CONTINUOUS
10
2.19736
20
1.27404
11
2.18334
21
1.27512
0
LINE
8
BLACK
6
CONTINUOUS
10
2.18334
20
1.27512
11
2.16952
21
1.27776
0
LINE
8
BLACK
6
CONTINUOUS
10
2.16952
20
1.27776
11
2.15609
21
1.28192
0
LINE
8
BLACK
6
CONTINUOUS
10
2.15609
20
1.28192
11
2.1432
21
1.28755
0
LINE
8
BLACK
6
CONTINUOUS
10
2.1432
20
1.28755
11
2.13102
21
1.29458
0
LINE
8
BLACK
6
CONTINUOUS
10
2.13102
20
1.29458
11
2.11969
21
1.30293
0
LINE
8
BLACK
6
CONTINUOUS
10
2.11969
20
1.30293
11
2.10937
21
1.31248
0
LINE
8
BLACK
6
CONTINUOUS
10
2.10937
20
1.31248
11
2.10018
21
1.32313
0
LINE
8
BLACK
6
CONTINUOUS
10
2.10018
20
1.32313
11
2.09224
21
1.33474
0
LINE
8
BLACK
6
CONTINUOUS
10
2.09224
20
1.33474
11
2.08563
21
1.34716
0
LINE
8
BLACK
6
CONTINUOUS
10
2.08563
20
1.34716
11
2.08046
21
1.36023
0
LINE
8
BLACK
6
CONTINUOUS
10
2.08046
20
1.36023
11
2.07677
21
1.37381
0
LINE
8
BLACK
6
CONTINUOUS
10
2.07677
20
1.37381
11
2.07462
21
1.38771
0
LINE
8
BLACK
6
CONTINUOUS
10
2.07462
20
1.38771
11
2.07403
21
1.40176
0
LINE
8
BLACK
6
CONTINUOUS
10
2.07403
20
1.40176
11
2.07501
21
1.41579
0
LINE
8
BLACK
6
CONTINUOUS
10
2.07501
20
1.41579
11
2.07755
21
1.42962
0
LINE
8
BLACK
6
CONTINUOUS
10
2.07755
20
1.42962
11
2.08161
21
1.44309
0
LINE
8
BLACK
6
CONTINUOUS
10
2.08161
20
1.44309
11
2.08715
21
1.45602
0
LINE
8
BLACK
6
CONTINUOUS
10
2.08715
20
1.45602
11
2.0941
21
1.46825
0
LINE
8
BLACK
6
CONTINUOUS
10
2.0941
20
1.46825
11
2.10237
21
1.47963
0
LINE
8
BLACK
6
CONTINUOUS
10
2.10237
20
1.47963
11
2.11185
21
1.49001
0
LINE
8
BLACK
6
CONTINUOUS
10
2.11185
20
1.49001
11
2.12244
21
1.49928
0
LINE
8
BLACK
6
CONTINUOUS
10
2.12244
20
1.49928
11
2.13399
21
1.5073
0
LINE
8
BLACK
6
CONTINUOUS
10
2.13399
20
1.5073
11
2.14636
21
1.51399
0
LINE
8
BLACK
6
CONTINUOUS
10
2.14636
20
1.51399
11
2.1594
21
1.51926
0
LINE
8
BLACK
6
CONTINUOUS
10
2.1594
20
1.51926
11
2.17295
21
1.52305
0
LINE
8
BLACK
6
CONTINUOUS
10
2.17295
20
1.52305
11
2.18683
21
1.52529
0
LINE
8
BLACK
6
CONTINUOUS
10
2.18683
20
1.52529
11
2.20088
21
1.52598
0
LINE
8
BLACK
6
CONTINUOUS
10
2.20088
20
1.52598
11
2.21492
21
1.5251
0
LINE
8
BLACK
6
CONTINUOUS
10
0.214917
20
1.5251
11
0.228769
21
1.52266
0
LINE
8
BLACK
6
CONTINUOUS
10
0.228769
20
1.52266
11
0.242262
21
1.51868
0
LINE
8
BLACK
6
CONTINUOUS
10
0.242262
20
1.51868
11
0.255228
21
1.51323
0
LINE
8
BLACK
6
CONTINUOUS
10
0.255228
20
1.51323
11
0.267506
21
1.50637
0
LINE
8
BLACK
6
CONTINUOUS
10
0.267506
20
1.50637
11
0.278942
21
1.49818
0
LINE
8
BLACK
6
CONTINUOUS
10
0.278942
20
1.49818
11
0.289395
21
1.48877
0
LINE
8
BLACK
6
CONTINUOUS
10
0.289395
20
1.48877
11
0.298733
21
1.47825
0
LINE
8
BLACK
6
CONTINUOUS
10
0.298733
20
1.47825
11
0.306841
21
1.46676
0
LINE
8
BLACK
6
CONTINUOUS
10
0.306841
20
1.46676
11
0.313617
21
1.45444
0
LINE
8
BLACK
6
CONTINUOUS
10
0.313617
20
1.45444
11
0.318977
21
1.44143
0
LINE
8
BLACK
6
CONTINUOUS
10
0.318977
20
1.44143
11
0.322853
21
1.42791
0
LINE
8
BLACK
6
CONTINUOUS
10
0.322853
20
1.42791
11
0.325199
21
1.41404
0
LINE
8
BLACK
6
CONTINUOUS
10
0.325199
20
1.41404
11
0.325984
21
1.4
0
LINE
8
BLACK
6
CONTINUOUS
10
0.325984
20
1.4
11
0.325935
21
1.39648
0
LINE
8
BLACK
6
CONTINUOUS
10
0.325935
20
1.39648
11
0.324758
21
1.38247
0
LINE
8
BLACK
6
CONTINUOUS
10
0.324758
20
1.38247
11
0.322026
21
1.36867
0
LINE
8
BLACK
6
CONTINUOUS
10
0.322026
20
1.36867
11
0.317773
21
1.35526
0
LINE
8
BLACK
6
CONTINUOUS
10
0.317773
20
1.35526
11
0.312052
21
1.34241
0
LINE
8
BLACK
6
CONTINUOUS
10
0.312052
20
1.34241
11
0.304935
21
1.33028
0
LINE
8
BLACK
6
CONTINUOUS
10
0.304935
20
1.33028
11
0.29651
21
1.31902
0
LINE
8
BLACK
6
CONTINUOUS
10
0.29651
20
1.31902
11
0.286881
21
1.30877
0
LINE
8
BLACK
6
CONTINUOUS
10
0.286881
20
1.30877
11
0.27617
21
1.29965
0
LINE
8
BLACK
6
CONTINUOUS
10
0.27617
20
1.29965
11
0.264509
21
1.29178
0
LINE
8
BLACK
6
CONTINUOUS
10
0.264509
20
1.29178
11
0.252045
21
1.28527
0
LINE
8
BLACK
6
CONTINUOUS
10
0.252045
20
1.28527
11
0.238931
21
1.28018
0
LINE
8
BLACK
6
CONTINUOUS
10
0.238931
20
1.28018
11
0.225333
21
1.27659
0
LINE
8
BLACK
6
CONTINUOUS
10
0.225333
20
1.27659
11
0.211418
21
1.27453
0
LINE
8
BLACK
6
CONTINUOUS
10
0.211418
20
1.27453
11
0.197362
21
1.27404
0
LINE
8
BLACK
6
CONTINUOUS
10
0.197362
20
1.27404
11
0.183338
21
1.27512
0
LINE
8
BLACK
6
CONTINUOUS
10
0.183338
20
1.27512
11
0.169522
21
1.27776
0
LINE
8
BLACK
6
CONTINUOUS
10
0.169522
20
1.27776
11
0.156085
21
1.28192
0
LINE
8
BLACK
6
CONTINUOUS
10
0.156085
20
1.28192
11
0.143197
21
1.28755
0
LINE
8
BLACK
6
CONTINUOUS
10
0.143197
20
1.28755
11
0.131016
21
1.29458
0
LINE
8
BLACK
6
CONTINUOUS
10
0.131016
20
1.29458
11
0.119695
21
1.30293
0
LINE
8
BLACK
6
CONTINUOUS
10
0.119695
20
1.30293
11
0.109375
21
1.31248
0
LINE
8
BLACK
6
CONTINUOUS
10
0.109375
20
1.31248
11
0.100184
21
1.32313
0
LINE
8
BLACK
6
CONTINUOUS
10
0.100184
20
1.32313
11
0.0922376
21
1.33474
0
LINE
8
BLACK
6
CONTINUOUS
10
0.0922376
20
1.33474
11
0.0856343
21
1.34716
0
LINE
8
BLACK
6
CONTINUOUS
10
0.0856343
20
1.34716
11
0.0804566
21
1.36023
0
LINE
8
BLACK
6
CONTINUOUS
10
0.0804566
20
1.36023
11
0.0767688
21
1.37381
0
LINE
8
BLACK
6
CONTINUOUS
10
0.0767688
20
1.37381
11
0.074617
21
1.38771
0
LINE
8
BLACK
6
CONTINUOUS
10
0.074617
20
1.38771
11
0.074028
21
1.40176
0
LINE
8
BLACK
6
CONTINUOUS
10
0.074028
20
1.40176
11
0.0750092
21
1.41579
0
LINE
8
BLACK
6
CONTINUOUS
10
0.0750092
20
1.41579
11
0.0775482
21
1.42962
0
LINE
8
BLACK
6
CONTINUOUS
10
0.0775482
20
1.42962
11
0.0816135
21
1.44309
0
LINE
8
BLACK
6
CONTINUOUS
10
0.0816135
20
1.44309
11
0.0871544
21
1.45602
0
LINE
8
BLACK
6
CONTINUOUS
10
0.0871544
20
1.45602
11
0.0941019
21
1.46825
0
LINE
8
BLACK
6
CONTINUOUS
10
0.0941019
20
1.46825
11
0.102369
21
1.47963
0
LINE
8
BLACK
6
CONTINUOUS
10
0.102369
20
1.47963
11
0.111853
21
1.49001
0
LINE
8
BLACK
6
CONTINUOUS
10
0.111853
20
1.49001
11
0.122436
21
1.49928
0
LINE
8
BLACK
6
CONTINUOUS
10
0.122436
20
1.49928
11
0.133986
21
1.5073
0
LINE
8
BLACK
6
CONTINUOUS
10
0.133986
20
1.5073
11
0.146359
21
1.51399
0
LINE
8
BLACK
6
CONTINUOUS
10
0.146359
20
1.51399
11
0.1594
21
1.51926
0
LINE
8
BLACK
6
CONTINUOUS
10
0.1594
20
1.51926
11
0.172947
21
1.52305
0
LINE
8
BLACK
6
CONTINUOUS
10
0.172947
20
1.52305
11
0.186831
21
1.52529
0
LINE
8
BLACK
6
CONTINUOUS
10
0.186831
20
1.52529
11
0.20088
21
1.52598
0
LINE
8
BLACK
6
CONTINUOUS
10
0.20088
20
1.52598
11
0.214917
21
1.5251
  0
ENDSEC
  0
EOF
