  0
SECTION
  2
HEADER
  9
$ANGBASE
  50
0.0
  9
$ANGDIR
  70
1
  9
$MEASUREMENT
  70
0
  0
ENDSEC
  0
SECTION
  2
TABLES
  0
TABLE
  2
LTYPE
  70
4
  0
LTYPE
  5
40F
  2
CONTINUOUS
  70
0
  3
Solid line
  72
65
  73
0
  40
0.0
  0
LTYPE
  5
410
  2
DASHDOT
 70
0
  3
Dash Dot ____ _ ____ _
 72
65
 73
4
 40
2.0
 49
1.25
 49
-0.25
 49
0.25
 49
-0.25
  0
LTYPE
  5
411
  2
DASHED
 70
0
  3
Dashed __ __ __ __ __
 72
65
 73
2
 40
0.75
 49
0.5
 49
-0.25
  0
LTYPE
  5
43B
  2
DOTTED
 70
0
  3
Dotted .  .  .  .
 72
65
 73
2
 40
0.2
 49
0.0
 49
-0.2
  0
ENDTAB
  0
TABLE
  2
STYLE
  70
4
  0
STYLE
  2
KICAD
  70
0
  40
0
  41
1
  42
1
  50
0
  71
0
  3
isocp.shx
  0
STYLE
  2
KICADB
  70
0
  40
0
  41
1
  42
1
  50
0
  71
0
  3
isocp.shx
  0
STYLE
  2
KICADI
  70
0
  40
0
  41
1
  42
1
  50
15
  71
0
  3
isocp.shx
  0
STYLE
  2
KICADBI
  70
0
  40
0
  41
1
  42
1
  50
15
  71
0
  3
isocp.shx
  0
ENDTAB
  0
TABLE
  2
LAYER
  70
1
  0
LAYER
  2
BLACK
  70
0
  62
7
  6
CONTINUOUS
  0
ENDTAB
  0
ENDSEC
  0
SECTION
  2
ENTITIES
0
LINE
8
BLACK
6
CONTINUOUS
10
5.22039
20
-3.72949
11
5.22607
21
-3.73108
0
LINE
8
BLACK
6
CONTINUOUS
10
5.22607
20
-3.73108
11
5.23111
21
-3.73415
0
LINE
8
BLACK
6
CONTINUOUS
10
5.23111
20
-3.73415
11
5.23513
21
-3.73846
0
LINE
8
BLACK
6
CONTINUOUS
10
5.23513
20
-3.73846
11
5.23784
21
-3.74369
0
LINE
8
BLACK
6
CONTINUOUS
10
5.23784
20
-3.74369
11
5.23904
21
-3.74947
0
LINE
8
BLACK
6
CONTINUOUS
10
5.23904
20
-3.74947
11
5.23864
21
-3.75535
0
LINE
8
BLACK
6
CONTINUOUS
10
5.23864
20
-3.75535
11
5.23667
21
-3.76091
0
LINE
8
BLACK
6
CONTINUOUS
10
5.23667
20
-3.76091
11
5.23327
21
-3.76572
0
LINE
8
BLACK
6
CONTINUOUS
10
5.23327
20
-3.76572
11
5.22869
21
-3.76945
0
LINE
8
BLACK
6
CONTINUOUS
10
5.22869
20
-3.76945
11
5.22328
21
-3.7718
0
LINE
8
BLACK
6
CONTINUOUS
10
5.22328
20
-3.7718
11
5.21744
21
-3.7726
0
LINE
8
BLACK
6
CONTINUOUS
10
5.21744
20
-3.7726
11
5.20957
21
-3.7726
0
LINE
8
BLACK
6
CONTINUOUS
10
5.20957
20
-3.7726
11
5.20662
21
-3.7724
0
LINE
8
BLACK
6
CONTINUOUS
10
5.20662
20
-3.7724
11
5.20094
21
-3.77081
0
LINE
8
BLACK
6
CONTINUOUS
10
5.20094
20
-3.77081
11
5.1959
21
-3.76774
0
LINE
8
BLACK
6
CONTINUOUS
10
5.1959
20
-3.76774
11
5.19188
21
-3.76343
0
LINE
8
BLACK
6
CONTINUOUS
10
5.19188
20
-3.76343
11
5.18916
21
-3.7582
0
LINE
8
BLACK
6
CONTINUOUS
10
5.18916
20
-3.7582
11
5.18796
21
-3.75242
0
LINE
8
BLACK
6
CONTINUOUS
10
5.18796
20
-3.75242
11
5.18837
21
-3.74654
0
LINE
8
BLACK
6
CONTINUOUS
10
5.18837
20
-3.74654
11
5.19034
21
-3.74098
0
LINE
8
BLACK
6
CONTINUOUS
10
5.19034
20
-3.74098
11
5.19374
21
-3.73617
0
LINE
8
BLACK
6
CONTINUOUS
10
5.19374
20
-3.73617
11
5.19832
21
-3.73244
0
LINE
8
BLACK
6
CONTINUOUS
10
5.19832
20
-3.73244
11
5.20372
21
-3.73009
0
LINE
8
BLACK
6
CONTINUOUS
10
5.20372
20
-3.73009
11
5.20957
21
-3.72929
0
LINE
8
BLACK
6
CONTINUOUS
10
5.20957
20
-3.72929
11
5.21744
21
-3.72929
0
LINE
8
BLACK
6
CONTINUOUS
10
5.21744
20
-3.72929
11
5.22039
21
-3.72949
0
LINE
8
BLACK
6
CONTINUOUS
10
5.22039
20
-3.67949
11
5.22607
21
-3.68108
0
LINE
8
BLACK
6
CONTINUOUS
10
5.22607
20
-3.68108
11
5.23111
21
-3.68415
0
LINE
8
BLACK
6
CONTINUOUS
10
5.23111
20
-3.68415
11
5.23513
21
-3.68846
0
LINE
8
BLACK
6
CONTINUOUS
10
5.23513
20
-3.68846
11
5.23784
21
-3.69369
0
LINE
8
BLACK
6
CONTINUOUS
10
5.23784
20
-3.69369
11
5.23904
21
-3.69947
0
LINE
8
BLACK
6
CONTINUOUS
10
5.23904
20
-3.69947
11
5.23864
21
-3.70535
0
LINE
8
BLACK
6
CONTINUOUS
10
5.23864
20
-3.70535
11
5.23667
21
-3.71091
0
LINE
8
BLACK
6
CONTINUOUS
10
5.23667
20
-3.71091
11
5.23327
21
-3.71572
0
LINE
8
BLACK
6
CONTINUOUS
10
5.23327
20
-3.71572
11
5.22869
21
-3.71945
0
LINE
8
BLACK
6
CONTINUOUS
10
5.22869
20
-3.71945
11
5.22328
21
-3.7218
0
LINE
8
BLACK
6
CONTINUOUS
10
5.22328
20
-3.7218
11
5.21744
21
-3.7226
0
LINE
8
BLACK
6
CONTINUOUS
10
5.21744
20
-3.7226
11
5.20957
21
-3.7226
0
LINE
8
BLACK
6
CONTINUOUS
10
5.20957
20
-3.7226
11
5.20662
21
-3.7224
0
LINE
8
BLACK
6
CONTINUOUS
10
5.20662
20
-3.7224
11
5.20094
21
-3.72081
0
LINE
8
BLACK
6
CONTINUOUS
10
5.20094
20
-3.72081
11
5.1959
21
-3.71774
0
LINE
8
BLACK
6
CONTINUOUS
10
5.1959
20
-3.71774
11
5.19188
21
-3.71343
0
LINE
8
BLACK
6
CONTINUOUS
10
5.19188
20
-3.71343
11
5.18916
21
-3.7082
0
LINE
8
BLACK
6
CONTINUOUS
10
5.18916
20
-3.7082
11
5.18796
21
-3.70242
0
LINE
8
BLACK
6
CONTINUOUS
10
5.18796
20
-3.70242
11
5.18837
21
-3.69654
0
LINE
8
BLACK
6
CONTINUOUS
10
5.18837
20
-3.69654
11
5.19034
21
-3.69098
0
LINE
8
BLACK
6
CONTINUOUS
10
5.19034
20
-3.69098
11
5.19374
21
-3.68617
0
LINE
8
BLACK
6
CONTINUOUS
10
5.19374
20
-3.68617
11
5.19832
21
-3.68244
0
LINE
8
BLACK
6
CONTINUOUS
10
5.19832
20
-3.68244
11
5.20372
21
-3.68009
0
LINE
8
BLACK
6
CONTINUOUS
10
5.20372
20
-3.68009
11
5.20957
21
-3.67929
0
LINE
8
BLACK
6
CONTINUOUS
10
5.20957
20
-3.67929
11
5.21744
21
-3.67929
0
LINE
8
BLACK
6
CONTINUOUS
10
5.21744
20
-3.67929
11
5.22039
21
-3.67949
0
LINE
8
BLACK
6
CONTINUOUS
10
6.95169
20
-3.72949
11
6.95737
21
-3.73108
0
LINE
8
BLACK
6
CONTINUOUS
10
6.95737
20
-3.73108
11
6.96241
21
-3.73415
0
LINE
8
BLACK
6
CONTINUOUS
10
6.96241
20
-3.73415
11
6.96643
21
-3.73846
0
LINE
8
BLACK
6
CONTINUOUS
10
6.96643
20
-3.73846
11
6.96914
21
-3.74369
0
LINE
8
BLACK
6
CONTINUOUS
10
6.96914
20
-3.74369
11
6.97034
21
-3.74947
0
LINE
8
BLACK
6
CONTINUOUS
10
6.97034
20
-3.74947
11
6.96994
21
-3.75535
0
LINE
8
BLACK
6
CONTINUOUS
10
6.96994
20
-3.75535
11
6.96797
21
-3.76091
0
LINE
8
BLACK
6
CONTINUOUS
10
6.96797
20
-3.76091
11
6.96457
21
-3.76572
0
LINE
8
BLACK
6
CONTINUOUS
10
6.96457
20
-3.76572
11
6.95999
21
-3.76945
0
LINE
8
BLACK
6
CONTINUOUS
10
6.95999
20
-3.76945
11
6.95458
21
-3.7718
0
LINE
8
BLACK
6
CONTINUOUS
10
6.95458
20
-3.7718
11
6.94874
21
-3.7726
0
LINE
8
BLACK
6
CONTINUOUS
10
6.94874
20
-3.7726
11
6.94087
21
-3.7726
0
LINE
8
BLACK
6
CONTINUOUS
10
6.94087
20
-3.7726
11
6.93792
21
-3.7724
0
LINE
8
BLACK
6
CONTINUOUS
10
6.93792
20
-3.7724
11
6.93224
21
-3.77081
0
LINE
8
BLACK
6
CONTINUOUS
10
6.93224
20
-3.77081
11
6.9272
21
-3.76774
0
LINE
8
BLACK
6
CONTINUOUS
10
6.9272
20
-3.76774
11
6.92318
21
-3.76343
0
LINE
8
BLACK
6
CONTINUOUS
10
6.92318
20
-3.76343
11
6.92046
21
-3.7582
0
LINE
8
BLACK
6
CONTINUOUS
10
6.92046
20
-3.7582
11
6.91926
21
-3.75242
0
LINE
8
BLACK
6
CONTINUOUS
10
6.91926
20
-3.75242
11
6.91967
21
-3.74654
0
LINE
8
BLACK
6
CONTINUOUS
10
6.91967
20
-3.74654
11
6.92164
21
-3.74098
0
LINE
8
BLACK
6
CONTINUOUS
10
6.92164
20
-3.74098
11
6.92504
21
-3.73617
0
LINE
8
BLACK
6
CONTINUOUS
10
6.92504
20
-3.73617
11
6.92962
21
-3.73244
0
LINE
8
BLACK
6
CONTINUOUS
10
6.92962
20
-3.73244
11
6.93502
21
-3.73009
0
LINE
8
BLACK
6
CONTINUOUS
10
6.93502
20
-3.73009
11
6.94087
21
-3.72929
0
LINE
8
BLACK
6
CONTINUOUS
10
6.94087
20
-3.72929
11
6.94874
21
-3.72929
0
LINE
8
BLACK
6
CONTINUOUS
10
6.94874
20
-3.72929
11
6.95169
21
-3.72949
0
LINE
8
BLACK
6
CONTINUOUS
10
6.95169
20
-3.67949
11
6.95737
21
-3.68108
0
LINE
8
BLACK
6
CONTINUOUS
10
6.95737
20
-3.68108
11
6.96241
21
-3.68415
0
LINE
8
BLACK
6
CONTINUOUS
10
6.96241
20
-3.68415
11
6.96643
21
-3.68846
0
LINE
8
BLACK
6
CONTINUOUS
10
6.96643
20
-3.68846
11
6.96914
21
-3.69369
0
LINE
8
BLACK
6
CONTINUOUS
10
6.96914
20
-3.69369
11
6.97034
21
-3.69947
0
LINE
8
BLACK
6
CONTINUOUS
10
6.97034
20
-3.69947
11
6.96994
21
-3.70535
0
LINE
8
BLACK
6
CONTINUOUS
10
6.96994
20
-3.70535
11
6.96797
21
-3.71091
0
LINE
8
BLACK
6
CONTINUOUS
10
6.96797
20
-3.71091
11
6.96457
21
-3.71572
0
LINE
8
BLACK
6
CONTINUOUS
10
6.96457
20
-3.71572
11
6.95999
21
-3.71945
0
LINE
8
BLACK
6
CONTINUOUS
10
6.95999
20
-3.71945
11
6.95458
21
-3.7218
0
LINE
8
BLACK
6
CONTINUOUS
10
6.95458
20
-3.7218
11
6.94874
21
-3.7226
0
LINE
8
BLACK
6
CONTINUOUS
10
6.94874
20
-3.7226
11
6.94087
21
-3.7226
0
LINE
8
BLACK
6
CONTINUOUS
10
6.94087
20
-3.7226
11
6.93792
21
-3.7224
0
LINE
8
BLACK
6
CONTINUOUS
10
6.93792
20
-3.7224
11
6.93224
21
-3.72081
0
LINE
8
BLACK
6
CONTINUOUS
10
6.93224
20
-3.72081
11
6.9272
21
-3.71774
0
LINE
8
BLACK
6
CONTINUOUS
10
6.9272
20
-3.71774
11
6.92318
21
-3.71343
0
LINE
8
BLACK
6
CONTINUOUS
10
6.92318
20
-3.71343
11
6.92046
21
-3.7082
0
LINE
8
BLACK
6
CONTINUOUS
10
6.92046
20
-3.7082
11
6.91926
21
-3.70242
0
LINE
8
BLACK
6
CONTINUOUS
10
6.91926
20
-3.70242
11
6.91967
21
-3.69654
0
LINE
8
BLACK
6
CONTINUOUS
10
6.91967
20
-3.69654
11
6.92164
21
-3.69098
0
LINE
8
BLACK
6
CONTINUOUS
10
6.92164
20
-3.69098
11
6.92504
21
-3.68617
0
LINE
8
BLACK
6
CONTINUOUS
10
6.92504
20
-3.68617
11
6.92962
21
-3.68244
0
LINE
8
BLACK
6
CONTINUOUS
10
6.92962
20
-3.68244
11
6.93502
21
-3.68009
0
LINE
8
BLACK
6
CONTINUOUS
10
6.93502
20
-3.68009
11
6.94087
21
-3.67929
0
LINE
8
BLACK
6
CONTINUOUS
10
6.94087
20
-3.67929
11
6.94874
21
-3.67929
0
LINE
8
BLACK
6
CONTINUOUS
10
6.94874
20
-3.67929
11
6.95169
21
-3.67949
0
LINE
8
BLACK
6
CONTINUOUS
10
5.22039
20
-3.57949
11
5.22607
21
-3.58108
0
LINE
8
BLACK
6
CONTINUOUS
10
5.22607
20
-3.58108
11
5.23111
21
-3.58415
0
LINE
8
BLACK
6
CONTINUOUS
10
5.23111
20
-3.58415
11
5.23513
21
-3.58846
0
LINE
8
BLACK
6
CONTINUOUS
10
5.23513
20
-3.58846
11
5.23784
21
-3.59369
0
LINE
8
BLACK
6
CONTINUOUS
10
5.23784
20
-3.59369
11
5.23904
21
-3.59947
0
LINE
8
BLACK
6
CONTINUOUS
10
5.23904
20
-3.59947
11
5.23864
21
-3.60535
0
LINE
8
BLACK
6
CONTINUOUS
10
5.23864
20
-3.60535
11
5.23667
21
-3.61091
0
LINE
8
BLACK
6
CONTINUOUS
10
5.23667
20
-3.61091
11
5.23327
21
-3.61572
0
LINE
8
BLACK
6
CONTINUOUS
10
5.23327
20
-3.61572
11
5.22869
21
-3.61945
0
LINE
8
BLACK
6
CONTINUOUS
10
5.22869
20
-3.61945
11
5.22328
21
-3.6218
0
LINE
8
BLACK
6
CONTINUOUS
10
5.22328
20
-3.6218
11
5.21744
21
-3.6226
0
LINE
8
BLACK
6
CONTINUOUS
10
5.21744
20
-3.6226
11
5.20957
21
-3.6226
0
LINE
8
BLACK
6
CONTINUOUS
10
5.20957
20
-3.6226
11
5.20662
21
-3.6224
0
LINE
8
BLACK
6
CONTINUOUS
10
5.20662
20
-3.6224
11
5.20094
21
-3.62081
0
LINE
8
BLACK
6
CONTINUOUS
10
5.20094
20
-3.62081
11
5.1959
21
-3.61774
0
LINE
8
BLACK
6
CONTINUOUS
10
5.1959
20
-3.61774
11
5.19188
21
-3.61343
0
LINE
8
BLACK
6
CONTINUOUS
10
5.19188
20
-3.61343
11
5.18916
21
-3.6082
0
LINE
8
BLACK
6
CONTINUOUS
10
5.18916
20
-3.6082
11
5.18796
21
-3.60242
0
LINE
8
BLACK
6
CONTINUOUS
10
5.18796
20
-3.60242
11
5.18837
21
-3.59654
0
LINE
8
BLACK
6
CONTINUOUS
10
5.18837
20
-3.59654
11
5.19034
21
-3.59098
0
LINE
8
BLACK
6
CONTINUOUS
10
5.19034
20
-3.59098
11
5.19374
21
-3.58617
0
LINE
8
BLACK
6
CONTINUOUS
10
5.19374
20
-3.58617
11
5.19832
21
-3.58244
0
LINE
8
BLACK
6
CONTINUOUS
10
5.19832
20
-3.58244
11
5.20372
21
-3.58009
0
LINE
8
BLACK
6
CONTINUOUS
10
5.20372
20
-3.58009
11
5.20957
21
-3.57929
0
LINE
8
BLACK
6
CONTINUOUS
10
5.20957
20
-3.57929
11
5.21744
21
-3.57929
0
LINE
8
BLACK
6
CONTINUOUS
10
5.21744
20
-3.57929
11
5.22039
21
-3.57949
0
LINE
8
BLACK
6
CONTINUOUS
10
5.22039
20
-3.52949
11
5.22607
21
-3.53108
0
LINE
8
BLACK
6
CONTINUOUS
10
5.22607
20
-3.53108
11
5.23111
21
-3.53415
0
LINE
8
BLACK
6
CONTINUOUS
10
5.23111
20
-3.53415
11
5.23513
21
-3.53846
0
LINE
8
BLACK
6
CONTINUOUS
10
5.23513
20
-3.53846
11
5.23784
21
-3.54369
0
LINE
8
BLACK
6
CONTINUOUS
10
5.23784
20
-3.54369
11
5.23904
21
-3.54947
0
LINE
8
BLACK
6
CONTINUOUS
10
5.23904
20
-3.54947
11
5.23864
21
-3.55535
0
LINE
8
BLACK
6
CONTINUOUS
10
5.23864
20
-3.55535
11
5.23667
21
-3.56091
0
LINE
8
BLACK
6
CONTINUOUS
10
5.23667
20
-3.56091
11
5.23327
21
-3.56572
0
LINE
8
BLACK
6
CONTINUOUS
10
5.23327
20
-3.56572
11
5.22869
21
-3.56945
0
LINE
8
BLACK
6
CONTINUOUS
10
5.22869
20
-3.56945
11
5.22328
21
-3.5718
0
LINE
8
BLACK
6
CONTINUOUS
10
5.22328
20
-3.5718
11
5.21744
21
-3.5726
0
LINE
8
BLACK
6
CONTINUOUS
10
5.21744
20
-3.5726
11
5.20957
21
-3.5726
0
LINE
8
BLACK
6
CONTINUOUS
10
5.20957
20
-3.5726
11
5.20662
21
-3.5724
0
LINE
8
BLACK
6
CONTINUOUS
10
5.20662
20
-3.5724
11
5.20094
21
-3.57081
0
LINE
8
BLACK
6
CONTINUOUS
10
5.20094
20
-3.57081
11
5.1959
21
-3.56774
0
LINE
8
BLACK
6
CONTINUOUS
10
5.1959
20
-3.56774
11
5.19188
21
-3.56343
0
LINE
8
BLACK
6
CONTINUOUS
10
5.19188
20
-3.56343
11
5.18916
21
-3.5582
0
LINE
8
BLACK
6
CONTINUOUS
10
5.18916
20
-3.5582
11
5.18796
21
-3.55242
0
LINE
8
BLACK
6
CONTINUOUS
10
5.18796
20
-3.55242
11
5.18837
21
-3.54654
0
LINE
8
BLACK
6
CONTINUOUS
10
5.18837
20
-3.54654
11
5.19034
21
-3.54098
0
LINE
8
BLACK
6
CONTINUOUS
10
5.19034
20
-3.54098
11
5.19374
21
-3.53617
0
LINE
8
BLACK
6
CONTINUOUS
10
5.19374
20
-3.53617
11
5.19832
21
-3.53244
0
LINE
8
BLACK
6
CONTINUOUS
10
5.19832
20
-3.53244
11
5.20372
21
-3.53009
0
LINE
8
BLACK
6
CONTINUOUS
10
5.20372
20
-3.53009
11
5.20957
21
-3.52929
0
LINE
8
BLACK
6
CONTINUOUS
10
5.20957
20
-3.52929
11
5.21744
21
-3.52929
0
LINE
8
BLACK
6
CONTINUOUS
10
5.21744
20
-3.52929
11
5.22039
21
-3.52949
0
LINE
8
BLACK
6
CONTINUOUS
10
6.95169
20
-3.57949
11
6.95737
21
-3.58108
0
LINE
8
BLACK
6
CONTINUOUS
10
6.95737
20
-3.58108
11
6.96241
21
-3.58415
0
LINE
8
BLACK
6
CONTINUOUS
10
6.96241
20
-3.58415
11
6.96643
21
-3.58846
0
LINE
8
BLACK
6
CONTINUOUS
10
6.96643
20
-3.58846
11
6.96914
21
-3.59369
0
LINE
8
BLACK
6
CONTINUOUS
10
6.96914
20
-3.59369
11
6.97034
21
-3.59947
0
LINE
8
BLACK
6
CONTINUOUS
10
6.97034
20
-3.59947
11
6.96994
21
-3.60535
0
LINE
8
BLACK
6
CONTINUOUS
10
6.96994
20
-3.60535
11
6.96797
21
-3.61091
0
LINE
8
BLACK
6
CONTINUOUS
10
6.96797
20
-3.61091
11
6.96457
21
-3.61572
0
LINE
8
BLACK
6
CONTINUOUS
10
6.96457
20
-3.61572
11
6.95999
21
-3.61945
0
LINE
8
BLACK
6
CONTINUOUS
10
6.95999
20
-3.61945
11
6.95458
21
-3.6218
0
LINE
8
BLACK
6
CONTINUOUS
10
6.95458
20
-3.6218
11
6.94874
21
-3.6226
0
LINE
8
BLACK
6
CONTINUOUS
10
6.94874
20
-3.6226
11
6.94087
21
-3.6226
0
LINE
8
BLACK
6
CONTINUOUS
10
6.94087
20
-3.6226
11
6.93792
21
-3.6224
0
LINE
8
BLACK
6
CONTINUOUS
10
6.93792
20
-3.6224
11
6.93224
21
-3.62081
0
LINE
8
BLACK
6
CONTINUOUS
10
6.93224
20
-3.62081
11
6.9272
21
-3.61774
0
LINE
8
BLACK
6
CONTINUOUS
10
6.9272
20
-3.61774
11
6.92318
21
-3.61343
0
LINE
8
BLACK
6
CONTINUOUS
10
6.92318
20
-3.61343
11
6.92046
21
-3.6082
0
LINE
8
BLACK
6
CONTINUOUS
10
6.92046
20
-3.6082
11
6.91926
21
-3.60242
0
LINE
8
BLACK
6
CONTINUOUS
10
6.91926
20
-3.60242
11
6.91967
21
-3.59654
0
LINE
8
BLACK
6
CONTINUOUS
10
6.91967
20
-3.59654
11
6.92164
21
-3.59098
0
LINE
8
BLACK
6
CONTINUOUS
10
6.92164
20
-3.59098
11
6.92504
21
-3.58617
0
LINE
8
BLACK
6
CONTINUOUS
10
6.92504
20
-3.58617
11
6.92962
21
-3.58244
0
LINE
8
BLACK
6
CONTINUOUS
10
6.92962
20
-3.58244
11
6.93502
21
-3.58009
0
LINE
8
BLACK
6
CONTINUOUS
10
6.93502
20
-3.58009
11
6.94087
21
-3.57929
0
LINE
8
BLACK
6
CONTINUOUS
10
6.94087
20
-3.57929
11
6.94874
21
-3.57929
0
LINE
8
BLACK
6
CONTINUOUS
10
6.94874
20
-3.57929
11
6.95169
21
-3.57949
0
LINE
8
BLACK
6
CONTINUOUS
10
6.95169
20
-3.52949
11
6.95737
21
-3.53108
0
LINE
8
BLACK
6
CONTINUOUS
10
6.95737
20
-3.53108
11
6.96241
21
-3.53415
0
LINE
8
BLACK
6
CONTINUOUS
10
6.96241
20
-3.53415
11
6.96643
21
-3.53846
0
LINE
8
BLACK
6
CONTINUOUS
10
6.96643
20
-3.53846
11
6.96914
21
-3.54369
0
LINE
8
BLACK
6
CONTINUOUS
10
6.96914
20
-3.54369
11
6.97034
21
-3.54947
0
LINE
8
BLACK
6
CONTINUOUS
10
6.97034
20
-3.54947
11
6.96994
21
-3.55535
0
LINE
8
BLACK
6
CONTINUOUS
10
6.96994
20
-3.55535
11
6.96797
21
-3.56091
0
LINE
8
BLACK
6
CONTINUOUS
10
6.96797
20
-3.56091
11
6.96457
21
-3.56572
0
LINE
8
BLACK
6
CONTINUOUS
10
6.96457
20
-3.56572
11
6.95999
21
-3.56945
0
LINE
8
BLACK
6
CONTINUOUS
10
6.95999
20
-3.56945
11
6.95458
21
-3.5718
0
LINE
8
BLACK
6
CONTINUOUS
10
6.95458
20
-3.5718
11
6.94874
21
-3.5726
0
LINE
8
BLACK
6
CONTINUOUS
10
6.94874
20
-3.5726
11
6.94087
21
-3.5726
0
LINE
8
BLACK
6
CONTINUOUS
10
6.94087
20
-3.5726
11
6.93792
21
-3.5724
0
LINE
8
BLACK
6
CONTINUOUS
10
6.93792
20
-3.5724
11
6.93224
21
-3.57081
0
LINE
8
BLACK
6
CONTINUOUS
10
6.93224
20
-3.57081
11
6.9272
21
-3.56774
0
LINE
8
BLACK
6
CONTINUOUS
10
6.9272
20
-3.56774
11
6.92318
21
-3.56343
0
LINE
8
BLACK
6
CONTINUOUS
10
6.92318
20
-3.56343
11
6.92046
21
-3.5582
0
LINE
8
BLACK
6
CONTINUOUS
10
6.92046
20
-3.5582
11
6.91926
21
-3.55242
0
LINE
8
BLACK
6
CONTINUOUS
10
6.91926
20
-3.55242
11
6.91967
21
-3.54654
0
LINE
8
BLACK
6
CONTINUOUS
10
6.91967
20
-3.54654
11
6.92164
21
-3.54098
0
LINE
8
BLACK
6
CONTINUOUS
10
6.92164
20
-3.54098
11
6.92504
21
-3.53617
0
LINE
8
BLACK
6
CONTINUOUS
10
6.92504
20
-3.53617
11
6.92962
21
-3.53244
0
LINE
8
BLACK
6
CONTINUOUS
10
6.92962
20
-3.53244
11
6.93502
21
-3.53009
0
LINE
8
BLACK
6
CONTINUOUS
10
6.93502
20
-3.53009
11
6.94087
21
-3.52929
0
LINE
8
BLACK
6
CONTINUOUS
10
6.94087
20
-3.52929
11
6.94874
21
-3.52929
0
LINE
8
BLACK
6
CONTINUOUS
10
6.94874
20
-3.52929
11
6.95169
21
-3.52949
0
LINE
8
BLACK
6
CONTINUOUS
10
7.25282
20
-2.8775
11
7.25465
21
-2.87961
0
LINE
8
BLACK
6
CONTINUOUS
10
7.25465
20
-2.87961
11
7.2551
21
-2.88167
0
LINE
8
BLACK
6
CONTINUOUS
10
7.2551
20
-2.88167
11
7.2551
21
-4.41234
0
LINE
8
BLACK
6
CONTINUOUS
10
7.2551
20
-4.41234
11
7.25431
21
-4.41502
0
LINE
8
BLACK
6
CONTINUOUS
10
7.25431
20
-4.41502
11
7.2522
21
-4.41685
0
LINE
8
BLACK
6
CONTINUOUS
10
7.2522
20
-4.41685
11
7.25014
21
-4.4173
0
LINE
8
BLACK
6
CONTINUOUS
10
7.25014
20
-4.4173
11
4.91947
21
-4.4173
0
LINE
8
BLACK
6
CONTINUOUS
10
4.91947
20
-4.4173
11
4.91679
21
-4.41652
0
LINE
8
BLACK
6
CONTINUOUS
10
4.91679
20
-4.41652
11
4.91496
21
-4.4144
0
LINE
8
BLACK
6
CONTINUOUS
10
4.91496
20
-4.4144
11
4.91451
21
-4.41234
0
LINE
8
BLACK
6
CONTINUOUS
10
4.91451
20
-4.41234
11
4.91451
21
-3.90921
0
LINE
8
BLACK
6
CONTINUOUS
10
4.91451
20
-3.90921
11
4.91451
21
-3.40409
0
LINE
8
BLACK
6
CONTINUOUS
10
4.91451
20
-3.40409
11
4.91451
21
-2.88167
0
LINE
8
BLACK
6
CONTINUOUS
10
4.91451
20
-2.88167
11
4.9153
21
-2.87899
0
LINE
8
BLACK
6
CONTINUOUS
10
4.9153
20
-2.87899
11
4.91741
21
-2.87716
0
LINE
8
BLACK
6
CONTINUOUS
10
4.91741
20
-2.87716
11
4.91947
21
-2.87671
0
LINE
8
BLACK
6
CONTINUOUS
10
4.91947
20
-2.87671
11
7.25014
21
-2.87671
0
LINE
8
BLACK
6
CONTINUOUS
10
7.25014
20
-2.87671
11
7.25282
21
-2.8775
0
LINE
8
BLACK
6
CONTINUOUS
10
5.13273
20
-3.96475
11
5.13943
21
-3.96932
0
LINE
8
BLACK
6
CONTINUOUS
10
5.13943
20
-3.96932
11
5.13943
21
-3.96932
0
LINE
8
BLACK
6
CONTINUOUS
10
5.13943
20
-3.96932
11
5.14878
21
-3.97382
0
LINE
8
BLACK
6
CONTINUOUS
10
5.14878
20
-3.97382
11
5.15869
21
-3.97688
0
LINE
8
BLACK
6
CONTINUOUS
10
5.15869
20
-3.97688
11
5.15869
21
-3.97688
0
LINE
8
BLACK
6
CONTINUOUS
10
5.15869
20
-3.97688
11
5.16895
21
-3.97843
0
LINE
8
BLACK
6
CONTINUOUS
10
5.16895
20
-3.97843
11
5.17932
21
-3.97843
0
LINE
8
BLACK
6
CONTINUOUS
10
5.17932
20
-3.97843
11
5.18958
21
-3.97688
0
LINE
8
BLACK
6
CONTINUOUS
10
5.18958
20
-3.97688
11
5.18958
21
-3.97688
0
LINE
8
BLACK
6
CONTINUOUS
10
5.18958
20
-3.97688
11
5.19949
21
-3.97382
0
LINE
8
BLACK
6
CONTINUOUS
10
5.19949
20
-3.97382
11
5.20884
21
-3.96932
0
LINE
8
BLACK
6
CONTINUOUS
10
5.20884
20
-3.96932
11
5.21553
21
-3.96475
0
LINE
8
BLACK
6
CONTINUOUS
10
5.21553
20
-3.96475
11
5.20102
21
-3.95024
0
LINE
8
BLACK
6
CONTINUOUS
10
5.20102
20
-3.95024
11
5.19874
21
-3.95183
0
LINE
8
BLACK
6
CONTINUOUS
10
5.19874
20
-3.95183
11
5.19097
21
-3.95546
0
LINE
8
BLACK
6
CONTINUOUS
10
5.19097
20
-3.95546
11
5.18268
21
-3.95768
0
LINE
8
BLACK
6
CONTINUOUS
10
5.18268
20
-3.95768
11
5.17413
21
-3.95843
0
LINE
8
BLACK
6
CONTINUOUS
10
5.17413
20
-3.95843
11
5.16559
21
-3.95768
0
LINE
8
BLACK
6
CONTINUOUS
10
5.16559
20
-3.95768
11
5.1573
21
-3.95546
0
LINE
8
BLACK
6
CONTINUOUS
10
5.1573
20
-3.95546
11
5.14953
21
-3.95183
0
LINE
8
BLACK
6
CONTINUOUS
10
5.14953
20
-3.95183
11
5.14725
21
-3.95024
0
LINE
8
BLACK
6
CONTINUOUS
10
5.14725
20
-3.95024
11
5.13273
21
-3.96475
0
LINE
8
BLACK
6
CONTINUOUS
10
6.86403
20
-3.96475
11
6.87073
21
-3.96932
0
LINE
8
BLACK
6
CONTINUOUS
10
6.87073
20
-3.96932
11
6.87073
21
-3.96932
0
LINE
8
BLACK
6
CONTINUOUS
10
6.87073
20
-3.96932
11
6.88008
21
-3.97382
0
LINE
8
BLACK
6
CONTINUOUS
10
6.88008
20
-3.97382
11
6.88999
21
-3.97688
0
LINE
8
BLACK
6
CONTINUOUS
10
6.88999
20
-3.97688
11
6.88999
21
-3.97688
0
LINE
8
BLACK
6
CONTINUOUS
10
6.88999
20
-3.97688
11
6.90025
21
-3.97843
0
LINE
8
BLACK
6
CONTINUOUS
10
6.90025
20
-3.97843
11
6.91062
21
-3.97843
0
LINE
8
BLACK
6
CONTINUOUS
10
6.91062
20
-3.97843
11
6.92088
21
-3.97688
0
LINE
8
BLACK
6
CONTINUOUS
10
6.92088
20
-3.97688
11
6.92088
21
-3.97688
0
LINE
8
BLACK
6
CONTINUOUS
10
6.92088
20
-3.97688
11
6.93079
21
-3.97382
0
LINE
8
BLACK
6
CONTINUOUS
10
6.93079
20
-3.97382
11
6.94014
21
-3.96932
0
LINE
8
BLACK
6
CONTINUOUS
10
6.94014
20
-3.96932
11
6.94683
21
-3.96475
0
LINE
8
BLACK
6
CONTINUOUS
10
6.94683
20
-3.96475
11
6.93232
21
-3.95024
0
LINE
8
BLACK
6
CONTINUOUS
10
6.93232
20
-3.95024
11
6.93004
21
-3.95183
0
LINE
8
BLACK
6
CONTINUOUS
10
6.93004
20
-3.95183
11
6.92226
21
-3.95546
0
LINE
8
BLACK
6
CONTINUOUS
10
6.92226
20
-3.95546
11
6.91398
21
-3.95768
0
LINE
8
BLACK
6
CONTINUOUS
10
6.91398
20
-3.95768
11
6.90543
21
-3.95843
0
LINE
8
BLACK
6
CONTINUOUS
10
6.90543
20
-3.95843
11
6.89689
21
-3.95768
0
LINE
8
BLACK
6
CONTINUOUS
10
6.89689
20
-3.95768
11
6.8886
21
-3.95546
0
LINE
8
BLACK
6
CONTINUOUS
10
6.8886
20
-3.95546
11
6.88083
21
-3.95183
0
LINE
8
BLACK
6
CONTINUOUS
10
6.88083
20
-3.95183
11
6.87855
21
-3.95024
0
LINE
8
BLACK
6
CONTINUOUS
10
6.87855
20
-3.95024
11
6.86403
21
-3.96475
0
LINE
8
BLACK
6
CONTINUOUS
10
5.21516
20
-3.88233
11
5.21675
21
-3.88461
0
LINE
8
BLACK
6
CONTINUOUS
10
5.21675
20
-3.88461
11
5.22038
21
-3.89238
0
LINE
8
BLACK
6
CONTINUOUS
10
5.22038
20
-3.89238
11
5.2226
21
-3.90067
0
LINE
8
BLACK
6
CONTINUOUS
10
5.2226
20
-3.90067
11
5.22335
21
-3.90921
0
LINE
8
BLACK
6
CONTINUOUS
10
5.22335
20
-3.90921
11
5.2226
21
-3.91776
0
LINE
8
BLACK
6
CONTINUOUS
10
5.2226
20
-3.91776
11
5.22038
21
-3.92604
0
LINE
8
BLACK
6
CONTINUOUS
10
5.22038
20
-3.92604
11
5.21675
21
-3.93382
0
LINE
8
BLACK
6
CONTINUOUS
10
5.21675
20
-3.93382
11
5.21516
21
-3.9361
0
LINE
8
BLACK
6
CONTINUOUS
10
5.21516
20
-3.9361
11
5.22966
21
-3.9506
0
LINE
8
BLACK
6
CONTINUOUS
10
5.22966
20
-3.9506
11
5.23148
21
-3.94831
0
LINE
8
BLACK
6
CONTINUOUS
10
5.23148
20
-3.94831
11
5.23667
21
-3.93933
0
LINE
8
BLACK
6
CONTINUOUS
10
5.23667
20
-3.93933
11
5.23667
21
-3.93933
0
LINE
8
BLACK
6
CONTINUOUS
10
5.23667
20
-3.93933
11
5.24046
21
-3.92967
0
LINE
8
BLACK
6
CONTINUOUS
10
5.24046
20
-3.92967
11
5.24046
21
-3.92967
0
LINE
8
BLACK
6
CONTINUOUS
10
5.24046
20
-3.92967
11
5.24277
21
-3.91956
0
LINE
8
BLACK
6
CONTINUOUS
10
5.24277
20
-3.91956
11
5.24354
21
-3.90921
0
LINE
8
BLACK
6
CONTINUOUS
10
5.24354
20
-3.90921
11
5.24354
21
-3.90921
0
LINE
8
BLACK
6
CONTINUOUS
10
5.24354
20
-3.90921
11
5.24277
21
-3.89887
0
LINE
8
BLACK
6
CONTINUOUS
10
5.24277
20
-3.89887
11
5.24046
21
-3.88875
0
LINE
8
BLACK
6
CONTINUOUS
10
5.24046
20
-3.88875
11
5.24046
21
-3.88875
0
LINE
8
BLACK
6
CONTINUOUS
10
5.24046
20
-3.88875
11
5.23667
21
-3.8791
0
LINE
8
BLACK
6
CONTINUOUS
10
5.23667
20
-3.8791
11
5.23667
21
-3.8791
0
LINE
8
BLACK
6
CONTINUOUS
10
5.23667
20
-3.8791
11
5.23148
21
-3.87011
0
LINE
8
BLACK
6
CONTINUOUS
10
5.23148
20
-3.87011
11
5.23148
21
-3.87011
0
LINE
8
BLACK
6
CONTINUOUS
10
5.23148
20
-3.87011
11
5.22966
21
-3.86783
0
LINE
8
BLACK
6
CONTINUOUS
10
5.22966
20
-3.86783
11
5.22966
21
-3.86783
0
LINE
8
BLACK
6
CONTINUOUS
10
5.22966
20
-3.86783
11
5.21516
21
-3.88233
0
LINE
8
BLACK
6
CONTINUOUS
10
6.94646
20
-3.88233
11
6.94805
21
-3.88461
0
LINE
8
BLACK
6
CONTINUOUS
10
6.94805
20
-3.88461
11
6.95168
21
-3.89238
0
LINE
8
BLACK
6
CONTINUOUS
10
6.95168
20
-3.89238
11
6.9539
21
-3.90067
0
LINE
8
BLACK
6
CONTINUOUS
10
6.9539
20
-3.90067
11
6.95465
21
-3.90921
0
LINE
8
BLACK
6
CONTINUOUS
10
6.95465
20
-3.90921
11
6.9539
21
-3.91776
0
LINE
8
BLACK
6
CONTINUOUS
10
6.9539
20
-3.91776
11
6.95168
21
-3.92604
0
LINE
8
BLACK
6
CONTINUOUS
10
6.95168
20
-3.92604
11
6.94805
21
-3.93382
0
LINE
8
BLACK
6
CONTINUOUS
10
6.94805
20
-3.93382
11
6.94646
21
-3.9361
0
LINE
8
BLACK
6
CONTINUOUS
10
6.94646
20
-3.9361
11
6.96096
21
-3.9506
0
LINE
8
BLACK
6
CONTINUOUS
10
6.96096
20
-3.9506
11
6.96278
21
-3.94831
0
LINE
8
BLACK
6
CONTINUOUS
10
6.96278
20
-3.94831
11
6.96797
21
-3.93933
0
LINE
8
BLACK
6
CONTINUOUS
10
6.96797
20
-3.93933
11
6.96797
21
-3.93933
0
LINE
8
BLACK
6
CONTINUOUS
10
6.96797
20
-3.93933
11
6.97176
21
-3.92967
0
LINE
8
BLACK
6
CONTINUOUS
10
6.97176
20
-3.92967
11
6.97176
21
-3.92967
0
LINE
8
BLACK
6
CONTINUOUS
10
6.97176
20
-3.92967
11
6.97406
21
-3.91956
0
LINE
8
BLACK
6
CONTINUOUS
10
6.97406
20
-3.91956
11
6.97484
21
-3.90921
0
LINE
8
BLACK
6
CONTINUOUS
10
6.97484
20
-3.90921
11
6.97406
21
-3.89887
0
LINE
8
BLACK
6
CONTINUOUS
10
6.97406
20
-3.89887
11
6.97176
21
-3.88875
0
LINE
8
BLACK
6
CONTINUOUS
10
6.97176
20
-3.88875
11
6.97176
21
-3.88875
0
LINE
8
BLACK
6
CONTINUOUS
10
6.97176
20
-3.88875
11
6.96797
21
-3.8791
0
LINE
8
BLACK
6
CONTINUOUS
10
6.96797
20
-3.8791
11
6.96797
21
-3.8791
0
LINE
8
BLACK
6
CONTINUOUS
10
6.96797
20
-3.8791
11
6.96278
21
-3.87011
0
LINE
8
BLACK
6
CONTINUOUS
10
6.96278
20
-3.87011
11
6.96278
21
-3.87011
0
LINE
8
BLACK
6
CONTINUOUS
10
6.96278
20
-3.87011
11
6.96096
21
-3.86783
0
LINE
8
BLACK
6
CONTINUOUS
10
6.96096
20
-3.86783
11
6.96096
21
-3.86783
0
LINE
8
BLACK
6
CONTINUOUS
10
6.96096
20
-3.86783
11
6.94646
21
-3.88233
0
LINE
8
BLACK
6
CONTINUOUS
10
5.15869
20
-3.84155
11
5.15869
21
-3.84155
0
LINE
8
BLACK
6
CONTINUOUS
10
5.15869
20
-3.84155
11
5.14878
21
-3.8446
0
LINE
8
BLACK
6
CONTINUOUS
10
5.14878
20
-3.8446
11
5.13943
21
-3.8491
0
LINE
8
BLACK
6
CONTINUOUS
10
5.13943
20
-3.8491
11
5.13943
21
-3.8491
0
LINE
8
BLACK
6
CONTINUOUS
10
5.13943
20
-3.8491
11
5.13273
21
-3.85367
0
LINE
8
BLACK
6
CONTINUOUS
10
5.13273
20
-3.85367
11
5.13273
21
-3.85367
0
LINE
8
BLACK
6
CONTINUOUS
10
5.13273
20
-3.85367
11
5.14725
21
-3.86819
0
LINE
8
BLACK
6
CONTINUOUS
10
5.14725
20
-3.86819
11
5.14953
21
-3.86659
0
LINE
8
BLACK
6
CONTINUOUS
10
5.14953
20
-3.86659
11
5.1573
21
-3.86297
0
LINE
8
BLACK
6
CONTINUOUS
10
5.1573
20
-3.86297
11
5.16559
21
-3.86075
0
LINE
8
BLACK
6
CONTINUOUS
10
5.16559
20
-3.86075
11
5.17413
21
-3.86
0
LINE
8
BLACK
6
CONTINUOUS
10
5.17413
20
-3.86
11
5.18268
21
-3.86075
0
LINE
8
BLACK
6
CONTINUOUS
10
5.18268
20
-3.86075
11
5.19097
21
-3.86297
0
LINE
8
BLACK
6
CONTINUOUS
10
5.19097
20
-3.86297
11
5.19874
21
-3.86659
0
LINE
8
BLACK
6
CONTINUOUS
10
5.19874
20
-3.86659
11
5.20102
21
-3.86819
0
LINE
8
BLACK
6
CONTINUOUS
10
5.20102
20
-3.86819
11
5.21553
21
-3.85367
0
LINE
8
BLACK
6
CONTINUOUS
10
5.21553
20
-3.85367
11
5.20884
21
-3.8491
0
LINE
8
BLACK
6
CONTINUOUS
10
5.20884
20
-3.8491
11
5.19949
21
-3.8446
0
LINE
8
BLACK
6
CONTINUOUS
10
5.19949
20
-3.8446
11
5.18958
21
-3.84155
0
LINE
8
BLACK
6
CONTINUOUS
10
5.18958
20
-3.84155
11
5.18958
21
-3.84155
0
LINE
8
BLACK
6
CONTINUOUS
10
5.18958
20
-3.84155
11
5.17932
21
-3.84
0
LINE
8
BLACK
6
CONTINUOUS
10
5.17932
20
-3.84
11
5.16895
21
-3.84
0
LINE
8
BLACK
6
CONTINUOUS
10
5.16895
20
-3.84
11
5.15869
21
-3.84155
0
LINE
8
BLACK
6
CONTINUOUS
10
6.88999
20
-3.84155
11
6.88999
21
-3.84155
0
LINE
8
BLACK
6
CONTINUOUS
10
6.88999
20
-3.84155
11
6.88008
21
-3.8446
0
LINE
8
BLACK
6
CONTINUOUS
10
6.88008
20
-3.8446
11
6.87073
21
-3.8491
0
LINE
8
BLACK
6
CONTINUOUS
10
6.87073
20
-3.8491
11
6.87073
21
-3.8491
0
LINE
8
BLACK
6
CONTINUOUS
10
6.87073
20
-3.8491
11
6.86403
21
-3.85367
0
LINE
8
BLACK
6
CONTINUOUS
10
6.86403
20
-3.85367
11
6.86403
21
-3.85367
0
LINE
8
BLACK
6
CONTINUOUS
10
6.86403
20
-3.85367
11
6.87855
21
-3.86819
0
LINE
8
BLACK
6
CONTINUOUS
10
6.87855
20
-3.86819
11
6.88083
21
-3.86659
0
LINE
8
BLACK
6
CONTINUOUS
10
6.88083
20
-3.86659
11
6.8886
21
-3.86297
0
LINE
8
BLACK
6
CONTINUOUS
10
6.8886
20
-3.86297
11
6.89689
21
-3.86075
0
LINE
8
BLACK
6
CONTINUOUS
10
6.89689
20
-3.86075
11
6.90543
21
-3.86
0
LINE
8
BLACK
6
CONTINUOUS
10
6.90543
20
-3.86
11
6.91398
21
-3.86075
0
LINE
8
BLACK
6
CONTINUOUS
10
6.91398
20
-3.86075
11
6.92226
21
-3.86297
0
LINE
8
BLACK
6
CONTINUOUS
10
6.92226
20
-3.86297
11
6.93004
21
-3.86659
0
LINE
8
BLACK
6
CONTINUOUS
10
6.93004
20
-3.86659
11
6.93232
21
-3.86819
0
LINE
8
BLACK
6
CONTINUOUS
10
6.93232
20
-3.86819
11
6.94683
21
-3.85367
0
LINE
8
BLACK
6
CONTINUOUS
10
6.94683
20
-3.85367
11
6.94014
21
-3.8491
0
LINE
8
BLACK
6
CONTINUOUS
10
6.94014
20
-3.8491
11
6.93079
21
-3.8446
0
LINE
8
BLACK
6
CONTINUOUS
10
6.93079
20
-3.8446
11
6.92088
21
-3.84155
0
LINE
8
BLACK
6
CONTINUOUS
10
6.92088
20
-3.84155
11
6.92088
21
-3.84155
0
LINE
8
BLACK
6
CONTINUOUS
10
6.92088
20
-3.84155
11
6.91062
21
-3.84
0
LINE
8
BLACK
6
CONTINUOUS
10
6.91062
20
-3.84
11
6.90025
21
-3.84
0
LINE
8
BLACK
6
CONTINUOUS
10
6.90025
20
-3.84
11
6.88999
21
-3.84155
0
LINE
8
BLACK
6
CONTINUOUS
10
5.22813
20
-3.81094
11
5.22995
21
-3.81696
0
LINE
8
BLACK
6
CONTINUOUS
10
5.22995
20
-3.81696
11
5.23382
21
-3.8242
0
LINE
8
BLACK
6
CONTINUOUS
10
5.23382
20
-3.8242
11
5.23903
21
-3.83054
0
LINE
8
BLACK
6
CONTINUOUS
10
5.23903
20
-3.83054
11
5.24537
21
-3.83575
0
LINE
8
BLACK
6
CONTINUOUS
10
5.24537
20
-3.83575
11
5.2526
21
-3.83961
0
LINE
8
BLACK
6
CONTINUOUS
10
5.2526
20
-3.83961
11
5.26046
21
-3.842
0
LINE
8
BLACK
6
CONTINUOUS
10
5.26046
20
-3.842
11
5.26046
21
-3.842
0
LINE
8
BLACK
6
CONTINUOUS
10
5.26046
20
-3.842
11
5.26256
21
-3.8422
0
LINE
8
BLACK
6
CONTINUOUS
10
5.26256
20
-3.8422
11
5.26256
21
-3.8422
0
LINE
8
BLACK
6
CONTINUOUS
10
5.26256
20
-3.8422
11
5.26256
21
-3.82152
0
LINE
8
BLACK
6
CONTINUOUS
10
5.26256
20
-3.82152
11
5.26
21
-3.82081
0
LINE
8
BLACK
6
CONTINUOUS
10
5.26
20
-3.82081
11
5.25496
21
-3.81774
0
LINE
8
BLACK
6
CONTINUOUS
10
5.25496
20
-3.81774
11
5.25093
21
-3.81343
0
LINE
8
BLACK
6
CONTINUOUS
10
5.25093
20
-3.81343
11
5.24964
21
-3.81094
0
LINE
8
BLACK
6
CONTINUOUS
10
5.24964
20
-3.81094
11
5.22813
21
-3.81094
0
LINE
8
BLACK
6
CONTINUOUS
10
5.29232
20
-3.81572
11
5.28775
21
-3.81945
0
LINE
8
BLACK
6
CONTINUOUS
10
5.28775
20
-3.81945
11
5.28256
21
-3.8217
0
LINE
8
BLACK
6
CONTINUOUS
10
5.28256
20
-3.8217
11
5.28256
21
-3.8422
0
LINE
8
BLACK
6
CONTINUOUS
10
5.28256
20
-3.8422
11
5.28256
21
-3.8422
0
LINE
8
BLACK
6
CONTINUOUS
10
5.28256
20
-3.8422
11
5.28466
21
-3.842
0
LINE
8
BLACK
6
CONTINUOUS
10
5.28466
20
-3.842
11
5.28466
21
-3.842
0
LINE
8
BLACK
6
CONTINUOUS
10
5.28466
20
-3.842
11
5.29251
21
-3.83961
0
LINE
8
BLACK
6
CONTINUOUS
10
5.29251
20
-3.83961
11
5.29975
21
-3.83575
0
LINE
8
BLACK
6
CONTINUOUS
10
5.29975
20
-3.83575
11
5.30609
21
-3.83054
0
LINE
8
BLACK
6
CONTINUOUS
10
5.30609
20
-3.83054
11
5.3113
21
-3.8242
0
LINE
8
BLACK
6
CONTINUOUS
10
5.3113
20
-3.8242
11
5.31517
21
-3.81696
0
LINE
8
BLACK
6
CONTINUOUS
10
5.31517
20
-3.81696
11
5.31699
21
-3.81094
0
LINE
8
BLACK
6
CONTINUOUS
10
5.31699
20
-3.81094
11
5.2957
21
-3.81094
0
LINE
8
BLACK
6
CONTINUOUS
10
5.2957
20
-3.81094
11
5.29232
21
-3.81572
0
LINE
8
BLACK
6
CONTINUOUS
10
6.95943
20
-3.81094
11
6.96125
21
-3.81696
0
LINE
8
BLACK
6
CONTINUOUS
10
6.96125
20
-3.81696
11
6.96512
21
-3.8242
0
LINE
8
BLACK
6
CONTINUOUS
10
6.96512
20
-3.8242
11
6.97033
21
-3.83054
0
LINE
8
BLACK
6
CONTINUOUS
10
6.97033
20
-3.83054
11
6.97667
21
-3.83575
0
LINE
8
BLACK
6
CONTINUOUS
10
6.97667
20
-3.83575
11
6.9839
21
-3.83961
0
LINE
8
BLACK
6
CONTINUOUS
10
6.9839
20
-3.83961
11
6.99176
21
-3.842
0
LINE
8
BLACK
6
CONTINUOUS
10
6.99176
20
-3.842
11
6.99176
21
-3.842
0
LINE
8
BLACK
6
CONTINUOUS
10
6.99176
20
-3.842
11
6.99386
21
-3.8422
0
LINE
8
BLACK
6
CONTINUOUS
10
6.99386
20
-3.8422
11
6.99386
21
-3.82152
0
LINE
8
BLACK
6
CONTINUOUS
10
6.99386
20
-3.82152
11
6.99129
21
-3.82081
0
LINE
8
BLACK
6
CONTINUOUS
10
6.99129
20
-3.82081
11
6.98626
21
-3.81774
0
LINE
8
BLACK
6
CONTINUOUS
10
6.98626
20
-3.81774
11
6.98223
21
-3.81343
0
LINE
8
BLACK
6
CONTINUOUS
10
6.98223
20
-3.81343
11
6.98094
21
-3.81094
0
LINE
8
BLACK
6
CONTINUOUS
10
6.98094
20
-3.81094
11
6.95943
21
-3.81094
0
LINE
8
BLACK
6
CONTINUOUS
10
7.02362
20
-3.81572
11
7.01905
21
-3.81945
0
LINE
8
BLACK
6
CONTINUOUS
10
7.01905
20
-3.81945
11
7.01386
21
-3.8217
0
LINE
8
BLACK
6
CONTINUOUS
10
7.01386
20
-3.8217
11
7.01386
21
-3.8422
0
LINE
8
BLACK
6
CONTINUOUS
10
7.01386
20
-3.8422
11
7.01596
21
-3.842
0
LINE
8
BLACK
6
CONTINUOUS
10
7.01596
20
-3.842
11
7.01596
21
-3.842
0
LINE
8
BLACK
6
CONTINUOUS
10
7.01596
20
-3.842
11
7.02381
21
-3.83961
0
LINE
8
BLACK
6
CONTINUOUS
10
7.02381
20
-3.83961
11
7.03105
21
-3.83575
0
LINE
8
BLACK
6
CONTINUOUS
10
7.03105
20
-3.83575
11
7.03739
21
-3.83054
0
LINE
8
BLACK
6
CONTINUOUS
10
7.03739
20
-3.83054
11
7.0426
21
-3.8242
0
LINE
8
BLACK
6
CONTINUOUS
10
7.0426
20
-3.8242
11
7.04646
21
-3.81696
0
LINE
8
BLACK
6
CONTINUOUS
10
7.04646
20
-3.81696
11
7.04829
21
-3.81094
0
LINE
8
BLACK
6
CONTINUOUS
10
7.04829
20
-3.81094
11
7.02699
21
-3.81094
0
LINE
8
BLACK
6
CONTINUOUS
10
7.02699
20
-3.81094
11
7.02362
21
-3.81572
0
LINE
8
BLACK
6
CONTINUOUS
10
5.2014
20
-3.65987
11
5.19354
21
-3.66226
0
LINE
8
BLACK
6
CONTINUOUS
10
5.19354
20
-3.66226
11
5.1863
21
-3.66613
0
LINE
8
BLACK
6
CONTINUOUS
10
5.1863
20
-3.66613
11
5.17996
21
-3.67133
0
LINE
8
BLACK
6
CONTINUOUS
10
5.17996
20
-3.67133
11
5.17475
21
-3.67768
0
LINE
8
BLACK
6
CONTINUOUS
10
5.17475
20
-3.67768
11
5.17088
21
-3.68492
0
LINE
8
BLACK
6
CONTINUOUS
10
5.17088
20
-3.68492
11
5.1685
21
-3.69278
0
LINE
8
BLACK
6
CONTINUOUS
10
5.1685
20
-3.69278
11
5.16769
21
-3.70094
0
LINE
8
BLACK
6
CONTINUOUS
10
5.16769
20
-3.70094
11
5.16769
21
-3.70094
0
LINE
8
BLACK
6
CONTINUOUS
10
5.16769
20
-3.70094
11
5.1685
21
-3.70911
0
LINE
8
BLACK
6
CONTINUOUS
10
5.1685
20
-3.70911
11
5.17088
21
-3.71697
0
LINE
8
BLACK
6
CONTINUOUS
10
5.17088
20
-3.71697
11
5.17443
21
-3.72361
0
LINE
8
BLACK
6
CONTINUOUS
10
5.17443
20
-3.72361
11
5.175
21
-3.72634
0
LINE
8
BLACK
6
CONTINUOUS
10
5.175
20
-3.72634
11
5.17443
21
-3.72828
0
LINE
8
BLACK
6
CONTINUOUS
10
5.17443
20
-3.72828
11
5.17088
21
-3.73492
0
LINE
8
BLACK
6
CONTINUOUS
10
5.17088
20
-3.73492
11
5.1685
21
-3.74278
0
LINE
8
BLACK
6
CONTINUOUS
10
5.1685
20
-3.74278
11
5.16769
21
-3.75094
0
LINE
8
BLACK
6
CONTINUOUS
10
5.16769
20
-3.75094
11
5.16769
21
-3.75094
0
LINE
8
BLACK
6
CONTINUOUS
10
5.16769
20
-3.75094
11
5.1685
21
-3.75911
0
LINE
8
BLACK
6
CONTINUOUS
10
5.1685
20
-3.75911
11
5.1685
21
-3.75911
0
LINE
8
BLACK
6
CONTINUOUS
10
5.1685
20
-3.75911
11
5.1685
21
-3.75911
0
LINE
8
BLACK
6
CONTINUOUS
10
5.1685
20
-3.75911
11
5.17088
21
-3.76697
0
LINE
8
BLACK
6
CONTINUOUS
10
5.17088
20
-3.76697
11
5.17475
21
-3.77421
0
LINE
8
BLACK
6
CONTINUOUS
10
5.17475
20
-3.77421
11
5.17996
21
-3.78055
0
LINE
8
BLACK
6
CONTINUOUS
10
5.17996
20
-3.78055
11
5.1863
21
-3.78576
0
LINE
8
BLACK
6
CONTINUOUS
10
5.1863
20
-3.78576
11
5.19354
21
-3.78963
0
LINE
8
BLACK
6
CONTINUOUS
10
5.19354
20
-3.78963
11
5.2014
21
-3.79202
0
LINE
8
BLACK
6
CONTINUOUS
10
5.2014
20
-3.79202
11
5.2014
21
-3.79202
0
LINE
8
BLACK
6
CONTINUOUS
10
5.2014
20
-3.79202
11
5.2014
21
-3.79202
0
LINE
8
BLACK
6
CONTINUOUS
10
5.2014
20
-3.79202
11
5.20588
21
-3.79246
0
LINE
8
BLACK
6
CONTINUOUS
10
5.20588
20
-3.79246
11
5.20752
21
-3.79262
0
LINE
8
BLACK
6
CONTINUOUS
10
5.20752
20
-3.79262
11
5.20752
21
-3.79262
0
LINE
8
BLACK
6
CONTINUOUS
10
5.20752
20
-3.79262
11
5.21949
21
-3.79262
0
LINE
8
BLACK
6
CONTINUOUS
10
5.21949
20
-3.79262
11
5.21949
21
-3.79262
0
LINE
8
BLACK
6
CONTINUOUS
10
5.21949
20
-3.79262
11
5.22158
21
-3.79241
0
LINE
8
BLACK
6
CONTINUOUS
10
5.22158
20
-3.79241
11
5.22561
21
-3.79202
0
LINE
8
BLACK
6
CONTINUOUS
10
5.22561
20
-3.79202
11
5.22561
21
-3.79202
0
LINE
8
BLACK
6
CONTINUOUS
10
5.22561
20
-3.79202
11
5.22561
21
-3.79202
0
LINE
8
BLACK
6
CONTINUOUS
10
5.22561
20
-3.79202
11
5.22749
21
-3.79144
0
LINE
8
BLACK
6
CONTINUOUS
10
5.22749
20
-3.79144
11
5.22843
21
-3.79116
0
LINE
8
BLACK
6
CONTINUOUS
10
5.22843
20
-3.79116
11
5.22987
21
-3.79094
0
LINE
8
BLACK
6
CONTINUOUS
10
5.22987
20
-3.79094
11
5.24942
21
-3.79094
0
LINE
8
BLACK
6
CONTINUOUS
10
5.24942
20
-3.79094
11
5.2528
21
-3.78617
0
LINE
8
BLACK
6
CONTINUOUS
10
5.2528
20
-3.78617
11
5.25737
21
-3.78244
0
LINE
8
BLACK
6
CONTINUOUS
10
5.25737
20
-3.78244
11
5.26256
21
-3.78019
0
LINE
8
BLACK
6
CONTINUOUS
10
5.26256
20
-3.78019
11
5.26256
21
-3.75969
0
LINE
8
BLACK
6
CONTINUOUS
10
5.26256
20
-3.75969
11
5.26181
21
-3.759
0
LINE
8
BLACK
6
CONTINUOUS
10
5.26181
20
-3.759
11
5.26168
21
-3.75898
0
LINE
8
BLACK
6
CONTINUOUS
10
5.26168
20
-3.75898
11
5.25965
21
-3.75706
0
LINE
8
BLACK
6
CONTINUOUS
10
5.25965
20
-3.75706
11
5.25899
21
-3.75434
0
LINE
8
BLACK
6
CONTINUOUS
10
5.25899
20
-3.75434
11
5.25901
21
-3.75408
0
LINE
8
BLACK
6
CONTINUOUS
10
5.25901
20
-3.75408
11
5.25932
21
-3.75094
0
LINE
8
BLACK
6
CONTINUOUS
10
5.25932
20
-3.75094
11
5.25932
21
-3.75094
0
LINE
8
BLACK
6
CONTINUOUS
10
5.25932
20
-3.75094
11
5.25851
21
-3.74278
0
LINE
8
BLACK
6
CONTINUOUS
10
5.25851
20
-3.74278
11
5.25851
21
-3.74278
0
LINE
8
BLACK
6
CONTINUOUS
10
5.25851
20
-3.74278
11
5.25851
21
-3.74278
0
LINE
8
BLACK
6
CONTINUOUS
10
5.25851
20
-3.74278
11
5.25613
21
-3.73492
0
LINE
8
BLACK
6
CONTINUOUS
10
5.25613
20
-3.73492
11
5.25258
21
-3.72828
0
LINE
8
BLACK
6
CONTINUOUS
10
5.25258
20
-3.72828
11
5.25201
21
-3.72555
0
LINE
8
BLACK
6
CONTINUOUS
10
5.25201
20
-3.72555
11
5.25258
21
-3.72361
0
LINE
8
BLACK
6
CONTINUOUS
10
5.25258
20
-3.72361
11
5.25613
21
-3.71697
0
LINE
8
BLACK
6
CONTINUOUS
10
5.25613
20
-3.71697
11
5.25851
21
-3.70911
0
LINE
8
BLACK
6
CONTINUOUS
10
5.25851
20
-3.70911
11
5.25932
21
-3.70094
0
LINE
8
BLACK
6
CONTINUOUS
10
5.25932
20
-3.70094
11
5.25901
21
-3.69781
0
LINE
8
BLACK
6
CONTINUOUS
10
5.25901
20
-3.69781
11
5.25953
21
-3.69506
0
LINE
8
BLACK
6
CONTINUOUS
10
5.25953
20
-3.69506
11
5.26145
21
-3.69304
0
LINE
8
BLACK
6
CONTINUOUS
10
5.26145
20
-3.69304
11
5.26171
21
-3.69297
0
LINE
8
BLACK
6
CONTINUOUS
10
5.26171
20
-3.69297
11
5.26256
21
-3.6922
0
LINE
8
BLACK
6
CONTINUOUS
10
5.26256
20
-3.6922
11
5.26256
21
-3.67152
0
LINE
8
BLACK
6
CONTINUOUS
10
5.26256
20
-3.67152
11
5.26
21
-3.67081
0
LINE
8
BLACK
6
CONTINUOUS
10
5.26
20
-3.67081
11
5.25496
21
-3.66774
0
LINE
8
BLACK
6
CONTINUOUS
10
5.25496
20
-3.66774
11
5.25093
21
-3.66343
0
LINE
8
BLACK
6
CONTINUOUS
10
5.25093
20
-3.66343
11
5.24964
21
-3.66094
0
LINE
8
BLACK
6
CONTINUOUS
10
5.24964
20
-3.66094
11
5.22987
21
-3.66094
0
LINE
8
BLACK
6
CONTINUOUS
10
5.22987
20
-3.66094
11
5.22843
21
-3.66073
0
LINE
8
BLACK
6
CONTINUOUS
10
5.22843
20
-3.66073
11
5.22654
21
-3.66016
0
LINE
8
BLACK
6
CONTINUOUS
10
5.22654
20
-3.66016
11
5.22561
21
-3.65987
0
LINE
8
BLACK
6
CONTINUOUS
10
5.22561
20
-3.65987
11
5.22561
21
-3.65987
0
LINE
8
BLACK
6
CONTINUOUS
10
5.22561
20
-3.65987
11
5.22561
21
-3.65987
0
LINE
8
BLACK
6
CONTINUOUS
10
5.22561
20
-3.65987
11
5.22561
21
-3.65987
0
LINE
8
BLACK
6
CONTINUOUS
10
5.22561
20
-3.65987
11
5.21949
21
-3.65927
0
LINE
8
BLACK
6
CONTINUOUS
10
5.21949
20
-3.65927
11
5.21949
21
-3.65927
0
LINE
8
BLACK
6
CONTINUOUS
10
5.21949
20
-3.65927
11
5.20752
21
-3.65927
0
LINE
8
BLACK
6
CONTINUOUS
10
5.20752
20
-3.65927
11
5.20752
21
-3.65927
0
LINE
8
BLACK
6
CONTINUOUS
10
5.20752
20
-3.65927
11
5.2014
21
-3.65987
0
LINE
8
BLACK
6
CONTINUOUS
10
6.9327
20
-3.65987
11
6.92484
21
-3.66226
0
LINE
8
BLACK
6
CONTINUOUS
10
6.92484
20
-3.66226
11
6.9176
21
-3.66613
0
LINE
8
BLACK
6
CONTINUOUS
10
6.9176
20
-3.66613
11
6.91126
21
-3.67133
0
LINE
8
BLACK
6
CONTINUOUS
10
6.91126
20
-3.67133
11
6.90605
21
-3.67768
0
LINE
8
BLACK
6
CONTINUOUS
10
6.90605
20
-3.67768
11
6.90218
21
-3.68492
0
LINE
8
BLACK
6
CONTINUOUS
10
6.90218
20
-3.68492
11
6.8998
21
-3.69278
0
LINE
8
BLACK
6
CONTINUOUS
10
6.8998
20
-3.69278
11
6.89899
21
-3.70094
0
LINE
8
BLACK
6
CONTINUOUS
10
6.89899
20
-3.70094
11
6.89899
21
-3.70094
0
LINE
8
BLACK
6
CONTINUOUS
10
6.89899
20
-3.70094
11
6.8998
21
-3.70911
0
LINE
8
BLACK
6
CONTINUOUS
10
6.8998
20
-3.70911
11
6.90218
21
-3.71697
0
LINE
8
BLACK
6
CONTINUOUS
10
6.90218
20
-3.71697
11
6.90573
21
-3.72361
0
LINE
8
BLACK
6
CONTINUOUS
10
6.90573
20
-3.72361
11
6.9063
21
-3.72634
0
LINE
8
BLACK
6
CONTINUOUS
10
6.9063
20
-3.72634
11
6.90573
21
-3.72828
0
LINE
8
BLACK
6
CONTINUOUS
10
6.90573
20
-3.72828
11
6.90218
21
-3.73492
0
LINE
8
BLACK
6
CONTINUOUS
10
6.90218
20
-3.73492
11
6.8998
21
-3.74278
0
LINE
8
BLACK
6
CONTINUOUS
10
6.8998
20
-3.74278
11
6.89899
21
-3.75094
0
LINE
8
BLACK
6
CONTINUOUS
10
6.89899
20
-3.75094
11
6.89899
21
-3.75094
0
LINE
8
BLACK
6
CONTINUOUS
10
6.89899
20
-3.75094
11
6.8998
21
-3.75911
0
LINE
8
BLACK
6
CONTINUOUS
10
6.8998
20
-3.75911
11
6.8998
21
-3.75911
0
LINE
8
BLACK
6
CONTINUOUS
10
6.8998
20
-3.75911
11
6.8998
21
-3.75911
0
LINE
8
BLACK
6
CONTINUOUS
10
6.8998
20
-3.75911
11
6.90218
21
-3.76697
0
LINE
8
BLACK
6
CONTINUOUS
10
6.90218
20
-3.76697
11
6.90605
21
-3.77421
0
LINE
8
BLACK
6
CONTINUOUS
10
6.90605
20
-3.77421
11
6.91126
21
-3.78055
0
LINE
8
BLACK
6
CONTINUOUS
10
6.91126
20
-3.78055
11
6.9176
21
-3.78576
0
LINE
8
BLACK
6
CONTINUOUS
10
6.9176
20
-3.78576
11
6.92484
21
-3.78963
0
LINE
8
BLACK
6
CONTINUOUS
10
6.92484
20
-3.78963
11
6.9327
21
-3.79202
0
LINE
8
BLACK
6
CONTINUOUS
10
6.9327
20
-3.79202
11
6.9327
21
-3.79202
0
LINE
8
BLACK
6
CONTINUOUS
10
6.9327
20
-3.79202
11
6.9327
21
-3.79202
0
LINE
8
BLACK
6
CONTINUOUS
10
6.9327
20
-3.79202
11
6.93718
21
-3.79246
0
LINE
8
BLACK
6
CONTINUOUS
10
6.93718
20
-3.79246
11
6.93882
21
-3.79262
0
LINE
8
BLACK
6
CONTINUOUS
10
6.93882
20
-3.79262
11
6.93882
21
-3.79262
0
LINE
8
BLACK
6
CONTINUOUS
10
6.93882
20
-3.79262
11
6.95079
21
-3.79262
0
LINE
8
BLACK
6
CONTINUOUS
10
6.95079
20
-3.79262
11
6.95079
21
-3.79262
0
LINE
8
BLACK
6
CONTINUOUS
10
6.95079
20
-3.79262
11
6.95288
21
-3.79241
0
LINE
8
BLACK
6
CONTINUOUS
10
6.95288
20
-3.79241
11
6.95691
21
-3.79202
0
LINE
8
BLACK
6
CONTINUOUS
10
6.95691
20
-3.79202
11
6.95691
21
-3.79202
0
LINE
8
BLACK
6
CONTINUOUS
10
6.95691
20
-3.79202
11
6.95691
21
-3.79202
0
LINE
8
BLACK
6
CONTINUOUS
10
6.95691
20
-3.79202
11
6.95879
21
-3.79144
0
LINE
8
BLACK
6
CONTINUOUS
10
6.95879
20
-3.79144
11
6.95973
21
-3.79116
0
LINE
8
BLACK
6
CONTINUOUS
10
6.95973
20
-3.79116
11
6.96117
21
-3.79094
0
LINE
8
BLACK
6
CONTINUOUS
10
6.96117
20
-3.79094
11
6.98072
21
-3.79094
0
LINE
8
BLACK
6
CONTINUOUS
10
6.98072
20
-3.79094
11
6.9841
21
-3.78617
0
LINE
8
BLACK
6
CONTINUOUS
10
6.9841
20
-3.78617
11
6.98867
21
-3.78244
0
LINE
8
BLACK
6
CONTINUOUS
10
6.98867
20
-3.78244
11
6.99386
21
-3.78019
0
LINE
8
BLACK
6
CONTINUOUS
10
6.99386
20
-3.78019
11
6.99386
21
-3.75969
0
LINE
8
BLACK
6
CONTINUOUS
10
6.99386
20
-3.75969
11
6.99311
21
-3.759
0
LINE
8
BLACK
6
CONTINUOUS
10
6.99311
20
-3.759
11
6.99298
21
-3.75898
0
LINE
8
BLACK
6
CONTINUOUS
10
6.99298
20
-3.75898
11
6.99095
21
-3.75706
0
LINE
8
BLACK
6
CONTINUOUS
10
6.99095
20
-3.75706
11
6.99029
21
-3.75434
0
LINE
8
BLACK
6
CONTINUOUS
10
6.99029
20
-3.75434
11
6.99031
21
-3.75408
0
LINE
8
BLACK
6
CONTINUOUS
10
6.99031
20
-3.75408
11
6.99062
21
-3.75094
0
LINE
8
BLACK
6
CONTINUOUS
10
6.99062
20
-3.75094
11
6.99062
21
-3.75094
0
LINE
8
BLACK
6
CONTINUOUS
10
6.99062
20
-3.75094
11
6.98981
21
-3.74278
0
LINE
8
BLACK
6
CONTINUOUS
10
6.98981
20
-3.74278
11
6.98981
21
-3.74278
0
LINE
8
BLACK
6
CONTINUOUS
10
6.98981
20
-3.74278
11
6.98981
21
-3.74278
0
LINE
8
BLACK
6
CONTINUOUS
10
6.98981
20
-3.74278
11
6.98743
21
-3.73492
0
LINE
8
BLACK
6
CONTINUOUS
10
6.98743
20
-3.73492
11
6.98388
21
-3.72828
0
LINE
8
BLACK
6
CONTINUOUS
10
6.98388
20
-3.72828
11
6.98331
21
-3.72555
0
LINE
8
BLACK
6
CONTINUOUS
10
6.98331
20
-3.72555
11
6.98388
21
-3.72361
0
LINE
8
BLACK
6
CONTINUOUS
10
6.98388
20
-3.72361
11
6.98743
21
-3.71697
0
LINE
8
BLACK
6
CONTINUOUS
10
6.98743
20
-3.71697
11
6.98981
21
-3.70911
0
LINE
8
BLACK
6
CONTINUOUS
10
6.98981
20
-3.70911
11
6.99062
21
-3.70094
0
LINE
8
BLACK
6
CONTINUOUS
10
6.99062
20
-3.70094
11
6.99031
21
-3.69781
0
LINE
8
BLACK
6
CONTINUOUS
10
6.99031
20
-3.69781
11
6.99083
21
-3.69506
0
LINE
8
BLACK
6
CONTINUOUS
10
6.99083
20
-3.69506
11
6.99275
21
-3.69304
0
LINE
8
BLACK
6
CONTINUOUS
10
6.99275
20
-3.69304
11
6.99301
21
-3.69297
0
LINE
8
BLACK
6
CONTINUOUS
10
6.99301
20
-3.69297
11
6.99386
21
-3.6922
0
LINE
8
BLACK
6
CONTINUOUS
10
6.99386
20
-3.6922
11
6.99386
21
-3.67152
0
LINE
8
BLACK
6
CONTINUOUS
10
6.99386
20
-3.67152
11
6.99129
21
-3.67081
0
LINE
8
BLACK
6
CONTINUOUS
10
6.99129
20
-3.67081
11
6.98626
21
-3.66774
0
LINE
8
BLACK
6
CONTINUOUS
10
6.98626
20
-3.66774
11
6.98223
21
-3.66343
0
LINE
8
BLACK
6
CONTINUOUS
10
6.98223
20
-3.66343
11
6.98094
21
-3.66094
0
LINE
8
BLACK
6
CONTINUOUS
10
6.98094
20
-3.66094
11
6.96117
21
-3.66094
0
LINE
8
BLACK
6
CONTINUOUS
10
6.96117
20
-3.66094
11
6.95973
21
-3.66073
0
LINE
8
BLACK
6
CONTINUOUS
10
6.95973
20
-3.66073
11
6.95784
21
-3.66016
0
LINE
8
BLACK
6
CONTINUOUS
10
6.95784
20
-3.66016
11
6.95691
21
-3.65987
0
LINE
8
BLACK
6
CONTINUOUS
10
6.95691
20
-3.65987
11
6.95691
21
-3.65987
0
LINE
8
BLACK
6
CONTINUOUS
10
6.95691
20
-3.65987
11
6.95691
21
-3.65987
0
LINE
8
BLACK
6
CONTINUOUS
10
6.95691
20
-3.65987
11
6.95691
21
-3.65987
0
LINE
8
BLACK
6
CONTINUOUS
10
6.95691
20
-3.65987
11
6.95079
21
-3.65927
0
LINE
8
BLACK
6
CONTINUOUS
10
6.95079
20
-3.65927
11
6.95079
21
-3.65927
0
LINE
8
BLACK
6
CONTINUOUS
10
6.95079
20
-3.65927
11
6.93882
21
-3.65927
0
LINE
8
BLACK
6
CONTINUOUS
10
6.93882
20
-3.65927
11
6.93882
21
-3.65927
0
LINE
8
BLACK
6
CONTINUOUS
10
6.93882
20
-3.65927
11
6.9327
21
-3.65987
0
LINE
8
BLACK
6
CONTINUOUS
10
7.01386
20
-3.75969
11
7.01386
21
-3.78037
0
LINE
8
BLACK
6
CONTINUOUS
10
7.01386
20
-3.78037
11
7.01642
21
-3.78108
0
LINE
8
BLACK
6
CONTINUOUS
10
7.01642
20
-3.78108
11
7.02146
21
-3.78415
0
LINE
8
BLACK
6
CONTINUOUS
10
7.02146
20
-3.78415
11
7.02549
21
-3.78846
0
LINE
8
BLACK
6
CONTINUOUS
10
7.02549
20
-3.78846
11
7.02677
21
-3.79094
0
LINE
8
BLACK
6
CONTINUOUS
10
7.02677
20
-3.79094
11
7.04829
21
-3.79094
0
LINE
8
BLACK
6
CONTINUOUS
10
7.04829
20
-3.79094
11
7.04646
21
-3.78493
0
LINE
8
BLACK
6
CONTINUOUS
10
7.04646
20
-3.78493
11
7.0426
21
-3.77769
0
LINE
8
BLACK
6
CONTINUOUS
10
7.0426
20
-3.77769
11
7.03739
21
-3.77135
0
LINE
8
BLACK
6
CONTINUOUS
10
7.03739
20
-3.77135
11
7.03105
21
-3.76614
0
LINE
8
BLACK
6
CONTINUOUS
10
7.03105
20
-3.76614
11
7.02381
21
-3.76228
0
LINE
8
BLACK
6
CONTINUOUS
10
7.02381
20
-3.76228
11
7.01596
21
-3.75989
0
LINE
8
BLACK
6
CONTINUOUS
10
7.01596
20
-3.75989
11
7.01596
21
-3.75989
0
LINE
8
BLACK
6
CONTINUOUS
10
7.01596
20
-3.75989
11
7.01386
21
-3.75969
0
LINE
8
BLACK
6
CONTINUOUS
10
7.01386
20
-3.75969
11
7.01386
21
-3.75969
0
LINE
8
BLACK
6
CONTINUOUS
10
5.28256
20
-3.75969
11
5.28256
21
-3.78037
0
LINE
8
BLACK
6
CONTINUOUS
10
5.28256
20
-3.78037
11
5.28512
21
-3.78108
0
LINE
8
BLACK
6
CONTINUOUS
10
5.28512
20
-3.78108
11
5.29016
21
-3.78415
0
LINE
8
BLACK
6
CONTINUOUS
10
5.29016
20
-3.78415
11
5.29419
21
-3.78846
0
LINE
8
BLACK
6
CONTINUOUS
10
5.29419
20
-3.78846
11
5.29548
21
-3.79094
0
LINE
8
BLACK
6
CONTINUOUS
10
5.29548
20
-3.79094
11
5.31699
21
-3.79094
0
LINE
8
BLACK
6
CONTINUOUS
10
5.31699
20
-3.79094
11
5.31517
21
-3.78493
0
LINE
8
BLACK
6
CONTINUOUS
10
5.31517
20
-3.78493
11
5.3113
21
-3.77769
0
LINE
8
BLACK
6
CONTINUOUS
10
5.3113
20
-3.77769
11
5.30609
21
-3.77135
0
LINE
8
BLACK
6
CONTINUOUS
10
5.30609
20
-3.77135
11
5.29975
21
-3.76614
0
LINE
8
BLACK
6
CONTINUOUS
10
5.29975
20
-3.76614
11
5.29251
21
-3.76228
0
LINE
8
BLACK
6
CONTINUOUS
10
5.29251
20
-3.76228
11
5.28466
21
-3.75989
0
LINE
8
BLACK
6
CONTINUOUS
10
5.28466
20
-3.75989
11
5.28466
21
-3.75989
0
LINE
8
BLACK
6
CONTINUOUS
10
5.28466
20
-3.75989
11
5.28256
21
-3.75969
0
LINE
8
BLACK
6
CONTINUOUS
10
5.28256
20
-3.75969
11
5.28256
21
-3.75969
0
LINE
8
BLACK
6
CONTINUOUS
10
5.29232
20
-3.66572
11
5.28775
21
-3.66945
0
LINE
8
BLACK
6
CONTINUOUS
10
5.28775
20
-3.66945
11
5.28256
21
-3.6717
0
LINE
8
BLACK
6
CONTINUOUS
10
5.28256
20
-3.6717
11
5.28256
21
-3.6922
0
LINE
8
BLACK
6
CONTINUOUS
10
5.28256
20
-3.6922
11
5.28256
21
-3.6922
0
LINE
8
BLACK
6
CONTINUOUS
10
5.28256
20
-3.6922
11
5.28466
21
-3.692
0
LINE
8
BLACK
6
CONTINUOUS
10
5.28466
20
-3.692
11
5.28466
21
-3.692
0
LINE
8
BLACK
6
CONTINUOUS
10
5.28466
20
-3.692
11
5.29251
21
-3.68961
0
LINE
8
BLACK
6
CONTINUOUS
10
5.29251
20
-3.68961
11
5.29975
21
-3.68575
0
LINE
8
BLACK
6
CONTINUOUS
10
5.29975
20
-3.68575
11
5.30609
21
-3.68054
0
LINE
8
BLACK
6
CONTINUOUS
10
5.30609
20
-3.68054
11
5.3113
21
-3.6742
0
LINE
8
BLACK
6
CONTINUOUS
10
5.3113
20
-3.6742
11
5.31517
21
-3.66696
0
LINE
8
BLACK
6
CONTINUOUS
10
5.31517
20
-3.66696
11
5.31699
21
-3.66094
0
LINE
8
BLACK
6
CONTINUOUS
10
5.31699
20
-3.66094
11
5.2957
21
-3.66094
0
LINE
8
BLACK
6
CONTINUOUS
10
5.2957
20
-3.66094
11
5.29232
21
-3.66572
0
LINE
8
BLACK
6
CONTINUOUS
10
7.02362
20
-3.66572
11
7.01905
21
-3.66945
0
LINE
8
BLACK
6
CONTINUOUS
10
7.01905
20
-3.66945
11
7.01386
21
-3.6717
0
LINE
8
BLACK
6
CONTINUOUS
10
7.01386
20
-3.6717
11
7.01386
21
-3.6922
0
LINE
8
BLACK
6
CONTINUOUS
10
7.01386
20
-3.6922
11
7.01596
21
-3.692
0
LINE
8
BLACK
6
CONTINUOUS
10
7.01596
20
-3.692
11
7.01596
21
-3.692
0
LINE
8
BLACK
6
CONTINUOUS
10
7.01596
20
-3.692
11
7.02381
21
-3.68961
0
LINE
8
BLACK
6
CONTINUOUS
10
7.02381
20
-3.68961
11
7.03105
21
-3.68575
0
LINE
8
BLACK
6
CONTINUOUS
10
7.03105
20
-3.68575
11
7.03739
21
-3.68054
0
LINE
8
BLACK
6
CONTINUOUS
10
7.03739
20
-3.68054
11
7.0426
21
-3.6742
0
LINE
8
BLACK
6
CONTINUOUS
10
7.0426
20
-3.6742
11
7.04646
21
-3.66696
0
LINE
8
BLACK
6
CONTINUOUS
10
7.04646
20
-3.66696
11
7.04829
21
-3.66094
0
LINE
8
BLACK
6
CONTINUOUS
10
7.04829
20
-3.66094
11
7.02699
21
-3.66094
0
LINE
8
BLACK
6
CONTINUOUS
10
7.02699
20
-3.66094
11
7.02362
21
-3.66572
0
LINE
8
BLACK
6
CONTINUOUS
10
5.2014
20
-3.50987
11
5.19354
21
-3.51226
0
LINE
8
BLACK
6
CONTINUOUS
10
5.19354
20
-3.51226
11
5.1863
21
-3.51613
0
LINE
8
BLACK
6
CONTINUOUS
10
5.1863
20
-3.51613
11
5.17996
21
-3.52133
0
LINE
8
BLACK
6
CONTINUOUS
10
5.17996
20
-3.52133
11
5.17475
21
-3.52768
0
LINE
8
BLACK
6
CONTINUOUS
10
5.17475
20
-3.52768
11
5.17088
21
-3.53492
0
LINE
8
BLACK
6
CONTINUOUS
10
5.17088
20
-3.53492
11
5.1685
21
-3.54278
0
LINE
8
BLACK
6
CONTINUOUS
10
5.1685
20
-3.54278
11
5.16769
21
-3.55094
0
LINE
8
BLACK
6
CONTINUOUS
10
5.16769
20
-3.55094
11
5.16769
21
-3.55095
0
LINE
8
BLACK
6
CONTINUOUS
10
5.16769
20
-3.55095
11
5.1685
21
-3.55911
0
LINE
8
BLACK
6
CONTINUOUS
10
5.1685
20
-3.55911
11
5.1685
21
-3.55911
0
LINE
8
BLACK
6
CONTINUOUS
10
5.1685
20
-3.55911
11
5.1685
21
-3.55911
0
LINE
8
BLACK
6
CONTINUOUS
10
5.1685
20
-3.55911
11
5.17088
21
-3.56697
0
LINE
8
BLACK
6
CONTINUOUS
10
5.17088
20
-3.56697
11
5.17443
21
-3.57361
0
LINE
8
BLACK
6
CONTINUOUS
10
5.17443
20
-3.57361
11
5.175
21
-3.57634
0
LINE
8
BLACK
6
CONTINUOUS
10
5.175
20
-3.57634
11
5.17443
21
-3.57828
0
LINE
8
BLACK
6
CONTINUOUS
10
5.17443
20
-3.57828
11
5.17088
21
-3.58492
0
LINE
8
BLACK
6
CONTINUOUS
10
5.17088
20
-3.58492
11
5.1685
21
-3.59278
0
LINE
8
BLACK
6
CONTINUOUS
10
5.1685
20
-3.59278
11
5.16769
21
-3.60094
0
LINE
8
BLACK
6
CONTINUOUS
10
5.16769
20
-3.60094
11
5.16769
21
-3.60094
0
LINE
8
BLACK
6
CONTINUOUS
10
5.16769
20
-3.60094
11
5.1685
21
-3.60911
0
LINE
8
BLACK
6
CONTINUOUS
10
5.1685
20
-3.60911
11
5.1685
21
-3.60911
0
LINE
8
BLACK
6
CONTINUOUS
10
5.1685
20
-3.60911
11
5.1685
21
-3.60911
0
LINE
8
BLACK
6
CONTINUOUS
10
5.1685
20
-3.60911
11
5.17088
21
-3.61697
0
LINE
8
BLACK
6
CONTINUOUS
10
5.17088
20
-3.61697
11
5.17475
21
-3.62421
0
LINE
8
BLACK
6
CONTINUOUS
10
5.17475
20
-3.62421
11
5.17996
21
-3.63055
0
LINE
8
BLACK
6
CONTINUOUS
10
5.17996
20
-3.63055
11
5.1863
21
-3.63576
0
LINE
8
BLACK
6
CONTINUOUS
10
5.1863
20
-3.63576
11
5.19354
21
-3.63963
0
LINE
8
BLACK
6
CONTINUOUS
10
5.19354
20
-3.63963
11
5.2014
21
-3.64202
0
LINE
8
BLACK
6
CONTINUOUS
10
5.2014
20
-3.64202
11
5.2014
21
-3.64202
0
LINE
8
BLACK
6
CONTINUOUS
10
5.2014
20
-3.64202
11
5.2014
21
-3.64202
0
LINE
8
BLACK
6
CONTINUOUS
10
5.2014
20
-3.64202
11
5.20588
21
-3.64246
0
LINE
8
BLACK
6
CONTINUOUS
10
5.20588
20
-3.64246
11
5.20752
21
-3.64262
0
LINE
8
BLACK
6
CONTINUOUS
10
5.20752
20
-3.64262
11
5.20752
21
-3.64262
0
LINE
8
BLACK
6
CONTINUOUS
10
5.20752
20
-3.64262
11
5.21949
21
-3.64262
0
LINE
8
BLACK
6
CONTINUOUS
10
5.21949
20
-3.64262
11
5.21949
21
-3.64262
0
LINE
8
BLACK
6
CONTINUOUS
10
5.21949
20
-3.64262
11
5.22158
21
-3.64241
0
LINE
8
BLACK
6
CONTINUOUS
10
5.22158
20
-3.64241
11
5.22561
21
-3.64202
0
LINE
8
BLACK
6
CONTINUOUS
10
5.22561
20
-3.64202
11
5.22561
21
-3.64202
0
LINE
8
BLACK
6
CONTINUOUS
10
5.22561
20
-3.64202
11
5.22561
21
-3.64202
0
LINE
8
BLACK
6
CONTINUOUS
10
5.22561
20
-3.64202
11
5.22749
21
-3.64144
0
LINE
8
BLACK
6
CONTINUOUS
10
5.22749
20
-3.64144
11
5.22843
21
-3.64116
0
LINE
8
BLACK
6
CONTINUOUS
10
5.22843
20
-3.64116
11
5.22987
21
-3.64094
0
LINE
8
BLACK
6
CONTINUOUS
10
5.22987
20
-3.64094
11
5.24942
21
-3.64094
0
LINE
8
BLACK
6
CONTINUOUS
10
5.24942
20
-3.64094
11
5.2528
21
-3.63617
0
LINE
8
BLACK
6
CONTINUOUS
10
5.2528
20
-3.63617
11
5.25737
21
-3.63244
0
LINE
8
BLACK
6
CONTINUOUS
10
5.25737
20
-3.63244
11
5.26256
21
-3.63019
0
LINE
8
BLACK
6
CONTINUOUS
10
5.26256
20
-3.63019
11
5.26256
21
-3.60969
0
LINE
8
BLACK
6
CONTINUOUS
10
5.26256
20
-3.60969
11
5.26181
21
-3.609
0
LINE
8
BLACK
6
CONTINUOUS
10
5.26181
20
-3.609
11
5.26168
21
-3.60898
0
LINE
8
BLACK
6
CONTINUOUS
10
5.26168
20
-3.60898
11
5.25965
21
-3.60706
0
LINE
8
BLACK
6
CONTINUOUS
10
5.25965
20
-3.60706
11
5.25899
21
-3.60434
0
LINE
8
BLACK
6
CONTINUOUS
10
5.25899
20
-3.60434
11
5.25901
21
-3.60408
0
LINE
8
BLACK
6
CONTINUOUS
10
5.25901
20
-3.60408
11
5.25932
21
-3.60094
0
LINE
8
BLACK
6
CONTINUOUS
10
5.25932
20
-3.60094
11
5.25932
21
-3.60094
0
LINE
8
BLACK
6
CONTINUOUS
10
5.25932
20
-3.60094
11
5.25851
21
-3.59278
0
LINE
8
BLACK
6
CONTINUOUS
10
5.25851
20
-3.59278
11
5.25851
21
-3.59278
0
LINE
8
BLACK
6
CONTINUOUS
10
5.25851
20
-3.59278
11
5.25851
21
-3.59278
0
LINE
8
BLACK
6
CONTINUOUS
10
5.25851
20
-3.59278
11
5.25613
21
-3.58492
0
LINE
8
BLACK
6
CONTINUOUS
10
5.25613
20
-3.58492
11
5.25258
21
-3.57828
0
LINE
8
BLACK
6
CONTINUOUS
10
5.25258
20
-3.57828
11
5.25201
21
-3.57555
0
LINE
8
BLACK
6
CONTINUOUS
10
5.25201
20
-3.57555
11
5.25258
21
-3.57361
0
LINE
8
BLACK
6
CONTINUOUS
10
5.25258
20
-3.57361
11
5.25258
21
-3.57361
0
LINE
8
BLACK
6
CONTINUOUS
10
5.25258
20
-3.57361
11
5.25613
21
-3.56697
0
LINE
8
BLACK
6
CONTINUOUS
10
5.25613
20
-3.56697
11
5.25851
21
-3.55911
0
LINE
8
BLACK
6
CONTINUOUS
10
5.25851
20
-3.55911
11
5.25932
21
-3.55094
0
LINE
8
BLACK
6
CONTINUOUS
10
5.25932
20
-3.55094
11
5.25901
21
-3.54781
0
LINE
8
BLACK
6
CONTINUOUS
10
5.25901
20
-3.54781
11
5.25953
21
-3.54506
0
LINE
8
BLACK
6
CONTINUOUS
10
5.25953
20
-3.54506
11
5.26145
21
-3.54304
0
LINE
8
BLACK
6
CONTINUOUS
10
5.26145
20
-3.54304
11
5.26171
21
-3.54297
0
LINE
8
BLACK
6
CONTINUOUS
10
5.26171
20
-3.54297
11
5.26256
21
-3.5422
0
LINE
8
BLACK
6
CONTINUOUS
10
5.26256
20
-3.5422
11
5.26256
21
-3.52152
0
LINE
8
BLACK
6
CONTINUOUS
10
5.26256
20
-3.52152
11
5.26
21
-3.52081
0
LINE
8
BLACK
6
CONTINUOUS
10
5.26
20
-3.52081
11
5.25496
21
-3.51774
0
LINE
8
BLACK
6
CONTINUOUS
10
5.25496
20
-3.51774
11
5.25093
21
-3.51343
0
LINE
8
BLACK
6
CONTINUOUS
10
5.25093
20
-3.51343
11
5.24964
21
-3.51094
0
LINE
8
BLACK
6
CONTINUOUS
10
5.24964
20
-3.51094
11
5.22987
21
-3.51094
0
LINE
8
BLACK
6
CONTINUOUS
10
5.22987
20
-3.51094
11
5.22843
21
-3.51073
0
LINE
8
BLACK
6
CONTINUOUS
10
5.22843
20
-3.51073
11
5.22654
21
-3.51016
0
LINE
8
BLACK
6
CONTINUOUS
10
5.22654
20
-3.51016
11
5.22561
21
-3.50987
0
LINE
8
BLACK
6
CONTINUOUS
10
5.22561
20
-3.50987
11
5.22561
21
-3.50987
0
LINE
8
BLACK
6
CONTINUOUS
10
5.22561
20
-3.50987
11
5.22561
21
-3.50987
0
LINE
8
BLACK
6
CONTINUOUS
10
5.22561
20
-3.50987
11
5.22561
21
-3.50987
0
LINE
8
BLACK
6
CONTINUOUS
10
5.22561
20
-3.50987
11
5.21949
21
-3.50927
0
LINE
8
BLACK
6
CONTINUOUS
10
5.21949
20
-3.50927
11
5.21949
21
-3.50927
0
LINE
8
BLACK
6
CONTINUOUS
10
5.21949
20
-3.50927
11
5.20752
21
-3.50927
0
LINE
8
BLACK
6
CONTINUOUS
10
5.20752
20
-3.50927
11
5.20752
21
-3.50927
0
LINE
8
BLACK
6
CONTINUOUS
10
5.20752
20
-3.50927
11
5.2014
21
-3.50987
0
LINE
8
BLACK
6
CONTINUOUS
10
6.9327
20
-3.50987
11
6.92484
21
-3.51226
0
LINE
8
BLACK
6
CONTINUOUS
10
6.92484
20
-3.51226
11
6.9176
21
-3.51613
0
LINE
8
BLACK
6
CONTINUOUS
10
6.9176
20
-3.51613
11
6.91126
21
-3.52133
0
LINE
8
BLACK
6
CONTINUOUS
10
6.91126
20
-3.52133
11
6.90605
21
-3.52768
0
LINE
8
BLACK
6
CONTINUOUS
10
6.90605
20
-3.52768
11
6.90218
21
-3.53492
0
LINE
8
BLACK
6
CONTINUOUS
10
6.90218
20
-3.53492
11
6.8998
21
-3.54278
0
LINE
8
BLACK
6
CONTINUOUS
10
6.8998
20
-3.54278
11
6.89899
21
-3.55094
0
LINE
8
BLACK
6
CONTINUOUS
10
6.89899
20
-3.55094
11
6.89899
21
-3.55095
0
LINE
8
BLACK
6
CONTINUOUS
10
6.89899
20
-3.55095
11
6.8998
21
-3.55911
0
LINE
8
BLACK
6
CONTINUOUS
10
6.8998
20
-3.55911
11
6.90218
21
-3.56697
0
LINE
8
BLACK
6
CONTINUOUS
10
6.90218
20
-3.56697
11
6.90573
21
-3.57361
0
LINE
8
BLACK
6
CONTINUOUS
10
6.90573
20
-3.57361
11
6.9063
21
-3.57634
0
LINE
8
BLACK
6
CONTINUOUS
10
6.9063
20
-3.57634
11
6.90573
21
-3.57828
0
LINE
8
BLACK
6
CONTINUOUS
10
6.90573
20
-3.57828
11
6.90218
21
-3.58492
0
LINE
8
BLACK
6
CONTINUOUS
10
6.90218
20
-3.58492
11
6.8998
21
-3.59278
0
LINE
8
BLACK
6
CONTINUOUS
10
6.8998
20
-3.59278
11
6.89899
21
-3.60094
0
LINE
8
BLACK
6
CONTINUOUS
10
6.89899
20
-3.60094
11
6.89899
21
-3.60094
0
LINE
8
BLACK
6
CONTINUOUS
10
6.89899
20
-3.60094
11
6.8998
21
-3.60911
0
LINE
8
BLACK
6
CONTINUOUS
10
6.8998
20
-3.60911
11
6.8998
21
-3.60911
0
LINE
8
BLACK
6
CONTINUOUS
10
6.8998
20
-3.60911
11
6.8998
21
-3.60911
0
LINE
8
BLACK
6
CONTINUOUS
10
6.8998
20
-3.60911
11
6.90218
21
-3.61697
0
LINE
8
BLACK
6
CONTINUOUS
10
6.90218
20
-3.61697
11
6.90605
21
-3.62421
0
LINE
8
BLACK
6
CONTINUOUS
10
6.90605
20
-3.62421
11
6.91126
21
-3.63055
0
LINE
8
BLACK
6
CONTINUOUS
10
6.91126
20
-3.63055
11
6.9176
21
-3.63576
0
LINE
8
BLACK
6
CONTINUOUS
10
6.9176
20
-3.63576
11
6.92484
21
-3.63963
0
LINE
8
BLACK
6
CONTINUOUS
10
6.92484
20
-3.63963
11
6.9327
21
-3.64202
0
LINE
8
BLACK
6
CONTINUOUS
10
6.9327
20
-3.64202
11
6.9327
21
-3.64202
0
LINE
8
BLACK
6
CONTINUOUS
10
6.9327
20
-3.64202
11
6.9327
21
-3.64202
0
LINE
8
BLACK
6
CONTINUOUS
10
6.9327
20
-3.64202
11
6.93718
21
-3.64246
0
LINE
8
BLACK
6
CONTINUOUS
10
6.93718
20
-3.64246
11
6.93882
21
-3.64262
0
LINE
8
BLACK
6
CONTINUOUS
10
6.93882
20
-3.64262
11
6.93882
21
-3.64262
0
LINE
8
BLACK
6
CONTINUOUS
10
6.93882
20
-3.64262
11
6.95079
21
-3.64262
0
LINE
8
BLACK
6
CONTINUOUS
10
6.95079
20
-3.64262
11
6.95079
21
-3.64262
0
LINE
8
BLACK
6
CONTINUOUS
10
6.95079
20
-3.64262
11
6.95288
21
-3.64241
0
LINE
8
BLACK
6
CONTINUOUS
10
6.95288
20
-3.64241
11
6.95691
21
-3.64202
0
LINE
8
BLACK
6
CONTINUOUS
10
6.95691
20
-3.64202
11
6.95691
21
-3.64202
0
LINE
8
BLACK
6
CONTINUOUS
10
6.95691
20
-3.64202
11
6.95691
21
-3.64202
0
LINE
8
BLACK
6
CONTINUOUS
10
6.95691
20
-3.64202
11
6.95879
21
-3.64144
0
LINE
8
BLACK
6
CONTINUOUS
10
6.95879
20
-3.64144
11
6.95973
21
-3.64116
0
LINE
8
BLACK
6
CONTINUOUS
10
6.95973
20
-3.64116
11
6.96117
21
-3.64094
0
LINE
8
BLACK
6
CONTINUOUS
10
6.96117
20
-3.64094
11
6.98072
21
-3.64094
0
LINE
8
BLACK
6
CONTINUOUS
10
6.98072
20
-3.64094
11
6.9841
21
-3.63617
0
LINE
8
BLACK
6
CONTINUOUS
10
6.9841
20
-3.63617
11
6.98867
21
-3.63244
0
LINE
8
BLACK
6
CONTINUOUS
10
6.98867
20
-3.63244
11
6.99386
21
-3.63019
0
LINE
8
BLACK
6
CONTINUOUS
10
6.99386
20
-3.63019
11
6.99386
21
-3.60969
0
LINE
8
BLACK
6
CONTINUOUS
10
6.99386
20
-3.60969
11
6.99311
21
-3.609
0
LINE
8
BLACK
6
CONTINUOUS
10
6.99311
20
-3.609
11
6.99298
21
-3.60898
0
LINE
8
BLACK
6
CONTINUOUS
10
6.99298
20
-3.60898
11
6.99095
21
-3.60706
0
LINE
8
BLACK
6
CONTINUOUS
10
6.99095
20
-3.60706
11
6.99029
21
-3.60434
0
LINE
8
BLACK
6
CONTINUOUS
10
6.99029
20
-3.60434
11
6.99031
21
-3.60408
0
LINE
8
BLACK
6
CONTINUOUS
10
6.99031
20
-3.60408
11
6.99062
21
-3.60094
0
LINE
8
BLACK
6
CONTINUOUS
10
6.99062
20
-3.60094
11
6.99062
21
-3.60094
0
LINE
8
BLACK
6
CONTINUOUS
10
6.99062
20
-3.60094
11
6.98981
21
-3.59278
0
LINE
8
BLACK
6
CONTINUOUS
10
6.98981
20
-3.59278
11
6.98981
21
-3.59278
0
LINE
8
BLACK
6
CONTINUOUS
10
6.98981
20
-3.59278
11
6.98981
21
-3.59278
0
LINE
8
BLACK
6
CONTINUOUS
10
6.98981
20
-3.59278
11
6.98743
21
-3.58492
0
LINE
8
BLACK
6
CONTINUOUS
10
6.98743
20
-3.58492
11
6.9857
21
-3.58169
0
LINE
8
BLACK
6
CONTINUOUS
10
6.9857
20
-3.58169
11
6.98388
21
-3.57828
0
LINE
8
BLACK
6
CONTINUOUS
10
6.98388
20
-3.57828
11
6.98331
21
-3.57555
0
LINE
8
BLACK
6
CONTINUOUS
10
6.98331
20
-3.57555
11
6.98388
21
-3.57361
0
LINE
8
BLACK
6
CONTINUOUS
10
6.98388
20
-3.57361
11
6.98743
21
-3.56697
0
LINE
8
BLACK
6
CONTINUOUS
10
6.98743
20
-3.56697
11
6.98981
21
-3.55911
0
LINE
8
BLACK
6
CONTINUOUS
10
6.98981
20
-3.55911
11
6.99062
21
-3.55094
0
LINE
8
BLACK
6
CONTINUOUS
10
6.99062
20
-3.55094
11
6.99031
21
-3.54781
0
LINE
8
BLACK
6
CONTINUOUS
10
6.99031
20
-3.54781
11
6.99083
21
-3.54506
0
LINE
8
BLACK
6
CONTINUOUS
10
6.99083
20
-3.54506
11
6.99275
21
-3.54304
0
LINE
8
BLACK
6
CONTINUOUS
10
6.99275
20
-3.54304
11
6.99301
21
-3.54297
0
LINE
8
BLACK
6
CONTINUOUS
10
6.99301
20
-3.54297
11
6.99386
21
-3.5422
0
LINE
8
BLACK
6
CONTINUOUS
10
6.99386
20
-3.5422
11
6.99386
21
-3.52152
0
LINE
8
BLACK
6
CONTINUOUS
10
6.99386
20
-3.52152
11
6.99129
21
-3.52081
0
LINE
8
BLACK
6
CONTINUOUS
10
6.99129
20
-3.52081
11
6.98626
21
-3.51774
0
LINE
8
BLACK
6
CONTINUOUS
10
6.98626
20
-3.51774
11
6.98223
21
-3.51343
0
LINE
8
BLACK
6
CONTINUOUS
10
6.98223
20
-3.51343
11
6.98094
21
-3.51094
0
LINE
8
BLACK
6
CONTINUOUS
10
6.98094
20
-3.51094
11
6.96117
21
-3.51094
0
LINE
8
BLACK
6
CONTINUOUS
10
6.96117
20
-3.51094
11
6.95973
21
-3.51073
0
LINE
8
BLACK
6
CONTINUOUS
10
6.95973
20
-3.51073
11
6.95784
21
-3.51016
0
LINE
8
BLACK
6
CONTINUOUS
10
6.95784
20
-3.51016
11
6.95691
21
-3.50987
0
LINE
8
BLACK
6
CONTINUOUS
10
6.95691
20
-3.50987
11
6.95691
21
-3.50987
0
LINE
8
BLACK
6
CONTINUOUS
10
6.95691
20
-3.50987
11
6.95691
21
-3.50987
0
LINE
8
BLACK
6
CONTINUOUS
10
6.95691
20
-3.50987
11
6.95691
21
-3.50987
0
LINE
8
BLACK
6
CONTINUOUS
10
6.95691
20
-3.50987
11
6.95079
21
-3.50927
0
LINE
8
BLACK
6
CONTINUOUS
10
6.95079
20
-3.50927
11
6.95079
21
-3.50927
0
LINE
8
BLACK
6
CONTINUOUS
10
6.95079
20
-3.50927
11
6.93882
21
-3.50927
0
LINE
8
BLACK
6
CONTINUOUS
10
6.93882
20
-3.50927
11
6.93882
21
-3.50927
0
LINE
8
BLACK
6
CONTINUOUS
10
6.93882
20
-3.50927
11
6.9327
21
-3.50987
0
LINE
8
BLACK
6
CONTINUOUS
10
7.01386
20
-3.60969
11
7.01386
21
-3.63037
0
LINE
8
BLACK
6
CONTINUOUS
10
7.01386
20
-3.63037
11
7.01642
21
-3.63108
0
LINE
8
BLACK
6
CONTINUOUS
10
7.01642
20
-3.63108
11
7.02146
21
-3.63415
0
LINE
8
BLACK
6
CONTINUOUS
10
7.02146
20
-3.63415
11
7.02549
21
-3.63846
0
LINE
8
BLACK
6
CONTINUOUS
10
7.02549
20
-3.63846
11
7.02677
21
-3.64094
0
LINE
8
BLACK
6
CONTINUOUS
10
7.02677
20
-3.64094
11
7.04829
21
-3.64094
0
LINE
8
BLACK
6
CONTINUOUS
10
7.04829
20
-3.64094
11
7.04646
21
-3.63493
0
LINE
8
BLACK
6
CONTINUOUS
10
7.04646
20
-3.63493
11
7.0426
21
-3.62769
0
LINE
8
BLACK
6
CONTINUOUS
10
7.0426
20
-3.62769
11
7.03739
21
-3.62135
0
LINE
8
BLACK
6
CONTINUOUS
10
7.03739
20
-3.62135
11
7.03105
21
-3.61614
0
LINE
8
BLACK
6
CONTINUOUS
10
7.03105
20
-3.61614
11
7.02381
21
-3.61228
0
LINE
8
BLACK
6
CONTINUOUS
10
7.02381
20
-3.61228
11
7.01596
21
-3.60989
0
LINE
8
BLACK
6
CONTINUOUS
10
7.01596
20
-3.60989
11
7.01596
21
-3.60989
0
LINE
8
BLACK
6
CONTINUOUS
10
7.01596
20
-3.60989
11
7.01386
21
-3.60969
0
LINE
8
BLACK
6
CONTINUOUS
10
7.01386
20
-3.60969
11
7.01386
21
-3.60969
0
LINE
8
BLACK
6
CONTINUOUS
10
5.28256
20
-3.60969
11
5.28256
21
-3.63037
0
LINE
8
BLACK
6
CONTINUOUS
10
5.28256
20
-3.63037
11
5.28512
21
-3.63108
0
LINE
8
BLACK
6
CONTINUOUS
10
5.28512
20
-3.63108
11
5.29016
21
-3.63415
0
LINE
8
BLACK
6
CONTINUOUS
10
5.29016
20
-3.63415
11
5.29419
21
-3.63846
0
LINE
8
BLACK
6
CONTINUOUS
10
5.29419
20
-3.63846
11
5.29548
21
-3.64094
0
LINE
8
BLACK
6
CONTINUOUS
10
5.29548
20
-3.64094
11
5.31699
21
-3.64094
0
LINE
8
BLACK
6
CONTINUOUS
10
5.31699
20
-3.64094
11
5.31517
21
-3.63493
0
LINE
8
BLACK
6
CONTINUOUS
10
5.31517
20
-3.63493
11
5.3113
21
-3.62769
0
LINE
8
BLACK
6
CONTINUOUS
10
5.3113
20
-3.62769
11
5.30609
21
-3.62135
0
LINE
8
BLACK
6
CONTINUOUS
10
5.30609
20
-3.62135
11
5.29975
21
-3.61614
0
LINE
8
BLACK
6
CONTINUOUS
10
5.29975
20
-3.61614
11
5.29251
21
-3.61228
0
LINE
8
BLACK
6
CONTINUOUS
10
5.29251
20
-3.61228
11
5.28466
21
-3.60989
0
LINE
8
BLACK
6
CONTINUOUS
10
5.28466
20
-3.60989
11
5.28466
21
-3.60989
0
LINE
8
BLACK
6
CONTINUOUS
10
5.28466
20
-3.60989
11
5.28256
21
-3.60969
0
LINE
8
BLACK
6
CONTINUOUS
10
5.28256
20
-3.60969
11
5.28256
21
-3.60969
0
LINE
8
BLACK
6
CONTINUOUS
10
5.29232
20
-3.51572
11
5.28775
21
-3.51945
0
LINE
8
BLACK
6
CONTINUOUS
10
5.28775
20
-3.51945
11
5.28256
21
-3.5217
0
LINE
8
BLACK
6
CONTINUOUS
10
5.28256
20
-3.5217
11
5.28256
21
-3.5422
0
LINE
8
BLACK
6
CONTINUOUS
10
5.28256
20
-3.5422
11
5.28256
21
-3.5422
0
LINE
8
BLACK
6
CONTINUOUS
10
5.28256
20
-3.5422
11
5.28466
21
-3.542
0
LINE
8
BLACK
6
CONTINUOUS
10
5.28466
20
-3.542
11
5.28466
21
-3.542
0
LINE
8
BLACK
6
CONTINUOUS
10
5.28466
20
-3.542
11
5.29251
21
-3.53961
0
LINE
8
BLACK
6
CONTINUOUS
10
5.29251
20
-3.53961
11
5.29975
21
-3.53575
0
LINE
8
BLACK
6
CONTINUOUS
10
5.29975
20
-3.53575
11
5.30609
21
-3.53054
0
LINE
8
BLACK
6
CONTINUOUS
10
5.30609
20
-3.53054
11
5.3113
21
-3.5242
0
LINE
8
BLACK
6
CONTINUOUS
10
5.3113
20
-3.5242
11
5.31517
21
-3.51696
0
LINE
8
BLACK
6
CONTINUOUS
10
5.31517
20
-3.51696
11
5.31699
21
-3.51094
0
LINE
8
BLACK
6
CONTINUOUS
10
5.31699
20
-3.51094
11
5.2957
21
-3.51094
0
LINE
8
BLACK
6
CONTINUOUS
10
5.2957
20
-3.51094
11
5.29232
21
-3.51572
0
LINE
8
BLACK
6
CONTINUOUS
10
7.02362
20
-3.51572
11
7.01905
21
-3.51945
0
LINE
8
BLACK
6
CONTINUOUS
10
7.01905
20
-3.51945
11
7.01386
21
-3.5217
0
LINE
8
BLACK
6
CONTINUOUS
10
7.01386
20
-3.5217
11
7.01386
21
-3.5422
0
LINE
8
BLACK
6
CONTINUOUS
10
7.01386
20
-3.5422
11
7.01596
21
-3.542
0
LINE
8
BLACK
6
CONTINUOUS
10
7.01596
20
-3.542
11
7.01596
21
-3.542
0
LINE
8
BLACK
6
CONTINUOUS
10
7.01596
20
-3.542
11
7.02381
21
-3.53961
0
LINE
8
BLACK
6
CONTINUOUS
10
7.02381
20
-3.53961
11
7.03105
21
-3.53575
0
LINE
8
BLACK
6
CONTINUOUS
10
7.03105
20
-3.53575
11
7.03739
21
-3.53054
0
LINE
8
BLACK
6
CONTINUOUS
10
7.03739
20
-3.53054
11
7.0426
21
-3.5242
0
LINE
8
BLACK
6
CONTINUOUS
10
7.0426
20
-3.5242
11
7.04646
21
-3.51696
0
LINE
8
BLACK
6
CONTINUOUS
10
7.04646
20
-3.51696
11
7.04829
21
-3.51094
0
LINE
8
BLACK
6
CONTINUOUS
10
7.04829
20
-3.51094
11
7.02699
21
-3.51094
0
LINE
8
BLACK
6
CONTINUOUS
10
7.02699
20
-3.51094
11
7.02362
21
-3.51572
0
LINE
8
BLACK
6
CONTINUOUS
10
7.01386
20
-3.45969
11
7.01386
21
-3.48037
0
LINE
8
BLACK
6
CONTINUOUS
10
7.01386
20
-3.48037
11
7.01642
21
-3.48108
0
LINE
8
BLACK
6
CONTINUOUS
10
7.01642
20
-3.48108
11
7.02146
21
-3.48415
0
LINE
8
BLACK
6
CONTINUOUS
10
7.02146
20
-3.48415
11
7.02549
21
-3.48846
0
LINE
8
BLACK
6
CONTINUOUS
10
7.02549
20
-3.48846
11
7.02677
21
-3.49094
0
LINE
8
BLACK
6
CONTINUOUS
10
7.02677
20
-3.49094
11
7.04829
21
-3.49094
0
LINE
8
BLACK
6
CONTINUOUS
10
7.04829
20
-3.49094
11
7.04646
21
-3.48493
0
LINE
8
BLACK
6
CONTINUOUS
10
7.04646
20
-3.48493
11
7.0426
21
-3.47769
0
LINE
8
BLACK
6
CONTINUOUS
10
7.0426
20
-3.47769
11
7.03739
21
-3.47135
0
LINE
8
BLACK
6
CONTINUOUS
10
7.03739
20
-3.47135
11
7.03105
21
-3.46614
0
LINE
8
BLACK
6
CONTINUOUS
10
7.03105
20
-3.46614
11
7.02381
21
-3.46228
0
LINE
8
BLACK
6
CONTINUOUS
10
7.02381
20
-3.46228
11
7.01596
21
-3.45989
0
LINE
8
BLACK
6
CONTINUOUS
10
7.01596
20
-3.45989
11
7.01596
21
-3.45989
0
LINE
8
BLACK
6
CONTINUOUS
10
7.01596
20
-3.45989
11
7.01386
21
-3.45969
0
LINE
8
BLACK
6
CONTINUOUS
10
7.01386
20
-3.45969
11
7.01386
21
-3.45969
0
LINE
8
BLACK
6
CONTINUOUS
10
6.9034
20
-3.45964
11
6.9101
21
-3.4642
0
LINE
8
BLACK
6
CONTINUOUS
10
6.9101
20
-3.4642
11
6.9101
21
-3.4642
0
LINE
8
BLACK
6
CONTINUOUS
10
6.9101
20
-3.4642
11
6.91945
21
-3.4687
0
LINE
8
BLACK
6
CONTINUOUS
10
6.91945
20
-3.4687
11
6.92936
21
-3.47176
0
LINE
8
BLACK
6
CONTINUOUS
10
6.92936
20
-3.47176
11
6.92936
21
-3.47176
0
LINE
8
BLACK
6
CONTINUOUS
10
6.92936
20
-3.47176
11
6.93962
21
-3.47331
0
LINE
8
BLACK
6
CONTINUOUS
10
6.93962
20
-3.47331
11
6.94999
21
-3.47331
0
LINE
8
BLACK
6
CONTINUOUS
10
6.94999
20
-3.47331
11
6.95922
21
-3.47192
0
LINE
8
BLACK
6
CONTINUOUS
10
6.95922
20
-3.47192
11
6.96199
21
-3.47229
0
LINE
8
BLACK
6
CONTINUOUS
10
6.96199
20
-3.47229
11
6.96412
21
-3.47411
0
LINE
8
BLACK
6
CONTINUOUS
10
6.96412
20
-3.47411
11
6.96492
21
-3.47679
0
LINE
8
BLACK
6
CONTINUOUS
10
6.96492
20
-3.47679
11
6.96434
21
-3.47916
0
LINE
8
BLACK
6
CONTINUOUS
10
6.96434
20
-3.47916
11
6.96125
21
-3.48493
0
LINE
8
BLACK
6
CONTINUOUS
10
6.96125
20
-3.48493
11
6.95943
21
-3.49094
0
LINE
8
BLACK
6
CONTINUOUS
10
6.95943
20
-3.49094
11
6.98072
21
-3.49094
0
LINE
8
BLACK
6
CONTINUOUS
10
6.98072
20
-3.49094
11
6.9841
21
-3.48617
0
LINE
8
BLACK
6
CONTINUOUS
10
6.9841
20
-3.48617
11
6.98867
21
-3.48244
0
LINE
8
BLACK
6
CONTINUOUS
10
6.98867
20
-3.48244
11
6.99386
21
-3.48019
0
LINE
8
BLACK
6
CONTINUOUS
10
6.99386
20
-3.48019
11
6.99386
21
-3.45969
0
LINE
8
BLACK
6
CONTINUOUS
10
6.99386
20
-3.45969
11
6.99386
21
-3.45969
0
LINE
8
BLACK
6
CONTINUOUS
10
6.99386
20
-3.45969
11
6.99176
21
-3.45989
0
LINE
8
BLACK
6
CONTINUOUS
10
6.99176
20
-3.45989
11
6.99054
21
-3.46026
0
LINE
8
BLACK
6
CONTINUOUS
10
6.99054
20
-3.46026
11
6.98774
21
-3.46029
0
LINE
8
BLACK
6
CONTINUOUS
10
6.98774
20
-3.46029
11
6.98559
21
-3.45902
0
LINE
8
BLACK
6
CONTINUOUS
10
6.98559
20
-3.45902
11
6.97169
21
-3.44512
0
LINE
8
BLACK
6
CONTINUOUS
10
6.97169
20
-3.44512
11
6.96941
21
-3.44671
0
LINE
8
BLACK
6
CONTINUOUS
10
6.96941
20
-3.44671
11
6.96163
21
-3.45034
0
LINE
8
BLACK
6
CONTINUOUS
10
6.96163
20
-3.45034
11
6.95335
21
-3.45256
0
LINE
8
BLACK
6
CONTINUOUS
10
6.95335
20
-3.45256
11
6.9448
21
-3.45331
0
LINE
8
BLACK
6
CONTINUOUS
10
6.9448
20
-3.45331
11
6.93626
21
-3.45256
0
LINE
8
BLACK
6
CONTINUOUS
10
6.93626
20
-3.45256
11
6.92797
21
-3.45034
0
LINE
8
BLACK
6
CONTINUOUS
10
6.92797
20
-3.45034
11
6.9202
21
-3.44671
0
LINE
8
BLACK
6
CONTINUOUS
10
6.9202
20
-3.44671
11
6.91792
21
-3.44512
0
LINE
8
BLACK
6
CONTINUOUS
10
6.91792
20
-3.44512
11
6.9034
21
-3.45964
0
LINE
8
BLACK
6
CONTINUOUS
10
5.28256
20
-3.45969
11
5.28256
21
-3.48037
0
LINE
8
BLACK
6
CONTINUOUS
10
5.28256
20
-3.48037
11
5.28512
21
-3.48108
0
LINE
8
BLACK
6
CONTINUOUS
10
5.28512
20
-3.48108
11
5.29016
21
-3.48415
0
LINE
8
BLACK
6
CONTINUOUS
10
5.29016
20
-3.48415
11
5.29419
21
-3.48846
0
LINE
8
BLACK
6
CONTINUOUS
10
5.29419
20
-3.48846
11
5.29548
21
-3.49094
0
LINE
8
BLACK
6
CONTINUOUS
10
5.29548
20
-3.49094
11
5.31699
21
-3.49094
0
LINE
8
BLACK
6
CONTINUOUS
10
5.31699
20
-3.49094
11
5.31517
21
-3.48493
0
LINE
8
BLACK
6
CONTINUOUS
10
5.31517
20
-3.48493
11
5.3113
21
-3.47769
0
LINE
8
BLACK
6
CONTINUOUS
10
5.3113
20
-3.47769
11
5.30609
21
-3.47135
0
LINE
8
BLACK
6
CONTINUOUS
10
5.30609
20
-3.47135
11
5.29975
21
-3.46614
0
LINE
8
BLACK
6
CONTINUOUS
10
5.29975
20
-3.46614
11
5.29251
21
-3.46228
0
LINE
8
BLACK
6
CONTINUOUS
10
5.29251
20
-3.46228
11
5.28466
21
-3.45989
0
LINE
8
BLACK
6
CONTINUOUS
10
5.28466
20
-3.45989
11
5.28466
21
-3.45989
0
LINE
8
BLACK
6
CONTINUOUS
10
5.28466
20
-3.45989
11
5.28256
21
-3.45969
0
LINE
8
BLACK
6
CONTINUOUS
10
5.28256
20
-3.45969
11
5.28256
21
-3.45969
0
LINE
8
BLACK
6
CONTINUOUS
10
5.1721
20
-3.45964
11
5.1788
21
-3.4642
0
LINE
8
BLACK
6
CONTINUOUS
10
5.1788
20
-3.4642
11
5.1788
21
-3.4642
0
LINE
8
BLACK
6
CONTINUOUS
10
5.1788
20
-3.4642
11
5.18815
21
-3.4687
0
LINE
8
BLACK
6
CONTINUOUS
10
5.18815
20
-3.4687
11
5.19806
21
-3.47176
0
LINE
8
BLACK
6
CONTINUOUS
10
5.19806
20
-3.47176
11
5.19806
21
-3.47176
0
LINE
8
BLACK
6
CONTINUOUS
10
5.19806
20
-3.47176
11
5.20832
21
-3.47331
0
LINE
8
BLACK
6
CONTINUOUS
10
5.20832
20
-3.47331
11
5.21869
21
-3.47331
0
LINE
8
BLACK
6
CONTINUOUS
10
5.21869
20
-3.47331
11
5.22792
21
-3.47192
0
LINE
8
BLACK
6
CONTINUOUS
10
5.22792
20
-3.47192
11
5.23069
21
-3.47229
0
LINE
8
BLACK
6
CONTINUOUS
10
5.23069
20
-3.47229
11
5.23282
21
-3.47411
0
LINE
8
BLACK
6
CONTINUOUS
10
5.23282
20
-3.47411
11
5.23362
21
-3.47679
0
LINE
8
BLACK
6
CONTINUOUS
10
5.23362
20
-3.47679
11
5.23304
21
-3.47916
0
LINE
8
BLACK
6
CONTINUOUS
10
5.23304
20
-3.47916
11
5.22995
21
-3.48493
0
LINE
8
BLACK
6
CONTINUOUS
10
5.22995
20
-3.48493
11
5.22813
21
-3.49094
0
LINE
8
BLACK
6
CONTINUOUS
10
5.22813
20
-3.49094
11
5.24942
21
-3.49094
0
LINE
8
BLACK
6
CONTINUOUS
10
5.24942
20
-3.49094
11
5.2528
21
-3.48617
0
LINE
8
BLACK
6
CONTINUOUS
10
5.2528
20
-3.48617
11
5.25737
21
-3.48244
0
LINE
8
BLACK
6
CONTINUOUS
10
5.25737
20
-3.48244
11
5.26256
21
-3.48019
0
LINE
8
BLACK
6
CONTINUOUS
10
5.26256
20
-3.48019
11
5.26256
21
-3.45969
0
LINE
8
BLACK
6
CONTINUOUS
10
5.26256
20
-3.45969
11
5.26046
21
-3.45989
0
LINE
8
BLACK
6
CONTINUOUS
10
5.26046
20
-3.45989
11
5.25924
21
-3.46026
0
LINE
8
BLACK
6
CONTINUOUS
10
5.25924
20
-3.46026
11
5.25644
21
-3.46029
0
LINE
8
BLACK
6
CONTINUOUS
10
5.25644
20
-3.46029
11
5.25429
21
-3.45902
0
LINE
8
BLACK
6
CONTINUOUS
10
5.25429
20
-3.45902
11
5.24039
21
-3.44512
0
LINE
8
BLACK
6
CONTINUOUS
10
5.24039
20
-3.44512
11
5.23811
21
-3.44671
0
LINE
8
BLACK
6
CONTINUOUS
10
5.23811
20
-3.44671
11
5.23034
21
-3.45034
0
LINE
8
BLACK
6
CONTINUOUS
10
5.23034
20
-3.45034
11
5.22205
21
-3.45256
0
LINE
8
BLACK
6
CONTINUOUS
10
5.22205
20
-3.45256
11
5.2135
21
-3.45331
0
LINE
8
BLACK
6
CONTINUOUS
10
5.2135
20
-3.45331
11
5.20496
21
-3.45256
0
LINE
8
BLACK
6
CONTINUOUS
10
5.20496
20
-3.45256
11
5.19667
21
-3.45034
0
LINE
8
BLACK
6
CONTINUOUS
10
5.19667
20
-3.45034
11
5.1889
21
-3.44671
0
LINE
8
BLACK
6
CONTINUOUS
10
5.1889
20
-3.44671
11
5.18662
21
-3.44512
0
LINE
8
BLACK
6
CONTINUOUS
10
5.18662
20
-3.44512
11
5.1721
21
-3.45964
0
LINE
8
BLACK
6
CONTINUOUS
10
5.25453
20
-3.37721
11
5.25612
21
-3.37949
0
LINE
8
BLACK
6
CONTINUOUS
10
5.25612
20
-3.37949
11
5.25975
21
-3.38726
0
LINE
8
BLACK
6
CONTINUOUS
10
5.25975
20
-3.38726
11
5.26197
21
-3.39555
0
LINE
8
BLACK
6
CONTINUOUS
10
5.26197
20
-3.39555
11
5.26272
21
-3.40409
0
LINE
8
BLACK
6
CONTINUOUS
10
5.26272
20
-3.40409
11
5.26197
21
-3.41264
0
LINE
8
BLACK
6
CONTINUOUS
10
5.26197
20
-3.41264
11
5.25975
21
-3.42093
0
LINE
8
BLACK
6
CONTINUOUS
10
5.25975
20
-3.42093
11
5.25612
21
-3.4287
0
LINE
8
BLACK
6
CONTINUOUS
10
5.25612
20
-3.4287
11
5.25453
21
-3.43098
0
LINE
8
BLACK
6
CONTINUOUS
10
5.25453
20
-3.43098
11
5.26903
21
-3.44548
0
LINE
8
BLACK
6
CONTINUOUS
10
5.26903
20
-3.44548
11
5.27085
21
-3.44319
0
LINE
8
BLACK
6
CONTINUOUS
10
5.27085
20
-3.44319
11
5.27604
21
-3.43421
0
LINE
8
BLACK
6
CONTINUOUS
10
5.27604
20
-3.43421
11
5.27604
21
-3.43421
0
LINE
8
BLACK
6
CONTINUOUS
10
5.27604
20
-3.43421
11
5.27983
21
-3.42455
0
LINE
8
BLACK
6
CONTINUOUS
10
5.27983
20
-3.42455
11
5.27983
21
-3.42455
0
LINE
8
BLACK
6
CONTINUOUS
10
5.27983
20
-3.42455
11
5.28214
21
-3.41444
0
LINE
8
BLACK
6
CONTINUOUS
10
5.28214
20
-3.41444
11
5.28291
21
-3.40409
0
LINE
8
BLACK
6
CONTINUOUS
10
5.28291
20
-3.40409
11
5.28214
21
-3.39375
0
LINE
8
BLACK
6
CONTINUOUS
10
5.28214
20
-3.39375
11
5.27983
21
-3.38364
0
LINE
8
BLACK
6
CONTINUOUS
10
5.27983
20
-3.38364
11
5.27983
21
-3.38364
0
LINE
8
BLACK
6
CONTINUOUS
10
5.27983
20
-3.38364
11
5.27604
21
-3.37398
0
LINE
8
BLACK
6
CONTINUOUS
10
5.27604
20
-3.37398
11
5.27604
21
-3.37398
0
LINE
8
BLACK
6
CONTINUOUS
10
5.27604
20
-3.37398
11
5.27085
21
-3.365
0
LINE
8
BLACK
6
CONTINUOUS
10
5.27085
20
-3.365
11
5.27085
21
-3.365
0
LINE
8
BLACK
6
CONTINUOUS
10
5.27085
20
-3.365
11
5.26903
21
-3.36271
0
LINE
8
BLACK
6
CONTINUOUS
10
5.26903
20
-3.36271
11
5.26903
21
-3.36271
0
LINE
8
BLACK
6
CONTINUOUS
10
5.26903
20
-3.36271
11
5.25453
21
-3.37721
0
LINE
8
BLACK
6
CONTINUOUS
10
6.98583
20
-3.37721
11
6.98742
21
-3.37949
0
LINE
8
BLACK
6
CONTINUOUS
10
6.98742
20
-3.37949
11
6.99105
21
-3.38726
0
LINE
8
BLACK
6
CONTINUOUS
10
6.99105
20
-3.38726
11
6.99327
21
-3.39555
0
LINE
8
BLACK
6
CONTINUOUS
10
6.99327
20
-3.39555
11
6.99402
21
-3.40409
0
LINE
8
BLACK
6
CONTINUOUS
10
6.99402
20
-3.40409
11
6.99327
21
-3.41264
0
LINE
8
BLACK
6
CONTINUOUS
10
6.99327
20
-3.41264
11
6.99105
21
-3.42093
0
LINE
8
BLACK
6
CONTINUOUS
10
6.99105
20
-3.42093
11
6.98742
21
-3.4287
0
LINE
8
BLACK
6
CONTINUOUS
10
6.98742
20
-3.4287
11
6.98583
21
-3.43098
0
LINE
8
BLACK
6
CONTINUOUS
10
6.98583
20
-3.43098
11
7.00033
21
-3.44548
0
LINE
8
BLACK
6
CONTINUOUS
10
7.00033
20
-3.44548
11
7.00215
21
-3.44319
0
LINE
8
BLACK
6
CONTINUOUS
10
7.00215
20
-3.44319
11
7.00734
21
-3.43421
0
LINE
8
BLACK
6
CONTINUOUS
10
7.00734
20
-3.43421
11
7.00734
21
-3.43421
0
LINE
8
BLACK
6
CONTINUOUS
10
7.00734
20
-3.43421
11
7.01113
21
-3.42455
0
LINE
8
BLACK
6
CONTINUOUS
10
7.01113
20
-3.42455
11
7.01113
21
-3.42455
0
LINE
8
BLACK
6
CONTINUOUS
10
7.01113
20
-3.42455
11
7.01343
21
-3.41444
0
LINE
8
BLACK
6
CONTINUOUS
10
7.01343
20
-3.41444
11
7.01421
21
-3.40409
0
LINE
8
BLACK
6
CONTINUOUS
10
7.01421
20
-3.40409
11
7.01343
21
-3.39375
0
LINE
8
BLACK
6
CONTINUOUS
10
7.01343
20
-3.39375
11
7.01113
21
-3.38364
0
LINE
8
BLACK
6
CONTINUOUS
10
7.01113
20
-3.38364
11
7.01113
21
-3.38364
0
LINE
8
BLACK
6
CONTINUOUS
10
7.01113
20
-3.38364
11
7.00734
21
-3.37398
0
LINE
8
BLACK
6
CONTINUOUS
10
7.00734
20
-3.37398
11
7.00734
21
-3.37398
0
LINE
8
BLACK
6
CONTINUOUS
10
7.00734
20
-3.37398
11
7.00215
21
-3.365
0
LINE
8
BLACK
6
CONTINUOUS
10
7.00215
20
-3.365
11
7.00215
21
-3.365
0
LINE
8
BLACK
6
CONTINUOUS
10
7.00215
20
-3.365
11
7.00033
21
-3.36271
0
LINE
8
BLACK
6
CONTINUOUS
10
7.00033
20
-3.36271
11
7.00033
21
-3.36271
0
LINE
8
BLACK
6
CONTINUOUS
10
7.00033
20
-3.36271
11
6.98583
21
-3.37721
0
LINE
8
BLACK
6
CONTINUOUS
10
5.19806
20
-3.33643
11
5.19806
21
-3.33643
0
LINE
8
BLACK
6
CONTINUOUS
10
5.19806
20
-3.33643
11
5.18815
21
-3.33949
0
LINE
8
BLACK
6
CONTINUOUS
10
5.18815
20
-3.33949
11
5.1788
21
-3.34399
0
LINE
8
BLACK
6
CONTINUOUS
10
5.1788
20
-3.34399
11
5.1788
21
-3.34399
0
LINE
8
BLACK
6
CONTINUOUS
10
5.1788
20
-3.34399
11
5.1721
21
-3.34855
0
LINE
8
BLACK
6
CONTINUOUS
10
5.1721
20
-3.34855
11
5.1721
21
-3.34855
0
LINE
8
BLACK
6
CONTINUOUS
10
5.1721
20
-3.34855
11
5.18662
21
-3.36307
0
LINE
8
BLACK
6
CONTINUOUS
10
5.18662
20
-3.36307
11
5.1889
21
-3.36148
0
LINE
8
BLACK
6
CONTINUOUS
10
5.1889
20
-3.36148
11
5.19667
21
-3.35785
0
LINE
8
BLACK
6
CONTINUOUS
10
5.19667
20
-3.35785
11
5.20496
21
-3.35563
0
LINE
8
BLACK
6
CONTINUOUS
10
5.20496
20
-3.35563
11
5.2135
21
-3.35488
0
LINE
8
BLACK
6
CONTINUOUS
10
5.2135
20
-3.35488
11
5.22205
21
-3.35563
0
LINE
8
BLACK
6
CONTINUOUS
10
5.22205
20
-3.35563
11
5.23034
21
-3.35785
0
LINE
8
BLACK
6
CONTINUOUS
10
5.23034
20
-3.35785
11
5.23811
21
-3.36148
0
LINE
8
BLACK
6
CONTINUOUS
10
5.23811
20
-3.36148
11
5.24039
21
-3.36307
0
LINE
8
BLACK
6
CONTINUOUS
10
5.24039
20
-3.36307
11
5.2549
21
-3.34855
0
LINE
8
BLACK
6
CONTINUOUS
10
5.2549
20
-3.34855
11
5.24821
21
-3.34399
0
LINE
8
BLACK
6
CONTINUOUS
10
5.24821
20
-3.34399
11
5.23886
21
-3.33949
0
LINE
8
BLACK
6
CONTINUOUS
10
5.23886
20
-3.33949
11
5.22895
21
-3.33643
0
LINE
8
BLACK
6
CONTINUOUS
10
5.22895
20
-3.33643
11
5.22895
21
-3.33643
0
LINE
8
BLACK
6
CONTINUOUS
10
5.22895
20
-3.33643
11
5.21869
21
-3.33488
0
LINE
8
BLACK
6
CONTINUOUS
10
5.21869
20
-3.33488
11
5.20832
21
-3.33488
0
LINE
8
BLACK
6
CONTINUOUS
10
5.20832
20
-3.33488
11
5.19806
21
-3.33643
0
LINE
8
BLACK
6
CONTINUOUS
10
6.92936
20
-3.33643
11
6.92936
21
-3.33643
0
LINE
8
BLACK
6
CONTINUOUS
10
6.92936
20
-3.33643
11
6.91945
21
-3.33949
0
LINE
8
BLACK
6
CONTINUOUS
10
6.91945
20
-3.33949
11
6.9101
21
-3.34399
0
LINE
8
BLACK
6
CONTINUOUS
10
6.9101
20
-3.34399
11
6.9101
21
-3.34399
0
LINE
8
BLACK
6
CONTINUOUS
10
6.9101
20
-3.34399
11
6.9034
21
-3.34855
0
LINE
8
BLACK
6
CONTINUOUS
10
6.9034
20
-3.34855
11
6.9034
21
-3.34855
0
LINE
8
BLACK
6
CONTINUOUS
10
6.9034
20
-3.34855
11
6.91792
21
-3.36307
0
LINE
8
BLACK
6
CONTINUOUS
10
6.91792
20
-3.36307
11
6.9202
21
-3.36148
0
LINE
8
BLACK
6
CONTINUOUS
10
6.9202
20
-3.36148
11
6.92797
21
-3.35785
0
LINE
8
BLACK
6
CONTINUOUS
10
6.92797
20
-3.35785
11
6.93626
21
-3.35563
0
LINE
8
BLACK
6
CONTINUOUS
10
6.93626
20
-3.35563
11
6.9448
21
-3.35488
0
LINE
8
BLACK
6
CONTINUOUS
10
6.9448
20
-3.35488
11
6.95335
21
-3.35563
0
LINE
8
BLACK
6
CONTINUOUS
10
6.95335
20
-3.35563
11
6.96163
21
-3.35785
0
LINE
8
BLACK
6
CONTINUOUS
10
6.96163
20
-3.35785
11
6.96941
21
-3.36148
0
LINE
8
BLACK
6
CONTINUOUS
10
6.96941
20
-3.36148
11
6.97169
21
-3.36307
0
LINE
8
BLACK
6
CONTINUOUS
10
6.97169
20
-3.36307
11
6.9862
21
-3.34855
0
LINE
8
BLACK
6
CONTINUOUS
10
6.9862
20
-3.34855
11
6.97951
21
-3.34399
0
LINE
8
BLACK
6
CONTINUOUS
10
6.97951
20
-3.34399
11
6.97016
21
-3.33949
0
LINE
8
BLACK
6
CONTINUOUS
10
6.97016
20
-3.33949
11
6.96025
21
-3.33643
0
LINE
8
BLACK
6
CONTINUOUS
10
6.96025
20
-3.33643
11
6.96025
21
-3.33643
0
LINE
8
BLACK
6
CONTINUOUS
10
6.96025
20
-3.33643
11
6.94999
21
-3.33488
0
LINE
8
BLACK
6
CONTINUOUS
10
6.94999
20
-3.33488
11
6.93962
21
-3.33488
0
LINE
8
BLACK
6
CONTINUOUS
10
6.93962
20
-3.33488
11
6.92936
21
-3.33643
0
LINE
8
BLACK
6
CONTINUOUS
10
5.1055
20
-3.91956
11
5.10781
21
-3.92967
0
LINE
8
BLACK
6
CONTINUOUS
10
5.10781
20
-3.92967
11
5.10781
21
-3.92967
0
LINE
8
BLACK
6
CONTINUOUS
10
5.10781
20
-3.92967
11
5.1116
21
-3.93933
0
LINE
8
BLACK
6
CONTINUOUS
10
5.1116
20
-3.93933
11
5.1116
21
-3.93933
0
LINE
8
BLACK
6
CONTINUOUS
10
5.1116
20
-3.93933
11
5.11679
21
-3.94831
0
LINE
8
BLACK
6
CONTINUOUS
10
5.11679
20
-3.94831
11
5.11679
21
-3.94831
0
LINE
8
BLACK
6
CONTINUOUS
10
5.11679
20
-3.94831
11
5.11861
21
-3.9506
0
LINE
8
BLACK
6
CONTINUOUS
10
5.11861
20
-3.9506
11
5.11861
21
-3.9506
0
LINE
8
BLACK
6
CONTINUOUS
10
5.11861
20
-3.9506
11
5.13311
21
-3.9361
0
LINE
8
BLACK
6
CONTINUOUS
10
5.13311
20
-3.9361
11
5.13151
21
-3.93382
0
LINE
8
BLACK
6
CONTINUOUS
10
5.13151
20
-3.93382
11
5.12789
21
-3.92604
0
LINE
8
BLACK
6
CONTINUOUS
10
5.12789
20
-3.92604
11
5.12567
21
-3.91776
0
LINE
8
BLACK
6
CONTINUOUS
10
5.12567
20
-3.91776
11
5.12492
21
-3.90921
0
LINE
8
BLACK
6
CONTINUOUS
10
5.12492
20
-3.90921
11
5.12567
21
-3.90067
0
LINE
8
BLACK
6
CONTINUOUS
10
5.12567
20
-3.90067
11
5.12789
21
-3.89238
0
LINE
8
BLACK
6
CONTINUOUS
10
5.12789
20
-3.89238
11
5.13151
21
-3.88461
0
LINE
8
BLACK
6
CONTINUOUS
10
5.13151
20
-3.88461
11
5.13311
21
-3.88233
0
LINE
8
BLACK
6
CONTINUOUS
10
5.13311
20
-3.88233
11
5.11861
21
-3.86783
0
LINE
8
BLACK
6
CONTINUOUS
10
5.11861
20
-3.86783
11
5.11679
21
-3.87011
0
LINE
8
BLACK
6
CONTINUOUS
10
5.11679
20
-3.87011
11
5.11679
21
-3.87011
0
LINE
8
BLACK
6
CONTINUOUS
10
5.11679
20
-3.87011
11
5.1116
21
-3.8791
0
LINE
8
BLACK
6
CONTINUOUS
10
5.1116
20
-3.8791
11
5.1116
21
-3.8791
0
LINE
8
BLACK
6
CONTINUOUS
10
5.1116
20
-3.8791
11
5.10781
21
-3.88875
0
LINE
8
BLACK
6
CONTINUOUS
10
5.10781
20
-3.88875
11
5.10781
21
-3.88875
0
LINE
8
BLACK
6
CONTINUOUS
10
5.10781
20
-3.88875
11
5.1055
21
-3.89887
0
LINE
8
BLACK
6
CONTINUOUS
10
5.1055
20
-3.89887
11
5.10473
21
-3.90921
0
LINE
8
BLACK
6
CONTINUOUS
10
5.10473
20
-3.90921
11
5.1055
21
-3.91956
0
LINE
8
BLACK
6
CONTINUOUS
10
6.8368
20
-3.91956
11
6.83911
21
-3.92967
0
LINE
8
BLACK
6
CONTINUOUS
10
6.83911
20
-3.92967
11
6.83911
21
-3.92967
0
LINE
8
BLACK
6
CONTINUOUS
10
6.83911
20
-3.92967
11
6.8429
21
-3.93933
0
LINE
8
BLACK
6
CONTINUOUS
10
6.8429
20
-3.93933
11
6.8429
21
-3.93933
0
LINE
8
BLACK
6
CONTINUOUS
10
6.8429
20
-3.93933
11
6.84809
21
-3.94831
0
LINE
8
BLACK
6
CONTINUOUS
10
6.84809
20
-3.94831
11
6.84809
21
-3.94831
0
LINE
8
BLACK
6
CONTINUOUS
10
6.84809
20
-3.94831
11
6.84991
21
-3.9506
0
LINE
8
BLACK
6
CONTINUOUS
10
6.84991
20
-3.9506
11
6.84991
21
-3.9506
0
LINE
8
BLACK
6
CONTINUOUS
10
6.84991
20
-3.9506
11
6.86441
21
-3.9361
0
LINE
8
BLACK
6
CONTINUOUS
10
6.86441
20
-3.9361
11
6.86281
21
-3.93382
0
LINE
8
BLACK
6
CONTINUOUS
10
6.86281
20
-3.93382
11
6.85919
21
-3.92604
0
LINE
8
BLACK
6
CONTINUOUS
10
6.85919
20
-3.92604
11
6.85697
21
-3.91776
0
LINE
8
BLACK
6
CONTINUOUS
10
6.85697
20
-3.91776
11
6.85622
21
-3.90921
0
LINE
8
BLACK
6
CONTINUOUS
10
6.85622
20
-3.90921
11
6.85697
21
-3.90067
0
LINE
8
BLACK
6
CONTINUOUS
10
6.85697
20
-3.90067
11
6.85919
21
-3.89238
0
LINE
8
BLACK
6
CONTINUOUS
10
6.85919
20
-3.89238
11
6.86281
21
-3.88461
0
LINE
8
BLACK
6
CONTINUOUS
10
6.86281
20
-3.88461
11
6.86441
21
-3.88233
0
LINE
8
BLACK
6
CONTINUOUS
10
6.86441
20
-3.88233
11
6.84991
21
-3.86783
0
LINE
8
BLACK
6
CONTINUOUS
10
6.84991
20
-3.86783
11
6.84809
21
-3.87011
0
LINE
8
BLACK
6
CONTINUOUS
10
6.84809
20
-3.87011
11
6.84809
21
-3.87011
0
LINE
8
BLACK
6
CONTINUOUS
10
6.84809
20
-3.87011
11
6.8429
21
-3.8791
0
LINE
8
BLACK
6
CONTINUOUS
10
6.8429
20
-3.8791
11
6.8429
21
-3.8791
0
LINE
8
BLACK
6
CONTINUOUS
10
6.8429
20
-3.8791
11
6.83911
21
-3.88875
0
LINE
8
BLACK
6
CONTINUOUS
10
6.83911
20
-3.88875
11
6.83911
21
-3.88875
0
LINE
8
BLACK
6
CONTINUOUS
10
6.83911
20
-3.88875
11
6.8368
21
-3.89887
0
LINE
8
BLACK
6
CONTINUOUS
10
6.8368
20
-3.89887
11
6.83603
21
-3.90921
0
LINE
8
BLACK
6
CONTINUOUS
10
6.83603
20
-3.90921
11
6.8368
21
-3.91956
0
LINE
8
BLACK
6
CONTINUOUS
10
5.14487
20
-3.41444
11
5.14718
21
-3.42455
0
LINE
8
BLACK
6
CONTINUOUS
10
5.14718
20
-3.42455
11
5.14718
21
-3.42455
0
LINE
8
BLACK
6
CONTINUOUS
10
5.14718
20
-3.42455
11
5.15097
21
-3.43421
0
LINE
8
BLACK
6
CONTINUOUS
10
5.15097
20
-3.43421
11
5.15097
21
-3.43421
0
LINE
8
BLACK
6
CONTINUOUS
10
5.15097
20
-3.43421
11
5.15616
21
-3.44319
0
LINE
8
BLACK
6
CONTINUOUS
10
5.15616
20
-3.44319
11
5.15616
21
-3.44319
0
LINE
8
BLACK
6
CONTINUOUS
10
5.15616
20
-3.44319
11
5.15798
21
-3.44548
0
LINE
8
BLACK
6
CONTINUOUS
10
5.15798
20
-3.44548
11
5.15798
21
-3.44548
0
LINE
8
BLACK
6
CONTINUOUS
10
5.15798
20
-3.44548
11
5.17248
21
-3.43098
0
LINE
8
BLACK
6
CONTINUOUS
10
5.17248
20
-3.43098
11
5.17088
21
-3.4287
0
LINE
8
BLACK
6
CONTINUOUS
10
5.17088
20
-3.4287
11
5.16726
21
-3.42093
0
LINE
8
BLACK
6
CONTINUOUS
10
5.16726
20
-3.42093
11
5.16504
21
-3.41264
0
LINE
8
BLACK
6
CONTINUOUS
10
5.16504
20
-3.41264
11
5.16429
21
-3.40409
0
LINE
8
BLACK
6
CONTINUOUS
10
5.16429
20
-3.40409
11
5.16504
21
-3.39555
0
LINE
8
BLACK
6
CONTINUOUS
10
5.16504
20
-3.39555
11
5.16726
21
-3.38726
0
LINE
8
BLACK
6
CONTINUOUS
10
5.16726
20
-3.38726
11
5.17088
21
-3.37949
0
LINE
8
BLACK
6
CONTINUOUS
10
5.17088
20
-3.37949
11
5.17248
21
-3.37721
0
LINE
8
BLACK
6
CONTINUOUS
10
5.17248
20
-3.37721
11
5.15798
21
-3.36271
0
LINE
8
BLACK
6
CONTINUOUS
10
5.15798
20
-3.36271
11
5.15616
21
-3.365
0
LINE
8
BLACK
6
CONTINUOUS
10
5.15616
20
-3.365
11
5.15616
21
-3.365
0
LINE
8
BLACK
6
CONTINUOUS
10
5.15616
20
-3.365
11
5.15097
21
-3.37398
0
LINE
8
BLACK
6
CONTINUOUS
10
5.15097
20
-3.37398
11
5.15097
21
-3.37398
0
LINE
8
BLACK
6
CONTINUOUS
10
5.15097
20
-3.37398
11
5.14718
21
-3.38364
0
LINE
8
BLACK
6
CONTINUOUS
10
5.14718
20
-3.38364
11
5.14718
21
-3.38364
0
LINE
8
BLACK
6
CONTINUOUS
10
5.14718
20
-3.38364
11
5.14487
21
-3.39375
0
LINE
8
BLACK
6
CONTINUOUS
10
5.14487
20
-3.39375
11
5.1441
21
-3.40409
0
LINE
8
BLACK
6
CONTINUOUS
10
5.1441
20
-3.40409
11
5.14487
21
-3.41444
0
LINE
8
BLACK
6
CONTINUOUS
10
6.87617
20
-3.41444
11
6.87848
21
-3.42455
0
LINE
8
BLACK
6
CONTINUOUS
10
6.87848
20
-3.42455
11
6.87848
21
-3.42455
0
LINE
8
BLACK
6
CONTINUOUS
10
6.87848
20
-3.42455
11
6.88227
21
-3.43421
0
LINE
8
BLACK
6
CONTINUOUS
10
6.88227
20
-3.43421
11
6.88227
21
-3.43421
0
LINE
8
BLACK
6
CONTINUOUS
10
6.88227
20
-3.43421
11
6.88746
21
-3.44319
0
LINE
8
BLACK
6
CONTINUOUS
10
6.88746
20
-3.44319
11
6.88746
21
-3.44319
0
LINE
8
BLACK
6
CONTINUOUS
10
6.88746
20
-3.44319
11
6.88928
21
-3.44548
0
LINE
8
BLACK
6
CONTINUOUS
10
6.88928
20
-3.44548
11
6.88928
21
-3.44548
0
LINE
8
BLACK
6
CONTINUOUS
10
6.88928
20
-3.44548
11
6.90378
21
-3.43098
0
LINE
8
BLACK
6
CONTINUOUS
10
6.90378
20
-3.43098
11
6.90218
21
-3.4287
0
LINE
8
BLACK
6
CONTINUOUS
10
6.90218
20
-3.4287
11
6.89856
21
-3.42093
0
LINE
8
BLACK
6
CONTINUOUS
10
6.89856
20
-3.42093
11
6.89634
21
-3.41264
0
LINE
8
BLACK
6
CONTINUOUS
10
6.89634
20
-3.41264
11
6.89559
21
-3.40409
0
LINE
8
BLACK
6
CONTINUOUS
10
6.89559
20
-3.40409
11
6.89634
21
-3.39555
0
LINE
8
BLACK
6
CONTINUOUS
10
6.89634
20
-3.39555
11
6.89856
21
-3.38726
0
LINE
8
BLACK
6
CONTINUOUS
10
6.89856
20
-3.38726
11
6.90218
21
-3.37949
0
LINE
8
BLACK
6
CONTINUOUS
10
6.90218
20
-3.37949
11
6.90378
21
-3.37721
0
LINE
8
BLACK
6
CONTINUOUS
10
6.90378
20
-3.37721
11
6.88928
21
-3.36271
0
LINE
8
BLACK
6
CONTINUOUS
10
6.88928
20
-3.36271
11
6.88746
21
-3.365
0
LINE
8
BLACK
6
CONTINUOUS
10
6.88746
20
-3.365
11
6.88746
21
-3.365
0
LINE
8
BLACK
6
CONTINUOUS
10
6.88746
20
-3.365
11
6.88227
21
-3.37398
0
LINE
8
BLACK
6
CONTINUOUS
10
6.88227
20
-3.37398
11
6.88227
21
-3.37398
0
LINE
8
BLACK
6
CONTINUOUS
10
6.88227
20
-3.37398
11
6.87848
21
-3.38364
0
LINE
8
BLACK
6
CONTINUOUS
10
6.87848
20
-3.38364
11
6.87848
21
-3.38364
0
LINE
8
BLACK
6
CONTINUOUS
10
6.87848
20
-3.38364
11
6.87617
21
-3.39375
0
LINE
8
BLACK
6
CONTINUOUS
10
6.87617
20
-3.39375
11
6.8754
21
-3.40409
0
LINE
8
BLACK
6
CONTINUOUS
10
6.8754
20
-3.40409
11
6.87617
21
-3.41444
0
CIRCLE
8
BLACK
10
5.0848
20
-3.04701
40
0.00688976
0
CIRCLE
8
BLACK
10
7.0848
20
-4.24701
40
0.00688976
0
CIRCLE
8
BLACK
10
5.27256
20
-3.50094
40
0.00688976
0
CIRCLE
8
BLACK
10
5.2135
20
-3.55094
40
0.00688976
0
CIRCLE
8
BLACK
10
5.2135
20
-3.60094
40
0.00688976
0
CIRCLE
8
BLACK
10
5.27256
20
-3.65094
40
0.00688976
0
CIRCLE
8
BLACK
10
5.2135
20
-3.70094
40
0.00688976
0
CIRCLE
8
BLACK
10
5.2135
20
-3.75094
40
0.00688976
0
CIRCLE
8
BLACK
10
5.27256
20
-3.80094
40
0.00688976
0
CIRCLE
8
BLACK
10
5.17413
20
-3.90921
40
0.00688976
0
CIRCLE
8
BLACK
10
5.2135
20
-3.40409
40
0.00688976
0
CIRCLE
8
BLACK
10
7.00386
20
-3.50094
40
0.00688976
0
CIRCLE
8
BLACK
10
6.9448
20
-3.55094
40
0.00688976
0
CIRCLE
8
BLACK
10
6.9448
20
-3.60094
40
0.00688976
0
CIRCLE
8
BLACK
10
7.00386
20
-3.65094
40
0.00688976
0
CIRCLE
8
BLACK
10
6.9448
20
-3.70094
40
0.00688976
0
CIRCLE
8
BLACK
10
6.9448
20
-3.75094
40
0.00688976
0
CIRCLE
8
BLACK
10
7.00386
20
-3.80094
40
0.00688976
0
CIRCLE
8
BLACK
10
6.90543
20
-3.90921
40
0.00688976
0
CIRCLE
8
BLACK
10
6.9448
20
-3.40409
40
0.00688976
0
CIRCLE
8
BLACK
10
5.0848
20
-4.24701
40
0.00688976
0
CIRCLE
8
BLACK
10
7.0848
20
-3.04701
40
0.00688976
  0
ENDSEC
  0
EOF
