  0
SECTION
  2
HEADER
  9
$ANGBASE
  50
0.0
  9
$ANGDIR
  70
1
  9
$MEASUREMENT
  70
0
  0
ENDSEC
  0
SECTION
  2
TABLES
  0
TABLE
  2
LTYPE
  70
4
  0
LTYPE
  5
40F
  2
CONTINUOUS
  70
0
  3
Solid line
  72
65
  73
0
  40
0.0
  0
LTYPE
  5
410
  2
DASHDOT
 70
0
  3
Dash Dot ____ _ ____ _
 72
65
 73
4
 40
2.0
 49
1.25
 49
-0.25
 49
0.25
 49
-0.25
  0
LTYPE
  5
411
  2
DASHED
 70
0
  3
Dashed __ __ __ __ __
 72
65
 73
2
 40
0.75
 49
0.5
 49
-0.25
  0
LTYPE
  5
43B
  2
DOTTED
 70
0
  3
Dotted .  .  .  .
 72
65
 73
2
 40
0.2
 49
0.0
 49
-0.2
  0
ENDTAB
  0
TABLE
  2
STYLE
  70
4
  0
STYLE
  2
KICAD
  70
0
  40
0
  41
1
  42
1
  50
0
  71
0
  3
isocp.shx
  0
STYLE
  2
KICADB
  70
0
  40
0
  41
1
  42
1
  50
0
  71
0
  3
isocp.shx
  0
STYLE
  2
KICADI
  70
0
  40
0
  41
1
  42
1
  50
15
  71
0
  3
isocp.shx
  0
STYLE
  2
KICADBI
  70
0
  40
0
  41
1
  42
1
  50
15
  71
0
  3
isocp.shx
  0
ENDTAB
  0
TABLE
  2
LAYER
  70
1
  0
LAYER
  2
BLACK
  70
0
  62
7
  6
CONTINUOUS
  0
ENDTAB
  0
ENDSEC
  0
SECTION
  2
ENTITIES
0
LINE
8
BLACK
6
CONTINUOUS
10
5.09891
20
-4.12182
11
5.11284
21
-4.12418
0
LINE
8
BLACK
6
CONTINUOUS
10
5.11284
20
-4.12418
11
5.12641
21
-4.12809
0
LINE
8
BLACK
6
CONTINUOUS
10
5.12641
20
-4.12809
11
5.13947
21
-4.1335
0
LINE
8
BLACK
6
CONTINUOUS
10
5.13947
20
-4.1335
11
5.15183
21
-4.14033
0
LINE
8
BLACK
6
CONTINUOUS
10
5.15183
20
-4.14033
11
5.16335
21
-4.14851
0
LINE
8
BLACK
6
CONTINUOUS
10
5.16335
20
-4.14851
11
5.17389
21
-4.15792
0
LINE
8
BLACK
6
CONTINUOUS
10
5.17389
20
-4.15792
11
5.1833
21
-4.16846
0
LINE
8
BLACK
6
CONTINUOUS
10
5.1833
20
-4.16846
11
5.19148
21
-4.17998
0
LINE
8
BLACK
6
CONTINUOUS
10
5.19148
20
-4.17998
11
5.19831
21
-4.19235
0
LINE
8
BLACK
6
CONTINUOUS
10
5.19831
20
-4.19235
11
5.20372
21
-4.2054
0
LINE
8
BLACK
6
CONTINUOUS
10
5.20372
20
-4.2054
11
5.20763
21
-4.21897
0
LINE
8
BLACK
6
CONTINUOUS
10
5.20763
20
-4.21897
11
5.21
21
-4.2329
0
LINE
8
BLACK
6
CONTINUOUS
10
5.21
20
-4.2329
11
5.21079
21
-4.24701
0
LINE
8
BLACK
6
CONTINUOUS
10
5.21079
20
-4.24701
11
5.21
21
-4.26111
0
LINE
8
BLACK
6
CONTINUOUS
10
5.21
20
-4.26111
11
5.20763
21
-4.27504
0
LINE
8
BLACK
6
CONTINUOUS
10
5.20763
20
-4.27504
11
5.20372
21
-4.28862
0
LINE
8
BLACK
6
CONTINUOUS
10
5.20372
20
-4.28862
11
5.19831
21
-4.30167
0
LINE
8
BLACK
6
CONTINUOUS
10
5.19831
20
-4.30167
11
5.19148
21
-4.31404
0
LINE
8
BLACK
6
CONTINUOUS
10
5.19148
20
-4.31404
11
5.1833
21
-4.32556
0
LINE
8
BLACK
6
CONTINUOUS
10
5.1833
20
-4.32556
11
5.17389
21
-4.33609
0
LINE
8
BLACK
6
CONTINUOUS
10
5.17389
20
-4.33609
11
5.16335
21
-4.34551
0
LINE
8
BLACK
6
CONTINUOUS
10
5.16335
20
-4.34551
11
5.15183
21
-4.35368
0
LINE
8
BLACK
6
CONTINUOUS
10
5.15183
20
-4.35368
11
5.13947
21
-4.36052
0
LINE
8
BLACK
6
CONTINUOUS
10
5.13947
20
-4.36052
11
5.12641
21
-4.36592
0
LINE
8
BLACK
6
CONTINUOUS
10
5.12641
20
-4.36592
11
5.11284
21
-4.36983
0
LINE
8
BLACK
6
CONTINUOUS
10
5.11284
20
-4.36983
11
5.09891
21
-4.3722
0
LINE
8
BLACK
6
CONTINUOUS
10
5.09891
20
-4.3722
11
5.0848
21
-4.37299
0
LINE
8
BLACK
6
CONTINUOUS
10
5.0848
20
-4.37299
11
5.0707
21
-4.3722
0
LINE
8
BLACK
6
CONTINUOUS
10
5.0707
20
-4.3722
11
5.05677
21
-4.36983
0
LINE
8
BLACK
6
CONTINUOUS
10
5.05677
20
-4.36983
11
5.04319
21
-4.36592
0
LINE
8
BLACK
6
CONTINUOUS
10
5.04319
20
-4.36592
11
5.03014
21
-4.36052
0
LINE
8
BLACK
6
CONTINUOUS
10
5.03014
20
-4.36052
11
5.01778
21
-4.35368
0
LINE
8
BLACK
6
CONTINUOUS
10
5.01778
20
-4.35368
11
5.00625
21
-4.34551
0
LINE
8
BLACK
6
CONTINUOUS
10
5.00625
20
-4.34551
11
4.99572
21
-4.33609
0
LINE
8
BLACK
6
CONTINUOUS
10
4.99572
20
-4.33609
11
4.9863
21
-4.32556
0
LINE
8
BLACK
6
CONTINUOUS
10
4.9863
20
-4.32556
11
4.97813
21
-4.31404
0
LINE
8
BLACK
6
CONTINUOUS
10
4.97813
20
-4.31404
11
4.9713
21
-4.30167
0
LINE
8
BLACK
6
CONTINUOUS
10
4.9713
20
-4.30167
11
4.96589
21
-4.28862
0
LINE
8
BLACK
6
CONTINUOUS
10
4.96589
20
-4.28862
11
4.96198
21
-4.27504
0
LINE
8
BLACK
6
CONTINUOUS
10
4.96198
20
-4.27504
11
4.95961
21
-4.26111
0
LINE
8
BLACK
6
CONTINUOUS
10
4.95961
20
-4.26111
11
4.95882
21
-4.24701
0
LINE
8
BLACK
6
CONTINUOUS
10
4.95882
20
-4.24701
11
4.95961
21
-4.2329
0
LINE
8
BLACK
6
CONTINUOUS
10
4.95961
20
-4.2329
11
4.96198
21
-4.21897
0
LINE
8
BLACK
6
CONTINUOUS
10
4.96198
20
-4.21897
11
4.96589
21
-4.2054
0
LINE
8
BLACK
6
CONTINUOUS
10
4.96589
20
-4.2054
11
4.9713
21
-4.19235
0
LINE
8
BLACK
6
CONTINUOUS
10
4.9713
20
-4.19235
11
4.97813
21
-4.17998
0
LINE
8
BLACK
6
CONTINUOUS
10
4.97813
20
-4.17998
11
4.9863
21
-4.16846
0
LINE
8
BLACK
6
CONTINUOUS
10
4.9863
20
-4.16846
11
4.99572
21
-4.15792
0
LINE
8
BLACK
6
CONTINUOUS
10
4.99572
20
-4.15792
11
5.00625
21
-4.14851
0
LINE
8
BLACK
6
CONTINUOUS
10
5.00625
20
-4.14851
11
5.01778
21
-4.14033
0
LINE
8
BLACK
6
CONTINUOUS
10
5.01778
20
-4.14033
11
5.03014
21
-4.1335
0
LINE
8
BLACK
6
CONTINUOUS
10
5.03014
20
-4.1335
11
5.04319
21
-4.12809
0
LINE
8
BLACK
6
CONTINUOUS
10
5.04319
20
-4.12809
11
5.05677
21
-4.12418
0
LINE
8
BLACK
6
CONTINUOUS
10
5.05677
20
-4.12418
11
5.0707
21
-4.12182
0
LINE
8
BLACK
6
CONTINUOUS
10
5.0707
20
-4.12182
11
5.0848
21
-4.12102
0
LINE
8
BLACK
6
CONTINUOUS
10
5.0848
20
-4.12102
11
5.09891
21
-4.12182
0
LINE
8
BLACK
6
CONTINUOUS
10
7.09891
20
-4.12182
11
7.11284
21
-4.12418
0
LINE
8
BLACK
6
CONTINUOUS
10
7.11284
20
-4.12418
11
7.12641
21
-4.12809
0
LINE
8
BLACK
6
CONTINUOUS
10
7.12641
20
-4.12809
11
7.13947
21
-4.1335
0
LINE
8
BLACK
6
CONTINUOUS
10
7.13947
20
-4.1335
11
7.15183
21
-4.14033
0
LINE
8
BLACK
6
CONTINUOUS
10
7.15183
20
-4.14033
11
7.16335
21
-4.14851
0
LINE
8
BLACK
6
CONTINUOUS
10
7.16335
20
-4.14851
11
7.17389
21
-4.15792
0
LINE
8
BLACK
6
CONTINUOUS
10
7.17389
20
-4.15792
11
7.1833
21
-4.16846
0
LINE
8
BLACK
6
CONTINUOUS
10
7.1833
20
-4.16846
11
7.19148
21
-4.17998
0
LINE
8
BLACK
6
CONTINUOUS
10
7.19148
20
-4.17998
11
7.19831
21
-4.19235
0
LINE
8
BLACK
6
CONTINUOUS
10
7.19831
20
-4.19235
11
7.20372
21
-4.2054
0
LINE
8
BLACK
6
CONTINUOUS
10
7.20372
20
-4.2054
11
7.20763
21
-4.21897
0
LINE
8
BLACK
6
CONTINUOUS
10
7.20763
20
-4.21897
11
7.21
21
-4.2329
0
LINE
8
BLACK
6
CONTINUOUS
10
7.21
20
-4.2329
11
7.21079
21
-4.24701
0
LINE
8
BLACK
6
CONTINUOUS
10
7.21079
20
-4.24701
11
7.21
21
-4.26111
0
LINE
8
BLACK
6
CONTINUOUS
10
7.21
20
-4.26111
11
7.20763
21
-4.27504
0
LINE
8
BLACK
6
CONTINUOUS
10
7.20763
20
-4.27504
11
7.20372
21
-4.28862
0
LINE
8
BLACK
6
CONTINUOUS
10
7.20372
20
-4.28862
11
7.19831
21
-4.30167
0
LINE
8
BLACK
6
CONTINUOUS
10
7.19831
20
-4.30167
11
7.19148
21
-4.31404
0
LINE
8
BLACK
6
CONTINUOUS
10
7.19148
20
-4.31404
11
7.1833
21
-4.32556
0
LINE
8
BLACK
6
CONTINUOUS
10
7.1833
20
-4.32556
11
7.17389
21
-4.33609
0
LINE
8
BLACK
6
CONTINUOUS
10
7.17389
20
-4.33609
11
7.16335
21
-4.34551
0
LINE
8
BLACK
6
CONTINUOUS
10
7.16335
20
-4.34551
11
7.15183
21
-4.35368
0
LINE
8
BLACK
6
CONTINUOUS
10
7.15183
20
-4.35368
11
7.13947
21
-4.36052
0
LINE
8
BLACK
6
CONTINUOUS
10
7.13947
20
-4.36052
11
7.12641
21
-4.36592
0
LINE
8
BLACK
6
CONTINUOUS
10
7.12641
20
-4.36592
11
7.11284
21
-4.36983
0
LINE
8
BLACK
6
CONTINUOUS
10
7.11284
20
-4.36983
11
7.09891
21
-4.3722
0
LINE
8
BLACK
6
CONTINUOUS
10
7.09891
20
-4.3722
11
7.0848
21
-4.37299
0
LINE
8
BLACK
6
CONTINUOUS
10
7.0848
20
-4.37299
11
7.0707
21
-4.3722
0
LINE
8
BLACK
6
CONTINUOUS
10
7.0707
20
-4.3722
11
7.05677
21
-4.36983
0
LINE
8
BLACK
6
CONTINUOUS
10
7.05677
20
-4.36983
11
7.04319
21
-4.36592
0
LINE
8
BLACK
6
CONTINUOUS
10
7.04319
20
-4.36592
11
7.03014
21
-4.36052
0
LINE
8
BLACK
6
CONTINUOUS
10
7.03014
20
-4.36052
11
7.01778
21
-4.35368
0
LINE
8
BLACK
6
CONTINUOUS
10
7.01778
20
-4.35368
11
7.00625
21
-4.34551
0
LINE
8
BLACK
6
CONTINUOUS
10
7.00625
20
-4.34551
11
6.99572
21
-4.33609
0
LINE
8
BLACK
6
CONTINUOUS
10
6.99572
20
-4.33609
11
6.9863
21
-4.32556
0
LINE
8
BLACK
6
CONTINUOUS
10
6.9863
20
-4.32556
11
6.97813
21
-4.31404
0
LINE
8
BLACK
6
CONTINUOUS
10
6.97813
20
-4.31404
11
6.9713
21
-4.30167
0
LINE
8
BLACK
6
CONTINUOUS
10
6.9713
20
-4.30167
11
6.96589
21
-4.28862
0
LINE
8
BLACK
6
CONTINUOUS
10
6.96589
20
-4.28862
11
6.96198
21
-4.27504
0
LINE
8
BLACK
6
CONTINUOUS
10
6.96198
20
-4.27504
11
6.95961
21
-4.26111
0
LINE
8
BLACK
6
CONTINUOUS
10
6.95961
20
-4.26111
11
6.95882
21
-4.24701
0
LINE
8
BLACK
6
CONTINUOUS
10
6.95882
20
-4.24701
11
6.95961
21
-4.2329
0
LINE
8
BLACK
6
CONTINUOUS
10
6.95961
20
-4.2329
11
6.96198
21
-4.21897
0
LINE
8
BLACK
6
CONTINUOUS
10
6.96198
20
-4.21897
11
6.96589
21
-4.2054
0
LINE
8
BLACK
6
CONTINUOUS
10
6.96589
20
-4.2054
11
6.9713
21
-4.19235
0
LINE
8
BLACK
6
CONTINUOUS
10
6.9713
20
-4.19235
11
6.97813
21
-4.17998
0
LINE
8
BLACK
6
CONTINUOUS
10
6.97813
20
-4.17998
11
6.9863
21
-4.16846
0
LINE
8
BLACK
6
CONTINUOUS
10
6.9863
20
-4.16846
11
6.99572
21
-4.15792
0
LINE
8
BLACK
6
CONTINUOUS
10
6.99572
20
-4.15792
11
7.00625
21
-4.14851
0
LINE
8
BLACK
6
CONTINUOUS
10
7.00625
20
-4.14851
11
7.01778
21
-4.14033
0
LINE
8
BLACK
6
CONTINUOUS
10
7.01778
20
-4.14033
11
7.03014
21
-4.1335
0
LINE
8
BLACK
6
CONTINUOUS
10
7.03014
20
-4.1335
11
7.04319
21
-4.12809
0
LINE
8
BLACK
6
CONTINUOUS
10
7.04319
20
-4.12809
11
7.05677
21
-4.12418
0
LINE
8
BLACK
6
CONTINUOUS
10
7.05677
20
-4.12418
11
7.0707
21
-4.12182
0
LINE
8
BLACK
6
CONTINUOUS
10
7.0707
20
-4.12182
11
7.0848
21
-4.12102
0
LINE
8
BLACK
6
CONTINUOUS
10
7.0848
20
-4.12102
11
7.09891
21
-4.12182
0
LINE
8
BLACK
6
CONTINUOUS
10
5.18815
20
-3.85387
11
5.19707
21
-3.85693
0
LINE
8
BLACK
6
CONTINUOUS
10
5.19707
20
-3.85693
11
5.20536
21
-3.86142
0
LINE
8
BLACK
6
CONTINUOUS
10
5.20536
20
-3.86142
11
5.2128
21
-3.86721
0
LINE
8
BLACK
6
CONTINUOUS
10
5.2128
20
-3.86721
11
5.21918
21
-3.87415
0
LINE
8
BLACK
6
CONTINUOUS
10
5.21918
20
-3.87415
11
5.22434
21
-3.88204
0
LINE
8
BLACK
6
CONTINUOUS
10
5.22434
20
-3.88204
11
5.22813
21
-3.89068
0
LINE
8
BLACK
6
CONTINUOUS
10
5.22813
20
-3.89068
11
5.23044
21
-3.89982
0
LINE
8
BLACK
6
CONTINUOUS
10
5.23044
20
-3.89982
11
5.23122
21
-3.90921
0
LINE
8
BLACK
6
CONTINUOUS
10
5.23122
20
-3.90921
11
5.23044
21
-3.91861
0
LINE
8
BLACK
6
CONTINUOUS
10
5.23044
20
-3.91861
11
5.22813
21
-3.92775
0
LINE
8
BLACK
6
CONTINUOUS
10
5.22813
20
-3.92775
11
5.22434
21
-3.93638
0
LINE
8
BLACK
6
CONTINUOUS
10
5.22434
20
-3.93638
11
5.21918
21
-3.94428
0
LINE
8
BLACK
6
CONTINUOUS
10
5.21918
20
-3.94428
11
5.2128
21
-3.95121
0
LINE
8
BLACK
6
CONTINUOUS
10
5.2128
20
-3.95121
11
5.20536
21
-3.957
0
LINE
8
BLACK
6
CONTINUOUS
10
5.20536
20
-3.957
11
5.19707
21
-3.96149
0
LINE
8
BLACK
6
CONTINUOUS
10
5.19707
20
-3.96149
11
5.18815
21
-3.96455
0
LINE
8
BLACK
6
CONTINUOUS
10
5.18815
20
-3.96455
11
5.17885
21
-3.9661
0
LINE
8
BLACK
6
CONTINUOUS
10
5.17885
20
-3.9661
11
5.16942
21
-3.9661
0
LINE
8
BLACK
6
CONTINUOUS
10
5.16942
20
-3.9661
11
5.16012
21
-3.96455
0
LINE
8
BLACK
6
CONTINUOUS
10
5.16012
20
-3.96455
11
5.1512
21
-3.96149
0
LINE
8
BLACK
6
CONTINUOUS
10
5.1512
20
-3.96149
11
5.14291
21
-3.957
0
LINE
8
BLACK
6
CONTINUOUS
10
5.14291
20
-3.957
11
5.13547
21
-3.95121
0
LINE
8
BLACK
6
CONTINUOUS
10
5.13547
20
-3.95121
11
5.12908
21
-3.94428
0
LINE
8
BLACK
6
CONTINUOUS
10
5.12908
20
-3.94428
11
5.12393
21
-3.93638
0
LINE
8
BLACK
6
CONTINUOUS
10
5.12393
20
-3.93638
11
5.12014
21
-3.92775
0
LINE
8
BLACK
6
CONTINUOUS
10
5.12014
20
-3.92775
11
5.11783
21
-3.91861
0
LINE
8
BLACK
6
CONTINUOUS
10
5.11783
20
-3.91861
11
5.11705
21
-3.90921
0
LINE
8
BLACK
6
CONTINUOUS
10
5.11705
20
-3.90921
11
5.11783
21
-3.89982
0
LINE
8
BLACK
6
CONTINUOUS
10
5.11783
20
-3.89982
11
5.12014
21
-3.89068
0
LINE
8
BLACK
6
CONTINUOUS
10
5.12014
20
-3.89068
11
5.12393
21
-3.88204
0
LINE
8
BLACK
6
CONTINUOUS
10
5.12393
20
-3.88204
11
5.12908
21
-3.87415
0
LINE
8
BLACK
6
CONTINUOUS
10
5.12908
20
-3.87415
11
5.13547
21
-3.86721
0
LINE
8
BLACK
6
CONTINUOUS
10
5.13547
20
-3.86721
11
5.14291
21
-3.86142
0
LINE
8
BLACK
6
CONTINUOUS
10
5.14291
20
-3.86142
11
5.1512
21
-3.85693
0
LINE
8
BLACK
6
CONTINUOUS
10
5.1512
20
-3.85693
11
5.16012
21
-3.85387
0
LINE
8
BLACK
6
CONTINUOUS
10
5.16012
20
-3.85387
11
5.16942
21
-3.85232
0
LINE
8
BLACK
6
CONTINUOUS
10
5.16942
20
-3.85232
11
5.17885
21
-3.85232
0
LINE
8
BLACK
6
CONTINUOUS
10
5.17885
20
-3.85232
11
5.18815
21
-3.85387
0
LINE
8
BLACK
6
CONTINUOUS
10
6.91945
20
-3.85387
11
6.92836
21
-3.85693
0
LINE
8
BLACK
6
CONTINUOUS
10
6.92836
20
-3.85693
11
6.93666
21
-3.86142
0
LINE
8
BLACK
6
CONTINUOUS
10
6.93666
20
-3.86142
11
6.9441
21
-3.86721
0
LINE
8
BLACK
6
CONTINUOUS
10
6.9441
20
-3.86721
11
6.95048
21
-3.87415
0
LINE
8
BLACK
6
CONTINUOUS
10
6.95048
20
-3.87415
11
6.95564
21
-3.88204
0
LINE
8
BLACK
6
CONTINUOUS
10
6.95564
20
-3.88204
11
6.95943
21
-3.89068
0
LINE
8
BLACK
6
CONTINUOUS
10
6.95943
20
-3.89068
11
6.96174
21
-3.89982
0
LINE
8
BLACK
6
CONTINUOUS
10
6.96174
20
-3.89982
11
6.96252
21
-3.90921
0
LINE
8
BLACK
6
CONTINUOUS
10
6.96252
20
-3.90921
11
6.96174
21
-3.91861
0
LINE
8
BLACK
6
CONTINUOUS
10
6.96174
20
-3.91861
11
6.95943
21
-3.92775
0
LINE
8
BLACK
6
CONTINUOUS
10
6.95943
20
-3.92775
11
6.95564
21
-3.93638
0
LINE
8
BLACK
6
CONTINUOUS
10
6.95564
20
-3.93638
11
6.95048
21
-3.94428
0
LINE
8
BLACK
6
CONTINUOUS
10
6.95048
20
-3.94428
11
6.9441
21
-3.95121
0
LINE
8
BLACK
6
CONTINUOUS
10
6.9441
20
-3.95121
11
6.93666
21
-3.957
0
LINE
8
BLACK
6
CONTINUOUS
10
6.93666
20
-3.957
11
6.92836
21
-3.96149
0
LINE
8
BLACK
6
CONTINUOUS
10
6.92836
20
-3.96149
11
6.91945
21
-3.96455
0
LINE
8
BLACK
6
CONTINUOUS
10
6.91945
20
-3.96455
11
6.91015
21
-3.9661
0
LINE
8
BLACK
6
CONTINUOUS
10
6.91015
20
-3.9661
11
6.90072
21
-3.9661
0
LINE
8
BLACK
6
CONTINUOUS
10
6.90072
20
-3.9661
11
6.89142
21
-3.96455
0
LINE
8
BLACK
6
CONTINUOUS
10
6.89142
20
-3.96455
11
6.8825
21
-3.96149
0
LINE
8
BLACK
6
CONTINUOUS
10
6.8825
20
-3.96149
11
6.87421
21
-3.957
0
LINE
8
BLACK
6
CONTINUOUS
10
6.87421
20
-3.957
11
6.86677
21
-3.95121
0
LINE
8
BLACK
6
CONTINUOUS
10
6.86677
20
-3.95121
11
6.86038
21
-3.94428
0
LINE
8
BLACK
6
CONTINUOUS
10
6.86038
20
-3.94428
11
6.85523
21
-3.93638
0
LINE
8
BLACK
6
CONTINUOUS
10
6.85523
20
-3.93638
11
6.85144
21
-3.92775
0
LINE
8
BLACK
6
CONTINUOUS
10
6.85144
20
-3.92775
11
6.84913
21
-3.91861
0
LINE
8
BLACK
6
CONTINUOUS
10
6.84913
20
-3.91861
11
6.84835
21
-3.90921
0
LINE
8
BLACK
6
CONTINUOUS
10
6.84835
20
-3.90921
11
6.84913
21
-3.89982
0
LINE
8
BLACK
6
CONTINUOUS
10
6.84913
20
-3.89982
11
6.85144
21
-3.89068
0
LINE
8
BLACK
6
CONTINUOUS
10
6.85144
20
-3.89068
11
6.85523
21
-3.88204
0
LINE
8
BLACK
6
CONTINUOUS
10
6.85523
20
-3.88204
11
6.86038
21
-3.87415
0
LINE
8
BLACK
6
CONTINUOUS
10
6.86038
20
-3.87415
11
6.86677
21
-3.86721
0
LINE
8
BLACK
6
CONTINUOUS
10
6.86677
20
-3.86721
11
6.87421
21
-3.86142
0
LINE
8
BLACK
6
CONTINUOUS
10
6.87421
20
-3.86142
11
6.8825
21
-3.85693
0
LINE
8
BLACK
6
CONTINUOUS
10
6.8825
20
-3.85693
11
6.89142
21
-3.85387
0
LINE
8
BLACK
6
CONTINUOUS
10
6.89142
20
-3.85387
11
6.90072
21
-3.85232
0
LINE
8
BLACK
6
CONTINUOUS
10
6.90072
20
-3.85232
11
6.91015
21
-3.85232
0
LINE
8
BLACK
6
CONTINUOUS
10
6.91015
20
-3.85232
11
6.91945
21
-3.85387
0
LINE
8
BLACK
6
CONTINUOUS
10
5.27992
20
-3.77162
11
5.2866
21
-3.7732
0
LINE
8
BLACK
6
CONTINUOUS
10
5.2866
20
-3.7732
11
5.29272
21
-3.77627
0
LINE
8
BLACK
6
CONTINUOUS
10
5.29272
20
-3.77627
11
5.29797
21
-3.78068
0
LINE
8
BLACK
6
CONTINUOUS
10
5.29797
20
-3.78068
11
5.30207
21
-3.78618
0
LINE
8
BLACK
6
CONTINUOUS
10
5.30207
20
-3.78618
11
5.30478
21
-3.79248
0
LINE
8
BLACK
6
CONTINUOUS
10
5.30478
20
-3.79248
11
5.30597
21
-3.79923
0
LINE
8
BLACK
6
CONTINUOUS
10
5.30597
20
-3.79923
11
5.30558
21
-3.80607
0
LINE
8
BLACK
6
CONTINUOUS
10
5.30558
20
-3.80607
11
5.30361
21
-3.81264
0
LINE
8
BLACK
6
CONTINUOUS
10
5.30361
20
-3.81264
11
5.30018
21
-3.81858
0
LINE
8
BLACK
6
CONTINUOUS
10
5.30018
20
-3.81858
11
5.29548
21
-3.82356
0
LINE
8
BLACK
6
CONTINUOUS
10
5.29548
20
-3.82356
11
5.28975
21
-3.82733
0
LINE
8
BLACK
6
CONTINUOUS
10
5.28975
20
-3.82733
11
5.28331
21
-3.82968
0
LINE
8
BLACK
6
CONTINUOUS
10
5.28331
20
-3.82968
11
5.2765
21
-3.83047
0
LINE
8
BLACK
6
CONTINUOUS
10
5.2765
20
-3.83047
11
5.26862
21
-3.83047
0
LINE
8
BLACK
6
CONTINUOUS
10
5.26862
20
-3.83047
11
5.26519
21
-3.83027
0
LINE
8
BLACK
6
CONTINUOUS
10
5.26519
20
-3.83027
11
5.25852
21
-3.82869
0
LINE
8
BLACK
6
CONTINUOUS
10
5.25852
20
-3.82869
11
5.2524
21
-3.82561
0
LINE
8
BLACK
6
CONTINUOUS
10
5.2524
20
-3.82561
11
5.24714
21
-3.82121
0
LINE
8
BLACK
6
CONTINUOUS
10
5.24714
20
-3.82121
11
5.24305
21
-3.81571
0
LINE
8
BLACK
6
CONTINUOUS
10
5.24305
20
-3.81571
11
5.24033
21
-3.80941
0
LINE
8
BLACK
6
CONTINUOUS
10
5.24033
20
-3.80941
11
5.23914
21
-3.80266
0
LINE
8
BLACK
6
CONTINUOUS
10
5.23914
20
-3.80266
11
5.23954
21
-3.79582
0
LINE
8
BLACK
6
CONTINUOUS
10
5.23954
20
-3.79582
11
5.24151
21
-3.78925
0
LINE
8
BLACK
6
CONTINUOUS
10
5.24151
20
-3.78925
11
5.24494
21
-3.78331
0
LINE
8
BLACK
6
CONTINUOUS
10
5.24494
20
-3.78331
11
5.24964
21
-3.77833
0
LINE
8
BLACK
6
CONTINUOUS
10
5.24964
20
-3.77833
11
5.25537
21
-3.77456
0
LINE
8
BLACK
6
CONTINUOUS
10
5.25537
20
-3.77456
11
5.26181
21
-3.77221
0
LINE
8
BLACK
6
CONTINUOUS
10
5.26181
20
-3.77221
11
5.26862
21
-3.77142
0
LINE
8
BLACK
6
CONTINUOUS
10
5.26862
20
-3.77142
11
5.2765
21
-3.77142
0
LINE
8
BLACK
6
CONTINUOUS
10
5.2765
20
-3.77142
11
5.27992
21
-3.77162
0
LINE
8
BLACK
6
CONTINUOUS
10
7.01122
20
-3.77162
11
7.01789
21
-3.7732
0
LINE
8
BLACK
6
CONTINUOUS
10
7.01789
20
-3.7732
11
7.02402
21
-3.77627
0
LINE
8
BLACK
6
CONTINUOUS
10
7.02402
20
-3.77627
11
7.02927
21
-3.78068
0
LINE
8
BLACK
6
CONTINUOUS
10
7.02927
20
-3.78068
11
7.03337
21
-3.78618
0
LINE
8
BLACK
6
CONTINUOUS
10
7.03337
20
-3.78618
11
7.03608
21
-3.79248
0
LINE
8
BLACK
6
CONTINUOUS
10
7.03608
20
-3.79248
11
7.03727
21
-3.79923
0
LINE
8
BLACK
6
CONTINUOUS
10
7.03727
20
-3.79923
11
7.03687
21
-3.80607
0
LINE
8
BLACK
6
CONTINUOUS
10
7.03687
20
-3.80607
11
7.03491
21
-3.81264
0
LINE
8
BLACK
6
CONTINUOUS
10
7.03491
20
-3.81264
11
7.03148
21
-3.81858
0
LINE
8
BLACK
6
CONTINUOUS
10
7.03148
20
-3.81858
11
7.02678
21
-3.82356
0
LINE
8
BLACK
6
CONTINUOUS
10
7.02678
20
-3.82356
11
7.02105
21
-3.82733
0
LINE
8
BLACK
6
CONTINUOUS
10
7.02105
20
-3.82733
11
7.0146
21
-3.82968
0
LINE
8
BLACK
6
CONTINUOUS
10
7.0146
20
-3.82968
11
7.0078
21
-3.83047
0
LINE
8
BLACK
6
CONTINUOUS
10
7.0078
20
-3.83047
11
6.99992
21
-3.83047
0
LINE
8
BLACK
6
CONTINUOUS
10
6.99992
20
-3.83047
11
6.99649
21
-3.83027
0
LINE
8
BLACK
6
CONTINUOUS
10
6.99649
20
-3.83027
11
6.98982
21
-3.82869
0
LINE
8
BLACK
6
CONTINUOUS
10
6.98982
20
-3.82869
11
6.9837
21
-3.82561
0
LINE
8
BLACK
6
CONTINUOUS
10
6.9837
20
-3.82561
11
6.97844
21
-3.82121
0
LINE
8
BLACK
6
CONTINUOUS
10
6.97844
20
-3.82121
11
6.97435
21
-3.81571
0
LINE
8
BLACK
6
CONTINUOUS
10
6.97435
20
-3.81571
11
6.97163
21
-3.80941
0
LINE
8
BLACK
6
CONTINUOUS
10
6.97163
20
-3.80941
11
6.97044
21
-3.80266
0
LINE
8
BLACK
6
CONTINUOUS
10
6.97044
20
-3.80266
11
6.97084
21
-3.79582
0
LINE
8
BLACK
6
CONTINUOUS
10
6.97084
20
-3.79582
11
6.97281
21
-3.78925
0
LINE
8
BLACK
6
CONTINUOUS
10
6.97281
20
-3.78925
11
6.97624
21
-3.78331
0
LINE
8
BLACK
6
CONTINUOUS
10
6.97624
20
-3.78331
11
6.98094
21
-3.77833
0
LINE
8
BLACK
6
CONTINUOUS
10
6.98094
20
-3.77833
11
6.98667
21
-3.77456
0
LINE
8
BLACK
6
CONTINUOUS
10
6.98667
20
-3.77456
11
6.99311
21
-3.77221
0
LINE
8
BLACK
6
CONTINUOUS
10
6.99311
20
-3.77221
11
6.99992
21
-3.77142
0
LINE
8
BLACK
6
CONTINUOUS
10
6.99992
20
-3.77142
11
7.0078
21
-3.77142
0
LINE
8
BLACK
6
CONTINUOUS
10
7.0078
20
-3.77142
11
7.01122
21
-3.77162
0
LINE
8
BLACK
6
CONTINUOUS
10
5.22087
20
-3.67162
11
5.22754
21
-3.6732
0
LINE
8
BLACK
6
CONTINUOUS
10
5.22754
20
-3.6732
11
5.23367
21
-3.67627
0
LINE
8
BLACK
6
CONTINUOUS
10
5.23367
20
-3.67627
11
5.23892
21
-3.68068
0
LINE
8
BLACK
6
CONTINUOUS
10
5.23892
20
-3.68068
11
5.24301
21
-3.68618
0
LINE
8
BLACK
6
CONTINUOUS
10
5.24301
20
-3.68618
11
5.24573
21
-3.69248
0
LINE
8
BLACK
6
CONTINUOUS
10
5.24573
20
-3.69248
11
5.24692
21
-3.69923
0
LINE
8
BLACK
6
CONTINUOUS
10
5.24692
20
-3.69923
11
5.24652
21
-3.70607
0
LINE
8
BLACK
6
CONTINUOUS
10
5.24652
20
-3.70607
11
5.24455
21
-3.71264
0
LINE
8
BLACK
6
CONTINUOUS
10
5.24455
20
-3.71264
11
5.24113
21
-3.71858
0
LINE
8
BLACK
6
CONTINUOUS
10
5.24113
20
-3.71858
11
5.23642
21
-3.72356
0
LINE
8
BLACK
6
CONTINUOUS
10
5.23642
20
-3.72356
11
5.23289
21
-3.72589
0
LINE
8
BLACK
6
CONTINUOUS
10
5.23289
20
-3.72589
11
5.23367
21
-3.72627
0
LINE
8
BLACK
6
CONTINUOUS
10
5.23367
20
-3.72627
11
5.23892
21
-3.73068
0
LINE
8
BLACK
6
CONTINUOUS
10
5.23892
20
-3.73068
11
5.24301
21
-3.73618
0
LINE
8
BLACK
6
CONTINUOUS
10
5.24301
20
-3.73618
11
5.24573
21
-3.74248
0
LINE
8
BLACK
6
CONTINUOUS
10
5.24573
20
-3.74248
11
5.24692
21
-3.74923
0
LINE
8
BLACK
6
CONTINUOUS
10
5.24692
20
-3.74923
11
5.24652
21
-3.75607
0
LINE
8
BLACK
6
CONTINUOUS
10
5.24652
20
-3.75607
11
5.24455
21
-3.76264
0
LINE
8
BLACK
6
CONTINUOUS
10
5.24455
20
-3.76264
11
5.24113
21
-3.76858
0
LINE
8
BLACK
6
CONTINUOUS
10
5.24113
20
-3.76858
11
5.23642
21
-3.77356
0
LINE
8
BLACK
6
CONTINUOUS
10
5.23642
20
-3.77356
11
5.23069
21
-3.77733
0
LINE
8
BLACK
6
CONTINUOUS
10
5.23069
20
-3.77733
11
5.22425
21
-3.77968
0
LINE
8
BLACK
6
CONTINUOUS
10
5.22425
20
-3.77968
11
5.21744
21
-3.78047
0
LINE
8
BLACK
6
CONTINUOUS
10
5.21744
20
-3.78047
11
5.20957
21
-3.78047
0
LINE
8
BLACK
6
CONTINUOUS
10
5.20957
20
-3.78047
11
5.20614
21
-3.78027
0
LINE
8
BLACK
6
CONTINUOUS
10
5.20614
20
-3.78027
11
5.19947
21
-3.77869
0
LINE
8
BLACK
6
CONTINUOUS
10
5.19947
20
-3.77869
11
5.19334
21
-3.77561
0
LINE
8
BLACK
6
CONTINUOUS
10
5.19334
20
-3.77561
11
5.18809
21
-3.77121
0
LINE
8
BLACK
6
CONTINUOUS
10
5.18809
20
-3.77121
11
5.184
21
-3.76571
0
LINE
8
BLACK
6
CONTINUOUS
10
5.184
20
-3.76571
11
5.18128
21
-3.75941
0
LINE
8
BLACK
6
CONTINUOUS
10
5.18128
20
-3.75941
11
5.18009
21
-3.75266
0
LINE
8
BLACK
6
CONTINUOUS
10
5.18009
20
-3.75266
11
5.18049
21
-3.74582
0
LINE
8
BLACK
6
CONTINUOUS
10
5.18049
20
-3.74582
11
5.18245
21
-3.73925
0
LINE
8
BLACK
6
CONTINUOUS
10
5.18245
20
-3.73925
11
5.18588
21
-3.73331
0
LINE
8
BLACK
6
CONTINUOUS
10
5.18588
20
-3.73331
11
5.19059
21
-3.72833
0
LINE
8
BLACK
6
CONTINUOUS
10
5.19059
20
-3.72833
11
5.19412
21
-3.726
0
LINE
8
BLACK
6
CONTINUOUS
10
5.19412
20
-3.726
11
5.19334
21
-3.72561
0
LINE
8
BLACK
6
CONTINUOUS
10
5.19334
20
-3.72561
11
5.18809
21
-3.72121
0
LINE
8
BLACK
6
CONTINUOUS
10
5.18809
20
-3.72121
11
5.184
21
-3.71571
0
LINE
8
BLACK
6
CONTINUOUS
10
5.184
20
-3.71571
11
5.18128
21
-3.70941
0
LINE
8
BLACK
6
CONTINUOUS
10
5.18128
20
-3.70941
11
5.18009
21
-3.70266
0
LINE
8
BLACK
6
CONTINUOUS
10
5.18009
20
-3.70266
11
5.18049
21
-3.69582
0
LINE
8
BLACK
6
CONTINUOUS
10
5.18049
20
-3.69582
11
5.18245
21
-3.68925
0
LINE
8
BLACK
6
CONTINUOUS
10
5.18245
20
-3.68925
11
5.18588
21
-3.68331
0
LINE
8
BLACK
6
CONTINUOUS
10
5.18588
20
-3.68331
11
5.19059
21
-3.67833
0
LINE
8
BLACK
6
CONTINUOUS
10
5.19059
20
-3.67833
11
5.19632
21
-3.67456
0
LINE
8
BLACK
6
CONTINUOUS
10
5.19632
20
-3.67456
11
5.20276
21
-3.67221
0
LINE
8
BLACK
6
CONTINUOUS
10
5.20276
20
-3.67221
11
5.20957
21
-3.67142
0
LINE
8
BLACK
6
CONTINUOUS
10
5.20957
20
-3.67142
11
5.21744
21
-3.67142
0
LINE
8
BLACK
6
CONTINUOUS
10
5.21744
20
-3.67142
11
5.22087
21
-3.67162
0
LINE
8
BLACK
6
CONTINUOUS
10
6.95217
20
-3.67162
11
6.95884
21
-3.6732
0
LINE
8
BLACK
6
CONTINUOUS
10
6.95884
20
-3.6732
11
6.96497
21
-3.67627
0
LINE
8
BLACK
6
CONTINUOUS
10
6.96497
20
-3.67627
11
6.97022
21
-3.68068
0
LINE
8
BLACK
6
CONTINUOUS
10
6.97022
20
-3.68068
11
6.97431
21
-3.68618
0
LINE
8
BLACK
6
CONTINUOUS
10
6.97431
20
-3.68618
11
6.97703
21
-3.69248
0
LINE
8
BLACK
6
CONTINUOUS
10
6.97703
20
-3.69248
11
6.97822
21
-3.69923
0
LINE
8
BLACK
6
CONTINUOUS
10
6.97822
20
-3.69923
11
6.97782
21
-3.70607
0
LINE
8
BLACK
6
CONTINUOUS
10
6.97782
20
-3.70607
11
6.97585
21
-3.71264
0
LINE
8
BLACK
6
CONTINUOUS
10
6.97585
20
-3.71264
11
6.97242
21
-3.71858
0
LINE
8
BLACK
6
CONTINUOUS
10
6.97242
20
-3.71858
11
6.96772
21
-3.72356
0
LINE
8
BLACK
6
CONTINUOUS
10
6.96772
20
-3.72356
11
6.96419
21
-3.72589
0
LINE
8
BLACK
6
CONTINUOUS
10
6.96419
20
-3.72589
11
6.96497
21
-3.72627
0
LINE
8
BLACK
6
CONTINUOUS
10
6.96497
20
-3.72627
11
6.97022
21
-3.73068
0
LINE
8
BLACK
6
CONTINUOUS
10
6.97022
20
-3.73068
11
6.97431
21
-3.73618
0
LINE
8
BLACK
6
CONTINUOUS
10
6.97431
20
-3.73618
11
6.97703
21
-3.74248
0
LINE
8
BLACK
6
CONTINUOUS
10
6.97703
20
-3.74248
11
6.97822
21
-3.74923
0
LINE
8
BLACK
6
CONTINUOUS
10
6.97822
20
-3.74923
11
6.97782
21
-3.75607
0
LINE
8
BLACK
6
CONTINUOUS
10
6.97782
20
-3.75607
11
6.97585
21
-3.76264
0
LINE
8
BLACK
6
CONTINUOUS
10
6.97585
20
-3.76264
11
6.97242
21
-3.76858
0
LINE
8
BLACK
6
CONTINUOUS
10
6.97242
20
-3.76858
11
6.96772
21
-3.77356
0
LINE
8
BLACK
6
CONTINUOUS
10
6.96772
20
-3.77356
11
6.96199
21
-3.77733
0
LINE
8
BLACK
6
CONTINUOUS
10
6.96199
20
-3.77733
11
6.95555
21
-3.77968
0
LINE
8
BLACK
6
CONTINUOUS
10
6.95555
20
-3.77968
11
6.94874
21
-3.78047
0
LINE
8
BLACK
6
CONTINUOUS
10
6.94874
20
-3.78047
11
6.94087
21
-3.78047
0
LINE
8
BLACK
6
CONTINUOUS
10
6.94087
20
-3.78047
11
6.93744
21
-3.78027
0
LINE
8
BLACK
6
CONTINUOUS
10
6.93744
20
-3.78027
11
6.93077
21
-3.77869
0
LINE
8
BLACK
6
CONTINUOUS
10
6.93077
20
-3.77869
11
6.92464
21
-3.77561
0
LINE
8
BLACK
6
CONTINUOUS
10
6.92464
20
-3.77561
11
6.91939
21
-3.77121
0
LINE
8
BLACK
6
CONTINUOUS
10
6.91939
20
-3.77121
11
6.91529
21
-3.76571
0
LINE
8
BLACK
6
CONTINUOUS
10
6.91529
20
-3.76571
11
6.91258
21
-3.75941
0
LINE
8
BLACK
6
CONTINUOUS
10
6.91258
20
-3.75941
11
6.91139
21
-3.75266
0
LINE
8
BLACK
6
CONTINUOUS
10
6.91139
20
-3.75266
11
6.91179
21
-3.74582
0
LINE
8
BLACK
6
CONTINUOUS
10
6.91179
20
-3.74582
11
6.91375
21
-3.73925
0
LINE
8
BLACK
6
CONTINUOUS
10
6.91375
20
-3.73925
11
6.91718
21
-3.73331
0
LINE
8
BLACK
6
CONTINUOUS
10
6.91718
20
-3.73331
11
6.92189
21
-3.72833
0
LINE
8
BLACK
6
CONTINUOUS
10
6.92189
20
-3.72833
11
6.92542
21
-3.726
0
LINE
8
BLACK
6
CONTINUOUS
10
6.92542
20
-3.726
11
6.92464
21
-3.72561
0
LINE
8
BLACK
6
CONTINUOUS
10
6.92464
20
-3.72561
11
6.91939
21
-3.72121
0
LINE
8
BLACK
6
CONTINUOUS
10
6.91939
20
-3.72121
11
6.91529
21
-3.71571
0
LINE
8
BLACK
6
CONTINUOUS
10
6.91529
20
-3.71571
11
6.91258
21
-3.70941
0
LINE
8
BLACK
6
CONTINUOUS
10
6.91258
20
-3.70941
11
6.91139
21
-3.70266
0
LINE
8
BLACK
6
CONTINUOUS
10
6.91139
20
-3.70266
11
6.91179
21
-3.69582
0
LINE
8
BLACK
6
CONTINUOUS
10
6.91179
20
-3.69582
11
6.91375
21
-3.68925
0
LINE
8
BLACK
6
CONTINUOUS
10
6.91375
20
-3.68925
11
6.91718
21
-3.68331
0
LINE
8
BLACK
6
CONTINUOUS
10
6.91718
20
-3.68331
11
6.92189
21
-3.67833
0
LINE
8
BLACK
6
CONTINUOUS
10
6.92189
20
-3.67833
11
6.92761
21
-3.67456
0
LINE
8
BLACK
6
CONTINUOUS
10
6.92761
20
-3.67456
11
6.93406
21
-3.67221
0
LINE
8
BLACK
6
CONTINUOUS
10
6.93406
20
-3.67221
11
6.94087
21
-3.67142
0
LINE
8
BLACK
6
CONTINUOUS
10
6.94087
20
-3.67142
11
6.94874
21
-3.67142
0
LINE
8
BLACK
6
CONTINUOUS
10
6.94874
20
-3.67142
11
6.95217
21
-3.67162
0
LINE
8
BLACK
6
CONTINUOUS
10
5.27992
20
-3.62162
11
5.2866
21
-3.6232
0
LINE
8
BLACK
6
CONTINUOUS
10
5.2866
20
-3.6232
11
5.29272
21
-3.62627
0
LINE
8
BLACK
6
CONTINUOUS
10
5.29272
20
-3.62627
11
5.29797
21
-3.63068
0
LINE
8
BLACK
6
CONTINUOUS
10
5.29797
20
-3.63068
11
5.30207
21
-3.63618
0
LINE
8
BLACK
6
CONTINUOUS
10
5.30207
20
-3.63618
11
5.30478
21
-3.64248
0
LINE
8
BLACK
6
CONTINUOUS
10
5.30478
20
-3.64248
11
5.30597
21
-3.64923
0
LINE
8
BLACK
6
CONTINUOUS
10
5.30597
20
-3.64923
11
5.30558
21
-3.65607
0
LINE
8
BLACK
6
CONTINUOUS
10
5.30558
20
-3.65607
11
5.30361
21
-3.66264
0
LINE
8
BLACK
6
CONTINUOUS
10
5.30361
20
-3.66264
11
5.30018
21
-3.66858
0
LINE
8
BLACK
6
CONTINUOUS
10
5.30018
20
-3.66858
11
5.29548
21
-3.67356
0
LINE
8
BLACK
6
CONTINUOUS
10
5.29548
20
-3.67356
11
5.28975
21
-3.67733
0
LINE
8
BLACK
6
CONTINUOUS
10
5.28975
20
-3.67733
11
5.28331
21
-3.67968
0
LINE
8
BLACK
6
CONTINUOUS
10
5.28331
20
-3.67968
11
5.2765
21
-3.68047
0
LINE
8
BLACK
6
CONTINUOUS
10
5.2765
20
-3.68047
11
5.26862
21
-3.68047
0
LINE
8
BLACK
6
CONTINUOUS
10
5.26862
20
-3.68047
11
5.26519
21
-3.68027
0
LINE
8
BLACK
6
CONTINUOUS
10
5.26519
20
-3.68027
11
5.25852
21
-3.67869
0
LINE
8
BLACK
6
CONTINUOUS
10
5.25852
20
-3.67869
11
5.2524
21
-3.67561
0
LINE
8
BLACK
6
CONTINUOUS
10
5.2524
20
-3.67561
11
5.24714
21
-3.67121
0
LINE
8
BLACK
6
CONTINUOUS
10
5.24714
20
-3.67121
11
5.24305
21
-3.66571
0
LINE
8
BLACK
6
CONTINUOUS
10
5.24305
20
-3.66571
11
5.24033
21
-3.65941
0
LINE
8
BLACK
6
CONTINUOUS
10
5.24033
20
-3.65941
11
5.23914
21
-3.65266
0
LINE
8
BLACK
6
CONTINUOUS
10
5.23914
20
-3.65266
11
5.23954
21
-3.64582
0
LINE
8
BLACK
6
CONTINUOUS
10
5.23954
20
-3.64582
11
5.24151
21
-3.63925
0
LINE
8
BLACK
6
CONTINUOUS
10
5.24151
20
-3.63925
11
5.24494
21
-3.63331
0
LINE
8
BLACK
6
CONTINUOUS
10
5.24494
20
-3.63331
11
5.24964
21
-3.62833
0
LINE
8
BLACK
6
CONTINUOUS
10
5.24964
20
-3.62833
11
5.25537
21
-3.62456
0
LINE
8
BLACK
6
CONTINUOUS
10
5.25537
20
-3.62456
11
5.26181
21
-3.62221
0
LINE
8
BLACK
6
CONTINUOUS
10
5.26181
20
-3.62221
11
5.26862
21
-3.62142
0
LINE
8
BLACK
6
CONTINUOUS
10
5.26862
20
-3.62142
11
5.2765
21
-3.62142
0
LINE
8
BLACK
6
CONTINUOUS
10
5.2765
20
-3.62142
11
5.27992
21
-3.62162
0
LINE
8
BLACK
6
CONTINUOUS
10
7.01122
20
-3.62162
11
7.01789
21
-3.6232
0
LINE
8
BLACK
6
CONTINUOUS
10
7.01789
20
-3.6232
11
7.02402
21
-3.62627
0
LINE
8
BLACK
6
CONTINUOUS
10
7.02402
20
-3.62627
11
7.02927
21
-3.63068
0
LINE
8
BLACK
6
CONTINUOUS
10
7.02927
20
-3.63068
11
7.03337
21
-3.63618
0
LINE
8
BLACK
6
CONTINUOUS
10
7.03337
20
-3.63618
11
7.03608
21
-3.64248
0
LINE
8
BLACK
6
CONTINUOUS
10
7.03608
20
-3.64248
11
7.03727
21
-3.64923
0
LINE
8
BLACK
6
CONTINUOUS
10
7.03727
20
-3.64923
11
7.03687
21
-3.65607
0
LINE
8
BLACK
6
CONTINUOUS
10
7.03687
20
-3.65607
11
7.03491
21
-3.66264
0
LINE
8
BLACK
6
CONTINUOUS
10
7.03491
20
-3.66264
11
7.03148
21
-3.66858
0
LINE
8
BLACK
6
CONTINUOUS
10
7.03148
20
-3.66858
11
7.02678
21
-3.67356
0
LINE
8
BLACK
6
CONTINUOUS
10
7.02678
20
-3.67356
11
7.02105
21
-3.67733
0
LINE
8
BLACK
6
CONTINUOUS
10
7.02105
20
-3.67733
11
7.0146
21
-3.67968
0
LINE
8
BLACK
6
CONTINUOUS
10
7.0146
20
-3.67968
11
7.0078
21
-3.68047
0
LINE
8
BLACK
6
CONTINUOUS
10
7.0078
20
-3.68047
11
6.99992
21
-3.68047
0
LINE
8
BLACK
6
CONTINUOUS
10
6.99992
20
-3.68047
11
6.99649
21
-3.68027
0
LINE
8
BLACK
6
CONTINUOUS
10
6.99649
20
-3.68027
11
6.98982
21
-3.67869
0
LINE
8
BLACK
6
CONTINUOUS
10
6.98982
20
-3.67869
11
6.9837
21
-3.67561
0
LINE
8
BLACK
6
CONTINUOUS
10
6.9837
20
-3.67561
11
6.97844
21
-3.67121
0
LINE
8
BLACK
6
CONTINUOUS
10
6.97844
20
-3.67121
11
6.97435
21
-3.66571
0
LINE
8
BLACK
6
CONTINUOUS
10
6.97435
20
-3.66571
11
6.97163
21
-3.65941
0
LINE
8
BLACK
6
CONTINUOUS
10
6.97163
20
-3.65941
11
6.97044
21
-3.65266
0
LINE
8
BLACK
6
CONTINUOUS
10
6.97044
20
-3.65266
11
6.97084
21
-3.64582
0
LINE
8
BLACK
6
CONTINUOUS
10
6.97084
20
-3.64582
11
6.97281
21
-3.63925
0
LINE
8
BLACK
6
CONTINUOUS
10
6.97281
20
-3.63925
11
6.97624
21
-3.63331
0
LINE
8
BLACK
6
CONTINUOUS
10
6.97624
20
-3.63331
11
6.98094
21
-3.62833
0
LINE
8
BLACK
6
CONTINUOUS
10
6.98094
20
-3.62833
11
6.98667
21
-3.62456
0
LINE
8
BLACK
6
CONTINUOUS
10
6.98667
20
-3.62456
11
6.99311
21
-3.62221
0
LINE
8
BLACK
6
CONTINUOUS
10
6.99311
20
-3.62221
11
6.99992
21
-3.62142
0
LINE
8
BLACK
6
CONTINUOUS
10
6.99992
20
-3.62142
11
7.0078
21
-3.62142
0
LINE
8
BLACK
6
CONTINUOUS
10
7.0078
20
-3.62142
11
7.01122
21
-3.62162
0
LINE
8
BLACK
6
CONTINUOUS
10
5.22087
20
-3.52162
11
5.22754
21
-3.5232
0
LINE
8
BLACK
6
CONTINUOUS
10
5.22754
20
-3.5232
11
5.23367
21
-3.52627
0
LINE
8
BLACK
6
CONTINUOUS
10
5.23367
20
-3.52627
11
5.23892
21
-3.53068
0
LINE
8
BLACK
6
CONTINUOUS
10
5.23892
20
-3.53068
11
5.24301
21
-3.53618
0
LINE
8
BLACK
6
CONTINUOUS
10
5.24301
20
-3.53618
11
5.24573
21
-3.54248
0
LINE
8
BLACK
6
CONTINUOUS
10
5.24573
20
-3.54248
11
5.24692
21
-3.54923
0
LINE
8
BLACK
6
CONTINUOUS
10
5.24692
20
-3.54923
11
5.24652
21
-3.55607
0
LINE
8
BLACK
6
CONTINUOUS
10
5.24652
20
-3.55607
11
5.24455
21
-3.56264
0
LINE
8
BLACK
6
CONTINUOUS
10
5.24455
20
-3.56264
11
5.24113
21
-3.56858
0
LINE
8
BLACK
6
CONTINUOUS
10
5.24113
20
-3.56858
11
5.23642
21
-3.57356
0
LINE
8
BLACK
6
CONTINUOUS
10
5.23642
20
-3.57356
11
5.23289
21
-3.57589
0
LINE
8
BLACK
6
CONTINUOUS
10
5.23289
20
-3.57589
11
5.23367
21
-3.57627
0
LINE
8
BLACK
6
CONTINUOUS
10
5.23367
20
-3.57627
11
5.23892
21
-3.58068
0
LINE
8
BLACK
6
CONTINUOUS
10
5.23892
20
-3.58068
11
5.24301
21
-3.58618
0
LINE
8
BLACK
6
CONTINUOUS
10
5.24301
20
-3.58618
11
5.24573
21
-3.59248
0
LINE
8
BLACK
6
CONTINUOUS
10
5.24573
20
-3.59248
11
5.24692
21
-3.59923
0
LINE
8
BLACK
6
CONTINUOUS
10
5.24692
20
-3.59923
11
5.24652
21
-3.60607
0
LINE
8
BLACK
6
CONTINUOUS
10
5.24652
20
-3.60607
11
5.24455
21
-3.61264
0
LINE
8
BLACK
6
CONTINUOUS
10
5.24455
20
-3.61264
11
5.24113
21
-3.61858
0
LINE
8
BLACK
6
CONTINUOUS
10
5.24113
20
-3.61858
11
5.23642
21
-3.62356
0
LINE
8
BLACK
6
CONTINUOUS
10
5.23642
20
-3.62356
11
5.23069
21
-3.62733
0
LINE
8
BLACK
6
CONTINUOUS
10
5.23069
20
-3.62733
11
5.22425
21
-3.62968
0
LINE
8
BLACK
6
CONTINUOUS
10
5.22425
20
-3.62968
11
5.21744
21
-3.63047
0
LINE
8
BLACK
6
CONTINUOUS
10
5.21744
20
-3.63047
11
5.20957
21
-3.63047
0
LINE
8
BLACK
6
CONTINUOUS
10
5.20957
20
-3.63047
11
5.20614
21
-3.63027
0
LINE
8
BLACK
6
CONTINUOUS
10
5.20614
20
-3.63027
11
5.19947
21
-3.62869
0
LINE
8
BLACK
6
CONTINUOUS
10
5.19947
20
-3.62869
11
5.19334
21
-3.62561
0
LINE
8
BLACK
6
CONTINUOUS
10
5.19334
20
-3.62561
11
5.18809
21
-3.62121
0
LINE
8
BLACK
6
CONTINUOUS
10
5.18809
20
-3.62121
11
5.184
21
-3.61571
0
LINE
8
BLACK
6
CONTINUOUS
10
5.184
20
-3.61571
11
5.18128
21
-3.60941
0
LINE
8
BLACK
6
CONTINUOUS
10
5.18128
20
-3.60941
11
5.18009
21
-3.60266
0
LINE
8
BLACK
6
CONTINUOUS
10
5.18009
20
-3.60266
11
5.18049
21
-3.59582
0
LINE
8
BLACK
6
CONTINUOUS
10
5.18049
20
-3.59582
11
5.18245
21
-3.58925
0
LINE
8
BLACK
6
CONTINUOUS
10
5.18245
20
-3.58925
11
5.18588
21
-3.58331
0
LINE
8
BLACK
6
CONTINUOUS
10
5.18588
20
-3.58331
11
5.19059
21
-3.57833
0
LINE
8
BLACK
6
CONTINUOUS
10
5.19059
20
-3.57833
11
5.19412
21
-3.576
0
LINE
8
BLACK
6
CONTINUOUS
10
5.19412
20
-3.576
11
5.19334
21
-3.57561
0
LINE
8
BLACK
6
CONTINUOUS
10
5.19334
20
-3.57561
11
5.18809
21
-3.57121
0
LINE
8
BLACK
6
CONTINUOUS
10
5.18809
20
-3.57121
11
5.184
21
-3.56571
0
LINE
8
BLACK
6
CONTINUOUS
10
5.184
20
-3.56571
11
5.18128
21
-3.55941
0
LINE
8
BLACK
6
CONTINUOUS
10
5.18128
20
-3.55941
11
5.18009
21
-3.55266
0
LINE
8
BLACK
6
CONTINUOUS
10
5.18009
20
-3.55266
11
5.18049
21
-3.54582
0
LINE
8
BLACK
6
CONTINUOUS
10
5.18049
20
-3.54582
11
5.18245
21
-3.53925
0
LINE
8
BLACK
6
CONTINUOUS
10
5.18245
20
-3.53925
11
5.18588
21
-3.53331
0
LINE
8
BLACK
6
CONTINUOUS
10
5.18588
20
-3.53331
11
5.19059
21
-3.52833
0
LINE
8
BLACK
6
CONTINUOUS
10
5.19059
20
-3.52833
11
5.19632
21
-3.52456
0
LINE
8
BLACK
6
CONTINUOUS
10
5.19632
20
-3.52456
11
5.20276
21
-3.52221
0
LINE
8
BLACK
6
CONTINUOUS
10
5.20276
20
-3.52221
11
5.20957
21
-3.52142
0
LINE
8
BLACK
6
CONTINUOUS
10
5.20957
20
-3.52142
11
5.21744
21
-3.52142
0
LINE
8
BLACK
6
CONTINUOUS
10
5.21744
20
-3.52142
11
5.22087
21
-3.52162
0
LINE
8
BLACK
6
CONTINUOUS
10
6.95217
20
-3.52162
11
6.95884
21
-3.5232
0
LINE
8
BLACK
6
CONTINUOUS
10
6.95884
20
-3.5232
11
6.96497
21
-3.52627
0
LINE
8
BLACK
6
CONTINUOUS
10
6.96497
20
-3.52627
11
6.97022
21
-3.53068
0
LINE
8
BLACK
6
CONTINUOUS
10
6.97022
20
-3.53068
11
6.97431
21
-3.53618
0
LINE
8
BLACK
6
CONTINUOUS
10
6.97431
20
-3.53618
11
6.97703
21
-3.54248
0
LINE
8
BLACK
6
CONTINUOUS
10
6.97703
20
-3.54248
11
6.97822
21
-3.54923
0
LINE
8
BLACK
6
CONTINUOUS
10
6.97822
20
-3.54923
11
6.97782
21
-3.55607
0
LINE
8
BLACK
6
CONTINUOUS
10
6.97782
20
-3.55607
11
6.97585
21
-3.56264
0
LINE
8
BLACK
6
CONTINUOUS
10
6.97585
20
-3.56264
11
6.97242
21
-3.56858
0
LINE
8
BLACK
6
CONTINUOUS
10
6.97242
20
-3.56858
11
6.96772
21
-3.57356
0
LINE
8
BLACK
6
CONTINUOUS
10
6.96772
20
-3.57356
11
6.96419
21
-3.57589
0
LINE
8
BLACK
6
CONTINUOUS
10
6.96419
20
-3.57589
11
6.96497
21
-3.57627
0
LINE
8
BLACK
6
CONTINUOUS
10
6.96497
20
-3.57627
11
6.97022
21
-3.58068
0
LINE
8
BLACK
6
CONTINUOUS
10
6.97022
20
-3.58068
11
6.97431
21
-3.58618
0
LINE
8
BLACK
6
CONTINUOUS
10
6.97431
20
-3.58618
11
6.97703
21
-3.59248
0
LINE
8
BLACK
6
CONTINUOUS
10
6.97703
20
-3.59248
11
6.97822
21
-3.59923
0
LINE
8
BLACK
6
CONTINUOUS
10
6.97822
20
-3.59923
11
6.97782
21
-3.60607
0
LINE
8
BLACK
6
CONTINUOUS
10
6.97782
20
-3.60607
11
6.97585
21
-3.61264
0
LINE
8
BLACK
6
CONTINUOUS
10
6.97585
20
-3.61264
11
6.97242
21
-3.61858
0
LINE
8
BLACK
6
CONTINUOUS
10
6.97242
20
-3.61858
11
6.96772
21
-3.62356
0
LINE
8
BLACK
6
CONTINUOUS
10
6.96772
20
-3.62356
11
6.96199
21
-3.62733
0
LINE
8
BLACK
6
CONTINUOUS
10
6.96199
20
-3.62733
11
6.95555
21
-3.62968
0
LINE
8
BLACK
6
CONTINUOUS
10
6.95555
20
-3.62968
11
6.94874
21
-3.63047
0
LINE
8
BLACK
6
CONTINUOUS
10
6.94874
20
-3.63047
11
6.94087
21
-3.63047
0
LINE
8
BLACK
6
CONTINUOUS
10
6.94087
20
-3.63047
11
6.93744
21
-3.63027
0
LINE
8
BLACK
6
CONTINUOUS
10
6.93744
20
-3.63027
11
6.93077
21
-3.62869
0
LINE
8
BLACK
6
CONTINUOUS
10
6.93077
20
-3.62869
11
6.92464
21
-3.62561
0
LINE
8
BLACK
6
CONTINUOUS
10
6.92464
20
-3.62561
11
6.91939
21
-3.62121
0
LINE
8
BLACK
6
CONTINUOUS
10
6.91939
20
-3.62121
11
6.91529
21
-3.61571
0
LINE
8
BLACK
6
CONTINUOUS
10
6.91529
20
-3.61571
11
6.91258
21
-3.60941
0
LINE
8
BLACK
6
CONTINUOUS
10
6.91258
20
-3.60941
11
6.91139
21
-3.60266
0
LINE
8
BLACK
6
CONTINUOUS
10
6.91139
20
-3.60266
11
6.91179
21
-3.59582
0
LINE
8
BLACK
6
CONTINUOUS
10
6.91179
20
-3.59582
11
6.91375
21
-3.58925
0
LINE
8
BLACK
6
CONTINUOUS
10
6.91375
20
-3.58925
11
6.91718
21
-3.58331
0
LINE
8
BLACK
6
CONTINUOUS
10
6.91718
20
-3.58331
11
6.92189
21
-3.57833
0
LINE
8
BLACK
6
CONTINUOUS
10
6.92189
20
-3.57833
11
6.92542
21
-3.576
0
LINE
8
BLACK
6
CONTINUOUS
10
6.92542
20
-3.576
11
6.92464
21
-3.57561
0
LINE
8
BLACK
6
CONTINUOUS
10
6.92464
20
-3.57561
11
6.91939
21
-3.57121
0
LINE
8
BLACK
6
CONTINUOUS
10
6.91939
20
-3.57121
11
6.91529
21
-3.56571
0
LINE
8
BLACK
6
CONTINUOUS
10
6.91529
20
-3.56571
11
6.91258
21
-3.55941
0
LINE
8
BLACK
6
CONTINUOUS
10
6.91258
20
-3.55941
11
6.91139
21
-3.55266
0
LINE
8
BLACK
6
CONTINUOUS
10
6.91139
20
-3.55266
11
6.91179
21
-3.54582
0
LINE
8
BLACK
6
CONTINUOUS
10
6.91179
20
-3.54582
11
6.91375
21
-3.53925
0
LINE
8
BLACK
6
CONTINUOUS
10
6.91375
20
-3.53925
11
6.91718
21
-3.53331
0
LINE
8
BLACK
6
CONTINUOUS
10
6.91718
20
-3.53331
11
6.92189
21
-3.52833
0
LINE
8
BLACK
6
CONTINUOUS
10
6.92189
20
-3.52833
11
6.92761
21
-3.52456
0
LINE
8
BLACK
6
CONTINUOUS
10
6.92761
20
-3.52456
11
6.93406
21
-3.52221
0
LINE
8
BLACK
6
CONTINUOUS
10
6.93406
20
-3.52221
11
6.94087
21
-3.52142
0
LINE
8
BLACK
6
CONTINUOUS
10
6.94087
20
-3.52142
11
6.94874
21
-3.52142
0
LINE
8
BLACK
6
CONTINUOUS
10
6.94874
20
-3.52142
11
6.95217
21
-3.52162
0
LINE
8
BLACK
6
CONTINUOUS
10
5.27992
20
-3.47162
11
5.2866
21
-3.4732
0
LINE
8
BLACK
6
CONTINUOUS
10
5.2866
20
-3.4732
11
5.29272
21
-3.47627
0
LINE
8
BLACK
6
CONTINUOUS
10
5.29272
20
-3.47627
11
5.29797
21
-3.48068
0
LINE
8
BLACK
6
CONTINUOUS
10
5.29797
20
-3.48068
11
5.30207
21
-3.48618
0
LINE
8
BLACK
6
CONTINUOUS
10
5.30207
20
-3.48618
11
5.30478
21
-3.49248
0
LINE
8
BLACK
6
CONTINUOUS
10
5.30478
20
-3.49248
11
5.30597
21
-3.49923
0
LINE
8
BLACK
6
CONTINUOUS
10
5.30597
20
-3.49923
11
5.30558
21
-3.50607
0
LINE
8
BLACK
6
CONTINUOUS
10
5.30558
20
-3.50607
11
5.30361
21
-3.51264
0
LINE
8
BLACK
6
CONTINUOUS
10
5.30361
20
-3.51264
11
5.30018
21
-3.51858
0
LINE
8
BLACK
6
CONTINUOUS
10
5.30018
20
-3.51858
11
5.29548
21
-3.52356
0
LINE
8
BLACK
6
CONTINUOUS
10
5.29548
20
-3.52356
11
5.28975
21
-3.52733
0
LINE
8
BLACK
6
CONTINUOUS
10
5.28975
20
-3.52733
11
5.28331
21
-3.52968
0
LINE
8
BLACK
6
CONTINUOUS
10
5.28331
20
-3.52968
11
5.2765
21
-3.53047
0
LINE
8
BLACK
6
CONTINUOUS
10
5.2765
20
-3.53047
11
5.26862
21
-3.53047
0
LINE
8
BLACK
6
CONTINUOUS
10
5.26862
20
-3.53047
11
5.26519
21
-3.53027
0
LINE
8
BLACK
6
CONTINUOUS
10
5.26519
20
-3.53027
11
5.25852
21
-3.52869
0
LINE
8
BLACK
6
CONTINUOUS
10
5.25852
20
-3.52869
11
5.2524
21
-3.52561
0
LINE
8
BLACK
6
CONTINUOUS
10
5.2524
20
-3.52561
11
5.24714
21
-3.52121
0
LINE
8
BLACK
6
CONTINUOUS
10
5.24714
20
-3.52121
11
5.24305
21
-3.51571
0
LINE
8
BLACK
6
CONTINUOUS
10
5.24305
20
-3.51571
11
5.24033
21
-3.50941
0
LINE
8
BLACK
6
CONTINUOUS
10
5.24033
20
-3.50941
11
5.23914
21
-3.50266
0
LINE
8
BLACK
6
CONTINUOUS
10
5.23914
20
-3.50266
11
5.23954
21
-3.49582
0
LINE
8
BLACK
6
CONTINUOUS
10
5.23954
20
-3.49582
11
5.24151
21
-3.48925
0
LINE
8
BLACK
6
CONTINUOUS
10
5.24151
20
-3.48925
11
5.24494
21
-3.48331
0
LINE
8
BLACK
6
CONTINUOUS
10
5.24494
20
-3.48331
11
5.24964
21
-3.47833
0
LINE
8
BLACK
6
CONTINUOUS
10
5.24964
20
-3.47833
11
5.25537
21
-3.47456
0
LINE
8
BLACK
6
CONTINUOUS
10
5.25537
20
-3.47456
11
5.26181
21
-3.47221
0
LINE
8
BLACK
6
CONTINUOUS
10
5.26181
20
-3.47221
11
5.26862
21
-3.47142
0
LINE
8
BLACK
6
CONTINUOUS
10
5.26862
20
-3.47142
11
5.2765
21
-3.47142
0
LINE
8
BLACK
6
CONTINUOUS
10
5.2765
20
-3.47142
11
5.27992
21
-3.47162
0
LINE
8
BLACK
6
CONTINUOUS
10
7.01122
20
-3.47162
11
7.01789
21
-3.4732
0
LINE
8
BLACK
6
CONTINUOUS
10
7.01789
20
-3.4732
11
7.02402
21
-3.47627
0
LINE
8
BLACK
6
CONTINUOUS
10
7.02402
20
-3.47627
11
7.02927
21
-3.48068
0
LINE
8
BLACK
6
CONTINUOUS
10
7.02927
20
-3.48068
11
7.03337
21
-3.48618
0
LINE
8
BLACK
6
CONTINUOUS
10
7.03337
20
-3.48618
11
7.03608
21
-3.49248
0
LINE
8
BLACK
6
CONTINUOUS
10
7.03608
20
-3.49248
11
7.03727
21
-3.49923
0
LINE
8
BLACK
6
CONTINUOUS
10
7.03727
20
-3.49923
11
7.03687
21
-3.50607
0
LINE
8
BLACK
6
CONTINUOUS
10
7.03687
20
-3.50607
11
7.03491
21
-3.51264
0
LINE
8
BLACK
6
CONTINUOUS
10
7.03491
20
-3.51264
11
7.03148
21
-3.51858
0
LINE
8
BLACK
6
CONTINUOUS
10
7.03148
20
-3.51858
11
7.02678
21
-3.52356
0
LINE
8
BLACK
6
CONTINUOUS
10
7.02678
20
-3.52356
11
7.02105
21
-3.52733
0
LINE
8
BLACK
6
CONTINUOUS
10
7.02105
20
-3.52733
11
7.0146
21
-3.52968
0
LINE
8
BLACK
6
CONTINUOUS
10
7.0146
20
-3.52968
11
7.0078
21
-3.53047
0
LINE
8
BLACK
6
CONTINUOUS
10
7.0078
20
-3.53047
11
6.99992
21
-3.53047
0
LINE
8
BLACK
6
CONTINUOUS
10
6.99992
20
-3.53047
11
6.99649
21
-3.53027
0
LINE
8
BLACK
6
CONTINUOUS
10
6.99649
20
-3.53027
11
6.98982
21
-3.52869
0
LINE
8
BLACK
6
CONTINUOUS
10
6.98982
20
-3.52869
11
6.9837
21
-3.52561
0
LINE
8
BLACK
6
CONTINUOUS
10
6.9837
20
-3.52561
11
6.97844
21
-3.52121
0
LINE
8
BLACK
6
CONTINUOUS
10
6.97844
20
-3.52121
11
6.97435
21
-3.51571
0
LINE
8
BLACK
6
CONTINUOUS
10
6.97435
20
-3.51571
11
6.97163
21
-3.50941
0
LINE
8
BLACK
6
CONTINUOUS
10
6.97163
20
-3.50941
11
6.97044
21
-3.50266
0
LINE
8
BLACK
6
CONTINUOUS
10
6.97044
20
-3.50266
11
6.97084
21
-3.49582
0
LINE
8
BLACK
6
CONTINUOUS
10
6.97084
20
-3.49582
11
6.97281
21
-3.48925
0
LINE
8
BLACK
6
CONTINUOUS
10
6.97281
20
-3.48925
11
6.97624
21
-3.48331
0
LINE
8
BLACK
6
CONTINUOUS
10
6.97624
20
-3.48331
11
6.98094
21
-3.47833
0
LINE
8
BLACK
6
CONTINUOUS
10
6.98094
20
-3.47833
11
6.98667
21
-3.47456
0
LINE
8
BLACK
6
CONTINUOUS
10
6.98667
20
-3.47456
11
6.99311
21
-3.47221
0
LINE
8
BLACK
6
CONTINUOUS
10
6.99311
20
-3.47221
11
6.99992
21
-3.47142
0
LINE
8
BLACK
6
CONTINUOUS
10
6.99992
20
-3.47142
11
7.0078
21
-3.47142
0
LINE
8
BLACK
6
CONTINUOUS
10
7.0078
20
-3.47142
11
7.01122
21
-3.47162
0
LINE
8
BLACK
6
CONTINUOUS
10
5.22752
20
-3.34875
11
5.23644
21
-3.35182
0
LINE
8
BLACK
6
CONTINUOUS
10
5.23644
20
-3.35182
11
5.24473
21
-3.3563
0
LINE
8
BLACK
6
CONTINUOUS
10
5.24473
20
-3.3563
11
5.25217
21
-3.36209
0
LINE
8
BLACK
6
CONTINUOUS
10
5.25217
20
-3.36209
11
5.25855
21
-3.36903
0
LINE
8
BLACK
6
CONTINUOUS
10
5.25855
20
-3.36903
11
5.26371
21
-3.37692
0
LINE
8
BLACK
6
CONTINUOUS
10
5.26371
20
-3.37692
11
5.2675
21
-3.38556
0
LINE
8
BLACK
6
CONTINUOUS
10
5.2675
20
-3.38556
11
5.26981
21
-3.3947
0
LINE
8
BLACK
6
CONTINUOUS
10
5.26981
20
-3.3947
11
5.27059
21
-3.40409
0
LINE
8
BLACK
6
CONTINUOUS
10
5.27059
20
-3.40409
11
5.26981
21
-3.41349
0
LINE
8
BLACK
6
CONTINUOUS
10
5.26981
20
-3.41349
11
5.2675
21
-3.42263
0
LINE
8
BLACK
6
CONTINUOUS
10
5.2675
20
-3.42263
11
5.26371
21
-3.43126
0
LINE
8
BLACK
6
CONTINUOUS
10
5.26371
20
-3.43126
11
5.25855
21
-3.43916
0
LINE
8
BLACK
6
CONTINUOUS
10
5.25855
20
-3.43916
11
5.25217
21
-3.44609
0
LINE
8
BLACK
6
CONTINUOUS
10
5.25217
20
-3.44609
11
5.24473
21
-3.45189
0
LINE
8
BLACK
6
CONTINUOUS
10
5.24473
20
-3.45189
11
5.23644
21
-3.45637
0
LINE
8
BLACK
6
CONTINUOUS
10
5.23644
20
-3.45637
11
5.22752
21
-3.45943
0
LINE
8
BLACK
6
CONTINUOUS
10
5.22752
20
-3.45943
11
5.21822
21
-3.46099
0
LINE
8
BLACK
6
CONTINUOUS
10
5.21822
20
-3.46099
11
5.20879
21
-3.46099
0
LINE
8
BLACK
6
CONTINUOUS
10
5.20879
20
-3.46099
11
5.19949
21
-3.45943
0
LINE
8
BLACK
6
CONTINUOUS
10
5.19949
20
-3.45943
11
5.19057
21
-3.45637
0
LINE
8
BLACK
6
CONTINUOUS
10
5.19057
20
-3.45637
11
5.18228
21
-3.45189
0
LINE
8
BLACK
6
CONTINUOUS
10
5.18228
20
-3.45189
11
5.17484
21
-3.44609
0
LINE
8
BLACK
6
CONTINUOUS
10
5.17484
20
-3.44609
11
5.16845
21
-3.43916
0
LINE
8
BLACK
6
CONTINUOUS
10
5.16845
20
-3.43916
11
5.1633
21
-3.43126
0
LINE
8
BLACK
6
CONTINUOUS
10
5.1633
20
-3.43126
11
5.15951
21
-3.42263
0
LINE
8
BLACK
6
CONTINUOUS
10
5.15951
20
-3.42263
11
5.1572
21
-3.41349
0
LINE
8
BLACK
6
CONTINUOUS
10
5.1572
20
-3.41349
11
5.15642
21
-3.40409
0
LINE
8
BLACK
6
CONTINUOUS
10
5.15642
20
-3.40409
11
5.1572
21
-3.3947
0
LINE
8
BLACK
6
CONTINUOUS
10
5.1572
20
-3.3947
11
5.15951
21
-3.38556
0
LINE
8
BLACK
6
CONTINUOUS
10
5.15951
20
-3.38556
11
5.1633
21
-3.37692
0
LINE
8
BLACK
6
CONTINUOUS
10
5.1633
20
-3.37692
11
5.16845
21
-3.36903
0
LINE
8
BLACK
6
CONTINUOUS
10
5.16845
20
-3.36903
11
5.17484
21
-3.36209
0
LINE
8
BLACK
6
CONTINUOUS
10
5.17484
20
-3.36209
11
5.18228
21
-3.3563
0
LINE
8
BLACK
6
CONTINUOUS
10
5.18228
20
-3.3563
11
5.19057
21
-3.35182
0
LINE
8
BLACK
6
CONTINUOUS
10
5.19057
20
-3.35182
11
5.19949
21
-3.34875
0
LINE
8
BLACK
6
CONTINUOUS
10
5.19949
20
-3.34875
11
5.20879
21
-3.3472
0
LINE
8
BLACK
6
CONTINUOUS
10
5.20879
20
-3.3472
11
5.21822
21
-3.3472
0
LINE
8
BLACK
6
CONTINUOUS
10
5.21822
20
-3.3472
11
5.22752
21
-3.34875
0
LINE
8
BLACK
6
CONTINUOUS
10
6.95882
20
-3.34875
11
6.96773
21
-3.35182
0
LINE
8
BLACK
6
CONTINUOUS
10
6.96773
20
-3.35182
11
6.97603
21
-3.3563
0
LINE
8
BLACK
6
CONTINUOUS
10
6.97603
20
-3.3563
11
6.98347
21
-3.36209
0
LINE
8
BLACK
6
CONTINUOUS
10
6.98347
20
-3.36209
11
6.98985
21
-3.36903
0
LINE
8
BLACK
6
CONTINUOUS
10
6.98985
20
-3.36903
11
6.99501
21
-3.37692
0
LINE
8
BLACK
6
CONTINUOUS
10
6.99501
20
-3.37692
11
6.9988
21
-3.38556
0
LINE
8
BLACK
6
CONTINUOUS
10
6.9988
20
-3.38556
11
7.00111
21
-3.3947
0
LINE
8
BLACK
6
CONTINUOUS
10
7.00111
20
-3.3947
11
7.00189
21
-3.40409
0
LINE
8
BLACK
6
CONTINUOUS
10
7.00189
20
-3.40409
11
7.00111
21
-3.41349
0
LINE
8
BLACK
6
CONTINUOUS
10
7.00111
20
-3.41349
11
6.9988
21
-3.42263
0
LINE
8
BLACK
6
CONTINUOUS
10
6.9988
20
-3.42263
11
6.99501
21
-3.43126
0
LINE
8
BLACK
6
CONTINUOUS
10
6.99501
20
-3.43126
11
6.98985
21
-3.43916
0
LINE
8
BLACK
6
CONTINUOUS
10
6.98985
20
-3.43916
11
6.98347
21
-3.44609
0
LINE
8
BLACK
6
CONTINUOUS
10
6.98347
20
-3.44609
11
6.97603
21
-3.45189
0
LINE
8
BLACK
6
CONTINUOUS
10
6.97603
20
-3.45189
11
6.96773
21
-3.45637
0
LINE
8
BLACK
6
CONTINUOUS
10
6.96773
20
-3.45637
11
6.95882
21
-3.45943
0
LINE
8
BLACK
6
CONTINUOUS
10
6.95882
20
-3.45943
11
6.94952
21
-3.46099
0
LINE
8
BLACK
6
CONTINUOUS
10
6.94952
20
-3.46099
11
6.94009
21
-3.46099
0
LINE
8
BLACK
6
CONTINUOUS
10
6.94009
20
-3.46099
11
6.93079
21
-3.45943
0
LINE
8
BLACK
6
CONTINUOUS
10
6.93079
20
-3.45943
11
6.92187
21
-3.45637
0
LINE
8
BLACK
6
CONTINUOUS
10
6.92187
20
-3.45637
11
6.91358
21
-3.45189
0
LINE
8
BLACK
6
CONTINUOUS
10
6.91358
20
-3.45189
11
6.90614
21
-3.44609
0
LINE
8
BLACK
6
CONTINUOUS
10
6.90614
20
-3.44609
11
6.89975
21
-3.43916
0
LINE
8
BLACK
6
CONTINUOUS
10
6.89975
20
-3.43916
11
6.8946
21
-3.43126
0
LINE
8
BLACK
6
CONTINUOUS
10
6.8946
20
-3.43126
11
6.89081
21
-3.42263
0
LINE
8
BLACK
6
CONTINUOUS
10
6.89081
20
-3.42263
11
6.8885
21
-3.41349
0
LINE
8
BLACK
6
CONTINUOUS
10
6.8885
20
-3.41349
11
6.88772
21
-3.40409
0
LINE
8
BLACK
6
CONTINUOUS
10
6.88772
20
-3.40409
11
6.8885
21
-3.3947
0
LINE
8
BLACK
6
CONTINUOUS
10
6.8885
20
-3.3947
11
6.89081
21
-3.38556
0
LINE
8
BLACK
6
CONTINUOUS
10
6.89081
20
-3.38556
11
6.8946
21
-3.37692
0
LINE
8
BLACK
6
CONTINUOUS
10
6.8946
20
-3.37692
11
6.89975
21
-3.36903
0
LINE
8
BLACK
6
CONTINUOUS
10
6.89975
20
-3.36903
11
6.90614
21
-3.36209
0
LINE
8
BLACK
6
CONTINUOUS
10
6.90614
20
-3.36209
11
6.91358
21
-3.3563
0
LINE
8
BLACK
6
CONTINUOUS
10
6.91358
20
-3.3563
11
6.92187
21
-3.35182
0
LINE
8
BLACK
6
CONTINUOUS
10
6.92187
20
-3.35182
11
6.93079
21
-3.34875
0
LINE
8
BLACK
6
CONTINUOUS
10
6.93079
20
-3.34875
11
6.94009
21
-3.3472
0
LINE
8
BLACK
6
CONTINUOUS
10
6.94009
20
-3.3472
11
6.94952
21
-3.3472
0
LINE
8
BLACK
6
CONTINUOUS
10
6.94952
20
-3.3472
11
6.95882
21
-3.34875
0
LINE
8
BLACK
6
CONTINUOUS
10
5.09891
20
-2.92182
11
5.11284
21
-2.92418
0
LINE
8
BLACK
6
CONTINUOUS
10
5.11284
20
-2.92418
11
5.12641
21
-2.92809
0
LINE
8
BLACK
6
CONTINUOUS
10
5.12641
20
-2.92809
11
5.13947
21
-2.9335
0
LINE
8
BLACK
6
CONTINUOUS
10
5.13947
20
-2.9335
11
5.15183
21
-2.94033
0
LINE
8
BLACK
6
CONTINUOUS
10
5.15183
20
-2.94033
11
5.16335
21
-2.94851
0
LINE
8
BLACK
6
CONTINUOUS
10
5.16335
20
-2.94851
11
5.17389
21
-2.95792
0
LINE
8
BLACK
6
CONTINUOUS
10
5.17389
20
-2.95792
11
5.1833
21
-2.96846
0
LINE
8
BLACK
6
CONTINUOUS
10
5.1833
20
-2.96846
11
5.19148
21
-2.97998
0
LINE
8
BLACK
6
CONTINUOUS
10
5.19148
20
-2.97998
11
5.19831
21
-2.99235
0
LINE
8
BLACK
6
CONTINUOUS
10
5.19831
20
-2.99235
11
5.20372
21
-3.0054
0
LINE
8
BLACK
6
CONTINUOUS
10
5.20372
20
-3.0054
11
5.20763
21
-3.01897
0
LINE
8
BLACK
6
CONTINUOUS
10
5.20763
20
-3.01897
11
5.21
21
-3.0329
0
LINE
8
BLACK
6
CONTINUOUS
10
5.21
20
-3.0329
11
5.21079
21
-3.04701
0
LINE
8
BLACK
6
CONTINUOUS
10
5.21079
20
-3.04701
11
5.21
21
-3.06111
0
LINE
8
BLACK
6
CONTINUOUS
10
5.21
20
-3.06111
11
5.20763
21
-3.07504
0
LINE
8
BLACK
6
CONTINUOUS
10
5.20763
20
-3.07504
11
5.20372
21
-3.08862
0
LINE
8
BLACK
6
CONTINUOUS
10
5.20372
20
-3.08862
11
5.19831
21
-3.10167
0
LINE
8
BLACK
6
CONTINUOUS
10
5.19831
20
-3.10167
11
5.19148
21
-3.11404
0
LINE
8
BLACK
6
CONTINUOUS
10
5.19148
20
-3.11404
11
5.1833
21
-3.12556
0
LINE
8
BLACK
6
CONTINUOUS
10
5.1833
20
-3.12556
11
5.17389
21
-3.13609
0
LINE
8
BLACK
6
CONTINUOUS
10
5.17389
20
-3.13609
11
5.16335
21
-3.14551
0
LINE
8
BLACK
6
CONTINUOUS
10
5.16335
20
-3.14551
11
5.15183
21
-3.15368
0
LINE
8
BLACK
6
CONTINUOUS
10
5.15183
20
-3.15368
11
5.13947
21
-3.16052
0
LINE
8
BLACK
6
CONTINUOUS
10
5.13947
20
-3.16052
11
5.12641
21
-3.16592
0
LINE
8
BLACK
6
CONTINUOUS
10
5.12641
20
-3.16592
11
5.11284
21
-3.16983
0
LINE
8
BLACK
6
CONTINUOUS
10
5.11284
20
-3.16983
11
5.09891
21
-3.1722
0
LINE
8
BLACK
6
CONTINUOUS
10
5.09891
20
-3.1722
11
5.0848
21
-3.17299
0
LINE
8
BLACK
6
CONTINUOUS
10
5.0848
20
-3.17299
11
5.0707
21
-3.1722
0
LINE
8
BLACK
6
CONTINUOUS
10
5.0707
20
-3.1722
11
5.05677
21
-3.16983
0
LINE
8
BLACK
6
CONTINUOUS
10
5.05677
20
-3.16983
11
5.04319
21
-3.16592
0
LINE
8
BLACK
6
CONTINUOUS
10
5.04319
20
-3.16592
11
5.03014
21
-3.16052
0
LINE
8
BLACK
6
CONTINUOUS
10
5.03014
20
-3.16052
11
5.01778
21
-3.15368
0
LINE
8
BLACK
6
CONTINUOUS
10
5.01778
20
-3.15368
11
5.00625
21
-3.14551
0
LINE
8
BLACK
6
CONTINUOUS
10
5.00625
20
-3.14551
11
4.99572
21
-3.13609
0
LINE
8
BLACK
6
CONTINUOUS
10
4.99572
20
-3.13609
11
4.9863
21
-3.12556
0
LINE
8
BLACK
6
CONTINUOUS
10
4.9863
20
-3.12556
11
4.97813
21
-3.11404
0
LINE
8
BLACK
6
CONTINUOUS
10
4.97813
20
-3.11404
11
4.9713
21
-3.10167
0
LINE
8
BLACK
6
CONTINUOUS
10
4.9713
20
-3.10167
11
4.96589
21
-3.08862
0
LINE
8
BLACK
6
CONTINUOUS
10
4.96589
20
-3.08862
11
4.96198
21
-3.07504
0
LINE
8
BLACK
6
CONTINUOUS
10
4.96198
20
-3.07504
11
4.95961
21
-3.06111
0
LINE
8
BLACK
6
CONTINUOUS
10
4.95961
20
-3.06111
11
4.95882
21
-3.04701
0
LINE
8
BLACK
6
CONTINUOUS
10
4.95882
20
-3.04701
11
4.95961
21
-3.0329
0
LINE
8
BLACK
6
CONTINUOUS
10
4.95961
20
-3.0329
11
4.96198
21
-3.01897
0
LINE
8
BLACK
6
CONTINUOUS
10
4.96198
20
-3.01897
11
4.96589
21
-3.0054
0
LINE
8
BLACK
6
CONTINUOUS
10
4.96589
20
-3.0054
11
4.9713
21
-2.99235
0
LINE
8
BLACK
6
CONTINUOUS
10
4.9713
20
-2.99235
11
4.97813
21
-2.97998
0
LINE
8
BLACK
6
CONTINUOUS
10
4.97813
20
-2.97998
11
4.9863
21
-2.96846
0
LINE
8
BLACK
6
CONTINUOUS
10
4.9863
20
-2.96846
11
4.99572
21
-2.95792
0
LINE
8
BLACK
6
CONTINUOUS
10
4.99572
20
-2.95792
11
5.00625
21
-2.94851
0
LINE
8
BLACK
6
CONTINUOUS
10
5.00625
20
-2.94851
11
5.01778
21
-2.94033
0
LINE
8
BLACK
6
CONTINUOUS
10
5.01778
20
-2.94033
11
5.03014
21
-2.9335
0
LINE
8
BLACK
6
CONTINUOUS
10
5.03014
20
-2.9335
11
5.04319
21
-2.92809
0
LINE
8
BLACK
6
CONTINUOUS
10
5.04319
20
-2.92809
11
5.05677
21
-2.92418
0
LINE
8
BLACK
6
CONTINUOUS
10
5.05677
20
-2.92418
11
5.0707
21
-2.92182
0
LINE
8
BLACK
6
CONTINUOUS
10
5.0707
20
-2.92182
11
5.0848
21
-2.92102
0
LINE
8
BLACK
6
CONTINUOUS
10
5.0848
20
-2.92102
11
5.09891
21
-2.92182
0
LINE
8
BLACK
6
CONTINUOUS
10
7.09891
20
-2.92182
11
7.11284
21
-2.92418
0
LINE
8
BLACK
6
CONTINUOUS
10
7.11284
20
-2.92418
11
7.12641
21
-2.92809
0
LINE
8
BLACK
6
CONTINUOUS
10
7.12641
20
-2.92809
11
7.13947
21
-2.9335
0
LINE
8
BLACK
6
CONTINUOUS
10
7.13947
20
-2.9335
11
7.15183
21
-2.94033
0
LINE
8
BLACK
6
CONTINUOUS
10
7.15183
20
-2.94033
11
7.16335
21
-2.94851
0
LINE
8
BLACK
6
CONTINUOUS
10
7.16335
20
-2.94851
11
7.17389
21
-2.95792
0
LINE
8
BLACK
6
CONTINUOUS
10
7.17389
20
-2.95792
11
7.1833
21
-2.96846
0
LINE
8
BLACK
6
CONTINUOUS
10
7.1833
20
-2.96846
11
7.19148
21
-2.97998
0
LINE
8
BLACK
6
CONTINUOUS
10
7.19148
20
-2.97998
11
7.19831
21
-2.99235
0
LINE
8
BLACK
6
CONTINUOUS
10
7.19831
20
-2.99235
11
7.20372
21
-3.0054
0
LINE
8
BLACK
6
CONTINUOUS
10
7.20372
20
-3.0054
11
7.20763
21
-3.01897
0
LINE
8
BLACK
6
CONTINUOUS
10
7.20763
20
-3.01897
11
7.21
21
-3.0329
0
LINE
8
BLACK
6
CONTINUOUS
10
7.21
20
-3.0329
11
7.21079
21
-3.04701
0
LINE
8
BLACK
6
CONTINUOUS
10
7.21079
20
-3.04701
11
7.21
21
-3.06111
0
LINE
8
BLACK
6
CONTINUOUS
10
7.21
20
-3.06111
11
7.20763
21
-3.07504
0
LINE
8
BLACK
6
CONTINUOUS
10
7.20763
20
-3.07504
11
7.20372
21
-3.08862
0
LINE
8
BLACK
6
CONTINUOUS
10
7.20372
20
-3.08862
11
7.19831
21
-3.10167
0
LINE
8
BLACK
6
CONTINUOUS
10
7.19831
20
-3.10167
11
7.19148
21
-3.11404
0
LINE
8
BLACK
6
CONTINUOUS
10
7.19148
20
-3.11404
11
7.1833
21
-3.12556
0
LINE
8
BLACK
6
CONTINUOUS
10
7.1833
20
-3.12556
11
7.17389
21
-3.13609
0
LINE
8
BLACK
6
CONTINUOUS
10
7.17389
20
-3.13609
11
7.16335
21
-3.14551
0
LINE
8
BLACK
6
CONTINUOUS
10
7.16335
20
-3.14551
11
7.15183
21
-3.15368
0
LINE
8
BLACK
6
CONTINUOUS
10
7.15183
20
-3.15368
11
7.13947
21
-3.16052
0
LINE
8
BLACK
6
CONTINUOUS
10
7.13947
20
-3.16052
11
7.12641
21
-3.16592
0
LINE
8
BLACK
6
CONTINUOUS
10
7.12641
20
-3.16592
11
7.11284
21
-3.16983
0
LINE
8
BLACK
6
CONTINUOUS
10
7.11284
20
-3.16983
11
7.09891
21
-3.1722
0
LINE
8
BLACK
6
CONTINUOUS
10
7.09891
20
-3.1722
11
7.0848
21
-3.17299
0
LINE
8
BLACK
6
CONTINUOUS
10
7.0848
20
-3.17299
11
7.0707
21
-3.1722
0
LINE
8
BLACK
6
CONTINUOUS
10
7.0707
20
-3.1722
11
7.05677
21
-3.16983
0
LINE
8
BLACK
6
CONTINUOUS
10
7.05677
20
-3.16983
11
7.04319
21
-3.16592
0
LINE
8
BLACK
6
CONTINUOUS
10
7.04319
20
-3.16592
11
7.03014
21
-3.16052
0
LINE
8
BLACK
6
CONTINUOUS
10
7.03014
20
-3.16052
11
7.01778
21
-3.15368
0
LINE
8
BLACK
6
CONTINUOUS
10
7.01778
20
-3.15368
11
7.00625
21
-3.14551
0
LINE
8
BLACK
6
CONTINUOUS
10
7.00625
20
-3.14551
11
6.99572
21
-3.13609
0
LINE
8
BLACK
6
CONTINUOUS
10
6.99572
20
-3.13609
11
6.9863
21
-3.12556
0
LINE
8
BLACK
6
CONTINUOUS
10
6.9863
20
-3.12556
11
6.97813
21
-3.11404
0
LINE
8
BLACK
6
CONTINUOUS
10
6.97813
20
-3.11404
11
6.9713
21
-3.10167
0
LINE
8
BLACK
6
CONTINUOUS
10
6.9713
20
-3.10167
11
6.96589
21
-3.08862
0
LINE
8
BLACK
6
CONTINUOUS
10
6.96589
20
-3.08862
11
6.96198
21
-3.07504
0
LINE
8
BLACK
6
CONTINUOUS
10
6.96198
20
-3.07504
11
6.95961
21
-3.06111
0
LINE
8
BLACK
6
CONTINUOUS
10
6.95961
20
-3.06111
11
6.95882
21
-3.04701
0
LINE
8
BLACK
6
CONTINUOUS
10
6.95882
20
-3.04701
11
6.95961
21
-3.0329
0
LINE
8
BLACK
6
CONTINUOUS
10
6.95961
20
-3.0329
11
6.96198
21
-3.01897
0
LINE
8
BLACK
6
CONTINUOUS
10
6.96198
20
-3.01897
11
6.96589
21
-3.0054
0
LINE
8
BLACK
6
CONTINUOUS
10
6.96589
20
-3.0054
11
6.9713
21
-2.99235
0
LINE
8
BLACK
6
CONTINUOUS
10
6.9713
20
-2.99235
11
6.97813
21
-2.97998
0
LINE
8
BLACK
6
CONTINUOUS
10
6.97813
20
-2.97998
11
6.9863
21
-2.96846
0
LINE
8
BLACK
6
CONTINUOUS
10
6.9863
20
-2.96846
11
6.99572
21
-2.95792
0
LINE
8
BLACK
6
CONTINUOUS
10
6.99572
20
-2.95792
11
7.00625
21
-2.94851
0
LINE
8
BLACK
6
CONTINUOUS
10
7.00625
20
-2.94851
11
7.01778
21
-2.94033
0
LINE
8
BLACK
6
CONTINUOUS
10
7.01778
20
-2.94033
11
7.03014
21
-2.9335
0
LINE
8
BLACK
6
CONTINUOUS
10
7.03014
20
-2.9335
11
7.04319
21
-2.92809
0
LINE
8
BLACK
6
CONTINUOUS
10
7.04319
20
-2.92809
11
7.05677
21
-2.92418
0
LINE
8
BLACK
6
CONTINUOUS
10
7.05677
20
-2.92418
11
7.0707
21
-2.92182
0
LINE
8
BLACK
6
CONTINUOUS
10
7.0707
20
-2.92182
11
7.0848
21
-2.92102
0
LINE
8
BLACK
6
CONTINUOUS
10
7.0848
20
-2.92102
11
7.09891
21
-2.92182
  0
ENDSEC
  0
EOF
