  0
SECTION
  2
HEADER
  9
$ANGBASE
  50
0.0
  9
$ANGDIR
  70
1
  9
$MEASUREMENT
  70
0
  0
ENDSEC
  0
SECTION
  2
TABLES
  0
TABLE
  2
LTYPE
  70
4
  0
LTYPE
  5
40F
  2
CONTINUOUS
  70
0
  3
Solid line
  72
65
  73
0
  40
0.0
  0
LTYPE
  5
410
  2
DASHDOT
 70
0
  3
Dash Dot ____ _ ____ _
 72
65
 73
4
 40
2.0
 49
1.25
 49
-0.25
 49
0.25
 49
-0.25
  0
LTYPE
  5
411
  2
DASHED
 70
0
  3
Dashed __ __ __ __ __
 72
65
 73
2
 40
0.75
 49
0.5
 49
-0.25
  0
LTYPE
  5
43B
  2
DOTTED
 70
0
  3
Dotted .  .  .  .
 72
65
 73
2
 40
0.2
 49
0.0
 49
-0.2
  0
ENDTAB
  0
TABLE
  2
STYLE
  70
4
  0
STYLE
  2
KICAD
  70
0
  40
0
  41
1
  42
1
  50
0
  71
0
  3
isocp.shx
  0
STYLE
  2
KICADB
  70
0
  40
0
  41
1
  42
1
  50
0
  71
0
  3
isocp.shx
  0
STYLE
  2
KICADI
  70
0
  40
0
  41
1
  42
1
  50
15
  71
0
  3
isocp.shx
  0
STYLE
  2
KICADBI
  70
0
  40
0
  41
1
  42
1
  50
15
  71
0
  3
isocp.shx
  0
ENDTAB
  0
TABLE
  2
LAYER
  70
1
  0
LAYER
  2
BLACK
  70
0
  62
7
  6
CONTINUOUS
  0
ENDTAB
  0
ENDSEC
  0
SECTION
  2
ENTITIES
0
LINE
8
BLACK
6
CONTINUOUS
10
5.10531
20
-4.13069
11
5.11868
21
-4.13386
0
LINE
8
BLACK
6
CONTINUOUS
10
5.11868
20
-4.13386
11
5.13158
21
-4.13856
0
LINE
8
BLACK
6
CONTINUOUS
10
5.13158
20
-4.13856
11
5.14386
21
-4.14472
0
LINE
8
BLACK
6
CONTINUOUS
10
5.14386
20
-4.14472
11
5.15533
21
-4.15227
0
LINE
8
BLACK
6
CONTINUOUS
10
5.15533
20
-4.15227
11
5.16586
21
-4.1611
0
LINE
8
BLACK
6
CONTINUOUS
10
5.16586
20
-4.1611
11
5.17528
21
-4.17109
0
LINE
8
BLACK
6
CONTINUOUS
10
5.17528
20
-4.17109
11
5.18348
21
-4.18211
0
LINE
8
BLACK
6
CONTINUOUS
10
5.18348
20
-4.18211
11
5.19035
21
-4.194
0
LINE
8
BLACK
6
CONTINUOUS
10
5.19035
20
-4.194
11
5.19579
21
-4.20661
0
LINE
8
BLACK
6
CONTINUOUS
10
5.19579
20
-4.20661
11
5.19973
21
-4.21977
0
LINE
8
BLACK
6
CONTINUOUS
10
5.19973
20
-4.21977
11
5.20211
21
-4.2333
0
LINE
8
BLACK
6
CONTINUOUS
10
5.20211
20
-4.2333
11
5.20291
21
-4.24701
0
LINE
8
BLACK
6
CONTINUOUS
10
5.20291
20
-4.24701
11
5.20211
21
-4.26072
0
LINE
8
BLACK
6
CONTINUOUS
10
5.20211
20
-4.26072
11
5.19973
21
-4.27425
0
LINE
8
BLACK
6
CONTINUOUS
10
5.19973
20
-4.27425
11
5.19579
21
-4.2874
0
LINE
8
BLACK
6
CONTINUOUS
10
5.19579
20
-4.2874
11
5.19035
21
-4.30002
0
LINE
8
BLACK
6
CONTINUOUS
10
5.19035
20
-4.30002
11
5.18348
21
-4.31191
0
LINE
8
BLACK
6
CONTINUOUS
10
5.18348
20
-4.31191
11
5.17528
21
-4.32293
0
LINE
8
BLACK
6
CONTINUOUS
10
5.17528
20
-4.32293
11
5.16586
21
-4.33292
0
LINE
8
BLACK
6
CONTINUOUS
10
5.16586
20
-4.33292
11
5.15533
21
-4.34175
0
LINE
8
BLACK
6
CONTINUOUS
10
5.15533
20
-4.34175
11
5.14386
21
-4.34929
0
LINE
8
BLACK
6
CONTINUOUS
10
5.14386
20
-4.34929
11
5.13158
21
-4.35546
0
LINE
8
BLACK
6
CONTINUOUS
10
5.13158
20
-4.35546
11
5.11868
21
-4.36016
0
LINE
8
BLACK
6
CONTINUOUS
10
5.11868
20
-4.36016
11
5.10531
21
-4.36332
0
LINE
8
BLACK
6
CONTINUOUS
10
5.10531
20
-4.36332
11
5.09167
21
-4.36492
0
LINE
8
BLACK
6
CONTINUOUS
10
5.09167
20
-4.36492
11
5.07794
21
-4.36492
0
LINE
8
BLACK
6
CONTINUOUS
10
5.07794
20
-4.36492
11
5.06429
21
-4.36332
0
LINE
8
BLACK
6
CONTINUOUS
10
5.06429
20
-4.36332
11
5.05093
21
-4.36016
0
LINE
8
BLACK
6
CONTINUOUS
10
5.05093
20
-4.36016
11
5.03802
21
-4.35546
0
LINE
8
BLACK
6
CONTINUOUS
10
5.03802
20
-4.35546
11
5.02575
21
-4.34929
0
LINE
8
BLACK
6
CONTINUOUS
10
5.02575
20
-4.34929
11
5.01427
21
-4.34175
0
LINE
8
BLACK
6
CONTINUOUS
10
5.01427
20
-4.34175
11
5.00375
21
-4.33292
0
LINE
8
BLACK
6
CONTINUOUS
10
5.00375
20
-4.33292
11
4.99433
21
-4.32293
0
LINE
8
BLACK
6
CONTINUOUS
10
4.99433
20
-4.32293
11
4.98612
21
-4.31191
0
LINE
8
BLACK
6
CONTINUOUS
10
4.98612
20
-4.31191
11
4.97926
21
-4.30002
0
LINE
8
BLACK
6
CONTINUOUS
10
4.97926
20
-4.30002
11
4.97382
21
-4.2874
0
LINE
8
BLACK
6
CONTINUOUS
10
4.97382
20
-4.2874
11
4.96988
21
-4.27425
0
LINE
8
BLACK
6
CONTINUOUS
10
4.96988
20
-4.27425
11
4.96749
21
-4.26072
0
LINE
8
BLACK
6
CONTINUOUS
10
4.96749
20
-4.26072
11
4.96669
21
-4.24701
0
LINE
8
BLACK
6
CONTINUOUS
10
4.96669
20
-4.24701
11
4.96749
21
-4.2333
0
LINE
8
BLACK
6
CONTINUOUS
10
4.96749
20
-4.2333
11
4.96988
21
-4.21977
0
LINE
8
BLACK
6
CONTINUOUS
10
4.96988
20
-4.21977
11
4.97382
21
-4.20661
0
LINE
8
BLACK
6
CONTINUOUS
10
4.97382
20
-4.20661
11
4.97926
21
-4.194
0
LINE
8
BLACK
6
CONTINUOUS
10
4.97926
20
-4.194
11
4.98612
21
-4.18211
0
LINE
8
BLACK
6
CONTINUOUS
10
4.98612
20
-4.18211
11
4.99433
21
-4.17109
0
LINE
8
BLACK
6
CONTINUOUS
10
4.99433
20
-4.17109
11
5.00375
21
-4.1611
0
LINE
8
BLACK
6
CONTINUOUS
10
5.00375
20
-4.1611
11
5.01427
21
-4.15227
0
LINE
8
BLACK
6
CONTINUOUS
10
5.01427
20
-4.15227
11
5.02575
21
-4.14472
0
LINE
8
BLACK
6
CONTINUOUS
10
5.02575
20
-4.14472
11
5.03802
21
-4.13856
0
LINE
8
BLACK
6
CONTINUOUS
10
5.03802
20
-4.13856
11
5.05093
21
-4.13386
0
LINE
8
BLACK
6
CONTINUOUS
10
5.05093
20
-4.13386
11
5.06429
21
-4.13069
0
LINE
8
BLACK
6
CONTINUOUS
10
5.06429
20
-4.13069
11
5.07794
21
-4.1291
0
LINE
8
BLACK
6
CONTINUOUS
10
5.07794
20
-4.1291
11
5.09167
21
-4.1291
0
LINE
8
BLACK
6
CONTINUOUS
10
5.09167
20
-4.1291
11
5.10531
21
-4.13069
0
LINE
8
BLACK
6
CONTINUOUS
10
7.10531
20
-4.13069
11
7.11868
21
-4.13386
0
LINE
8
BLACK
6
CONTINUOUS
10
7.11868
20
-4.13386
11
7.13158
21
-4.13856
0
LINE
8
BLACK
6
CONTINUOUS
10
7.13158
20
-4.13856
11
7.14386
21
-4.14472
0
LINE
8
BLACK
6
CONTINUOUS
10
7.14386
20
-4.14472
11
7.15533
21
-4.15227
0
LINE
8
BLACK
6
CONTINUOUS
10
7.15533
20
-4.15227
11
7.16586
21
-4.1611
0
LINE
8
BLACK
6
CONTINUOUS
10
7.16586
20
-4.1611
11
7.17528
21
-4.17109
0
LINE
8
BLACK
6
CONTINUOUS
10
7.17528
20
-4.17109
11
7.18348
21
-4.18211
0
LINE
8
BLACK
6
CONTINUOUS
10
7.18348
20
-4.18211
11
7.19035
21
-4.194
0
LINE
8
BLACK
6
CONTINUOUS
10
7.19035
20
-4.194
11
7.19579
21
-4.20661
0
LINE
8
BLACK
6
CONTINUOUS
10
7.19579
20
-4.20661
11
7.19973
21
-4.21977
0
LINE
8
BLACK
6
CONTINUOUS
10
7.19973
20
-4.21977
11
7.20211
21
-4.2333
0
LINE
8
BLACK
6
CONTINUOUS
10
7.20211
20
-4.2333
11
7.20291
21
-4.24701
0
LINE
8
BLACK
6
CONTINUOUS
10
7.20291
20
-4.24701
11
7.20211
21
-4.26072
0
LINE
8
BLACK
6
CONTINUOUS
10
7.20211
20
-4.26072
11
7.19973
21
-4.27425
0
LINE
8
BLACK
6
CONTINUOUS
10
7.19973
20
-4.27425
11
7.19579
21
-4.2874
0
LINE
8
BLACK
6
CONTINUOUS
10
7.19579
20
-4.2874
11
7.19035
21
-4.30002
0
LINE
8
BLACK
6
CONTINUOUS
10
7.19035
20
-4.30002
11
7.18348
21
-4.31191
0
LINE
8
BLACK
6
CONTINUOUS
10
7.18348
20
-4.31191
11
7.17528
21
-4.32293
0
LINE
8
BLACK
6
CONTINUOUS
10
7.17528
20
-4.32293
11
7.16586
21
-4.33292
0
LINE
8
BLACK
6
CONTINUOUS
10
7.16586
20
-4.33292
11
7.15533
21
-4.34175
0
LINE
8
BLACK
6
CONTINUOUS
10
7.15533
20
-4.34175
11
7.14386
21
-4.34929
0
LINE
8
BLACK
6
CONTINUOUS
10
7.14386
20
-4.34929
11
7.13158
21
-4.35546
0
LINE
8
BLACK
6
CONTINUOUS
10
7.13158
20
-4.35546
11
7.11868
21
-4.36016
0
LINE
8
BLACK
6
CONTINUOUS
10
7.11868
20
-4.36016
11
7.10531
21
-4.36332
0
LINE
8
BLACK
6
CONTINUOUS
10
7.10531
20
-4.36332
11
7.09167
21
-4.36492
0
LINE
8
BLACK
6
CONTINUOUS
10
7.09167
20
-4.36492
11
7.07794
21
-4.36492
0
LINE
8
BLACK
6
CONTINUOUS
10
7.07794
20
-4.36492
11
7.06429
21
-4.36332
0
LINE
8
BLACK
6
CONTINUOUS
10
7.06429
20
-4.36332
11
7.05093
21
-4.36016
0
LINE
8
BLACK
6
CONTINUOUS
10
7.05093
20
-4.36016
11
7.03802
21
-4.35546
0
LINE
8
BLACK
6
CONTINUOUS
10
7.03802
20
-4.35546
11
7.02575
21
-4.34929
0
LINE
8
BLACK
6
CONTINUOUS
10
7.02575
20
-4.34929
11
7.01427
21
-4.34175
0
LINE
8
BLACK
6
CONTINUOUS
10
7.01427
20
-4.34175
11
7.00375
21
-4.33292
0
LINE
8
BLACK
6
CONTINUOUS
10
7.00375
20
-4.33292
11
6.99433
21
-4.32293
0
LINE
8
BLACK
6
CONTINUOUS
10
6.99433
20
-4.32293
11
6.98612
21
-4.31191
0
LINE
8
BLACK
6
CONTINUOUS
10
6.98612
20
-4.31191
11
6.97926
21
-4.30002
0
LINE
8
BLACK
6
CONTINUOUS
10
6.97926
20
-4.30002
11
6.97382
21
-4.2874
0
LINE
8
BLACK
6
CONTINUOUS
10
6.97382
20
-4.2874
11
6.96988
21
-4.27425
0
LINE
8
BLACK
6
CONTINUOUS
10
6.96988
20
-4.27425
11
6.96749
21
-4.26072
0
LINE
8
BLACK
6
CONTINUOUS
10
6.96749
20
-4.26072
11
6.96669
21
-4.24701
0
LINE
8
BLACK
6
CONTINUOUS
10
6.96669
20
-4.24701
11
6.96749
21
-4.2333
0
LINE
8
BLACK
6
CONTINUOUS
10
6.96749
20
-4.2333
11
6.96988
21
-4.21977
0
LINE
8
BLACK
6
CONTINUOUS
10
6.96988
20
-4.21977
11
6.97382
21
-4.20661
0
LINE
8
BLACK
6
CONTINUOUS
10
6.97382
20
-4.20661
11
6.97926
21
-4.194
0
LINE
8
BLACK
6
CONTINUOUS
10
6.97926
20
-4.194
11
6.98612
21
-4.18211
0
LINE
8
BLACK
6
CONTINUOUS
10
6.98612
20
-4.18211
11
6.99433
21
-4.17109
0
LINE
8
BLACK
6
CONTINUOUS
10
6.99433
20
-4.17109
11
7.00375
21
-4.1611
0
LINE
8
BLACK
6
CONTINUOUS
10
7.00375
20
-4.1611
11
7.01427
21
-4.15227
0
LINE
8
BLACK
6
CONTINUOUS
10
7.01427
20
-4.15227
11
7.02575
21
-4.14472
0
LINE
8
BLACK
6
CONTINUOUS
10
7.02575
20
-4.14472
11
7.03802
21
-4.13856
0
LINE
8
BLACK
6
CONTINUOUS
10
7.03802
20
-4.13856
11
7.05093
21
-4.13386
0
LINE
8
BLACK
6
CONTINUOUS
10
7.05093
20
-4.13386
11
7.06429
21
-4.13069
0
LINE
8
BLACK
6
CONTINUOUS
10
7.06429
20
-4.13069
11
7.07794
21
-4.1291
0
LINE
8
BLACK
6
CONTINUOUS
10
7.07794
20
-4.1291
11
7.09167
21
-4.1291
0
LINE
8
BLACK
6
CONTINUOUS
10
7.09167
20
-4.1291
11
7.10531
21
-4.13069
0
LINE
8
BLACK
6
CONTINUOUS
10
5.10531
20
-2.93069
11
5.11868
21
-2.93386
0
LINE
8
BLACK
6
CONTINUOUS
10
5.11868
20
-2.93386
11
5.13158
21
-2.93856
0
LINE
8
BLACK
6
CONTINUOUS
10
5.13158
20
-2.93856
11
5.14386
21
-2.94472
0
LINE
8
BLACK
6
CONTINUOUS
10
5.14386
20
-2.94472
11
5.15533
21
-2.95227
0
LINE
8
BLACK
6
CONTINUOUS
10
5.15533
20
-2.95227
11
5.16586
21
-2.9611
0
LINE
8
BLACK
6
CONTINUOUS
10
5.16586
20
-2.9611
11
5.17528
21
-2.97109
0
LINE
8
BLACK
6
CONTINUOUS
10
5.17528
20
-2.97109
11
5.18348
21
-2.98211
0
LINE
8
BLACK
6
CONTINUOUS
10
5.18348
20
-2.98211
11
5.19035
21
-2.994
0
LINE
8
BLACK
6
CONTINUOUS
10
5.19035
20
-2.994
11
5.19579
21
-3.00661
0
LINE
8
BLACK
6
CONTINUOUS
10
5.19579
20
-3.00661
11
5.19973
21
-3.01977
0
LINE
8
BLACK
6
CONTINUOUS
10
5.19973
20
-3.01977
11
5.20211
21
-3.0333
0
LINE
8
BLACK
6
CONTINUOUS
10
5.20211
20
-3.0333
11
5.20291
21
-3.04701
0
LINE
8
BLACK
6
CONTINUOUS
10
5.20291
20
-3.04701
11
5.20211
21
-3.06072
0
LINE
8
BLACK
6
CONTINUOUS
10
5.20211
20
-3.06072
11
5.19973
21
-3.07425
0
LINE
8
BLACK
6
CONTINUOUS
10
5.19973
20
-3.07425
11
5.19579
21
-3.0874
0
LINE
8
BLACK
6
CONTINUOUS
10
5.19579
20
-3.0874
11
5.19035
21
-3.10002
0
LINE
8
BLACK
6
CONTINUOUS
10
5.19035
20
-3.10002
11
5.18348
21
-3.11191
0
LINE
8
BLACK
6
CONTINUOUS
10
5.18348
20
-3.11191
11
5.17528
21
-3.12293
0
LINE
8
BLACK
6
CONTINUOUS
10
5.17528
20
-3.12293
11
5.16586
21
-3.13292
0
LINE
8
BLACK
6
CONTINUOUS
10
5.16586
20
-3.13292
11
5.15533
21
-3.14175
0
LINE
8
BLACK
6
CONTINUOUS
10
5.15533
20
-3.14175
11
5.14386
21
-3.14929
0
LINE
8
BLACK
6
CONTINUOUS
10
5.14386
20
-3.14929
11
5.13158
21
-3.15546
0
LINE
8
BLACK
6
CONTINUOUS
10
5.13158
20
-3.15546
11
5.11868
21
-3.16016
0
LINE
8
BLACK
6
CONTINUOUS
10
5.11868
20
-3.16016
11
5.10531
21
-3.16332
0
LINE
8
BLACK
6
CONTINUOUS
10
5.10531
20
-3.16332
11
5.09167
21
-3.16492
0
LINE
8
BLACK
6
CONTINUOUS
10
5.09167
20
-3.16492
11
5.07794
21
-3.16492
0
LINE
8
BLACK
6
CONTINUOUS
10
5.07794
20
-3.16492
11
5.06429
21
-3.16332
0
LINE
8
BLACK
6
CONTINUOUS
10
5.06429
20
-3.16332
11
5.05093
21
-3.16016
0
LINE
8
BLACK
6
CONTINUOUS
10
5.05093
20
-3.16016
11
5.03802
21
-3.15546
0
LINE
8
BLACK
6
CONTINUOUS
10
5.03802
20
-3.15546
11
5.02575
21
-3.14929
0
LINE
8
BLACK
6
CONTINUOUS
10
5.02575
20
-3.14929
11
5.01427
21
-3.14175
0
LINE
8
BLACK
6
CONTINUOUS
10
5.01427
20
-3.14175
11
5.00375
21
-3.13292
0
LINE
8
BLACK
6
CONTINUOUS
10
5.00375
20
-3.13292
11
4.99433
21
-3.12293
0
LINE
8
BLACK
6
CONTINUOUS
10
4.99433
20
-3.12293
11
4.98612
21
-3.11191
0
LINE
8
BLACK
6
CONTINUOUS
10
4.98612
20
-3.11191
11
4.97926
21
-3.10002
0
LINE
8
BLACK
6
CONTINUOUS
10
4.97926
20
-3.10002
11
4.97382
21
-3.0874
0
LINE
8
BLACK
6
CONTINUOUS
10
4.97382
20
-3.0874
11
4.96988
21
-3.07425
0
LINE
8
BLACK
6
CONTINUOUS
10
4.96988
20
-3.07425
11
4.96749
21
-3.06072
0
LINE
8
BLACK
6
CONTINUOUS
10
4.96749
20
-3.06072
11
4.96669
21
-3.04701
0
LINE
8
BLACK
6
CONTINUOUS
10
4.96669
20
-3.04701
11
4.96749
21
-3.0333
0
LINE
8
BLACK
6
CONTINUOUS
10
4.96749
20
-3.0333
11
4.96988
21
-3.01977
0
LINE
8
BLACK
6
CONTINUOUS
10
4.96988
20
-3.01977
11
4.97382
21
-3.00661
0
LINE
8
BLACK
6
CONTINUOUS
10
4.97382
20
-3.00661
11
4.97926
21
-2.994
0
LINE
8
BLACK
6
CONTINUOUS
10
4.97926
20
-2.994
11
4.98612
21
-2.98211
0
LINE
8
BLACK
6
CONTINUOUS
10
4.98612
20
-2.98211
11
4.99433
21
-2.97109
0
LINE
8
BLACK
6
CONTINUOUS
10
4.99433
20
-2.97109
11
5.00375
21
-2.9611
0
LINE
8
BLACK
6
CONTINUOUS
10
5.00375
20
-2.9611
11
5.01427
21
-2.95227
0
LINE
8
BLACK
6
CONTINUOUS
10
5.01427
20
-2.95227
11
5.02575
21
-2.94472
0
LINE
8
BLACK
6
CONTINUOUS
10
5.02575
20
-2.94472
11
5.03802
21
-2.93856
0
LINE
8
BLACK
6
CONTINUOUS
10
5.03802
20
-2.93856
11
5.05093
21
-2.93386
0
LINE
8
BLACK
6
CONTINUOUS
10
5.05093
20
-2.93386
11
5.06429
21
-2.93069
0
LINE
8
BLACK
6
CONTINUOUS
10
5.06429
20
-2.93069
11
5.07794
21
-2.9291
0
LINE
8
BLACK
6
CONTINUOUS
10
5.07794
20
-2.9291
11
5.09167
21
-2.9291
0
LINE
8
BLACK
6
CONTINUOUS
10
5.09167
20
-2.9291
11
5.10531
21
-2.93069
0
LINE
8
BLACK
6
CONTINUOUS
10
7.10531
20
-2.93069
11
7.11868
21
-2.93386
0
LINE
8
BLACK
6
CONTINUOUS
10
7.11868
20
-2.93386
11
7.13158
21
-2.93856
0
LINE
8
BLACK
6
CONTINUOUS
10
7.13158
20
-2.93856
11
7.14386
21
-2.94472
0
LINE
8
BLACK
6
CONTINUOUS
10
7.14386
20
-2.94472
11
7.15533
21
-2.95227
0
LINE
8
BLACK
6
CONTINUOUS
10
7.15533
20
-2.95227
11
7.16586
21
-2.9611
0
LINE
8
BLACK
6
CONTINUOUS
10
7.16586
20
-2.9611
11
7.17528
21
-2.97109
0
LINE
8
BLACK
6
CONTINUOUS
10
7.17528
20
-2.97109
11
7.18348
21
-2.98211
0
LINE
8
BLACK
6
CONTINUOUS
10
7.18348
20
-2.98211
11
7.19035
21
-2.994
0
LINE
8
BLACK
6
CONTINUOUS
10
7.19035
20
-2.994
11
7.19579
21
-3.00661
0
LINE
8
BLACK
6
CONTINUOUS
10
7.19579
20
-3.00661
11
7.19973
21
-3.01977
0
LINE
8
BLACK
6
CONTINUOUS
10
7.19973
20
-3.01977
11
7.20211
21
-3.0333
0
LINE
8
BLACK
6
CONTINUOUS
10
7.20211
20
-3.0333
11
7.20291
21
-3.04701
0
LINE
8
BLACK
6
CONTINUOUS
10
7.20291
20
-3.04701
11
7.20211
21
-3.06072
0
LINE
8
BLACK
6
CONTINUOUS
10
7.20211
20
-3.06072
11
7.19973
21
-3.07425
0
LINE
8
BLACK
6
CONTINUOUS
10
7.19973
20
-3.07425
11
7.19579
21
-3.0874
0
LINE
8
BLACK
6
CONTINUOUS
10
7.19579
20
-3.0874
11
7.19035
21
-3.10002
0
LINE
8
BLACK
6
CONTINUOUS
10
7.19035
20
-3.10002
11
7.18348
21
-3.11191
0
LINE
8
BLACK
6
CONTINUOUS
10
7.18348
20
-3.11191
11
7.17528
21
-3.12293
0
LINE
8
BLACK
6
CONTINUOUS
10
7.17528
20
-3.12293
11
7.16586
21
-3.13292
0
LINE
8
BLACK
6
CONTINUOUS
10
7.16586
20
-3.13292
11
7.15533
21
-3.14175
0
LINE
8
BLACK
6
CONTINUOUS
10
7.15533
20
-3.14175
11
7.14386
21
-3.14929
0
LINE
8
BLACK
6
CONTINUOUS
10
7.14386
20
-3.14929
11
7.13158
21
-3.15546
0
LINE
8
BLACK
6
CONTINUOUS
10
7.13158
20
-3.15546
11
7.11868
21
-3.16016
0
LINE
8
BLACK
6
CONTINUOUS
10
7.11868
20
-3.16016
11
7.10531
21
-3.16332
0
LINE
8
BLACK
6
CONTINUOUS
10
7.10531
20
-3.16332
11
7.09167
21
-3.16492
0
LINE
8
BLACK
6
CONTINUOUS
10
7.09167
20
-3.16492
11
7.07794
21
-3.16492
0
LINE
8
BLACK
6
CONTINUOUS
10
7.07794
20
-3.16492
11
7.06429
21
-3.16332
0
LINE
8
BLACK
6
CONTINUOUS
10
7.06429
20
-3.16332
11
7.05093
21
-3.16016
0
LINE
8
BLACK
6
CONTINUOUS
10
7.05093
20
-3.16016
11
7.03802
21
-3.15546
0
LINE
8
BLACK
6
CONTINUOUS
10
7.03802
20
-3.15546
11
7.02575
21
-3.14929
0
LINE
8
BLACK
6
CONTINUOUS
10
7.02575
20
-3.14929
11
7.01427
21
-3.14175
0
LINE
8
BLACK
6
CONTINUOUS
10
7.01427
20
-3.14175
11
7.00375
21
-3.13292
0
LINE
8
BLACK
6
CONTINUOUS
10
7.00375
20
-3.13292
11
6.99433
21
-3.12293
0
LINE
8
BLACK
6
CONTINUOUS
10
6.99433
20
-3.12293
11
6.98612
21
-3.11191
0
LINE
8
BLACK
6
CONTINUOUS
10
6.98612
20
-3.11191
11
6.97926
21
-3.10002
0
LINE
8
BLACK
6
CONTINUOUS
10
6.97926
20
-3.10002
11
6.97382
21
-3.0874
0
LINE
8
BLACK
6
CONTINUOUS
10
6.97382
20
-3.0874
11
6.96988
21
-3.07425
0
LINE
8
BLACK
6
CONTINUOUS
10
6.96988
20
-3.07425
11
6.96749
21
-3.06072
0
LINE
8
BLACK
6
CONTINUOUS
10
6.96749
20
-3.06072
11
6.96669
21
-3.04701
0
LINE
8
BLACK
6
CONTINUOUS
10
6.96669
20
-3.04701
11
6.96749
21
-3.0333
0
LINE
8
BLACK
6
CONTINUOUS
10
6.96749
20
-3.0333
11
6.96988
21
-3.01977
0
LINE
8
BLACK
6
CONTINUOUS
10
6.96988
20
-3.01977
11
6.97382
21
-3.00661
0
LINE
8
BLACK
6
CONTINUOUS
10
6.97382
20
-3.00661
11
6.97926
21
-2.994
0
LINE
8
BLACK
6
CONTINUOUS
10
6.97926
20
-2.994
11
6.98612
21
-2.98211
0
LINE
8
BLACK
6
CONTINUOUS
10
6.98612
20
-2.98211
11
6.99433
21
-2.97109
0
LINE
8
BLACK
6
CONTINUOUS
10
6.99433
20
-2.97109
11
7.00375
21
-2.9611
0
LINE
8
BLACK
6
CONTINUOUS
10
7.00375
20
-2.9611
11
7.01427
21
-2.95227
0
LINE
8
BLACK
6
CONTINUOUS
10
7.01427
20
-2.95227
11
7.02575
21
-2.94472
0
LINE
8
BLACK
6
CONTINUOUS
10
7.02575
20
-2.94472
11
7.03802
21
-2.93856
0
LINE
8
BLACK
6
CONTINUOUS
10
7.03802
20
-2.93856
11
7.05093
21
-2.93386
0
LINE
8
BLACK
6
CONTINUOUS
10
7.05093
20
-2.93386
11
7.06429
21
-2.93069
0
LINE
8
BLACK
6
CONTINUOUS
10
7.06429
20
-2.93069
11
7.07794
21
-2.9291
0
LINE
8
BLACK
6
CONTINUOUS
10
7.07794
20
-2.9291
11
7.09167
21
-2.9291
0
LINE
8
BLACK
6
CONTINUOUS
10
7.09167
20
-2.9291
11
7.10531
21
-2.93069
  0
ENDSEC
  0
EOF
