  0
SECTION
  2
HEADER
  9
$ANGBASE
  50
0.0
  9
$ANGDIR
  70
1
  9
$MEASUREMENT
  70
0
  0
ENDSEC
  0
SECTION
  2
TABLES
  0
TABLE
  2
LTYPE
  70
4
  0
LTYPE
  5
40F
  2
CONTINUOUS
  70
0
  3
Solid line
  72
65
  73
0
  40
0.0
  0
LTYPE
  5
410
  2
DASHDOT
 70
0
  3
Dash Dot ____ _ ____ _
 72
65
 73
4
 40
2.0
 49
1.25
 49
-0.25
 49
0.25
 49
-0.25
  0
LTYPE
  5
411
  2
DASHED
 70
0
  3
Dashed __ __ __ __ __
 72
65
 73
2
 40
0.75
 49
0.5
 49
-0.25
  0
LTYPE
  5
43B
  2
DOTTED
 70
0
  3
Dotted .  .  .  .
 72
65
 73
2
 40
0.2
 49
0.0
 49
-0.2
  0
ENDTAB
  0
TABLE
  2
STYLE
  70
4
  0
STYLE
  2
KICAD
  70
0
  40
0
  41
1
  42
1
  50
0
  71
0
  3
isocp.shx
  0
STYLE
  2
KICADB
  70
0
  40
0
  41
1
  42
1
  50
0
  71
0
  3
isocp.shx
  0
STYLE
  2
KICADI
  70
0
  40
0
  41
1
  42
1
  50
15
  71
0
  3
isocp.shx
  0
STYLE
  2
KICADBI
  70
0
  40
0
  41
1
  42
1
  50
15
  71
0
  3
isocp.shx
  0
ENDTAB
  0
TABLE
  2
LAYER
  70
1
  0
LAYER
  2
BLACK
  70
0
  62
7
  6
CONTINUOUS
  0
ENDTAB
  0
ENDSEC
  0
SECTION
  2
ENTITIES
0
LINE
8
BLACK
6
CONTINUOUS
10
0.0303412
20
1.56695
11
0.0314251
21
1.56857
0
LINE
8
BLACK
6
CONTINUOUS
10
0.0314251
20
1.56857
11
0.0330472
21
1.56966
0
LINE
8
BLACK
6
CONTINUOUS
10
0.0330472
20
1.56966
11
0.0349606
21
1.57004
0
LINE
8
BLACK
6
CONTINUOUS
10
0.0349606
20
1.57004
11
2.36504
21
1.57004
0
LINE
8
BLACK
6
CONTINUOUS
10
2.36504
20
1.57004
11
2.36695
21
1.56966
0
LINE
8
BLACK
6
CONTINUOUS
10
2.36695
20
1.56966
11
2.36857
21
1.56857
0
LINE
8
BLACK
6
CONTINUOUS
10
2.36857
20
1.56857
11
2.36966
21
1.56695
0
LINE
8
BLACK
6
CONTINUOUS
10
2.36966
20
1.56695
11
2.37004
21
1.56504
0
LINE
8
BLACK
6
CONTINUOUS
10
2.37004
20
1.56504
11
2.37004
21
0.0349606
0
LINE
8
BLACK
6
CONTINUOUS
10
2.37004
20
0.0349606
11
2.36966
21
0.0330472
0
LINE
8
BLACK
6
CONTINUOUS
10
2.36966
20
0.0330472
11
2.36857
21
0.0314251
0
LINE
8
BLACK
6
CONTINUOUS
10
2.36857
20
0.0314251
11
2.36695
21
0.0303412
0
LINE
8
BLACK
6
CONTINUOUS
10
2.36695
20
0.0303412
11
2.36504
21
0.0299606
0
LINE
8
BLACK
6
CONTINUOUS
10
2.36504
20
0.0299606
11
0.0349606
21
0.0299606
0
LINE
8
BLACK
6
CONTINUOUS
10
0.0349606
20
0.0299606
11
0.0330472
21
0.0303412
0
LINE
8
BLACK
6
CONTINUOUS
10
0.0330472
20
0.0303412
11
0.0314251
21
0.0314251
0
LINE
8
BLACK
6
CONTINUOUS
10
0.0314251
20
0.0314251
11
0.0303412
21
0.0330472
0
LINE
8
BLACK
6
CONTINUOUS
10
0.0303412
20
0.0330472
11
0.0299606
21
0.0349606
0
LINE
8
BLACK
6
CONTINUOUS
10
0.0299606
20
0.0349606
11
0.0299606
21
1.56504
0
LINE
8
BLACK
6
CONTINUOUS
10
0.0299606
20
1.56504
11
0.0303412
21
1.56695
0
LINE
8
BLACK
6
CONTINUOUS
10
2.12922
20
0.98708
11
2.12909
21
0.986616
0
LINE
8
BLACK
6
CONTINUOUS
10
2.12909
20
0.986616
11
2.12909
21
0.96663
0
LINE
8
BLACK
6
CONTINUOUS
10
2.12909
20
0.96663
11
2.1318
21
0.965844
0
LINE
8
BLACK
6
CONTINUOUS
10
2.1318
20
0.965844
11
2.13679
21
0.962747
0
LINE
8
BLACK
6
CONTINUOUS
10
2.13679
20
0.962747
11
2.14077
21
0.958421
0
LINE
8
BLACK
6
CONTINUOUS
10
2.14077
20
0.958421
11
2.14195
21
0.956102
0
LINE
8
BLACK
6
CONTINUOUS
10
2.14195
20
0.956102
11
2.16275
21
0.956102
0
LINE
8
BLACK
6
CONTINUOUS
10
2.16275
20
0.956102
11
2.16325
21
0.95625
0
LINE
8
BLACK
6
CONTINUOUS
10
2.16325
20
0.95625
11
2.16329
21
0.956523
0
LINE
8
BLACK
6
CONTINUOUS
10
2.16329
20
0.956523
11
2.16183
21
0.961495
0
LINE
8
BLACK
6
CONTINUOUS
10
2.16183
20
0.961495
11
2.16165
21
0.961939
0
LINE
8
BLACK
6
CONTINUOUS
10
2.16165
20
0.961939
11
2.15809
21
0.968744
0
LINE
8
BLACK
6
CONTINUOUS
10
2.15809
20
0.968744
11
2.15783
21
0.969144
0
LINE
8
BLACK
6
CONTINUOUS
10
2.15783
20
0.969144
11
2.15302
21
0.975129
0
LINE
8
BLACK
6
CONTINUOUS
10
2.15302
20
0.975129
11
2.15268
21
0.975471
0
LINE
8
BLACK
6
CONTINUOUS
10
2.15268
20
0.975471
11
2.1468
21
0.980407
0
LINE
8
BLACK
6
CONTINUOUS
10
2.1468
20
0.980407
11
2.1464
21
0.980678
0
LINE
8
BLACK
6
CONTINUOUS
10
2.1464
20
0.980678
11
2.13967
21
0.984377
0
LINE
8
BLACK
6
CONTINUOUS
10
2.13967
20
0.984377
11
2.13923
21
0.984566
0
LINE
8
BLACK
6
CONTINUOUS
10
2.13923
20
0.984566
11
2.13191
21
0.986887
0
LINE
8
BLACK
6
CONTINUOUS
10
2.13191
20
0.986887
11
2.13145
21
0.986987
0
LINE
8
BLACK
6
CONTINUOUS
10
2.13145
20
0.986987
11
2.12977
21
0.987176
0
LINE
8
BLACK
6
CONTINUOUS
10
2.12977
20
0.987176
11
2.12922
21
0.98708
  0
ENDSEC
  0
EOF
