  0
SECTION
  2
HEADER
  9
$ANGBASE
  50
0.0
  9
$ANGDIR
  70
1
  9
$MEASUREMENT
  70
0
  0
ENDSEC
  0
SECTION
  2
TABLES
  0
TABLE
  2
LTYPE
  70
4
  0
LTYPE
  5
40F
  2
CONTINUOUS
  70
0
  3
Solid line
  72
65
  73
0
  40
0.0
  0
LTYPE
  5
410
  2
DASHDOT
 70
0
  3
Dash Dot ____ _ ____ _
 72
65
 73
4
 40
2.0
 49
1.25
 49
-0.25
 49
0.25
 49
-0.25
  0
LTYPE
  5
411
  2
DASHED
 70
0
  3
Dashed __ __ __ __ __
 72
65
 73
2
 40
0.75
 49
0.5
 49
-0.25
  0
LTYPE
  5
43B
  2
DOTTED
 70
0
  3
Dotted .  .  .  .
 72
65
 73
2
 40
0.2
 49
0.0
 49
-0.2
  0
ENDTAB
  0
TABLE
  2
STYLE
  70
4
  0
STYLE
  2
KICAD
  70
0
  40
0
  41
1
  42
1
  50
0
  71
0
  3
isocp.shx
  0
STYLE
  2
KICADB
  70
0
  40
0
  41
1
  42
1
  50
0
  71
0
  3
isocp.shx
  0
STYLE
  2
KICADI
  70
0
  40
0
  41
1
  42
1
  50
15
  71
0
  3
isocp.shx
  0
STYLE
  2
KICADBI
  70
0
  40
0
  41
1
  42
1
  50
15
  71
0
  3
isocp.shx
  0
ENDTAB
  0
TABLE
  2
LAYER
  70
1
  0
LAYER
  2
BLACK
  70
0
  62
7
  6
CONTINUOUS
  0
ENDTAB
  0
ENDSEC
  0
SECTION
  2
ENTITIES
0
LINE
8
BLACK
6
CONTINUOUS
10
0.744774
20
0.609196
11
0.747968
21
0.607062
0
LINE
8
BLACK
6
CONTINUOUS
10
0.747968
20
0.607062
11
0.750101
21
0.603869
0
LINE
8
BLACK
6
CONTINUOUS
10
0.750101
20
0.603869
11
0.75085
21
0.600102
0
LINE
8
BLACK
6
CONTINUOUS
10
0.75085
20
0.600102
11
0.75085
21
0.562701
0
LINE
8
BLACK
6
CONTINUOUS
10
0.75085
20
0.562701
11
0.750101
21
0.558934
0
LINE
8
BLACK
6
CONTINUOUS
10
0.750101
20
0.558934
11
0.747968
21
0.555741
0
LINE
8
BLACK
6
CONTINUOUS
10
0.747968
20
0.555741
11
0.744774
21
0.553607
0
LINE
8
BLACK
6
CONTINUOUS
10
0.744774
20
0.553607
11
0.741008
21
0.552858
0
LINE
8
BLACK
6
CONTINUOUS
10
0.741008
20
0.552858
11
0.721323
21
0.552858
0
LINE
8
BLACK
6
CONTINUOUS
10
0.721323
20
0.552858
11
0.717556
21
0.553607
0
LINE
8
BLACK
6
CONTINUOUS
10
0.717556
20
0.553607
11
0.714363
21
0.555741
0
LINE
8
BLACK
6
CONTINUOUS
10
0.714363
20
0.555741
11
0.71223
21
0.558934
0
LINE
8
BLACK
6
CONTINUOUS
10
0.71223
20
0.558934
11
0.71148
21
0.562701
0
LINE
8
BLACK
6
CONTINUOUS
10
0.71148
20
0.562701
11
0.71148
21
0.600102
0
LINE
8
BLACK
6
CONTINUOUS
10
0.71148
20
0.600102
11
0.71223
21
0.603869
0
LINE
8
BLACK
6
CONTINUOUS
10
0.71223
20
0.603869
11
0.714363
21
0.607062
0
LINE
8
BLACK
6
CONTINUOUS
10
0.714363
20
0.607062
11
0.717556
21
0.609196
0
LINE
8
BLACK
6
CONTINUOUS
10
0.717556
20
0.609196
11
0.721323
21
0.609945
0
LINE
8
BLACK
6
CONTINUOUS
10
0.721323
20
0.609945
11
0.741008
21
0.609945
0
LINE
8
BLACK
6
CONTINUOUS
10
0.741008
20
0.609945
11
0.744774
21
0.609196
0
LINE
8
BLACK
6
CONTINUOUS
10
0.669971
20
0.609196
11
0.673164
21
0.607062
0
LINE
8
BLACK
6
CONTINUOUS
10
0.673164
20
0.607062
11
0.675298
21
0.603869
0
LINE
8
BLACK
6
CONTINUOUS
10
0.675298
20
0.603869
11
0.676047
21
0.600102
0
LINE
8
BLACK
6
CONTINUOUS
10
0.676047
20
0.600102
11
0.676047
21
0.562701
0
LINE
8
BLACK
6
CONTINUOUS
10
0.676047
20
0.562701
11
0.675298
21
0.558934
0
LINE
8
BLACK
6
CONTINUOUS
10
0.675298
20
0.558934
11
0.673164
21
0.555741
0
LINE
8
BLACK
6
CONTINUOUS
10
0.673164
20
0.555741
11
0.669971
21
0.553607
0
LINE
8
BLACK
6
CONTINUOUS
10
0.669971
20
0.553607
11
0.666205
21
0.552858
0
LINE
8
BLACK
6
CONTINUOUS
10
0.666205
20
0.552858
11
0.64652
21
0.552858
0
LINE
8
BLACK
6
CONTINUOUS
10
0.64652
20
0.552858
11
0.642753
21
0.553607
0
LINE
8
BLACK
6
CONTINUOUS
10
0.642753
20
0.553607
11
0.63956
21
0.555741
0
LINE
8
BLACK
6
CONTINUOUS
10
0.63956
20
0.555741
11
0.637426
21
0.558934
0
LINE
8
BLACK
6
CONTINUOUS
10
0.637426
20
0.558934
11
0.636677
21
0.562701
0
LINE
8
BLACK
6
CONTINUOUS
10
0.636677
20
0.562701
11
0.636677
21
0.600102
0
LINE
8
BLACK
6
CONTINUOUS
10
0.636677
20
0.600102
11
0.637426
21
0.603869
0
LINE
8
BLACK
6
CONTINUOUS
10
0.637426
20
0.603869
11
0.63956
21
0.607062
0
LINE
8
BLACK
6
CONTINUOUS
10
0.63956
20
0.607062
11
0.642753
21
0.609196
0
LINE
8
BLACK
6
CONTINUOUS
10
0.642753
20
0.609196
11
0.64652
21
0.609945
0
LINE
8
BLACK
6
CONTINUOUS
10
0.64652
20
0.609945
11
0.666205
21
0.609945
0
LINE
8
BLACK
6
CONTINUOUS
10
0.666205
20
0.609945
11
0.669971
21
0.609196
0
LINE
8
BLACK
6
CONTINUOUS
10
1.65901
20
0.611794
11
1.6622
21
0.609661
0
LINE
8
BLACK
6
CONTINUOUS
10
1.6622
20
0.609661
11
1.66434
21
0.606467
0
LINE
8
BLACK
6
CONTINUOUS
10
1.66434
20
0.606467
11
1.66509
21
0.602701
0
LINE
8
BLACK
6
CONTINUOUS
10
1.66509
20
0.602701
11
1.66509
21
0.565299
0
LINE
8
BLACK
6
CONTINUOUS
10
1.66509
20
0.565299
11
1.66434
21
0.561533
0
LINE
8
BLACK
6
CONTINUOUS
10
1.66434
20
0.561533
11
1.6622
21
0.558339
0
LINE
8
BLACK
6
CONTINUOUS
10
1.6622
20
0.558339
11
1.65901
21
0.556206
0
LINE
8
BLACK
6
CONTINUOUS
10
1.65901
20
0.556206
11
1.65524
21
0.555457
0
LINE
8
BLACK
6
CONTINUOUS
10
1.65524
20
0.555457
11
1.63556
21
0.555457
0
LINE
8
BLACK
6
CONTINUOUS
10
1.63556
20
0.555457
11
1.63179
21
0.556206
0
LINE
8
BLACK
6
CONTINUOUS
10
1.63179
20
0.556206
11
1.6286
21
0.558339
0
LINE
8
BLACK
6
CONTINUOUS
10
1.6286
20
0.558339
11
1.62647
21
0.561533
0
LINE
8
BLACK
6
CONTINUOUS
10
1.62647
20
0.561533
11
1.62572
21
0.565299
0
LINE
8
BLACK
6
CONTINUOUS
10
1.62572
20
0.565299
11
1.62572
21
0.602701
0
LINE
8
BLACK
6
CONTINUOUS
10
1.62572
20
0.602701
11
1.62647
21
0.606467
0
LINE
8
BLACK
6
CONTINUOUS
10
1.62647
20
0.606467
11
1.6286
21
0.609661
0
LINE
8
BLACK
6
CONTINUOUS
10
1.6286
20
0.609661
11
1.63179
21
0.611794
0
LINE
8
BLACK
6
CONTINUOUS
10
1.63179
20
0.611794
11
1.63556
21
0.612543
0
LINE
8
BLACK
6
CONTINUOUS
10
1.63556
20
0.612543
11
1.65524
21
0.612543
0
LINE
8
BLACK
6
CONTINUOUS
10
1.65524
20
0.612543
11
1.65901
21
0.611794
0
LINE
8
BLACK
6
CONTINUOUS
10
1.58421
20
0.611794
11
1.5874
21
0.609661
0
LINE
8
BLACK
6
CONTINUOUS
10
1.5874
20
0.609661
11
1.58953
21
0.606467
0
LINE
8
BLACK
6
CONTINUOUS
10
1.58953
20
0.606467
11
1.59028
21
0.602701
0
LINE
8
BLACK
6
CONTINUOUS
10
1.59028
20
0.602701
11
1.59028
21
0.565299
0
LINE
8
BLACK
6
CONTINUOUS
10
1.59028
20
0.565299
11
1.58953
21
0.561533
0
LINE
8
BLACK
6
CONTINUOUS
10
1.58953
20
0.561533
11
1.5874
21
0.558339
0
LINE
8
BLACK
6
CONTINUOUS
10
1.5874
20
0.558339
11
1.58421
21
0.556206
0
LINE
8
BLACK
6
CONTINUOUS
10
1.58421
20
0.556206
11
1.58044
21
0.555457
0
LINE
8
BLACK
6
CONTINUOUS
10
1.58044
20
0.555457
11
1.56076
21
0.555457
0
LINE
8
BLACK
6
CONTINUOUS
10
1.56076
20
0.555457
11
1.55699
21
0.556206
0
LINE
8
BLACK
6
CONTINUOUS
10
1.55699
20
0.556206
11
1.5538
21
0.558339
0
LINE
8
BLACK
6
CONTINUOUS
10
1.5538
20
0.558339
11
1.55166
21
0.561533
0
LINE
8
BLACK
6
CONTINUOUS
10
1.55166
20
0.561533
11
1.55091
21
0.565299
0
LINE
8
BLACK
6
CONTINUOUS
10
1.55091
20
0.565299
11
1.55091
21
0.602701
0
LINE
8
BLACK
6
CONTINUOUS
10
1.55091
20
0.602701
11
1.55166
21
0.606467
0
LINE
8
BLACK
6
CONTINUOUS
10
1.55166
20
0.606467
11
1.5538
21
0.609661
0
LINE
8
BLACK
6
CONTINUOUS
10
1.5538
20
0.609661
11
1.55699
21
0.611794
0
LINE
8
BLACK
6
CONTINUOUS
10
1.55699
20
0.611794
11
1.56076
21
0.612543
0
LINE
8
BLACK
6
CONTINUOUS
10
1.56076
20
0.612543
11
1.58044
21
0.612543
0
LINE
8
BLACK
6
CONTINUOUS
10
1.58044
20
0.612543
11
1.58421
21
0.611794
0
LINE
8
BLACK
6
CONTINUOUS
10
0.893739
20
0.608966
11
0.896533
21
0.6071
0
LINE
8
BLACK
6
CONTINUOUS
10
0.896533
20
0.6071
11
0.8984
21
0.604306
0
LINE
8
BLACK
6
CONTINUOUS
10
0.8984
20
0.604306
11
0.899055
21
0.60101
0
LINE
8
BLACK
6
CONTINUOUS
10
0.899055
20
0.60101
11
0.899055
21
0.57099
0
LINE
8
BLACK
6
CONTINUOUS
10
0.899055
20
0.57099
11
0.8984
21
0.567694
0
LINE
8
BLACK
6
CONTINUOUS
10
0.8984
20
0.567694
11
0.896533
21
0.5649
0
LINE
8
BLACK
6
CONTINUOUS
10
0.896533
20
0.5649
11
0.893739
21
0.563034
0
LINE
8
BLACK
6
CONTINUOUS
10
0.893739
20
0.563034
11
0.890443
21
0.562378
0
LINE
8
BLACK
6
CONTINUOUS
10
0.890443
20
0.562378
11
0.873219
21
0.562378
0
LINE
8
BLACK
6
CONTINUOUS
10
0.873219
20
0.562378
11
0.869923
21
0.563034
0
LINE
8
BLACK
6
CONTINUOUS
10
0.869923
20
0.563034
11
0.867129
21
0.5649
0
LINE
8
BLACK
6
CONTINUOUS
10
0.867129
20
0.5649
11
0.865262
21
0.567694
0
LINE
8
BLACK
6
CONTINUOUS
10
0.865262
20
0.567694
11
0.864606
21
0.57099
0
LINE
8
BLACK
6
CONTINUOUS
10
0.864606
20
0.57099
11
0.864606
21
0.60101
0
LINE
8
BLACK
6
CONTINUOUS
10
0.864606
20
0.60101
11
0.865262
21
0.604306
0
LINE
8
BLACK
6
CONTINUOUS
10
0.865262
20
0.604306
11
0.867129
21
0.6071
0
LINE
8
BLACK
6
CONTINUOUS
10
0.867129
20
0.6071
11
0.869923
21
0.608966
0
LINE
8
BLACK
6
CONTINUOUS
10
0.869923
20
0.608966
11
0.873219
21
0.609622
0
LINE
8
BLACK
6
CONTINUOUS
10
0.873219
20
0.609622
11
0.890443
21
0.609622
0
LINE
8
BLACK
6
CONTINUOUS
10
0.890443
20
0.609622
11
0.893739
21
0.608966
0
LINE
8
BLACK
6
CONTINUOUS
10
0.810077
20
0.608966
11
0.812871
21
0.6071
0
LINE
8
BLACK
6
CONTINUOUS
10
0.812871
20
0.6071
11
0.814738
21
0.604306
0
LINE
8
BLACK
6
CONTINUOUS
10
0.814738
20
0.604306
11
0.815394
21
0.60101
0
LINE
8
BLACK
6
CONTINUOUS
10
0.815394
20
0.60101
11
0.815394
21
0.57099
0
LINE
8
BLACK
6
CONTINUOUS
10
0.815394
20
0.57099
11
0.814738
21
0.567694
0
LINE
8
BLACK
6
CONTINUOUS
10
0.814738
20
0.567694
11
0.812871
21
0.5649
0
LINE
8
BLACK
6
CONTINUOUS
10
0.812871
20
0.5649
11
0.810077
21
0.563034
0
LINE
8
BLACK
6
CONTINUOUS
10
0.810077
20
0.563034
11
0.806781
21
0.562378
0
LINE
8
BLACK
6
CONTINUOUS
10
0.806781
20
0.562378
11
0.789557
21
0.562378
0
LINE
8
BLACK
6
CONTINUOUS
10
0.789557
20
0.562378
11
0.786261
21
0.563034
0
LINE
8
BLACK
6
CONTINUOUS
10
0.786261
20
0.563034
11
0.783467
21
0.5649
0
LINE
8
BLACK
6
CONTINUOUS
10
0.783467
20
0.5649
11
0.7816
21
0.567694
0
LINE
8
BLACK
6
CONTINUOUS
10
0.7816
20
0.567694
11
0.780945
21
0.57099
0
LINE
8
BLACK
6
CONTINUOUS
10
0.780945
20
0.57099
11
0.780945
21
0.60101
0
LINE
8
BLACK
6
CONTINUOUS
10
0.780945
20
0.60101
11
0.7816
21
0.604306
0
LINE
8
BLACK
6
CONTINUOUS
10
0.7816
20
0.604306
11
0.783467
21
0.6071
0
LINE
8
BLACK
6
CONTINUOUS
10
0.783467
20
0.6071
11
0.786261
21
0.608966
0
LINE
8
BLACK
6
CONTINUOUS
10
0.786261
20
0.608966
11
0.789557
21
0.609622
0
LINE
8
BLACK
6
CONTINUOUS
10
0.789557
20
0.609622
11
0.806781
21
0.609622
0
LINE
8
BLACK
6
CONTINUOUS
10
0.806781
20
0.609622
11
0.810077
21
0.608966
0
LINE
8
BLACK
6
CONTINUOUS
10
1.20374
20
0.610966
11
1.20653
21
0.6091
0
LINE
8
BLACK
6
CONTINUOUS
10
1.20653
20
0.6091
11
1.2084
21
0.606306
0
LINE
8
BLACK
6
CONTINUOUS
10
1.2084
20
0.606306
11
1.20906
21
0.60301
0
LINE
8
BLACK
6
CONTINUOUS
10
1.20906
20
0.60301
11
1.20906
21
0.57299
0
LINE
8
BLACK
6
CONTINUOUS
10
1.20906
20
0.57299
11
1.2084
21
0.569694
0
LINE
8
BLACK
6
CONTINUOUS
10
1.2084
20
0.569694
11
1.20653
21
0.5669
0
LINE
8
BLACK
6
CONTINUOUS
10
1.20653
20
0.5669
11
1.20374
21
0.565034
0
LINE
8
BLACK
6
CONTINUOUS
10
1.20374
20
0.565034
11
1.20044
21
0.564378
0
LINE
8
BLACK
6
CONTINUOUS
10
1.20044
20
0.564378
11
1.18322
21
0.564378
0
LINE
8
BLACK
6
CONTINUOUS
10
1.18322
20
0.564378
11
1.17992
21
0.565034
0
LINE
8
BLACK
6
CONTINUOUS
10
1.17992
20
0.565034
11
1.17713
21
0.5669
0
LINE
8
BLACK
6
CONTINUOUS
10
1.17713
20
0.5669
11
1.17526
21
0.569694
0
LINE
8
BLACK
6
CONTINUOUS
10
1.17526
20
0.569694
11
1.17461
21
0.57299
0
LINE
8
BLACK
6
CONTINUOUS
10
1.17461
20
0.57299
11
1.17461
21
0.60301
0
LINE
8
BLACK
6
CONTINUOUS
10
1.17461
20
0.60301
11
1.17526
21
0.606306
0
LINE
8
BLACK
6
CONTINUOUS
10
1.17526
20
0.606306
11
1.17713
21
0.6091
0
LINE
8
BLACK
6
CONTINUOUS
10
1.17713
20
0.6091
11
1.17992
21
0.610966
0
LINE
8
BLACK
6
CONTINUOUS
10
1.17992
20
0.610966
11
1.18322
21
0.611622
0
LINE
8
BLACK
6
CONTINUOUS
10
1.18322
20
0.611622
11
1.20044
21
0.611622
0
LINE
8
BLACK
6
CONTINUOUS
10
1.20044
20
0.611622
11
1.20374
21
0.610966
0
LINE
8
BLACK
6
CONTINUOUS
10
1.12008
20
0.610966
11
1.12287
21
0.6091
0
LINE
8
BLACK
6
CONTINUOUS
10
1.12287
20
0.6091
11
1.12474
21
0.606306
0
LINE
8
BLACK
6
CONTINUOUS
10
1.12474
20
0.606306
11
1.12539
21
0.60301
0
LINE
8
BLACK
6
CONTINUOUS
10
1.12539
20
0.60301
11
1.12539
21
0.57299
0
LINE
8
BLACK
6
CONTINUOUS
10
1.12539
20
0.57299
11
1.12474
21
0.569694
0
LINE
8
BLACK
6
CONTINUOUS
10
1.12474
20
0.569694
11
1.12287
21
0.5669
0
LINE
8
BLACK
6
CONTINUOUS
10
1.12287
20
0.5669
11
1.12008
21
0.565034
0
LINE
8
BLACK
6
CONTINUOUS
10
1.12008
20
0.565034
11
1.11678
21
0.564378
0
LINE
8
BLACK
6
CONTINUOUS
10
1.11678
20
0.564378
11
1.09956
21
0.564378
0
LINE
8
BLACK
6
CONTINUOUS
10
1.09956
20
0.564378
11
1.09626
21
0.565034
0
LINE
8
BLACK
6
CONTINUOUS
10
1.09626
20
0.565034
11
1.09347
21
0.5669
0
LINE
8
BLACK
6
CONTINUOUS
10
1.09347
20
0.5669
11
1.0916
21
0.569694
0
LINE
8
BLACK
6
CONTINUOUS
10
1.0916
20
0.569694
11
1.09094
21
0.57299
0
LINE
8
BLACK
6
CONTINUOUS
10
1.09094
20
0.57299
11
1.09094
21
0.60301
0
LINE
8
BLACK
6
CONTINUOUS
10
1.09094
20
0.60301
11
1.0916
21
0.606306
0
LINE
8
BLACK
6
CONTINUOUS
10
1.0916
20
0.606306
11
1.09347
21
0.6091
0
LINE
8
BLACK
6
CONTINUOUS
10
1.09347
20
0.6091
11
1.09626
21
0.610966
0
LINE
8
BLACK
6
CONTINUOUS
10
1.09626
20
0.610966
11
1.09956
21
0.611622
0
LINE
8
BLACK
6
CONTINUOUS
10
1.09956
20
0.611622
11
1.11678
21
0.611622
0
LINE
8
BLACK
6
CONTINUOUS
10
1.11678
20
0.611622
11
1.12008
21
0.610966
0
LINE
8
BLACK
6
CONTINUOUS
10
1.51474
20
0.611966
11
1.51753
21
0.6101
0
LINE
8
BLACK
6
CONTINUOUS
10
1.51753
20
0.6101
11
1.5194
21
0.607306
0
LINE
8
BLACK
6
CONTINUOUS
10
1.5194
20
0.607306
11
1.52006
21
0.60401
0
LINE
8
BLACK
6
CONTINUOUS
10
1.52006
20
0.60401
11
1.52006
21
0.57399
0
LINE
8
BLACK
6
CONTINUOUS
10
1.52006
20
0.57399
11
1.5194
21
0.570694
0
LINE
8
BLACK
6
CONTINUOUS
10
1.5194
20
0.570694
11
1.51753
21
0.5679
0
LINE
8
BLACK
6
CONTINUOUS
10
1.51753
20
0.5679
11
1.51474
21
0.566034
0
LINE
8
BLACK
6
CONTINUOUS
10
1.51474
20
0.566034
11
1.51144
21
0.565378
0
LINE
8
BLACK
6
CONTINUOUS
10
1.51144
20
0.565378
11
1.49422
21
0.565378
0
LINE
8
BLACK
6
CONTINUOUS
10
1.49422
20
0.565378
11
1.49092
21
0.566034
0
LINE
8
BLACK
6
CONTINUOUS
10
1.49092
20
0.566034
11
1.48813
21
0.5679
0
LINE
8
BLACK
6
CONTINUOUS
10
1.48813
20
0.5679
11
1.48626
21
0.570694
0
LINE
8
BLACK
6
CONTINUOUS
10
1.48626
20
0.570694
11
1.48561
21
0.57399
0
LINE
8
BLACK
6
CONTINUOUS
10
1.48561
20
0.57399
11
1.48561
21
0.60401
0
LINE
8
BLACK
6
CONTINUOUS
10
1.48561
20
0.60401
11
1.48626
21
0.607306
0
LINE
8
BLACK
6
CONTINUOUS
10
1.48626
20
0.607306
11
1.48813
21
0.6101
0
LINE
8
BLACK
6
CONTINUOUS
10
1.48813
20
0.6101
11
1.49092
21
0.611966
0
LINE
8
BLACK
6
CONTINUOUS
10
1.49092
20
0.611966
11
1.49422
21
0.612622
0
LINE
8
BLACK
6
CONTINUOUS
10
1.49422
20
0.612622
11
1.51144
21
0.612622
0
LINE
8
BLACK
6
CONTINUOUS
10
1.51144
20
0.612622
11
1.51474
21
0.611966
0
LINE
8
BLACK
6
CONTINUOUS
10
1.43108
20
0.611966
11
1.43387
21
0.6101
0
LINE
8
BLACK
6
CONTINUOUS
10
1.43387
20
0.6101
11
1.43574
21
0.607306
0
LINE
8
BLACK
6
CONTINUOUS
10
1.43574
20
0.607306
11
1.43639
21
0.60401
0
LINE
8
BLACK
6
CONTINUOUS
10
1.43639
20
0.60401
11
1.43639
21
0.57399
0
LINE
8
BLACK
6
CONTINUOUS
10
1.43639
20
0.57399
11
1.43574
21
0.570694
0
LINE
8
BLACK
6
CONTINUOUS
10
1.43574
20
0.570694
11
1.43387
21
0.5679
0
LINE
8
BLACK
6
CONTINUOUS
10
1.43387
20
0.5679
11
1.43108
21
0.566034
0
LINE
8
BLACK
6
CONTINUOUS
10
1.43108
20
0.566034
11
1.42778
21
0.565378
0
LINE
8
BLACK
6
CONTINUOUS
10
1.42778
20
0.565378
11
1.41056
21
0.565378
0
LINE
8
BLACK
6
CONTINUOUS
10
1.41056
20
0.565378
11
1.40726
21
0.566034
0
LINE
8
BLACK
6
CONTINUOUS
10
1.40726
20
0.566034
11
1.40447
21
0.5679
0
LINE
8
BLACK
6
CONTINUOUS
10
1.40447
20
0.5679
11
1.4026
21
0.570694
0
LINE
8
BLACK
6
CONTINUOUS
10
1.4026
20
0.570694
11
1.40194
21
0.57399
0
LINE
8
BLACK
6
CONTINUOUS
10
1.40194
20
0.57399
11
1.40194
21
0.60401
0
LINE
8
BLACK
6
CONTINUOUS
10
1.40194
20
0.60401
11
1.4026
21
0.607306
0
LINE
8
BLACK
6
CONTINUOUS
10
1.4026
20
0.607306
11
1.40447
21
0.6101
0
LINE
8
BLACK
6
CONTINUOUS
10
1.40447
20
0.6101
11
1.40726
21
0.611966
0
LINE
8
BLACK
6
CONTINUOUS
10
1.40726
20
0.611966
11
1.41056
21
0.612622
0
LINE
8
BLACK
6
CONTINUOUS
10
1.41056
20
0.612622
11
1.42778
21
0.612622
0
LINE
8
BLACK
6
CONTINUOUS
10
1.42778
20
0.612622
11
1.43108
21
0.611966
0
LINE
8
BLACK
6
CONTINUOUS
10
1.05631
20
0.60114
11
1.0591
21
0.599273
0
LINE
8
BLACK
6
CONTINUOUS
10
1.0591
20
0.599273
11
1.06097
21
0.596479
0
LINE
8
BLACK
6
CONTINUOUS
10
1.06097
20
0.596479
11
1.06162
21
0.593183
0
LINE
8
BLACK
6
CONTINUOUS
10
1.06162
20
0.593183
11
1.06162
21
0.575959
0
LINE
8
BLACK
6
CONTINUOUS
10
1.06162
20
0.575959
11
1.06097
21
0.572663
0
LINE
8
BLACK
6
CONTINUOUS
10
1.06097
20
0.572663
11
1.0591
21
0.569869
0
LINE
8
BLACK
6
CONTINUOUS
10
1.0591
20
0.569869
11
1.05631
21
0.568002
0
LINE
8
BLACK
6
CONTINUOUS
10
1.05631
20
0.568002
11
1.05301
21
0.567346
0
LINE
8
BLACK
6
CONTINUOUS
10
1.05301
20
0.567346
11
1.02299
21
0.567346
0
LINE
8
BLACK
6
CONTINUOUS
10
1.02299
20
0.567346
11
1.01969
21
0.568002
0
LINE
8
BLACK
6
CONTINUOUS
10
1.01969
20
0.568002
11
1.0169
21
0.569869
0
LINE
8
BLACK
6
CONTINUOUS
10
1.0169
20
0.569869
11
1.01503
21
0.572663
0
LINE
8
BLACK
6
CONTINUOUS
10
1.01503
20
0.572663
11
1.01438
21
0.575959
0
LINE
8
BLACK
6
CONTINUOUS
10
1.01438
20
0.575959
11
1.01438
21
0.593183
0
LINE
8
BLACK
6
CONTINUOUS
10
1.01438
20
0.593183
11
1.01503
21
0.596479
0
LINE
8
BLACK
6
CONTINUOUS
10
1.01503
20
0.596479
11
1.0169
21
0.599273
0
LINE
8
BLACK
6
CONTINUOUS
10
1.0169
20
0.599273
11
1.01969
21
0.60114
0
LINE
8
BLACK
6
CONTINUOUS
10
1.01969
20
0.60114
11
1.02299
21
0.601795
0
LINE
8
BLACK
6
CONTINUOUS
10
1.02299
20
0.601795
11
1.05301
21
0.601795
0
LINE
8
BLACK
6
CONTINUOUS
10
1.05301
20
0.601795
11
1.05631
21
0.60114
0
LINE
8
BLACK
6
CONTINUOUS
10
0.980467
20
0.607936
11
0.983661
21
0.605802
0
LINE
8
BLACK
6
CONTINUOUS
10
0.983661
20
0.605802
11
0.985794
21
0.602609
0
LINE
8
BLACK
6
CONTINUOUS
10
0.985794
20
0.602609
11
0.986543
21
0.598843
0
LINE
8
BLACK
6
CONTINUOUS
10
0.986543
20
0.598843
11
0.986543
21
0.579157
0
LINE
8
BLACK
6
CONTINUOUS
10
0.986543
20
0.579157
11
0.985794
21
0.575391
0
LINE
8
BLACK
6
CONTINUOUS
10
0.985794
20
0.575391
11
0.983661
21
0.572198
0
LINE
8
BLACK
6
CONTINUOUS
10
0.983661
20
0.572198
11
0.980467
21
0.570064
0
LINE
8
BLACK
6
CONTINUOUS
10
0.980467
20
0.570064
11
0.976701
21
0.569315
0
LINE
8
BLACK
6
CONTINUOUS
10
0.976701
20
0.569315
11
0.939299
21
0.569315
0
LINE
8
BLACK
6
CONTINUOUS
10
0.939299
20
0.569315
11
0.935533
21
0.570064
0
LINE
8
BLACK
6
CONTINUOUS
10
0.935533
20
0.570064
11
0.932339
21
0.572198
0
LINE
8
BLACK
6
CONTINUOUS
10
0.932339
20
0.572198
11
0.930206
21
0.575391
0
LINE
8
BLACK
6
CONTINUOUS
10
0.930206
20
0.575391
11
0.929457
21
0.579157
0
LINE
8
BLACK
6
CONTINUOUS
10
0.929457
20
0.579157
11
0.929457
21
0.598843
0
LINE
8
BLACK
6
CONTINUOUS
10
0.929457
20
0.598843
11
0.930206
21
0.602609
0
LINE
8
BLACK
6
CONTINUOUS
10
0.930206
20
0.602609
11
0.932339
21
0.605802
0
LINE
8
BLACK
6
CONTINUOUS
10
0.932339
20
0.605802
11
0.935533
21
0.607936
0
LINE
8
BLACK
6
CONTINUOUS
10
0.935533
20
0.607936
11
0.939299
21
0.608685
0
LINE
8
BLACK
6
CONTINUOUS
10
0.939299
20
0.608685
11
0.976701
21
0.608685
0
LINE
8
BLACK
6
CONTINUOUS
10
0.976701
20
0.608685
11
0.980467
21
0.607936
0
LINE
8
BLACK
6
CONTINUOUS
10
1.36631
20
0.604738
11
1.3691
21
0.602871
0
LINE
8
BLACK
6
CONTINUOUS
10
1.3691
20
0.602871
11
1.37097
21
0.600077
0
LINE
8
BLACK
6
CONTINUOUS
10
1.37097
20
0.600077
11
1.37162
21
0.596781
0
LINE
8
BLACK
6
CONTINUOUS
10
1.37162
20
0.596781
11
1.37162
21
0.579557
0
LINE
8
BLACK
6
CONTINUOUS
10
1.37162
20
0.579557
11
1.37097
21
0.576261
0
LINE
8
BLACK
6
CONTINUOUS
10
1.37097
20
0.576261
11
1.3691
21
0.573467
0
LINE
8
BLACK
6
CONTINUOUS
10
1.3691
20
0.573467
11
1.36631
21
0.5716
0
LINE
8
BLACK
6
CONTINUOUS
10
1.36631
20
0.5716
11
1.36301
21
0.570945
0
LINE
8
BLACK
6
CONTINUOUS
10
1.36301
20
0.570945
11
1.33299
21
0.570945
0
LINE
8
BLACK
6
CONTINUOUS
10
1.33299
20
0.570945
11
1.32969
21
0.5716
0
LINE
8
BLACK
6
CONTINUOUS
10
1.32969
20
0.5716
11
1.3269
21
0.573467
0
LINE
8
BLACK
6
CONTINUOUS
10
1.3269
20
0.573467
11
1.32503
21
0.576261
0
LINE
8
BLACK
6
CONTINUOUS
10
1.32503
20
0.576261
11
1.32438
21
0.579557
0
LINE
8
BLACK
6
CONTINUOUS
10
1.32438
20
0.579557
11
1.32438
21
0.596781
0
LINE
8
BLACK
6
CONTINUOUS
10
1.32438
20
0.596781
11
1.32503
21
0.600077
0
LINE
8
BLACK
6
CONTINUOUS
10
1.32503
20
0.600077
11
1.3269
21
0.602871
0
LINE
8
BLACK
6
CONTINUOUS
10
1.3269
20
0.602871
11
1.32969
21
0.604738
0
LINE
8
BLACK
6
CONTINUOUS
10
1.32969
20
0.604738
11
1.33299
21
0.605394
0
LINE
8
BLACK
6
CONTINUOUS
10
1.33299
20
0.605394
11
1.36301
21
0.605394
0
LINE
8
BLACK
6
CONTINUOUS
10
1.36301
20
0.605394
11
1.36631
21
0.604738
0
LINE
8
BLACK
6
CONTINUOUS
10
1.29047
20
0.611534
11
1.29366
21
0.609401
0
LINE
8
BLACK
6
CONTINUOUS
10
1.29366
20
0.609401
11
1.29579
21
0.606208
0
LINE
8
BLACK
6
CONTINUOUS
10
1.29579
20
0.606208
11
1.29654
21
0.602441
0
LINE
8
BLACK
6
CONTINUOUS
10
1.29654
20
0.602441
11
1.29654
21
0.582756
0
LINE
8
BLACK
6
CONTINUOUS
10
1.29654
20
0.582756
11
1.29579
21
0.578989
0
LINE
8
BLACK
6
CONTINUOUS
10
1.29579
20
0.578989
11
1.29366
21
0.575796
0
LINE
8
BLACK
6
CONTINUOUS
10
1.29366
20
0.575796
11
1.29047
21
0.573663
0
LINE
8
BLACK
6
CONTINUOUS
10
1.29047
20
0.573663
11
1.2867
21
0.572913
0
LINE
8
BLACK
6
CONTINUOUS
10
1.2867
20
0.572913
11
1.2493
21
0.572913
0
LINE
8
BLACK
6
CONTINUOUS
10
1.2493
20
0.572913
11
1.24553
21
0.573663
0
LINE
8
BLACK
6
CONTINUOUS
10
1.24553
20
0.573663
11
1.24234
21
0.575796
0
LINE
8
BLACK
6
CONTINUOUS
10
1.24234
20
0.575796
11
1.24021
21
0.578989
0
LINE
8
BLACK
6
CONTINUOUS
10
1.24021
20
0.578989
11
1.23946
21
0.582756
0
LINE
8
BLACK
6
CONTINUOUS
10
1.23946
20
0.582756
11
1.23946
21
0.602441
0
LINE
8
BLACK
6
CONTINUOUS
10
1.23946
20
0.602441
11
1.24021
21
0.606208
0
LINE
8
BLACK
6
CONTINUOUS
10
1.24021
20
0.606208
11
1.24234
21
0.609401
0
LINE
8
BLACK
6
CONTINUOUS
10
1.24234
20
0.609401
11
1.24553
21
0.611534
0
LINE
8
BLACK
6
CONTINUOUS
10
1.24553
20
0.611534
11
1.2493
21
0.612283
0
LINE
8
BLACK
6
CONTINUOUS
10
1.2493
20
0.612283
11
1.2867
21
0.612283
0
LINE
8
BLACK
6
CONTINUOUS
10
1.2867
20
0.612283
11
1.29047
21
0.611534
0
LINE
8
BLACK
6
CONTINUOUS
10
0.893739
20
0.688966
11
0.896533
21
0.6871
0
LINE
8
BLACK
6
CONTINUOUS
10
0.896533
20
0.6871
11
0.8984
21
0.684306
0
LINE
8
BLACK
6
CONTINUOUS
10
0.8984
20
0.684306
11
0.899055
21
0.68101
0
LINE
8
BLACK
6
CONTINUOUS
10
0.899055
20
0.68101
11
0.899055
21
0.65099
0
LINE
8
BLACK
6
CONTINUOUS
10
0.899055
20
0.65099
11
0.8984
21
0.647694
0
LINE
8
BLACK
6
CONTINUOUS
10
0.8984
20
0.647694
11
0.896533
21
0.6449
0
LINE
8
BLACK
6
CONTINUOUS
10
0.896533
20
0.6449
11
0.893739
21
0.643034
0
LINE
8
BLACK
6
CONTINUOUS
10
0.893739
20
0.643034
11
0.890443
21
0.642378
0
LINE
8
BLACK
6
CONTINUOUS
10
0.890443
20
0.642378
11
0.873219
21
0.642378
0
LINE
8
BLACK
6
CONTINUOUS
10
0.873219
20
0.642378
11
0.869923
21
0.643034
0
LINE
8
BLACK
6
CONTINUOUS
10
0.869923
20
0.643034
11
0.867129
21
0.6449
0
LINE
8
BLACK
6
CONTINUOUS
10
0.867129
20
0.6449
11
0.865262
21
0.647694
0
LINE
8
BLACK
6
CONTINUOUS
10
0.865262
20
0.647694
11
0.864606
21
0.65099
0
LINE
8
BLACK
6
CONTINUOUS
10
0.864606
20
0.65099
11
0.864606
21
0.68101
0
LINE
8
BLACK
6
CONTINUOUS
10
0.864606
20
0.68101
11
0.865262
21
0.684306
0
LINE
8
BLACK
6
CONTINUOUS
10
0.865262
20
0.684306
11
0.867129
21
0.6871
0
LINE
8
BLACK
6
CONTINUOUS
10
0.867129
20
0.6871
11
0.869923
21
0.688966
0
LINE
8
BLACK
6
CONTINUOUS
10
0.869923
20
0.688966
11
0.873219
21
0.689622
0
LINE
8
BLACK
6
CONTINUOUS
10
0.873219
20
0.689622
11
0.890443
21
0.689622
0
LINE
8
BLACK
6
CONTINUOUS
10
0.890443
20
0.689622
11
0.893739
21
0.688966
0
LINE
8
BLACK
6
CONTINUOUS
10
0.810077
20
0.688966
11
0.812871
21
0.6871
0
LINE
8
BLACK
6
CONTINUOUS
10
0.812871
20
0.6871
11
0.814738
21
0.684306
0
LINE
8
BLACK
6
CONTINUOUS
10
0.814738
20
0.684306
11
0.815394
21
0.68101
0
LINE
8
BLACK
6
CONTINUOUS
10
0.815394
20
0.68101
11
0.815394
21
0.65099
0
LINE
8
BLACK
6
CONTINUOUS
10
0.815394
20
0.65099
11
0.814738
21
0.647694
0
LINE
8
BLACK
6
CONTINUOUS
10
0.814738
20
0.647694
11
0.812871
21
0.6449
0
LINE
8
BLACK
6
CONTINUOUS
10
0.812871
20
0.6449
11
0.810077
21
0.643034
0
LINE
8
BLACK
6
CONTINUOUS
10
0.810077
20
0.643034
11
0.806781
21
0.642378
0
LINE
8
BLACK
6
CONTINUOUS
10
0.806781
20
0.642378
11
0.789557
21
0.642378
0
LINE
8
BLACK
6
CONTINUOUS
10
0.789557
20
0.642378
11
0.786261
21
0.643034
0
LINE
8
BLACK
6
CONTINUOUS
10
0.786261
20
0.643034
11
0.783467
21
0.6449
0
LINE
8
BLACK
6
CONTINUOUS
10
0.783467
20
0.6449
11
0.7816
21
0.647694
0
LINE
8
BLACK
6
CONTINUOUS
10
0.7816
20
0.647694
11
0.780945
21
0.65099
0
LINE
8
BLACK
6
CONTINUOUS
10
0.780945
20
0.65099
11
0.780945
21
0.68101
0
LINE
8
BLACK
6
CONTINUOUS
10
0.780945
20
0.68101
11
0.7816
21
0.684306
0
LINE
8
BLACK
6
CONTINUOUS
10
0.7816
20
0.684306
11
0.783467
21
0.6871
0
LINE
8
BLACK
6
CONTINUOUS
10
0.783467
20
0.6871
11
0.786261
21
0.688966
0
LINE
8
BLACK
6
CONTINUOUS
10
0.786261
20
0.688966
11
0.789557
21
0.689622
0
LINE
8
BLACK
6
CONTINUOUS
10
0.789557
20
0.689622
11
0.806781
21
0.689622
0
LINE
8
BLACK
6
CONTINUOUS
10
0.806781
20
0.689622
11
0.810077
21
0.688966
0
LINE
8
BLACK
6
CONTINUOUS
10
0.744774
20
0.699196
11
0.747968
21
0.697062
0
LINE
8
BLACK
6
CONTINUOUS
10
0.747968
20
0.697062
11
0.750101
21
0.693869
0
LINE
8
BLACK
6
CONTINUOUS
10
0.750101
20
0.693869
11
0.75085
21
0.690102
0
LINE
8
BLACK
6
CONTINUOUS
10
0.75085
20
0.690102
11
0.75085
21
0.652701
0
LINE
8
BLACK
6
CONTINUOUS
10
0.75085
20
0.652701
11
0.750101
21
0.648934
0
LINE
8
BLACK
6
CONTINUOUS
10
0.750101
20
0.648934
11
0.747968
21
0.645741
0
LINE
8
BLACK
6
CONTINUOUS
10
0.747968
20
0.645741
11
0.744774
21
0.643607
0
LINE
8
BLACK
6
CONTINUOUS
10
0.744774
20
0.643607
11
0.741008
21
0.642858
0
LINE
8
BLACK
6
CONTINUOUS
10
0.741008
20
0.642858
11
0.721323
21
0.642858
0
LINE
8
BLACK
6
CONTINUOUS
10
0.721323
20
0.642858
11
0.717556
21
0.643607
0
LINE
8
BLACK
6
CONTINUOUS
10
0.717556
20
0.643607
11
0.714363
21
0.645741
0
LINE
8
BLACK
6
CONTINUOUS
10
0.714363
20
0.645741
11
0.71223
21
0.648934
0
LINE
8
BLACK
6
CONTINUOUS
10
0.71223
20
0.648934
11
0.71148
21
0.652701
0
LINE
8
BLACK
6
CONTINUOUS
10
0.71148
20
0.652701
11
0.71148
21
0.690102
0
LINE
8
BLACK
6
CONTINUOUS
10
0.71148
20
0.690102
11
0.71223
21
0.693869
0
LINE
8
BLACK
6
CONTINUOUS
10
0.71223
20
0.693869
11
0.714363
21
0.697062
0
LINE
8
BLACK
6
CONTINUOUS
10
0.714363
20
0.697062
11
0.717556
21
0.699196
0
LINE
8
BLACK
6
CONTINUOUS
10
0.717556
20
0.699196
11
0.721323
21
0.699945
0
LINE
8
BLACK
6
CONTINUOUS
10
0.721323
20
0.699945
11
0.741008
21
0.699945
0
LINE
8
BLACK
6
CONTINUOUS
10
0.741008
20
0.699945
11
0.744774
21
0.699196
0
LINE
8
BLACK
6
CONTINUOUS
10
0.669971
20
0.699196
11
0.673164
21
0.697062
0
LINE
8
BLACK
6
CONTINUOUS
10
0.673164
20
0.697062
11
0.675298
21
0.693869
0
LINE
8
BLACK
6
CONTINUOUS
10
0.675298
20
0.693869
11
0.676047
21
0.690102
0
LINE
8
BLACK
6
CONTINUOUS
10
0.676047
20
0.690102
11
0.676047
21
0.652701
0
LINE
8
BLACK
6
CONTINUOUS
10
0.676047
20
0.652701
11
0.675298
21
0.648934
0
LINE
8
BLACK
6
CONTINUOUS
10
0.675298
20
0.648934
11
0.673164
21
0.645741
0
LINE
8
BLACK
6
CONTINUOUS
10
0.673164
20
0.645741
11
0.669971
21
0.643607
0
LINE
8
BLACK
6
CONTINUOUS
10
0.669971
20
0.643607
11
0.666205
21
0.642858
0
LINE
8
BLACK
6
CONTINUOUS
10
0.666205
20
0.642858
11
0.64652
21
0.642858
0
LINE
8
BLACK
6
CONTINUOUS
10
0.64652
20
0.642858
11
0.642753
21
0.643607
0
LINE
8
BLACK
6
CONTINUOUS
10
0.642753
20
0.643607
11
0.63956
21
0.645741
0
LINE
8
BLACK
6
CONTINUOUS
10
0.63956
20
0.645741
11
0.637426
21
0.648934
0
LINE
8
BLACK
6
CONTINUOUS
10
0.637426
20
0.648934
11
0.636677
21
0.652701
0
LINE
8
BLACK
6
CONTINUOUS
10
0.636677
20
0.652701
11
0.636677
21
0.690102
0
LINE
8
BLACK
6
CONTINUOUS
10
0.636677
20
0.690102
11
0.637426
21
0.693869
0
LINE
8
BLACK
6
CONTINUOUS
10
0.637426
20
0.693869
11
0.63956
21
0.697062
0
LINE
8
BLACK
6
CONTINUOUS
10
0.63956
20
0.697062
11
0.642753
21
0.699196
0
LINE
8
BLACK
6
CONTINUOUS
10
0.642753
20
0.699196
11
0.64652
21
0.699945
0
LINE
8
BLACK
6
CONTINUOUS
10
0.64652
20
0.699945
11
0.666205
21
0.699945
0
LINE
8
BLACK
6
CONTINUOUS
10
0.666205
20
0.699945
11
0.669971
21
0.699196
0
LINE
8
BLACK
6
CONTINUOUS
10
0.980467
20
0.682739
11
0.983661
21
0.680605
0
LINE
8
BLACK
6
CONTINUOUS
10
0.983661
20
0.680605
11
0.985794
21
0.677412
0
LINE
8
BLACK
6
CONTINUOUS
10
0.985794
20
0.677412
11
0.986543
21
0.673646
0
LINE
8
BLACK
6
CONTINUOUS
10
0.986543
20
0.673646
11
0.986543
21
0.653961
0
LINE
8
BLACK
6
CONTINUOUS
10
0.986543
20
0.653961
11
0.985794
21
0.650194
0
LINE
8
BLACK
6
CONTINUOUS
10
0.985794
20
0.650194
11
0.983661
21
0.647001
0
LINE
8
BLACK
6
CONTINUOUS
10
0.983661
20
0.647001
11
0.980467
21
0.644867
0
LINE
8
BLACK
6
CONTINUOUS
10
0.980467
20
0.644867
11
0.976701
21
0.644118
0
LINE
8
BLACK
6
CONTINUOUS
10
0.976701
20
0.644118
11
0.939299
21
0.644118
0
LINE
8
BLACK
6
CONTINUOUS
10
0.939299
20
0.644118
11
0.935533
21
0.644867
0
LINE
8
BLACK
6
CONTINUOUS
10
0.935533
20
0.644867
11
0.932339
21
0.647001
0
LINE
8
BLACK
6
CONTINUOUS
10
0.932339
20
0.647001
11
0.930206
21
0.650194
0
LINE
8
BLACK
6
CONTINUOUS
10
0.930206
20
0.650194
11
0.929457
21
0.653961
0
LINE
8
BLACK
6
CONTINUOUS
10
0.929457
20
0.653961
11
0.929457
21
0.673646
0
LINE
8
BLACK
6
CONTINUOUS
10
0.929457
20
0.673646
11
0.930206
21
0.677412
0
LINE
8
BLACK
6
CONTINUOUS
10
0.930206
20
0.677412
11
0.932339
21
0.680605
0
LINE
8
BLACK
6
CONTINUOUS
10
0.932339
20
0.680605
11
0.935533
21
0.682739
0
LINE
8
BLACK
6
CONTINUOUS
10
0.935533
20
0.682739
11
0.939299
21
0.683488
0
LINE
8
BLACK
6
CONTINUOUS
10
0.939299
20
0.683488
11
0.976701
21
0.683488
0
LINE
8
BLACK
6
CONTINUOUS
10
0.976701
20
0.683488
11
0.980467
21
0.682739
0
LINE
8
BLACK
6
CONTINUOUS
10
1.20374
20
0.690966
11
1.20653
21
0.6891
0
LINE
8
BLACK
6
CONTINUOUS
10
1.20653
20
0.6891
11
1.2084
21
0.686306
0
LINE
8
BLACK
6
CONTINUOUS
10
1.2084
20
0.686306
11
1.20906
21
0.68301
0
LINE
8
BLACK
6
CONTINUOUS
10
1.20906
20
0.68301
11
1.20906
21
0.65299
0
LINE
8
BLACK
6
CONTINUOUS
10
1.20906
20
0.65299
11
1.2084
21
0.649694
0
LINE
8
BLACK
6
CONTINUOUS
10
1.2084
20
0.649694
11
1.20653
21
0.6469
0
LINE
8
BLACK
6
CONTINUOUS
10
1.20653
20
0.6469
11
1.20374
21
0.645034
0
LINE
8
BLACK
6
CONTINUOUS
10
1.20374
20
0.645034
11
1.20044
21
0.644378
0
LINE
8
BLACK
6
CONTINUOUS
10
1.20044
20
0.644378
11
1.18322
21
0.644378
0
LINE
8
BLACK
6
CONTINUOUS
10
1.18322
20
0.644378
11
1.17992
21
0.645034
0
LINE
8
BLACK
6
CONTINUOUS
10
1.17992
20
0.645034
11
1.17713
21
0.6469
0
LINE
8
BLACK
6
CONTINUOUS
10
1.17713
20
0.6469
11
1.17526
21
0.649694
0
LINE
8
BLACK
6
CONTINUOUS
10
1.17526
20
0.649694
11
1.17461
21
0.65299
0
LINE
8
BLACK
6
CONTINUOUS
10
1.17461
20
0.65299
11
1.17461
21
0.68301
0
LINE
8
BLACK
6
CONTINUOUS
10
1.17461
20
0.68301
11
1.17526
21
0.686306
0
LINE
8
BLACK
6
CONTINUOUS
10
1.17526
20
0.686306
11
1.17713
21
0.6891
0
LINE
8
BLACK
6
CONTINUOUS
10
1.17713
20
0.6891
11
1.17992
21
0.690966
0
LINE
8
BLACK
6
CONTINUOUS
10
1.17992
20
0.690966
11
1.18322
21
0.691622
0
LINE
8
BLACK
6
CONTINUOUS
10
1.18322
20
0.691622
11
1.20044
21
0.691622
0
LINE
8
BLACK
6
CONTINUOUS
10
1.20044
20
0.691622
11
1.20374
21
0.690966
0
LINE
8
BLACK
6
CONTINUOUS
10
1.12008
20
0.690966
11
1.12287
21
0.6891
0
LINE
8
BLACK
6
CONTINUOUS
10
1.12287
20
0.6891
11
1.12474
21
0.686306
0
LINE
8
BLACK
6
CONTINUOUS
10
1.12474
20
0.686306
11
1.12539
21
0.68301
0
LINE
8
BLACK
6
CONTINUOUS
10
1.12539
20
0.68301
11
1.12539
21
0.65299
0
LINE
8
BLACK
6
CONTINUOUS
10
1.12539
20
0.65299
11
1.12474
21
0.649694
0
LINE
8
BLACK
6
CONTINUOUS
10
1.12474
20
0.649694
11
1.12287
21
0.6469
0
LINE
8
BLACK
6
CONTINUOUS
10
1.12287
20
0.6469
11
1.12008
21
0.645034
0
LINE
8
BLACK
6
CONTINUOUS
10
1.12008
20
0.645034
11
1.11678
21
0.644378
0
LINE
8
BLACK
6
CONTINUOUS
10
1.11678
20
0.644378
11
1.09956
21
0.644378
0
LINE
8
BLACK
6
CONTINUOUS
10
1.09956
20
0.644378
11
1.09626
21
0.645034
0
LINE
8
BLACK
6
CONTINUOUS
10
1.09626
20
0.645034
11
1.09347
21
0.6469
0
LINE
8
BLACK
6
CONTINUOUS
10
1.09347
20
0.6469
11
1.0916
21
0.649694
0
LINE
8
BLACK
6
CONTINUOUS
10
1.0916
20
0.649694
11
1.09094
21
0.65299
0
LINE
8
BLACK
6
CONTINUOUS
10
1.09094
20
0.65299
11
1.09094
21
0.68301
0
LINE
8
BLACK
6
CONTINUOUS
10
1.09094
20
0.68301
11
1.0916
21
0.686306
0
LINE
8
BLACK
6
CONTINUOUS
10
1.0916
20
0.686306
11
1.09347
21
0.6891
0
LINE
8
BLACK
6
CONTINUOUS
10
1.09347
20
0.6891
11
1.09626
21
0.690966
0
LINE
8
BLACK
6
CONTINUOUS
10
1.09626
20
0.690966
11
1.09956
21
0.691622
0
LINE
8
BLACK
6
CONTINUOUS
10
1.09956
20
0.691622
11
1.11678
21
0.691622
0
LINE
8
BLACK
6
CONTINUOUS
10
1.11678
20
0.691622
11
1.12008
21
0.690966
0
LINE
8
BLACK
6
CONTINUOUS
10
1.43108
20
0.691966
11
1.43387
21
0.6901
0
LINE
8
BLACK
6
CONTINUOUS
10
1.43387
20
0.6901
11
1.43574
21
0.687306
0
LINE
8
BLACK
6
CONTINUOUS
10
1.43574
20
0.687306
11
1.43639
21
0.68401
0
LINE
8
BLACK
6
CONTINUOUS
10
1.43639
20
0.68401
11
1.43639
21
0.65399
0
LINE
8
BLACK
6
CONTINUOUS
10
1.43639
20
0.65399
11
1.43574
21
0.650694
0
LINE
8
BLACK
6
CONTINUOUS
10
1.43574
20
0.650694
11
1.43387
21
0.6479
0
LINE
8
BLACK
6
CONTINUOUS
10
1.43387
20
0.6479
11
1.43108
21
0.646034
0
LINE
8
BLACK
6
CONTINUOUS
10
1.43108
20
0.646034
11
1.42778
21
0.645378
0
LINE
8
BLACK
6
CONTINUOUS
10
1.42778
20
0.645378
11
1.41056
21
0.645378
0
LINE
8
BLACK
6
CONTINUOUS
10
1.41056
20
0.645378
11
1.40726
21
0.646034
0
LINE
8
BLACK
6
CONTINUOUS
10
1.40726
20
0.646034
11
1.40447
21
0.6479
0
LINE
8
BLACK
6
CONTINUOUS
10
1.40447
20
0.6479
11
1.4026
21
0.650694
0
LINE
8
BLACK
6
CONTINUOUS
10
1.4026
20
0.650694
11
1.40194
21
0.65399
0
LINE
8
BLACK
6
CONTINUOUS
10
1.40194
20
0.65399
11
1.40194
21
0.68401
0
LINE
8
BLACK
6
CONTINUOUS
10
1.40194
20
0.68401
11
1.4026
21
0.687306
0
LINE
8
BLACK
6
CONTINUOUS
10
1.4026
20
0.687306
11
1.40447
21
0.6901
0
LINE
8
BLACK
6
CONTINUOUS
10
1.40447
20
0.6901
11
1.40726
21
0.691966
0
LINE
8
BLACK
6
CONTINUOUS
10
1.40726
20
0.691966
11
1.41056
21
0.692622
0
LINE
8
BLACK
6
CONTINUOUS
10
1.41056
20
0.692622
11
1.42778
21
0.692622
0
LINE
8
BLACK
6
CONTINUOUS
10
1.42778
20
0.692622
11
1.43108
21
0.691966
0
LINE
8
BLACK
6
CONTINUOUS
10
1.51474
20
0.691966
11
1.51753
21
0.6901
0
LINE
8
BLACK
6
CONTINUOUS
10
1.51753
20
0.6901
11
1.5194
21
0.687306
0
LINE
8
BLACK
6
CONTINUOUS
10
1.5194
20
0.687306
11
1.52006
21
0.68401
0
LINE
8
BLACK
6
CONTINUOUS
10
1.52006
20
0.68401
11
1.52006
21
0.65399
0
LINE
8
BLACK
6
CONTINUOUS
10
1.52006
20
0.65399
11
1.5194
21
0.650694
0
LINE
8
BLACK
6
CONTINUOUS
10
1.5194
20
0.650694
11
1.51753
21
0.6479
0
LINE
8
BLACK
6
CONTINUOUS
10
1.51753
20
0.6479
11
1.51474
21
0.646034
0
LINE
8
BLACK
6
CONTINUOUS
10
1.51474
20
0.646034
11
1.51144
21
0.645378
0
LINE
8
BLACK
6
CONTINUOUS
10
1.51144
20
0.645378
11
1.49422
21
0.645378
0
LINE
8
BLACK
6
CONTINUOUS
10
1.49422
20
0.645378
11
1.49092
21
0.646034
0
LINE
8
BLACK
6
CONTINUOUS
10
1.49092
20
0.646034
11
1.48813
21
0.6479
0
LINE
8
BLACK
6
CONTINUOUS
10
1.48813
20
0.6479
11
1.48626
21
0.650694
0
LINE
8
BLACK
6
CONTINUOUS
10
1.48626
20
0.650694
11
1.48561
21
0.65399
0
LINE
8
BLACK
6
CONTINUOUS
10
1.48561
20
0.65399
11
1.48561
21
0.68401
0
LINE
8
BLACK
6
CONTINUOUS
10
1.48561
20
0.68401
11
1.48626
21
0.687306
0
LINE
8
BLACK
6
CONTINUOUS
10
1.48626
20
0.687306
11
1.48813
21
0.6901
0
LINE
8
BLACK
6
CONTINUOUS
10
1.48813
20
0.6901
11
1.49092
21
0.691966
0
LINE
8
BLACK
6
CONTINUOUS
10
1.49092
20
0.691966
11
1.49422
21
0.692622
0
LINE
8
BLACK
6
CONTINUOUS
10
1.49422
20
0.692622
11
1.51144
21
0.692622
0
LINE
8
BLACK
6
CONTINUOUS
10
1.51144
20
0.692622
11
1.51474
21
0.691966
0
LINE
8
BLACK
6
CONTINUOUS
10
1.58421
20
0.701794
11
1.5874
21
0.699661
0
LINE
8
BLACK
6
CONTINUOUS
10
1.5874
20
0.699661
11
1.58953
21
0.696467
0
LINE
8
BLACK
6
CONTINUOUS
10
1.58953
20
0.696467
11
1.59028
21
0.692701
0
LINE
8
BLACK
6
CONTINUOUS
10
1.59028
20
0.692701
11
1.59028
21
0.655299
0
LINE
8
BLACK
6
CONTINUOUS
10
1.59028
20
0.655299
11
1.58953
21
0.651533
0
LINE
8
BLACK
6
CONTINUOUS
10
1.58953
20
0.651533
11
1.5874
21
0.648339
0
LINE
8
BLACK
6
CONTINUOUS
10
1.5874
20
0.648339
11
1.58421
21
0.646206
0
LINE
8
BLACK
6
CONTINUOUS
10
1.58421
20
0.646206
11
1.58044
21
0.645457
0
LINE
8
BLACK
6
CONTINUOUS
10
1.58044
20
0.645457
11
1.56076
21
0.645457
0
LINE
8
BLACK
6
CONTINUOUS
10
1.56076
20
0.645457
11
1.55699
21
0.646206
0
LINE
8
BLACK
6
CONTINUOUS
10
1.55699
20
0.646206
11
1.5538
21
0.648339
0
LINE
8
BLACK
6
CONTINUOUS
10
1.5538
20
0.648339
11
1.55166
21
0.651533
0
LINE
8
BLACK
6
CONTINUOUS
10
1.55166
20
0.651533
11
1.55091
21
0.655299
0
LINE
8
BLACK
6
CONTINUOUS
10
1.55091
20
0.655299
11
1.55091
21
0.692701
0
LINE
8
BLACK
6
CONTINUOUS
10
1.55091
20
0.692701
11
1.55166
21
0.696467
0
LINE
8
BLACK
6
CONTINUOUS
10
1.55166
20
0.696467
11
1.5538
21
0.699661
0
LINE
8
BLACK
6
CONTINUOUS
10
1.5538
20
0.699661
11
1.55699
21
0.701794
0
LINE
8
BLACK
6
CONTINUOUS
10
1.55699
20
0.701794
11
1.56076
21
0.702543
0
LINE
8
BLACK
6
CONTINUOUS
10
1.56076
20
0.702543
11
1.58044
21
0.702543
0
LINE
8
BLACK
6
CONTINUOUS
10
1.58044
20
0.702543
11
1.58421
21
0.701794
0
LINE
8
BLACK
6
CONTINUOUS
10
1.65901
20
0.701794
11
1.6622
21
0.699661
0
LINE
8
BLACK
6
CONTINUOUS
10
1.6622
20
0.699661
11
1.66434
21
0.696467
0
LINE
8
BLACK
6
CONTINUOUS
10
1.66434
20
0.696467
11
1.66509
21
0.692701
0
LINE
8
BLACK
6
CONTINUOUS
10
1.66509
20
0.692701
11
1.66509
21
0.655299
0
LINE
8
BLACK
6
CONTINUOUS
10
1.66509
20
0.655299
11
1.66434
21
0.651533
0
LINE
8
BLACK
6
CONTINUOUS
10
1.66434
20
0.651533
11
1.6622
21
0.648339
0
LINE
8
BLACK
6
CONTINUOUS
10
1.6622
20
0.648339
11
1.65901
21
0.646206
0
LINE
8
BLACK
6
CONTINUOUS
10
1.65901
20
0.646206
11
1.65524
21
0.645457
0
LINE
8
BLACK
6
CONTINUOUS
10
1.65524
20
0.645457
11
1.63556
21
0.645457
0
LINE
8
BLACK
6
CONTINUOUS
10
1.63556
20
0.645457
11
1.63179
21
0.646206
0
LINE
8
BLACK
6
CONTINUOUS
10
1.63179
20
0.646206
11
1.6286
21
0.648339
0
LINE
8
BLACK
6
CONTINUOUS
10
1.6286
20
0.648339
11
1.62647
21
0.651533
0
LINE
8
BLACK
6
CONTINUOUS
10
1.62647
20
0.651533
11
1.62572
21
0.655299
0
LINE
8
BLACK
6
CONTINUOUS
10
1.62572
20
0.655299
11
1.62572
21
0.692701
0
LINE
8
BLACK
6
CONTINUOUS
10
1.62572
20
0.692701
11
1.62647
21
0.696467
0
LINE
8
BLACK
6
CONTINUOUS
10
1.62647
20
0.696467
11
1.6286
21
0.699661
0
LINE
8
BLACK
6
CONTINUOUS
10
1.6286
20
0.699661
11
1.63179
21
0.701794
0
LINE
8
BLACK
6
CONTINUOUS
10
1.63179
20
0.701794
11
1.63556
21
0.702543
0
LINE
8
BLACK
6
CONTINUOUS
10
1.63556
20
0.702543
11
1.65524
21
0.702543
0
LINE
8
BLACK
6
CONTINUOUS
10
1.65524
20
0.702543
11
1.65901
21
0.701794
0
LINE
8
BLACK
6
CONTINUOUS
10
1.29047
20
0.686337
11
1.29366
21
0.684204
0
LINE
8
BLACK
6
CONTINUOUS
10
1.29366
20
0.684204
11
1.29579
21
0.681011
0
LINE
8
BLACK
6
CONTINUOUS
10
1.29579
20
0.681011
11
1.29654
21
0.677244
0
LINE
8
BLACK
6
CONTINUOUS
10
1.29654
20
0.677244
11
1.29654
21
0.657559
0
LINE
8
BLACK
6
CONTINUOUS
10
1.29654
20
0.657559
11
1.29579
21
0.653792
0
LINE
8
BLACK
6
CONTINUOUS
10
1.29579
20
0.653792
11
1.29366
21
0.650599
0
LINE
8
BLACK
6
CONTINUOUS
10
1.29366
20
0.650599
11
1.29047
21
0.648466
0
LINE
8
BLACK
6
CONTINUOUS
10
1.29047
20
0.648466
11
1.2867
21
0.647717
0
LINE
8
BLACK
6
CONTINUOUS
10
1.2867
20
0.647717
11
1.2493
21
0.647717
0
LINE
8
BLACK
6
CONTINUOUS
10
1.2493
20
0.647717
11
1.24553
21
0.648466
0
LINE
8
BLACK
6
CONTINUOUS
10
1.24553
20
0.648466
11
1.24234
21
0.650599
0
LINE
8
BLACK
6
CONTINUOUS
10
1.24234
20
0.650599
11
1.24021
21
0.653792
0
LINE
8
BLACK
6
CONTINUOUS
10
1.24021
20
0.653792
11
1.23946
21
0.657559
0
LINE
8
BLACK
6
CONTINUOUS
10
1.23946
20
0.657559
11
1.23946
21
0.677244
0
LINE
8
BLACK
6
CONTINUOUS
10
1.23946
20
0.677244
11
1.24021
21
0.681011
0
LINE
8
BLACK
6
CONTINUOUS
10
1.24021
20
0.681011
11
1.24234
21
0.684204
0
LINE
8
BLACK
6
CONTINUOUS
10
1.24234
20
0.684204
11
1.24553
21
0.686337
0
LINE
8
BLACK
6
CONTINUOUS
10
1.24553
20
0.686337
11
1.2493
21
0.687087
0
LINE
8
BLACK
6
CONTINUOUS
10
1.2493
20
0.687087
11
1.2867
21
0.687087
0
LINE
8
BLACK
6
CONTINUOUS
10
1.2867
20
0.687087
11
1.29047
21
0.686337
0
LINE
8
BLACK
6
CONTINUOUS
10
1.05631
20
0.684801
11
1.0591
21
0.682934
0
LINE
8
BLACK
6
CONTINUOUS
10
1.0591
20
0.682934
11
1.06097
21
0.68014
0
LINE
8
BLACK
6
CONTINUOUS
10
1.06097
20
0.68014
11
1.06162
21
0.676844
0
LINE
8
BLACK
6
CONTINUOUS
10
1.06162
20
0.676844
11
1.06162
21
0.65962
0
LINE
8
BLACK
6
CONTINUOUS
10
1.06162
20
0.65962
11
1.06097
21
0.656324
0
LINE
8
BLACK
6
CONTINUOUS
10
1.06097
20
0.656324
11
1.0591
21
0.65353
0
LINE
8
BLACK
6
CONTINUOUS
10
1.0591
20
0.65353
11
1.05631
21
0.651663
0
LINE
8
BLACK
6
CONTINUOUS
10
1.05631
20
0.651663
11
1.05301
21
0.651008
0
LINE
8
BLACK
6
CONTINUOUS
10
1.05301
20
0.651008
11
1.02299
21
0.651008
0
LINE
8
BLACK
6
CONTINUOUS
10
1.02299
20
0.651008
11
1.01969
21
0.651663
0
LINE
8
BLACK
6
CONTINUOUS
10
1.01969
20
0.651663
11
1.0169
21
0.65353
0
LINE
8
BLACK
6
CONTINUOUS
10
1.0169
20
0.65353
11
1.01503
21
0.656324
0
LINE
8
BLACK
6
CONTINUOUS
10
1.01503
20
0.656324
11
1.01438
21
0.65962
0
LINE
8
BLACK
6
CONTINUOUS
10
1.01438
20
0.65962
11
1.01438
21
0.676844
0
LINE
8
BLACK
6
CONTINUOUS
10
1.01438
20
0.676844
11
1.01503
21
0.68014
0
LINE
8
BLACK
6
CONTINUOUS
10
1.01503
20
0.68014
11
1.0169
21
0.682934
0
LINE
8
BLACK
6
CONTINUOUS
10
1.0169
20
0.682934
11
1.01969
21
0.684801
0
LINE
8
BLACK
6
CONTINUOUS
10
1.01969
20
0.684801
11
1.02299
21
0.685457
0
LINE
8
BLACK
6
CONTINUOUS
10
1.02299
20
0.685457
11
1.05301
21
0.685457
0
LINE
8
BLACK
6
CONTINUOUS
10
1.05301
20
0.685457
11
1.05631
21
0.684801
0
LINE
8
BLACK
6
CONTINUOUS
10
1.36631
20
0.6884
11
1.3691
21
0.686533
0
LINE
8
BLACK
6
CONTINUOUS
10
1.3691
20
0.686533
11
1.37097
21
0.683739
0
LINE
8
BLACK
6
CONTINUOUS
10
1.37097
20
0.683739
11
1.37162
21
0.680443
0
LINE
8
BLACK
6
CONTINUOUS
10
1.37162
20
0.680443
11
1.37162
21
0.663219
0
LINE
8
BLACK
6
CONTINUOUS
10
1.37162
20
0.663219
11
1.37097
21
0.659923
0
LINE
8
BLACK
6
CONTINUOUS
10
1.37097
20
0.659923
11
1.3691
21
0.657129
0
LINE
8
BLACK
6
CONTINUOUS
10
1.3691
20
0.657129
11
1.36631
21
0.655262
0
LINE
8
BLACK
6
CONTINUOUS
10
1.36631
20
0.655262
11
1.36301
21
0.654606
0
LINE
8
BLACK
6
CONTINUOUS
10
1.36301
20
0.654606
11
1.33299
21
0.654606
0
LINE
8
BLACK
6
CONTINUOUS
10
1.33299
20
0.654606
11
1.32969
21
0.655262
0
LINE
8
BLACK
6
CONTINUOUS
10
1.32969
20
0.655262
11
1.3269
21
0.657129
0
LINE
8
BLACK
6
CONTINUOUS
10
1.3269
20
0.657129
11
1.32503
21
0.659923
0
LINE
8
BLACK
6
CONTINUOUS
10
1.32503
20
0.659923
11
1.32438
21
0.663219
0
LINE
8
BLACK
6
CONTINUOUS
10
1.32438
20
0.663219
11
1.32438
21
0.680443
0
LINE
8
BLACK
6
CONTINUOUS
10
1.32438
20
0.680443
11
1.32503
21
0.683739
0
LINE
8
BLACK
6
CONTINUOUS
10
1.32503
20
0.683739
11
1.3269
21
0.686533
0
LINE
8
BLACK
6
CONTINUOUS
10
1.3269
20
0.686533
11
1.32969
21
0.6884
0
LINE
8
BLACK
6
CONTINUOUS
10
1.32969
20
0.6884
11
1.33299
21
0.689055
0
LINE
8
BLACK
6
CONTINUOUS
10
1.33299
20
0.689055
11
1.36301
21
0.689055
0
LINE
8
BLACK
6
CONTINUOUS
10
1.36301
20
0.689055
11
1.36631
21
0.6884
0
LINE
8
BLACK
6
CONTINUOUS
10
1.28714
20
0.851966
11
1.28993
21
0.8501
0
LINE
8
BLACK
6
CONTINUOUS
10
1.28993
20
0.8501
11
1.2918
21
0.847306
0
LINE
8
BLACK
6
CONTINUOUS
10
1.2918
20
0.847306
11
1.29246
21
0.84401
0
LINE
8
BLACK
6
CONTINUOUS
10
1.29246
20
0.84401
11
1.29246
21
0.81399
0
LINE
8
BLACK
6
CONTINUOUS
10
1.29246
20
0.81399
11
1.2918
21
0.810694
0
LINE
8
BLACK
6
CONTINUOUS
10
1.2918
20
0.810694
11
1.28993
21
0.8079
0
LINE
8
BLACK
6
CONTINUOUS
10
1.28993
20
0.8079
11
1.28714
21
0.806034
0
LINE
8
BLACK
6
CONTINUOUS
10
1.28714
20
0.806034
11
1.28384
21
0.805378
0
LINE
8
BLACK
6
CONTINUOUS
10
1.28384
20
0.805378
11
1.26662
21
0.805378
0
LINE
8
BLACK
6
CONTINUOUS
10
1.26662
20
0.805378
11
1.26332
21
0.806034
0
LINE
8
BLACK
6
CONTINUOUS
10
1.26332
20
0.806034
11
1.26053
21
0.8079
0
LINE
8
BLACK
6
CONTINUOUS
10
1.26053
20
0.8079
11
1.25866
21
0.810694
0
LINE
8
BLACK
6
CONTINUOUS
10
1.25866
20
0.810694
11
1.25801
21
0.81399
0
LINE
8
BLACK
6
CONTINUOUS
10
1.25801
20
0.81399
11
1.25801
21
0.84401
0
LINE
8
BLACK
6
CONTINUOUS
10
1.25801
20
0.84401
11
1.25866
21
0.847306
0
LINE
8
BLACK
6
CONTINUOUS
10
1.25866
20
0.847306
11
1.26053
21
0.8501
0
LINE
8
BLACK
6
CONTINUOUS
10
1.26053
20
0.8501
11
1.26332
21
0.851966
0
LINE
8
BLACK
6
CONTINUOUS
10
1.26332
20
0.851966
11
1.26662
21
0.852622
0
LINE
8
BLACK
6
CONTINUOUS
10
1.26662
20
0.852622
11
1.28384
21
0.852622
0
LINE
8
BLACK
6
CONTINUOUS
10
1.28384
20
0.852622
11
1.28714
21
0.851966
0
LINE
8
BLACK
6
CONTINUOUS
10
1.20348
20
0.851966
11
1.20627
21
0.8501
0
LINE
8
BLACK
6
CONTINUOUS
10
1.20627
20
0.8501
11
1.20814
21
0.847306
0
LINE
8
BLACK
6
CONTINUOUS
10
1.20814
20
0.847306
11
1.2088
21
0.84401
0
LINE
8
BLACK
6
CONTINUOUS
10
1.2088
20
0.84401
11
1.2088
21
0.81399
0
LINE
8
BLACK
6
CONTINUOUS
10
1.2088
20
0.81399
11
1.20814
21
0.810694
0
LINE
8
BLACK
6
CONTINUOUS
10
1.20814
20
0.810694
11
1.20627
21
0.8079
0
LINE
8
BLACK
6
CONTINUOUS
10
1.20627
20
0.8079
11
1.20348
21
0.806034
0
LINE
8
BLACK
6
CONTINUOUS
10
1.20348
20
0.806034
11
1.20018
21
0.805378
0
LINE
8
BLACK
6
CONTINUOUS
10
1.20018
20
0.805378
11
1.18296
21
0.805378
0
LINE
8
BLACK
6
CONTINUOUS
10
1.18296
20
0.805378
11
1.17966
21
0.806034
0
LINE
8
BLACK
6
CONTINUOUS
10
1.17966
20
0.806034
11
1.17687
21
0.8079
0
LINE
8
BLACK
6
CONTINUOUS
10
1.17687
20
0.8079
11
1.175
21
0.810694
0
LINE
8
BLACK
6
CONTINUOUS
10
1.175
20
0.810694
11
1.17435
21
0.81399
0
LINE
8
BLACK
6
CONTINUOUS
10
1.17435
20
0.81399
11
1.17435
21
0.84401
0
LINE
8
BLACK
6
CONTINUOUS
10
1.17435
20
0.84401
11
1.175
21
0.847306
0
LINE
8
BLACK
6
CONTINUOUS
10
1.175
20
0.847306
11
1.17687
21
0.8501
0
LINE
8
BLACK
6
CONTINUOUS
10
1.17687
20
0.8501
11
1.17966
21
0.851966
0
LINE
8
BLACK
6
CONTINUOUS
10
1.17966
20
0.851966
11
1.18296
21
0.852622
0
LINE
8
BLACK
6
CONTINUOUS
10
1.18296
20
0.852622
11
1.20018
21
0.852622
0
LINE
8
BLACK
6
CONTINUOUS
10
1.20018
20
0.852622
11
1.20348
21
0.851966
0
LINE
8
BLACK
6
CONTINUOUS
10
1.03748
20
0.853966
11
1.04027
21
0.8521
0
LINE
8
BLACK
6
CONTINUOUS
10
1.04027
20
0.8521
11
1.04214
21
0.849306
0
LINE
8
BLACK
6
CONTINUOUS
10
1.04214
20
0.849306
11
1.0428
21
0.84601
0
LINE
8
BLACK
6
CONTINUOUS
10
1.0428
20
0.84601
11
1.0428
21
0.81599
0
LINE
8
BLACK
6
CONTINUOUS
10
1.0428
20
0.81599
11
1.04214
21
0.812694
0
LINE
8
BLACK
6
CONTINUOUS
10
1.04214
20
0.812694
11
1.04027
21
0.8099
0
LINE
8
BLACK
6
CONTINUOUS
10
1.04027
20
0.8099
11
1.03748
21
0.808034
0
LINE
8
BLACK
6
CONTINUOUS
10
1.03748
20
0.808034
11
1.03418
21
0.807378
0
LINE
8
BLACK
6
CONTINUOUS
10
1.03418
20
0.807378
11
1.01696
21
0.807378
0
LINE
8
BLACK
6
CONTINUOUS
10
1.01696
20
0.807378
11
1.01366
21
0.808034
0
LINE
8
BLACK
6
CONTINUOUS
10
1.01366
20
0.808034
11
1.01087
21
0.8099
0
LINE
8
BLACK
6
CONTINUOUS
10
1.01087
20
0.8099
11
1.009
21
0.812694
0
LINE
8
BLACK
6
CONTINUOUS
10
1.009
20
0.812694
11
1.00835
21
0.81599
0
LINE
8
BLACK
6
CONTINUOUS
10
1.00835
20
0.81599
11
1.00835
21
0.84601
0
LINE
8
BLACK
6
CONTINUOUS
10
1.00835
20
0.84601
11
1.009
21
0.849306
0
LINE
8
BLACK
6
CONTINUOUS
10
1.009
20
0.849306
11
1.01087
21
0.8521
0
LINE
8
BLACK
6
CONTINUOUS
10
1.01087
20
0.8521
11
1.01366
21
0.853966
0
LINE
8
BLACK
6
CONTINUOUS
10
1.01366
20
0.853966
11
1.01696
21
0.854622
0
LINE
8
BLACK
6
CONTINUOUS
10
1.01696
20
0.854622
11
1.03418
21
0.854622
0
LINE
8
BLACK
6
CONTINUOUS
10
1.03418
20
0.854622
11
1.03748
21
0.853966
0
LINE
8
BLACK
6
CONTINUOUS
10
1.12114
20
0.853966
11
1.12393
21
0.8521
0
LINE
8
BLACK
6
CONTINUOUS
10
1.12393
20
0.8521
11
1.1258
21
0.849306
0
LINE
8
BLACK
6
CONTINUOUS
10
1.1258
20
0.849306
11
1.12646
21
0.84601
0
LINE
8
BLACK
6
CONTINUOUS
10
1.12646
20
0.84601
11
1.12646
21
0.81599
0
LINE
8
BLACK
6
CONTINUOUS
10
1.12646
20
0.81599
11
1.1258
21
0.812694
0
LINE
8
BLACK
6
CONTINUOUS
10
1.1258
20
0.812694
11
1.12393
21
0.8099
0
LINE
8
BLACK
6
CONTINUOUS
10
1.12393
20
0.8099
11
1.12114
21
0.808034
0
LINE
8
BLACK
6
CONTINUOUS
10
1.12114
20
0.808034
11
1.11784
21
0.807378
0
LINE
8
BLACK
6
CONTINUOUS
10
1.11784
20
0.807378
11
1.10062
21
0.807378
0
LINE
8
BLACK
6
CONTINUOUS
10
1.10062
20
0.807378
11
1.09732
21
0.808034
0
LINE
8
BLACK
6
CONTINUOUS
10
1.09732
20
0.808034
11
1.09453
21
0.8099
0
LINE
8
BLACK
6
CONTINUOUS
10
1.09453
20
0.8099
11
1.09266
21
0.812694
0
LINE
8
BLACK
6
CONTINUOUS
10
1.09266
20
0.812694
11
1.09201
21
0.81599
0
LINE
8
BLACK
6
CONTINUOUS
10
1.09201
20
0.81599
11
1.09201
21
0.84601
0
LINE
8
BLACK
6
CONTINUOUS
10
1.09201
20
0.84601
11
1.09266
21
0.849306
0
LINE
8
BLACK
6
CONTINUOUS
10
1.09266
20
0.849306
11
1.09453
21
0.8521
0
LINE
8
BLACK
6
CONTINUOUS
10
1.09453
20
0.8521
11
1.09732
21
0.853966
0
LINE
8
BLACK
6
CONTINUOUS
10
1.09732
20
0.853966
11
1.10062
21
0.854622
0
LINE
8
BLACK
6
CONTINUOUS
10
1.10062
20
0.854622
11
1.11784
21
0.854622
0
LINE
8
BLACK
6
CONTINUOUS
10
1.11784
20
0.854622
11
1.12114
21
0.853966
0
LINE
8
BLACK
6
CONTINUOUS
10
0.657629
20
0.921463
11
0.660822
21
0.91933
0
LINE
8
BLACK
6
CONTINUOUS
10
0.660822
20
0.91933
11
0.662956
21
0.916137
0
LINE
8
BLACK
6
CONTINUOUS
10
0.662956
20
0.916137
11
0.663705
21
0.91237
0
LINE
8
BLACK
6
CONTINUOUS
10
0.663705
20
0.91237
11
0.663705
21
0.874969
0
LINE
8
BLACK
6
CONTINUOUS
10
0.663705
20
0.874969
11
0.662956
21
0.871202
0
LINE
8
BLACK
6
CONTINUOUS
10
0.662956
20
0.871202
11
0.660822
21
0.868009
0
LINE
8
BLACK
6
CONTINUOUS
10
0.660822
20
0.868009
11
0.657629
21
0.865875
0
LINE
8
BLACK
6
CONTINUOUS
10
0.657629
20
0.865875
11
0.653862
21
0.865126
0
LINE
8
BLACK
6
CONTINUOUS
10
0.653862
20
0.865126
11
0.634177
21
0.865126
0
LINE
8
BLACK
6
CONTINUOUS
10
0.634177
20
0.865126
11
0.630411
21
0.865875
0
LINE
8
BLACK
6
CONTINUOUS
10
0.630411
20
0.865875
11
0.627217
21
0.868009
0
LINE
8
BLACK
6
CONTINUOUS
10
0.627217
20
0.868009
11
0.625084
21
0.871202
0
LINE
8
BLACK
6
CONTINUOUS
10
0.625084
20
0.871202
11
0.624335
21
0.874969
0
LINE
8
BLACK
6
CONTINUOUS
10
0.624335
20
0.874969
11
0.624335
21
0.91237
0
LINE
8
BLACK
6
CONTINUOUS
10
0.624335
20
0.91237
11
0.625084
21
0.916137
0
LINE
8
BLACK
6
CONTINUOUS
10
0.625084
20
0.916137
11
0.627217
21
0.91933
0
LINE
8
BLACK
6
CONTINUOUS
10
0.627217
20
0.91933
11
0.630411
21
0.921463
0
LINE
8
BLACK
6
CONTINUOUS
10
0.630411
20
0.921463
11
0.634177
21
0.922213
0
LINE
8
BLACK
6
CONTINUOUS
10
0.634177
20
0.922213
11
0.653862
21
0.922213
0
LINE
8
BLACK
6
CONTINUOUS
10
0.653862
20
0.922213
11
0.657629
21
0.921463
0
LINE
8
BLACK
6
CONTINUOUS
10
0.732432
20
0.921463
11
0.735625
21
0.91933
0
LINE
8
BLACK
6
CONTINUOUS
10
0.735625
20
0.91933
11
0.737759
21
0.916137
0
LINE
8
BLACK
6
CONTINUOUS
10
0.737759
20
0.916137
11
0.738508
21
0.91237
0
LINE
8
BLACK
6
CONTINUOUS
10
0.738508
20
0.91237
11
0.738508
21
0.874969
0
LINE
8
BLACK
6
CONTINUOUS
10
0.738508
20
0.874969
11
0.737759
21
0.871202
0
LINE
8
BLACK
6
CONTINUOUS
10
0.737759
20
0.871202
11
0.735625
21
0.868009
0
LINE
8
BLACK
6
CONTINUOUS
10
0.735625
20
0.868009
11
0.732432
21
0.865875
0
LINE
8
BLACK
6
CONTINUOUS
10
0.732432
20
0.865875
11
0.728665
21
0.865126
0
LINE
8
BLACK
6
CONTINUOUS
10
0.728665
20
0.865126
11
0.70898
21
0.865126
0
LINE
8
BLACK
6
CONTINUOUS
10
0.70898
20
0.865126
11
0.705214
21
0.865875
0
LINE
8
BLACK
6
CONTINUOUS
10
0.705214
20
0.865875
11
0.702021
21
0.868009
0
LINE
8
BLACK
6
CONTINUOUS
10
0.702021
20
0.868009
11
0.699887
21
0.871202
0
LINE
8
BLACK
6
CONTINUOUS
10
0.699887
20
0.871202
11
0.699138
21
0.874969
0
LINE
8
BLACK
6
CONTINUOUS
10
0.699138
20
0.874969
11
0.699138
21
0.91237
0
LINE
8
BLACK
6
CONTINUOUS
10
0.699138
20
0.91237
11
0.699887
21
0.916137
0
LINE
8
BLACK
6
CONTINUOUS
10
0.699887
20
0.916137
11
0.702021
21
0.91933
0
LINE
8
BLACK
6
CONTINUOUS
10
0.702021
20
0.91933
11
0.705214
21
0.921463
0
LINE
8
BLACK
6
CONTINUOUS
10
0.705214
20
0.921463
11
0.70898
21
0.922213
0
LINE
8
BLACK
6
CONTINUOUS
10
0.70898
20
0.922213
11
0.728665
21
0.922213
0
LINE
8
BLACK
6
CONTINUOUS
10
0.728665
20
0.922213
11
0.732432
21
0.921463
0
LINE
8
BLACK
6
CONTINUOUS
10
1.58961
20
0.922794
11
1.5928
21
0.920661
0
LINE
8
BLACK
6
CONTINUOUS
10
1.5928
20
0.920661
11
1.59494
21
0.917467
0
LINE
8
BLACK
6
CONTINUOUS
10
1.59494
20
0.917467
11
1.59569
21
0.913701
0
LINE
8
BLACK
6
CONTINUOUS
10
1.59569
20
0.913701
11
1.59569
21
0.876299
0
LINE
8
BLACK
6
CONTINUOUS
10
1.59569
20
0.876299
11
1.59494
21
0.872533
0
LINE
8
BLACK
6
CONTINUOUS
10
1.59494
20
0.872533
11
1.5928
21
0.869339
0
LINE
8
BLACK
6
CONTINUOUS
10
1.5928
20
0.869339
11
1.58961
21
0.867206
0
LINE
8
BLACK
6
CONTINUOUS
10
1.58961
20
0.867206
11
1.58584
21
0.866457
0
LINE
8
BLACK
6
CONTINUOUS
10
1.58584
20
0.866457
11
1.56616
21
0.866457
0
LINE
8
BLACK
6
CONTINUOUS
10
1.56616
20
0.866457
11
1.56239
21
0.867206
0
LINE
8
BLACK
6
CONTINUOUS
10
1.56239
20
0.867206
11
1.5592
21
0.869339
0
LINE
8
BLACK
6
CONTINUOUS
10
1.5592
20
0.869339
11
1.55706
21
0.872533
0
LINE
8
BLACK
6
CONTINUOUS
10
1.55706
20
0.872533
11
1.55631
21
0.876299
0
LINE
8
BLACK
6
CONTINUOUS
10
1.55631
20
0.876299
11
1.55631
21
0.913701
0
LINE
8
BLACK
6
CONTINUOUS
10
1.55631
20
0.913701
11
1.55706
21
0.917467
0
LINE
8
BLACK
6
CONTINUOUS
10
1.55706
20
0.917467
11
1.5592
21
0.920661
0
LINE
8
BLACK
6
CONTINUOUS
10
1.5592
20
0.920661
11
1.56239
21
0.922794
0
LINE
8
BLACK
6
CONTINUOUS
10
1.56239
20
0.922794
11
1.56616
21
0.923543
0
LINE
8
BLACK
6
CONTINUOUS
10
1.56616
20
0.923543
11
1.58584
21
0.923543
0
LINE
8
BLACK
6
CONTINUOUS
10
1.58584
20
0.923543
11
1.58961
21
0.922794
0
LINE
8
BLACK
6
CONTINUOUS
10
1.66441
20
0.922794
11
1.66761
21
0.920661
0
LINE
8
BLACK
6
CONTINUOUS
10
1.66761
20
0.920661
11
1.66974
21
0.917467
0
LINE
8
BLACK
6
CONTINUOUS
10
1.66974
20
0.917467
11
1.67049
21
0.913701
0
LINE
8
BLACK
6
CONTINUOUS
10
1.67049
20
0.913701
11
1.67049
21
0.876299
0
LINE
8
BLACK
6
CONTINUOUS
10
1.67049
20
0.876299
11
1.66974
21
0.872533
0
LINE
8
BLACK
6
CONTINUOUS
10
1.66974
20
0.872533
11
1.66761
21
0.869339
0
LINE
8
BLACK
6
CONTINUOUS
10
1.66761
20
0.869339
11
1.66441
21
0.867206
0
LINE
8
BLACK
6
CONTINUOUS
10
1.66441
20
0.867206
11
1.66065
21
0.866457
0
LINE
8
BLACK
6
CONTINUOUS
10
1.66065
20
0.866457
11
1.64096
21
0.866457
0
LINE
8
BLACK
6
CONTINUOUS
10
1.64096
20
0.866457
11
1.63719
21
0.867206
0
LINE
8
BLACK
6
CONTINUOUS
10
1.63719
20
0.867206
11
1.634
21
0.869339
0
LINE
8
BLACK
6
CONTINUOUS
10
1.634
20
0.869339
11
1.63187
21
0.872533
0
LINE
8
BLACK
6
CONTINUOUS
10
1.63187
20
0.872533
11
1.63112
21
0.876299
0
LINE
8
BLACK
6
CONTINUOUS
10
1.63112
20
0.876299
11
1.63112
21
0.913701
0
LINE
8
BLACK
6
CONTINUOUS
10
1.63112
20
0.913701
11
1.63187
21
0.917467
0
LINE
8
BLACK
6
CONTINUOUS
10
1.63187
20
0.917467
11
1.634
21
0.920661
0
LINE
8
BLACK
6
CONTINUOUS
10
1.634
20
0.920661
11
1.63719
21
0.922794
0
LINE
8
BLACK
6
CONTINUOUS
10
1.63719
20
0.922794
11
1.64096
21
0.923543
0
LINE
8
BLACK
6
CONTINUOUS
10
1.64096
20
0.923543
11
1.66065
21
0.923543
0
LINE
8
BLACK
6
CONTINUOUS
10
1.66065
20
0.923543
11
1.66441
21
0.922794
0
LINE
8
BLACK
6
CONTINUOUS
10
0.799329
20
0.920636
11
0.802123
21
0.918769
0
LINE
8
BLACK
6
CONTINUOUS
10
0.802123
20
0.918769
11
0.80399
21
0.915975
0
LINE
8
BLACK
6
CONTINUOUS
10
0.80399
20
0.915975
11
0.804646
21
0.912679
0
LINE
8
BLACK
6
CONTINUOUS
10
0.804646
20
0.912679
11
0.804646
21
0.882659
0
LINE
8
BLACK
6
CONTINUOUS
10
0.804646
20
0.882659
11
0.80399
21
0.879364
0
LINE
8
BLACK
6
CONTINUOUS
10
0.80399
20
0.879364
11
0.802123
21
0.87657
0
LINE
8
BLACK
6
CONTINUOUS
10
0.802123
20
0.87657
11
0.799329
21
0.874703
0
LINE
8
BLACK
6
CONTINUOUS
10
0.799329
20
0.874703
11
0.796033
21
0.874047
0
LINE
8
BLACK
6
CONTINUOUS
10
0.796033
20
0.874047
11
0.778809
21
0.874047
0
LINE
8
BLACK
6
CONTINUOUS
10
0.778809
20
0.874047
11
0.775513
21
0.874703
0
LINE
8
BLACK
6
CONTINUOUS
10
0.775513
20
0.874703
11
0.772719
21
0.87657
0
LINE
8
BLACK
6
CONTINUOUS
10
0.772719
20
0.87657
11
0.770852
21
0.879364
0
LINE
8
BLACK
6
CONTINUOUS
10
0.770852
20
0.879364
11
0.770197
21
0.882659
0
LINE
8
BLACK
6
CONTINUOUS
10
0.770197
20
0.882659
11
0.770197
21
0.912679
0
LINE
8
BLACK
6
CONTINUOUS
10
0.770197
20
0.912679
11
0.770852
21
0.915975
0
LINE
8
BLACK
6
CONTINUOUS
10
0.770852
20
0.915975
11
0.772719
21
0.918769
0
LINE
8
BLACK
6
CONTINUOUS
10
0.772719
20
0.918769
11
0.775513
21
0.920636
0
LINE
8
BLACK
6
CONTINUOUS
10
0.775513
20
0.920636
11
0.778809
21
0.921291
0
LINE
8
BLACK
6
CONTINUOUS
10
0.778809
20
0.921291
11
0.796033
21
0.921291
0
LINE
8
BLACK
6
CONTINUOUS
10
0.796033
20
0.921291
11
0.799329
21
0.920636
0
LINE
8
BLACK
6
CONTINUOUS
10
0.882991
20
0.920636
11
0.885785
21
0.918769
0
LINE
8
BLACK
6
CONTINUOUS
10
0.885785
20
0.918769
11
0.887652
21
0.915975
0
LINE
8
BLACK
6
CONTINUOUS
10
0.887652
20
0.915975
11
0.888307
21
0.912679
0
LINE
8
BLACK
6
CONTINUOUS
10
0.888307
20
0.912679
11
0.888307
21
0.882659
0
LINE
8
BLACK
6
CONTINUOUS
10
0.888307
20
0.882659
11
0.887652
21
0.879364
0
LINE
8
BLACK
6
CONTINUOUS
10
0.887652
20
0.879364
11
0.885785
21
0.87657
0
LINE
8
BLACK
6
CONTINUOUS
10
0.885785
20
0.87657
11
0.882991
21
0.874703
0
LINE
8
BLACK
6
CONTINUOUS
10
0.882991
20
0.874703
11
0.879695
21
0.874047
0
LINE
8
BLACK
6
CONTINUOUS
10
0.879695
20
0.874047
11
0.86247
21
0.874047
0
LINE
8
BLACK
6
CONTINUOUS
10
0.86247
20
0.874047
11
0.859175
21
0.874703
0
LINE
8
BLACK
6
CONTINUOUS
10
0.859175
20
0.874703
11
0.856381
21
0.87657
0
LINE
8
BLACK
6
CONTINUOUS
10
0.856381
20
0.87657
11
0.854514
21
0.879364
0
LINE
8
BLACK
6
CONTINUOUS
10
0.854514
20
0.879364
11
0.853858
21
0.882659
0
LINE
8
BLACK
6
CONTINUOUS
10
0.853858
20
0.882659
11
0.853858
21
0.912679
0
LINE
8
BLACK
6
CONTINUOUS
10
0.853858
20
0.912679
11
0.854514
21
0.915975
0
LINE
8
BLACK
6
CONTINUOUS
10
0.854514
20
0.915975
11
0.856381
21
0.918769
0
LINE
8
BLACK
6
CONTINUOUS
10
0.856381
20
0.918769
11
0.859175
21
0.920636
0
LINE
8
BLACK
6
CONTINUOUS
10
0.859175
20
0.920636
11
0.86247
21
0.921291
0
LINE
8
BLACK
6
CONTINUOUS
10
0.86247
20
0.921291
11
0.879695
21
0.921291
0
LINE
8
BLACK
6
CONTINUOUS
10
0.879695
20
0.921291
11
0.882991
21
0.920636
0
LINE
8
BLACK
6
CONTINUOUS
10
1.52114
20
0.921966
11
1.52393
21
0.9201
0
LINE
8
BLACK
6
CONTINUOUS
10
1.52393
20
0.9201
11
1.5258
21
0.917306
0
LINE
8
BLACK
6
CONTINUOUS
10
1.5258
20
0.917306
11
1.52646
21
0.91401
0
LINE
8
BLACK
6
CONTINUOUS
10
1.52646
20
0.91401
11
1.52646
21
0.88399
0
LINE
8
BLACK
6
CONTINUOUS
10
1.52646
20
0.88399
11
1.5258
21
0.880694
0
LINE
8
BLACK
6
CONTINUOUS
10
1.5258
20
0.880694
11
1.52393
21
0.8779
0
LINE
8
BLACK
6
CONTINUOUS
10
1.52393
20
0.8779
11
1.52114
21
0.876034
0
LINE
8
BLACK
6
CONTINUOUS
10
1.52114
20
0.876034
11
1.51784
21
0.875378
0
LINE
8
BLACK
6
CONTINUOUS
10
1.51784
20
0.875378
11
1.50062
21
0.875378
0
LINE
8
BLACK
6
CONTINUOUS
10
1.50062
20
0.875378
11
1.49732
21
0.876034
0
LINE
8
BLACK
6
CONTINUOUS
10
1.49732
20
0.876034
11
1.49453
21
0.8779
0
LINE
8
BLACK
6
CONTINUOUS
10
1.49453
20
0.8779
11
1.49266
21
0.880694
0
LINE
8
BLACK
6
CONTINUOUS
10
1.49266
20
0.880694
11
1.49201
21
0.88399
0
LINE
8
BLACK
6
CONTINUOUS
10
1.49201
20
0.88399
11
1.49201
21
0.91401
0
LINE
8
BLACK
6
CONTINUOUS
10
1.49201
20
0.91401
11
1.49266
21
0.917306
0
LINE
8
BLACK
6
CONTINUOUS
10
1.49266
20
0.917306
11
1.49453
21
0.9201
0
LINE
8
BLACK
6
CONTINUOUS
10
1.49453
20
0.9201
11
1.49732
21
0.921966
0
LINE
8
BLACK
6
CONTINUOUS
10
1.49732
20
0.921966
11
1.50062
21
0.922622
0
LINE
8
BLACK
6
CONTINUOUS
10
1.50062
20
0.922622
11
1.51784
21
0.922622
0
LINE
8
BLACK
6
CONTINUOUS
10
1.51784
20
0.922622
11
1.52114
21
0.921966
0
LINE
8
BLACK
6
CONTINUOUS
10
1.43748
20
0.921966
11
1.44027
21
0.9201
0
LINE
8
BLACK
6
CONTINUOUS
10
1.44027
20
0.9201
11
1.44214
21
0.917306
0
LINE
8
BLACK
6
CONTINUOUS
10
1.44214
20
0.917306
11
1.4428
21
0.91401
0
LINE
8
BLACK
6
CONTINUOUS
10
1.4428
20
0.91401
11
1.4428
21
0.88399
0
LINE
8
BLACK
6
CONTINUOUS
10
1.4428
20
0.88399
11
1.44214
21
0.880694
0
LINE
8
BLACK
6
CONTINUOUS
10
1.44214
20
0.880694
11
1.44027
21
0.8779
0
LINE
8
BLACK
6
CONTINUOUS
10
1.44027
20
0.8779
11
1.43748
21
0.876034
0
LINE
8
BLACK
6
CONTINUOUS
10
1.43748
20
0.876034
11
1.43418
21
0.875378
0
LINE
8
BLACK
6
CONTINUOUS
10
1.43418
20
0.875378
11
1.41696
21
0.875378
0
LINE
8
BLACK
6
CONTINUOUS
10
1.41696
20
0.875378
11
1.41366
21
0.876034
0
LINE
8
BLACK
6
CONTINUOUS
10
1.41366
20
0.876034
11
1.41087
21
0.8779
0
LINE
8
BLACK
6
CONTINUOUS
10
1.41087
20
0.8779
11
1.409
21
0.880694
0
LINE
8
BLACK
6
CONTINUOUS
10
1.409
20
0.880694
11
1.40835
21
0.88399
0
LINE
8
BLACK
6
CONTINUOUS
10
1.40835
20
0.88399
11
1.40835
21
0.91401
0
LINE
8
BLACK
6
CONTINUOUS
10
1.40835
20
0.91401
11
1.409
21
0.917306
0
LINE
8
BLACK
6
CONTINUOUS
10
1.409
20
0.917306
11
1.41087
21
0.9201
0
LINE
8
BLACK
6
CONTINUOUS
10
1.41087
20
0.9201
11
1.41366
21
0.921966
0
LINE
8
BLACK
6
CONTINUOUS
10
1.41366
20
0.921966
11
1.41696
21
0.922622
0
LINE
8
BLACK
6
CONTINUOUS
10
1.41696
20
0.922622
11
1.43418
21
0.922622
0
LINE
8
BLACK
6
CONTINUOUS
10
1.43418
20
0.922622
11
1.43748
21
0.921966
0
LINE
8
BLACK
6
CONTINUOUS
10
1.37371
20
0.913738
11
1.3765
21
0.911871
0
LINE
8
BLACK
6
CONTINUOUS
10
1.3765
20
0.911871
11
1.37837
21
0.909077
0
LINE
8
BLACK
6
CONTINUOUS
10
1.37837
20
0.909077
11
1.37902
21
0.905781
0
LINE
8
BLACK
6
CONTINUOUS
10
1.37902
20
0.905781
11
1.37902
21
0.888557
0
LINE
8
BLACK
6
CONTINUOUS
10
1.37902
20
0.888557
11
1.37837
21
0.885261
0
LINE
8
BLACK
6
CONTINUOUS
10
1.37837
20
0.885261
11
1.3765
21
0.882467
0
LINE
8
BLACK
6
CONTINUOUS
10
1.3765
20
0.882467
11
1.37371
21
0.8806
0
LINE
8
BLACK
6
CONTINUOUS
10
1.37371
20
0.8806
11
1.37041
21
0.879945
0
LINE
8
BLACK
6
CONTINUOUS
10
1.37041
20
0.879945
11
1.34039
21
0.879945
0
LINE
8
BLACK
6
CONTINUOUS
10
1.34039
20
0.879945
11
1.3371
21
0.8806
0
LINE
8
BLACK
6
CONTINUOUS
10
1.3371
20
0.8806
11
1.3343
21
0.882467
0
LINE
8
BLACK
6
CONTINUOUS
10
1.3343
20
0.882467
11
1.33244
21
0.885261
0
LINE
8
BLACK
6
CONTINUOUS
10
1.33244
20
0.885261
11
1.33178
21
0.888557
0
LINE
8
BLACK
6
CONTINUOUS
10
1.33178
20
0.888557
11
1.33178
21
0.905781
0
LINE
8
BLACK
6
CONTINUOUS
10
1.33178
20
0.905781
11
1.33244
21
0.909077
0
LINE
8
BLACK
6
CONTINUOUS
10
1.33244
20
0.909077
11
1.3343
21
0.911871
0
LINE
8
BLACK
6
CONTINUOUS
10
1.3343
20
0.911871
11
1.3371
21
0.913738
0
LINE
8
BLACK
6
CONTINUOUS
10
1.3371
20
0.913738
11
1.34039
21
0.914394
0
LINE
8
BLACK
6
CONTINUOUS
10
1.34039
20
0.914394
11
1.37041
21
0.914394
0
LINE
8
BLACK
6
CONTINUOUS
10
1.37041
20
0.914394
11
1.37371
21
0.913738
0
LINE
8
BLACK
6
CONTINUOUS
10
1.20971
20
0.914569
11
1.2125
21
0.912702
0
LINE
8
BLACK
6
CONTINUOUS
10
1.2125
20
0.912702
11
1.21437
21
0.909908
0
LINE
8
BLACK
6
CONTINUOUS
10
1.21437
20
0.909908
11
1.21502
21
0.906612
0
LINE
8
BLACK
6
CONTINUOUS
10
1.21502
20
0.906612
11
1.21502
21
0.889388
0
LINE
8
BLACK
6
CONTINUOUS
10
1.21502
20
0.889388
11
1.21437
21
0.886092
0
LINE
8
BLACK
6
CONTINUOUS
10
1.21437
20
0.886092
11
1.2125
21
0.883298
0
LINE
8
BLACK
6
CONTINUOUS
10
1.2125
20
0.883298
11
1.20971
21
0.881431
0
LINE
8
BLACK
6
CONTINUOUS
10
1.20971
20
0.881431
11
1.20641
21
0.880776
0
LINE
8
BLACK
6
CONTINUOUS
10
1.20641
20
0.880776
11
1.17639
21
0.880776
0
LINE
8
BLACK
6
CONTINUOUS
10
1.17639
20
0.880776
11
1.1731
21
0.881431
0
LINE
8
BLACK
6
CONTINUOUS
10
1.1731
20
0.881431
11
1.1703
21
0.883298
0
LINE
8
BLACK
6
CONTINUOUS
10
1.1703
20
0.883298
11
1.16844
21
0.886092
0
LINE
8
BLACK
6
CONTINUOUS
10
1.16844
20
0.886092
11
1.16778
21
0.889388
0
LINE
8
BLACK
6
CONTINUOUS
10
1.16778
20
0.889388
11
1.16778
21
0.906612
0
LINE
8
BLACK
6
CONTINUOUS
10
1.16778
20
0.906612
11
1.16844
21
0.909908
0
LINE
8
BLACK
6
CONTINUOUS
10
1.16844
20
0.909908
11
1.1703
21
0.912702
0
LINE
8
BLACK
6
CONTINUOUS
10
1.1703
20
0.912702
11
1.1731
21
0.914569
0
LINE
8
BLACK
6
CONTINUOUS
10
1.1731
20
0.914569
11
1.17639
21
0.915224
0
LINE
8
BLACK
6
CONTINUOUS
10
1.17639
20
0.915224
11
1.20641
21
0.915224
0
LINE
8
BLACK
6
CONTINUOUS
10
1.20641
20
0.915224
11
1.20971
21
0.914569
0
LINE
8
BLACK
6
CONTINUOUS
10
1.04471
20
0.914738
11
1.0475
21
0.912871
0
LINE
8
BLACK
6
CONTINUOUS
10
1.0475
20
0.912871
11
1.04937
21
0.910077
0
LINE
8
BLACK
6
CONTINUOUS
10
1.04937
20
0.910077
11
1.05002
21
0.906781
0
LINE
8
BLACK
6
CONTINUOUS
10
1.05002
20
0.906781
11
1.05002
21
0.889557
0
LINE
8
BLACK
6
CONTINUOUS
10
1.05002
20
0.889557
11
1.04937
21
0.886261
0
LINE
8
BLACK
6
CONTINUOUS
10
1.04937
20
0.886261
11
1.0475
21
0.883467
0
LINE
8
BLACK
6
CONTINUOUS
10
1.0475
20
0.883467
11
1.04471
21
0.8816
0
LINE
8
BLACK
6
CONTINUOUS
10
1.04471
20
0.8816
11
1.04141
21
0.880945
0
LINE
8
BLACK
6
CONTINUOUS
10
1.04141
20
0.880945
11
1.01139
21
0.880945
0
LINE
8
BLACK
6
CONTINUOUS
10
1.01139
20
0.880945
11
1.0081
21
0.8816
0
LINE
8
BLACK
6
CONTINUOUS
10
1.0081
20
0.8816
11
1.0053
21
0.883467
0
LINE
8
BLACK
6
CONTINUOUS
10
1.0053
20
0.883467
11
1.00344
21
0.886261
0
LINE
8
BLACK
6
CONTINUOUS
10
1.00344
20
0.886261
11
1.00278
21
0.889557
0
LINE
8
BLACK
6
CONTINUOUS
10
1.00278
20
0.889557
11
1.00278
21
0.906781
0
LINE
8
BLACK
6
CONTINUOUS
10
1.00278
20
0.906781
11
1.00344
21
0.910077
0
LINE
8
BLACK
6
CONTINUOUS
10
1.00344
20
0.910077
11
1.0053
21
0.912871
0
LINE
8
BLACK
6
CONTINUOUS
10
1.0053
20
0.912871
11
1.0081
21
0.914738
0
LINE
8
BLACK
6
CONTINUOUS
10
1.0081
20
0.914738
11
1.01139
21
0.915394
0
LINE
8
BLACK
6
CONTINUOUS
10
1.01139
20
0.915394
11
1.04141
21
0.915394
0
LINE
8
BLACK
6
CONTINUOUS
10
1.04141
20
0.915394
11
1.04471
21
0.914738
0
LINE
8
BLACK
6
CONTINUOUS
10
1.29787
20
0.920534
11
1.30106
21
0.918401
0
LINE
8
BLACK
6
CONTINUOUS
10
1.30106
20
0.918401
11
1.3032
21
0.915208
0
LINE
8
BLACK
6
CONTINUOUS
10
1.3032
20
0.915208
11
1.30394
21
0.911441
0
LINE
8
BLACK
6
CONTINUOUS
10
1.30394
20
0.911441
11
1.30394
21
0.891756
0
LINE
8
BLACK
6
CONTINUOUS
10
1.30394
20
0.891756
11
1.3032
21
0.887989
0
LINE
8
BLACK
6
CONTINUOUS
10
1.3032
20
0.887989
11
1.30106
21
0.884796
0
LINE
8
BLACK
6
CONTINUOUS
10
1.30106
20
0.884796
11
1.29787
21
0.882663
0
LINE
8
BLACK
6
CONTINUOUS
10
1.29787
20
0.882663
11
1.2941
21
0.881913
0
LINE
8
BLACK
6
CONTINUOUS
10
1.2941
20
0.881913
11
1.2567
21
0.881913
0
LINE
8
BLACK
6
CONTINUOUS
10
1.2567
20
0.881913
11
1.25293
21
0.882663
0
LINE
8
BLACK
6
CONTINUOUS
10
1.25293
20
0.882663
11
1.24974
21
0.884796
0
LINE
8
BLACK
6
CONTINUOUS
10
1.24974
20
0.884796
11
1.24761
21
0.887989
0
LINE
8
BLACK
6
CONTINUOUS
10
1.24761
20
0.887989
11
1.24686
21
0.891756
0
LINE
8
BLACK
6
CONTINUOUS
10
1.24686
20
0.891756
11
1.24686
21
0.911441
0
LINE
8
BLACK
6
CONTINUOUS
10
1.24686
20
0.911441
11
1.24761
21
0.915208
0
LINE
8
BLACK
6
CONTINUOUS
10
1.24761
20
0.915208
11
1.24974
21
0.918401
0
LINE
8
BLACK
6
CONTINUOUS
10
1.24974
20
0.918401
11
1.25293
21
0.920534
0
LINE
8
BLACK
6
CONTINUOUS
10
1.25293
20
0.920534
11
1.2567
21
0.921283
0
LINE
8
BLACK
6
CONTINUOUS
10
1.2567
20
0.921283
11
1.2941
21
0.921283
0
LINE
8
BLACK
6
CONTINUOUS
10
1.2941
20
0.921283
11
1.29787
21
0.920534
0
LINE
8
BLACK
6
CONTINUOUS
10
1.13387
20
0.921365
11
1.13706
21
0.919231
0
LINE
8
BLACK
6
CONTINUOUS
10
1.13706
20
0.919231
11
1.1392
21
0.916038
0
LINE
8
BLACK
6
CONTINUOUS
10
1.1392
20
0.916038
11
1.13994
21
0.912272
0
LINE
8
BLACK
6
CONTINUOUS
10
1.13994
20
0.912272
11
1.13994
21
0.892587
0
LINE
8
BLACK
6
CONTINUOUS
10
1.13994
20
0.892587
11
1.1392
21
0.88882
0
LINE
8
BLACK
6
CONTINUOUS
10
1.1392
20
0.88882
11
1.13706
21
0.885627
0
LINE
8
BLACK
6
CONTINUOUS
10
1.13706
20
0.885627
11
1.13387
21
0.883493
0
LINE
8
BLACK
6
CONTINUOUS
10
1.13387
20
0.883493
11
1.1301
21
0.882744
0
LINE
8
BLACK
6
CONTINUOUS
10
1.1301
20
0.882744
11
1.0927
21
0.882744
0
LINE
8
BLACK
6
CONTINUOUS
10
1.0927
20
0.882744
11
1.08893
21
0.883493
0
LINE
8
BLACK
6
CONTINUOUS
10
1.08893
20
0.883493
11
1.08574
21
0.885627
0
LINE
8
BLACK
6
CONTINUOUS
10
1.08574
20
0.885627
11
1.08361
21
0.88882
0
LINE
8
BLACK
6
CONTINUOUS
10
1.08361
20
0.88882
11
1.08286
21
0.892587
0
LINE
8
BLACK
6
CONTINUOUS
10
1.08286
20
0.892587
11
1.08286
21
0.912272
0
LINE
8
BLACK
6
CONTINUOUS
10
1.08286
20
0.912272
11
1.08361
21
0.916038
0
LINE
8
BLACK
6
CONTINUOUS
10
1.08361
20
0.916038
11
1.08574
21
0.919231
0
LINE
8
BLACK
6
CONTINUOUS
10
1.08574
20
0.919231
11
1.08893
21
0.921365
0
LINE
8
BLACK
6
CONTINUOUS
10
1.08893
20
0.921365
11
1.0927
21
0.922114
0
LINE
8
BLACK
6
CONTINUOUS
10
1.0927
20
0.922114
11
1.1301
21
0.922114
0
LINE
8
BLACK
6
CONTINUOUS
10
1.1301
20
0.922114
11
1.13387
21
0.921365
0
LINE
8
BLACK
6
CONTINUOUS
10
0.968869
20
0.921534
11
0.972062
21
0.919401
0
LINE
8
BLACK
6
CONTINUOUS
10
0.972062
20
0.919401
11
0.974196
21
0.916208
0
LINE
8
BLACK
6
CONTINUOUS
10
0.974196
20
0.916208
11
0.974945
21
0.912441
0
LINE
8
BLACK
6
CONTINUOUS
10
0.974945
20
0.912441
11
0.974945
21
0.892756
0
LINE
8
BLACK
6
CONTINUOUS
10
0.974945
20
0.892756
11
0.974196
21
0.888989
0
LINE
8
BLACK
6
CONTINUOUS
10
0.974196
20
0.888989
11
0.972062
21
0.885796
0
LINE
8
BLACK
6
CONTINUOUS
10
0.972062
20
0.885796
11
0.968869
21
0.883663
0
LINE
8
BLACK
6
CONTINUOUS
10
0.968869
20
0.883663
11
0.965102
21
0.882913
0
LINE
8
BLACK
6
CONTINUOUS
10
0.965102
20
0.882913
11
0.927701
21
0.882913
0
LINE
8
BLACK
6
CONTINUOUS
10
0.927701
20
0.882913
11
0.923934
21
0.883663
0
LINE
8
BLACK
6
CONTINUOUS
10
0.923934
20
0.883663
11
0.920741
21
0.885796
0
LINE
8
BLACK
6
CONTINUOUS
10
0.920741
20
0.885796
11
0.918607
21
0.888989
0
LINE
8
BLACK
6
CONTINUOUS
10
0.918607
20
0.888989
11
0.917858
21
0.892756
0
LINE
8
BLACK
6
CONTINUOUS
10
0.917858
20
0.892756
11
0.917858
21
0.912441
0
LINE
8
BLACK
6
CONTINUOUS
10
0.917858
20
0.912441
11
0.918607
21
0.916208
0
LINE
8
BLACK
6
CONTINUOUS
10
0.918607
20
0.916208
11
0.920741
21
0.919401
0
LINE
8
BLACK
6
CONTINUOUS
10
0.920741
20
0.919401
11
0.923934
21
0.921534
0
LINE
8
BLACK
6
CONTINUOUS
10
0.923934
20
0.921534
11
0.927701
21
0.922283
0
LINE
8
BLACK
6
CONTINUOUS
10
0.927701
20
0.922283
11
0.965102
21
0.922283
0
LINE
8
BLACK
6
CONTINUOUS
10
0.965102
20
0.922283
11
0.968869
21
0.921534
0
LINE
8
BLACK
6
CONTINUOUS
10
0.882991
20
1.00064
11
0.885785
21
0.998769
0
LINE
8
BLACK
6
CONTINUOUS
10
0.885785
20
0.998769
11
0.887652
21
0.995975
0
LINE
8
BLACK
6
CONTINUOUS
10
0.887652
20
0.995975
11
0.888307
21
0.992679
0
LINE
8
BLACK
6
CONTINUOUS
10
0.888307
20
0.992679
11
0.888307
21
0.962659
0
LINE
8
BLACK
6
CONTINUOUS
10
0.888307
20
0.962659
11
0.887652
21
0.959364
0
LINE
8
BLACK
6
CONTINUOUS
10
0.887652
20
0.959364
11
0.885785
21
0.95657
0
LINE
8
BLACK
6
CONTINUOUS
10
0.885785
20
0.95657
11
0.882991
21
0.954703
0
LINE
8
BLACK
6
CONTINUOUS
10
0.882991
20
0.954703
11
0.879695
21
0.954047
0
LINE
8
BLACK
6
CONTINUOUS
10
0.879695
20
0.954047
11
0.86247
21
0.954047
0
LINE
8
BLACK
6
CONTINUOUS
10
0.86247
20
0.954047
11
0.859175
21
0.954703
0
LINE
8
BLACK
6
CONTINUOUS
10
0.859175
20
0.954703
11
0.856381
21
0.95657
0
LINE
8
BLACK
6
CONTINUOUS
10
0.856381
20
0.95657
11
0.854514
21
0.959364
0
LINE
8
BLACK
6
CONTINUOUS
10
0.854514
20
0.959364
11
0.853858
21
0.962659
0
LINE
8
BLACK
6
CONTINUOUS
10
0.853858
20
0.962659
11
0.853858
21
0.992679
0
LINE
8
BLACK
6
CONTINUOUS
10
0.853858
20
0.992679
11
0.854514
21
0.995975
0
LINE
8
BLACK
6
CONTINUOUS
10
0.854514
20
0.995975
11
0.856381
21
0.998769
0
LINE
8
BLACK
6
CONTINUOUS
10
0.856381
20
0.998769
11
0.859175
21
1.00064
0
LINE
8
BLACK
6
CONTINUOUS
10
0.859175
20
1.00064
11
0.86247
21
1.00129
0
LINE
8
BLACK
6
CONTINUOUS
10
0.86247
20
1.00129
11
0.879695
21
1.00129
0
LINE
8
BLACK
6
CONTINUOUS
10
0.879695
20
1.00129
11
0.882991
21
1.00064
0
LINE
8
BLACK
6
CONTINUOUS
10
0.799329
20
1.00064
11
0.802123
21
0.998769
0
LINE
8
BLACK
6
CONTINUOUS
10
0.802123
20
0.998769
11
0.80399
21
0.995975
0
LINE
8
BLACK
6
CONTINUOUS
10
0.80399
20
0.995975
11
0.804646
21
0.992679
0
LINE
8
BLACK
6
CONTINUOUS
10
0.804646
20
0.992679
11
0.804646
21
0.962659
0
LINE
8
BLACK
6
CONTINUOUS
10
0.804646
20
0.962659
11
0.80399
21
0.959364
0
LINE
8
BLACK
6
CONTINUOUS
10
0.80399
20
0.959364
11
0.802123
21
0.95657
0
LINE
8
BLACK
6
CONTINUOUS
10
0.802123
20
0.95657
11
0.799329
21
0.954703
0
LINE
8
BLACK
6
CONTINUOUS
10
0.799329
20
0.954703
11
0.796033
21
0.954047
0
LINE
8
BLACK
6
CONTINUOUS
10
0.796033
20
0.954047
11
0.778809
21
0.954047
0
LINE
8
BLACK
6
CONTINUOUS
10
0.778809
20
0.954047
11
0.775513
21
0.954703
0
LINE
8
BLACK
6
CONTINUOUS
10
0.775513
20
0.954703
11
0.772719
21
0.95657
0
LINE
8
BLACK
6
CONTINUOUS
10
0.772719
20
0.95657
11
0.770852
21
0.959364
0
LINE
8
BLACK
6
CONTINUOUS
10
0.770852
20
0.959364
11
0.770197
21
0.962659
0
LINE
8
BLACK
6
CONTINUOUS
10
0.770197
20
0.962659
11
0.770197
21
0.992679
0
LINE
8
BLACK
6
CONTINUOUS
10
0.770197
20
0.992679
11
0.770852
21
0.995975
0
LINE
8
BLACK
6
CONTINUOUS
10
0.770852
20
0.995975
11
0.772719
21
0.998769
0
LINE
8
BLACK
6
CONTINUOUS
10
0.772719
20
0.998769
11
0.775513
21
1.00064
0
LINE
8
BLACK
6
CONTINUOUS
10
0.775513
20
1.00064
11
0.778809
21
1.00129
0
LINE
8
BLACK
6
CONTINUOUS
10
0.778809
20
1.00129
11
0.796033
21
1.00129
0
LINE
8
BLACK
6
CONTINUOUS
10
0.796033
20
1.00129
11
0.799329
21
1.00064
0
LINE
8
BLACK
6
CONTINUOUS
10
0.657629
20
1.01146
11
0.660822
21
1.00933
0
LINE
8
BLACK
6
CONTINUOUS
10
0.660822
20
1.00933
11
0.662956
21
1.00614
0
LINE
8
BLACK
6
CONTINUOUS
10
0.662956
20
1.00614
11
0.663705
21
1.00237
0
LINE
8
BLACK
6
CONTINUOUS
10
0.663705
20
1.00237
11
0.663705
21
0.964969
0
LINE
8
BLACK
6
CONTINUOUS
10
0.663705
20
0.964969
11
0.662956
21
0.961202
0
LINE
8
BLACK
6
CONTINUOUS
10
0.662956
20
0.961202
11
0.660822
21
0.958009
0
LINE
8
BLACK
6
CONTINUOUS
10
0.660822
20
0.958009
11
0.657629
21
0.955875
0
LINE
8
BLACK
6
CONTINUOUS
10
0.657629
20
0.955875
11
0.653862
21
0.955126
0
LINE
8
BLACK
6
CONTINUOUS
10
0.653862
20
0.955126
11
0.634177
21
0.955126
0
LINE
8
BLACK
6
CONTINUOUS
10
0.634177
20
0.955126
11
0.630411
21
0.955875
0
LINE
8
BLACK
6
CONTINUOUS
10
0.630411
20
0.955875
11
0.627217
21
0.958009
0
LINE
8
BLACK
6
CONTINUOUS
10
0.627217
20
0.958009
11
0.625084
21
0.961202
0
LINE
8
BLACK
6
CONTINUOUS
10
0.625084
20
0.961202
11
0.624335
21
0.964969
0
LINE
8
BLACK
6
CONTINUOUS
10
0.624335
20
0.964969
11
0.624335
21
1.00237
0
LINE
8
BLACK
6
CONTINUOUS
10
0.624335
20
1.00237
11
0.625084
21
1.00614
0
LINE
8
BLACK
6
CONTINUOUS
10
0.625084
20
1.00614
11
0.627217
21
1.00933
0
LINE
8
BLACK
6
CONTINUOUS
10
0.627217
20
1.00933
11
0.630411
21
1.01146
0
LINE
8
BLACK
6
CONTINUOUS
10
0.630411
20
1.01146
11
0.634177
21
1.01221
0
LINE
8
BLACK
6
CONTINUOUS
10
0.634177
20
1.01221
11
0.653862
21
1.01221
0
LINE
8
BLACK
6
CONTINUOUS
10
0.653862
20
1.01221
11
0.657629
21
1.01146
0
LINE
8
BLACK
6
CONTINUOUS
10
0.732432
20
1.01146
11
0.735625
21
1.00933
0
LINE
8
BLACK
6
CONTINUOUS
10
0.735625
20
1.00933
11
0.737759
21
1.00614
0
LINE
8
BLACK
6
CONTINUOUS
10
0.737759
20
1.00614
11
0.738508
21
1.00237
0
LINE
8
BLACK
6
CONTINUOUS
10
0.738508
20
1.00237
11
0.738508
21
0.964969
0
LINE
8
BLACK
6
CONTINUOUS
10
0.738508
20
0.964969
11
0.737759
21
0.961202
0
LINE
8
BLACK
6
CONTINUOUS
10
0.737759
20
0.961202
11
0.735625
21
0.958009
0
LINE
8
BLACK
6
CONTINUOUS
10
0.735625
20
0.958009
11
0.732432
21
0.955875
0
LINE
8
BLACK
6
CONTINUOUS
10
0.732432
20
0.955875
11
0.728665
21
0.955126
0
LINE
8
BLACK
6
CONTINUOUS
10
0.728665
20
0.955126
11
0.70898
21
0.955126
0
LINE
8
BLACK
6
CONTINUOUS
10
0.70898
20
0.955126
11
0.705214
21
0.955875
0
LINE
8
BLACK
6
CONTINUOUS
10
0.705214
20
0.955875
11
0.702021
21
0.958009
0
LINE
8
BLACK
6
CONTINUOUS
10
0.702021
20
0.958009
11
0.699887
21
0.961202
0
LINE
8
BLACK
6
CONTINUOUS
10
0.699887
20
0.961202
11
0.699138
21
0.964969
0
LINE
8
BLACK
6
CONTINUOUS
10
0.699138
20
0.964969
11
0.699138
21
1.00237
0
LINE
8
BLACK
6
CONTINUOUS
10
0.699138
20
1.00237
11
0.699887
21
1.00614
0
LINE
8
BLACK
6
CONTINUOUS
10
0.699887
20
1.00614
11
0.702021
21
1.00933
0
LINE
8
BLACK
6
CONTINUOUS
10
0.702021
20
1.00933
11
0.705214
21
1.01146
0
LINE
8
BLACK
6
CONTINUOUS
10
0.705214
20
1.01146
11
0.70898
21
1.01221
0
LINE
8
BLACK
6
CONTINUOUS
10
0.70898
20
1.01221
11
0.728665
21
1.01221
0
LINE
8
BLACK
6
CONTINUOUS
10
0.728665
20
1.01221
11
0.732432
21
1.01146
0
LINE
8
BLACK
6
CONTINUOUS
10
1.43748
20
1.00197
11
1.44027
21
1.0001
0
LINE
8
BLACK
6
CONTINUOUS
10
1.44027
20
1.0001
11
1.44214
21
0.997306
0
LINE
8
BLACK
6
CONTINUOUS
10
1.44214
20
0.997306
11
1.4428
21
0.99401
0
LINE
8
BLACK
6
CONTINUOUS
10
1.4428
20
0.99401
11
1.4428
21
0.96399
0
LINE
8
BLACK
6
CONTINUOUS
10
1.4428
20
0.96399
11
1.44214
21
0.960694
0
LINE
8
BLACK
6
CONTINUOUS
10
1.44214
20
0.960694
11
1.44027
21
0.9579
0
LINE
8
BLACK
6
CONTINUOUS
10
1.44027
20
0.9579
11
1.43748
21
0.956034
0
LINE
8
BLACK
6
CONTINUOUS
10
1.43748
20
0.956034
11
1.43418
21
0.955378
0
LINE
8
BLACK
6
CONTINUOUS
10
1.43418
20
0.955378
11
1.41696
21
0.955378
0
LINE
8
BLACK
6
CONTINUOUS
10
1.41696
20
0.955378
11
1.41366
21
0.956034
0
LINE
8
BLACK
6
CONTINUOUS
10
1.41366
20
0.956034
11
1.41087
21
0.9579
0
LINE
8
BLACK
6
CONTINUOUS
10
1.41087
20
0.9579
11
1.409
21
0.960694
0
LINE
8
BLACK
6
CONTINUOUS
10
1.409
20
0.960694
11
1.40835
21
0.96399
0
LINE
8
BLACK
6
CONTINUOUS
10
1.40835
20
0.96399
11
1.40835
21
0.99401
0
LINE
8
BLACK
6
CONTINUOUS
10
1.40835
20
0.99401
11
1.409
21
0.997306
0
LINE
8
BLACK
6
CONTINUOUS
10
1.409
20
0.997306
11
1.41087
21
1.0001
0
LINE
8
BLACK
6
CONTINUOUS
10
1.41087
20
1.0001
11
1.41366
21
1.00197
0
LINE
8
BLACK
6
CONTINUOUS
10
1.41366
20
1.00197
11
1.41696
21
1.00262
0
LINE
8
BLACK
6
CONTINUOUS
10
1.41696
20
1.00262
11
1.43418
21
1.00262
0
LINE
8
BLACK
6
CONTINUOUS
10
1.43418
20
1.00262
11
1.43748
21
1.00197
0
LINE
8
BLACK
6
CONTINUOUS
10
1.52114
20
1.00197
11
1.52393
21
1.0001
0
LINE
8
BLACK
6
CONTINUOUS
10
1.52393
20
1.0001
11
1.5258
21
0.997306
0
LINE
8
BLACK
6
CONTINUOUS
10
1.5258
20
0.997306
11
1.52646
21
0.99401
0
LINE
8
BLACK
6
CONTINUOUS
10
1.52646
20
0.99401
11
1.52646
21
0.96399
0
LINE
8
BLACK
6
CONTINUOUS
10
1.52646
20
0.96399
11
1.5258
21
0.960694
0
LINE
8
BLACK
6
CONTINUOUS
10
1.5258
20
0.960694
11
1.52393
21
0.9579
0
LINE
8
BLACK
6
CONTINUOUS
10
1.52393
20
0.9579
11
1.52114
21
0.956034
0
LINE
8
BLACK
6
CONTINUOUS
10
1.52114
20
0.956034
11
1.51784
21
0.955378
0
LINE
8
BLACK
6
CONTINUOUS
10
1.51784
20
0.955378
11
1.50062
21
0.955378
0
LINE
8
BLACK
6
CONTINUOUS
10
1.50062
20
0.955378
11
1.49732
21
0.956034
0
LINE
8
BLACK
6
CONTINUOUS
10
1.49732
20
0.956034
11
1.49453
21
0.9579
0
LINE
8
BLACK
6
CONTINUOUS
10
1.49453
20
0.9579
11
1.49266
21
0.960694
0
LINE
8
BLACK
6
CONTINUOUS
10
1.49266
20
0.960694
11
1.49201
21
0.96399
0
LINE
8
BLACK
6
CONTINUOUS
10
1.49201
20
0.96399
11
1.49201
21
0.99401
0
LINE
8
BLACK
6
CONTINUOUS
10
1.49201
20
0.99401
11
1.49266
21
0.997306
0
LINE
8
BLACK
6
CONTINUOUS
10
1.49266
20
0.997306
11
1.49453
21
1.0001
0
LINE
8
BLACK
6
CONTINUOUS
10
1.49453
20
1.0001
11
1.49732
21
1.00197
0
LINE
8
BLACK
6
CONTINUOUS
10
1.49732
20
1.00197
11
1.50062
21
1.00262
0
LINE
8
BLACK
6
CONTINUOUS
10
1.50062
20
1.00262
11
1.51784
21
1.00262
0
LINE
8
BLACK
6
CONTINUOUS
10
1.51784
20
1.00262
11
1.52114
21
1.00197
0
LINE
8
BLACK
6
CONTINUOUS
10
1.66441
20
1.01279
11
1.66761
21
1.01066
0
LINE
8
BLACK
6
CONTINUOUS
10
1.66761
20
1.01066
11
1.66974
21
1.00747
0
LINE
8
BLACK
6
CONTINUOUS
10
1.66974
20
1.00747
11
1.67049
21
1.0037
0
LINE
8
BLACK
6
CONTINUOUS
10
1.67049
20
1.0037
11
1.67049
21
0.966299
0
LINE
8
BLACK
6
CONTINUOUS
10
1.67049
20
0.966299
11
1.66974
21
0.962533
0
LINE
8
BLACK
6
CONTINUOUS
10
1.66974
20
0.962533
11
1.66761
21
0.959339
0
LINE
8
BLACK
6
CONTINUOUS
10
1.66761
20
0.959339
11
1.66441
21
0.957206
0
LINE
8
BLACK
6
CONTINUOUS
10
1.66441
20
0.957206
11
1.66065
21
0.956457
0
LINE
8
BLACK
6
CONTINUOUS
10
1.66065
20
0.956457
11
1.64096
21
0.956457
0
LINE
8
BLACK
6
CONTINUOUS
10
1.64096
20
0.956457
11
1.63719
21
0.957206
0
LINE
8
BLACK
6
CONTINUOUS
10
1.63719
20
0.957206
11
1.634
21
0.959339
0
LINE
8
BLACK
6
CONTINUOUS
10
1.634
20
0.959339
11
1.63187
21
0.962533
0
LINE
8
BLACK
6
CONTINUOUS
10
1.63187
20
0.962533
11
1.63112
21
0.966299
0
LINE
8
BLACK
6
CONTINUOUS
10
1.63112
20
0.966299
11
1.63112
21
1.0037
0
LINE
8
BLACK
6
CONTINUOUS
10
1.63112
20
1.0037
11
1.63187
21
1.00747
0
LINE
8
BLACK
6
CONTINUOUS
10
1.63187
20
1.00747
11
1.634
21
1.01066
0
LINE
8
BLACK
6
CONTINUOUS
10
1.634
20
1.01066
11
1.63719
21
1.01279
0
LINE
8
BLACK
6
CONTINUOUS
10
1.63719
20
1.01279
11
1.64096
21
1.01354
0
LINE
8
BLACK
6
CONTINUOUS
10
1.64096
20
1.01354
11
1.66065
21
1.01354
0
LINE
8
BLACK
6
CONTINUOUS
10
1.66065
20
1.01354
11
1.66441
21
1.01279
0
LINE
8
BLACK
6
CONTINUOUS
10
1.58961
20
1.01279
11
1.5928
21
1.01066
0
LINE
8
BLACK
6
CONTINUOUS
10
1.5928
20
1.01066
11
1.59494
21
1.00747
0
LINE
8
BLACK
6
CONTINUOUS
10
1.59494
20
1.00747
11
1.59569
21
1.0037
0
LINE
8
BLACK
6
CONTINUOUS
10
1.59569
20
1.0037
11
1.59569
21
0.966299
0
LINE
8
BLACK
6
CONTINUOUS
10
1.59569
20
0.966299
11
1.59494
21
0.962533
0
LINE
8
BLACK
6
CONTINUOUS
10
1.59494
20
0.962533
11
1.5928
21
0.959339
0
LINE
8
BLACK
6
CONTINUOUS
10
1.5928
20
0.959339
11
1.58961
21
0.957206
0
LINE
8
BLACK
6
CONTINUOUS
10
1.58961
20
0.957206
11
1.58584
21
0.956457
0
LINE
8
BLACK
6
CONTINUOUS
10
1.58584
20
0.956457
11
1.56616
21
0.956457
0
LINE
8
BLACK
6
CONTINUOUS
10
1.56616
20
0.956457
11
1.56239
21
0.957206
0
LINE
8
BLACK
6
CONTINUOUS
10
1.56239
20
0.957206
11
1.5592
21
0.959339
0
LINE
8
BLACK
6
CONTINUOUS
10
1.5592
20
0.959339
11
1.55706
21
0.962533
0
LINE
8
BLACK
6
CONTINUOUS
10
1.55706
20
0.962533
11
1.55631
21
0.966299
0
LINE
8
BLACK
6
CONTINUOUS
10
1.55631
20
0.966299
11
1.55631
21
1.0037
0
LINE
8
BLACK
6
CONTINUOUS
10
1.55631
20
1.0037
11
1.55706
21
1.00747
0
LINE
8
BLACK
6
CONTINUOUS
10
1.55706
20
1.00747
11
1.5592
21
1.01066
0
LINE
8
BLACK
6
CONTINUOUS
10
1.5592
20
1.01066
11
1.56239
21
1.01279
0
LINE
8
BLACK
6
CONTINUOUS
10
1.56239
20
1.01279
11
1.56616
21
1.01354
0
LINE
8
BLACK
6
CONTINUOUS
10
1.56616
20
1.01354
11
1.58584
21
1.01354
0
LINE
8
BLACK
6
CONTINUOUS
10
1.58584
20
1.01354
11
1.58961
21
1.01279
0
LINE
8
BLACK
6
CONTINUOUS
10
1.29787
20
0.995337
11
1.30106
21
0.993204
0
LINE
8
BLACK
6
CONTINUOUS
10
1.30106
20
0.993204
11
1.3032
21
0.990011
0
LINE
8
BLACK
6
CONTINUOUS
10
1.3032
20
0.990011
11
1.30394
21
0.986244
0
LINE
8
BLACK
6
CONTINUOUS
10
1.30394
20
0.986244
11
1.30394
21
0.966559
0
LINE
8
BLACK
6
CONTINUOUS
10
1.30394
20
0.966559
11
1.3032
21
0.962792
0
LINE
8
BLACK
6
CONTINUOUS
10
1.3032
20
0.962792
11
1.30106
21
0.959599
0
LINE
8
BLACK
6
CONTINUOUS
10
1.30106
20
0.959599
11
1.29787
21
0.957466
0
LINE
8
BLACK
6
CONTINUOUS
10
1.29787
20
0.957466
11
1.2941
21
0.956717
0
LINE
8
BLACK
6
CONTINUOUS
10
1.2941
20
0.956717
11
1.2567
21
0.956717
0
LINE
8
BLACK
6
CONTINUOUS
10
1.2567
20
0.956717
11
1.25293
21
0.957466
0
LINE
8
BLACK
6
CONTINUOUS
10
1.25293
20
0.957466
11
1.24974
21
0.959599
0
LINE
8
BLACK
6
CONTINUOUS
10
1.24974
20
0.959599
11
1.24761
21
0.962792
0
LINE
8
BLACK
6
CONTINUOUS
10
1.24761
20
0.962792
11
1.24686
21
0.966559
0
LINE
8
BLACK
6
CONTINUOUS
10
1.24686
20
0.966559
11
1.24686
21
0.986244
0
LINE
8
BLACK
6
CONTINUOUS
10
1.24686
20
0.986244
11
1.24761
21
0.990011
0
LINE
8
BLACK
6
CONTINUOUS
10
1.24761
20
0.990011
11
1.24974
21
0.993204
0
LINE
8
BLACK
6
CONTINUOUS
10
1.24974
20
0.993204
11
1.25293
21
0.995337
0
LINE
8
BLACK
6
CONTINUOUS
10
1.25293
20
0.995337
11
1.2567
21
0.996087
0
LINE
8
BLACK
6
CONTINUOUS
10
1.2567
20
0.996087
11
1.2941
21
0.996087
0
LINE
8
BLACK
6
CONTINUOUS
10
1.2941
20
0.996087
11
1.29787
21
0.995337
0
LINE
8
BLACK
6
CONTINUOUS
10
1.13387
20
0.996168
11
1.13706
21
0.994035
0
LINE
8
BLACK
6
CONTINUOUS
10
1.13706
20
0.994035
11
1.1392
21
0.990841
0
LINE
8
BLACK
6
CONTINUOUS
10
1.1392
20
0.990841
11
1.13994
21
0.987075
0
LINE
8
BLACK
6
CONTINUOUS
10
1.13994
20
0.987075
11
1.13994
21
0.96739
0
LINE
8
BLACK
6
CONTINUOUS
10
1.13994
20
0.96739
11
1.1392
21
0.963623
0
LINE
8
BLACK
6
CONTINUOUS
10
1.1392
20
0.963623
11
1.13706
21
0.96043
0
LINE
8
BLACK
6
CONTINUOUS
10
1.13706
20
0.96043
11
1.13387
21
0.958296
0
LINE
8
BLACK
6
CONTINUOUS
10
1.13387
20
0.958296
11
1.1301
21
0.957547
0
LINE
8
BLACK
6
CONTINUOUS
10
1.1301
20
0.957547
11
1.0927
21
0.957547
0
LINE
8
BLACK
6
CONTINUOUS
10
1.0927
20
0.957547
11
1.08893
21
0.958296
0
LINE
8
BLACK
6
CONTINUOUS
10
1.08893
20
0.958296
11
1.08574
21
0.96043
0
LINE
8
BLACK
6
CONTINUOUS
10
1.08574
20
0.96043
11
1.08361
21
0.963623
0
LINE
8
BLACK
6
CONTINUOUS
10
1.08361
20
0.963623
11
1.08286
21
0.96739
0
LINE
8
BLACK
6
CONTINUOUS
10
1.08286
20
0.96739
11
1.08286
21
0.987075
0
LINE
8
BLACK
6
CONTINUOUS
10
1.08286
20
0.987075
11
1.08361
21
0.990841
0
LINE
8
BLACK
6
CONTINUOUS
10
1.08361
20
0.990841
11
1.08574
21
0.994035
0
LINE
8
BLACK
6
CONTINUOUS
10
1.08574
20
0.994035
11
1.08893
21
0.996168
0
LINE
8
BLACK
6
CONTINUOUS
10
1.08893
20
0.996168
11
1.0927
21
0.996917
0
LINE
8
BLACK
6
CONTINUOUS
10
1.0927
20
0.996917
11
1.1301
21
0.996917
0
LINE
8
BLACK
6
CONTINUOUS
10
1.1301
20
0.996917
11
1.13387
21
0.996168
0
LINE
8
BLACK
6
CONTINUOUS
10
0.968869
20
0.996337
11
0.972062
21
0.994204
0
LINE
8
BLACK
6
CONTINUOUS
10
0.972062
20
0.994204
11
0.974196
21
0.991011
0
LINE
8
BLACK
6
CONTINUOUS
10
0.974196
20
0.991011
11
0.974945
21
0.987244
0
LINE
8
BLACK
6
CONTINUOUS
10
0.974945
20
0.987244
11
0.974945
21
0.967559
0
LINE
8
BLACK
6
CONTINUOUS
10
0.974945
20
0.967559
11
0.974196
21
0.963792
0
LINE
8
BLACK
6
CONTINUOUS
10
0.974196
20
0.963792
11
0.972062
21
0.960599
0
LINE
8
BLACK
6
CONTINUOUS
10
0.972062
20
0.960599
11
0.968869
21
0.958466
0
LINE
8
BLACK
6
CONTINUOUS
10
0.968869
20
0.958466
11
0.965102
21
0.957717
0
LINE
8
BLACK
6
CONTINUOUS
10
0.965102
20
0.957717
11
0.927701
21
0.957717
0
LINE
8
BLACK
6
CONTINUOUS
10
0.927701
20
0.957717
11
0.923934
21
0.958466
0
LINE
8
BLACK
6
CONTINUOUS
10
0.923934
20
0.958466
11
0.920741
21
0.960599
0
LINE
8
BLACK
6
CONTINUOUS
10
0.920741
20
0.960599
11
0.918607
21
0.963792
0
LINE
8
BLACK
6
CONTINUOUS
10
0.918607
20
0.963792
11
0.917858
21
0.967559
0
LINE
8
BLACK
6
CONTINUOUS
10
0.917858
20
0.967559
11
0.917858
21
0.987244
0
LINE
8
BLACK
6
CONTINUOUS
10
0.917858
20
0.987244
11
0.918607
21
0.991011
0
LINE
8
BLACK
6
CONTINUOUS
10
0.918607
20
0.991011
11
0.920741
21
0.994204
0
LINE
8
BLACK
6
CONTINUOUS
10
0.920741
20
0.994204
11
0.923934
21
0.996337
0
LINE
8
BLACK
6
CONTINUOUS
10
0.923934
20
0.996337
11
0.927701
21
0.997087
0
LINE
8
BLACK
6
CONTINUOUS
10
0.927701
20
0.997087
11
0.965102
21
0.997087
0
LINE
8
BLACK
6
CONTINUOUS
10
0.965102
20
0.997087
11
0.968869
21
0.996337
0
LINE
8
BLACK
6
CONTINUOUS
10
1.37371
20
0.9974
11
1.3765
21
0.995533
0
LINE
8
BLACK
6
CONTINUOUS
10
1.3765
20
0.995533
11
1.37837
21
0.992739
0
LINE
8
BLACK
6
CONTINUOUS
10
1.37837
20
0.992739
11
1.37902
21
0.989443
0
LINE
8
BLACK
6
CONTINUOUS
10
1.37902
20
0.989443
11
1.37902
21
0.972219
0
LINE
8
BLACK
6
CONTINUOUS
10
1.37902
20
0.972219
11
1.37837
21
0.968923
0
LINE
8
BLACK
6
CONTINUOUS
10
1.37837
20
0.968923
11
1.3765
21
0.966129
0
LINE
8
BLACK
6
CONTINUOUS
10
1.3765
20
0.966129
11
1.37371
21
0.964262
0
LINE
8
BLACK
6
CONTINUOUS
10
1.37371
20
0.964262
11
1.37041
21
0.963606
0
LINE
8
BLACK
6
CONTINUOUS
10
1.37041
20
0.963606
11
1.34039
21
0.963606
0
LINE
8
BLACK
6
CONTINUOUS
10
1.34039
20
0.963606
11
1.3371
21
0.964262
0
LINE
8
BLACK
6
CONTINUOUS
10
1.3371
20
0.964262
11
1.3343
21
0.966129
0
LINE
8
BLACK
6
CONTINUOUS
10
1.3343
20
0.966129
11
1.33244
21
0.968923
0
LINE
8
BLACK
6
CONTINUOUS
10
1.33244
20
0.968923
11
1.33178
21
0.972219
0
LINE
8
BLACK
6
CONTINUOUS
10
1.33178
20
0.972219
11
1.33178
21
0.989443
0
LINE
8
BLACK
6
CONTINUOUS
10
1.33178
20
0.989443
11
1.33244
21
0.992739
0
LINE
8
BLACK
6
CONTINUOUS
10
1.33244
20
0.992739
11
1.3343
21
0.995533
0
LINE
8
BLACK
6
CONTINUOUS
10
1.3343
20
0.995533
11
1.3371
21
0.9974
0
LINE
8
BLACK
6
CONTINUOUS
10
1.3371
20
0.9974
11
1.34039
21
0.998055
0
LINE
8
BLACK
6
CONTINUOUS
10
1.34039
20
0.998055
11
1.37041
21
0.998055
0
LINE
8
BLACK
6
CONTINUOUS
10
1.37041
20
0.998055
11
1.37371
21
0.9974
0
LINE
8
BLACK
6
CONTINUOUS
10
1.20971
20
0.99823
11
1.2125
21
0.996363
0
LINE
8
BLACK
6
CONTINUOUS
10
1.2125
20
0.996363
11
1.21437
21
0.993569
0
LINE
8
BLACK
6
CONTINUOUS
10
1.21437
20
0.993569
11
1.21502
21
0.990274
0
LINE
8
BLACK
6
CONTINUOUS
10
1.21502
20
0.990274
11
1.21502
21
0.973049
0
LINE
8
BLACK
6
CONTINUOUS
10
1.21502
20
0.973049
11
1.21437
21
0.969753
0
LINE
8
BLACK
6
CONTINUOUS
10
1.21437
20
0.969753
11
1.2125
21
0.966959
0
LINE
8
BLACK
6
CONTINUOUS
10
1.2125
20
0.966959
11
1.20971
21
0.965093
0
LINE
8
BLACK
6
CONTINUOUS
10
1.20971
20
0.965093
11
1.20641
21
0.964437
0
LINE
8
BLACK
6
CONTINUOUS
10
1.20641
20
0.964437
11
1.17639
21
0.964437
0
LINE
8
BLACK
6
CONTINUOUS
10
1.17639
20
0.964437
11
1.1731
21
0.965093
0
LINE
8
BLACK
6
CONTINUOUS
10
1.1731
20
0.965093
11
1.1703
21
0.966959
0
LINE
8
BLACK
6
CONTINUOUS
10
1.1703
20
0.966959
11
1.16844
21
0.969753
0
LINE
8
BLACK
6
CONTINUOUS
10
1.16844
20
0.969753
11
1.16778
21
0.973049
0
LINE
8
BLACK
6
CONTINUOUS
10
1.16778
20
0.973049
11
1.16778
21
0.990274
0
LINE
8
BLACK
6
CONTINUOUS
10
1.16778
20
0.990274
11
1.16844
21
0.993569
0
LINE
8
BLACK
6
CONTINUOUS
10
1.16844
20
0.993569
11
1.1703
21
0.996363
0
LINE
8
BLACK
6
CONTINUOUS
10
1.1703
20
0.996363
11
1.1731
21
0.99823
0
LINE
8
BLACK
6
CONTINUOUS
10
1.1731
20
0.99823
11
1.17639
21
0.998886
0
LINE
8
BLACK
6
CONTINUOUS
10
1.17639
20
0.998886
11
1.20641
21
0.998886
0
LINE
8
BLACK
6
CONTINUOUS
10
1.20641
20
0.998886
11
1.20971
21
0.99823
0
LINE
8
BLACK
6
CONTINUOUS
10
1.04471
20
0.9984
11
1.0475
21
0.996533
0
LINE
8
BLACK
6
CONTINUOUS
10
1.0475
20
0.996533
11
1.04937
21
0.993739
0
LINE
8
BLACK
6
CONTINUOUS
10
1.04937
20
0.993739
11
1.05002
21
0.990443
0
LINE
8
BLACK
6
CONTINUOUS
10
1.05002
20
0.990443
11
1.05002
21
0.973219
0
LINE
8
BLACK
6
CONTINUOUS
10
1.05002
20
0.973219
11
1.04937
21
0.969923
0
LINE
8
BLACK
6
CONTINUOUS
10
1.04937
20
0.969923
11
1.0475
21
0.967129
0
LINE
8
BLACK
6
CONTINUOUS
10
1.0475
20
0.967129
11
1.04471
21
0.965262
0
LINE
8
BLACK
6
CONTINUOUS
10
1.04471
20
0.965262
11
1.04141
21
0.964606
0
LINE
8
BLACK
6
CONTINUOUS
10
1.04141
20
0.964606
11
1.01139
21
0.964606
0
LINE
8
BLACK
6
CONTINUOUS
10
1.01139
20
0.964606
11
1.0081
21
0.965262
0
LINE
8
BLACK
6
CONTINUOUS
10
1.0081
20
0.965262
11
1.0053
21
0.967129
0
LINE
8
BLACK
6
CONTINUOUS
10
1.0053
20
0.967129
11
1.00344
21
0.969923
0
LINE
8
BLACK
6
CONTINUOUS
10
1.00344
20
0.969923
11
1.00278
21
0.973219
0
LINE
8
BLACK
6
CONTINUOUS
10
1.00278
20
0.973219
11
1.00278
21
0.990443
0
LINE
8
BLACK
6
CONTINUOUS
10
1.00278
20
0.990443
11
1.00344
21
0.993739
0
LINE
8
BLACK
6
CONTINUOUS
10
1.00344
20
0.993739
11
1.0053
21
0.996533
0
LINE
8
BLACK
6
CONTINUOUS
10
1.0053
20
0.996533
11
1.0081
21
0.9984
0
LINE
8
BLACK
6
CONTINUOUS
10
1.0081
20
0.9984
11
1.01139
21
0.999055
0
LINE
8
BLACK
6
CONTINUOUS
10
1.01139
20
0.999055
11
1.04141
21
0.999055
0
LINE
8
BLACK
6
CONTINUOUS
10
1.04141
20
0.999055
11
1.04471
21
0.9984
0
LINE
8
BLACK
6
CONTINUOUS
10
1.03848
20
1.07397
11
1.04127
21
1.0721
0
LINE
8
BLACK
6
CONTINUOUS
10
1.04127
20
1.0721
11
1.04314
21
1.06931
0
LINE
8
BLACK
6
CONTINUOUS
10
1.04314
20
1.06931
11
1.0438
21
1.06601
0
LINE
8
BLACK
6
CONTINUOUS
10
1.0438
20
1.06601
11
1.0438
21
1.03599
0
LINE
8
BLACK
6
CONTINUOUS
10
1.0438
20
1.03599
11
1.04314
21
1.03269
0
LINE
8
BLACK
6
CONTINUOUS
10
1.04314
20
1.03269
11
1.04127
21
1.0299
0
LINE
8
BLACK
6
CONTINUOUS
10
1.04127
20
1.0299
11
1.03848
21
1.02803
0
LINE
8
BLACK
6
CONTINUOUS
10
1.03848
20
1.02803
11
1.03518
21
1.02738
0
LINE
8
BLACK
6
CONTINUOUS
10
1.03518
20
1.02738
11
1.01796
21
1.02738
0
LINE
8
BLACK
6
CONTINUOUS
10
1.01796
20
1.02738
11
1.01466
21
1.02803
0
LINE
8
BLACK
6
CONTINUOUS
10
1.01466
20
1.02803
11
1.01187
21
1.0299
0
LINE
8
BLACK
6
CONTINUOUS
10
1.01187
20
1.0299
11
1.01
21
1.03269
0
LINE
8
BLACK
6
CONTINUOUS
10
1.01
20
1.03269
11
1.00935
21
1.03599
0
LINE
8
BLACK
6
CONTINUOUS
10
1.00935
20
1.03599
11
1.00935
21
1.06601
0
LINE
8
BLACK
6
CONTINUOUS
10
1.00935
20
1.06601
11
1.01
21
1.06931
0
LINE
8
BLACK
6
CONTINUOUS
10
1.01
20
1.06931
11
1.01187
21
1.0721
0
LINE
8
BLACK
6
CONTINUOUS
10
1.01187
20
1.0721
11
1.01466
21
1.07397
0
LINE
8
BLACK
6
CONTINUOUS
10
1.01466
20
1.07397
11
1.01796
21
1.07462
0
LINE
8
BLACK
6
CONTINUOUS
10
1.01796
20
1.07462
11
1.03518
21
1.07462
0
LINE
8
BLACK
6
CONTINUOUS
10
1.03518
20
1.07462
11
1.03848
21
1.07397
0
LINE
8
BLACK
6
CONTINUOUS
10
1.12214
20
1.07397
11
1.12493
21
1.0721
0
LINE
8
BLACK
6
CONTINUOUS
10
1.12493
20
1.0721
11
1.1268
21
1.06931
0
LINE
8
BLACK
6
CONTINUOUS
10
1.1268
20
1.06931
11
1.12746
21
1.06601
0
LINE
8
BLACK
6
CONTINUOUS
10
1.12746
20
1.06601
11
1.12746
21
1.03599
0
LINE
8
BLACK
6
CONTINUOUS
10
1.12746
20
1.03599
11
1.1268
21
1.03269
0
LINE
8
BLACK
6
CONTINUOUS
10
1.1268
20
1.03269
11
1.12493
21
1.0299
0
LINE
8
BLACK
6
CONTINUOUS
10
1.12493
20
1.0299
11
1.12214
21
1.02803
0
LINE
8
BLACK
6
CONTINUOUS
10
1.12214
20
1.02803
11
1.11884
21
1.02738
0
LINE
8
BLACK
6
CONTINUOUS
10
1.11884
20
1.02738
11
1.10162
21
1.02738
0
LINE
8
BLACK
6
CONTINUOUS
10
1.10162
20
1.02738
11
1.09832
21
1.02803
0
LINE
8
BLACK
6
CONTINUOUS
10
1.09832
20
1.02803
11
1.09553
21
1.0299
0
LINE
8
BLACK
6
CONTINUOUS
10
1.09553
20
1.0299
11
1.09366
21
1.03269
0
LINE
8
BLACK
6
CONTINUOUS
10
1.09366
20
1.03269
11
1.09301
21
1.03599
0
LINE
8
BLACK
6
CONTINUOUS
10
1.09301
20
1.03599
11
1.09301
21
1.06601
0
LINE
8
BLACK
6
CONTINUOUS
10
1.09301
20
1.06601
11
1.09366
21
1.06931
0
LINE
8
BLACK
6
CONTINUOUS
10
1.09366
20
1.06931
11
1.09553
21
1.0721
0
LINE
8
BLACK
6
CONTINUOUS
10
1.09553
20
1.0721
11
1.09832
21
1.07397
0
LINE
8
BLACK
6
CONTINUOUS
10
1.09832
20
1.07397
11
1.10162
21
1.07462
0
LINE
8
BLACK
6
CONTINUOUS
10
1.10162
20
1.07462
11
1.11884
21
1.07462
0
LINE
8
BLACK
6
CONTINUOUS
10
1.11884
20
1.07462
11
1.12214
21
1.07397
0
LINE
8
BLACK
6
CONTINUOUS
10
1.28714
20
1.07397
11
1.28993
21
1.0721
0
LINE
8
BLACK
6
CONTINUOUS
10
1.28993
20
1.0721
11
1.2918
21
1.06931
0
LINE
8
BLACK
6
CONTINUOUS
10
1.2918
20
1.06931
11
1.29246
21
1.06601
0
LINE
8
BLACK
6
CONTINUOUS
10
1.29246
20
1.06601
11
1.29246
21
1.03599
0
LINE
8
BLACK
6
CONTINUOUS
10
1.29246
20
1.03599
11
1.2918
21
1.03269
0
LINE
8
BLACK
6
CONTINUOUS
10
1.2918
20
1.03269
11
1.28993
21
1.0299
0
LINE
8
BLACK
6
CONTINUOUS
10
1.28993
20
1.0299
11
1.28714
21
1.02803
0
LINE
8
BLACK
6
CONTINUOUS
10
1.28714
20
1.02803
11
1.28384
21
1.02738
0
LINE
8
BLACK
6
CONTINUOUS
10
1.28384
20
1.02738
11
1.26662
21
1.02738
0
LINE
8
BLACK
6
CONTINUOUS
10
1.26662
20
1.02738
11
1.26332
21
1.02803
0
LINE
8
BLACK
6
CONTINUOUS
10
1.26332
20
1.02803
11
1.26053
21
1.0299
0
LINE
8
BLACK
6
CONTINUOUS
10
1.26053
20
1.0299
11
1.25866
21
1.03269
0
LINE
8
BLACK
6
CONTINUOUS
10
1.25866
20
1.03269
11
1.25801
21
1.03599
0
LINE
8
BLACK
6
CONTINUOUS
10
1.25801
20
1.03599
11
1.25801
21
1.06601
0
LINE
8
BLACK
6
CONTINUOUS
10
1.25801
20
1.06601
11
1.25866
21
1.06931
0
LINE
8
BLACK
6
CONTINUOUS
10
1.25866
20
1.06931
11
1.26053
21
1.0721
0
LINE
8
BLACK
6
CONTINUOUS
10
1.26053
20
1.0721
11
1.26332
21
1.07397
0
LINE
8
BLACK
6
CONTINUOUS
10
1.26332
20
1.07397
11
1.26662
21
1.07462
0
LINE
8
BLACK
6
CONTINUOUS
10
1.26662
20
1.07462
11
1.28384
21
1.07462
0
LINE
8
BLACK
6
CONTINUOUS
10
1.28384
20
1.07462
11
1.28714
21
1.07397
0
LINE
8
BLACK
6
CONTINUOUS
10
1.20348
20
1.07397
11
1.20627
21
1.0721
0
LINE
8
BLACK
6
CONTINUOUS
10
1.20627
20
1.0721
11
1.20814
21
1.06931
0
LINE
8
BLACK
6
CONTINUOUS
10
1.20814
20
1.06931
11
1.2088
21
1.06601
0
LINE
8
BLACK
6
CONTINUOUS
10
1.2088
20
1.06601
11
1.2088
21
1.03599
0
LINE
8
BLACK
6
CONTINUOUS
10
1.2088
20
1.03599
11
1.20814
21
1.03269
0
LINE
8
BLACK
6
CONTINUOUS
10
1.20814
20
1.03269
11
1.20627
21
1.0299
0
LINE
8
BLACK
6
CONTINUOUS
10
1.20627
20
1.0299
11
1.20348
21
1.02803
0
LINE
8
BLACK
6
CONTINUOUS
10
1.20348
20
1.02803
11
1.20018
21
1.02738
0
LINE
8
BLACK
6
CONTINUOUS
10
1.20018
20
1.02738
11
1.18296
21
1.02738
0
LINE
8
BLACK
6
CONTINUOUS
10
1.18296
20
1.02738
11
1.17966
21
1.02803
0
LINE
8
BLACK
6
CONTINUOUS
10
1.17966
20
1.02803
11
1.17687
21
1.0299
0
LINE
8
BLACK
6
CONTINUOUS
10
1.17687
20
1.0299
11
1.175
21
1.03269
0
LINE
8
BLACK
6
CONTINUOUS
10
1.175
20
1.03269
11
1.17435
21
1.03599
0
LINE
8
BLACK
6
CONTINUOUS
10
1.17435
20
1.03599
11
1.17435
21
1.06601
0
LINE
8
BLACK
6
CONTINUOUS
10
1.17435
20
1.06601
11
1.175
21
1.06931
0
LINE
8
BLACK
6
CONTINUOUS
10
1.175
20
1.06931
11
1.17687
21
1.0721
0
LINE
8
BLACK
6
CONTINUOUS
10
1.17687
20
1.0721
11
1.17966
21
1.07397
0
LINE
8
BLACK
6
CONTINUOUS
10
1.17966
20
1.07397
11
1.18296
21
1.07462
0
LINE
8
BLACK
6
CONTINUOUS
10
1.18296
20
1.07462
11
1.20018
21
1.07462
0
LINE
8
BLACK
6
CONTINUOUS
10
1.20018
20
1.07462
11
1.20348
21
1.07397
  0
ENDSEC
  0
EOF
