  0
SECTION
  2
HEADER
  9
$ANGBASE
  50
0.0
  9
$ANGDIR
  70
1
  9
$MEASUREMENT
  70
0
  0
ENDSEC
  0
SECTION
  2
TABLES
  0
TABLE
  2
LTYPE
  70
4
  0
LTYPE
  5
40F
  2
CONTINUOUS
  70
0
  3
Solid line
  72
65
  73
0
  40
0.0
  0
LTYPE
  5
410
  2
DASHDOT
 70
0
  3
Dash Dot ____ _ ____ _
 72
65
 73
4
 40
2.0
 49
1.25
 49
-0.25
 49
0.25
 49
-0.25
  0
LTYPE
  5
411
  2
DASHED
 70
0
  3
Dashed __ __ __ __ __
 72
65
 73
2
 40
0.75
 49
0.5
 49
-0.25
  0
LTYPE
  5
43B
  2
DOTTED
 70
0
  3
Dotted .  .  .  .
 72
65
 73
2
 40
0.2
 49
0.0
 49
-0.2
  0
ENDTAB
  0
TABLE
  2
STYLE
  70
4
  0
STYLE
  2
KICAD
  70
0
  40
0
  41
1
  42
1
  50
0
  71
0
  3
isocp.shx
  0
STYLE
  2
KICADB
  70
0
  40
0
  41
1
  42
1
  50
0
  71
0
  3
isocp.shx
  0
STYLE
  2
KICADI
  70
0
  40
0
  41
1
  42
1
  50
15
  71
0
  3
isocp.shx
  0
STYLE
  2
KICADBI
  70
0
  40
0
  41
1
  42
1
  50
15
  71
0
  3
isocp.shx
  0
ENDTAB
  0
TABLE
  2
LAYER
  70
1
  0
LAYER
  2
BLACK
  70
0
  62
7
  6
CONTINUOUS
  0
ENDTAB
  0
ENDSEC
  0
SECTION
  2
ENTITIES
0
LINE
8
BLACK
6
CONTINUOUS
10
5.09887
20
-4.1222
11
5.11275
21
-4.12456
0
LINE
8
BLACK
6
CONTINUOUS
10
5.11275
20
-4.12456
11
5.12629
21
-4.12846
0
LINE
8
BLACK
6
CONTINUOUS
10
5.12629
20
-4.12846
11
5.1393
21
-4.13385
0
LINE
8
BLACK
6
CONTINUOUS
10
5.1393
20
-4.13385
11
5.15163
21
-4.14066
0
LINE
8
BLACK
6
CONTINUOUS
10
5.15163
20
-4.14066
11
5.16311
21
-4.14881
0
LINE
8
BLACK
6
CONTINUOUS
10
5.16311
20
-4.14881
11
5.17362
21
-4.1582
0
LINE
8
BLACK
6
CONTINUOUS
10
5.17362
20
-4.1582
11
5.183
21
-4.1687
0
LINE
8
BLACK
6
CONTINUOUS
10
5.183
20
-4.1687
11
5.19115
21
-4.18018
0
LINE
8
BLACK
6
CONTINUOUS
10
5.19115
20
-4.18018
11
5.19796
21
-4.19251
0
LINE
8
BLACK
6
CONTINUOUS
10
5.19796
20
-4.19251
11
5.20335
21
-4.20552
0
LINE
8
BLACK
6
CONTINUOUS
10
5.20335
20
-4.20552
11
5.20725
21
-4.21906
0
LINE
8
BLACK
6
CONTINUOUS
10
5.20725
20
-4.21906
11
5.20961
21
-4.23295
0
LINE
8
BLACK
6
CONTINUOUS
10
5.20961
20
-4.23295
11
5.2104
21
-4.24701
0
LINE
8
BLACK
6
CONTINUOUS
10
5.2104
20
-4.24701
11
5.20961
21
-4.26107
0
LINE
8
BLACK
6
CONTINUOUS
10
5.20961
20
-4.26107
11
5.20725
21
-4.27496
0
LINE
8
BLACK
6
CONTINUOUS
10
5.20725
20
-4.27496
11
5.20335
21
-4.28849
0
LINE
8
BLACK
6
CONTINUOUS
10
5.20335
20
-4.28849
11
5.19796
21
-4.3015
0
LINE
8
BLACK
6
CONTINUOUS
10
5.19796
20
-4.3015
11
5.19115
21
-4.31383
0
LINE
8
BLACK
6
CONTINUOUS
10
5.19115
20
-4.31383
11
5.183
21
-4.32532
0
LINE
8
BLACK
6
CONTINUOUS
10
5.183
20
-4.32532
11
5.17362
21
-4.33582
0
LINE
8
BLACK
6
CONTINUOUS
10
5.17362
20
-4.33582
11
5.16311
21
-4.34521
0
LINE
8
BLACK
6
CONTINUOUS
10
5.16311
20
-4.34521
11
5.15163
21
-4.35336
0
LINE
8
BLACK
6
CONTINUOUS
10
5.15163
20
-4.35336
11
5.1393
21
-4.36017
0
LINE
8
BLACK
6
CONTINUOUS
10
5.1393
20
-4.36017
11
5.12629
21
-4.36556
0
LINE
8
BLACK
6
CONTINUOUS
10
5.12629
20
-4.36556
11
5.11275
21
-4.36946
0
LINE
8
BLACK
6
CONTINUOUS
10
5.11275
20
-4.36946
11
5.09887
21
-4.37182
0
LINE
8
BLACK
6
CONTINUOUS
10
5.09887
20
-4.37182
11
5.0848
21
-4.37261
0
LINE
8
BLACK
6
CONTINUOUS
10
5.0848
20
-4.37261
11
5.07074
21
-4.37182
0
LINE
8
BLACK
6
CONTINUOUS
10
5.07074
20
-4.37182
11
5.05685
21
-4.36946
0
LINE
8
BLACK
6
CONTINUOUS
10
5.05685
20
-4.36946
11
5.04332
21
-4.36556
0
LINE
8
BLACK
6
CONTINUOUS
10
5.04332
20
-4.36556
11
5.03031
21
-4.36017
0
LINE
8
BLACK
6
CONTINUOUS
10
5.03031
20
-4.36017
11
5.01798
21
-4.35336
0
LINE
8
BLACK
6
CONTINUOUS
10
5.01798
20
-4.35336
11
5.00649
21
-4.34521
0
LINE
8
BLACK
6
CONTINUOUS
10
5.00649
20
-4.34521
11
4.99599
21
-4.33582
0
LINE
8
BLACK
6
CONTINUOUS
10
4.99599
20
-4.33582
11
4.98661
21
-4.32532
0
LINE
8
BLACK
6
CONTINUOUS
10
4.98661
20
-4.32532
11
4.97845
21
-4.31383
0
LINE
8
BLACK
6
CONTINUOUS
10
4.97845
20
-4.31383
11
4.97164
21
-4.3015
0
LINE
8
BLACK
6
CONTINUOUS
10
4.97164
20
-4.3015
11
4.96625
21
-4.28849
0
LINE
8
BLACK
6
CONTINUOUS
10
4.96625
20
-4.28849
11
4.96235
21
-4.27496
0
LINE
8
BLACK
6
CONTINUOUS
10
4.96235
20
-4.27496
11
4.95999
21
-4.26107
0
LINE
8
BLACK
6
CONTINUOUS
10
4.95999
20
-4.26107
11
4.9592
21
-4.24701
0
LINE
8
BLACK
6
CONTINUOUS
10
4.9592
20
-4.24701
11
4.95999
21
-4.23295
0
LINE
8
BLACK
6
CONTINUOUS
10
4.95999
20
-4.23295
11
4.96235
21
-4.21906
0
LINE
8
BLACK
6
CONTINUOUS
10
4.96235
20
-4.21906
11
4.96625
21
-4.20552
0
LINE
8
BLACK
6
CONTINUOUS
10
4.96625
20
-4.20552
11
4.97164
21
-4.19251
0
LINE
8
BLACK
6
CONTINUOUS
10
4.97164
20
-4.19251
11
4.97845
21
-4.18018
0
LINE
8
BLACK
6
CONTINUOUS
10
4.97845
20
-4.18018
11
4.98661
21
-4.1687
0
LINE
8
BLACK
6
CONTINUOUS
10
4.98661
20
-4.1687
11
4.99599
21
-4.1582
0
LINE
8
BLACK
6
CONTINUOUS
10
4.99599
20
-4.1582
11
5.00649
21
-4.14881
0
LINE
8
BLACK
6
CONTINUOUS
10
5.00649
20
-4.14881
11
5.01798
21
-4.14066
0
LINE
8
BLACK
6
CONTINUOUS
10
5.01798
20
-4.14066
11
5.03031
21
-4.13385
0
LINE
8
BLACK
6
CONTINUOUS
10
5.03031
20
-4.13385
11
5.04332
21
-4.12846
0
LINE
8
BLACK
6
CONTINUOUS
10
5.04332
20
-4.12846
11
5.05685
21
-4.12456
0
LINE
8
BLACK
6
CONTINUOUS
10
5.05685
20
-4.12456
11
5.07074
21
-4.1222
0
LINE
8
BLACK
6
CONTINUOUS
10
5.07074
20
-4.1222
11
5.0848
21
-4.12141
0
LINE
8
BLACK
6
CONTINUOUS
10
5.0848
20
-4.12141
11
5.09887
21
-4.1222
0
LINE
8
BLACK
6
CONTINUOUS
10
4.97476
20
-4.25987
11
4.977
21
-4.27256
0
LINE
8
BLACK
6
CONTINUOUS
10
4.977
20
-4.27256
11
4.9807
21
-4.2849
0
LINE
8
BLACK
6
CONTINUOUS
10
4.9807
20
-4.2849
11
4.9858
21
-4.29673
0
LINE
8
BLACK
6
CONTINUOUS
10
4.9858
20
-4.29673
11
4.99224
21
-4.30789
0
LINE
8
BLACK
6
CONTINUOUS
10
4.99224
20
-4.30789
11
4.99994
21
-4.31822
0
LINE
8
BLACK
6
CONTINUOUS
10
4.99994
20
-4.31822
11
5.00878
21
-4.32759
0
LINE
8
BLACK
6
CONTINUOUS
10
5.00878
20
-4.32759
11
5.01865
21
-4.33587
0
LINE
8
BLACK
6
CONTINUOUS
10
5.01865
20
-4.33587
11
5.02941
21
-4.34295
0
LINE
8
BLACK
6
CONTINUOUS
10
5.02941
20
-4.34295
11
5.04092
21
-4.34873
0
LINE
8
BLACK
6
CONTINUOUS
10
5.04092
20
-4.34873
11
5.05303
21
-4.35314
0
LINE
8
BLACK
6
CONTINUOUS
10
5.05303
20
-4.35314
11
5.06557
21
-4.35611
0
LINE
8
BLACK
6
CONTINUOUS
10
5.06557
20
-4.35611
11
5.07836
21
-4.35761
0
LINE
8
BLACK
6
CONTINUOUS
10
5.07836
20
-4.35761
11
5.09124
21
-4.35761
0
LINE
8
BLACK
6
CONTINUOUS
10
5.09124
20
-4.35761
11
5.10404
21
-4.35611
0
LINE
8
BLACK
6
CONTINUOUS
10
5.10404
20
-4.35611
11
5.11658
21
-4.35314
0
LINE
8
BLACK
6
CONTINUOUS
10
5.11658
20
-4.35314
11
5.12868
21
-4.34873
0
LINE
8
BLACK
6
CONTINUOUS
10
5.12868
20
-4.34873
11
5.1402
21
-4.34295
0
LINE
8
BLACK
6
CONTINUOUS
10
5.1402
20
-4.34295
11
5.15096
21
-4.33587
0
LINE
8
BLACK
6
CONTINUOUS
10
5.15096
20
-4.33587
11
5.16083
21
-4.32759
0
LINE
8
BLACK
6
CONTINUOUS
10
5.16083
20
-4.32759
11
5.16967
21
-4.31822
0
LINE
8
BLACK
6
CONTINUOUS
10
5.16967
20
-4.31822
11
5.17736
21
-4.30789
0
LINE
8
BLACK
6
CONTINUOUS
10
5.17736
20
-4.30789
11
5.18381
21
-4.29673
0
LINE
8
BLACK
6
CONTINUOUS
10
5.18381
20
-4.29673
11
5.18891
21
-4.2849
0
LINE
8
BLACK
6
CONTINUOUS
10
5.18891
20
-4.2849
11
5.1926
21
-4.27256
0
LINE
8
BLACK
6
CONTINUOUS
10
5.1926
20
-4.27256
11
5.19484
21
-4.25987
0
LINE
8
BLACK
6
CONTINUOUS
10
5.19484
20
-4.25987
11
5.19559
21
-4.24701
0
LINE
8
BLACK
6
CONTINUOUS
10
5.19559
20
-4.24701
11
5.19484
21
-4.23415
0
LINE
8
BLACK
6
CONTINUOUS
10
5.19484
20
-4.23415
11
5.1926
21
-4.22146
0
LINE
8
BLACK
6
CONTINUOUS
10
5.1926
20
-4.22146
11
5.18891
21
-4.20912
0
LINE
8
BLACK
6
CONTINUOUS
10
5.18891
20
-4.20912
11
5.18381
21
-4.19729
0
LINE
8
BLACK
6
CONTINUOUS
10
5.18381
20
-4.19729
11
5.17736
21
-4.18613
0
LINE
8
BLACK
6
CONTINUOUS
10
5.17736
20
-4.18613
11
5.16967
21
-4.1758
0
LINE
8
BLACK
6
CONTINUOUS
10
5.16967
20
-4.1758
11
5.16083
21
-4.16642
0
LINE
8
BLACK
6
CONTINUOUS
10
5.16083
20
-4.16642
11
5.15096
21
-4.15814
0
LINE
8
BLACK
6
CONTINUOUS
10
5.15096
20
-4.15814
11
5.1402
21
-4.15106
0
LINE
8
BLACK
6
CONTINUOUS
10
5.1402
20
-4.15106
11
5.12868
21
-4.14528
0
LINE
8
BLACK
6
CONTINUOUS
10
5.12868
20
-4.14528
11
5.11658
21
-4.14087
0
LINE
8
BLACK
6
CONTINUOUS
10
5.11658
20
-4.14087
11
5.10404
21
-4.1379
0
LINE
8
BLACK
6
CONTINUOUS
10
5.10404
20
-4.1379
11
5.09124
21
-4.13641
0
LINE
8
BLACK
6
CONTINUOUS
10
5.09124
20
-4.13641
11
5.07836
21
-4.13641
0
LINE
8
BLACK
6
CONTINUOUS
10
5.07836
20
-4.13641
11
5.06557
21
-4.1379
0
LINE
8
BLACK
6
CONTINUOUS
10
5.06557
20
-4.1379
11
5.05303
21
-4.14087
0
LINE
8
BLACK
6
CONTINUOUS
10
5.05303
20
-4.14087
11
5.04092
21
-4.14528
0
LINE
8
BLACK
6
CONTINUOUS
10
5.04092
20
-4.14528
11
5.02941
21
-4.15106
0
LINE
8
BLACK
6
CONTINUOUS
10
5.02941
20
-4.15106
11
5.01865
21
-4.15814
0
LINE
8
BLACK
6
CONTINUOUS
10
5.01865
20
-4.15814
11
5.00878
21
-4.16642
0
LINE
8
BLACK
6
CONTINUOUS
10
5.00878
20
-4.16642
11
4.99994
21
-4.1758
0
LINE
8
BLACK
6
CONTINUOUS
10
4.99994
20
-4.1758
11
4.99224
21
-4.18613
0
LINE
8
BLACK
6
CONTINUOUS
10
4.99224
20
-4.18613
11
4.9858
21
-4.19729
0
LINE
8
BLACK
6
CONTINUOUS
10
4.9858
20
-4.19729
11
4.9807
21
-4.20912
0
LINE
8
BLACK
6
CONTINUOUS
10
4.9807
20
-4.20912
11
4.977
21
-4.22146
0
LINE
8
BLACK
6
CONTINUOUS
10
4.977
20
-4.22146
11
4.97476
21
-4.23415
0
LINE
8
BLACK
6
CONTINUOUS
10
4.97476
20
-4.23415
11
4.97402
21
-4.24701
0
LINE
8
BLACK
6
CONTINUOUS
10
4.97402
20
-4.24701
11
4.97476
21
-4.25987
0
LINE
8
BLACK
6
CONTINUOUS
10
7.09887
20
-4.1222
11
7.11275
21
-4.12456
0
LINE
8
BLACK
6
CONTINUOUS
10
7.11275
20
-4.12456
11
7.12629
21
-4.12846
0
LINE
8
BLACK
6
CONTINUOUS
10
7.12629
20
-4.12846
11
7.1393
21
-4.13385
0
LINE
8
BLACK
6
CONTINUOUS
10
7.1393
20
-4.13385
11
7.15163
21
-4.14066
0
LINE
8
BLACK
6
CONTINUOUS
10
7.15163
20
-4.14066
11
7.16311
21
-4.14881
0
LINE
8
BLACK
6
CONTINUOUS
10
7.16311
20
-4.14881
11
7.17362
21
-4.1582
0
LINE
8
BLACK
6
CONTINUOUS
10
7.17362
20
-4.1582
11
7.183
21
-4.1687
0
LINE
8
BLACK
6
CONTINUOUS
10
7.183
20
-4.1687
11
7.19115
21
-4.18018
0
LINE
8
BLACK
6
CONTINUOUS
10
7.19115
20
-4.18018
11
7.19796
21
-4.19251
0
LINE
8
BLACK
6
CONTINUOUS
10
7.19796
20
-4.19251
11
7.20335
21
-4.20552
0
LINE
8
BLACK
6
CONTINUOUS
10
7.20335
20
-4.20552
11
7.20725
21
-4.21906
0
LINE
8
BLACK
6
CONTINUOUS
10
7.20725
20
-4.21906
11
7.20961
21
-4.23295
0
LINE
8
BLACK
6
CONTINUOUS
10
7.20961
20
-4.23295
11
7.2104
21
-4.24701
0
LINE
8
BLACK
6
CONTINUOUS
10
7.2104
20
-4.24701
11
7.20961
21
-4.26107
0
LINE
8
BLACK
6
CONTINUOUS
10
7.20961
20
-4.26107
11
7.20725
21
-4.27496
0
LINE
8
BLACK
6
CONTINUOUS
10
7.20725
20
-4.27496
11
7.20335
21
-4.28849
0
LINE
8
BLACK
6
CONTINUOUS
10
7.20335
20
-4.28849
11
7.19796
21
-4.3015
0
LINE
8
BLACK
6
CONTINUOUS
10
7.19796
20
-4.3015
11
7.19115
21
-4.31383
0
LINE
8
BLACK
6
CONTINUOUS
10
7.19115
20
-4.31383
11
7.183
21
-4.32532
0
LINE
8
BLACK
6
CONTINUOUS
10
7.183
20
-4.32532
11
7.17362
21
-4.33582
0
LINE
8
BLACK
6
CONTINUOUS
10
7.17362
20
-4.33582
11
7.16311
21
-4.34521
0
LINE
8
BLACK
6
CONTINUOUS
10
7.16311
20
-4.34521
11
7.15163
21
-4.35336
0
LINE
8
BLACK
6
CONTINUOUS
10
7.15163
20
-4.35336
11
7.1393
21
-4.36017
0
LINE
8
BLACK
6
CONTINUOUS
10
7.1393
20
-4.36017
11
7.12629
21
-4.36556
0
LINE
8
BLACK
6
CONTINUOUS
10
7.12629
20
-4.36556
11
7.11275
21
-4.36946
0
LINE
8
BLACK
6
CONTINUOUS
10
7.11275
20
-4.36946
11
7.09887
21
-4.37182
0
LINE
8
BLACK
6
CONTINUOUS
10
7.09887
20
-4.37182
11
7.0848
21
-4.37261
0
LINE
8
BLACK
6
CONTINUOUS
10
7.0848
20
-4.37261
11
7.07074
21
-4.37182
0
LINE
8
BLACK
6
CONTINUOUS
10
7.07074
20
-4.37182
11
7.05685
21
-4.36946
0
LINE
8
BLACK
6
CONTINUOUS
10
7.05685
20
-4.36946
11
7.04332
21
-4.36556
0
LINE
8
BLACK
6
CONTINUOUS
10
7.04332
20
-4.36556
11
7.03031
21
-4.36017
0
LINE
8
BLACK
6
CONTINUOUS
10
7.03031
20
-4.36017
11
7.01798
21
-4.35336
0
LINE
8
BLACK
6
CONTINUOUS
10
7.01798
20
-4.35336
11
7.00649
21
-4.34521
0
LINE
8
BLACK
6
CONTINUOUS
10
7.00649
20
-4.34521
11
6.99599
21
-4.33582
0
LINE
8
BLACK
6
CONTINUOUS
10
6.99599
20
-4.33582
11
6.98661
21
-4.32532
0
LINE
8
BLACK
6
CONTINUOUS
10
6.98661
20
-4.32532
11
6.97845
21
-4.31383
0
LINE
8
BLACK
6
CONTINUOUS
10
6.97845
20
-4.31383
11
6.97164
21
-4.3015
0
LINE
8
BLACK
6
CONTINUOUS
10
6.97164
20
-4.3015
11
6.96625
21
-4.28849
0
LINE
8
BLACK
6
CONTINUOUS
10
6.96625
20
-4.28849
11
6.96235
21
-4.27496
0
LINE
8
BLACK
6
CONTINUOUS
10
6.96235
20
-4.27496
11
6.95999
21
-4.26107
0
LINE
8
BLACK
6
CONTINUOUS
10
6.95999
20
-4.26107
11
6.9592
21
-4.24701
0
LINE
8
BLACK
6
CONTINUOUS
10
6.9592
20
-4.24701
11
6.95999
21
-4.23295
0
LINE
8
BLACK
6
CONTINUOUS
10
6.95999
20
-4.23295
11
6.96235
21
-4.21906
0
LINE
8
BLACK
6
CONTINUOUS
10
6.96235
20
-4.21906
11
6.96625
21
-4.20552
0
LINE
8
BLACK
6
CONTINUOUS
10
6.96625
20
-4.20552
11
6.97164
21
-4.19251
0
LINE
8
BLACK
6
CONTINUOUS
10
6.97164
20
-4.19251
11
6.97845
21
-4.18018
0
LINE
8
BLACK
6
CONTINUOUS
10
6.97845
20
-4.18018
11
6.98661
21
-4.1687
0
LINE
8
BLACK
6
CONTINUOUS
10
6.98661
20
-4.1687
11
6.99599
21
-4.1582
0
LINE
8
BLACK
6
CONTINUOUS
10
6.99599
20
-4.1582
11
7.00649
21
-4.14881
0
LINE
8
BLACK
6
CONTINUOUS
10
7.00649
20
-4.14881
11
7.01798
21
-4.14066
0
LINE
8
BLACK
6
CONTINUOUS
10
7.01798
20
-4.14066
11
7.03031
21
-4.13385
0
LINE
8
BLACK
6
CONTINUOUS
10
7.03031
20
-4.13385
11
7.04332
21
-4.12846
0
LINE
8
BLACK
6
CONTINUOUS
10
7.04332
20
-4.12846
11
7.05685
21
-4.12456
0
LINE
8
BLACK
6
CONTINUOUS
10
7.05685
20
-4.12456
11
7.07074
21
-4.1222
0
LINE
8
BLACK
6
CONTINUOUS
10
7.07074
20
-4.1222
11
7.0848
21
-4.12141
0
LINE
8
BLACK
6
CONTINUOUS
10
7.0848
20
-4.12141
11
7.09887
21
-4.1222
0
LINE
8
BLACK
6
CONTINUOUS
10
6.97476
20
-4.25987
11
6.977
21
-4.27256
0
LINE
8
BLACK
6
CONTINUOUS
10
6.977
20
-4.27256
11
6.9807
21
-4.2849
0
LINE
8
BLACK
6
CONTINUOUS
10
6.9807
20
-4.2849
11
6.9858
21
-4.29673
0
LINE
8
BLACK
6
CONTINUOUS
10
6.9858
20
-4.29673
11
6.99224
21
-4.30789
0
LINE
8
BLACK
6
CONTINUOUS
10
6.99224
20
-4.30789
11
6.99994
21
-4.31822
0
LINE
8
BLACK
6
CONTINUOUS
10
6.99994
20
-4.31822
11
7.00878
21
-4.32759
0
LINE
8
BLACK
6
CONTINUOUS
10
7.00878
20
-4.32759
11
7.01865
21
-4.33587
0
LINE
8
BLACK
6
CONTINUOUS
10
7.01865
20
-4.33587
11
7.02941
21
-4.34295
0
LINE
8
BLACK
6
CONTINUOUS
10
7.02941
20
-4.34295
11
7.04092
21
-4.34873
0
LINE
8
BLACK
6
CONTINUOUS
10
7.04092
20
-4.34873
11
7.05303
21
-4.35314
0
LINE
8
BLACK
6
CONTINUOUS
10
7.05303
20
-4.35314
11
7.06557
21
-4.35611
0
LINE
8
BLACK
6
CONTINUOUS
10
7.06557
20
-4.35611
11
7.07836
21
-4.35761
0
LINE
8
BLACK
6
CONTINUOUS
10
7.07836
20
-4.35761
11
7.09124
21
-4.35761
0
LINE
8
BLACK
6
CONTINUOUS
10
7.09124
20
-4.35761
11
7.10404
21
-4.35611
0
LINE
8
BLACK
6
CONTINUOUS
10
7.10404
20
-4.35611
11
7.11658
21
-4.35314
0
LINE
8
BLACK
6
CONTINUOUS
10
7.11658
20
-4.35314
11
7.12868
21
-4.34873
0
LINE
8
BLACK
6
CONTINUOUS
10
7.12868
20
-4.34873
11
7.1402
21
-4.34295
0
LINE
8
BLACK
6
CONTINUOUS
10
7.1402
20
-4.34295
11
7.15096
21
-4.33587
0
LINE
8
BLACK
6
CONTINUOUS
10
7.15096
20
-4.33587
11
7.16083
21
-4.32759
0
LINE
8
BLACK
6
CONTINUOUS
10
7.16083
20
-4.32759
11
7.16967
21
-4.31822
0
LINE
8
BLACK
6
CONTINUOUS
10
7.16967
20
-4.31822
11
7.17736
21
-4.30789
0
LINE
8
BLACK
6
CONTINUOUS
10
7.17736
20
-4.30789
11
7.18381
21
-4.29673
0
LINE
8
BLACK
6
CONTINUOUS
10
7.18381
20
-4.29673
11
7.18891
21
-4.2849
0
LINE
8
BLACK
6
CONTINUOUS
10
7.18891
20
-4.2849
11
7.1926
21
-4.27256
0
LINE
8
BLACK
6
CONTINUOUS
10
7.1926
20
-4.27256
11
7.19484
21
-4.25987
0
LINE
8
BLACK
6
CONTINUOUS
10
7.19484
20
-4.25987
11
7.19559
21
-4.24701
0
LINE
8
BLACK
6
CONTINUOUS
10
7.19559
20
-4.24701
11
7.19484
21
-4.23415
0
LINE
8
BLACK
6
CONTINUOUS
10
7.19484
20
-4.23415
11
7.1926
21
-4.22146
0
LINE
8
BLACK
6
CONTINUOUS
10
7.1926
20
-4.22146
11
7.18891
21
-4.20912
0
LINE
8
BLACK
6
CONTINUOUS
10
7.18891
20
-4.20912
11
7.18381
21
-4.19729
0
LINE
8
BLACK
6
CONTINUOUS
10
7.18381
20
-4.19729
11
7.17736
21
-4.18613
0
LINE
8
BLACK
6
CONTINUOUS
10
7.17736
20
-4.18613
11
7.16967
21
-4.1758
0
LINE
8
BLACK
6
CONTINUOUS
10
7.16967
20
-4.1758
11
7.16083
21
-4.16642
0
LINE
8
BLACK
6
CONTINUOUS
10
7.16083
20
-4.16642
11
7.15096
21
-4.15814
0
LINE
8
BLACK
6
CONTINUOUS
10
7.15096
20
-4.15814
11
7.1402
21
-4.15106
0
LINE
8
BLACK
6
CONTINUOUS
10
7.1402
20
-4.15106
11
7.12868
21
-4.14528
0
LINE
8
BLACK
6
CONTINUOUS
10
7.12868
20
-4.14528
11
7.11658
21
-4.14087
0
LINE
8
BLACK
6
CONTINUOUS
10
7.11658
20
-4.14087
11
7.10404
21
-4.1379
0
LINE
8
BLACK
6
CONTINUOUS
10
7.10404
20
-4.1379
11
7.09124
21
-4.13641
0
LINE
8
BLACK
6
CONTINUOUS
10
7.09124
20
-4.13641
11
7.07836
21
-4.13641
0
LINE
8
BLACK
6
CONTINUOUS
10
7.07836
20
-4.13641
11
7.06557
21
-4.1379
0
LINE
8
BLACK
6
CONTINUOUS
10
7.06557
20
-4.1379
11
7.05303
21
-4.14087
0
LINE
8
BLACK
6
CONTINUOUS
10
7.05303
20
-4.14087
11
7.04092
21
-4.14528
0
LINE
8
BLACK
6
CONTINUOUS
10
7.04092
20
-4.14528
11
7.02941
21
-4.15106
0
LINE
8
BLACK
6
CONTINUOUS
10
7.02941
20
-4.15106
11
7.01865
21
-4.15814
0
LINE
8
BLACK
6
CONTINUOUS
10
7.01865
20
-4.15814
11
7.00878
21
-4.16642
0
LINE
8
BLACK
6
CONTINUOUS
10
7.00878
20
-4.16642
11
6.99994
21
-4.1758
0
LINE
8
BLACK
6
CONTINUOUS
10
6.99994
20
-4.1758
11
6.99224
21
-4.18613
0
LINE
8
BLACK
6
CONTINUOUS
10
6.99224
20
-4.18613
11
6.9858
21
-4.19729
0
LINE
8
BLACK
6
CONTINUOUS
10
6.9858
20
-4.19729
11
6.9807
21
-4.20912
0
LINE
8
BLACK
6
CONTINUOUS
10
6.9807
20
-4.20912
11
6.977
21
-4.22146
0
LINE
8
BLACK
6
CONTINUOUS
10
6.977
20
-4.22146
11
6.97476
21
-4.23415
0
LINE
8
BLACK
6
CONTINUOUS
10
6.97476
20
-4.23415
11
6.97402
21
-4.24701
0
LINE
8
BLACK
6
CONTINUOUS
10
6.97402
20
-4.24701
11
6.97476
21
-4.25987
0
LINE
8
BLACK
6
CONTINUOUS
10
5.15633
20
-3.65133
11
5.15639
21
-3.65133
0
LINE
8
BLACK
6
CONTINUOUS
10
5.15639
20
-3.65133
11
5.16202
21
-3.6532
0
LINE
8
BLACK
6
CONTINUOUS
10
5.16202
20
-3.6532
11
5.16292
21
-3.65369
0
LINE
8
BLACK
6
CONTINUOUS
10
5.16292
20
-3.65369
11
5.16301
21
-3.65384
0
LINE
8
BLACK
6
CONTINUOUS
10
5.16301
20
-3.65384
11
5.16317
21
-3.65392
0
LINE
8
BLACK
6
CONTINUOUS
10
5.16317
20
-3.65392
11
5.16692
21
-3.65767
0
LINE
8
BLACK
6
CONTINUOUS
10
5.16692
20
-3.65767
11
5.16751
21
-3.65851
0
LINE
8
BLACK
6
CONTINUOUS
10
5.16751
20
-3.65851
11
5.16753
21
-3.65868
0
LINE
8
BLACK
6
CONTINUOUS
10
5.16753
20
-3.65868
11
5.16764
21
-3.65882
0
LINE
8
BLACK
6
CONTINUOUS
10
5.16764
20
-3.65882
11
5.16951
21
-3.66445
0
LINE
8
BLACK
6
CONTINUOUS
10
5.16951
20
-3.66445
11
5.16964
21
-3.66532
0
LINE
8
BLACK
6
CONTINUOUS
10
5.16964
20
-3.66532
11
5.16966
21
-3.66538
0
LINE
8
BLACK
6
CONTINUOUS
10
5.16966
20
-3.66538
11
5.16966
21
-3.66913
0
LINE
8
BLACK
6
CONTINUOUS
10
5.16966
20
-3.66913
11
5.16948
21
-3.67014
0
LINE
8
BLACK
6
CONTINUOUS
10
5.16948
20
-3.67014
11
5.16819
21
-3.67169
0
LINE
8
BLACK
6
CONTINUOUS
10
5.16819
20
-3.67169
11
5.1662
21
-3.67204
0
LINE
8
BLACK
6
CONTINUOUS
10
5.1662
20
-3.67204
11
5.16445
21
-3.67103
0
LINE
8
BLACK
6
CONTINUOUS
10
5.16445
20
-3.67103
11
5.16376
21
-3.66913
0
LINE
8
BLACK
6
CONTINUOUS
10
5.16376
20
-3.66913
11
5.16376
21
-3.66586
0
LINE
8
BLACK
6
CONTINUOUS
10
5.16376
20
-3.66586
11
5.16225
21
-3.66135
0
LINE
8
BLACK
6
CONTINUOUS
10
5.16225
20
-3.66135
11
5.15949
21
-3.65859
0
LINE
8
BLACK
6
CONTINUOUS
10
5.15949
20
-3.65859
11
5.15498
21
-3.65708
0
LINE
8
BLACK
6
CONTINUOUS
10
5.15498
20
-3.65708
11
5.12734
21
-3.65708
0
LINE
8
BLACK
6
CONTINUOUS
10
5.12734
20
-3.65708
11
5.12633
21
-3.65691
0
LINE
8
BLACK
6
CONTINUOUS
10
5.12633
20
-3.65691
11
5.12478
21
-3.65561
0
LINE
8
BLACK
6
CONTINUOUS
10
5.12478
20
-3.65561
11
5.12443
21
-3.65362
0
LINE
8
BLACK
6
CONTINUOUS
10
5.12443
20
-3.65362
11
5.12544
21
-3.65187
0
LINE
8
BLACK
6
CONTINUOUS
10
5.12544
20
-3.65187
11
5.12734
21
-3.65118
0
LINE
8
BLACK
6
CONTINUOUS
10
5.12734
20
-3.65118
11
5.15546
21
-3.65118
0
LINE
8
BLACK
6
CONTINUOUS
10
5.15546
20
-3.65118
11
5.15633
21
-3.65133
0
LINE
8
BLACK
6
CONTINUOUS
10
5.16897
20
-3.61286
11
5.16966
21
-3.61476
0
LINE
8
BLACK
6
CONTINUOUS
10
5.16966
20
-3.61476
11
5.16966
21
-3.63726
0
LINE
8
BLACK
6
CONTINUOUS
10
5.16966
20
-3.63726
11
5.16948
21
-3.63827
0
LINE
8
BLACK
6
CONTINUOUS
10
5.16948
20
-3.63827
11
5.16819
21
-3.63982
0
LINE
8
BLACK
6
CONTINUOUS
10
5.16819
20
-3.63982
11
5.1662
21
-3.64017
0
LINE
8
BLACK
6
CONTINUOUS
10
5.1662
20
-3.64017
11
5.16445
21
-3.63916
0
LINE
8
BLACK
6
CONTINUOUS
10
5.16445
20
-3.63916
11
5.16376
21
-3.63726
0
LINE
8
BLACK
6
CONTINUOUS
10
5.16376
20
-3.63726
11
5.16376
21
-3.62896
0
LINE
8
BLACK
6
CONTINUOUS
10
5.16376
20
-3.62896
11
5.13634
21
-3.62896
0
LINE
8
BLACK
6
CONTINUOUS
10
5.13634
20
-3.62896
11
5.1388
21
-3.63142
0
LINE
8
BLACK
6
CONTINUOUS
10
5.1388
20
-3.63142
11
5.13931
21
-3.63214
0
LINE
8
BLACK
6
CONTINUOUS
10
5.13931
20
-3.63214
11
5.13935
21
-3.63219
0
LINE
8
BLACK
6
CONTINUOUS
10
5.13935
20
-3.63219
11
5.14123
21
-3.63594
0
LINE
8
BLACK
6
CONTINUOUS
10
5.14123
20
-3.63594
11
5.14152
21
-3.63692
0
LINE
8
BLACK
6
CONTINUOUS
10
5.14152
20
-3.63692
11
5.14105
21
-3.63889
0
LINE
8
BLACK
6
CONTINUOUS
10
5.14105
20
-3.63889
11
5.13943
21
-3.64009
0
LINE
8
BLACK
6
CONTINUOUS
10
5.13943
20
-3.64009
11
5.13741
21
-3.63997
0
LINE
8
BLACK
6
CONTINUOUS
10
5.13741
20
-3.63997
11
5.13595
21
-3.63858
0
LINE
8
BLACK
6
CONTINUOUS
10
5.13595
20
-3.63858
11
5.13429
21
-3.63526
0
LINE
8
BLACK
6
CONTINUOUS
10
5.13429
20
-3.63526
11
5.13108
21
-3.63205
0
LINE
8
BLACK
6
CONTINUOUS
10
5.13108
20
-3.63205
11
5.1257
21
-3.62847
0
LINE
8
BLACK
6
CONTINUOUS
10
5.1257
20
-3.62847
11
5.12496
21
-3.62776
0
LINE
8
BLACK
6
CONTINUOUS
10
5.12496
20
-3.62776
11
5.12491
21
-3.6276
0
LINE
8
BLACK
6
CONTINUOUS
10
5.12491
20
-3.6276
11
5.12478
21
-3.62749
0
LINE
8
BLACK
6
CONTINUOUS
10
5.12478
20
-3.62749
11
5.12463
21
-3.62664
0
LINE
8
BLACK
6
CONTINUOUS
10
5.12463
20
-3.62664
11
5.12439
21
-3.62582
0
LINE
8
BLACK
6
CONTINUOUS
10
5.12439
20
-3.62582
11
5.12446
21
-3.62566
0
LINE
8
BLACK
6
CONTINUOUS
10
5.12446
20
-3.62566
11
5.12443
21
-3.6255
0
LINE
8
BLACK
6
CONTINUOUS
10
5.12443
20
-3.6255
11
5.12486
21
-3.62475
0
LINE
8
BLACK
6
CONTINUOUS
10
5.12486
20
-3.62475
11
5.1252
21
-3.62397
0
LINE
8
BLACK
6
CONTINUOUS
10
5.1252
20
-3.62397
11
5.12536
21
-3.62389
0
LINE
8
BLACK
6
CONTINUOUS
10
5.12536
20
-3.62389
11
5.12544
21
-3.62375
0
LINE
8
BLACK
6
CONTINUOUS
10
5.12544
20
-3.62375
11
5.12625
21
-3.62345
0
LINE
8
BLACK
6
CONTINUOUS
10
5.12625
20
-3.62345
11
5.12701
21
-3.62307
0
LINE
8
BLACK
6
CONTINUOUS
10
5.12701
20
-3.62307
11
5.12718
21
-3.62312
0
LINE
8
BLACK
6
CONTINUOUS
10
5.12718
20
-3.62312
11
5.12734
21
-3.62306
0
LINE
8
BLACK
6
CONTINUOUS
10
5.12734
20
-3.62306
11
5.16376
21
-3.62306
0
LINE
8
BLACK
6
CONTINUOUS
10
5.16376
20
-3.62306
11
5.16376
21
-3.61476
0
LINE
8
BLACK
6
CONTINUOUS
10
5.16376
20
-3.61476
11
5.16393
21
-3.61375
0
LINE
8
BLACK
6
CONTINUOUS
10
5.16393
20
-3.61375
11
5.16523
21
-3.6122
0
LINE
8
BLACK
6
CONTINUOUS
10
5.16523
20
-3.6122
11
5.16722
21
-3.61185
0
LINE
8
BLACK
6
CONTINUOUS
10
5.16722
20
-3.61185
11
5.16897
21
-3.61286
0
LINE
8
BLACK
6
CONTINUOUS
10
5.31756
20
-3.31898
11
5.31895
21
-3.31955
0
LINE
8
BLACK
6
CONTINUOUS
10
5.31895
20
-3.31955
11
5.31953
21
-3.32094
0
LINE
8
BLACK
6
CONTINUOUS
10
5.31953
20
-3.32094
11
5.31953
21
-3.98094
0
LINE
8
BLACK
6
CONTINUOUS
10
5.31953
20
-3.98094
11
5.31895
21
-3.98234
0
LINE
8
BLACK
6
CONTINUOUS
10
5.31895
20
-3.98234
11
5.31756
21
-3.98291
0
LINE
8
BLACK
6
CONTINUOUS
10
5.31756
20
-3.98291
11
5.11256
21
-3.98291
0
LINE
8
BLACK
6
CONTINUOUS
10
5.11256
20
-3.98291
11
5.11117
21
-3.98234
0
LINE
8
BLACK
6
CONTINUOUS
10
5.11117
20
-3.98234
11
5.11059
21
-3.98094
0
LINE
8
BLACK
6
CONTINUOUS
10
5.11059
20
-3.98094
11
5.11059
21
-3.32094
0
LINE
8
BLACK
6
CONTINUOUS
10
5.11059
20
-3.32094
11
5.11117
21
-3.31955
0
LINE
8
BLACK
6
CONTINUOUS
10
5.11117
20
-3.31955
11
5.11256
21
-3.31898
0
LINE
8
BLACK
6
CONTINUOUS
10
5.11256
20
-3.31898
11
5.31756
21
-3.31898
0
LINE
8
BLACK
6
CONTINUOUS
10
5.11453
20
-3.32291
11
5.11453
21
-3.97898
0
LINE
8
BLACK
6
CONTINUOUS
10
5.11453
20
-3.97898
11
5.31559
21
-3.97898
0
LINE
8
BLACK
6
CONTINUOUS
10
5.31559
20
-3.97898
11
5.31559
21
-3.32291
0
LINE
8
BLACK
6
CONTINUOUS
10
5.31559
20
-3.32291
11
5.11453
21
-3.32291
0
LINE
8
BLACK
6
CONTINUOUS
10
6.88733
20
-3.66633
11
6.88739
21
-3.66633
0
LINE
8
BLACK
6
CONTINUOUS
10
6.88739
20
-3.66633
11
6.89302
21
-3.6682
0
LINE
8
BLACK
6
CONTINUOUS
10
6.89302
20
-3.6682
11
6.89392
21
-3.66869
0
LINE
8
BLACK
6
CONTINUOUS
10
6.89392
20
-3.66869
11
6.89401
21
-3.66884
0
LINE
8
BLACK
6
CONTINUOUS
10
6.89401
20
-3.66884
11
6.89417
21
-3.66892
0
LINE
8
BLACK
6
CONTINUOUS
10
6.89417
20
-3.66892
11
6.89792
21
-3.67267
0
LINE
8
BLACK
6
CONTINUOUS
10
6.89792
20
-3.67267
11
6.89851
21
-3.67351
0
LINE
8
BLACK
6
CONTINUOUS
10
6.89851
20
-3.67351
11
6.89853
21
-3.67368
0
LINE
8
BLACK
6
CONTINUOUS
10
6.89853
20
-3.67368
11
6.89864
21
-3.67382
0
LINE
8
BLACK
6
CONTINUOUS
10
6.89864
20
-3.67382
11
6.90051
21
-3.67945
0
LINE
8
BLACK
6
CONTINUOUS
10
6.90051
20
-3.67945
11
6.90064
21
-3.68032
0
LINE
8
BLACK
6
CONTINUOUS
10
6.90064
20
-3.68032
11
6.90066
21
-3.68038
0
LINE
8
BLACK
6
CONTINUOUS
10
6.90066
20
-3.68038
11
6.90066
21
-3.68413
0
LINE
8
BLACK
6
CONTINUOUS
10
6.90066
20
-3.68413
11
6.90048
21
-3.68514
0
LINE
8
BLACK
6
CONTINUOUS
10
6.90048
20
-3.68514
11
6.89919
21
-3.68669
0
LINE
8
BLACK
6
CONTINUOUS
10
6.89919
20
-3.68669
11
6.8972
21
-3.68704
0
LINE
8
BLACK
6
CONTINUOUS
10
6.8972
20
-3.68704
11
6.89545
21
-3.68603
0
LINE
8
BLACK
6
CONTINUOUS
10
6.89545
20
-3.68603
11
6.89476
21
-3.68413
0
LINE
8
BLACK
6
CONTINUOUS
10
6.89476
20
-3.68413
11
6.89476
21
-3.68086
0
LINE
8
BLACK
6
CONTINUOUS
10
6.89476
20
-3.68086
11
6.89325
21
-3.67635
0
LINE
8
BLACK
6
CONTINUOUS
10
6.89325
20
-3.67635
11
6.89049
21
-3.67359
0
LINE
8
BLACK
6
CONTINUOUS
10
6.89049
20
-3.67359
11
6.88598
21
-3.67208
0
LINE
8
BLACK
6
CONTINUOUS
10
6.88598
20
-3.67208
11
6.85834
21
-3.67208
0
LINE
8
BLACK
6
CONTINUOUS
10
6.85834
20
-3.67208
11
6.85733
21
-3.67191
0
LINE
8
BLACK
6
CONTINUOUS
10
6.85733
20
-3.67191
11
6.85578
21
-3.67061
0
LINE
8
BLACK
6
CONTINUOUS
10
6.85578
20
-3.67061
11
6.85543
21
-3.66862
0
LINE
8
BLACK
6
CONTINUOUS
10
6.85543
20
-3.66862
11
6.85644
21
-3.66687
0
LINE
8
BLACK
6
CONTINUOUS
10
6.85644
20
-3.66687
11
6.85834
21
-3.66618
0
LINE
8
BLACK
6
CONTINUOUS
10
6.85834
20
-3.66618
11
6.88646
21
-3.66618
0
LINE
8
BLACK
6
CONTINUOUS
10
6.88646
20
-3.66618
11
6.88733
21
-3.66633
0
LINE
8
BLACK
6
CONTINUOUS
10
6.87046
20
-3.62696
11
6.87052
21
-3.62696
0
LINE
8
BLACK
6
CONTINUOUS
10
6.87052
20
-3.62696
11
6.87615
21
-3.62883
0
LINE
8
BLACK
6
CONTINUOUS
10
6.87615
20
-3.62883
11
6.87705
21
-3.62932
0
LINE
8
BLACK
6
CONTINUOUS
10
6.87705
20
-3.62932
11
6.87714
21
-3.62947
0
LINE
8
BLACK
6
CONTINUOUS
10
6.87714
20
-3.62947
11
6.8773
21
-3.62955
0
LINE
8
BLACK
6
CONTINUOUS
10
6.8773
20
-3.62955
11
6.89476
21
-3.647
0
LINE
8
BLACK
6
CONTINUOUS
10
6.89476
20
-3.647
11
6.89476
21
-3.62976
0
LINE
8
BLACK
6
CONTINUOUS
10
6.89476
20
-3.62976
11
6.89493
21
-3.62875
0
LINE
8
BLACK
6
CONTINUOUS
10
6.89493
20
-3.62875
11
6.89623
21
-3.6272
0
LINE
8
BLACK
6
CONTINUOUS
10
6.89623
20
-3.6272
11
6.89822
21
-3.62685
0
LINE
8
BLACK
6
CONTINUOUS
10
6.89822
20
-3.62685
11
6.89997
21
-3.62786
0
LINE
8
BLACK
6
CONTINUOUS
10
6.89997
20
-3.62786
11
6.90066
21
-3.62976
0
LINE
8
BLACK
6
CONTINUOUS
10
6.90066
20
-3.62976
11
6.90066
21
-3.65413
0
LINE
8
BLACK
6
CONTINUOUS
10
6.90066
20
-3.65413
11
6.90055
21
-3.65477
0
LINE
8
BLACK
6
CONTINUOUS
10
6.90055
20
-3.65477
11
6.90056
21
-3.6549
0
LINE
8
BLACK
6
CONTINUOUS
10
6.90056
20
-3.6549
11
6.90052
21
-3.65496
0
LINE
8
BLACK
6
CONTINUOUS
10
6.90052
20
-3.65496
11
6.90048
21
-3.65514
0
LINE
8
BLACK
6
CONTINUOUS
10
6.90048
20
-3.65514
11
6.89991
21
-3.65582
0
LINE
8
BLACK
6
CONTINUOUS
10
6.89991
20
-3.65582
11
6.8994
21
-3.65655
0
LINE
8
BLACK
6
CONTINUOUS
10
6.8994
20
-3.65655
11
6.89927
21
-3.65659
0
LINE
8
BLACK
6
CONTINUOUS
10
6.89927
20
-3.65659
11
6.89919
21
-3.65669
0
LINE
8
BLACK
6
CONTINUOUS
10
6.89919
20
-3.65669
11
6.89831
21
-3.65684
0
LINE
8
BLACK
6
CONTINUOUS
10
6.89831
20
-3.65684
11
6.89745
21
-3.65707
0
LINE
8
BLACK
6
CONTINUOUS
10
6.89745
20
-3.65707
11
6.89733
21
-3.65702
0
LINE
8
BLACK
6
CONTINUOUS
10
6.89733
20
-3.65702
11
6.8972
21
-3.65704
0
LINE
8
BLACK
6
CONTINUOUS
10
6.8972
20
-3.65704
11
6.89643
21
-3.6566
0
LINE
8
BLACK
6
CONTINUOUS
10
6.89643
20
-3.6566
11
6.89562
21
-3.65622
0
LINE
8
BLACK
6
CONTINUOUS
10
6.89562
20
-3.65622
11
6.87362
21
-3.63422
0
LINE
8
BLACK
6
CONTINUOUS
10
6.87362
20
-3.63422
11
6.86911
21
-3.63271
0
LINE
8
BLACK
6
CONTINUOUS
10
6.86911
20
-3.63271
11
6.86654
21
-3.63271
0
LINE
8
BLACK
6
CONTINUOUS
10
6.86654
20
-3.63271
11
6.86384
21
-3.63406
0
LINE
8
BLACK
6
CONTINUOUS
10
6.86384
20
-3.63406
11
6.86264
21
-3.63526
0
LINE
8
BLACK
6
CONTINUOUS
10
6.86264
20
-3.63526
11
6.86129
21
-3.63796
0
LINE
8
BLACK
6
CONTINUOUS
10
6.86129
20
-3.63796
11
6.86129
21
-3.64594
0
LINE
8
BLACK
6
CONTINUOUS
10
6.86129
20
-3.64594
11
6.86264
21
-3.64863
0
LINE
8
BLACK
6
CONTINUOUS
10
6.86264
20
-3.64863
11
6.86418
21
-3.65017
0
LINE
8
BLACK
6
CONTINUOUS
10
6.86418
20
-3.65017
11
6.86476
21
-3.65101
0
LINE
8
BLACK
6
CONTINUOUS
10
6.86476
20
-3.65101
11
6.86494
21
-3.65302
0
LINE
8
BLACK
6
CONTINUOUS
10
6.86494
20
-3.65302
11
6.86378
21
-3.65468
0
LINE
8
BLACK
6
CONTINUOUS
10
6.86378
20
-3.65468
11
6.86183
21
-3.6552
0
LINE
8
BLACK
6
CONTINUOUS
10
6.86183
20
-3.6552
11
6.86
21
-3.65435
0
LINE
8
BLACK
6
CONTINUOUS
10
6.86
20
-3.65435
11
6.85813
21
-3.65247
0
LINE
8
BLACK
6
CONTINUOUS
10
6.85813
20
-3.65247
11
6.85762
21
-3.65175
0
LINE
8
BLACK
6
CONTINUOUS
10
6.85762
20
-3.65175
11
6.85757
21
-3.6517
0
LINE
8
BLACK
6
CONTINUOUS
10
6.85757
20
-3.6517
11
6.8557
21
-3.64795
0
LINE
8
BLACK
6
CONTINUOUS
10
6.8557
20
-3.64795
11
6.85541
21
-3.64697
0
LINE
8
BLACK
6
CONTINUOUS
10
6.85541
20
-3.64697
11
6.85545
21
-3.6468
0
LINE
8
BLACK
6
CONTINUOUS
10
6.85545
20
-3.6468
11
6.85539
21
-3.64663
0
LINE
8
BLACK
6
CONTINUOUS
10
6.85539
20
-3.64663
11
6.85539
21
-3.63726
0
LINE
8
BLACK
6
CONTINUOUS
10
6.85539
20
-3.63726
11
6.85556
21
-3.63625
0
LINE
8
BLACK
6
CONTINUOUS
10
6.85556
20
-3.63625
11
6.85568
21
-3.63611
0
LINE
8
BLACK
6
CONTINUOUS
10
6.85568
20
-3.63611
11
6.8557
21
-3.63594
0
LINE
8
BLACK
6
CONTINUOUS
10
6.8557
20
-3.63594
11
6.85757
21
-3.63219
0
LINE
8
BLACK
6
CONTINUOUS
10
6.85757
20
-3.63219
11
6.8581
21
-3.63148
0
LINE
8
BLACK
6
CONTINUOUS
10
6.8581
20
-3.63148
11
6.85813
21
-3.63142
0
LINE
8
BLACK
6
CONTINUOUS
10
6.85813
20
-3.63142
11
6.86
21
-3.62955
0
LINE
8
BLACK
6
CONTINUOUS
10
6.86
20
-3.62955
11
6.86072
21
-3.62904
0
LINE
8
BLACK
6
CONTINUOUS
10
6.86072
20
-3.62904
11
6.86077
21
-3.62899
0
LINE
8
BLACK
6
CONTINUOUS
10
6.86077
20
-3.62899
11
6.86452
21
-3.62712
0
LINE
8
BLACK
6
CONTINUOUS
10
6.86452
20
-3.62712
11
6.8655
21
-3.62683
0
LINE
8
BLACK
6
CONTINUOUS
10
6.8655
20
-3.62683
11
6.86567
21
-3.62687
0
LINE
8
BLACK
6
CONTINUOUS
10
6.86567
20
-3.62687
11
6.86584
21
-3.62681
0
LINE
8
BLACK
6
CONTINUOUS
10
6.86584
20
-3.62681
11
6.86959
21
-3.62681
0
LINE
8
BLACK
6
CONTINUOUS
10
6.86959
20
-3.62681
11
6.87046
21
-3.62696
0
LINE
8
BLACK
6
CONTINUOUS
10
7.04886
20
-3.31898
11
7.05025
21
-3.31955
0
LINE
8
BLACK
6
CONTINUOUS
10
7.05025
20
-3.31955
11
7.05083
21
-3.32094
0
LINE
8
BLACK
6
CONTINUOUS
10
7.05083
20
-3.32094
11
7.05083
21
-3.98094
0
LINE
8
BLACK
6
CONTINUOUS
10
7.05083
20
-3.98094
11
7.05025
21
-3.98234
0
LINE
8
BLACK
6
CONTINUOUS
10
7.05025
20
-3.98234
11
7.04886
21
-3.98291
0
LINE
8
BLACK
6
CONTINUOUS
10
7.04886
20
-3.98291
11
6.84386
21
-3.98291
0
LINE
8
BLACK
6
CONTINUOUS
10
6.84386
20
-3.98291
11
6.84247
21
-3.98234
0
LINE
8
BLACK
6
CONTINUOUS
10
6.84247
20
-3.98234
11
6.84189
21
-3.98094
0
LINE
8
BLACK
6
CONTINUOUS
10
6.84189
20
-3.98094
11
6.84189
21
-3.32094
0
LINE
8
BLACK
6
CONTINUOUS
10
6.84189
20
-3.32094
11
6.84247
21
-3.31955
0
LINE
8
BLACK
6
CONTINUOUS
10
6.84247
20
-3.31955
11
6.84386
21
-3.31898
0
LINE
8
BLACK
6
CONTINUOUS
10
6.84386
20
-3.31898
11
7.04886
21
-3.31898
0
LINE
8
BLACK
6
CONTINUOUS
10
6.84583
20
-3.32291
11
6.84583
21
-3.97898
0
LINE
8
BLACK
6
CONTINUOUS
10
6.84583
20
-3.97898
11
7.04689
21
-3.97898
0
LINE
8
BLACK
6
CONTINUOUS
10
7.04689
20
-3.97898
11
7.04689
21
-3.32291
0
LINE
8
BLACK
6
CONTINUOUS
10
7.04689
20
-3.32291
11
6.84583
21
-3.32291
0
LINE
8
BLACK
6
CONTINUOUS
10
5.09887
20
-2.9222
11
5.11275
21
-2.92456
0
LINE
8
BLACK
6
CONTINUOUS
10
5.11275
20
-2.92456
11
5.12629
21
-2.92846
0
LINE
8
BLACK
6
CONTINUOUS
10
5.12629
20
-2.92846
11
5.1393
21
-2.93385
0
LINE
8
BLACK
6
CONTINUOUS
10
5.1393
20
-2.93385
11
5.15163
21
-2.94066
0
LINE
8
BLACK
6
CONTINUOUS
10
5.15163
20
-2.94066
11
5.16311
21
-2.94881
0
LINE
8
BLACK
6
CONTINUOUS
10
5.16311
20
-2.94881
11
5.17362
21
-2.9582
0
LINE
8
BLACK
6
CONTINUOUS
10
5.17362
20
-2.9582
11
5.183
21
-2.9687
0
LINE
8
BLACK
6
CONTINUOUS
10
5.183
20
-2.9687
11
5.19115
21
-2.98018
0
LINE
8
BLACK
6
CONTINUOUS
10
5.19115
20
-2.98018
11
5.19796
21
-2.99251
0
LINE
8
BLACK
6
CONTINUOUS
10
5.19796
20
-2.99251
11
5.20335
21
-3.00552
0
LINE
8
BLACK
6
CONTINUOUS
10
5.20335
20
-3.00552
11
5.20725
21
-3.01906
0
LINE
8
BLACK
6
CONTINUOUS
10
5.20725
20
-3.01906
11
5.20961
21
-3.03295
0
LINE
8
BLACK
6
CONTINUOUS
10
5.20961
20
-3.03295
11
5.2104
21
-3.04701
0
LINE
8
BLACK
6
CONTINUOUS
10
5.2104
20
-3.04701
11
5.20961
21
-3.06107
0
LINE
8
BLACK
6
CONTINUOUS
10
5.20961
20
-3.06107
11
5.20725
21
-3.07496
0
LINE
8
BLACK
6
CONTINUOUS
10
5.20725
20
-3.07496
11
5.20335
21
-3.08849
0
LINE
8
BLACK
6
CONTINUOUS
10
5.20335
20
-3.08849
11
5.19796
21
-3.1015
0
LINE
8
BLACK
6
CONTINUOUS
10
5.19796
20
-3.1015
11
5.19115
21
-3.11383
0
LINE
8
BLACK
6
CONTINUOUS
10
5.19115
20
-3.11383
11
5.183
21
-3.12532
0
LINE
8
BLACK
6
CONTINUOUS
10
5.183
20
-3.12532
11
5.17362
21
-3.13582
0
LINE
8
BLACK
6
CONTINUOUS
10
5.17362
20
-3.13582
11
5.16311
21
-3.14521
0
LINE
8
BLACK
6
CONTINUOUS
10
5.16311
20
-3.14521
11
5.15163
21
-3.15336
0
LINE
8
BLACK
6
CONTINUOUS
10
5.15163
20
-3.15336
11
5.1393
21
-3.16017
0
LINE
8
BLACK
6
CONTINUOUS
10
5.1393
20
-3.16017
11
5.12629
21
-3.16556
0
LINE
8
BLACK
6
CONTINUOUS
10
5.12629
20
-3.16556
11
5.11275
21
-3.16946
0
LINE
8
BLACK
6
CONTINUOUS
10
5.11275
20
-3.16946
11
5.09887
21
-3.17182
0
LINE
8
BLACK
6
CONTINUOUS
10
5.09887
20
-3.17182
11
5.0848
21
-3.17261
0
LINE
8
BLACK
6
CONTINUOUS
10
5.0848
20
-3.17261
11
5.07074
21
-3.17182
0
LINE
8
BLACK
6
CONTINUOUS
10
5.07074
20
-3.17182
11
5.05685
21
-3.16946
0
LINE
8
BLACK
6
CONTINUOUS
10
5.05685
20
-3.16946
11
5.04332
21
-3.16556
0
LINE
8
BLACK
6
CONTINUOUS
10
5.04332
20
-3.16556
11
5.03031
21
-3.16017
0
LINE
8
BLACK
6
CONTINUOUS
10
5.03031
20
-3.16017
11
5.01798
21
-3.15336
0
LINE
8
BLACK
6
CONTINUOUS
10
5.01798
20
-3.15336
11
5.00649
21
-3.14521
0
LINE
8
BLACK
6
CONTINUOUS
10
5.00649
20
-3.14521
11
4.99599
21
-3.13582
0
LINE
8
BLACK
6
CONTINUOUS
10
4.99599
20
-3.13582
11
4.98661
21
-3.12532
0
LINE
8
BLACK
6
CONTINUOUS
10
4.98661
20
-3.12532
11
4.97845
21
-3.11383
0
LINE
8
BLACK
6
CONTINUOUS
10
4.97845
20
-3.11383
11
4.97164
21
-3.1015
0
LINE
8
BLACK
6
CONTINUOUS
10
4.97164
20
-3.1015
11
4.96625
21
-3.08849
0
LINE
8
BLACK
6
CONTINUOUS
10
4.96625
20
-3.08849
11
4.96235
21
-3.07496
0
LINE
8
BLACK
6
CONTINUOUS
10
4.96235
20
-3.07496
11
4.95999
21
-3.06107
0
LINE
8
BLACK
6
CONTINUOUS
10
4.95999
20
-3.06107
11
4.9592
21
-3.04701
0
LINE
8
BLACK
6
CONTINUOUS
10
4.9592
20
-3.04701
11
4.95999
21
-3.03295
0
LINE
8
BLACK
6
CONTINUOUS
10
4.95999
20
-3.03295
11
4.96235
21
-3.01906
0
LINE
8
BLACK
6
CONTINUOUS
10
4.96235
20
-3.01906
11
4.96625
21
-3.00552
0
LINE
8
BLACK
6
CONTINUOUS
10
4.96625
20
-3.00552
11
4.97164
21
-2.99251
0
LINE
8
BLACK
6
CONTINUOUS
10
4.97164
20
-2.99251
11
4.97845
21
-2.98018
0
LINE
8
BLACK
6
CONTINUOUS
10
4.97845
20
-2.98018
11
4.98661
21
-2.9687
0
LINE
8
BLACK
6
CONTINUOUS
10
4.98661
20
-2.9687
11
4.99599
21
-2.9582
0
LINE
8
BLACK
6
CONTINUOUS
10
4.99599
20
-2.9582
11
5.00649
21
-2.94881
0
LINE
8
BLACK
6
CONTINUOUS
10
5.00649
20
-2.94881
11
5.01798
21
-2.94066
0
LINE
8
BLACK
6
CONTINUOUS
10
5.01798
20
-2.94066
11
5.03031
21
-2.93385
0
LINE
8
BLACK
6
CONTINUOUS
10
5.03031
20
-2.93385
11
5.04332
21
-2.92846
0
LINE
8
BLACK
6
CONTINUOUS
10
5.04332
20
-2.92846
11
5.05685
21
-2.92456
0
LINE
8
BLACK
6
CONTINUOUS
10
5.05685
20
-2.92456
11
5.07074
21
-2.9222
0
LINE
8
BLACK
6
CONTINUOUS
10
5.07074
20
-2.9222
11
5.0848
21
-2.92141
0
LINE
8
BLACK
6
CONTINUOUS
10
5.0848
20
-2.92141
11
5.09887
21
-2.9222
0
LINE
8
BLACK
6
CONTINUOUS
10
4.97476
20
-3.05987
11
4.977
21
-3.07256
0
LINE
8
BLACK
6
CONTINUOUS
10
4.977
20
-3.07256
11
4.9807
21
-3.0849
0
LINE
8
BLACK
6
CONTINUOUS
10
4.9807
20
-3.0849
11
4.9858
21
-3.09673
0
LINE
8
BLACK
6
CONTINUOUS
10
4.9858
20
-3.09673
11
4.99224
21
-3.10789
0
LINE
8
BLACK
6
CONTINUOUS
10
4.99224
20
-3.10789
11
4.99994
21
-3.11822
0
LINE
8
BLACK
6
CONTINUOUS
10
4.99994
20
-3.11822
11
5.00878
21
-3.12759
0
LINE
8
BLACK
6
CONTINUOUS
10
5.00878
20
-3.12759
11
5.01865
21
-3.13587
0
LINE
8
BLACK
6
CONTINUOUS
10
5.01865
20
-3.13587
11
5.02941
21
-3.14295
0
LINE
8
BLACK
6
CONTINUOUS
10
5.02941
20
-3.14295
11
5.04092
21
-3.14873
0
LINE
8
BLACK
6
CONTINUOUS
10
5.04092
20
-3.14873
11
5.05303
21
-3.15314
0
LINE
8
BLACK
6
CONTINUOUS
10
5.05303
20
-3.15314
11
5.06557
21
-3.15611
0
LINE
8
BLACK
6
CONTINUOUS
10
5.06557
20
-3.15611
11
5.07836
21
-3.15761
0
LINE
8
BLACK
6
CONTINUOUS
10
5.07836
20
-3.15761
11
5.09124
21
-3.15761
0
LINE
8
BLACK
6
CONTINUOUS
10
5.09124
20
-3.15761
11
5.10404
21
-3.15611
0
LINE
8
BLACK
6
CONTINUOUS
10
5.10404
20
-3.15611
11
5.11658
21
-3.15314
0
LINE
8
BLACK
6
CONTINUOUS
10
5.11658
20
-3.15314
11
5.12868
21
-3.14873
0
LINE
8
BLACK
6
CONTINUOUS
10
5.12868
20
-3.14873
11
5.1402
21
-3.14295
0
LINE
8
BLACK
6
CONTINUOUS
10
5.1402
20
-3.14295
11
5.15096
21
-3.13587
0
LINE
8
BLACK
6
CONTINUOUS
10
5.15096
20
-3.13587
11
5.16083
21
-3.12759
0
LINE
8
BLACK
6
CONTINUOUS
10
5.16083
20
-3.12759
11
5.16967
21
-3.11822
0
LINE
8
BLACK
6
CONTINUOUS
10
5.16967
20
-3.11822
11
5.17736
21
-3.10789
0
LINE
8
BLACK
6
CONTINUOUS
10
5.17736
20
-3.10789
11
5.18381
21
-3.09673
0
LINE
8
BLACK
6
CONTINUOUS
10
5.18381
20
-3.09673
11
5.18891
21
-3.0849
0
LINE
8
BLACK
6
CONTINUOUS
10
5.18891
20
-3.0849
11
5.1926
21
-3.07256
0
LINE
8
BLACK
6
CONTINUOUS
10
5.1926
20
-3.07256
11
5.19484
21
-3.05987
0
LINE
8
BLACK
6
CONTINUOUS
10
5.19484
20
-3.05987
11
5.19559
21
-3.04701
0
LINE
8
BLACK
6
CONTINUOUS
10
5.19559
20
-3.04701
11
5.19484
21
-3.03415
0
LINE
8
BLACK
6
CONTINUOUS
10
5.19484
20
-3.03415
11
5.1926
21
-3.02146
0
LINE
8
BLACK
6
CONTINUOUS
10
5.1926
20
-3.02146
11
5.18891
21
-3.00912
0
LINE
8
BLACK
6
CONTINUOUS
10
5.18891
20
-3.00912
11
5.18381
21
-2.99729
0
LINE
8
BLACK
6
CONTINUOUS
10
5.18381
20
-2.99729
11
5.17736
21
-2.98613
0
LINE
8
BLACK
6
CONTINUOUS
10
5.17736
20
-2.98613
11
5.16967
21
-2.9758
0
LINE
8
BLACK
6
CONTINUOUS
10
5.16967
20
-2.9758
11
5.16083
21
-2.96642
0
LINE
8
BLACK
6
CONTINUOUS
10
5.16083
20
-2.96642
11
5.15096
21
-2.95814
0
LINE
8
BLACK
6
CONTINUOUS
10
5.15096
20
-2.95814
11
5.1402
21
-2.95106
0
LINE
8
BLACK
6
CONTINUOUS
10
5.1402
20
-2.95106
11
5.12868
21
-2.94528
0
LINE
8
BLACK
6
CONTINUOUS
10
5.12868
20
-2.94528
11
5.11658
21
-2.94087
0
LINE
8
BLACK
6
CONTINUOUS
10
5.11658
20
-2.94087
11
5.10404
21
-2.9379
0
LINE
8
BLACK
6
CONTINUOUS
10
5.10404
20
-2.9379
11
5.09124
21
-2.93641
0
LINE
8
BLACK
6
CONTINUOUS
10
5.09124
20
-2.93641
11
5.07836
21
-2.93641
0
LINE
8
BLACK
6
CONTINUOUS
10
5.07836
20
-2.93641
11
5.06557
21
-2.9379
0
LINE
8
BLACK
6
CONTINUOUS
10
5.06557
20
-2.9379
11
5.05303
21
-2.94087
0
LINE
8
BLACK
6
CONTINUOUS
10
5.05303
20
-2.94087
11
5.04092
21
-2.94528
0
LINE
8
BLACK
6
CONTINUOUS
10
5.04092
20
-2.94528
11
5.02941
21
-2.95106
0
LINE
8
BLACK
6
CONTINUOUS
10
5.02941
20
-2.95106
11
5.01865
21
-2.95814
0
LINE
8
BLACK
6
CONTINUOUS
10
5.01865
20
-2.95814
11
5.00878
21
-2.96642
0
LINE
8
BLACK
6
CONTINUOUS
10
5.00878
20
-2.96642
11
4.99994
21
-2.9758
0
LINE
8
BLACK
6
CONTINUOUS
10
4.99994
20
-2.9758
11
4.99224
21
-2.98613
0
LINE
8
BLACK
6
CONTINUOUS
10
4.99224
20
-2.98613
11
4.9858
21
-2.99729
0
LINE
8
BLACK
6
CONTINUOUS
10
4.9858
20
-2.99729
11
4.9807
21
-3.00912
0
LINE
8
BLACK
6
CONTINUOUS
10
4.9807
20
-3.00912
11
4.977
21
-3.02146
0
LINE
8
BLACK
6
CONTINUOUS
10
4.977
20
-3.02146
11
4.97476
21
-3.03415
0
LINE
8
BLACK
6
CONTINUOUS
10
4.97476
20
-3.03415
11
4.97402
21
-3.04701
0
LINE
8
BLACK
6
CONTINUOUS
10
4.97402
20
-3.04701
11
4.97476
21
-3.05987
0
LINE
8
BLACK
6
CONTINUOUS
10
7.09887
20
-2.9222
11
7.11275
21
-2.92456
0
LINE
8
BLACK
6
CONTINUOUS
10
7.11275
20
-2.92456
11
7.12629
21
-2.92846
0
LINE
8
BLACK
6
CONTINUOUS
10
7.12629
20
-2.92846
11
7.1393
21
-2.93385
0
LINE
8
BLACK
6
CONTINUOUS
10
7.1393
20
-2.93385
11
7.15163
21
-2.94066
0
LINE
8
BLACK
6
CONTINUOUS
10
7.15163
20
-2.94066
11
7.16311
21
-2.94881
0
LINE
8
BLACK
6
CONTINUOUS
10
7.16311
20
-2.94881
11
7.17362
21
-2.9582
0
LINE
8
BLACK
6
CONTINUOUS
10
7.17362
20
-2.9582
11
7.183
21
-2.9687
0
LINE
8
BLACK
6
CONTINUOUS
10
7.183
20
-2.9687
11
7.19115
21
-2.98018
0
LINE
8
BLACK
6
CONTINUOUS
10
7.19115
20
-2.98018
11
7.19796
21
-2.99251
0
LINE
8
BLACK
6
CONTINUOUS
10
7.19796
20
-2.99251
11
7.20335
21
-3.00552
0
LINE
8
BLACK
6
CONTINUOUS
10
7.20335
20
-3.00552
11
7.20725
21
-3.01906
0
LINE
8
BLACK
6
CONTINUOUS
10
7.20725
20
-3.01906
11
7.20961
21
-3.03295
0
LINE
8
BLACK
6
CONTINUOUS
10
7.20961
20
-3.03295
11
7.2104
21
-3.04701
0
LINE
8
BLACK
6
CONTINUOUS
10
7.2104
20
-3.04701
11
7.20961
21
-3.06107
0
LINE
8
BLACK
6
CONTINUOUS
10
7.20961
20
-3.06107
11
7.20725
21
-3.07496
0
LINE
8
BLACK
6
CONTINUOUS
10
7.20725
20
-3.07496
11
7.20335
21
-3.08849
0
LINE
8
BLACK
6
CONTINUOUS
10
7.20335
20
-3.08849
11
7.19796
21
-3.1015
0
LINE
8
BLACK
6
CONTINUOUS
10
7.19796
20
-3.1015
11
7.19115
21
-3.11383
0
LINE
8
BLACK
6
CONTINUOUS
10
7.19115
20
-3.11383
11
7.183
21
-3.12532
0
LINE
8
BLACK
6
CONTINUOUS
10
7.183
20
-3.12532
11
7.17362
21
-3.13582
0
LINE
8
BLACK
6
CONTINUOUS
10
7.17362
20
-3.13582
11
7.16311
21
-3.14521
0
LINE
8
BLACK
6
CONTINUOUS
10
7.16311
20
-3.14521
11
7.15163
21
-3.15336
0
LINE
8
BLACK
6
CONTINUOUS
10
7.15163
20
-3.15336
11
7.1393
21
-3.16017
0
LINE
8
BLACK
6
CONTINUOUS
10
7.1393
20
-3.16017
11
7.12629
21
-3.16556
0
LINE
8
BLACK
6
CONTINUOUS
10
7.12629
20
-3.16556
11
7.11275
21
-3.16946
0
LINE
8
BLACK
6
CONTINUOUS
10
7.11275
20
-3.16946
11
7.09887
21
-3.17182
0
LINE
8
BLACK
6
CONTINUOUS
10
7.09887
20
-3.17182
11
7.0848
21
-3.17261
0
LINE
8
BLACK
6
CONTINUOUS
10
7.0848
20
-3.17261
11
7.07074
21
-3.17182
0
LINE
8
BLACK
6
CONTINUOUS
10
7.07074
20
-3.17182
11
7.05685
21
-3.16946
0
LINE
8
BLACK
6
CONTINUOUS
10
7.05685
20
-3.16946
11
7.04332
21
-3.16556
0
LINE
8
BLACK
6
CONTINUOUS
10
7.04332
20
-3.16556
11
7.03031
21
-3.16017
0
LINE
8
BLACK
6
CONTINUOUS
10
7.03031
20
-3.16017
11
7.01798
21
-3.15336
0
LINE
8
BLACK
6
CONTINUOUS
10
7.01798
20
-3.15336
11
7.00649
21
-3.14521
0
LINE
8
BLACK
6
CONTINUOUS
10
7.00649
20
-3.14521
11
6.99599
21
-3.13582
0
LINE
8
BLACK
6
CONTINUOUS
10
6.99599
20
-3.13582
11
6.98661
21
-3.12532
0
LINE
8
BLACK
6
CONTINUOUS
10
6.98661
20
-3.12532
11
6.97845
21
-3.11383
0
LINE
8
BLACK
6
CONTINUOUS
10
6.97845
20
-3.11383
11
6.97164
21
-3.1015
0
LINE
8
BLACK
6
CONTINUOUS
10
6.97164
20
-3.1015
11
6.96625
21
-3.08849
0
LINE
8
BLACK
6
CONTINUOUS
10
6.96625
20
-3.08849
11
6.96235
21
-3.07496
0
LINE
8
BLACK
6
CONTINUOUS
10
6.96235
20
-3.07496
11
6.95999
21
-3.06107
0
LINE
8
BLACK
6
CONTINUOUS
10
6.95999
20
-3.06107
11
6.9592
21
-3.04701
0
LINE
8
BLACK
6
CONTINUOUS
10
6.9592
20
-3.04701
11
6.95999
21
-3.03295
0
LINE
8
BLACK
6
CONTINUOUS
10
6.95999
20
-3.03295
11
6.96235
21
-3.01906
0
LINE
8
BLACK
6
CONTINUOUS
10
6.96235
20
-3.01906
11
6.96625
21
-3.00552
0
LINE
8
BLACK
6
CONTINUOUS
10
6.96625
20
-3.00552
11
6.97164
21
-2.99251
0
LINE
8
BLACK
6
CONTINUOUS
10
6.97164
20
-2.99251
11
6.97845
21
-2.98018
0
LINE
8
BLACK
6
CONTINUOUS
10
6.97845
20
-2.98018
11
6.98661
21
-2.9687
0
LINE
8
BLACK
6
CONTINUOUS
10
6.98661
20
-2.9687
11
6.99599
21
-2.9582
0
LINE
8
BLACK
6
CONTINUOUS
10
6.99599
20
-2.9582
11
7.00649
21
-2.94881
0
LINE
8
BLACK
6
CONTINUOUS
10
7.00649
20
-2.94881
11
7.01798
21
-2.94066
0
LINE
8
BLACK
6
CONTINUOUS
10
7.01798
20
-2.94066
11
7.03031
21
-2.93385
0
LINE
8
BLACK
6
CONTINUOUS
10
7.03031
20
-2.93385
11
7.04332
21
-2.92846
0
LINE
8
BLACK
6
CONTINUOUS
10
7.04332
20
-2.92846
11
7.05685
21
-2.92456
0
LINE
8
BLACK
6
CONTINUOUS
10
7.05685
20
-2.92456
11
7.07074
21
-2.9222
0
LINE
8
BLACK
6
CONTINUOUS
10
7.07074
20
-2.9222
11
7.0848
21
-2.92141
0
LINE
8
BLACK
6
CONTINUOUS
10
7.0848
20
-2.92141
11
7.09887
21
-2.9222
0
LINE
8
BLACK
6
CONTINUOUS
10
6.97476
20
-3.05987
11
6.977
21
-3.07256
0
LINE
8
BLACK
6
CONTINUOUS
10
6.977
20
-3.07256
11
6.9807
21
-3.0849
0
LINE
8
BLACK
6
CONTINUOUS
10
6.9807
20
-3.0849
11
6.9858
21
-3.09673
0
LINE
8
BLACK
6
CONTINUOUS
10
6.9858
20
-3.09673
11
6.99224
21
-3.10789
0
LINE
8
BLACK
6
CONTINUOUS
10
6.99224
20
-3.10789
11
6.99994
21
-3.11822
0
LINE
8
BLACK
6
CONTINUOUS
10
6.99994
20
-3.11822
11
7.00878
21
-3.12759
0
LINE
8
BLACK
6
CONTINUOUS
10
7.00878
20
-3.12759
11
7.01865
21
-3.13587
0
LINE
8
BLACK
6
CONTINUOUS
10
7.01865
20
-3.13587
11
7.02941
21
-3.14295
0
LINE
8
BLACK
6
CONTINUOUS
10
7.02941
20
-3.14295
11
7.04092
21
-3.14873
0
LINE
8
BLACK
6
CONTINUOUS
10
7.04092
20
-3.14873
11
7.05303
21
-3.15314
0
LINE
8
BLACK
6
CONTINUOUS
10
7.05303
20
-3.15314
11
7.06557
21
-3.15611
0
LINE
8
BLACK
6
CONTINUOUS
10
7.06557
20
-3.15611
11
7.07836
21
-3.15761
0
LINE
8
BLACK
6
CONTINUOUS
10
7.07836
20
-3.15761
11
7.09124
21
-3.15761
0
LINE
8
BLACK
6
CONTINUOUS
10
7.09124
20
-3.15761
11
7.10404
21
-3.15611
0
LINE
8
BLACK
6
CONTINUOUS
10
7.10404
20
-3.15611
11
7.11658
21
-3.15314
0
LINE
8
BLACK
6
CONTINUOUS
10
7.11658
20
-3.15314
11
7.12868
21
-3.14873
0
LINE
8
BLACK
6
CONTINUOUS
10
7.12868
20
-3.14873
11
7.1402
21
-3.14295
0
LINE
8
BLACK
6
CONTINUOUS
10
7.1402
20
-3.14295
11
7.15096
21
-3.13587
0
LINE
8
BLACK
6
CONTINUOUS
10
7.15096
20
-3.13587
11
7.16083
21
-3.12759
0
LINE
8
BLACK
6
CONTINUOUS
10
7.16083
20
-3.12759
11
7.16967
21
-3.11822
0
LINE
8
BLACK
6
CONTINUOUS
10
7.16967
20
-3.11822
11
7.17736
21
-3.10789
0
LINE
8
BLACK
6
CONTINUOUS
10
7.17736
20
-3.10789
11
7.18381
21
-3.09673
0
LINE
8
BLACK
6
CONTINUOUS
10
7.18381
20
-3.09673
11
7.18891
21
-3.0849
0
LINE
8
BLACK
6
CONTINUOUS
10
7.18891
20
-3.0849
11
7.1926
21
-3.07256
0
LINE
8
BLACK
6
CONTINUOUS
10
7.1926
20
-3.07256
11
7.19484
21
-3.05987
0
LINE
8
BLACK
6
CONTINUOUS
10
7.19484
20
-3.05987
11
7.19559
21
-3.04701
0
LINE
8
BLACK
6
CONTINUOUS
10
7.19559
20
-3.04701
11
7.19484
21
-3.03415
0
LINE
8
BLACK
6
CONTINUOUS
10
7.19484
20
-3.03415
11
7.1926
21
-3.02146
0
LINE
8
BLACK
6
CONTINUOUS
10
7.1926
20
-3.02146
11
7.18891
21
-3.00912
0
LINE
8
BLACK
6
CONTINUOUS
10
7.18891
20
-3.00912
11
7.18381
21
-2.99729
0
LINE
8
BLACK
6
CONTINUOUS
10
7.18381
20
-2.99729
11
7.17736
21
-2.98613
0
LINE
8
BLACK
6
CONTINUOUS
10
7.17736
20
-2.98613
11
7.16967
21
-2.9758
0
LINE
8
BLACK
6
CONTINUOUS
10
7.16967
20
-2.9758
11
7.16083
21
-2.96642
0
LINE
8
BLACK
6
CONTINUOUS
10
7.16083
20
-2.96642
11
7.15096
21
-2.95814
0
LINE
8
BLACK
6
CONTINUOUS
10
7.15096
20
-2.95814
11
7.1402
21
-2.95106
0
LINE
8
BLACK
6
CONTINUOUS
10
7.1402
20
-2.95106
11
7.12868
21
-2.94528
0
LINE
8
BLACK
6
CONTINUOUS
10
7.12868
20
-2.94528
11
7.11658
21
-2.94087
0
LINE
8
BLACK
6
CONTINUOUS
10
7.11658
20
-2.94087
11
7.10404
21
-2.9379
0
LINE
8
BLACK
6
CONTINUOUS
10
7.10404
20
-2.9379
11
7.09124
21
-2.93641
0
LINE
8
BLACK
6
CONTINUOUS
10
7.09124
20
-2.93641
11
7.07836
21
-2.93641
0
LINE
8
BLACK
6
CONTINUOUS
10
7.07836
20
-2.93641
11
7.06557
21
-2.9379
0
LINE
8
BLACK
6
CONTINUOUS
10
7.06557
20
-2.9379
11
7.05303
21
-2.94087
0
LINE
8
BLACK
6
CONTINUOUS
10
7.05303
20
-2.94087
11
7.04092
21
-2.94528
0
LINE
8
BLACK
6
CONTINUOUS
10
7.04092
20
-2.94528
11
7.02941
21
-2.95106
0
LINE
8
BLACK
6
CONTINUOUS
10
7.02941
20
-2.95106
11
7.01865
21
-2.95814
0
LINE
8
BLACK
6
CONTINUOUS
10
7.01865
20
-2.95814
11
7.00878
21
-2.96642
0
LINE
8
BLACK
6
CONTINUOUS
10
7.00878
20
-2.96642
11
6.99994
21
-2.9758
0
LINE
8
BLACK
6
CONTINUOUS
10
6.99994
20
-2.9758
11
6.99224
21
-2.98613
0
LINE
8
BLACK
6
CONTINUOUS
10
6.99224
20
-2.98613
11
6.9858
21
-2.99729
0
LINE
8
BLACK
6
CONTINUOUS
10
6.9858
20
-2.99729
11
6.9807
21
-3.00912
0
LINE
8
BLACK
6
CONTINUOUS
10
6.9807
20
-3.00912
11
6.977
21
-3.02146
0
LINE
8
BLACK
6
CONTINUOUS
10
6.977
20
-3.02146
11
6.97476
21
-3.03415
0
LINE
8
BLACK
6
CONTINUOUS
10
6.97476
20
-3.03415
11
6.97402
21
-3.04701
0
LINE
8
BLACK
6
CONTINUOUS
10
6.97402
20
-3.04701
11
6.97476
21
-3.05987
  0
ENDSEC
  0
EOF
