  0
SECTION
  2
HEADER
  9
$ANGBASE
  50
0.0
  9
$ANGDIR
  70
1
  9
$MEASUREMENT
  70
0
  0
ENDSEC
  0
SECTION
  2
TABLES
  0
TABLE
  2
LTYPE
  70
4
  0
LTYPE
  5
40F
  2
CONTINUOUS
  70
0
  3
Solid line
  72
65
  73
0
  40
0.0
  0
LTYPE
  5
410
  2
DASHDOT
 70
0
  3
Dash Dot ____ _ ____ _
 72
65
 73
4
 40
2.0
 49
1.25
 49
-0.25
 49
0.25
 49
-0.25
  0
LTYPE
  5
411
  2
DASHED
 70
0
  3
Dashed __ __ __ __ __
 72
65
 73
2
 40
0.75
 49
0.5
 49
-0.25
  0
LTYPE
  5
43B
  2
DOTTED
 70
0
  3
Dotted .  .  .  .
 72
65
 73
2
 40
0.2
 49
0.0
 49
-0.2
  0
ENDTAB
  0
TABLE
  2
STYLE
  70
4
  0
STYLE
  2
KICAD
  70
0
  40
0
  41
1
  42
1
  50
0
  71
0
  3
isocp.shx
  0
STYLE
  2
KICADB
  70
0
  40
0
  41
1
  42
1
  50
0
  71
0
  3
isocp.shx
  0
STYLE
  2
KICADI
  70
0
  40
0
  41
1
  42
1
  50
15
  71
0
  3
isocp.shx
  0
STYLE
  2
KICADBI
  70
0
  40
0
  41
1
  42
1
  50
15
  71
0
  3
isocp.shx
  0
ENDTAB
  0
TABLE
  2
LAYER
  70
1
  0
LAYER
  2
BLACK
  70
0
  62
7
  6
CONTINUOUS
  0
ENDTAB
  0
ENDSEC
  0
SECTION
  2
ENTITIES
0
LINE
8
BLACK
6
CONTINUOUS
10
5.6455
20
-3.82604
11
5.64619
21
-3.82633
0
LINE
8
BLACK
6
CONTINUOUS
10
5.64619
20
-3.82633
11
5.64648
21
-3.82702
0
LINE
8
BLACK
6
CONTINUOUS
10
5.64648
20
-3.82702
11
5.64648
21
-3.90419
0
LINE
8
BLACK
6
CONTINUOUS
10
5.64648
20
-3.90419
11
5.64619
21
-3.90488
0
LINE
8
BLACK
6
CONTINUOUS
10
5.64619
20
-3.90488
11
5.6455
21
-3.90517
0
LINE
8
BLACK
6
CONTINUOUS
10
5.6455
20
-3.90517
11
5.51164
21
-3.90517
0
LINE
8
BLACK
6
CONTINUOUS
10
5.51164
20
-3.90517
11
5.51094
21
-3.90488
0
LINE
8
BLACK
6
CONTINUOUS
10
5.51094
20
-3.90488
11
5.51065
21
-3.90419
0
LINE
8
BLACK
6
CONTINUOUS
10
5.51065
20
-3.90419
11
5.51065
21
-3.82702
0
LINE
8
BLACK
6
CONTINUOUS
10
5.51065
20
-3.82702
11
5.51094
21
-3.82633
0
LINE
8
BLACK
6
CONTINUOUS
10
5.51094
20
-3.82633
11
5.51164
21
-3.82604
0
LINE
8
BLACK
6
CONTINUOUS
10
5.51164
20
-3.82604
11
5.6455
21
-3.82604
0
LINE
8
BLACK
6
CONTINUOUS
10
5.51262
20
-3.82801
11
5.51262
21
-3.9032
0
LINE
8
BLACK
6
CONTINUOUS
10
5.51262
20
-3.9032
11
5.64451
21
-3.9032
0
LINE
8
BLACK
6
CONTINUOUS
10
5.64451
20
-3.9032
11
5.64451
21
-3.82801
0
LINE
8
BLACK
6
CONTINUOUS
10
5.64451
20
-3.82801
11
5.51262
21
-3.82801
0
LINE
8
BLACK
6
CONTINUOUS
10
6.55973
20
-3.82344
11
6.56043
21
-3.82373
0
LINE
8
BLACK
6
CONTINUOUS
10
6.56043
20
-3.82373
11
6.56072
21
-3.82443
0
LINE
8
BLACK
6
CONTINUOUS
10
6.56072
20
-3.82443
11
6.56072
21
-3.90159
0
LINE
8
BLACK
6
CONTINUOUS
10
6.56072
20
-3.90159
11
6.56043
21
-3.90229
0
LINE
8
BLACK
6
CONTINUOUS
10
6.56043
20
-3.90229
11
6.55973
21
-3.90257
0
LINE
8
BLACK
6
CONTINUOUS
10
6.55973
20
-3.90257
11
6.42587
21
-3.90257
0
LINE
8
BLACK
6
CONTINUOUS
10
6.42587
20
-3.90257
11
6.42518
21
-3.90229
0
LINE
8
BLACK
6
CONTINUOUS
10
6.42518
20
-3.90229
11
6.42489
21
-3.90159
0
LINE
8
BLACK
6
CONTINUOUS
10
6.42489
20
-3.90159
11
6.42489
21
-3.82443
0
LINE
8
BLACK
6
CONTINUOUS
10
6.42489
20
-3.82443
11
6.42518
21
-3.82373
0
LINE
8
BLACK
6
CONTINUOUS
10
6.42518
20
-3.82373
11
6.42587
21
-3.82344
0
LINE
8
BLACK
6
CONTINUOUS
10
6.42587
20
-3.82344
11
6.55973
21
-3.82344
0
LINE
8
BLACK
6
CONTINUOUS
10
6.42686
20
-3.82541
11
6.42686
21
-3.90061
0
LINE
8
BLACK
6
CONTINUOUS
10
6.42686
20
-3.90061
11
6.55875
21
-3.90061
0
LINE
8
BLACK
6
CONTINUOUS
10
6.55875
20
-3.90061
11
6.55875
21
-3.82541
0
LINE
8
BLACK
6
CONTINUOUS
10
6.55875
20
-3.82541
11
6.42686
21
-3.82541
0
LINE
8
BLACK
6
CONTINUOUS
10
5.7937
20
-3.82656
11
5.7944
21
-3.82685
0
LINE
8
BLACK
6
CONTINUOUS
10
5.7944
20
-3.82685
11
5.79469
21
-3.82754
0
LINE
8
BLACK
6
CONTINUOUS
10
5.79469
20
-3.82754
11
5.79469
21
-3.89447
0
LINE
8
BLACK
6
CONTINUOUS
10
5.79469
20
-3.89447
11
5.7944
21
-3.89517
0
LINE
8
BLACK
6
CONTINUOUS
10
5.7944
20
-3.89517
11
5.7937
21
-3.89546
0
LINE
8
BLACK
6
CONTINUOUS
10
5.7937
20
-3.89546
11
5.65591
21
-3.89546
0
LINE
8
BLACK
6
CONTINUOUS
10
5.65591
20
-3.89546
11
5.65521
21
-3.89517
0
LINE
8
BLACK
6
CONTINUOUS
10
5.65521
20
-3.89517
11
5.65492
21
-3.89447
0
LINE
8
BLACK
6
CONTINUOUS
10
5.65492
20
-3.89447
11
5.65492
21
-3.82754
0
LINE
8
BLACK
6
CONTINUOUS
10
5.65492
20
-3.82754
11
5.65521
21
-3.82685
0
LINE
8
BLACK
6
CONTINUOUS
10
5.65521
20
-3.82685
11
5.65591
21
-3.82656
0
LINE
8
BLACK
6
CONTINUOUS
10
5.65591
20
-3.82656
11
5.7937
21
-3.82656
0
LINE
8
BLACK
6
CONTINUOUS
10
5.65689
20
-3.82853
11
5.65689
21
-3.89349
0
LINE
8
BLACK
6
CONTINUOUS
10
5.65689
20
-3.89349
11
5.79272
21
-3.89349
0
LINE
8
BLACK
6
CONTINUOUS
10
5.79272
20
-3.89349
11
5.79272
21
-3.82853
0
LINE
8
BLACK
6
CONTINUOUS
10
5.79272
20
-3.82853
11
5.65689
21
-3.82853
0
LINE
8
BLACK
6
CONTINUOUS
10
6.1037
20
-3.82456
11
6.1044
21
-3.82485
0
LINE
8
BLACK
6
CONTINUOUS
10
6.1044
20
-3.82485
11
6.10469
21
-3.82554
0
LINE
8
BLACK
6
CONTINUOUS
10
6.10469
20
-3.82554
11
6.10469
21
-3.89247
0
LINE
8
BLACK
6
CONTINUOUS
10
6.10469
20
-3.89247
11
6.1044
21
-3.89317
0
LINE
8
BLACK
6
CONTINUOUS
10
6.1044
20
-3.89317
11
6.1037
21
-3.89346
0
LINE
8
BLACK
6
CONTINUOUS
10
6.1037
20
-3.89346
11
5.96591
21
-3.89346
0
LINE
8
BLACK
6
CONTINUOUS
10
5.96591
20
-3.89346
11
5.96521
21
-3.89317
0
LINE
8
BLACK
6
CONTINUOUS
10
5.96521
20
-3.89317
11
5.96492
21
-3.89247
0
LINE
8
BLACK
6
CONTINUOUS
10
5.96492
20
-3.89247
11
5.96492
21
-3.82554
0
LINE
8
BLACK
6
CONTINUOUS
10
5.96492
20
-3.82554
11
5.96521
21
-3.82485
0
LINE
8
BLACK
6
CONTINUOUS
10
5.96521
20
-3.82485
11
5.96591
21
-3.82456
0
LINE
8
BLACK
6
CONTINUOUS
10
5.96591
20
-3.82456
11
6.1037
21
-3.82456
0
LINE
8
BLACK
6
CONTINUOUS
10
5.96689
20
-3.82653
11
5.96689
21
-3.89149
0
LINE
8
BLACK
6
CONTINUOUS
10
5.96689
20
-3.89149
11
6.10272
21
-3.89149
0
LINE
8
BLACK
6
CONTINUOUS
10
6.10272
20
-3.89149
11
6.10272
21
-3.82653
0
LINE
8
BLACK
6
CONTINUOUS
10
6.10272
20
-3.82653
11
5.96689
21
-3.82653
0
LINE
8
BLACK
6
CONTINUOUS
10
6.4147
20
-3.82356
11
6.4154
21
-3.82385
0
LINE
8
BLACK
6
CONTINUOUS
10
6.4154
20
-3.82385
11
6.41569
21
-3.82454
0
LINE
8
BLACK
6
CONTINUOUS
10
6.41569
20
-3.82454
11
6.41569
21
-3.89147
0
LINE
8
BLACK
6
CONTINUOUS
10
6.41569
20
-3.89147
11
6.4154
21
-3.89217
0
LINE
8
BLACK
6
CONTINUOUS
10
6.4154
20
-3.89217
11
6.4147
21
-3.89246
0
LINE
8
BLACK
6
CONTINUOUS
10
6.4147
20
-3.89246
11
6.27691
21
-3.89246
0
LINE
8
BLACK
6
CONTINUOUS
10
6.27691
20
-3.89246
11
6.27621
21
-3.89217
0
LINE
8
BLACK
6
CONTINUOUS
10
6.27621
20
-3.89217
11
6.27592
21
-3.89147
0
LINE
8
BLACK
6
CONTINUOUS
10
6.27592
20
-3.89147
11
6.27592
21
-3.82454
0
LINE
8
BLACK
6
CONTINUOUS
10
6.27592
20
-3.82454
11
6.27621
21
-3.82385
0
LINE
8
BLACK
6
CONTINUOUS
10
6.27621
20
-3.82385
11
6.27691
21
-3.82356
0
LINE
8
BLACK
6
CONTINUOUS
10
6.27691
20
-3.82356
11
6.4147
21
-3.82356
0
LINE
8
BLACK
6
CONTINUOUS
10
6.27789
20
-3.82553
11
6.27789
21
-3.89049
0
LINE
8
BLACK
6
CONTINUOUS
10
6.27789
20
-3.89049
11
6.41372
21
-3.89049
0
LINE
8
BLACK
6
CONTINUOUS
10
6.41372
20
-3.89049
11
6.41372
21
-3.82553
0
LINE
8
BLACK
6
CONTINUOUS
10
6.41372
20
-3.82553
11
6.27789
21
-3.82553
0
LINE
8
BLACK
6
CONTINUOUS
10
5.95627
20
-3.75072
11
5.95696
21
-3.75101
0
LINE
8
BLACK
6
CONTINUOUS
10
5.95696
20
-3.75101
11
5.95725
21
-3.75171
0
LINE
8
BLACK
6
CONTINUOUS
10
5.95725
20
-3.75171
11
5.95725
21
-3.8895
0
LINE
8
BLACK
6
CONTINUOUS
10
5.95725
20
-3.8895
11
5.95696
21
-3.8902
0
LINE
8
BLACK
6
CONTINUOUS
10
5.95696
20
-3.8902
11
5.95627
21
-3.89049
0
LINE
8
BLACK
6
CONTINUOUS
10
5.95627
20
-3.89049
11
5.88934
21
-3.89049
0
LINE
8
BLACK
6
CONTINUOUS
10
5.88934
20
-3.89049
11
5.88864
21
-3.8902
0
LINE
8
BLACK
6
CONTINUOUS
10
5.88864
20
-3.8902
11
5.88835
21
-3.8895
0
LINE
8
BLACK
6
CONTINUOUS
10
5.88835
20
-3.8895
11
5.88835
21
-3.8895
0
LINE
8
BLACK
6
CONTINUOUS
10
5.88835
20
-3.8895
11
5.88835
21
-3.75171
0
LINE
8
BLACK
6
CONTINUOUS
10
5.88835
20
-3.75171
11
5.88864
21
-3.75101
0
LINE
8
BLACK
6
CONTINUOUS
10
5.88864
20
-3.75101
11
5.88934
21
-3.75072
0
LINE
8
BLACK
6
CONTINUOUS
10
5.88934
20
-3.75072
11
5.95627
21
-3.75072
0
LINE
8
BLACK
6
CONTINUOUS
10
5.89032
20
-3.75269
11
5.89032
21
-3.88852
0
LINE
8
BLACK
6
CONTINUOUS
10
5.89032
20
-3.88852
11
5.95528
21
-3.88852
0
LINE
8
BLACK
6
CONTINUOUS
10
5.95528
20
-3.88852
11
5.95528
21
-3.75269
0
LINE
8
BLACK
6
CONTINUOUS
10
5.95528
20
-3.75269
11
5.89032
21
-3.75269
0
LINE
8
BLACK
6
CONTINUOUS
10
5.88139
20
-3.75269
11
5.88208
21
-3.75298
0
LINE
8
BLACK
6
CONTINUOUS
10
5.88208
20
-3.75298
11
5.88237
21
-3.75368
0
LINE
8
BLACK
6
CONTINUOUS
10
5.88237
20
-3.75368
11
5.88237
21
-3.88754
0
LINE
8
BLACK
6
CONTINUOUS
10
5.88237
20
-3.88754
11
5.88208
21
-3.88823
0
LINE
8
BLACK
6
CONTINUOUS
10
5.88208
20
-3.88823
11
5.88139
21
-3.88852
0
LINE
8
BLACK
6
CONTINUOUS
10
5.88139
20
-3.88852
11
5.80422
21
-3.88852
0
LINE
8
BLACK
6
CONTINUOUS
10
5.80422
20
-3.88852
11
5.80352
21
-3.88823
0
LINE
8
BLACK
6
CONTINUOUS
10
5.80352
20
-3.88823
11
5.80324
21
-3.88754
0
LINE
8
BLACK
6
CONTINUOUS
10
5.80324
20
-3.88754
11
5.80324
21
-3.75368
0
LINE
8
BLACK
6
CONTINUOUS
10
5.80324
20
-3.75368
11
5.80352
21
-3.75298
0
LINE
8
BLACK
6
CONTINUOUS
10
5.80352
20
-3.75298
11
5.80422
21
-3.75269
0
LINE
8
BLACK
6
CONTINUOUS
10
5.80422
20
-3.75269
11
5.88139
21
-3.75269
0
LINE
8
BLACK
6
CONTINUOUS
10
5.8052
20
-3.75466
11
5.8052
21
-3.88655
0
LINE
8
BLACK
6
CONTINUOUS
10
5.8052
20
-3.88655
11
5.8804
21
-3.88655
0
LINE
8
BLACK
6
CONTINUOUS
10
5.8804
20
-3.88655
11
5.8804
21
-3.75466
0
LINE
8
BLACK
6
CONTINUOUS
10
5.8804
20
-3.75466
11
5.8052
21
-3.75466
0
LINE
8
BLACK
6
CONTINUOUS
10
6.26627
20
-3.74713
11
6.26696
21
-3.74741
0
LINE
8
BLACK
6
CONTINUOUS
10
6.26696
20
-3.74741
11
6.26725
21
-3.74811
0
LINE
8
BLACK
6
CONTINUOUS
10
6.26725
20
-3.74811
11
6.26725
21
-3.88591
0
LINE
8
BLACK
6
CONTINUOUS
10
6.26725
20
-3.88591
11
6.26696
21
-3.8866
0
LINE
8
BLACK
6
CONTINUOUS
10
6.26696
20
-3.8866
11
6.26627
21
-3.88689
0
LINE
8
BLACK
6
CONTINUOUS
10
6.26627
20
-3.88689
11
6.19934
21
-3.88689
0
LINE
8
BLACK
6
CONTINUOUS
10
6.19934
20
-3.88689
11
6.19864
21
-3.8866
0
LINE
8
BLACK
6
CONTINUOUS
10
6.19864
20
-3.8866
11
6.19835
21
-3.88591
0
LINE
8
BLACK
6
CONTINUOUS
10
6.19835
20
-3.88591
11
6.19835
21
-3.88591
0
LINE
8
BLACK
6
CONTINUOUS
10
6.19835
20
-3.88591
11
6.19835
21
-3.74811
0
LINE
8
BLACK
6
CONTINUOUS
10
6.19835
20
-3.74811
11
6.19864
21
-3.74741
0
LINE
8
BLACK
6
CONTINUOUS
10
6.19864
20
-3.74741
11
6.19934
21
-3.74713
0
LINE
8
BLACK
6
CONTINUOUS
10
6.19934
20
-3.74713
11
6.26627
21
-3.74713
0
LINE
8
BLACK
6
CONTINUOUS
10
6.20032
20
-3.74909
11
6.20032
21
-3.88492
0
LINE
8
BLACK
6
CONTINUOUS
10
6.20032
20
-3.88492
11
6.26528
21
-3.88492
0
LINE
8
BLACK
6
CONTINUOUS
10
6.26528
20
-3.88492
11
6.26528
21
-3.74909
0
LINE
8
BLACK
6
CONTINUOUS
10
6.26528
20
-3.74909
11
6.20032
21
-3.74909
0
LINE
8
BLACK
6
CONTINUOUS
10
6.19139
20
-3.74909
11
6.19208
21
-3.74938
0
LINE
8
BLACK
6
CONTINUOUS
10
6.19208
20
-3.74938
11
6.19237
21
-3.75008
0
LINE
8
BLACK
6
CONTINUOUS
10
6.19237
20
-3.75008
11
6.19237
21
-3.88394
0
LINE
8
BLACK
6
CONTINUOUS
10
6.19237
20
-3.88394
11
6.19208
21
-3.88463
0
LINE
8
BLACK
6
CONTINUOUS
10
6.19208
20
-3.88463
11
6.19139
21
-3.88492
0
LINE
8
BLACK
6
CONTINUOUS
10
6.19139
20
-3.88492
11
6.11422
21
-3.88492
0
LINE
8
BLACK
6
CONTINUOUS
10
6.11422
20
-3.88492
11
6.11352
21
-3.88463
0
LINE
8
BLACK
6
CONTINUOUS
10
6.11352
20
-3.88463
11
6.11324
21
-3.88394
0
LINE
8
BLACK
6
CONTINUOUS
10
6.11324
20
-3.88394
11
6.11324
21
-3.75008
0
LINE
8
BLACK
6
CONTINUOUS
10
6.11324
20
-3.75008
11
6.11352
21
-3.74938
0
LINE
8
BLACK
6
CONTINUOUS
10
6.11352
20
-3.74938
11
6.11422
21
-3.74909
0
LINE
8
BLACK
6
CONTINUOUS
10
6.11422
20
-3.74909
11
6.19139
21
-3.74909
0
LINE
8
BLACK
6
CONTINUOUS
10
6.1152
20
-3.75106
11
6.1152
21
-3.88295
0
LINE
8
BLACK
6
CONTINUOUS
10
6.1152
20
-3.88295
11
6.1904
21
-3.88295
0
LINE
8
BLACK
6
CONTINUOUS
10
6.1904
20
-3.88295
11
6.1904
21
-3.75106
0
LINE
8
BLACK
6
CONTINUOUS
10
6.1904
20
-3.75106
11
6.1152
21
-3.75106
0
LINE
8
BLACK
6
CONTINUOUS
10
5.7937
20
-3.74656
11
5.7944
21
-3.74685
0
LINE
8
BLACK
6
CONTINUOUS
10
5.7944
20
-3.74685
11
5.79469
21
-3.74754
0
LINE
8
BLACK
6
CONTINUOUS
10
5.79469
20
-3.74754
11
5.79469
21
-3.81447
0
LINE
8
BLACK
6
CONTINUOUS
10
5.79469
20
-3.81447
11
5.7944
21
-3.81517
0
LINE
8
BLACK
6
CONTINUOUS
10
5.7944
20
-3.81517
11
5.7937
21
-3.81546
0
LINE
8
BLACK
6
CONTINUOUS
10
5.7937
20
-3.81546
11
5.65591
21
-3.81546
0
LINE
8
BLACK
6
CONTINUOUS
10
5.65591
20
-3.81546
11
5.65521
21
-3.81517
0
LINE
8
BLACK
6
CONTINUOUS
10
5.65521
20
-3.81517
11
5.65492
21
-3.81447
0
LINE
8
BLACK
6
CONTINUOUS
10
5.65492
20
-3.81447
11
5.65492
21
-3.74754
0
LINE
8
BLACK
6
CONTINUOUS
10
5.65492
20
-3.74754
11
5.65521
21
-3.74685
0
LINE
8
BLACK
6
CONTINUOUS
10
5.65521
20
-3.74685
11
5.65591
21
-3.74656
0
LINE
8
BLACK
6
CONTINUOUS
10
5.65591
20
-3.74656
11
5.7937
21
-3.74656
0
LINE
8
BLACK
6
CONTINUOUS
10
5.65689
20
-3.74853
11
5.65689
21
-3.81349
0
LINE
8
BLACK
6
CONTINUOUS
10
5.65689
20
-3.81349
11
5.79272
21
-3.81349
0
LINE
8
BLACK
6
CONTINUOUS
10
5.79272
20
-3.81349
11
5.79272
21
-3.74853
0
LINE
8
BLACK
6
CONTINUOUS
10
5.79272
20
-3.74853
11
5.65689
21
-3.74853
0
LINE
8
BLACK
6
CONTINUOUS
10
5.6455
20
-3.73604
11
5.64619
21
-3.73633
0
LINE
8
BLACK
6
CONTINUOUS
10
5.64619
20
-3.73633
11
5.64648
21
-3.73702
0
LINE
8
BLACK
6
CONTINUOUS
10
5.64648
20
-3.73702
11
5.64648
21
-3.81419
0
LINE
8
BLACK
6
CONTINUOUS
10
5.64648
20
-3.81419
11
5.64619
21
-3.81488
0
LINE
8
BLACK
6
CONTINUOUS
10
5.64619
20
-3.81488
11
5.6455
21
-3.81517
0
LINE
8
BLACK
6
CONTINUOUS
10
5.6455
20
-3.81517
11
5.51164
21
-3.81517
0
LINE
8
BLACK
6
CONTINUOUS
10
5.51164
20
-3.81517
11
5.51094
21
-3.81488
0
LINE
8
BLACK
6
CONTINUOUS
10
5.51094
20
-3.81488
11
5.51065
21
-3.81419
0
LINE
8
BLACK
6
CONTINUOUS
10
5.51065
20
-3.81419
11
5.51065
21
-3.73702
0
LINE
8
BLACK
6
CONTINUOUS
10
5.51065
20
-3.73702
11
5.51094
21
-3.73633
0
LINE
8
BLACK
6
CONTINUOUS
10
5.51094
20
-3.73633
11
5.51164
21
-3.73604
0
LINE
8
BLACK
6
CONTINUOUS
10
5.51164
20
-3.73604
11
5.6455
21
-3.73604
0
LINE
8
BLACK
6
CONTINUOUS
10
5.51262
20
-3.73801
11
5.51262
21
-3.8132
0
LINE
8
BLACK
6
CONTINUOUS
10
5.51262
20
-3.8132
11
5.64451
21
-3.8132
0
LINE
8
BLACK
6
CONTINUOUS
10
5.64451
20
-3.8132
11
5.64451
21
-3.73801
0
LINE
8
BLACK
6
CONTINUOUS
10
5.64451
20
-3.73801
11
5.51262
21
-3.73801
0
LINE
8
BLACK
6
CONTINUOUS
10
6.1037
20
-3.74456
11
6.1044
21
-3.74485
0
LINE
8
BLACK
6
CONTINUOUS
10
6.1044
20
-3.74485
11
6.10469
21
-3.74554
0
LINE
8
BLACK
6
CONTINUOUS
10
6.10469
20
-3.74554
11
6.10469
21
-3.81247
0
LINE
8
BLACK
6
CONTINUOUS
10
6.10469
20
-3.81247
11
6.1044
21
-3.81317
0
LINE
8
BLACK
6
CONTINUOUS
10
6.1044
20
-3.81317
11
6.1037
21
-3.81346
0
LINE
8
BLACK
6
CONTINUOUS
10
6.1037
20
-3.81346
11
5.96591
21
-3.81346
0
LINE
8
BLACK
6
CONTINUOUS
10
5.96591
20
-3.81346
11
5.96521
21
-3.81317
0
LINE
8
BLACK
6
CONTINUOUS
10
5.96521
20
-3.81317
11
5.96492
21
-3.81247
0
LINE
8
BLACK
6
CONTINUOUS
10
5.96492
20
-3.81247
11
5.96492
21
-3.74554
0
LINE
8
BLACK
6
CONTINUOUS
10
5.96492
20
-3.74554
11
5.96521
21
-3.74485
0
LINE
8
BLACK
6
CONTINUOUS
10
5.96521
20
-3.74485
11
5.96591
21
-3.74456
0
LINE
8
BLACK
6
CONTINUOUS
10
5.96591
20
-3.74456
11
6.1037
21
-3.74456
0
LINE
8
BLACK
6
CONTINUOUS
10
5.96689
20
-3.74653
11
5.96689
21
-3.81149
0
LINE
8
BLACK
6
CONTINUOUS
10
5.96689
20
-3.81149
11
6.10272
21
-3.81149
0
LINE
8
BLACK
6
CONTINUOUS
10
6.10272
20
-3.81149
11
6.10272
21
-3.74653
0
LINE
8
BLACK
6
CONTINUOUS
10
6.10272
20
-3.74653
11
5.96689
21
-3.74653
0
LINE
8
BLACK
6
CONTINUOUS
10
6.55973
20
-3.73344
11
6.56043
21
-3.73373
0
LINE
8
BLACK
6
CONTINUOUS
10
6.56043
20
-3.73373
11
6.56072
21
-3.73443
0
LINE
8
BLACK
6
CONTINUOUS
10
6.56072
20
-3.73443
11
6.56072
21
-3.81159
0
LINE
8
BLACK
6
CONTINUOUS
10
6.56072
20
-3.81159
11
6.56043
21
-3.81229
0
LINE
8
BLACK
6
CONTINUOUS
10
6.56043
20
-3.81229
11
6.55973
21
-3.81257
0
LINE
8
BLACK
6
CONTINUOUS
10
6.55973
20
-3.81257
11
6.42587
21
-3.81257
0
LINE
8
BLACK
6
CONTINUOUS
10
6.42587
20
-3.81257
11
6.42518
21
-3.81229
0
LINE
8
BLACK
6
CONTINUOUS
10
6.42518
20
-3.81229
11
6.42489
21
-3.81159
0
LINE
8
BLACK
6
CONTINUOUS
10
6.42489
20
-3.81159
11
6.42489
21
-3.73443
0
LINE
8
BLACK
6
CONTINUOUS
10
6.42489
20
-3.73443
11
6.42518
21
-3.73373
0
LINE
8
BLACK
6
CONTINUOUS
10
6.42518
20
-3.73373
11
6.42587
21
-3.73344
0
LINE
8
BLACK
6
CONTINUOUS
10
6.42587
20
-3.73344
11
6.55973
21
-3.73344
0
LINE
8
BLACK
6
CONTINUOUS
10
6.42686
20
-3.73541
11
6.42686
21
-3.81061
0
LINE
8
BLACK
6
CONTINUOUS
10
6.42686
20
-3.81061
11
6.55875
21
-3.81061
0
LINE
8
BLACK
6
CONTINUOUS
10
6.55875
20
-3.81061
11
6.55875
21
-3.73541
0
LINE
8
BLACK
6
CONTINUOUS
10
6.55875
20
-3.73541
11
6.42686
21
-3.73541
0
LINE
8
BLACK
6
CONTINUOUS
10
6.4147
20
-3.74356
11
6.4154
21
-3.74385
0
LINE
8
BLACK
6
CONTINUOUS
10
6.4154
20
-3.74385
11
6.41569
21
-3.74454
0
LINE
8
BLACK
6
CONTINUOUS
10
6.41569
20
-3.74454
11
6.41569
21
-3.81147
0
LINE
8
BLACK
6
CONTINUOUS
10
6.41569
20
-3.81147
11
6.4154
21
-3.81217
0
LINE
8
BLACK
6
CONTINUOUS
10
6.4154
20
-3.81217
11
6.4147
21
-3.81246
0
LINE
8
BLACK
6
CONTINUOUS
10
6.4147
20
-3.81246
11
6.27691
21
-3.81246
0
LINE
8
BLACK
6
CONTINUOUS
10
6.27691
20
-3.81246
11
6.27621
21
-3.81217
0
LINE
8
BLACK
6
CONTINUOUS
10
6.27621
20
-3.81217
11
6.27592
21
-3.81147
0
LINE
8
BLACK
6
CONTINUOUS
10
6.27592
20
-3.81147
11
6.27592
21
-3.74454
0
LINE
8
BLACK
6
CONTINUOUS
10
6.27592
20
-3.74454
11
6.27621
21
-3.74385
0
LINE
8
BLACK
6
CONTINUOUS
10
6.27621
20
-3.74385
11
6.27691
21
-3.74356
0
LINE
8
BLACK
6
CONTINUOUS
10
6.27691
20
-3.74356
11
6.4147
21
-3.74356
0
LINE
8
BLACK
6
CONTINUOUS
10
6.27789
20
-3.74553
11
6.27789
21
-3.81049
0
LINE
8
BLACK
6
CONTINUOUS
10
6.27789
20
-3.81049
11
6.41372
21
-3.81049
0
LINE
8
BLACK
6
CONTINUOUS
10
6.41372
20
-3.81049
11
6.41372
21
-3.74553
0
LINE
8
BLACK
6
CONTINUOUS
10
6.41372
20
-3.74553
11
6.27789
21
-3.74553
0
LINE
8
BLACK
6
CONTINUOUS
10
6.1871
20
-3.58356
11
6.1878
21
-3.58385
0
LINE
8
BLACK
6
CONTINUOUS
10
6.1878
20
-3.58385
11
6.18809
21
-3.58454
0
LINE
8
BLACK
6
CONTINUOUS
10
6.18809
20
-3.58454
11
6.18809
21
-3.65147
0
LINE
8
BLACK
6
CONTINUOUS
10
6.18809
20
-3.65147
11
6.1878
21
-3.65217
0
LINE
8
BLACK
6
CONTINUOUS
10
6.1878
20
-3.65217
11
6.1871
21
-3.65246
0
LINE
8
BLACK
6
CONTINUOUS
10
6.1871
20
-3.65246
11
6.04931
21
-3.65246
0
LINE
8
BLACK
6
CONTINUOUS
10
6.04931
20
-3.65246
11
6.04861
21
-3.65217
0
LINE
8
BLACK
6
CONTINUOUS
10
6.04861
20
-3.65217
11
6.04832
21
-3.65147
0
LINE
8
BLACK
6
CONTINUOUS
10
6.04832
20
-3.65147
11
6.04832
21
-3.65147
0
LINE
8
BLACK
6
CONTINUOUS
10
6.04832
20
-3.65147
11
6.04832
21
-3.58454
0
LINE
8
BLACK
6
CONTINUOUS
10
6.04832
20
-3.58454
11
6.04861
21
-3.58385
0
LINE
8
BLACK
6
CONTINUOUS
10
6.04861
20
-3.58385
11
6.04931
21
-3.58356
0
LINE
8
BLACK
6
CONTINUOUS
10
6.04931
20
-3.58356
11
6.1871
21
-3.58356
0
LINE
8
BLACK
6
CONTINUOUS
10
6.05029
20
-3.58553
11
6.05029
21
-3.65049
0
LINE
8
BLACK
6
CONTINUOUS
10
6.05029
20
-3.65049
11
6.18612
21
-3.65049
0
LINE
8
BLACK
6
CONTINUOUS
10
6.18612
20
-3.65049
11
6.18612
21
-3.58553
0
LINE
8
BLACK
6
CONTINUOUS
10
6.18612
20
-3.58553
11
6.05029
21
-3.58553
0
LINE
8
BLACK
6
CONTINUOUS
10
6.0211
20
-3.58156
11
6.0218
21
-3.58185
0
LINE
8
BLACK
6
CONTINUOUS
10
6.0218
20
-3.58185
11
6.02209
21
-3.58254
0
LINE
8
BLACK
6
CONTINUOUS
10
6.02209
20
-3.58254
11
6.02209
21
-3.64947
0
LINE
8
BLACK
6
CONTINUOUS
10
6.02209
20
-3.64947
11
6.0218
21
-3.65017
0
LINE
8
BLACK
6
CONTINUOUS
10
6.0218
20
-3.65017
11
6.0211
21
-3.65046
0
LINE
8
BLACK
6
CONTINUOUS
10
6.0211
20
-3.65046
11
5.88331
21
-3.65046
0
LINE
8
BLACK
6
CONTINUOUS
10
5.88331
20
-3.65046
11
5.88261
21
-3.65017
0
LINE
8
BLACK
6
CONTINUOUS
10
5.88261
20
-3.65017
11
5.88232
21
-3.64947
0
LINE
8
BLACK
6
CONTINUOUS
10
5.88232
20
-3.64947
11
5.88232
21
-3.58254
0
LINE
8
BLACK
6
CONTINUOUS
10
5.88232
20
-3.58254
11
5.88261
21
-3.58185
0
LINE
8
BLACK
6
CONTINUOUS
10
5.88261
20
-3.58185
11
5.88331
21
-3.58156
0
LINE
8
BLACK
6
CONTINUOUS
10
5.88331
20
-3.58156
11
6.0211
21
-3.58156
0
LINE
8
BLACK
6
CONTINUOUS
10
5.88429
20
-3.58353
11
5.88429
21
-3.64849
0
LINE
8
BLACK
6
CONTINUOUS
10
5.88429
20
-3.64849
11
6.02012
21
-3.64849
0
LINE
8
BLACK
6
CONTINUOUS
10
6.02012
20
-3.64849
11
6.02012
21
-3.58353
0
LINE
8
BLACK
6
CONTINUOUS
10
6.02012
20
-3.58353
11
5.88429
21
-3.58353
0
LINE
8
BLACK
6
CONTINUOUS
10
5.63315
20
-3.51377
11
5.63385
21
-3.51406
0
LINE
8
BLACK
6
CONTINUOUS
10
5.63385
20
-3.51406
11
5.63414
21
-3.51476
0
LINE
8
BLACK
6
CONTINUOUS
10
5.63414
20
-3.51476
11
5.63414
21
-3.59192
0
LINE
8
BLACK
6
CONTINUOUS
10
5.63414
20
-3.59192
11
5.63385
21
-3.59262
0
LINE
8
BLACK
6
CONTINUOUS
10
5.63385
20
-3.59262
11
5.63315
21
-3.59291
0
LINE
8
BLACK
6
CONTINUOUS
10
5.63315
20
-3.59291
11
5.4993
21
-3.59291
0
LINE
8
BLACK
6
CONTINUOUS
10
5.4993
20
-3.59291
11
5.4986
21
-3.59262
0
LINE
8
BLACK
6
CONTINUOUS
10
5.4986
20
-3.59262
11
5.49831
21
-3.59192
0
LINE
8
BLACK
6
CONTINUOUS
10
5.49831
20
-3.59192
11
5.49831
21
-3.51476
0
LINE
8
BLACK
6
CONTINUOUS
10
5.49831
20
-3.51476
11
5.4986
21
-3.51406
0
LINE
8
BLACK
6
CONTINUOUS
10
5.4986
20
-3.51406
11
5.4993
21
-3.51377
0
LINE
8
BLACK
6
CONTINUOUS
10
5.4993
20
-3.51377
11
5.63315
21
-3.51377
0
LINE
8
BLACK
6
CONTINUOUS
10
5.50028
20
-3.51574
11
5.50028
21
-3.59094
0
LINE
8
BLACK
6
CONTINUOUS
10
5.50028
20
-3.59094
11
5.63217
21
-3.59094
0
LINE
8
BLACK
6
CONTINUOUS
10
5.63217
20
-3.59094
11
5.63217
21
-3.51574
0
LINE
8
BLACK
6
CONTINUOUS
10
5.63217
20
-3.51574
11
5.50028
21
-3.51574
0
LINE
8
BLACK
6
CONTINUOUS
10
6.56513
20
-3.51244
11
6.56583
21
-3.51273
0
LINE
8
BLACK
6
CONTINUOUS
10
6.56583
20
-3.51273
11
6.56612
21
-3.51343
0
LINE
8
BLACK
6
CONTINUOUS
10
6.56612
20
-3.51343
11
6.56612
21
-3.59059
0
LINE
8
BLACK
6
CONTINUOUS
10
6.56612
20
-3.59059
11
6.56583
21
-3.59129
0
LINE
8
BLACK
6
CONTINUOUS
10
6.56583
20
-3.59129
11
6.56513
21
-3.59157
0
LINE
8
BLACK
6
CONTINUOUS
10
6.56513
20
-3.59157
11
6.43128
21
-3.59157
0
LINE
8
BLACK
6
CONTINUOUS
10
6.43128
20
-3.59157
11
6.43058
21
-3.59129
0
LINE
8
BLACK
6
CONTINUOUS
10
6.43058
20
-3.59129
11
6.43029
21
-3.59059
0
LINE
8
BLACK
6
CONTINUOUS
10
6.43029
20
-3.59059
11
6.43029
21
-3.51343
0
LINE
8
BLACK
6
CONTINUOUS
10
6.43029
20
-3.51343
11
6.43058
21
-3.51273
0
LINE
8
BLACK
6
CONTINUOUS
10
6.43058
20
-3.51273
11
6.43128
21
-3.51244
0
LINE
8
BLACK
6
CONTINUOUS
10
6.43128
20
-3.51244
11
6.56513
21
-3.51244
0
LINE
8
BLACK
6
CONTINUOUS
10
6.43226
20
-3.51441
11
6.43226
21
-3.58961
0
LINE
8
BLACK
6
CONTINUOUS
10
6.43226
20
-3.58961
11
6.56415
21
-3.58961
0
LINE
8
BLACK
6
CONTINUOUS
10
6.56415
20
-3.58961
11
6.56415
21
-3.51441
0
LINE
8
BLACK
6
CONTINUOUS
10
6.56415
20
-3.51441
11
6.43226
21
-3.51441
0
LINE
8
BLACK
6
CONTINUOUS
10
5.78295
20
-3.51489
11
5.78365
21
-3.51518
0
LINE
8
BLACK
6
CONTINUOUS
10
5.78365
20
-3.51518
11
5.78394
21
-3.51587
0
LINE
8
BLACK
6
CONTINUOUS
10
5.78394
20
-3.51587
11
5.78394
21
-3.5828
0
LINE
8
BLACK
6
CONTINUOUS
10
5.78394
20
-3.5828
11
5.78365
21
-3.5835
0
LINE
8
BLACK
6
CONTINUOUS
10
5.78365
20
-3.5835
11
5.78295
21
-3.58379
0
LINE
8
BLACK
6
CONTINUOUS
10
5.78295
20
-3.58379
11
5.64516
21
-3.58379
0
LINE
8
BLACK
6
CONTINUOUS
10
5.64516
20
-3.58379
11
5.64446
21
-3.5835
0
LINE
8
BLACK
6
CONTINUOUS
10
5.64446
20
-3.5835
11
5.64417
21
-3.5828
0
LINE
8
BLACK
6
CONTINUOUS
10
5.64417
20
-3.5828
11
5.64417
21
-3.51587
0
LINE
8
BLACK
6
CONTINUOUS
10
5.64417
20
-3.51587
11
5.64446
21
-3.51518
0
LINE
8
BLACK
6
CONTINUOUS
10
5.64446
20
-3.51518
11
5.64516
21
-3.51489
0
LINE
8
BLACK
6
CONTINUOUS
10
5.64516
20
-3.51489
11
5.78295
21
-3.51489
0
LINE
8
BLACK
6
CONTINUOUS
10
5.64614
20
-3.51686
11
5.64614
21
-3.58182
0
LINE
8
BLACK
6
CONTINUOUS
10
5.64614
20
-3.58182
11
5.78197
21
-3.58182
0
LINE
8
BLACK
6
CONTINUOUS
10
5.78197
20
-3.58182
11
5.78197
21
-3.51686
0
LINE
8
BLACK
6
CONTINUOUS
10
5.78197
20
-3.51686
11
5.64614
21
-3.51686
0
LINE
8
BLACK
6
CONTINUOUS
10
6.4211
20
-3.51356
11
6.4218
21
-3.51385
0
LINE
8
BLACK
6
CONTINUOUS
10
6.4218
20
-3.51385
11
6.42209
21
-3.51454
0
LINE
8
BLACK
6
CONTINUOUS
10
6.42209
20
-3.51454
11
6.42209
21
-3.58147
0
LINE
8
BLACK
6
CONTINUOUS
10
6.42209
20
-3.58147
11
6.4218
21
-3.58217
0
LINE
8
BLACK
6
CONTINUOUS
10
6.4218
20
-3.58217
11
6.4211
21
-3.58246
0
LINE
8
BLACK
6
CONTINUOUS
10
6.4211
20
-3.58246
11
6.28331
21
-3.58246
0
LINE
8
BLACK
6
CONTINUOUS
10
6.28331
20
-3.58246
11
6.28261
21
-3.58217
0
LINE
8
BLACK
6
CONTINUOUS
10
6.28261
20
-3.58217
11
6.28232
21
-3.58147
0
LINE
8
BLACK
6
CONTINUOUS
10
6.28232
20
-3.58147
11
6.28232
21
-3.51454
0
LINE
8
BLACK
6
CONTINUOUS
10
6.28232
20
-3.51454
11
6.28261
21
-3.51385
0
LINE
8
BLACK
6
CONTINUOUS
10
6.28261
20
-3.51385
11
6.28331
21
-3.51356
0
LINE
8
BLACK
6
CONTINUOUS
10
6.28331
20
-3.51356
11
6.4211
21
-3.51356
0
LINE
8
BLACK
6
CONTINUOUS
10
6.28429
20
-3.51553
11
6.28429
21
-3.58049
0
LINE
8
BLACK
6
CONTINUOUS
10
6.28429
20
-3.58049
11
6.42012
21
-3.58049
0
LINE
8
BLACK
6
CONTINUOUS
10
6.42012
20
-3.58049
11
6.42012
21
-3.51553
0
LINE
8
BLACK
6
CONTINUOUS
10
6.42012
20
-3.51553
11
6.28429
21
-3.51553
0
LINE
8
BLACK
6
CONTINUOUS
10
6.27367
20
-3.43813
11
6.27437
21
-3.43841
0
LINE
8
BLACK
6
CONTINUOUS
10
6.27437
20
-3.43841
11
6.27465
21
-3.43911
0
LINE
8
BLACK
6
CONTINUOUS
10
6.27465
20
-3.43911
11
6.27465
21
-3.57691
0
LINE
8
BLACK
6
CONTINUOUS
10
6.27465
20
-3.57691
11
6.27437
21
-3.5776
0
LINE
8
BLACK
6
CONTINUOUS
10
6.27437
20
-3.5776
11
6.27367
21
-3.57789
0
LINE
8
BLACK
6
CONTINUOUS
10
6.27367
20
-3.57789
11
6.20674
21
-3.57789
0
LINE
8
BLACK
6
CONTINUOUS
10
6.20674
20
-3.57789
11
6.20604
21
-3.5776
0
LINE
8
BLACK
6
CONTINUOUS
10
6.20604
20
-3.5776
11
6.20576
21
-3.57691
0
LINE
8
BLACK
6
CONTINUOUS
10
6.20576
20
-3.57691
11
6.20576
21
-3.57691
0
LINE
8
BLACK
6
CONTINUOUS
10
6.20576
20
-3.57691
11
6.20576
21
-3.43911
0
LINE
8
BLACK
6
CONTINUOUS
10
6.20576
20
-3.43911
11
6.20604
21
-3.43841
0
LINE
8
BLACK
6
CONTINUOUS
10
6.20604
20
-3.43841
11
6.20674
21
-3.43813
0
LINE
8
BLACK
6
CONTINUOUS
10
6.20674
20
-3.43813
11
6.27367
21
-3.43813
0
LINE
8
BLACK
6
CONTINUOUS
10
6.20772
20
-3.44009
11
6.20772
21
-3.57592
0
LINE
8
BLACK
6
CONTINUOUS
10
6.20772
20
-3.57592
11
6.27269
21
-3.57592
0
LINE
8
BLACK
6
CONTINUOUS
10
6.27269
20
-3.57592
11
6.27269
21
-3.44009
0
LINE
8
BLACK
6
CONTINUOUS
10
6.27269
20
-3.44009
11
6.20772
21
-3.44009
0
LINE
8
BLACK
6
CONTINUOUS
10
6.10967
20
-3.4373
11
6.11037
21
-3.43758
0
LINE
8
BLACK
6
CONTINUOUS
10
6.11037
20
-3.43758
11
6.11065
21
-3.43828
0
LINE
8
BLACK
6
CONTINUOUS
10
6.11065
20
-3.43828
11
6.11065
21
-3.57607
0
LINE
8
BLACK
6
CONTINUOUS
10
6.11065
20
-3.57607
11
6.11037
21
-3.57677
0
LINE
8
BLACK
6
CONTINUOUS
10
6.11037
20
-3.57677
11
6.10967
21
-3.57706
0
LINE
8
BLACK
6
CONTINUOUS
10
6.10967
20
-3.57706
11
6.04274
21
-3.57706
0
LINE
8
BLACK
6
CONTINUOUS
10
6.04274
20
-3.57706
11
6.04204
21
-3.57677
0
LINE
8
BLACK
6
CONTINUOUS
10
6.04204
20
-3.57677
11
6.04176
21
-3.57607
0
LINE
8
BLACK
6
CONTINUOUS
10
6.04176
20
-3.57607
11
6.04176
21
-3.57607
0
LINE
8
BLACK
6
CONTINUOUS
10
6.04176
20
-3.57607
11
6.04176
21
-3.43828
0
LINE
8
BLACK
6
CONTINUOUS
10
6.04176
20
-3.43828
11
6.04204
21
-3.43758
0
LINE
8
BLACK
6
CONTINUOUS
10
6.04204
20
-3.43758
11
6.04274
21
-3.4373
0
LINE
8
BLACK
6
CONTINUOUS
10
6.04274
20
-3.4373
11
6.10967
21
-3.4373
0
LINE
8
BLACK
6
CONTINUOUS
10
6.04372
20
-3.43926
11
6.04372
21
-3.57509
0
LINE
8
BLACK
6
CONTINUOUS
10
6.04372
20
-3.57509
11
6.10869
21
-3.57509
0
LINE
8
BLACK
6
CONTINUOUS
10
6.10869
20
-3.57509
11
6.10869
21
-3.43926
0
LINE
8
BLACK
6
CONTINUOUS
10
6.10869
20
-3.43926
11
6.04372
21
-3.43926
0
LINE
8
BLACK
6
CONTINUOUS
10
5.94467
20
-3.43713
11
5.94537
21
-3.43741
0
LINE
8
BLACK
6
CONTINUOUS
10
5.94537
20
-3.43741
11
5.94565
21
-3.43811
0
LINE
8
BLACK
6
CONTINUOUS
10
5.94565
20
-3.43811
11
5.94565
21
-3.57591
0
LINE
8
BLACK
6
CONTINUOUS
10
5.94565
20
-3.57591
11
5.94537
21
-3.5766
0
LINE
8
BLACK
6
CONTINUOUS
10
5.94537
20
-3.5766
11
5.94467
21
-3.57689
0
LINE
8
BLACK
6
CONTINUOUS
10
5.94467
20
-3.57689
11
5.87774
21
-3.57689
0
LINE
8
BLACK
6
CONTINUOUS
10
5.87774
20
-3.57689
11
5.87704
21
-3.5766
0
LINE
8
BLACK
6
CONTINUOUS
10
5.87704
20
-3.5766
11
5.87676
21
-3.57591
0
LINE
8
BLACK
6
CONTINUOUS
10
5.87676
20
-3.57591
11
5.87676
21
-3.43811
0
LINE
8
BLACK
6
CONTINUOUS
10
5.87676
20
-3.43811
11
5.87704
21
-3.43741
0
LINE
8
BLACK
6
CONTINUOUS
10
5.87704
20
-3.43741
11
5.87774
21
-3.43713
0
LINE
8
BLACK
6
CONTINUOUS
10
5.87774
20
-3.43713
11
5.94467
21
-3.43713
0
LINE
8
BLACK
6
CONTINUOUS
10
5.87872
20
-3.43909
11
5.87872
21
-3.57492
0
LINE
8
BLACK
6
CONTINUOUS
10
5.87872
20
-3.57492
11
5.94369
21
-3.57492
0
LINE
8
BLACK
6
CONTINUOUS
10
5.94369
20
-3.57492
11
5.94369
21
-3.43909
0
LINE
8
BLACK
6
CONTINUOUS
10
5.94369
20
-3.43909
11
5.87872
21
-3.43909
0
LINE
8
BLACK
6
CONTINUOUS
10
6.19879
20
-3.44009
11
6.19948
21
-3.44038
0
LINE
8
BLACK
6
CONTINUOUS
10
6.19948
20
-3.44038
11
6.19977
21
-3.44108
0
LINE
8
BLACK
6
CONTINUOUS
10
6.19977
20
-3.44108
11
6.19977
21
-3.57494
0
LINE
8
BLACK
6
CONTINUOUS
10
6.19977
20
-3.57494
11
6.19948
21
-3.57563
0
LINE
8
BLACK
6
CONTINUOUS
10
6.19948
20
-3.57563
11
6.19879
21
-3.57592
0
LINE
8
BLACK
6
CONTINUOUS
10
6.19879
20
-3.57592
11
6.12162
21
-3.57592
0
LINE
8
BLACK
6
CONTINUOUS
10
6.12162
20
-3.57592
11
6.12093
21
-3.57563
0
LINE
8
BLACK
6
CONTINUOUS
10
6.12093
20
-3.57563
11
6.12064
21
-3.57494
0
LINE
8
BLACK
6
CONTINUOUS
10
6.12064
20
-3.57494
11
6.12064
21
-3.57494
0
LINE
8
BLACK
6
CONTINUOUS
10
6.12064
20
-3.57494
11
6.12064
21
-3.44108
0
LINE
8
BLACK
6
CONTINUOUS
10
6.12064
20
-3.44108
11
6.12093
21
-3.44038
0
LINE
8
BLACK
6
CONTINUOUS
10
6.12093
20
-3.44038
11
6.12162
21
-3.44009
0
LINE
8
BLACK
6
CONTINUOUS
10
6.12162
20
-3.44009
11
6.19879
21
-3.44009
0
LINE
8
BLACK
6
CONTINUOUS
10
6.12261
20
-3.44206
11
6.12261
21
-3.57395
0
LINE
8
BLACK
6
CONTINUOUS
10
6.12261
20
-3.57395
11
6.1978
21
-3.57395
0
LINE
8
BLACK
6
CONTINUOUS
10
6.1978
20
-3.57395
11
6.1978
21
-3.44206
0
LINE
8
BLACK
6
CONTINUOUS
10
6.1978
20
-3.44206
11
6.12261
21
-3.44206
0
LINE
8
BLACK
6
CONTINUOUS
10
6.03479
20
-3.43926
11
6.03548
21
-3.43955
0
LINE
8
BLACK
6
CONTINUOUS
10
6.03548
20
-3.43955
11
6.03577
21
-3.44025
0
LINE
8
BLACK
6
CONTINUOUS
10
6.03577
20
-3.44025
11
6.03577
21
-3.57411
0
LINE
8
BLACK
6
CONTINUOUS
10
6.03577
20
-3.57411
11
6.03548
21
-3.5748
0
LINE
8
BLACK
6
CONTINUOUS
10
6.03548
20
-3.5748
11
6.03479
21
-3.57509
0
LINE
8
BLACK
6
CONTINUOUS
10
6.03479
20
-3.57509
11
5.95762
21
-3.57509
0
LINE
8
BLACK
6
CONTINUOUS
10
5.95762
20
-3.57509
11
5.95693
21
-3.5748
0
LINE
8
BLACK
6
CONTINUOUS
10
5.95693
20
-3.5748
11
5.95664
21
-3.57411
0
LINE
8
BLACK
6
CONTINUOUS
10
5.95664
20
-3.57411
11
5.95664
21
-3.57411
0
LINE
8
BLACK
6
CONTINUOUS
10
5.95664
20
-3.57411
11
5.95664
21
-3.44025
0
LINE
8
BLACK
6
CONTINUOUS
10
5.95664
20
-3.44025
11
5.95693
21
-3.43955
0
LINE
8
BLACK
6
CONTINUOUS
10
5.95693
20
-3.43955
11
5.95762
21
-3.43926
0
LINE
8
BLACK
6
CONTINUOUS
10
5.95762
20
-3.43926
11
6.03479
21
-3.43926
0
LINE
8
BLACK
6
CONTINUOUS
10
5.95861
20
-3.44123
11
5.95861
21
-3.57312
0
LINE
8
BLACK
6
CONTINUOUS
10
5.95861
20
-3.57312
11
6.0338
21
-3.57312
0
LINE
8
BLACK
6
CONTINUOUS
10
6.0338
20
-3.57312
11
6.0338
21
-3.44123
0
LINE
8
BLACK
6
CONTINUOUS
10
6.0338
20
-3.44123
11
5.95861
21
-3.44123
0
LINE
8
BLACK
6
CONTINUOUS
10
5.86979
20
-3.43909
11
5.87048
21
-3.43938
0
LINE
8
BLACK
6
CONTINUOUS
10
5.87048
20
-3.43938
11
5.87077
21
-3.44008
0
LINE
8
BLACK
6
CONTINUOUS
10
5.87077
20
-3.44008
11
5.87077
21
-3.57394
0
LINE
8
BLACK
6
CONTINUOUS
10
5.87077
20
-3.57394
11
5.87048
21
-3.57463
0
LINE
8
BLACK
6
CONTINUOUS
10
5.87048
20
-3.57463
11
5.86979
21
-3.57492
0
LINE
8
BLACK
6
CONTINUOUS
10
5.86979
20
-3.57492
11
5.79262
21
-3.57492
0
LINE
8
BLACK
6
CONTINUOUS
10
5.79262
20
-3.57492
11
5.79193
21
-3.57463
0
LINE
8
BLACK
6
CONTINUOUS
10
5.79193
20
-3.57463
11
5.79164
21
-3.57394
0
LINE
8
BLACK
6
CONTINUOUS
10
5.79164
20
-3.57394
11
5.79164
21
-3.44008
0
LINE
8
BLACK
6
CONTINUOUS
10
5.79164
20
-3.44008
11
5.79193
21
-3.43938
0
LINE
8
BLACK
6
CONTINUOUS
10
5.79193
20
-3.43938
11
5.79262
21
-3.43909
0
LINE
8
BLACK
6
CONTINUOUS
10
5.79262
20
-3.43909
11
5.86979
21
-3.43909
0
LINE
8
BLACK
6
CONTINUOUS
10
5.79361
20
-3.44106
11
5.79361
21
-3.57295
0
LINE
8
BLACK
6
CONTINUOUS
10
5.79361
20
-3.57295
11
5.8688
21
-3.57295
0
LINE
8
BLACK
6
CONTINUOUS
10
5.8688
20
-3.57295
11
5.8688
21
-3.44106
0
LINE
8
BLACK
6
CONTINUOUS
10
5.8688
20
-3.44106
11
5.79361
21
-3.44106
0
LINE
8
BLACK
6
CONTINUOUS
10
5.78295
20
-3.43489
11
5.78365
21
-3.43518
0
LINE
8
BLACK
6
CONTINUOUS
10
5.78365
20
-3.43518
11
5.78394
21
-3.43587
0
LINE
8
BLACK
6
CONTINUOUS
10
5.78394
20
-3.43587
11
5.78394
21
-3.5028
0
LINE
8
BLACK
6
CONTINUOUS
10
5.78394
20
-3.5028
11
5.78365
21
-3.5035
0
LINE
8
BLACK
6
CONTINUOUS
10
5.78365
20
-3.5035
11
5.78295
21
-3.50379
0
LINE
8
BLACK
6
CONTINUOUS
10
5.78295
20
-3.50379
11
5.64516
21
-3.50379
0
LINE
8
BLACK
6
CONTINUOUS
10
5.64516
20
-3.50379
11
5.64446
21
-3.5035
0
LINE
8
BLACK
6
CONTINUOUS
10
5.64446
20
-3.5035
11
5.64417
21
-3.5028
0
LINE
8
BLACK
6
CONTINUOUS
10
5.64417
20
-3.5028
11
5.64417
21
-3.43587
0
LINE
8
BLACK
6
CONTINUOUS
10
5.64417
20
-3.43587
11
5.64446
21
-3.43518
0
LINE
8
BLACK
6
CONTINUOUS
10
5.64446
20
-3.43518
11
5.64516
21
-3.43489
0
LINE
8
BLACK
6
CONTINUOUS
10
5.64516
20
-3.43489
11
5.78295
21
-3.43489
0
LINE
8
BLACK
6
CONTINUOUS
10
5.64614
20
-3.43686
11
5.64614
21
-3.50182
0
LINE
8
BLACK
6
CONTINUOUS
10
5.64614
20
-3.50182
11
5.78197
21
-3.50182
0
LINE
8
BLACK
6
CONTINUOUS
10
5.78197
20
-3.50182
11
5.78197
21
-3.43686
0
LINE
8
BLACK
6
CONTINUOUS
10
5.78197
20
-3.43686
11
5.64614
21
-3.43686
0
LINE
8
BLACK
6
CONTINUOUS
10
5.63315
20
-3.42377
11
5.63385
21
-3.42406
0
LINE
8
BLACK
6
CONTINUOUS
10
5.63385
20
-3.42406
11
5.63414
21
-3.42476
0
LINE
8
BLACK
6
CONTINUOUS
10
5.63414
20
-3.42476
11
5.63414
21
-3.50192
0
LINE
8
BLACK
6
CONTINUOUS
10
5.63414
20
-3.50192
11
5.63385
21
-3.50262
0
LINE
8
BLACK
6
CONTINUOUS
10
5.63385
20
-3.50262
11
5.63315
21
-3.50291
0
LINE
8
BLACK
6
CONTINUOUS
10
5.63315
20
-3.50291
11
5.4993
21
-3.50291
0
LINE
8
BLACK
6
CONTINUOUS
10
5.4993
20
-3.50291
11
5.4986
21
-3.50262
0
LINE
8
BLACK
6
CONTINUOUS
10
5.4986
20
-3.50262
11
5.49831
21
-3.50192
0
LINE
8
BLACK
6
CONTINUOUS
10
5.49831
20
-3.50192
11
5.49831
21
-3.42476
0
LINE
8
BLACK
6
CONTINUOUS
10
5.49831
20
-3.42476
11
5.4986
21
-3.42406
0
LINE
8
BLACK
6
CONTINUOUS
10
5.4986
20
-3.42406
11
5.4993
21
-3.42377
0
LINE
8
BLACK
6
CONTINUOUS
10
5.4993
20
-3.42377
11
5.63315
21
-3.42377
0
LINE
8
BLACK
6
CONTINUOUS
10
5.50028
20
-3.42574
11
5.50028
21
-3.50094
0
LINE
8
BLACK
6
CONTINUOUS
10
5.50028
20
-3.50094
11
5.63217
21
-3.50094
0
LINE
8
BLACK
6
CONTINUOUS
10
5.63217
20
-3.50094
11
5.63217
21
-3.42574
0
LINE
8
BLACK
6
CONTINUOUS
10
5.63217
20
-3.42574
11
5.50028
21
-3.42574
0
LINE
8
BLACK
6
CONTINUOUS
10
6.4211
20
-3.43356
11
6.4218
21
-3.43385
0
LINE
8
BLACK
6
CONTINUOUS
10
6.4218
20
-3.43385
11
6.42209
21
-3.43454
0
LINE
8
BLACK
6
CONTINUOUS
10
6.42209
20
-3.43454
11
6.42209
21
-3.50147
0
LINE
8
BLACK
6
CONTINUOUS
10
6.42209
20
-3.50147
11
6.4218
21
-3.50217
0
LINE
8
BLACK
6
CONTINUOUS
10
6.4218
20
-3.50217
11
6.4211
21
-3.50246
0
LINE
8
BLACK
6
CONTINUOUS
10
6.4211
20
-3.50246
11
6.28331
21
-3.50246
0
LINE
8
BLACK
6
CONTINUOUS
10
6.28331
20
-3.50246
11
6.28261
21
-3.50217
0
LINE
8
BLACK
6
CONTINUOUS
10
6.28261
20
-3.50217
11
6.28232
21
-3.50147
0
LINE
8
BLACK
6
CONTINUOUS
10
6.28232
20
-3.50147
11
6.28232
21
-3.43454
0
LINE
8
BLACK
6
CONTINUOUS
10
6.28232
20
-3.43454
11
6.28261
21
-3.43385
0
LINE
8
BLACK
6
CONTINUOUS
10
6.28261
20
-3.43385
11
6.28331
21
-3.43356
0
LINE
8
BLACK
6
CONTINUOUS
10
6.28331
20
-3.43356
11
6.4211
21
-3.43356
0
LINE
8
BLACK
6
CONTINUOUS
10
6.28429
20
-3.43553
11
6.28429
21
-3.50049
0
LINE
8
BLACK
6
CONTINUOUS
10
6.28429
20
-3.50049
11
6.42012
21
-3.50049
0
LINE
8
BLACK
6
CONTINUOUS
10
6.42012
20
-3.50049
11
6.42012
21
-3.43553
0
LINE
8
BLACK
6
CONTINUOUS
10
6.42012
20
-3.43553
11
6.28429
21
-3.43553
0
LINE
8
BLACK
6
CONTINUOUS
10
6.56513
20
-3.42244
11
6.56583
21
-3.42273
0
LINE
8
BLACK
6
CONTINUOUS
10
6.56583
20
-3.42273
11
6.56612
21
-3.42343
0
LINE
8
BLACK
6
CONTINUOUS
10
6.56612
20
-3.42343
11
6.56612
21
-3.50059
0
LINE
8
BLACK
6
CONTINUOUS
10
6.56612
20
-3.50059
11
6.56583
21
-3.50129
0
LINE
8
BLACK
6
CONTINUOUS
10
6.56583
20
-3.50129
11
6.56513
21
-3.50157
0
LINE
8
BLACK
6
CONTINUOUS
10
6.56513
20
-3.50157
11
6.43128
21
-3.50157
0
LINE
8
BLACK
6
CONTINUOUS
10
6.43128
20
-3.50157
11
6.43058
21
-3.50129
0
LINE
8
BLACK
6
CONTINUOUS
10
6.43058
20
-3.50129
11
6.43029
21
-3.50059
0
LINE
8
BLACK
6
CONTINUOUS
10
6.43029
20
-3.50059
11
6.43029
21
-3.42343
0
LINE
8
BLACK
6
CONTINUOUS
10
6.43029
20
-3.42343
11
6.43058
21
-3.42273
0
LINE
8
BLACK
6
CONTINUOUS
10
6.43058
20
-3.42273
11
6.43128
21
-3.42244
0
LINE
8
BLACK
6
CONTINUOUS
10
6.43128
20
-3.42244
11
6.56513
21
-3.42244
0
LINE
8
BLACK
6
CONTINUOUS
10
6.43226
20
-3.42441
11
6.43226
21
-3.49961
0
LINE
8
BLACK
6
CONTINUOUS
10
6.43226
20
-3.49961
11
6.56415
21
-3.49961
0
LINE
8
BLACK
6
CONTINUOUS
10
6.56415
20
-3.49961
11
6.56415
21
-3.42441
0
LINE
8
BLACK
6
CONTINUOUS
10
6.56415
20
-3.42441
11
6.43226
21
-3.42441
0
LINE
8
BLACK
6
CONTINUOUS
10
6.0221
20
-3.36156
11
6.0228
21
-3.36185
0
LINE
8
BLACK
6
CONTINUOUS
10
6.0228
20
-3.36185
11
6.02309
21
-3.36254
0
LINE
8
BLACK
6
CONTINUOUS
10
6.02309
20
-3.36254
11
6.02309
21
-3.42947
0
LINE
8
BLACK
6
CONTINUOUS
10
6.02309
20
-3.42947
11
6.0228
21
-3.43017
0
LINE
8
BLACK
6
CONTINUOUS
10
6.0228
20
-3.43017
11
6.0221
21
-3.43046
0
LINE
8
BLACK
6
CONTINUOUS
10
6.0221
20
-3.43046
11
5.88431
21
-3.43046
0
LINE
8
BLACK
6
CONTINUOUS
10
5.88431
20
-3.43046
11
5.88361
21
-3.43017
0
LINE
8
BLACK
6
CONTINUOUS
10
5.88361
20
-3.43017
11
5.88332
21
-3.42947
0
LINE
8
BLACK
6
CONTINUOUS
10
5.88332
20
-3.42947
11
5.88332
21
-3.42947
0
LINE
8
BLACK
6
CONTINUOUS
10
5.88332
20
-3.42947
11
5.88332
21
-3.36254
0
LINE
8
BLACK
6
CONTINUOUS
10
5.88332
20
-3.36254
11
5.88361
21
-3.36185
0
LINE
8
BLACK
6
CONTINUOUS
10
5.88361
20
-3.36185
11
5.88431
21
-3.36156
0
LINE
8
BLACK
6
CONTINUOUS
10
5.88431
20
-3.36156
11
6.0221
21
-3.36156
0
LINE
8
BLACK
6
CONTINUOUS
10
5.88529
20
-3.36353
11
5.88529
21
-3.42849
0
LINE
8
BLACK
6
CONTINUOUS
10
5.88529
20
-3.42849
11
6.02112
21
-3.42849
0
LINE
8
BLACK
6
CONTINUOUS
10
6.02112
20
-3.42849
11
6.02112
21
-3.36353
0
LINE
8
BLACK
6
CONTINUOUS
10
6.02112
20
-3.36353
11
5.88529
21
-3.36353
0
LINE
8
BLACK
6
CONTINUOUS
10
6.1871
20
-3.36156
11
6.1878
21
-3.36185
0
LINE
8
BLACK
6
CONTINUOUS
10
6.1878
20
-3.36185
11
6.18809
21
-3.36254
0
LINE
8
BLACK
6
CONTINUOUS
10
6.18809
20
-3.36254
11
6.18809
21
-3.42947
0
LINE
8
BLACK
6
CONTINUOUS
10
6.18809
20
-3.42947
11
6.1878
21
-3.43017
0
LINE
8
BLACK
6
CONTINUOUS
10
6.1878
20
-3.43017
11
6.1871
21
-3.43046
0
LINE
8
BLACK
6
CONTINUOUS
10
6.1871
20
-3.43046
11
6.04931
21
-3.43046
0
LINE
8
BLACK
6
CONTINUOUS
10
6.04931
20
-3.43046
11
6.04861
21
-3.43017
0
LINE
8
BLACK
6
CONTINUOUS
10
6.04861
20
-3.43017
11
6.04832
21
-3.42947
0
LINE
8
BLACK
6
CONTINUOUS
10
6.04832
20
-3.42947
11
6.04832
21
-3.42947
0
LINE
8
BLACK
6
CONTINUOUS
10
6.04832
20
-3.42947
11
6.04832
21
-3.36254
0
LINE
8
BLACK
6
CONTINUOUS
10
6.04832
20
-3.36254
11
6.04861
21
-3.36185
0
LINE
8
BLACK
6
CONTINUOUS
10
6.04861
20
-3.36185
11
6.04931
21
-3.36156
0
LINE
8
BLACK
6
CONTINUOUS
10
6.04931
20
-3.36156
11
6.1871
21
-3.36156
0
LINE
8
BLACK
6
CONTINUOUS
10
6.05029
20
-3.36353
11
6.05029
21
-3.42849
0
LINE
8
BLACK
6
CONTINUOUS
10
6.05029
20
-3.42849
11
6.18612
21
-3.42849
0
LINE
8
BLACK
6
CONTINUOUS
10
6.18612
20
-3.42849
11
6.18612
21
-3.36353
0
LINE
8
BLACK
6
CONTINUOUS
10
6.18612
20
-3.36353
11
6.05029
21
-3.36353
  0
ENDSEC
  0
EOF
