  0
SECTION
  2
HEADER
  9
$ANGBASE
  50
0.0
  9
$ANGDIR
  70
1
  9
$MEASUREMENT
  70
0
  0
ENDSEC
  0
SECTION
  2
TABLES
  0
TABLE
  2
LTYPE
  70
4
  0
LTYPE
  5
40F
  2
CONTINUOUS
  70
0
  3
Solid line
  72
65
  73
0
  40
0.0
  0
LTYPE
  5
410
  2
DASHDOT
 70
0
  3
Dash Dot ____ _ ____ _
 72
65
 73
4
 40
2.0
 49
1.25
 49
-0.25
 49
0.25
 49
-0.25
  0
LTYPE
  5
411
  2
DASHED
 70
0
  3
Dashed __ __ __ __ __
 72
65
 73
2
 40
0.75
 49
0.5
 49
-0.25
  0
LTYPE
  5
43B
  2
DOTTED
 70
0
  3
Dotted .  .  .  .
 72
65
 73
2
 40
0.2
 49
0.0
 49
-0.2
  0
ENDTAB
  0
TABLE
  2
STYLE
  70
4
  0
STYLE
  2
KICAD
  70
0
  40
0
  41
1
  42
1
  50
0
  71
0
  3
isocp.shx
  0
STYLE
  2
KICADB
  70
0
  40
0
  41
1
  42
1
  50
0
  71
0
  3
isocp.shx
  0
STYLE
  2
KICADI
  70
0
  40
0
  41
1
  42
1
  50
15
  71
0
  3
isocp.shx
  0
STYLE
  2
KICADBI
  70
0
  40
0
  41
1
  42
1
  50
15
  71
0
  3
isocp.shx
  0
ENDTAB
  0
TABLE
  2
LAYER
  70
1
  0
LAYER
  2
BLACK
  70
0
  62
7
  6
CONTINUOUS
  0
ENDTAB
  0
ENDSEC
  0
SECTION
  2
ENTITIES
0
LINE
8
BLACK
6
CONTINUOUS
10
0.219737
20
0.458753
11
0.219449
21
0.459449
0
LINE
8
BLACK
6
CONTINUOUS
10
0.219449
20
0.459449
11
0.219449
21
1.13268
0
LINE
8
BLACK
6
CONTINUOUS
10
0.219449
20
1.13268
11
0.219737
21
1.13337
0
LINE
8
BLACK
6
CONTINUOUS
10
0.219737
20
1.13337
11
0.220433
21
1.13366
0
LINE
8
BLACK
6
CONTINUOUS
10
0.220433
20
1.13366
11
0.436969
21
1.13366
0
LINE
8
BLACK
6
CONTINUOUS
10
0.436969
20
1.13366
11
0.437664
21
1.13337
0
LINE
8
BLACK
6
CONTINUOUS
10
0.437664
20
1.13337
11
0.437953
21
1.13268
0
LINE
8
BLACK
6
CONTINUOUS
10
0.437953
20
1.13268
11
0.437953
21
0.459449
0
LINE
8
BLACK
6
CONTINUOUS
10
0.437953
20
0.459449
11
0.437664
21
0.458753
0
LINE
8
BLACK
6
CONTINUOUS
10
0.437664
20
0.458753
11
0.436969
21
0.458465
0
LINE
8
BLACK
6
CONTINUOUS
10
0.436969
20
0.458465
11
0.220433
21
0.458465
0
LINE
8
BLACK
6
CONTINUOUS
10
0.220433
20
0.458465
11
0.219737
21
0.458753
0
LINE
8
BLACK
6
CONTINUOUS
10
0.221417
20
1.13169
11
0.221417
21
0.460433
0
LINE
8
BLACK
6
CONTINUOUS
10
0.221417
20
0.460433
11
0.435984
21
0.460433
0
LINE
8
BLACK
6
CONTINUOUS
10
0.435984
20
0.460433
11
0.435984
21
1.13169
0
LINE
8
BLACK
6
CONTINUOUS
10
0.435984
20
1.13169
11
0.221417
21
1.13169
0
LINE
8
BLACK
6
CONTINUOUS
10
1.95104
20
0.458753
11
1.95075
21
0.459449
0
LINE
8
BLACK
6
CONTINUOUS
10
1.95075
20
0.459449
11
1.95075
21
1.13268
0
LINE
8
BLACK
6
CONTINUOUS
10
1.95075
20
1.13268
11
1.95104
21
1.13337
0
LINE
8
BLACK
6
CONTINUOUS
10
1.95104
20
1.13337
11
1.95173
21
1.13366
0
LINE
8
BLACK
6
CONTINUOUS
10
1.95173
20
1.13366
11
2.16827
21
1.13366
0
LINE
8
BLACK
6
CONTINUOUS
10
2.16827
20
1.13366
11
2.16896
21
1.13337
0
LINE
8
BLACK
6
CONTINUOUS
10
2.16896
20
1.13337
11
2.16925
21
1.13268
0
LINE
8
BLACK
6
CONTINUOUS
10
2.16925
20
1.13268
11
2.16925
21
0.459449
0
LINE
8
BLACK
6
CONTINUOUS
10
2.16925
20
0.459449
11
2.16896
21
0.458753
0
LINE
8
BLACK
6
CONTINUOUS
10
2.16896
20
0.458753
11
2.16827
21
0.458465
0
LINE
8
BLACK
6
CONTINUOUS
10
2.16827
20
0.458465
11
1.95173
21
0.458465
0
LINE
8
BLACK
6
CONTINUOUS
10
1.95173
20
0.458465
11
1.95104
21
0.458753
0
LINE
8
BLACK
6
CONTINUOUS
10
1.95272
20
1.13169
11
1.95272
21
0.460433
0
LINE
8
BLACK
6
CONTINUOUS
10
1.95272
20
0.460433
11
2.16728
21
0.460433
0
LINE
8
BLACK
6
CONTINUOUS
10
2.16728
20
0.460433
11
2.16728
21
1.13169
0
LINE
8
BLACK
6
CONTINUOUS
10
2.16728
20
1.13169
11
1.95272
21
1.13169
  0
ENDSEC
  0
EOF
