  0
SECTION
  2
HEADER
  9
$ANGBASE
  50
0.0
  9
$ANGDIR
  70
1
  9
$MEASUREMENT
  70
0
  0
ENDSEC
  0
SECTION
  2
TABLES
  0
TABLE
  2
LTYPE
  70
4
  0
LTYPE
  5
40F
  2
CONTINUOUS
  70
0
  3
Solid line
  72
65
  73
0
  40
0.0
  0
LTYPE
  5
410
  2
DASHDOT
 70
0
  3
Dash Dot ____ _ ____ _
 72
65
 73
4
 40
2.0
 49
1.25
 49
-0.25
 49
0.25
 49
-0.25
  0
LTYPE
  5
411
  2
DASHED
 70
0
  3
Dashed __ __ __ __ __
 72
65
 73
2
 40
0.75
 49
0.5
 49
-0.25
  0
LTYPE
  5
43B
  2
DOTTED
 70
0
  3
Dotted .  .  .  .
 72
65
 73
2
 40
0.2
 49
0.0
 49
-0.2
  0
ENDTAB
  0
TABLE
  2
STYLE
  70
4
  0
STYLE
  2
KICAD
  70
0
  40
0
  41
1
  42
1
  50
0
  71
0
  3
isocp.shx
  0
STYLE
  2
KICADB
  70
0
  40
0
  41
1
  42
1
  50
0
  71
0
  3
isocp.shx
  0
STYLE
  2
KICADI
  70
0
  40
0
  41
1
  42
1
  50
15
  71
0
  3
isocp.shx
  0
STYLE
  2
KICADBI
  70
0
  40
0
  41
1
  42
1
  50
15
  71
0
  3
isocp.shx
  0
ENDTAB
  0
TABLE
  2
LAYER
  70
1
  0
LAYER
  2
BLACK
  70
0
  62
7
  6
CONTINUOUS
  0
ENDTAB
  0
ENDSEC
  0
SECTION
  2
ENTITIES
0
LINE
8
BLACK
6
CONTINUOUS
10
5.09891
20
-4.12182
11
5.11284
21
-4.12418
0
LINE
8
BLACK
6
CONTINUOUS
10
5.11284
20
-4.12418
11
5.12641
21
-4.12809
0
LINE
8
BLACK
6
CONTINUOUS
10
5.12641
20
-4.12809
11
5.13947
21
-4.1335
0
LINE
8
BLACK
6
CONTINUOUS
10
5.13947
20
-4.1335
11
5.15183
21
-4.14033
0
LINE
8
BLACK
6
CONTINUOUS
10
5.15183
20
-4.14033
11
5.16335
21
-4.14851
0
LINE
8
BLACK
6
CONTINUOUS
10
5.16335
20
-4.14851
11
5.17389
21
-4.15792
0
LINE
8
BLACK
6
CONTINUOUS
10
5.17389
20
-4.15792
11
5.1833
21
-4.16846
0
LINE
8
BLACK
6
CONTINUOUS
10
5.1833
20
-4.16846
11
5.19148
21
-4.17998
0
LINE
8
BLACK
6
CONTINUOUS
10
5.19148
20
-4.17998
11
5.19831
21
-4.19235
0
LINE
8
BLACK
6
CONTINUOUS
10
5.19831
20
-4.19235
11
5.20372
21
-4.2054
0
LINE
8
BLACK
6
CONTINUOUS
10
5.20372
20
-4.2054
11
5.20763
21
-4.21897
0
LINE
8
BLACK
6
CONTINUOUS
10
5.20763
20
-4.21897
11
5.21
21
-4.2329
0
LINE
8
BLACK
6
CONTINUOUS
10
5.21
20
-4.2329
11
5.21079
21
-4.24701
0
LINE
8
BLACK
6
CONTINUOUS
10
5.21079
20
-4.24701
11
5.21
21
-4.26111
0
LINE
8
BLACK
6
CONTINUOUS
10
5.21
20
-4.26111
11
5.20763
21
-4.27504
0
LINE
8
BLACK
6
CONTINUOUS
10
5.20763
20
-4.27504
11
5.20372
21
-4.28862
0
LINE
8
BLACK
6
CONTINUOUS
10
5.20372
20
-4.28862
11
5.19831
21
-4.30167
0
LINE
8
BLACK
6
CONTINUOUS
10
5.19831
20
-4.30167
11
5.19148
21
-4.31404
0
LINE
8
BLACK
6
CONTINUOUS
10
5.19148
20
-4.31404
11
5.1833
21
-4.32556
0
LINE
8
BLACK
6
CONTINUOUS
10
5.1833
20
-4.32556
11
5.17389
21
-4.33609
0
LINE
8
BLACK
6
CONTINUOUS
10
5.17389
20
-4.33609
11
5.16335
21
-4.34551
0
LINE
8
BLACK
6
CONTINUOUS
10
5.16335
20
-4.34551
11
5.15183
21
-4.35368
0
LINE
8
BLACK
6
CONTINUOUS
10
5.15183
20
-4.35368
11
5.13947
21
-4.36052
0
LINE
8
BLACK
6
CONTINUOUS
10
5.13947
20
-4.36052
11
5.12641
21
-4.36592
0
LINE
8
BLACK
6
CONTINUOUS
10
5.12641
20
-4.36592
11
5.11284
21
-4.36983
0
LINE
8
BLACK
6
CONTINUOUS
10
5.11284
20
-4.36983
11
5.09891
21
-4.3722
0
LINE
8
BLACK
6
CONTINUOUS
10
5.09891
20
-4.3722
11
5.0848
21
-4.37299
0
LINE
8
BLACK
6
CONTINUOUS
10
5.0848
20
-4.37299
11
5.0707
21
-4.3722
0
LINE
8
BLACK
6
CONTINUOUS
10
5.0707
20
-4.3722
11
5.05677
21
-4.36983
0
LINE
8
BLACK
6
CONTINUOUS
10
5.05677
20
-4.36983
11
5.04319
21
-4.36592
0
LINE
8
BLACK
6
CONTINUOUS
10
5.04319
20
-4.36592
11
5.03014
21
-4.36052
0
LINE
8
BLACK
6
CONTINUOUS
10
5.03014
20
-4.36052
11
5.01778
21
-4.35368
0
LINE
8
BLACK
6
CONTINUOUS
10
5.01778
20
-4.35368
11
5.00625
21
-4.34551
0
LINE
8
BLACK
6
CONTINUOUS
10
5.00625
20
-4.34551
11
4.99572
21
-4.33609
0
LINE
8
BLACK
6
CONTINUOUS
10
4.99572
20
-4.33609
11
4.9863
21
-4.32556
0
LINE
8
BLACK
6
CONTINUOUS
10
4.9863
20
-4.32556
11
4.97813
21
-4.31404
0
LINE
8
BLACK
6
CONTINUOUS
10
4.97813
20
-4.31404
11
4.9713
21
-4.30167
0
LINE
8
BLACK
6
CONTINUOUS
10
4.9713
20
-4.30167
11
4.96589
21
-4.28862
0
LINE
8
BLACK
6
CONTINUOUS
10
4.96589
20
-4.28862
11
4.96198
21
-4.27504
0
LINE
8
BLACK
6
CONTINUOUS
10
4.96198
20
-4.27504
11
4.95961
21
-4.26111
0
LINE
8
BLACK
6
CONTINUOUS
10
4.95961
20
-4.26111
11
4.95882
21
-4.24701
0
LINE
8
BLACK
6
CONTINUOUS
10
4.95882
20
-4.24701
11
4.95961
21
-4.2329
0
LINE
8
BLACK
6
CONTINUOUS
10
4.95961
20
-4.2329
11
4.96198
21
-4.21897
0
LINE
8
BLACK
6
CONTINUOUS
10
4.96198
20
-4.21897
11
4.96589
21
-4.2054
0
LINE
8
BLACK
6
CONTINUOUS
10
4.96589
20
-4.2054
11
4.9713
21
-4.19235
0
LINE
8
BLACK
6
CONTINUOUS
10
4.9713
20
-4.19235
11
4.97813
21
-4.17998
0
LINE
8
BLACK
6
CONTINUOUS
10
4.97813
20
-4.17998
11
4.9863
21
-4.16846
0
LINE
8
BLACK
6
CONTINUOUS
10
4.9863
20
-4.16846
11
4.99572
21
-4.15792
0
LINE
8
BLACK
6
CONTINUOUS
10
4.99572
20
-4.15792
11
5.00625
21
-4.14851
0
LINE
8
BLACK
6
CONTINUOUS
10
5.00625
20
-4.14851
11
5.01778
21
-4.14033
0
LINE
8
BLACK
6
CONTINUOUS
10
5.01778
20
-4.14033
11
5.03014
21
-4.1335
0
LINE
8
BLACK
6
CONTINUOUS
10
5.03014
20
-4.1335
11
5.04319
21
-4.12809
0
LINE
8
BLACK
6
CONTINUOUS
10
5.04319
20
-4.12809
11
5.05677
21
-4.12418
0
LINE
8
BLACK
6
CONTINUOUS
10
5.05677
20
-4.12418
11
5.0707
21
-4.12182
0
LINE
8
BLACK
6
CONTINUOUS
10
5.0707
20
-4.12182
11
5.0848
21
-4.12102
0
LINE
8
BLACK
6
CONTINUOUS
10
5.0848
20
-4.12102
11
5.09891
21
-4.12182
0
LINE
8
BLACK
6
CONTINUOUS
10
7.09891
20
-4.12182
11
7.11284
21
-4.12418
0
LINE
8
BLACK
6
CONTINUOUS
10
7.11284
20
-4.12418
11
7.12641
21
-4.12809
0
LINE
8
BLACK
6
CONTINUOUS
10
7.12641
20
-4.12809
11
7.13947
21
-4.1335
0
LINE
8
BLACK
6
CONTINUOUS
10
7.13947
20
-4.1335
11
7.15183
21
-4.14033
0
LINE
8
BLACK
6
CONTINUOUS
10
7.15183
20
-4.14033
11
7.16335
21
-4.14851
0
LINE
8
BLACK
6
CONTINUOUS
10
7.16335
20
-4.14851
11
7.17389
21
-4.15792
0
LINE
8
BLACK
6
CONTINUOUS
10
7.17389
20
-4.15792
11
7.1833
21
-4.16846
0
LINE
8
BLACK
6
CONTINUOUS
10
7.1833
20
-4.16846
11
7.19148
21
-4.17998
0
LINE
8
BLACK
6
CONTINUOUS
10
7.19148
20
-4.17998
11
7.19831
21
-4.19235
0
LINE
8
BLACK
6
CONTINUOUS
10
7.19831
20
-4.19235
11
7.20372
21
-4.2054
0
LINE
8
BLACK
6
CONTINUOUS
10
7.20372
20
-4.2054
11
7.20763
21
-4.21897
0
LINE
8
BLACK
6
CONTINUOUS
10
7.20763
20
-4.21897
11
7.21
21
-4.2329
0
LINE
8
BLACK
6
CONTINUOUS
10
7.21
20
-4.2329
11
7.21079
21
-4.24701
0
LINE
8
BLACK
6
CONTINUOUS
10
7.21079
20
-4.24701
11
7.21
21
-4.26111
0
LINE
8
BLACK
6
CONTINUOUS
10
7.21
20
-4.26111
11
7.20763
21
-4.27504
0
LINE
8
BLACK
6
CONTINUOUS
10
7.20763
20
-4.27504
11
7.20372
21
-4.28862
0
LINE
8
BLACK
6
CONTINUOUS
10
7.20372
20
-4.28862
11
7.19831
21
-4.30167
0
LINE
8
BLACK
6
CONTINUOUS
10
7.19831
20
-4.30167
11
7.19148
21
-4.31404
0
LINE
8
BLACK
6
CONTINUOUS
10
7.19148
20
-4.31404
11
7.1833
21
-4.32556
0
LINE
8
BLACK
6
CONTINUOUS
10
7.1833
20
-4.32556
11
7.17389
21
-4.33609
0
LINE
8
BLACK
6
CONTINUOUS
10
7.17389
20
-4.33609
11
7.16335
21
-4.34551
0
LINE
8
BLACK
6
CONTINUOUS
10
7.16335
20
-4.34551
11
7.15183
21
-4.35368
0
LINE
8
BLACK
6
CONTINUOUS
10
7.15183
20
-4.35368
11
7.13947
21
-4.36052
0
LINE
8
BLACK
6
CONTINUOUS
10
7.13947
20
-4.36052
11
7.12641
21
-4.36592
0
LINE
8
BLACK
6
CONTINUOUS
10
7.12641
20
-4.36592
11
7.11284
21
-4.36983
0
LINE
8
BLACK
6
CONTINUOUS
10
7.11284
20
-4.36983
11
7.09891
21
-4.3722
0
LINE
8
BLACK
6
CONTINUOUS
10
7.09891
20
-4.3722
11
7.0848
21
-4.37299
0
LINE
8
BLACK
6
CONTINUOUS
10
7.0848
20
-4.37299
11
7.0707
21
-4.3722
0
LINE
8
BLACK
6
CONTINUOUS
10
7.0707
20
-4.3722
11
7.05677
21
-4.36983
0
LINE
8
BLACK
6
CONTINUOUS
10
7.05677
20
-4.36983
11
7.04319
21
-4.36592
0
LINE
8
BLACK
6
CONTINUOUS
10
7.04319
20
-4.36592
11
7.03014
21
-4.36052
0
LINE
8
BLACK
6
CONTINUOUS
10
7.03014
20
-4.36052
11
7.01778
21
-4.35368
0
LINE
8
BLACK
6
CONTINUOUS
10
7.01778
20
-4.35368
11
7.00625
21
-4.34551
0
LINE
8
BLACK
6
CONTINUOUS
10
7.00625
20
-4.34551
11
6.99572
21
-4.33609
0
LINE
8
BLACK
6
CONTINUOUS
10
6.99572
20
-4.33609
11
6.9863
21
-4.32556
0
LINE
8
BLACK
6
CONTINUOUS
10
6.9863
20
-4.32556
11
6.97813
21
-4.31404
0
LINE
8
BLACK
6
CONTINUOUS
10
6.97813
20
-4.31404
11
6.9713
21
-4.30167
0
LINE
8
BLACK
6
CONTINUOUS
10
6.9713
20
-4.30167
11
6.96589
21
-4.28862
0
LINE
8
BLACK
6
CONTINUOUS
10
6.96589
20
-4.28862
11
6.96198
21
-4.27504
0
LINE
8
BLACK
6
CONTINUOUS
10
6.96198
20
-4.27504
11
6.95961
21
-4.26111
0
LINE
8
BLACK
6
CONTINUOUS
10
6.95961
20
-4.26111
11
6.95882
21
-4.24701
0
LINE
8
BLACK
6
CONTINUOUS
10
6.95882
20
-4.24701
11
6.95961
21
-4.2329
0
LINE
8
BLACK
6
CONTINUOUS
10
6.95961
20
-4.2329
11
6.96198
21
-4.21897
0
LINE
8
BLACK
6
CONTINUOUS
10
6.96198
20
-4.21897
11
6.96589
21
-4.2054
0
LINE
8
BLACK
6
CONTINUOUS
10
6.96589
20
-4.2054
11
6.9713
21
-4.19235
0
LINE
8
BLACK
6
CONTINUOUS
10
6.9713
20
-4.19235
11
6.97813
21
-4.17998
0
LINE
8
BLACK
6
CONTINUOUS
10
6.97813
20
-4.17998
11
6.9863
21
-4.16846
0
LINE
8
BLACK
6
CONTINUOUS
10
6.9863
20
-4.16846
11
6.99572
21
-4.15792
0
LINE
8
BLACK
6
CONTINUOUS
10
6.99572
20
-4.15792
11
7.00625
21
-4.14851
0
LINE
8
BLACK
6
CONTINUOUS
10
7.00625
20
-4.14851
11
7.01778
21
-4.14033
0
LINE
8
BLACK
6
CONTINUOUS
10
7.01778
20
-4.14033
11
7.03014
21
-4.1335
0
LINE
8
BLACK
6
CONTINUOUS
10
7.03014
20
-4.1335
11
7.04319
21
-4.12809
0
LINE
8
BLACK
6
CONTINUOUS
10
7.04319
20
-4.12809
11
7.05677
21
-4.12418
0
LINE
8
BLACK
6
CONTINUOUS
10
7.05677
20
-4.12418
11
7.0707
21
-4.12182
0
LINE
8
BLACK
6
CONTINUOUS
10
7.0707
20
-4.12182
11
7.0848
21
-4.12102
0
LINE
8
BLACK
6
CONTINUOUS
10
7.0848
20
-4.12102
11
7.09891
21
-4.12182
0
LINE
8
BLACK
6
CONTINUOUS
10
5.18815
20
-3.85387
11
5.19707
21
-3.85693
0
LINE
8
BLACK
6
CONTINUOUS
10
5.19707
20
-3.85693
11
5.20536
21
-3.86142
0
LINE
8
BLACK
6
CONTINUOUS
10
5.20536
20
-3.86142
11
5.2128
21
-3.86721
0
LINE
8
BLACK
6
CONTINUOUS
10
5.2128
20
-3.86721
11
5.21918
21
-3.87415
0
LINE
8
BLACK
6
CONTINUOUS
10
5.21918
20
-3.87415
11
5.22434
21
-3.88204
0
LINE
8
BLACK
6
CONTINUOUS
10
5.22434
20
-3.88204
11
5.22813
21
-3.89068
0
LINE
8
BLACK
6
CONTINUOUS
10
5.22813
20
-3.89068
11
5.23044
21
-3.89982
0
LINE
8
BLACK
6
CONTINUOUS
10
5.23044
20
-3.89982
11
5.23122
21
-3.90921
0
LINE
8
BLACK
6
CONTINUOUS
10
5.23122
20
-3.90921
11
5.23044
21
-3.91861
0
LINE
8
BLACK
6
CONTINUOUS
10
5.23044
20
-3.91861
11
5.22813
21
-3.92775
0
LINE
8
BLACK
6
CONTINUOUS
10
5.22813
20
-3.92775
11
5.22434
21
-3.93638
0
LINE
8
BLACK
6
CONTINUOUS
10
5.22434
20
-3.93638
11
5.21918
21
-3.94428
0
LINE
8
BLACK
6
CONTINUOUS
10
5.21918
20
-3.94428
11
5.2128
21
-3.95121
0
LINE
8
BLACK
6
CONTINUOUS
10
5.2128
20
-3.95121
11
5.20536
21
-3.957
0
LINE
8
BLACK
6
CONTINUOUS
10
5.20536
20
-3.957
11
5.19707
21
-3.96149
0
LINE
8
BLACK
6
CONTINUOUS
10
5.19707
20
-3.96149
11
5.18815
21
-3.96455
0
LINE
8
BLACK
6
CONTINUOUS
10
5.18815
20
-3.96455
11
5.17885
21
-3.9661
0
LINE
8
BLACK
6
CONTINUOUS
10
5.17885
20
-3.9661
11
5.16942
21
-3.9661
0
LINE
8
BLACK
6
CONTINUOUS
10
5.16942
20
-3.9661
11
5.16012
21
-3.96455
0
LINE
8
BLACK
6
CONTINUOUS
10
5.16012
20
-3.96455
11
5.1512
21
-3.96149
0
LINE
8
BLACK
6
CONTINUOUS
10
5.1512
20
-3.96149
11
5.14291
21
-3.957
0
LINE
8
BLACK
6
CONTINUOUS
10
5.14291
20
-3.957
11
5.13547
21
-3.95121
0
LINE
8
BLACK
6
CONTINUOUS
10
5.13547
20
-3.95121
11
5.12908
21
-3.94428
0
LINE
8
BLACK
6
CONTINUOUS
10
5.12908
20
-3.94428
11
5.12393
21
-3.93638
0
LINE
8
BLACK
6
CONTINUOUS
10
5.12393
20
-3.93638
11
5.12014
21
-3.92775
0
LINE
8
BLACK
6
CONTINUOUS
10
5.12014
20
-3.92775
11
5.11783
21
-3.91861
0
LINE
8
BLACK
6
CONTINUOUS
10
5.11783
20
-3.91861
11
5.11705
21
-3.90921
0
LINE
8
BLACK
6
CONTINUOUS
10
5.11705
20
-3.90921
11
5.11783
21
-3.89982
0
LINE
8
BLACK
6
CONTINUOUS
10
5.11783
20
-3.89982
11
5.12014
21
-3.89068
0
LINE
8
BLACK
6
CONTINUOUS
10
5.12014
20
-3.89068
11
5.12393
21
-3.88204
0
LINE
8
BLACK
6
CONTINUOUS
10
5.12393
20
-3.88204
11
5.12908
21
-3.87415
0
LINE
8
BLACK
6
CONTINUOUS
10
5.12908
20
-3.87415
11
5.13547
21
-3.86721
0
LINE
8
BLACK
6
CONTINUOUS
10
5.13547
20
-3.86721
11
5.14291
21
-3.86142
0
LINE
8
BLACK
6
CONTINUOUS
10
5.14291
20
-3.86142
11
5.1512
21
-3.85693
0
LINE
8
BLACK
6
CONTINUOUS
10
5.1512
20
-3.85693
11
5.16012
21
-3.85387
0
LINE
8
BLACK
6
CONTINUOUS
10
5.16012
20
-3.85387
11
5.16942
21
-3.85232
0
LINE
8
BLACK
6
CONTINUOUS
10
5.16942
20
-3.85232
11
5.17885
21
-3.85232
0
LINE
8
BLACK
6
CONTINUOUS
10
5.17885
20
-3.85232
11
5.18815
21
-3.85387
0
LINE
8
BLACK
6
CONTINUOUS
10
6.91945
20
-3.85387
11
6.92836
21
-3.85693
0
LINE
8
BLACK
6
CONTINUOUS
10
6.92836
20
-3.85693
11
6.93666
21
-3.86142
0
LINE
8
BLACK
6
CONTINUOUS
10
6.93666
20
-3.86142
11
6.9441
21
-3.86721
0
LINE
8
BLACK
6
CONTINUOUS
10
6.9441
20
-3.86721
11
6.95048
21
-3.87415
0
LINE
8
BLACK
6
CONTINUOUS
10
6.95048
20
-3.87415
11
6.95564
21
-3.88204
0
LINE
8
BLACK
6
CONTINUOUS
10
6.95564
20
-3.88204
11
6.95943
21
-3.89068
0
LINE
8
BLACK
6
CONTINUOUS
10
6.95943
20
-3.89068
11
6.96174
21
-3.89982
0
LINE
8
BLACK
6
CONTINUOUS
10
6.96174
20
-3.89982
11
6.96252
21
-3.90921
0
LINE
8
BLACK
6
CONTINUOUS
10
6.96252
20
-3.90921
11
6.96174
21
-3.91861
0
LINE
8
BLACK
6
CONTINUOUS
10
6.96174
20
-3.91861
11
6.95943
21
-3.92775
0
LINE
8
BLACK
6
CONTINUOUS
10
6.95943
20
-3.92775
11
6.95564
21
-3.93638
0
LINE
8
BLACK
6
CONTINUOUS
10
6.95564
20
-3.93638
11
6.95048
21
-3.94428
0
LINE
8
BLACK
6
CONTINUOUS
10
6.95048
20
-3.94428
11
6.9441
21
-3.95121
0
LINE
8
BLACK
6
CONTINUOUS
10
6.9441
20
-3.95121
11
6.93666
21
-3.957
0
LINE
8
BLACK
6
CONTINUOUS
10
6.93666
20
-3.957
11
6.92836
21
-3.96149
0
LINE
8
BLACK
6
CONTINUOUS
10
6.92836
20
-3.96149
11
6.91945
21
-3.96455
0
LINE
8
BLACK
6
CONTINUOUS
10
6.91945
20
-3.96455
11
6.91015
21
-3.9661
0
LINE
8
BLACK
6
CONTINUOUS
10
6.91015
20
-3.9661
11
6.90072
21
-3.9661
0
LINE
8
BLACK
6
CONTINUOUS
10
6.90072
20
-3.9661
11
6.89142
21
-3.96455
0
LINE
8
BLACK
6
CONTINUOUS
10
6.89142
20
-3.96455
11
6.8825
21
-3.96149
0
LINE
8
BLACK
6
CONTINUOUS
10
6.8825
20
-3.96149
11
6.87421
21
-3.957
0
LINE
8
BLACK
6
CONTINUOUS
10
6.87421
20
-3.957
11
6.86677
21
-3.95121
0
LINE
8
BLACK
6
CONTINUOUS
10
6.86677
20
-3.95121
11
6.86038
21
-3.94428
0
LINE
8
BLACK
6
CONTINUOUS
10
6.86038
20
-3.94428
11
6.85523
21
-3.93638
0
LINE
8
BLACK
6
CONTINUOUS
10
6.85523
20
-3.93638
11
6.85144
21
-3.92775
0
LINE
8
BLACK
6
CONTINUOUS
10
6.85144
20
-3.92775
11
6.84913
21
-3.91861
0
LINE
8
BLACK
6
CONTINUOUS
10
6.84913
20
-3.91861
11
6.84835
21
-3.90921
0
LINE
8
BLACK
6
CONTINUOUS
10
6.84835
20
-3.90921
11
6.84913
21
-3.89982
0
LINE
8
BLACK
6
CONTINUOUS
10
6.84913
20
-3.89982
11
6.85144
21
-3.89068
0
LINE
8
BLACK
6
CONTINUOUS
10
6.85144
20
-3.89068
11
6.85523
21
-3.88204
0
LINE
8
BLACK
6
CONTINUOUS
10
6.85523
20
-3.88204
11
6.86038
21
-3.87415
0
LINE
8
BLACK
6
CONTINUOUS
10
6.86038
20
-3.87415
11
6.86677
21
-3.86721
0
LINE
8
BLACK
6
CONTINUOUS
10
6.86677
20
-3.86721
11
6.87421
21
-3.86142
0
LINE
8
BLACK
6
CONTINUOUS
10
6.87421
20
-3.86142
11
6.8825
21
-3.85693
0
LINE
8
BLACK
6
CONTINUOUS
10
6.8825
20
-3.85693
11
6.89142
21
-3.85387
0
LINE
8
BLACK
6
CONTINUOUS
10
6.89142
20
-3.85387
11
6.90072
21
-3.85232
0
LINE
8
BLACK
6
CONTINUOUS
10
6.90072
20
-3.85232
11
6.91015
21
-3.85232
0
LINE
8
BLACK
6
CONTINUOUS
10
6.91015
20
-3.85232
11
6.91945
21
-3.85387
0
LINE
8
BLACK
6
CONTINUOUS
10
5.5543
20
-3.8295
11
5.55929
21
-3.83124
0
LINE
8
BLACK
6
CONTINUOUS
10
5.55929
20
-3.83124
11
5.56354
21
-3.83438
0
LINE
8
BLACK
6
CONTINUOUS
10
5.56354
20
-3.83438
11
5.56667
21
-3.83863
0
LINE
8
BLACK
6
CONTINUOUS
10
5.56667
20
-3.83863
11
5.56842
21
-3.84361
0
LINE
8
BLACK
6
CONTINUOUS
10
5.56842
20
-3.84361
11
5.56872
21
-3.84691
0
LINE
8
BLACK
6
CONTINUOUS
10
5.56872
20
-3.84691
11
5.56872
21
-3.88431
0
LINE
8
BLACK
6
CONTINUOUS
10
5.56872
20
-3.88431
11
5.56842
21
-3.8876
0
LINE
8
BLACK
6
CONTINUOUS
10
5.56842
20
-3.8876
11
5.56667
21
-3.89259
0
LINE
8
BLACK
6
CONTINUOUS
10
5.56667
20
-3.89259
11
5.56354
21
-3.89683
0
LINE
8
BLACK
6
CONTINUOUS
10
5.56354
20
-3.89683
11
5.55929
21
-3.89997
0
LINE
8
BLACK
6
CONTINUOUS
10
5.55929
20
-3.89997
11
5.5543
21
-3.90171
0
LINE
8
BLACK
6
CONTINUOUS
10
5.5543
20
-3.90171
11
5.55101
21
-3.90202
0
LINE
8
BLACK
6
CONTINUOUS
10
5.55101
20
-3.90202
11
5.53132
21
-3.90202
0
LINE
8
BLACK
6
CONTINUOUS
10
5.53132
20
-3.90202
11
5.52803
21
-3.90171
0
LINE
8
BLACK
6
CONTINUOUS
10
5.52803
20
-3.90171
11
5.52304
21
-3.89997
0
LINE
8
BLACK
6
CONTINUOUS
10
5.52304
20
-3.89997
11
5.5188
21
-3.89683
0
LINE
8
BLACK
6
CONTINUOUS
10
5.5188
20
-3.89683
11
5.51566
21
-3.89259
0
LINE
8
BLACK
6
CONTINUOUS
10
5.51566
20
-3.89259
11
5.51392
21
-3.8876
0
LINE
8
BLACK
6
CONTINUOUS
10
5.51392
20
-3.8876
11
5.51361
21
-3.88431
0
LINE
8
BLACK
6
CONTINUOUS
10
5.51361
20
-3.88431
11
5.51361
21
-3.84691
0
LINE
8
BLACK
6
CONTINUOUS
10
5.51361
20
-3.84691
11
5.51392
21
-3.84361
0
LINE
8
BLACK
6
CONTINUOUS
10
5.51392
20
-3.84361
11
5.51566
21
-3.83863
0
LINE
8
BLACK
6
CONTINUOUS
10
5.51566
20
-3.83863
11
5.5188
21
-3.83438
0
LINE
8
BLACK
6
CONTINUOUS
10
5.5188
20
-3.83438
11
5.52304
21
-3.83124
0
LINE
8
BLACK
6
CONTINUOUS
10
5.52304
20
-3.83124
11
5.52803
21
-3.8295
0
LINE
8
BLACK
6
CONTINUOUS
10
5.52803
20
-3.8295
11
5.53132
21
-3.82919
0
LINE
8
BLACK
6
CONTINUOUS
10
5.53132
20
-3.82919
11
5.55101
21
-3.82919
0
LINE
8
BLACK
6
CONTINUOUS
10
5.55101
20
-3.82919
11
5.5543
21
-3.8295
0
LINE
8
BLACK
6
CONTINUOUS
10
5.6291
20
-3.8295
11
5.63409
21
-3.83124
0
LINE
8
BLACK
6
CONTINUOUS
10
5.63409
20
-3.83124
11
5.63834
21
-3.83438
0
LINE
8
BLACK
6
CONTINUOUS
10
5.63834
20
-3.83438
11
5.64147
21
-3.83863
0
LINE
8
BLACK
6
CONTINUOUS
10
5.64147
20
-3.83863
11
5.64322
21
-3.84361
0
LINE
8
BLACK
6
CONTINUOUS
10
5.64322
20
-3.84361
11
5.64353
21
-3.84691
0
LINE
8
BLACK
6
CONTINUOUS
10
5.64353
20
-3.84691
11
5.64353
21
-3.88431
0
LINE
8
BLACK
6
CONTINUOUS
10
5.64353
20
-3.88431
11
5.64322
21
-3.8876
0
LINE
8
BLACK
6
CONTINUOUS
10
5.64322
20
-3.8876
11
5.64147
21
-3.89259
0
LINE
8
BLACK
6
CONTINUOUS
10
5.64147
20
-3.89259
11
5.63834
21
-3.89683
0
LINE
8
BLACK
6
CONTINUOUS
10
5.63834
20
-3.89683
11
5.63409
21
-3.89997
0
LINE
8
BLACK
6
CONTINUOUS
10
5.63409
20
-3.89997
11
5.6291
21
-3.90171
0
LINE
8
BLACK
6
CONTINUOUS
10
5.6291
20
-3.90171
11
5.62581
21
-3.90202
0
LINE
8
BLACK
6
CONTINUOUS
10
5.62581
20
-3.90202
11
5.60613
21
-3.90202
0
LINE
8
BLACK
6
CONTINUOUS
10
5.60613
20
-3.90202
11
5.60283
21
-3.90171
0
LINE
8
BLACK
6
CONTINUOUS
10
5.60283
20
-3.90171
11
5.59785
21
-3.89997
0
LINE
8
BLACK
6
CONTINUOUS
10
5.59785
20
-3.89997
11
5.5936
21
-3.89683
0
LINE
8
BLACK
6
CONTINUOUS
10
5.5936
20
-3.89683
11
5.59046
21
-3.89259
0
LINE
8
BLACK
6
CONTINUOUS
10
5.59046
20
-3.89259
11
5.58872
21
-3.8876
0
LINE
8
BLACK
6
CONTINUOUS
10
5.58872
20
-3.8876
11
5.58841
21
-3.88431
0
LINE
8
BLACK
6
CONTINUOUS
10
5.58841
20
-3.88431
11
5.58841
21
-3.84691
0
LINE
8
BLACK
6
CONTINUOUS
10
5.58841
20
-3.84691
11
5.58872
21
-3.84361
0
LINE
8
BLACK
6
CONTINUOUS
10
5.58872
20
-3.84361
11
5.59046
21
-3.83863
0
LINE
8
BLACK
6
CONTINUOUS
10
5.59046
20
-3.83863
11
5.5936
21
-3.83438
0
LINE
8
BLACK
6
CONTINUOUS
10
5.5936
20
-3.83438
11
5.59785
21
-3.83124
0
LINE
8
BLACK
6
CONTINUOUS
10
5.59785
20
-3.83124
11
5.60283
21
-3.8295
0
LINE
8
BLACK
6
CONTINUOUS
10
5.60283
20
-3.8295
11
5.60613
21
-3.82919
0
LINE
8
BLACK
6
CONTINUOUS
10
5.60613
20
-3.82919
11
5.62581
21
-3.82919
0
LINE
8
BLACK
6
CONTINUOUS
10
5.62581
20
-3.82919
11
5.6291
21
-3.8295
0
LINE
8
BLACK
6
CONTINUOUS
10
6.46854
20
-3.8269
11
6.47352
21
-3.82864
0
LINE
8
BLACK
6
CONTINUOUS
10
6.47352
20
-3.82864
11
6.47777
21
-3.83178
0
LINE
8
BLACK
6
CONTINUOUS
10
6.47777
20
-3.83178
11
6.48091
21
-3.83603
0
LINE
8
BLACK
6
CONTINUOUS
10
6.48091
20
-3.83603
11
6.48265
21
-3.84101
0
LINE
8
BLACK
6
CONTINUOUS
10
6.48265
20
-3.84101
11
6.48296
21
-3.84431
0
LINE
8
BLACK
6
CONTINUOUS
10
6.48296
20
-3.84431
11
6.48296
21
-3.88171
0
LINE
8
BLACK
6
CONTINUOUS
10
6.48296
20
-3.88171
11
6.48265
21
-3.885
0
LINE
8
BLACK
6
CONTINUOUS
10
6.48265
20
-3.885
11
6.48091
21
-3.88999
0
LINE
8
BLACK
6
CONTINUOUS
10
6.48091
20
-3.88999
11
6.47777
21
-3.89424
0
LINE
8
BLACK
6
CONTINUOUS
10
6.47777
20
-3.89424
11
6.47352
21
-3.89737
0
LINE
8
BLACK
6
CONTINUOUS
10
6.47352
20
-3.89737
11
6.46854
21
-3.89912
0
LINE
8
BLACK
6
CONTINUOUS
10
6.46854
20
-3.89912
11
6.46524
21
-3.89943
0
LINE
8
BLACK
6
CONTINUOUS
10
6.46524
20
-3.89943
11
6.44556
21
-3.89943
0
LINE
8
BLACK
6
CONTINUOUS
10
6.44556
20
-3.89943
11
6.44227
21
-3.89912
0
LINE
8
BLACK
6
CONTINUOUS
10
6.44227
20
-3.89912
11
6.43728
21
-3.89737
0
LINE
8
BLACK
6
CONTINUOUS
10
6.43728
20
-3.89737
11
6.43303
21
-3.89424
0
LINE
8
BLACK
6
CONTINUOUS
10
6.43303
20
-3.89424
11
6.4299
21
-3.88999
0
LINE
8
BLACK
6
CONTINUOUS
10
6.4299
20
-3.88999
11
6.42815
21
-3.885
0
LINE
8
BLACK
6
CONTINUOUS
10
6.42815
20
-3.885
11
6.42784
21
-3.88171
0
LINE
8
BLACK
6
CONTINUOUS
10
6.42784
20
-3.88171
11
6.42784
21
-3.84431
0
LINE
8
BLACK
6
CONTINUOUS
10
6.42784
20
-3.84431
11
6.42815
21
-3.84101
0
LINE
8
BLACK
6
CONTINUOUS
10
6.42815
20
-3.84101
11
6.4299
21
-3.83603
0
LINE
8
BLACK
6
CONTINUOUS
10
6.4299
20
-3.83603
11
6.43303
21
-3.83178
0
LINE
8
BLACK
6
CONTINUOUS
10
6.43303
20
-3.83178
11
6.43728
21
-3.82864
0
LINE
8
BLACK
6
CONTINUOUS
10
6.43728
20
-3.82864
11
6.44227
21
-3.8269
0
LINE
8
BLACK
6
CONTINUOUS
10
6.44227
20
-3.8269
11
6.44556
21
-3.82659
0
LINE
8
BLACK
6
CONTINUOUS
10
6.44556
20
-3.82659
11
6.46524
21
-3.82659
0
LINE
8
BLACK
6
CONTINUOUS
10
6.46524
20
-3.82659
11
6.46854
21
-3.8269
0
LINE
8
BLACK
6
CONTINUOUS
10
6.54334
20
-3.8269
11
6.54833
21
-3.82864
0
LINE
8
BLACK
6
CONTINUOUS
10
6.54833
20
-3.82864
11
6.55257
21
-3.83178
0
LINE
8
BLACK
6
CONTINUOUS
10
6.55257
20
-3.83178
11
6.55571
21
-3.83603
0
LINE
8
BLACK
6
CONTINUOUS
10
6.55571
20
-3.83603
11
6.55745
21
-3.84101
0
LINE
8
BLACK
6
CONTINUOUS
10
6.55745
20
-3.84101
11
6.55776
21
-3.84431
0
LINE
8
BLACK
6
CONTINUOUS
10
6.55776
20
-3.84431
11
6.55776
21
-3.88171
0
LINE
8
BLACK
6
CONTINUOUS
10
6.55776
20
-3.88171
11
6.55745
21
-3.885
0
LINE
8
BLACK
6
CONTINUOUS
10
6.55745
20
-3.885
11
6.55571
21
-3.88999
0
LINE
8
BLACK
6
CONTINUOUS
10
6.55571
20
-3.88999
11
6.55257
21
-3.89424
0
LINE
8
BLACK
6
CONTINUOUS
10
6.55257
20
-3.89424
11
6.54833
21
-3.89737
0
LINE
8
BLACK
6
CONTINUOUS
10
6.54833
20
-3.89737
11
6.54334
21
-3.89912
0
LINE
8
BLACK
6
CONTINUOUS
10
6.54334
20
-3.89912
11
6.54005
21
-3.89943
0
LINE
8
BLACK
6
CONTINUOUS
10
6.54005
20
-3.89943
11
6.52036
21
-3.89943
0
LINE
8
BLACK
6
CONTINUOUS
10
6.52036
20
-3.89943
11
6.51707
21
-3.89912
0
LINE
8
BLACK
6
CONTINUOUS
10
6.51707
20
-3.89912
11
6.51208
21
-3.89737
0
LINE
8
BLACK
6
CONTINUOUS
10
6.51208
20
-3.89737
11
6.50783
21
-3.89424
0
LINE
8
BLACK
6
CONTINUOUS
10
6.50783
20
-3.89424
11
6.5047
21
-3.88999
0
LINE
8
BLACK
6
CONTINUOUS
10
6.5047
20
-3.88999
11
6.50295
21
-3.885
0
LINE
8
BLACK
6
CONTINUOUS
10
6.50295
20
-3.885
11
6.50265
21
-3.88171
0
LINE
8
BLACK
6
CONTINUOUS
10
6.50265
20
-3.88171
11
6.50265
21
-3.84431
0
LINE
8
BLACK
6
CONTINUOUS
10
6.50265
20
-3.84431
11
6.50295
21
-3.84101
0
LINE
8
BLACK
6
CONTINUOUS
10
6.50295
20
-3.84101
11
6.5047
21
-3.83603
0
LINE
8
BLACK
6
CONTINUOUS
10
6.5047
20
-3.83603
11
6.50783
21
-3.83178
0
LINE
8
BLACK
6
CONTINUOUS
10
6.50783
20
-3.83178
11
6.51208
21
-3.82864
0
LINE
8
BLACK
6
CONTINUOUS
10
6.51208
20
-3.82864
11
6.51707
21
-3.8269
0
LINE
8
BLACK
6
CONTINUOUS
10
6.51707
20
-3.8269
11
6.52036
21
-3.82659
0
LINE
8
BLACK
6
CONTINUOUS
10
6.52036
20
-3.82659
11
6.54005
21
-3.82659
0
LINE
8
BLACK
6
CONTINUOUS
10
6.54005
20
-3.82659
11
6.54334
21
-3.8269
0
LINE
8
BLACK
6
CONTINUOUS
10
5.69668
20
-3.83032
11
5.70127
21
-3.83266
0
LINE
8
BLACK
6
CONTINUOUS
10
5.70127
20
-3.83266
11
5.70492
21
-3.83631
0
LINE
8
BLACK
6
CONTINUOUS
10
5.70492
20
-3.83631
11
5.70726
21
-3.8409
0
LINE
8
BLACK
6
CONTINUOUS
10
5.70726
20
-3.8409
11
5.70807
21
-3.846
0
LINE
8
BLACK
6
CONTINUOUS
10
5.70807
20
-3.846
11
5.70807
21
-3.87602
0
LINE
8
BLACK
6
CONTINUOUS
10
5.70807
20
-3.87602
11
5.70726
21
-3.88111
0
LINE
8
BLACK
6
CONTINUOUS
10
5.70726
20
-3.88111
11
5.70492
21
-3.88571
0
LINE
8
BLACK
6
CONTINUOUS
10
5.70492
20
-3.88571
11
5.70127
21
-3.88936
0
LINE
8
BLACK
6
CONTINUOUS
10
5.70127
20
-3.88936
11
5.69668
21
-3.8917
0
LINE
8
BLACK
6
CONTINUOUS
10
5.69668
20
-3.8917
11
5.69158
21
-3.8925
0
LINE
8
BLACK
6
CONTINUOUS
10
5.69158
20
-3.8925
11
5.67436
21
-3.8925
0
LINE
8
BLACK
6
CONTINUOUS
10
5.67436
20
-3.8925
11
5.66927
21
-3.8917
0
LINE
8
BLACK
6
CONTINUOUS
10
5.66927
20
-3.8917
11
5.66467
21
-3.88936
0
LINE
8
BLACK
6
CONTINUOUS
10
5.66467
20
-3.88936
11
5.66102
21
-3.88571
0
LINE
8
BLACK
6
CONTINUOUS
10
5.66102
20
-3.88571
11
5.65868
21
-3.88111
0
LINE
8
BLACK
6
CONTINUOUS
10
5.65868
20
-3.88111
11
5.65787
21
-3.87602
0
LINE
8
BLACK
6
CONTINUOUS
10
5.65787
20
-3.87602
11
5.65787
21
-3.846
0
LINE
8
BLACK
6
CONTINUOUS
10
5.65787
20
-3.846
11
5.65868
21
-3.8409
0
LINE
8
BLACK
6
CONTINUOUS
10
5.65868
20
-3.8409
11
5.66102
21
-3.83631
0
LINE
8
BLACK
6
CONTINUOUS
10
5.66102
20
-3.83631
11
5.66467
21
-3.83266
0
LINE
8
BLACK
6
CONTINUOUS
10
5.66467
20
-3.83266
11
5.66927
21
-3.83032
0
LINE
8
BLACK
6
CONTINUOUS
10
5.66927
20
-3.83032
11
5.67436
21
-3.82951
0
LINE
8
BLACK
6
CONTINUOUS
10
5.67436
20
-3.82951
11
5.69158
21
-3.82951
0
LINE
8
BLACK
6
CONTINUOUS
10
5.69158
20
-3.82951
11
5.69668
21
-3.83032
0
LINE
8
BLACK
6
CONTINUOUS
10
5.78034
20
-3.83032
11
5.78494
21
-3.83266
0
LINE
8
BLACK
6
CONTINUOUS
10
5.78494
20
-3.83266
11
5.78858
21
-3.83631
0
LINE
8
BLACK
6
CONTINUOUS
10
5.78858
20
-3.83631
11
5.79093
21
-3.8409
0
LINE
8
BLACK
6
CONTINUOUS
10
5.79093
20
-3.8409
11
5.79173
21
-3.846
0
LINE
8
BLACK
6
CONTINUOUS
10
5.79173
20
-3.846
11
5.79173
21
-3.87602
0
LINE
8
BLACK
6
CONTINUOUS
10
5.79173
20
-3.87602
11
5.79093
21
-3.88111
0
LINE
8
BLACK
6
CONTINUOUS
10
5.79093
20
-3.88111
11
5.78858
21
-3.88571
0
LINE
8
BLACK
6
CONTINUOUS
10
5.78858
20
-3.88571
11
5.78494
21
-3.88936
0
LINE
8
BLACK
6
CONTINUOUS
10
5.78494
20
-3.88936
11
5.78034
21
-3.8917
0
LINE
8
BLACK
6
CONTINUOUS
10
5.78034
20
-3.8917
11
5.77525
21
-3.8925
0
LINE
8
BLACK
6
CONTINUOUS
10
5.77525
20
-3.8925
11
5.75802
21
-3.8925
0
LINE
8
BLACK
6
CONTINUOUS
10
5.75802
20
-3.8925
11
5.75293
21
-3.8917
0
LINE
8
BLACK
6
CONTINUOUS
10
5.75293
20
-3.8917
11
5.74833
21
-3.88936
0
LINE
8
BLACK
6
CONTINUOUS
10
5.74833
20
-3.88936
11
5.74468
21
-3.88571
0
LINE
8
BLACK
6
CONTINUOUS
10
5.74468
20
-3.88571
11
5.74234
21
-3.88111
0
LINE
8
BLACK
6
CONTINUOUS
10
5.74234
20
-3.88111
11
5.74154
21
-3.87602
0
LINE
8
BLACK
6
CONTINUOUS
10
5.74154
20
-3.87602
11
5.74154
21
-3.846
0
LINE
8
BLACK
6
CONTINUOUS
10
5.74154
20
-3.846
11
5.74234
21
-3.8409
0
LINE
8
BLACK
6
CONTINUOUS
10
5.74234
20
-3.8409
11
5.74468
21
-3.83631
0
LINE
8
BLACK
6
CONTINUOUS
10
5.74468
20
-3.83631
11
5.74833
21
-3.83266
0
LINE
8
BLACK
6
CONTINUOUS
10
5.74833
20
-3.83266
11
5.75293
21
-3.83032
0
LINE
8
BLACK
6
CONTINUOUS
10
5.75293
20
-3.83032
11
5.75802
21
-3.82951
0
LINE
8
BLACK
6
CONTINUOUS
10
5.75802
20
-3.82951
11
5.77525
21
-3.82951
0
LINE
8
BLACK
6
CONTINUOUS
10
5.77525
20
-3.82951
11
5.78034
21
-3.83032
0
LINE
8
BLACK
6
CONTINUOUS
10
6.00668
20
-3.82832
11
6.01127
21
-3.83066
0
LINE
8
BLACK
6
CONTINUOUS
10
6.01127
20
-3.83066
11
6.01492
21
-3.83431
0
LINE
8
BLACK
6
CONTINUOUS
10
6.01492
20
-3.83431
11
6.01726
21
-3.8389
0
LINE
8
BLACK
6
CONTINUOUS
10
6.01726
20
-3.8389
11
6.01807
21
-3.844
0
LINE
8
BLACK
6
CONTINUOUS
10
6.01807
20
-3.844
11
6.01807
21
-3.87402
0
LINE
8
BLACK
6
CONTINUOUS
10
6.01807
20
-3.87402
11
6.01726
21
-3.87911
0
LINE
8
BLACK
6
CONTINUOUS
10
6.01726
20
-3.87911
11
6.01492
21
-3.88371
0
LINE
8
BLACK
6
CONTINUOUS
10
6.01492
20
-3.88371
11
6.01127
21
-3.88736
0
LINE
8
BLACK
6
CONTINUOUS
10
6.01127
20
-3.88736
11
6.00668
21
-3.8897
0
LINE
8
BLACK
6
CONTINUOUS
10
6.00668
20
-3.8897
11
6.00158
21
-3.8905
0
LINE
8
BLACK
6
CONTINUOUS
10
6.00158
20
-3.8905
11
5.98436
21
-3.8905
0
LINE
8
BLACK
6
CONTINUOUS
10
5.98436
20
-3.8905
11
5.97927
21
-3.8897
0
LINE
8
BLACK
6
CONTINUOUS
10
5.97927
20
-3.8897
11
5.97467
21
-3.88736
0
LINE
8
BLACK
6
CONTINUOUS
10
5.97467
20
-3.88736
11
5.97102
21
-3.88371
0
LINE
8
BLACK
6
CONTINUOUS
10
5.97102
20
-3.88371
11
5.96868
21
-3.87911
0
LINE
8
BLACK
6
CONTINUOUS
10
5.96868
20
-3.87911
11
5.96787
21
-3.87402
0
LINE
8
BLACK
6
CONTINUOUS
10
5.96787
20
-3.87402
11
5.96787
21
-3.844
0
LINE
8
BLACK
6
CONTINUOUS
10
5.96787
20
-3.844
11
5.96868
21
-3.8389
0
LINE
8
BLACK
6
CONTINUOUS
10
5.96868
20
-3.8389
11
5.97102
21
-3.83431
0
LINE
8
BLACK
6
CONTINUOUS
10
5.97102
20
-3.83431
11
5.97467
21
-3.83066
0
LINE
8
BLACK
6
CONTINUOUS
10
5.97467
20
-3.83066
11
5.97927
21
-3.82832
0
LINE
8
BLACK
6
CONTINUOUS
10
5.97927
20
-3.82832
11
5.98436
21
-3.82751
0
LINE
8
BLACK
6
CONTINUOUS
10
5.98436
20
-3.82751
11
6.00158
21
-3.82751
0
LINE
8
BLACK
6
CONTINUOUS
10
6.00158
20
-3.82751
11
6.00668
21
-3.82832
0
LINE
8
BLACK
6
CONTINUOUS
10
6.09034
20
-3.82832
11
6.09494
21
-3.83066
0
LINE
8
BLACK
6
CONTINUOUS
10
6.09494
20
-3.83066
11
6.09858
21
-3.83431
0
LINE
8
BLACK
6
CONTINUOUS
10
6.09858
20
-3.83431
11
6.10093
21
-3.8389
0
LINE
8
BLACK
6
CONTINUOUS
10
6.10093
20
-3.8389
11
6.10173
21
-3.844
0
LINE
8
BLACK
6
CONTINUOUS
10
6.10173
20
-3.844
11
6.10173
21
-3.87402
0
LINE
8
BLACK
6
CONTINUOUS
10
6.10173
20
-3.87402
11
6.10093
21
-3.87911
0
LINE
8
BLACK
6
CONTINUOUS
10
6.10093
20
-3.87911
11
6.09858
21
-3.88371
0
LINE
8
BLACK
6
CONTINUOUS
10
6.09858
20
-3.88371
11
6.09494
21
-3.88736
0
LINE
8
BLACK
6
CONTINUOUS
10
6.09494
20
-3.88736
11
6.09034
21
-3.8897
0
LINE
8
BLACK
6
CONTINUOUS
10
6.09034
20
-3.8897
11
6.08525
21
-3.8905
0
LINE
8
BLACK
6
CONTINUOUS
10
6.08525
20
-3.8905
11
6.06802
21
-3.8905
0
LINE
8
BLACK
6
CONTINUOUS
10
6.06802
20
-3.8905
11
6.06293
21
-3.8897
0
LINE
8
BLACK
6
CONTINUOUS
10
6.06293
20
-3.8897
11
6.05833
21
-3.88736
0
LINE
8
BLACK
6
CONTINUOUS
10
6.05833
20
-3.88736
11
6.05468
21
-3.88371
0
LINE
8
BLACK
6
CONTINUOUS
10
6.05468
20
-3.88371
11
6.05234
21
-3.87911
0
LINE
8
BLACK
6
CONTINUOUS
10
6.05234
20
-3.87911
11
6.05154
21
-3.87402
0
LINE
8
BLACK
6
CONTINUOUS
10
6.05154
20
-3.87402
11
6.05154
21
-3.844
0
LINE
8
BLACK
6
CONTINUOUS
10
6.05154
20
-3.844
11
6.05234
21
-3.8389
0
LINE
8
BLACK
6
CONTINUOUS
10
6.05234
20
-3.8389
11
6.05468
21
-3.83431
0
LINE
8
BLACK
6
CONTINUOUS
10
6.05468
20
-3.83431
11
6.05833
21
-3.83066
0
LINE
8
BLACK
6
CONTINUOUS
10
6.05833
20
-3.83066
11
6.06293
21
-3.82832
0
LINE
8
BLACK
6
CONTINUOUS
10
6.06293
20
-3.82832
11
6.06802
21
-3.82751
0
LINE
8
BLACK
6
CONTINUOUS
10
6.06802
20
-3.82751
11
6.08525
21
-3.82751
0
LINE
8
BLACK
6
CONTINUOUS
10
6.08525
20
-3.82751
11
6.09034
21
-3.82832
0
LINE
8
BLACK
6
CONTINUOUS
10
6.31768
20
-3.82732
11
6.32227
21
-3.82966
0
LINE
8
BLACK
6
CONTINUOUS
10
6.32227
20
-3.82966
11
6.32592
21
-3.83331
0
LINE
8
BLACK
6
CONTINUOUS
10
6.32592
20
-3.83331
11
6.32826
21
-3.8379
0
LINE
8
BLACK
6
CONTINUOUS
10
6.32826
20
-3.8379
11
6.32907
21
-3.843
0
LINE
8
BLACK
6
CONTINUOUS
10
6.32907
20
-3.843
11
6.32907
21
-3.87302
0
LINE
8
BLACK
6
CONTINUOUS
10
6.32907
20
-3.87302
11
6.32826
21
-3.87811
0
LINE
8
BLACK
6
CONTINUOUS
10
6.32826
20
-3.87811
11
6.32592
21
-3.88271
0
LINE
8
BLACK
6
CONTINUOUS
10
6.32592
20
-3.88271
11
6.32227
21
-3.88636
0
LINE
8
BLACK
6
CONTINUOUS
10
6.32227
20
-3.88636
11
6.31768
21
-3.8887
0
LINE
8
BLACK
6
CONTINUOUS
10
6.31768
20
-3.8887
11
6.31258
21
-3.8895
0
LINE
8
BLACK
6
CONTINUOUS
10
6.31258
20
-3.8895
11
6.29536
21
-3.8895
0
LINE
8
BLACK
6
CONTINUOUS
10
6.29536
20
-3.8895
11
6.29027
21
-3.8887
0
LINE
8
BLACK
6
CONTINUOUS
10
6.29027
20
-3.8887
11
6.28567
21
-3.88636
0
LINE
8
BLACK
6
CONTINUOUS
10
6.28567
20
-3.88636
11
6.28202
21
-3.88271
0
LINE
8
BLACK
6
CONTINUOUS
10
6.28202
20
-3.88271
11
6.27968
21
-3.87811
0
LINE
8
BLACK
6
CONTINUOUS
10
6.27968
20
-3.87811
11
6.27887
21
-3.87302
0
LINE
8
BLACK
6
CONTINUOUS
10
6.27887
20
-3.87302
11
6.27887
21
-3.843
0
LINE
8
BLACK
6
CONTINUOUS
10
6.27887
20
-3.843
11
6.27968
21
-3.8379
0
LINE
8
BLACK
6
CONTINUOUS
10
6.27968
20
-3.8379
11
6.28202
21
-3.83331
0
LINE
8
BLACK
6
CONTINUOUS
10
6.28202
20
-3.83331
11
6.28567
21
-3.82966
0
LINE
8
BLACK
6
CONTINUOUS
10
6.28567
20
-3.82966
11
6.29027
21
-3.82732
0
LINE
8
BLACK
6
CONTINUOUS
10
6.29027
20
-3.82732
11
6.29536
21
-3.82651
0
LINE
8
BLACK
6
CONTINUOUS
10
6.29536
20
-3.82651
11
6.31258
21
-3.82651
0
LINE
8
BLACK
6
CONTINUOUS
10
6.31258
20
-3.82651
11
6.31768
21
-3.82732
0
LINE
8
BLACK
6
CONTINUOUS
10
6.40134
20
-3.82732
11
6.40594
21
-3.82966
0
LINE
8
BLACK
6
CONTINUOUS
10
6.40594
20
-3.82966
11
6.40958
21
-3.83331
0
LINE
8
BLACK
6
CONTINUOUS
10
6.40958
20
-3.83331
11
6.41193
21
-3.8379
0
LINE
8
BLACK
6
CONTINUOUS
10
6.41193
20
-3.8379
11
6.41273
21
-3.843
0
LINE
8
BLACK
6
CONTINUOUS
10
6.41273
20
-3.843
11
6.41273
21
-3.87302
0
LINE
8
BLACK
6
CONTINUOUS
10
6.41273
20
-3.87302
11
6.41193
21
-3.87811
0
LINE
8
BLACK
6
CONTINUOUS
10
6.41193
20
-3.87811
11
6.40958
21
-3.88271
0
LINE
8
BLACK
6
CONTINUOUS
10
6.40958
20
-3.88271
11
6.40594
21
-3.88636
0
LINE
8
BLACK
6
CONTINUOUS
10
6.40594
20
-3.88636
11
6.40134
21
-3.8887
0
LINE
8
BLACK
6
CONTINUOUS
10
6.40134
20
-3.8887
11
6.39625
21
-3.8895
0
LINE
8
BLACK
6
CONTINUOUS
10
6.39625
20
-3.8895
11
6.37902
21
-3.8895
0
LINE
8
BLACK
6
CONTINUOUS
10
6.37902
20
-3.8895
11
6.37393
21
-3.8887
0
LINE
8
BLACK
6
CONTINUOUS
10
6.37393
20
-3.8887
11
6.36933
21
-3.88636
0
LINE
8
BLACK
6
CONTINUOUS
10
6.36933
20
-3.88636
11
6.36568
21
-3.88271
0
LINE
8
BLACK
6
CONTINUOUS
10
6.36568
20
-3.88271
11
6.36334
21
-3.87811
0
LINE
8
BLACK
6
CONTINUOUS
10
6.36334
20
-3.87811
11
6.36254
21
-3.87302
0
LINE
8
BLACK
6
CONTINUOUS
10
6.36254
20
-3.87302
11
6.36254
21
-3.843
0
LINE
8
BLACK
6
CONTINUOUS
10
6.36254
20
-3.843
11
6.36334
21
-3.8379
0
LINE
8
BLACK
6
CONTINUOUS
10
6.36334
20
-3.8379
11
6.36568
21
-3.83331
0
LINE
8
BLACK
6
CONTINUOUS
10
6.36568
20
-3.83331
11
6.36933
21
-3.82966
0
LINE
8
BLACK
6
CONTINUOUS
10
6.36933
20
-3.82966
11
6.37393
21
-3.82732
0
LINE
8
BLACK
6
CONTINUOUS
10
6.37393
20
-3.82732
11
6.37902
21
-3.82651
0
LINE
8
BLACK
6
CONTINUOUS
10
6.37902
20
-3.82651
11
6.39625
21
-3.82651
0
LINE
8
BLACK
6
CONTINUOUS
10
6.39625
20
-3.82651
11
6.40134
21
-3.82732
0
LINE
8
BLACK
6
CONTINUOUS
10
5.94291
20
-3.83815
11
5.9475
21
-3.84049
0
LINE
8
BLACK
6
CONTINUOUS
10
5.9475
20
-3.84049
11
5.95115
21
-3.84413
0
LINE
8
BLACK
6
CONTINUOUS
10
5.95115
20
-3.84413
11
5.95349
21
-3.84873
0
LINE
8
BLACK
6
CONTINUOUS
10
5.95349
20
-3.84873
11
5.9543
21
-3.85382
0
LINE
8
BLACK
6
CONTINUOUS
10
5.9543
20
-3.85382
11
5.9543
21
-3.87105
0
LINE
8
BLACK
6
CONTINUOUS
10
5.9543
20
-3.87105
11
5.95349
21
-3.87614
0
LINE
8
BLACK
6
CONTINUOUS
10
5.95349
20
-3.87614
11
5.95115
21
-3.88074
0
LINE
8
BLACK
6
CONTINUOUS
10
5.95115
20
-3.88074
11
5.9475
21
-3.88439
0
LINE
8
BLACK
6
CONTINUOUS
10
5.9475
20
-3.88439
11
5.94291
21
-3.88673
0
LINE
8
BLACK
6
CONTINUOUS
10
5.94291
20
-3.88673
11
5.93781
21
-3.88754
0
LINE
8
BLACK
6
CONTINUOUS
10
5.93781
20
-3.88754
11
5.90779
21
-3.88754
0
LINE
8
BLACK
6
CONTINUOUS
10
5.90779
20
-3.88754
11
5.9027
21
-3.88673
0
LINE
8
BLACK
6
CONTINUOUS
10
5.9027
20
-3.88673
11
5.8981
21
-3.88439
0
LINE
8
BLACK
6
CONTINUOUS
10
5.8981
20
-3.88439
11
5.89446
21
-3.88074
0
LINE
8
BLACK
6
CONTINUOUS
10
5.89446
20
-3.88074
11
5.89211
21
-3.87614
0
LINE
8
BLACK
6
CONTINUOUS
10
5.89211
20
-3.87614
11
5.89131
21
-3.87105
0
LINE
8
BLACK
6
CONTINUOUS
10
5.89131
20
-3.87105
11
5.89131
21
-3.85382
0
LINE
8
BLACK
6
CONTINUOUS
10
5.89131
20
-3.85382
11
5.89211
21
-3.84873
0
LINE
8
BLACK
6
CONTINUOUS
10
5.89211
20
-3.84873
11
5.89446
21
-3.84413
0
LINE
8
BLACK
6
CONTINUOUS
10
5.89446
20
-3.84413
11
5.8981
21
-3.84049
0
LINE
8
BLACK
6
CONTINUOUS
10
5.8981
20
-3.84049
11
5.9027
21
-3.83815
0
LINE
8
BLACK
6
CONTINUOUS
10
5.9027
20
-3.83815
11
5.90779
21
-3.83734
0
LINE
8
BLACK
6
CONTINUOUS
10
5.90779
20
-3.83734
11
5.93781
21
-3.83734
0
LINE
8
BLACK
6
CONTINUOUS
10
5.93781
20
-3.83734
11
5.94291
21
-3.83815
0
LINE
8
BLACK
6
CONTINUOUS
10
5.8648
20
-3.83076
11
5.86978
21
-3.8325
0
LINE
8
BLACK
6
CONTINUOUS
10
5.86978
20
-3.8325
11
5.87403
21
-3.83564
0
LINE
8
BLACK
6
CONTINUOUS
10
5.87403
20
-3.83564
11
5.87717
21
-3.83989
0
LINE
8
BLACK
6
CONTINUOUS
10
5.87717
20
-3.83989
11
5.87891
21
-3.84487
0
LINE
8
BLACK
6
CONTINUOUS
10
5.87891
20
-3.84487
11
5.87922
21
-3.84817
0
LINE
8
BLACK
6
CONTINUOUS
10
5.87922
20
-3.84817
11
5.87922
21
-3.86785
0
LINE
8
BLACK
6
CONTINUOUS
10
5.87922
20
-3.86785
11
5.87891
21
-3.87114
0
LINE
8
BLACK
6
CONTINUOUS
10
5.87891
20
-3.87114
11
5.87717
21
-3.87613
0
LINE
8
BLACK
6
CONTINUOUS
10
5.87717
20
-3.87613
11
5.87403
21
-3.88038
0
LINE
8
BLACK
6
CONTINUOUS
10
5.87403
20
-3.88038
11
5.86978
21
-3.88351
0
LINE
8
BLACK
6
CONTINUOUS
10
5.86978
20
-3.88351
11
5.8648
21
-3.88526
0
LINE
8
BLACK
6
CONTINUOUS
10
5.8648
20
-3.88526
11
5.8615
21
-3.88557
0
LINE
8
BLACK
6
CONTINUOUS
10
5.8615
20
-3.88557
11
5.8241
21
-3.88557
0
LINE
8
BLACK
6
CONTINUOUS
10
5.8241
20
-3.88557
11
5.82081
21
-3.88526
0
LINE
8
BLACK
6
CONTINUOUS
10
5.82081
20
-3.88526
11
5.81582
21
-3.88351
0
LINE
8
BLACK
6
CONTINUOUS
10
5.81582
20
-3.88351
11
5.81157
21
-3.88038
0
LINE
8
BLACK
6
CONTINUOUS
10
5.81157
20
-3.88038
11
5.80844
21
-3.87613
0
LINE
8
BLACK
6
CONTINUOUS
10
5.80844
20
-3.87613
11
5.80669
21
-3.87114
0
LINE
8
BLACK
6
CONTINUOUS
10
5.80669
20
-3.87114
11
5.80639
21
-3.86785
0
LINE
8
BLACK
6
CONTINUOUS
10
5.80639
20
-3.86785
11
5.80639
21
-3.84817
0
LINE
8
BLACK
6
CONTINUOUS
10
5.80639
20
-3.84817
11
5.80669
21
-3.84487
0
LINE
8
BLACK
6
CONTINUOUS
10
5.80669
20
-3.84487
11
5.80844
21
-3.83989
0
LINE
8
BLACK
6
CONTINUOUS
10
5.80844
20
-3.83989
11
5.81157
21
-3.83564
0
LINE
8
BLACK
6
CONTINUOUS
10
5.81157
20
-3.83564
11
5.81582
21
-3.8325
0
LINE
8
BLACK
6
CONTINUOUS
10
5.81582
20
-3.8325
11
5.82081
21
-3.83076
0
LINE
8
BLACK
6
CONTINUOUS
10
5.82081
20
-3.83076
11
5.8241
21
-3.83045
0
LINE
8
BLACK
6
CONTINUOUS
10
5.8241
20
-3.83045
11
5.8615
21
-3.83045
0
LINE
8
BLACK
6
CONTINUOUS
10
5.8615
20
-3.83045
11
5.8648
21
-3.83076
0
LINE
8
BLACK
6
CONTINUOUS
10
6.25291
20
-3.83455
11
6.2575
21
-3.83689
0
LINE
8
BLACK
6
CONTINUOUS
10
6.2575
20
-3.83689
11
6.26115
21
-3.84054
0
LINE
8
BLACK
6
CONTINUOUS
10
6.26115
20
-3.84054
11
6.26349
21
-3.84513
0
LINE
8
BLACK
6
CONTINUOUS
10
6.26349
20
-3.84513
11
6.2643
21
-3.85023
0
LINE
8
BLACK
6
CONTINUOUS
10
6.2643
20
-3.85023
11
6.2643
21
-3.86745
0
LINE
8
BLACK
6
CONTINUOUS
10
6.2643
20
-3.86745
11
6.26349
21
-3.87255
0
LINE
8
BLACK
6
CONTINUOUS
10
6.26349
20
-3.87255
11
6.26115
21
-3.87714
0
LINE
8
BLACK
6
CONTINUOUS
10
6.26115
20
-3.87714
11
6.2575
21
-3.88079
0
LINE
8
BLACK
6
CONTINUOUS
10
6.2575
20
-3.88079
11
6.25291
21
-3.88313
0
LINE
8
BLACK
6
CONTINUOUS
10
6.25291
20
-3.88313
11
6.24781
21
-3.88394
0
LINE
8
BLACK
6
CONTINUOUS
10
6.24781
20
-3.88394
11
6.21779
21
-3.88394
0
LINE
8
BLACK
6
CONTINUOUS
10
6.21779
20
-3.88394
11
6.2127
21
-3.88313
0
LINE
8
BLACK
6
CONTINUOUS
10
6.2127
20
-3.88313
11
6.2081
21
-3.88079
0
LINE
8
BLACK
6
CONTINUOUS
10
6.2081
20
-3.88079
11
6.20446
21
-3.87714
0
LINE
8
BLACK
6
CONTINUOUS
10
6.20446
20
-3.87714
11
6.20211
21
-3.87255
0
LINE
8
BLACK
6
CONTINUOUS
10
6.20211
20
-3.87255
11
6.20131
21
-3.86745
0
LINE
8
BLACK
6
CONTINUOUS
10
6.20131
20
-3.86745
11
6.20131
21
-3.85023
0
LINE
8
BLACK
6
CONTINUOUS
10
6.20131
20
-3.85023
11
6.20211
21
-3.84513
0
LINE
8
BLACK
6
CONTINUOUS
10
6.20211
20
-3.84513
11
6.20446
21
-3.84054
0
LINE
8
BLACK
6
CONTINUOUS
10
6.20446
20
-3.84054
11
6.2081
21
-3.83689
0
LINE
8
BLACK
6
CONTINUOUS
10
6.2081
20
-3.83689
11
6.2127
21
-3.83455
0
LINE
8
BLACK
6
CONTINUOUS
10
6.2127
20
-3.83455
11
6.21779
21
-3.83374
0
LINE
8
BLACK
6
CONTINUOUS
10
6.21779
20
-3.83374
11
6.24781
21
-3.83374
0
LINE
8
BLACK
6
CONTINUOUS
10
6.24781
20
-3.83374
11
6.25291
21
-3.83455
0
LINE
8
BLACK
6
CONTINUOUS
10
6.1748
20
-3.82716
11
6.17978
21
-3.8289
0
LINE
8
BLACK
6
CONTINUOUS
10
6.17978
20
-3.8289
11
6.18403
21
-3.83204
0
LINE
8
BLACK
6
CONTINUOUS
10
6.18403
20
-3.83204
11
6.18717
21
-3.83629
0
LINE
8
BLACK
6
CONTINUOUS
10
6.18717
20
-3.83629
11
6.18891
21
-3.84127
0
LINE
8
BLACK
6
CONTINUOUS
10
6.18891
20
-3.84127
11
6.18922
21
-3.84457
0
LINE
8
BLACK
6
CONTINUOUS
10
6.18922
20
-3.84457
11
6.18922
21
-3.86425
0
LINE
8
BLACK
6
CONTINUOUS
10
6.18922
20
-3.86425
11
6.18891
21
-3.86755
0
LINE
8
BLACK
6
CONTINUOUS
10
6.18891
20
-3.86755
11
6.18717
21
-3.87253
0
LINE
8
BLACK
6
CONTINUOUS
10
6.18717
20
-3.87253
11
6.18403
21
-3.87678
0
LINE
8
BLACK
6
CONTINUOUS
10
6.18403
20
-3.87678
11
6.17978
21
-3.87992
0
LINE
8
BLACK
6
CONTINUOUS
10
6.17978
20
-3.87992
11
6.1748
21
-3.88166
0
LINE
8
BLACK
6
CONTINUOUS
10
6.1748
20
-3.88166
11
6.1715
21
-3.88197
0
LINE
8
BLACK
6
CONTINUOUS
10
6.1715
20
-3.88197
11
6.1341
21
-3.88197
0
LINE
8
BLACK
6
CONTINUOUS
10
6.1341
20
-3.88197
11
6.13081
21
-3.88166
0
LINE
8
BLACK
6
CONTINUOUS
10
6.13081
20
-3.88166
11
6.12582
21
-3.87992
0
LINE
8
BLACK
6
CONTINUOUS
10
6.12582
20
-3.87992
11
6.12157
21
-3.87678
0
LINE
8
BLACK
6
CONTINUOUS
10
6.12157
20
-3.87678
11
6.11844
21
-3.87253
0
LINE
8
BLACK
6
CONTINUOUS
10
6.11844
20
-3.87253
11
6.11669
21
-3.86755
0
LINE
8
BLACK
6
CONTINUOUS
10
6.11669
20
-3.86755
11
6.11639
21
-3.86425
0
LINE
8
BLACK
6
CONTINUOUS
10
6.11639
20
-3.86425
11
6.11639
21
-3.84457
0
LINE
8
BLACK
6
CONTINUOUS
10
6.11639
20
-3.84457
11
6.11669
21
-3.84127
0
LINE
8
BLACK
6
CONTINUOUS
10
6.11669
20
-3.84127
11
6.11844
21
-3.83629
0
LINE
8
BLACK
6
CONTINUOUS
10
6.11844
20
-3.83629
11
6.12157
21
-3.83204
0
LINE
8
BLACK
6
CONTINUOUS
10
6.12157
20
-3.83204
11
6.12582
21
-3.8289
0
LINE
8
BLACK
6
CONTINUOUS
10
6.12582
20
-3.8289
11
6.13081
21
-3.82716
0
LINE
8
BLACK
6
CONTINUOUS
10
6.13081
20
-3.82716
11
6.1341
21
-3.82685
0
LINE
8
BLACK
6
CONTINUOUS
10
6.1341
20
-3.82685
11
6.1715
21
-3.82685
0
LINE
8
BLACK
6
CONTINUOUS
10
6.1715
20
-3.82685
11
6.1748
21
-3.82716
0
LINE
8
BLACK
6
CONTINUOUS
10
5.27992
20
-3.77162
11
5.2866
21
-3.7732
0
LINE
8
BLACK
6
CONTINUOUS
10
5.2866
20
-3.7732
11
5.29272
21
-3.77627
0
LINE
8
BLACK
6
CONTINUOUS
10
5.29272
20
-3.77627
11
5.29797
21
-3.78068
0
LINE
8
BLACK
6
CONTINUOUS
10
5.29797
20
-3.78068
11
5.30207
21
-3.78618
0
LINE
8
BLACK
6
CONTINUOUS
10
5.30207
20
-3.78618
11
5.30478
21
-3.79248
0
LINE
8
BLACK
6
CONTINUOUS
10
5.30478
20
-3.79248
11
5.30597
21
-3.79923
0
LINE
8
BLACK
6
CONTINUOUS
10
5.30597
20
-3.79923
11
5.30558
21
-3.80607
0
LINE
8
BLACK
6
CONTINUOUS
10
5.30558
20
-3.80607
11
5.30361
21
-3.81264
0
LINE
8
BLACK
6
CONTINUOUS
10
5.30361
20
-3.81264
11
5.30018
21
-3.81858
0
LINE
8
BLACK
6
CONTINUOUS
10
5.30018
20
-3.81858
11
5.29548
21
-3.82356
0
LINE
8
BLACK
6
CONTINUOUS
10
5.29548
20
-3.82356
11
5.28975
21
-3.82733
0
LINE
8
BLACK
6
CONTINUOUS
10
5.28975
20
-3.82733
11
5.28331
21
-3.82968
0
LINE
8
BLACK
6
CONTINUOUS
10
5.28331
20
-3.82968
11
5.2765
21
-3.83047
0
LINE
8
BLACK
6
CONTINUOUS
10
5.2765
20
-3.83047
11
5.26862
21
-3.83047
0
LINE
8
BLACK
6
CONTINUOUS
10
5.26862
20
-3.83047
11
5.26519
21
-3.83027
0
LINE
8
BLACK
6
CONTINUOUS
10
5.26519
20
-3.83027
11
5.25852
21
-3.82869
0
LINE
8
BLACK
6
CONTINUOUS
10
5.25852
20
-3.82869
11
5.2524
21
-3.82561
0
LINE
8
BLACK
6
CONTINUOUS
10
5.2524
20
-3.82561
11
5.24714
21
-3.82121
0
LINE
8
BLACK
6
CONTINUOUS
10
5.24714
20
-3.82121
11
5.24305
21
-3.81571
0
LINE
8
BLACK
6
CONTINUOUS
10
5.24305
20
-3.81571
11
5.24033
21
-3.80941
0
LINE
8
BLACK
6
CONTINUOUS
10
5.24033
20
-3.80941
11
5.23914
21
-3.80266
0
LINE
8
BLACK
6
CONTINUOUS
10
5.23914
20
-3.80266
11
5.23954
21
-3.79582
0
LINE
8
BLACK
6
CONTINUOUS
10
5.23954
20
-3.79582
11
5.24151
21
-3.78925
0
LINE
8
BLACK
6
CONTINUOUS
10
5.24151
20
-3.78925
11
5.24494
21
-3.78331
0
LINE
8
BLACK
6
CONTINUOUS
10
5.24494
20
-3.78331
11
5.24964
21
-3.77833
0
LINE
8
BLACK
6
CONTINUOUS
10
5.24964
20
-3.77833
11
5.25537
21
-3.77456
0
LINE
8
BLACK
6
CONTINUOUS
10
5.25537
20
-3.77456
11
5.26181
21
-3.77221
0
LINE
8
BLACK
6
CONTINUOUS
10
5.26181
20
-3.77221
11
5.26862
21
-3.77142
0
LINE
8
BLACK
6
CONTINUOUS
10
5.26862
20
-3.77142
11
5.2765
21
-3.77142
0
LINE
8
BLACK
6
CONTINUOUS
10
5.2765
20
-3.77142
11
5.27992
21
-3.77162
0
LINE
8
BLACK
6
CONTINUOUS
10
7.01122
20
-3.77162
11
7.01789
21
-3.7732
0
LINE
8
BLACK
6
CONTINUOUS
10
7.01789
20
-3.7732
11
7.02402
21
-3.77627
0
LINE
8
BLACK
6
CONTINUOUS
10
7.02402
20
-3.77627
11
7.02927
21
-3.78068
0
LINE
8
BLACK
6
CONTINUOUS
10
7.02927
20
-3.78068
11
7.03337
21
-3.78618
0
LINE
8
BLACK
6
CONTINUOUS
10
7.03337
20
-3.78618
11
7.03608
21
-3.79248
0
LINE
8
BLACK
6
CONTINUOUS
10
7.03608
20
-3.79248
11
7.03727
21
-3.79923
0
LINE
8
BLACK
6
CONTINUOUS
10
7.03727
20
-3.79923
11
7.03687
21
-3.80607
0
LINE
8
BLACK
6
CONTINUOUS
10
7.03687
20
-3.80607
11
7.03491
21
-3.81264
0
LINE
8
BLACK
6
CONTINUOUS
10
7.03491
20
-3.81264
11
7.03148
21
-3.81858
0
LINE
8
BLACK
6
CONTINUOUS
10
7.03148
20
-3.81858
11
7.02678
21
-3.82356
0
LINE
8
BLACK
6
CONTINUOUS
10
7.02678
20
-3.82356
11
7.02105
21
-3.82733
0
LINE
8
BLACK
6
CONTINUOUS
10
7.02105
20
-3.82733
11
7.0146
21
-3.82968
0
LINE
8
BLACK
6
CONTINUOUS
10
7.0146
20
-3.82968
11
7.0078
21
-3.83047
0
LINE
8
BLACK
6
CONTINUOUS
10
7.0078
20
-3.83047
11
6.99992
21
-3.83047
0
LINE
8
BLACK
6
CONTINUOUS
10
6.99992
20
-3.83047
11
6.99649
21
-3.83027
0
LINE
8
BLACK
6
CONTINUOUS
10
6.99649
20
-3.83027
11
6.98982
21
-3.82869
0
LINE
8
BLACK
6
CONTINUOUS
10
6.98982
20
-3.82869
11
6.9837
21
-3.82561
0
LINE
8
BLACK
6
CONTINUOUS
10
6.9837
20
-3.82561
11
6.97844
21
-3.82121
0
LINE
8
BLACK
6
CONTINUOUS
10
6.97844
20
-3.82121
11
6.97435
21
-3.81571
0
LINE
8
BLACK
6
CONTINUOUS
10
6.97435
20
-3.81571
11
6.97163
21
-3.80941
0
LINE
8
BLACK
6
CONTINUOUS
10
6.97163
20
-3.80941
11
6.97044
21
-3.80266
0
LINE
8
BLACK
6
CONTINUOUS
10
6.97044
20
-3.80266
11
6.97084
21
-3.79582
0
LINE
8
BLACK
6
CONTINUOUS
10
6.97084
20
-3.79582
11
6.97281
21
-3.78925
0
LINE
8
BLACK
6
CONTINUOUS
10
6.97281
20
-3.78925
11
6.97624
21
-3.78331
0
LINE
8
BLACK
6
CONTINUOUS
10
6.97624
20
-3.78331
11
6.98094
21
-3.77833
0
LINE
8
BLACK
6
CONTINUOUS
10
6.98094
20
-3.77833
11
6.98667
21
-3.77456
0
LINE
8
BLACK
6
CONTINUOUS
10
6.98667
20
-3.77456
11
6.99311
21
-3.77221
0
LINE
8
BLACK
6
CONTINUOUS
10
6.99311
20
-3.77221
11
6.99992
21
-3.77142
0
LINE
8
BLACK
6
CONTINUOUS
10
6.99992
20
-3.77142
11
7.0078
21
-3.77142
0
LINE
8
BLACK
6
CONTINUOUS
10
7.0078
20
-3.77142
11
7.01122
21
-3.77162
0
LINE
8
BLACK
6
CONTINUOUS
10
5.69668
20
-3.75032
11
5.70127
21
-3.75266
0
LINE
8
BLACK
6
CONTINUOUS
10
5.70127
20
-3.75266
11
5.70492
21
-3.75631
0
LINE
8
BLACK
6
CONTINUOUS
10
5.70492
20
-3.75631
11
5.70726
21
-3.7609
0
LINE
8
BLACK
6
CONTINUOUS
10
5.70726
20
-3.7609
11
5.70807
21
-3.766
0
LINE
8
BLACK
6
CONTINUOUS
10
5.70807
20
-3.766
11
5.70807
21
-3.79602
0
LINE
8
BLACK
6
CONTINUOUS
10
5.70807
20
-3.79602
11
5.70726
21
-3.80111
0
LINE
8
BLACK
6
CONTINUOUS
10
5.70726
20
-3.80111
11
5.70492
21
-3.80571
0
LINE
8
BLACK
6
CONTINUOUS
10
5.70492
20
-3.80571
11
5.70127
21
-3.80936
0
LINE
8
BLACK
6
CONTINUOUS
10
5.70127
20
-3.80936
11
5.69668
21
-3.8117
0
LINE
8
BLACK
6
CONTINUOUS
10
5.69668
20
-3.8117
11
5.69158
21
-3.8125
0
LINE
8
BLACK
6
CONTINUOUS
10
5.69158
20
-3.8125
11
5.67436
21
-3.8125
0
LINE
8
BLACK
6
CONTINUOUS
10
5.67436
20
-3.8125
11
5.66927
21
-3.8117
0
LINE
8
BLACK
6
CONTINUOUS
10
5.66927
20
-3.8117
11
5.66467
21
-3.80936
0
LINE
8
BLACK
6
CONTINUOUS
10
5.66467
20
-3.80936
11
5.66102
21
-3.80571
0
LINE
8
BLACK
6
CONTINUOUS
10
5.66102
20
-3.80571
11
5.65868
21
-3.80111
0
LINE
8
BLACK
6
CONTINUOUS
10
5.65868
20
-3.80111
11
5.65787
21
-3.79602
0
LINE
8
BLACK
6
CONTINUOUS
10
5.65787
20
-3.79602
11
5.65787
21
-3.766
0
LINE
8
BLACK
6
CONTINUOUS
10
5.65787
20
-3.766
11
5.65868
21
-3.7609
0
LINE
8
BLACK
6
CONTINUOUS
10
5.65868
20
-3.7609
11
5.66102
21
-3.75631
0
LINE
8
BLACK
6
CONTINUOUS
10
5.66102
20
-3.75631
11
5.66467
21
-3.75266
0
LINE
8
BLACK
6
CONTINUOUS
10
5.66467
20
-3.75266
11
5.66927
21
-3.75032
0
LINE
8
BLACK
6
CONTINUOUS
10
5.66927
20
-3.75032
11
5.67436
21
-3.74951
0
LINE
8
BLACK
6
CONTINUOUS
10
5.67436
20
-3.74951
11
5.69158
21
-3.74951
0
LINE
8
BLACK
6
CONTINUOUS
10
5.69158
20
-3.74951
11
5.69668
21
-3.75032
0
LINE
8
BLACK
6
CONTINUOUS
10
5.78034
20
-3.75032
11
5.78494
21
-3.75266
0
LINE
8
BLACK
6
CONTINUOUS
10
5.78494
20
-3.75266
11
5.78858
21
-3.75631
0
LINE
8
BLACK
6
CONTINUOUS
10
5.78858
20
-3.75631
11
5.79093
21
-3.7609
0
LINE
8
BLACK
6
CONTINUOUS
10
5.79093
20
-3.7609
11
5.79173
21
-3.766
0
LINE
8
BLACK
6
CONTINUOUS
10
5.79173
20
-3.766
11
5.79173
21
-3.79602
0
LINE
8
BLACK
6
CONTINUOUS
10
5.79173
20
-3.79602
11
5.79093
21
-3.80111
0
LINE
8
BLACK
6
CONTINUOUS
10
5.79093
20
-3.80111
11
5.78858
21
-3.80571
0
LINE
8
BLACK
6
CONTINUOUS
10
5.78858
20
-3.80571
11
5.78494
21
-3.80936
0
LINE
8
BLACK
6
CONTINUOUS
10
5.78494
20
-3.80936
11
5.78034
21
-3.8117
0
LINE
8
BLACK
6
CONTINUOUS
10
5.78034
20
-3.8117
11
5.77525
21
-3.8125
0
LINE
8
BLACK
6
CONTINUOUS
10
5.77525
20
-3.8125
11
5.75802
21
-3.8125
0
LINE
8
BLACK
6
CONTINUOUS
10
5.75802
20
-3.8125
11
5.75293
21
-3.8117
0
LINE
8
BLACK
6
CONTINUOUS
10
5.75293
20
-3.8117
11
5.74833
21
-3.80936
0
LINE
8
BLACK
6
CONTINUOUS
10
5.74833
20
-3.80936
11
5.74468
21
-3.80571
0
LINE
8
BLACK
6
CONTINUOUS
10
5.74468
20
-3.80571
11
5.74234
21
-3.80111
0
LINE
8
BLACK
6
CONTINUOUS
10
5.74234
20
-3.80111
11
5.74154
21
-3.79602
0
LINE
8
BLACK
6
CONTINUOUS
10
5.74154
20
-3.79602
11
5.74154
21
-3.766
0
LINE
8
BLACK
6
CONTINUOUS
10
5.74154
20
-3.766
11
5.74234
21
-3.7609
0
LINE
8
BLACK
6
CONTINUOUS
10
5.74234
20
-3.7609
11
5.74468
21
-3.75631
0
LINE
8
BLACK
6
CONTINUOUS
10
5.74468
20
-3.75631
11
5.74833
21
-3.75266
0
LINE
8
BLACK
6
CONTINUOUS
10
5.74833
20
-3.75266
11
5.75293
21
-3.75032
0
LINE
8
BLACK
6
CONTINUOUS
10
5.75293
20
-3.75032
11
5.75802
21
-3.74951
0
LINE
8
BLACK
6
CONTINUOUS
10
5.75802
20
-3.74951
11
5.77525
21
-3.74951
0
LINE
8
BLACK
6
CONTINUOUS
10
5.77525
20
-3.74951
11
5.78034
21
-3.75032
0
LINE
8
BLACK
6
CONTINUOUS
10
5.5543
20
-3.7395
11
5.55929
21
-3.74124
0
LINE
8
BLACK
6
CONTINUOUS
10
5.55929
20
-3.74124
11
5.56354
21
-3.74438
0
LINE
8
BLACK
6
CONTINUOUS
10
5.56354
20
-3.74438
11
5.56667
21
-3.74863
0
LINE
8
BLACK
6
CONTINUOUS
10
5.56667
20
-3.74863
11
5.56842
21
-3.75361
0
LINE
8
BLACK
6
CONTINUOUS
10
5.56842
20
-3.75361
11
5.56872
21
-3.75691
0
LINE
8
BLACK
6
CONTINUOUS
10
5.56872
20
-3.75691
11
5.56872
21
-3.79431
0
LINE
8
BLACK
6
CONTINUOUS
10
5.56872
20
-3.79431
11
5.56842
21
-3.7976
0
LINE
8
BLACK
6
CONTINUOUS
10
5.56842
20
-3.7976
11
5.56667
21
-3.80259
0
LINE
8
BLACK
6
CONTINUOUS
10
5.56667
20
-3.80259
11
5.56354
21
-3.80683
0
LINE
8
BLACK
6
CONTINUOUS
10
5.56354
20
-3.80683
11
5.55929
21
-3.80997
0
LINE
8
BLACK
6
CONTINUOUS
10
5.55929
20
-3.80997
11
5.5543
21
-3.81171
0
LINE
8
BLACK
6
CONTINUOUS
10
5.5543
20
-3.81171
11
5.55101
21
-3.81202
0
LINE
8
BLACK
6
CONTINUOUS
10
5.55101
20
-3.81202
11
5.53132
21
-3.81202
0
LINE
8
BLACK
6
CONTINUOUS
10
5.53132
20
-3.81202
11
5.52803
21
-3.81171
0
LINE
8
BLACK
6
CONTINUOUS
10
5.52803
20
-3.81171
11
5.52304
21
-3.80997
0
LINE
8
BLACK
6
CONTINUOUS
10
5.52304
20
-3.80997
11
5.5188
21
-3.80683
0
LINE
8
BLACK
6
CONTINUOUS
10
5.5188
20
-3.80683
11
5.51566
21
-3.80259
0
LINE
8
BLACK
6
CONTINUOUS
10
5.51566
20
-3.80259
11
5.51392
21
-3.7976
0
LINE
8
BLACK
6
CONTINUOUS
10
5.51392
20
-3.7976
11
5.51361
21
-3.79431
0
LINE
8
BLACK
6
CONTINUOUS
10
5.51361
20
-3.79431
11
5.51361
21
-3.75691
0
LINE
8
BLACK
6
CONTINUOUS
10
5.51361
20
-3.75691
11
5.51392
21
-3.75361
0
LINE
8
BLACK
6
CONTINUOUS
10
5.51392
20
-3.75361
11
5.51566
21
-3.74863
0
LINE
8
BLACK
6
CONTINUOUS
10
5.51566
20
-3.74863
11
5.5188
21
-3.74438
0
LINE
8
BLACK
6
CONTINUOUS
10
5.5188
20
-3.74438
11
5.52304
21
-3.74124
0
LINE
8
BLACK
6
CONTINUOUS
10
5.52304
20
-3.74124
11
5.52803
21
-3.7395
0
LINE
8
BLACK
6
CONTINUOUS
10
5.52803
20
-3.7395
11
5.53132
21
-3.73919
0
LINE
8
BLACK
6
CONTINUOUS
10
5.53132
20
-3.73919
11
5.55101
21
-3.73919
0
LINE
8
BLACK
6
CONTINUOUS
10
5.55101
20
-3.73919
11
5.5543
21
-3.7395
0
LINE
8
BLACK
6
CONTINUOUS
10
5.6291
20
-3.7395
11
5.63409
21
-3.74124
0
LINE
8
BLACK
6
CONTINUOUS
10
5.63409
20
-3.74124
11
5.63834
21
-3.74438
0
LINE
8
BLACK
6
CONTINUOUS
10
5.63834
20
-3.74438
11
5.64147
21
-3.74863
0
LINE
8
BLACK
6
CONTINUOUS
10
5.64147
20
-3.74863
11
5.64322
21
-3.75361
0
LINE
8
BLACK
6
CONTINUOUS
10
5.64322
20
-3.75361
11
5.64353
21
-3.75691
0
LINE
8
BLACK
6
CONTINUOUS
10
5.64353
20
-3.75691
11
5.64353
21
-3.79431
0
LINE
8
BLACK
6
CONTINUOUS
10
5.64353
20
-3.79431
11
5.64322
21
-3.7976
0
LINE
8
BLACK
6
CONTINUOUS
10
5.64322
20
-3.7976
11
5.64147
21
-3.80259
0
LINE
8
BLACK
6
CONTINUOUS
10
5.64147
20
-3.80259
11
5.63834
21
-3.80683
0
LINE
8
BLACK
6
CONTINUOUS
10
5.63834
20
-3.80683
11
5.63409
21
-3.80997
0
LINE
8
BLACK
6
CONTINUOUS
10
5.63409
20
-3.80997
11
5.6291
21
-3.81171
0
LINE
8
BLACK
6
CONTINUOUS
10
5.6291
20
-3.81171
11
5.62581
21
-3.81202
0
LINE
8
BLACK
6
CONTINUOUS
10
5.62581
20
-3.81202
11
5.60613
21
-3.81202
0
LINE
8
BLACK
6
CONTINUOUS
10
5.60613
20
-3.81202
11
5.60283
21
-3.81171
0
LINE
8
BLACK
6
CONTINUOUS
10
5.60283
20
-3.81171
11
5.59785
21
-3.80997
0
LINE
8
BLACK
6
CONTINUOUS
10
5.59785
20
-3.80997
11
5.5936
21
-3.80683
0
LINE
8
BLACK
6
CONTINUOUS
10
5.5936
20
-3.80683
11
5.59046
21
-3.80259
0
LINE
8
BLACK
6
CONTINUOUS
10
5.59046
20
-3.80259
11
5.58872
21
-3.7976
0
LINE
8
BLACK
6
CONTINUOUS
10
5.58872
20
-3.7976
11
5.58841
21
-3.79431
0
LINE
8
BLACK
6
CONTINUOUS
10
5.58841
20
-3.79431
11
5.58841
21
-3.75691
0
LINE
8
BLACK
6
CONTINUOUS
10
5.58841
20
-3.75691
11
5.58872
21
-3.75361
0
LINE
8
BLACK
6
CONTINUOUS
10
5.58872
20
-3.75361
11
5.59046
21
-3.74863
0
LINE
8
BLACK
6
CONTINUOUS
10
5.59046
20
-3.74863
11
5.5936
21
-3.74438
0
LINE
8
BLACK
6
CONTINUOUS
10
5.5936
20
-3.74438
11
5.59785
21
-3.74124
0
LINE
8
BLACK
6
CONTINUOUS
10
5.59785
20
-3.74124
11
5.60283
21
-3.7395
0
LINE
8
BLACK
6
CONTINUOUS
10
5.60283
20
-3.7395
11
5.60613
21
-3.73919
0
LINE
8
BLACK
6
CONTINUOUS
10
5.60613
20
-3.73919
11
5.62581
21
-3.73919
0
LINE
8
BLACK
6
CONTINUOUS
10
5.62581
20
-3.73919
11
5.6291
21
-3.7395
0
LINE
8
BLACK
6
CONTINUOUS
10
5.8648
20
-3.75595
11
5.86978
21
-3.7577
0
LINE
8
BLACK
6
CONTINUOUS
10
5.86978
20
-3.7577
11
5.87403
21
-3.76083
0
LINE
8
BLACK
6
CONTINUOUS
10
5.87403
20
-3.76083
11
5.87717
21
-3.76508
0
LINE
8
BLACK
6
CONTINUOUS
10
5.87717
20
-3.76508
11
5.87891
21
-3.77007
0
LINE
8
BLACK
6
CONTINUOUS
10
5.87891
20
-3.77007
11
5.87922
21
-3.77336
0
LINE
8
BLACK
6
CONTINUOUS
10
5.87922
20
-3.77336
11
5.87922
21
-3.79305
0
LINE
8
BLACK
6
CONTINUOUS
10
5.87922
20
-3.79305
11
5.87891
21
-3.79634
0
LINE
8
BLACK
6
CONTINUOUS
10
5.87891
20
-3.79634
11
5.87717
21
-3.80133
0
LINE
8
BLACK
6
CONTINUOUS
10
5.87717
20
-3.80133
11
5.87403
21
-3.80557
0
LINE
8
BLACK
6
CONTINUOUS
10
5.87403
20
-3.80557
11
5.86978
21
-3.80871
0
LINE
8
BLACK
6
CONTINUOUS
10
5.86978
20
-3.80871
11
5.8648
21
-3.81045
0
LINE
8
BLACK
6
CONTINUOUS
10
5.8648
20
-3.81045
11
5.8615
21
-3.81076
0
LINE
8
BLACK
6
CONTINUOUS
10
5.8615
20
-3.81076
11
5.8241
21
-3.81076
0
LINE
8
BLACK
6
CONTINUOUS
10
5.8241
20
-3.81076
11
5.82081
21
-3.81045
0
LINE
8
BLACK
6
CONTINUOUS
10
5.82081
20
-3.81045
11
5.81582
21
-3.80871
0
LINE
8
BLACK
6
CONTINUOUS
10
5.81582
20
-3.80871
11
5.81157
21
-3.80557
0
LINE
8
BLACK
6
CONTINUOUS
10
5.81157
20
-3.80557
11
5.80844
21
-3.80133
0
LINE
8
BLACK
6
CONTINUOUS
10
5.80844
20
-3.80133
11
5.80669
21
-3.79634
0
LINE
8
BLACK
6
CONTINUOUS
10
5.80669
20
-3.79634
11
5.80639
21
-3.79305
0
LINE
8
BLACK
6
CONTINUOUS
10
5.80639
20
-3.79305
11
5.80639
21
-3.77336
0
LINE
8
BLACK
6
CONTINUOUS
10
5.80639
20
-3.77336
11
5.80669
21
-3.77007
0
LINE
8
BLACK
6
CONTINUOUS
10
5.80669
20
-3.77007
11
5.80844
21
-3.76508
0
LINE
8
BLACK
6
CONTINUOUS
10
5.80844
20
-3.76508
11
5.81157
21
-3.76083
0
LINE
8
BLACK
6
CONTINUOUS
10
5.81157
20
-3.76083
11
5.81582
21
-3.7577
0
LINE
8
BLACK
6
CONTINUOUS
10
5.81582
20
-3.7577
11
5.82081
21
-3.75595
0
LINE
8
BLACK
6
CONTINUOUS
10
5.82081
20
-3.75595
11
5.8241
21
-3.75565
0
LINE
8
BLACK
6
CONTINUOUS
10
5.8241
20
-3.75565
11
5.8615
21
-3.75565
0
LINE
8
BLACK
6
CONTINUOUS
10
5.8615
20
-3.75565
11
5.8648
21
-3.75595
0
LINE
8
BLACK
6
CONTINUOUS
10
6.00668
20
-3.74832
11
6.01127
21
-3.75066
0
LINE
8
BLACK
6
CONTINUOUS
10
6.01127
20
-3.75066
11
6.01492
21
-3.75431
0
LINE
8
BLACK
6
CONTINUOUS
10
6.01492
20
-3.75431
11
6.01726
21
-3.7589
0
LINE
8
BLACK
6
CONTINUOUS
10
6.01726
20
-3.7589
11
6.01807
21
-3.764
0
LINE
8
BLACK
6
CONTINUOUS
10
6.01807
20
-3.764
11
6.01807
21
-3.79402
0
LINE
8
BLACK
6
CONTINUOUS
10
6.01807
20
-3.79402
11
6.01726
21
-3.79911
0
LINE
8
BLACK
6
CONTINUOUS
10
6.01726
20
-3.79911
11
6.01492
21
-3.80371
0
LINE
8
BLACK
6
CONTINUOUS
10
6.01492
20
-3.80371
11
6.01127
21
-3.80736
0
LINE
8
BLACK
6
CONTINUOUS
10
6.01127
20
-3.80736
11
6.00668
21
-3.8097
0
LINE
8
BLACK
6
CONTINUOUS
10
6.00668
20
-3.8097
11
6.00158
21
-3.8105
0
LINE
8
BLACK
6
CONTINUOUS
10
6.00158
20
-3.8105
11
5.98436
21
-3.8105
0
LINE
8
BLACK
6
CONTINUOUS
10
5.98436
20
-3.8105
11
5.97927
21
-3.8097
0
LINE
8
BLACK
6
CONTINUOUS
10
5.97927
20
-3.8097
11
5.97467
21
-3.80736
0
LINE
8
BLACK
6
CONTINUOUS
10
5.97467
20
-3.80736
11
5.97102
21
-3.80371
0
LINE
8
BLACK
6
CONTINUOUS
10
5.97102
20
-3.80371
11
5.96868
21
-3.79911
0
LINE
8
BLACK
6
CONTINUOUS
10
5.96868
20
-3.79911
11
5.96787
21
-3.79402
0
LINE
8
BLACK
6
CONTINUOUS
10
5.96787
20
-3.79402
11
5.96787
21
-3.764
0
LINE
8
BLACK
6
CONTINUOUS
10
5.96787
20
-3.764
11
5.96868
21
-3.7589
0
LINE
8
BLACK
6
CONTINUOUS
10
5.96868
20
-3.7589
11
5.97102
21
-3.75431
0
LINE
8
BLACK
6
CONTINUOUS
10
5.97102
20
-3.75431
11
5.97467
21
-3.75066
0
LINE
8
BLACK
6
CONTINUOUS
10
5.97467
20
-3.75066
11
5.97927
21
-3.74832
0
LINE
8
BLACK
6
CONTINUOUS
10
5.97927
20
-3.74832
11
5.98436
21
-3.74751
0
LINE
8
BLACK
6
CONTINUOUS
10
5.98436
20
-3.74751
11
6.00158
21
-3.74751
0
LINE
8
BLACK
6
CONTINUOUS
10
6.00158
20
-3.74751
11
6.00668
21
-3.74832
0
LINE
8
BLACK
6
CONTINUOUS
10
6.09034
20
-3.74832
11
6.09494
21
-3.75066
0
LINE
8
BLACK
6
CONTINUOUS
10
6.09494
20
-3.75066
11
6.09858
21
-3.75431
0
LINE
8
BLACK
6
CONTINUOUS
10
6.09858
20
-3.75431
11
6.10093
21
-3.7589
0
LINE
8
BLACK
6
CONTINUOUS
10
6.10093
20
-3.7589
11
6.10173
21
-3.764
0
LINE
8
BLACK
6
CONTINUOUS
10
6.10173
20
-3.764
11
6.10173
21
-3.79402
0
LINE
8
BLACK
6
CONTINUOUS
10
6.10173
20
-3.79402
11
6.10093
21
-3.79911
0
LINE
8
BLACK
6
CONTINUOUS
10
6.10093
20
-3.79911
11
6.09858
21
-3.80371
0
LINE
8
BLACK
6
CONTINUOUS
10
6.09858
20
-3.80371
11
6.09494
21
-3.80736
0
LINE
8
BLACK
6
CONTINUOUS
10
6.09494
20
-3.80736
11
6.09034
21
-3.8097
0
LINE
8
BLACK
6
CONTINUOUS
10
6.09034
20
-3.8097
11
6.08525
21
-3.8105
0
LINE
8
BLACK
6
CONTINUOUS
10
6.08525
20
-3.8105
11
6.06802
21
-3.8105
0
LINE
8
BLACK
6
CONTINUOUS
10
6.06802
20
-3.8105
11
6.06293
21
-3.8097
0
LINE
8
BLACK
6
CONTINUOUS
10
6.06293
20
-3.8097
11
6.05833
21
-3.80736
0
LINE
8
BLACK
6
CONTINUOUS
10
6.05833
20
-3.80736
11
6.05468
21
-3.80371
0
LINE
8
BLACK
6
CONTINUOUS
10
6.05468
20
-3.80371
11
6.05234
21
-3.79911
0
LINE
8
BLACK
6
CONTINUOUS
10
6.05234
20
-3.79911
11
6.05154
21
-3.79402
0
LINE
8
BLACK
6
CONTINUOUS
10
6.05154
20
-3.79402
11
6.05154
21
-3.764
0
LINE
8
BLACK
6
CONTINUOUS
10
6.05154
20
-3.764
11
6.05234
21
-3.7589
0
LINE
8
BLACK
6
CONTINUOUS
10
6.05234
20
-3.7589
11
6.05468
21
-3.75431
0
LINE
8
BLACK
6
CONTINUOUS
10
6.05468
20
-3.75431
11
6.05833
21
-3.75066
0
LINE
8
BLACK
6
CONTINUOUS
10
6.05833
20
-3.75066
11
6.06293
21
-3.74832
0
LINE
8
BLACK
6
CONTINUOUS
10
6.06293
20
-3.74832
11
6.06802
21
-3.74751
0
LINE
8
BLACK
6
CONTINUOUS
10
6.06802
20
-3.74751
11
6.08525
21
-3.74751
0
LINE
8
BLACK
6
CONTINUOUS
10
6.08525
20
-3.74751
11
6.09034
21
-3.74832
0
LINE
8
BLACK
6
CONTINUOUS
10
6.31768
20
-3.74732
11
6.32227
21
-3.74966
0
LINE
8
BLACK
6
CONTINUOUS
10
6.32227
20
-3.74966
11
6.32592
21
-3.75331
0
LINE
8
BLACK
6
CONTINUOUS
10
6.32592
20
-3.75331
11
6.32826
21
-3.7579
0
LINE
8
BLACK
6
CONTINUOUS
10
6.32826
20
-3.7579
11
6.32907
21
-3.763
0
LINE
8
BLACK
6
CONTINUOUS
10
6.32907
20
-3.763
11
6.32907
21
-3.79302
0
LINE
8
BLACK
6
CONTINUOUS
10
6.32907
20
-3.79302
11
6.32826
21
-3.79811
0
LINE
8
BLACK
6
CONTINUOUS
10
6.32826
20
-3.79811
11
6.32592
21
-3.80271
0
LINE
8
BLACK
6
CONTINUOUS
10
6.32592
20
-3.80271
11
6.32227
21
-3.80636
0
LINE
8
BLACK
6
CONTINUOUS
10
6.32227
20
-3.80636
11
6.31768
21
-3.8087
0
LINE
8
BLACK
6
CONTINUOUS
10
6.31768
20
-3.8087
11
6.31258
21
-3.8095
0
LINE
8
BLACK
6
CONTINUOUS
10
6.31258
20
-3.8095
11
6.29536
21
-3.8095
0
LINE
8
BLACK
6
CONTINUOUS
10
6.29536
20
-3.8095
11
6.29027
21
-3.8087
0
LINE
8
BLACK
6
CONTINUOUS
10
6.29027
20
-3.8087
11
6.28567
21
-3.80636
0
LINE
8
BLACK
6
CONTINUOUS
10
6.28567
20
-3.80636
11
6.28202
21
-3.80271
0
LINE
8
BLACK
6
CONTINUOUS
10
6.28202
20
-3.80271
11
6.27968
21
-3.79811
0
LINE
8
BLACK
6
CONTINUOUS
10
6.27968
20
-3.79811
11
6.27887
21
-3.79302
0
LINE
8
BLACK
6
CONTINUOUS
10
6.27887
20
-3.79302
11
6.27887
21
-3.763
0
LINE
8
BLACK
6
CONTINUOUS
10
6.27887
20
-3.763
11
6.27968
21
-3.7579
0
LINE
8
BLACK
6
CONTINUOUS
10
6.27968
20
-3.7579
11
6.28202
21
-3.75331
0
LINE
8
BLACK
6
CONTINUOUS
10
6.28202
20
-3.75331
11
6.28567
21
-3.74966
0
LINE
8
BLACK
6
CONTINUOUS
10
6.28567
20
-3.74966
11
6.29027
21
-3.74732
0
LINE
8
BLACK
6
CONTINUOUS
10
6.29027
20
-3.74732
11
6.29536
21
-3.74651
0
LINE
8
BLACK
6
CONTINUOUS
10
6.29536
20
-3.74651
11
6.31258
21
-3.74651
0
LINE
8
BLACK
6
CONTINUOUS
10
6.31258
20
-3.74651
11
6.31768
21
-3.74732
0
LINE
8
BLACK
6
CONTINUOUS
10
6.40134
20
-3.74732
11
6.40594
21
-3.74966
0
LINE
8
BLACK
6
CONTINUOUS
10
6.40594
20
-3.74966
11
6.40958
21
-3.75331
0
LINE
8
BLACK
6
CONTINUOUS
10
6.40958
20
-3.75331
11
6.41193
21
-3.7579
0
LINE
8
BLACK
6
CONTINUOUS
10
6.41193
20
-3.7579
11
6.41273
21
-3.763
0
LINE
8
BLACK
6
CONTINUOUS
10
6.41273
20
-3.763
11
6.41273
21
-3.79302
0
LINE
8
BLACK
6
CONTINUOUS
10
6.41273
20
-3.79302
11
6.41193
21
-3.79811
0
LINE
8
BLACK
6
CONTINUOUS
10
6.41193
20
-3.79811
11
6.40958
21
-3.80271
0
LINE
8
BLACK
6
CONTINUOUS
10
6.40958
20
-3.80271
11
6.40594
21
-3.80636
0
LINE
8
BLACK
6
CONTINUOUS
10
6.40594
20
-3.80636
11
6.40134
21
-3.8087
0
LINE
8
BLACK
6
CONTINUOUS
10
6.40134
20
-3.8087
11
6.39625
21
-3.8095
0
LINE
8
BLACK
6
CONTINUOUS
10
6.39625
20
-3.8095
11
6.37902
21
-3.8095
0
LINE
8
BLACK
6
CONTINUOUS
10
6.37902
20
-3.8095
11
6.37393
21
-3.8087
0
LINE
8
BLACK
6
CONTINUOUS
10
6.37393
20
-3.8087
11
6.36933
21
-3.80636
0
LINE
8
BLACK
6
CONTINUOUS
10
6.36933
20
-3.80636
11
6.36568
21
-3.80271
0
LINE
8
BLACK
6
CONTINUOUS
10
6.36568
20
-3.80271
11
6.36334
21
-3.79811
0
LINE
8
BLACK
6
CONTINUOUS
10
6.36334
20
-3.79811
11
6.36254
21
-3.79302
0
LINE
8
BLACK
6
CONTINUOUS
10
6.36254
20
-3.79302
11
6.36254
21
-3.763
0
LINE
8
BLACK
6
CONTINUOUS
10
6.36254
20
-3.763
11
6.36334
21
-3.7579
0
LINE
8
BLACK
6
CONTINUOUS
10
6.36334
20
-3.7579
11
6.36568
21
-3.75331
0
LINE
8
BLACK
6
CONTINUOUS
10
6.36568
20
-3.75331
11
6.36933
21
-3.74966
0
LINE
8
BLACK
6
CONTINUOUS
10
6.36933
20
-3.74966
11
6.37393
21
-3.74732
0
LINE
8
BLACK
6
CONTINUOUS
10
6.37393
20
-3.74732
11
6.37902
21
-3.74651
0
LINE
8
BLACK
6
CONTINUOUS
10
6.37902
20
-3.74651
11
6.39625
21
-3.74651
0
LINE
8
BLACK
6
CONTINUOUS
10
6.39625
20
-3.74651
11
6.40134
21
-3.74732
0
LINE
8
BLACK
6
CONTINUOUS
10
6.46854
20
-3.7369
11
6.47352
21
-3.73864
0
LINE
8
BLACK
6
CONTINUOUS
10
6.47352
20
-3.73864
11
6.47777
21
-3.74178
0
LINE
8
BLACK
6
CONTINUOUS
10
6.47777
20
-3.74178
11
6.48091
21
-3.74603
0
LINE
8
BLACK
6
CONTINUOUS
10
6.48091
20
-3.74603
11
6.48265
21
-3.75101
0
LINE
8
BLACK
6
CONTINUOUS
10
6.48265
20
-3.75101
11
6.48296
21
-3.75431
0
LINE
8
BLACK
6
CONTINUOUS
10
6.48296
20
-3.75431
11
6.48296
21
-3.79171
0
LINE
8
BLACK
6
CONTINUOUS
10
6.48296
20
-3.79171
11
6.48265
21
-3.795
0
LINE
8
BLACK
6
CONTINUOUS
10
6.48265
20
-3.795
11
6.48091
21
-3.79999
0
LINE
8
BLACK
6
CONTINUOUS
10
6.48091
20
-3.79999
11
6.47777
21
-3.80424
0
LINE
8
BLACK
6
CONTINUOUS
10
6.47777
20
-3.80424
11
6.47352
21
-3.80737
0
LINE
8
BLACK
6
CONTINUOUS
10
6.47352
20
-3.80737
11
6.46854
21
-3.80912
0
LINE
8
BLACK
6
CONTINUOUS
10
6.46854
20
-3.80912
11
6.46524
21
-3.80943
0
LINE
8
BLACK
6
CONTINUOUS
10
6.46524
20
-3.80943
11
6.44556
21
-3.80943
0
LINE
8
BLACK
6
CONTINUOUS
10
6.44556
20
-3.80943
11
6.44227
21
-3.80912
0
LINE
8
BLACK
6
CONTINUOUS
10
6.44227
20
-3.80912
11
6.43728
21
-3.80737
0
LINE
8
BLACK
6
CONTINUOUS
10
6.43728
20
-3.80737
11
6.43303
21
-3.80424
0
LINE
8
BLACK
6
CONTINUOUS
10
6.43303
20
-3.80424
11
6.4299
21
-3.79999
0
LINE
8
BLACK
6
CONTINUOUS
10
6.4299
20
-3.79999
11
6.42815
21
-3.795
0
LINE
8
BLACK
6
CONTINUOUS
10
6.42815
20
-3.795
11
6.42784
21
-3.79171
0
LINE
8
BLACK
6
CONTINUOUS
10
6.42784
20
-3.79171
11
6.42784
21
-3.75431
0
LINE
8
BLACK
6
CONTINUOUS
10
6.42784
20
-3.75431
11
6.42815
21
-3.75101
0
LINE
8
BLACK
6
CONTINUOUS
10
6.42815
20
-3.75101
11
6.4299
21
-3.74603
0
LINE
8
BLACK
6
CONTINUOUS
10
6.4299
20
-3.74603
11
6.43303
21
-3.74178
0
LINE
8
BLACK
6
CONTINUOUS
10
6.43303
20
-3.74178
11
6.43728
21
-3.73864
0
LINE
8
BLACK
6
CONTINUOUS
10
6.43728
20
-3.73864
11
6.44227
21
-3.7369
0
LINE
8
BLACK
6
CONTINUOUS
10
6.44227
20
-3.7369
11
6.44556
21
-3.73659
0
LINE
8
BLACK
6
CONTINUOUS
10
6.44556
20
-3.73659
11
6.46524
21
-3.73659
0
LINE
8
BLACK
6
CONTINUOUS
10
6.46524
20
-3.73659
11
6.46854
21
-3.7369
0
LINE
8
BLACK
6
CONTINUOUS
10
6.54334
20
-3.7369
11
6.54833
21
-3.73864
0
LINE
8
BLACK
6
CONTINUOUS
10
6.54833
20
-3.73864
11
6.55257
21
-3.74178
0
LINE
8
BLACK
6
CONTINUOUS
10
6.55257
20
-3.74178
11
6.55571
21
-3.74603
0
LINE
8
BLACK
6
CONTINUOUS
10
6.55571
20
-3.74603
11
6.55745
21
-3.75101
0
LINE
8
BLACK
6
CONTINUOUS
10
6.55745
20
-3.75101
11
6.55776
21
-3.75431
0
LINE
8
BLACK
6
CONTINUOUS
10
6.55776
20
-3.75431
11
6.55776
21
-3.79171
0
LINE
8
BLACK
6
CONTINUOUS
10
6.55776
20
-3.79171
11
6.55745
21
-3.795
0
LINE
8
BLACK
6
CONTINUOUS
10
6.55745
20
-3.795
11
6.55571
21
-3.79999
0
LINE
8
BLACK
6
CONTINUOUS
10
6.55571
20
-3.79999
11
6.55257
21
-3.80424
0
LINE
8
BLACK
6
CONTINUOUS
10
6.55257
20
-3.80424
11
6.54833
21
-3.80737
0
LINE
8
BLACK
6
CONTINUOUS
10
6.54833
20
-3.80737
11
6.54334
21
-3.80912
0
LINE
8
BLACK
6
CONTINUOUS
10
6.54334
20
-3.80912
11
6.54005
21
-3.80943
0
LINE
8
BLACK
6
CONTINUOUS
10
6.54005
20
-3.80943
11
6.52036
21
-3.80943
0
LINE
8
BLACK
6
CONTINUOUS
10
6.52036
20
-3.80943
11
6.51707
21
-3.80912
0
LINE
8
BLACK
6
CONTINUOUS
10
6.51707
20
-3.80912
11
6.51208
21
-3.80737
0
LINE
8
BLACK
6
CONTINUOUS
10
6.51208
20
-3.80737
11
6.50783
21
-3.80424
0
LINE
8
BLACK
6
CONTINUOUS
10
6.50783
20
-3.80424
11
6.5047
21
-3.79999
0
LINE
8
BLACK
6
CONTINUOUS
10
6.5047
20
-3.79999
11
6.50295
21
-3.795
0
LINE
8
BLACK
6
CONTINUOUS
10
6.50295
20
-3.795
11
6.50265
21
-3.79171
0
LINE
8
BLACK
6
CONTINUOUS
10
6.50265
20
-3.79171
11
6.50265
21
-3.75431
0
LINE
8
BLACK
6
CONTINUOUS
10
6.50265
20
-3.75431
11
6.50295
21
-3.75101
0
LINE
8
BLACK
6
CONTINUOUS
10
6.50295
20
-3.75101
11
6.5047
21
-3.74603
0
LINE
8
BLACK
6
CONTINUOUS
10
6.5047
20
-3.74603
11
6.50783
21
-3.74178
0
LINE
8
BLACK
6
CONTINUOUS
10
6.50783
20
-3.74178
11
6.51208
21
-3.73864
0
LINE
8
BLACK
6
CONTINUOUS
10
6.51208
20
-3.73864
11
6.51707
21
-3.7369
0
LINE
8
BLACK
6
CONTINUOUS
10
6.51707
20
-3.7369
11
6.52036
21
-3.73659
0
LINE
8
BLACK
6
CONTINUOUS
10
6.52036
20
-3.73659
11
6.54005
21
-3.73659
0
LINE
8
BLACK
6
CONTINUOUS
10
6.54005
20
-3.73659
11
6.54334
21
-3.7369
0
LINE
8
BLACK
6
CONTINUOUS
10
6.1748
20
-3.75236
11
6.17978
21
-3.7541
0
LINE
8
BLACK
6
CONTINUOUS
10
6.17978
20
-3.7541
11
6.18403
21
-3.75724
0
LINE
8
BLACK
6
CONTINUOUS
10
6.18403
20
-3.75724
11
6.18717
21
-3.76149
0
LINE
8
BLACK
6
CONTINUOUS
10
6.18717
20
-3.76149
11
6.18891
21
-3.76647
0
LINE
8
BLACK
6
CONTINUOUS
10
6.18891
20
-3.76647
11
6.18922
21
-3.76976
0
LINE
8
BLACK
6
CONTINUOUS
10
6.18922
20
-3.76976
11
6.18922
21
-3.78945
0
LINE
8
BLACK
6
CONTINUOUS
10
6.18922
20
-3.78945
11
6.18891
21
-3.79274
0
LINE
8
BLACK
6
CONTINUOUS
10
6.18891
20
-3.79274
11
6.18717
21
-3.79773
0
LINE
8
BLACK
6
CONTINUOUS
10
6.18717
20
-3.79773
11
6.18403
21
-3.80198
0
LINE
8
BLACK
6
CONTINUOUS
10
6.18403
20
-3.80198
11
6.17978
21
-3.80511
0
LINE
8
BLACK
6
CONTINUOUS
10
6.17978
20
-3.80511
11
6.1748
21
-3.80686
0
LINE
8
BLACK
6
CONTINUOUS
10
6.1748
20
-3.80686
11
6.1715
21
-3.80717
0
LINE
8
BLACK
6
CONTINUOUS
10
6.1715
20
-3.80717
11
6.1341
21
-3.80717
0
LINE
8
BLACK
6
CONTINUOUS
10
6.1341
20
-3.80717
11
6.13081
21
-3.80686
0
LINE
8
BLACK
6
CONTINUOUS
10
6.13081
20
-3.80686
11
6.12582
21
-3.80511
0
LINE
8
BLACK
6
CONTINUOUS
10
6.12582
20
-3.80511
11
6.12157
21
-3.80198
0
LINE
8
BLACK
6
CONTINUOUS
10
6.12157
20
-3.80198
11
6.11844
21
-3.79773
0
LINE
8
BLACK
6
CONTINUOUS
10
6.11844
20
-3.79773
11
6.11669
21
-3.79274
0
LINE
8
BLACK
6
CONTINUOUS
10
6.11669
20
-3.79274
11
6.11639
21
-3.78945
0
LINE
8
BLACK
6
CONTINUOUS
10
6.11639
20
-3.78945
11
6.11639
21
-3.76976
0
LINE
8
BLACK
6
CONTINUOUS
10
6.11639
20
-3.76976
11
6.11669
21
-3.76647
0
LINE
8
BLACK
6
CONTINUOUS
10
6.11669
20
-3.76647
11
6.11844
21
-3.76149
0
LINE
8
BLACK
6
CONTINUOUS
10
6.11844
20
-3.76149
11
6.12157
21
-3.75724
0
LINE
8
BLACK
6
CONTINUOUS
10
6.12157
20
-3.75724
11
6.12582
21
-3.7541
0
LINE
8
BLACK
6
CONTINUOUS
10
6.12582
20
-3.7541
11
6.13081
21
-3.75236
0
LINE
8
BLACK
6
CONTINUOUS
10
6.13081
20
-3.75236
11
6.1341
21
-3.75205
0
LINE
8
BLACK
6
CONTINUOUS
10
6.1341
20
-3.75205
11
6.1715
21
-3.75205
0
LINE
8
BLACK
6
CONTINUOUS
10
6.1715
20
-3.75205
11
6.1748
21
-3.75236
0
LINE
8
BLACK
6
CONTINUOUS
10
5.94291
20
-3.75448
11
5.9475
21
-3.75683
0
LINE
8
BLACK
6
CONTINUOUS
10
5.9475
20
-3.75683
11
5.95115
21
-3.76047
0
LINE
8
BLACK
6
CONTINUOUS
10
5.95115
20
-3.76047
11
5.95349
21
-3.76507
0
LINE
8
BLACK
6
CONTINUOUS
10
5.95349
20
-3.76507
11
5.9543
21
-3.77016
0
LINE
8
BLACK
6
CONTINUOUS
10
5.9543
20
-3.77016
11
5.9543
21
-3.78739
0
LINE
8
BLACK
6
CONTINUOUS
10
5.9543
20
-3.78739
11
5.95349
21
-3.79248
0
LINE
8
BLACK
6
CONTINUOUS
10
5.95349
20
-3.79248
11
5.95115
21
-3.79708
0
LINE
8
BLACK
6
CONTINUOUS
10
5.95115
20
-3.79708
11
5.9475
21
-3.80073
0
LINE
8
BLACK
6
CONTINUOUS
10
5.9475
20
-3.80073
11
5.94291
21
-3.80307
0
LINE
8
BLACK
6
CONTINUOUS
10
5.94291
20
-3.80307
11
5.93781
21
-3.80387
0
LINE
8
BLACK
6
CONTINUOUS
10
5.93781
20
-3.80387
11
5.90779
21
-3.80387
0
LINE
8
BLACK
6
CONTINUOUS
10
5.90779
20
-3.80387
11
5.9027
21
-3.80307
0
LINE
8
BLACK
6
CONTINUOUS
10
5.9027
20
-3.80307
11
5.8981
21
-3.80073
0
LINE
8
BLACK
6
CONTINUOUS
10
5.8981
20
-3.80073
11
5.89446
21
-3.79708
0
LINE
8
BLACK
6
CONTINUOUS
10
5.89446
20
-3.79708
11
5.89211
21
-3.79248
0
LINE
8
BLACK
6
CONTINUOUS
10
5.89211
20
-3.79248
11
5.89131
21
-3.78739
0
LINE
8
BLACK
6
CONTINUOUS
10
5.89131
20
-3.78739
11
5.89131
21
-3.77016
0
LINE
8
BLACK
6
CONTINUOUS
10
5.89131
20
-3.77016
11
5.89211
21
-3.76507
0
LINE
8
BLACK
6
CONTINUOUS
10
5.89211
20
-3.76507
11
5.89446
21
-3.76047
0
LINE
8
BLACK
6
CONTINUOUS
10
5.89446
20
-3.76047
11
5.8981
21
-3.75683
0
LINE
8
BLACK
6
CONTINUOUS
10
5.8981
20
-3.75683
11
5.9027
21
-3.75448
0
LINE
8
BLACK
6
CONTINUOUS
10
5.9027
20
-3.75448
11
5.90779
21
-3.75368
0
LINE
8
BLACK
6
CONTINUOUS
10
5.90779
20
-3.75368
11
5.93781
21
-3.75368
0
LINE
8
BLACK
6
CONTINUOUS
10
5.93781
20
-3.75368
11
5.94291
21
-3.75448
0
LINE
8
BLACK
6
CONTINUOUS
10
6.25291
20
-3.75089
11
6.2575
21
-3.75323
0
LINE
8
BLACK
6
CONTINUOUS
10
6.2575
20
-3.75323
11
6.26115
21
-3.75687
0
LINE
8
BLACK
6
CONTINUOUS
10
6.26115
20
-3.75687
11
6.26349
21
-3.76147
0
LINE
8
BLACK
6
CONTINUOUS
10
6.26349
20
-3.76147
11
6.2643
21
-3.76656
0
LINE
8
BLACK
6
CONTINUOUS
10
6.2643
20
-3.76656
11
6.2643
21
-3.78379
0
LINE
8
BLACK
6
CONTINUOUS
10
6.2643
20
-3.78379
11
6.26349
21
-3.78888
0
LINE
8
BLACK
6
CONTINUOUS
10
6.26349
20
-3.78888
11
6.26115
21
-3.79348
0
LINE
8
BLACK
6
CONTINUOUS
10
6.26115
20
-3.79348
11
6.2575
21
-3.79713
0
LINE
8
BLACK
6
CONTINUOUS
10
6.2575
20
-3.79713
11
6.25291
21
-3.79947
0
LINE
8
BLACK
6
CONTINUOUS
10
6.25291
20
-3.79947
11
6.24781
21
-3.80028
0
LINE
8
BLACK
6
CONTINUOUS
10
6.24781
20
-3.80028
11
6.21779
21
-3.80028
0
LINE
8
BLACK
6
CONTINUOUS
10
6.21779
20
-3.80028
11
6.2127
21
-3.79947
0
LINE
8
BLACK
6
CONTINUOUS
10
6.2127
20
-3.79947
11
6.2081
21
-3.79713
0
LINE
8
BLACK
6
CONTINUOUS
10
6.2081
20
-3.79713
11
6.20446
21
-3.79348
0
LINE
8
BLACK
6
CONTINUOUS
10
6.20446
20
-3.79348
11
6.20211
21
-3.78888
0
LINE
8
BLACK
6
CONTINUOUS
10
6.20211
20
-3.78888
11
6.20131
21
-3.78379
0
LINE
8
BLACK
6
CONTINUOUS
10
6.20131
20
-3.78379
11
6.20131
21
-3.76656
0
LINE
8
BLACK
6
CONTINUOUS
10
6.20131
20
-3.76656
11
6.20211
21
-3.76147
0
LINE
8
BLACK
6
CONTINUOUS
10
6.20211
20
-3.76147
11
6.20446
21
-3.75687
0
LINE
8
BLACK
6
CONTINUOUS
10
6.20446
20
-3.75687
11
6.2081
21
-3.75323
0
LINE
8
BLACK
6
CONTINUOUS
10
6.2081
20
-3.75323
11
6.2127
21
-3.75089
0
LINE
8
BLACK
6
CONTINUOUS
10
6.2127
20
-3.75089
11
6.21779
21
-3.75008
0
LINE
8
BLACK
6
CONTINUOUS
10
6.21779
20
-3.75008
11
6.24781
21
-3.75008
0
LINE
8
BLACK
6
CONTINUOUS
10
6.24781
20
-3.75008
11
6.25291
21
-3.75089
0
LINE
8
BLACK
6
CONTINUOUS
10
5.22087
20
-3.67162
11
5.22754
21
-3.6732
0
LINE
8
BLACK
6
CONTINUOUS
10
5.22754
20
-3.6732
11
5.23367
21
-3.67627
0
LINE
8
BLACK
6
CONTINUOUS
10
5.23367
20
-3.67627
11
5.23892
21
-3.68068
0
LINE
8
BLACK
6
CONTINUOUS
10
5.23892
20
-3.68068
11
5.24301
21
-3.68618
0
LINE
8
BLACK
6
CONTINUOUS
10
5.24301
20
-3.68618
11
5.24573
21
-3.69248
0
LINE
8
BLACK
6
CONTINUOUS
10
5.24573
20
-3.69248
11
5.24692
21
-3.69923
0
LINE
8
BLACK
6
CONTINUOUS
10
5.24692
20
-3.69923
11
5.24652
21
-3.70607
0
LINE
8
BLACK
6
CONTINUOUS
10
5.24652
20
-3.70607
11
5.24455
21
-3.71264
0
LINE
8
BLACK
6
CONTINUOUS
10
5.24455
20
-3.71264
11
5.24113
21
-3.71858
0
LINE
8
BLACK
6
CONTINUOUS
10
5.24113
20
-3.71858
11
5.23642
21
-3.72356
0
LINE
8
BLACK
6
CONTINUOUS
10
5.23642
20
-3.72356
11
5.23289
21
-3.72589
0
LINE
8
BLACK
6
CONTINUOUS
10
5.23289
20
-3.72589
11
5.23367
21
-3.72627
0
LINE
8
BLACK
6
CONTINUOUS
10
5.23367
20
-3.72627
11
5.23892
21
-3.73068
0
LINE
8
BLACK
6
CONTINUOUS
10
5.23892
20
-3.73068
11
5.24301
21
-3.73618
0
LINE
8
BLACK
6
CONTINUOUS
10
5.24301
20
-3.73618
11
5.24573
21
-3.74248
0
LINE
8
BLACK
6
CONTINUOUS
10
5.24573
20
-3.74248
11
5.24692
21
-3.74923
0
LINE
8
BLACK
6
CONTINUOUS
10
5.24692
20
-3.74923
11
5.24652
21
-3.75607
0
LINE
8
BLACK
6
CONTINUOUS
10
5.24652
20
-3.75607
11
5.24455
21
-3.76264
0
LINE
8
BLACK
6
CONTINUOUS
10
5.24455
20
-3.76264
11
5.24113
21
-3.76858
0
LINE
8
BLACK
6
CONTINUOUS
10
5.24113
20
-3.76858
11
5.23642
21
-3.77356
0
LINE
8
BLACK
6
CONTINUOUS
10
5.23642
20
-3.77356
11
5.23069
21
-3.77733
0
LINE
8
BLACK
6
CONTINUOUS
10
5.23069
20
-3.77733
11
5.22425
21
-3.77968
0
LINE
8
BLACK
6
CONTINUOUS
10
5.22425
20
-3.77968
11
5.21744
21
-3.78047
0
LINE
8
BLACK
6
CONTINUOUS
10
5.21744
20
-3.78047
11
5.20957
21
-3.78047
0
LINE
8
BLACK
6
CONTINUOUS
10
5.20957
20
-3.78047
11
5.20614
21
-3.78027
0
LINE
8
BLACK
6
CONTINUOUS
10
5.20614
20
-3.78027
11
5.19947
21
-3.77869
0
LINE
8
BLACK
6
CONTINUOUS
10
5.19947
20
-3.77869
11
5.19334
21
-3.77561
0
LINE
8
BLACK
6
CONTINUOUS
10
5.19334
20
-3.77561
11
5.18809
21
-3.77121
0
LINE
8
BLACK
6
CONTINUOUS
10
5.18809
20
-3.77121
11
5.184
21
-3.76571
0
LINE
8
BLACK
6
CONTINUOUS
10
5.184
20
-3.76571
11
5.18128
21
-3.75941
0
LINE
8
BLACK
6
CONTINUOUS
10
5.18128
20
-3.75941
11
5.18009
21
-3.75266
0
LINE
8
BLACK
6
CONTINUOUS
10
5.18009
20
-3.75266
11
5.18049
21
-3.74582
0
LINE
8
BLACK
6
CONTINUOUS
10
5.18049
20
-3.74582
11
5.18245
21
-3.73925
0
LINE
8
BLACK
6
CONTINUOUS
10
5.18245
20
-3.73925
11
5.18588
21
-3.73331
0
LINE
8
BLACK
6
CONTINUOUS
10
5.18588
20
-3.73331
11
5.19059
21
-3.72833
0
LINE
8
BLACK
6
CONTINUOUS
10
5.19059
20
-3.72833
11
5.19412
21
-3.726
0
LINE
8
BLACK
6
CONTINUOUS
10
5.19412
20
-3.726
11
5.19334
21
-3.72561
0
LINE
8
BLACK
6
CONTINUOUS
10
5.19334
20
-3.72561
11
5.18809
21
-3.72121
0
LINE
8
BLACK
6
CONTINUOUS
10
5.18809
20
-3.72121
11
5.184
21
-3.71571
0
LINE
8
BLACK
6
CONTINUOUS
10
5.184
20
-3.71571
11
5.18128
21
-3.70941
0
LINE
8
BLACK
6
CONTINUOUS
10
5.18128
20
-3.70941
11
5.18009
21
-3.70266
0
LINE
8
BLACK
6
CONTINUOUS
10
5.18009
20
-3.70266
11
5.18049
21
-3.69582
0
LINE
8
BLACK
6
CONTINUOUS
10
5.18049
20
-3.69582
11
5.18245
21
-3.68925
0
LINE
8
BLACK
6
CONTINUOUS
10
5.18245
20
-3.68925
11
5.18588
21
-3.68331
0
LINE
8
BLACK
6
CONTINUOUS
10
5.18588
20
-3.68331
11
5.19059
21
-3.67833
0
LINE
8
BLACK
6
CONTINUOUS
10
5.19059
20
-3.67833
11
5.19632
21
-3.67456
0
LINE
8
BLACK
6
CONTINUOUS
10
5.19632
20
-3.67456
11
5.20276
21
-3.67221
0
LINE
8
BLACK
6
CONTINUOUS
10
5.20276
20
-3.67221
11
5.20957
21
-3.67142
0
LINE
8
BLACK
6
CONTINUOUS
10
5.20957
20
-3.67142
11
5.21744
21
-3.67142
0
LINE
8
BLACK
6
CONTINUOUS
10
5.21744
20
-3.67142
11
5.22087
21
-3.67162
0
LINE
8
BLACK
6
CONTINUOUS
10
6.95217
20
-3.67162
11
6.95884
21
-3.6732
0
LINE
8
BLACK
6
CONTINUOUS
10
6.95884
20
-3.6732
11
6.96497
21
-3.67627
0
LINE
8
BLACK
6
CONTINUOUS
10
6.96497
20
-3.67627
11
6.97022
21
-3.68068
0
LINE
8
BLACK
6
CONTINUOUS
10
6.97022
20
-3.68068
11
6.97431
21
-3.68618
0
LINE
8
BLACK
6
CONTINUOUS
10
6.97431
20
-3.68618
11
6.97703
21
-3.69248
0
LINE
8
BLACK
6
CONTINUOUS
10
6.97703
20
-3.69248
11
6.97822
21
-3.69923
0
LINE
8
BLACK
6
CONTINUOUS
10
6.97822
20
-3.69923
11
6.97782
21
-3.70607
0
LINE
8
BLACK
6
CONTINUOUS
10
6.97782
20
-3.70607
11
6.97585
21
-3.71264
0
LINE
8
BLACK
6
CONTINUOUS
10
6.97585
20
-3.71264
11
6.97242
21
-3.71858
0
LINE
8
BLACK
6
CONTINUOUS
10
6.97242
20
-3.71858
11
6.96772
21
-3.72356
0
LINE
8
BLACK
6
CONTINUOUS
10
6.96772
20
-3.72356
11
6.96419
21
-3.72589
0
LINE
8
BLACK
6
CONTINUOUS
10
6.96419
20
-3.72589
11
6.96497
21
-3.72627
0
LINE
8
BLACK
6
CONTINUOUS
10
6.96497
20
-3.72627
11
6.97022
21
-3.73068
0
LINE
8
BLACK
6
CONTINUOUS
10
6.97022
20
-3.73068
11
6.97431
21
-3.73618
0
LINE
8
BLACK
6
CONTINUOUS
10
6.97431
20
-3.73618
11
6.97703
21
-3.74248
0
LINE
8
BLACK
6
CONTINUOUS
10
6.97703
20
-3.74248
11
6.97822
21
-3.74923
0
LINE
8
BLACK
6
CONTINUOUS
10
6.97822
20
-3.74923
11
6.97782
21
-3.75607
0
LINE
8
BLACK
6
CONTINUOUS
10
6.97782
20
-3.75607
11
6.97585
21
-3.76264
0
LINE
8
BLACK
6
CONTINUOUS
10
6.97585
20
-3.76264
11
6.97242
21
-3.76858
0
LINE
8
BLACK
6
CONTINUOUS
10
6.97242
20
-3.76858
11
6.96772
21
-3.77356
0
LINE
8
BLACK
6
CONTINUOUS
10
6.96772
20
-3.77356
11
6.96199
21
-3.77733
0
LINE
8
BLACK
6
CONTINUOUS
10
6.96199
20
-3.77733
11
6.95555
21
-3.77968
0
LINE
8
BLACK
6
CONTINUOUS
10
6.95555
20
-3.77968
11
6.94874
21
-3.78047
0
LINE
8
BLACK
6
CONTINUOUS
10
6.94874
20
-3.78047
11
6.94087
21
-3.78047
0
LINE
8
BLACK
6
CONTINUOUS
10
6.94087
20
-3.78047
11
6.93744
21
-3.78027
0
LINE
8
BLACK
6
CONTINUOUS
10
6.93744
20
-3.78027
11
6.93077
21
-3.77869
0
LINE
8
BLACK
6
CONTINUOUS
10
6.93077
20
-3.77869
11
6.92464
21
-3.77561
0
LINE
8
BLACK
6
CONTINUOUS
10
6.92464
20
-3.77561
11
6.91939
21
-3.77121
0
LINE
8
BLACK
6
CONTINUOUS
10
6.91939
20
-3.77121
11
6.91529
21
-3.76571
0
LINE
8
BLACK
6
CONTINUOUS
10
6.91529
20
-3.76571
11
6.91258
21
-3.75941
0
LINE
8
BLACK
6
CONTINUOUS
10
6.91258
20
-3.75941
11
6.91139
21
-3.75266
0
LINE
8
BLACK
6
CONTINUOUS
10
6.91139
20
-3.75266
11
6.91179
21
-3.74582
0
LINE
8
BLACK
6
CONTINUOUS
10
6.91179
20
-3.74582
11
6.91375
21
-3.73925
0
LINE
8
BLACK
6
CONTINUOUS
10
6.91375
20
-3.73925
11
6.91718
21
-3.73331
0
LINE
8
BLACK
6
CONTINUOUS
10
6.91718
20
-3.73331
11
6.92189
21
-3.72833
0
LINE
8
BLACK
6
CONTINUOUS
10
6.92189
20
-3.72833
11
6.92542
21
-3.726
0
LINE
8
BLACK
6
CONTINUOUS
10
6.92542
20
-3.726
11
6.92464
21
-3.72561
0
LINE
8
BLACK
6
CONTINUOUS
10
6.92464
20
-3.72561
11
6.91939
21
-3.72121
0
LINE
8
BLACK
6
CONTINUOUS
10
6.91939
20
-3.72121
11
6.91529
21
-3.71571
0
LINE
8
BLACK
6
CONTINUOUS
10
6.91529
20
-3.71571
11
6.91258
21
-3.70941
0
LINE
8
BLACK
6
CONTINUOUS
10
6.91258
20
-3.70941
11
6.91139
21
-3.70266
0
LINE
8
BLACK
6
CONTINUOUS
10
6.91139
20
-3.70266
11
6.91179
21
-3.69582
0
LINE
8
BLACK
6
CONTINUOUS
10
6.91179
20
-3.69582
11
6.91375
21
-3.68925
0
LINE
8
BLACK
6
CONTINUOUS
10
6.91375
20
-3.68925
11
6.91718
21
-3.68331
0
LINE
8
BLACK
6
CONTINUOUS
10
6.91718
20
-3.68331
11
6.92189
21
-3.67833
0
LINE
8
BLACK
6
CONTINUOUS
10
6.92189
20
-3.67833
11
6.92761
21
-3.67456
0
LINE
8
BLACK
6
CONTINUOUS
10
6.92761
20
-3.67456
11
6.93406
21
-3.67221
0
LINE
8
BLACK
6
CONTINUOUS
10
6.93406
20
-3.67221
11
6.94087
21
-3.67142
0
LINE
8
BLACK
6
CONTINUOUS
10
6.94087
20
-3.67142
11
6.94874
21
-3.67142
0
LINE
8
BLACK
6
CONTINUOUS
10
6.94874
20
-3.67142
11
6.95217
21
-3.67162
0
LINE
8
BLACK
6
CONTINUOUS
10
5.27992
20
-3.62162
11
5.2866
21
-3.6232
0
LINE
8
BLACK
6
CONTINUOUS
10
5.2866
20
-3.6232
11
5.29272
21
-3.62627
0
LINE
8
BLACK
6
CONTINUOUS
10
5.29272
20
-3.62627
11
5.29797
21
-3.63068
0
LINE
8
BLACK
6
CONTINUOUS
10
5.29797
20
-3.63068
11
5.30207
21
-3.63618
0
LINE
8
BLACK
6
CONTINUOUS
10
5.30207
20
-3.63618
11
5.30478
21
-3.64248
0
LINE
8
BLACK
6
CONTINUOUS
10
5.30478
20
-3.64248
11
5.30597
21
-3.64923
0
LINE
8
BLACK
6
CONTINUOUS
10
5.30597
20
-3.64923
11
5.30558
21
-3.65607
0
LINE
8
BLACK
6
CONTINUOUS
10
5.30558
20
-3.65607
11
5.30361
21
-3.66264
0
LINE
8
BLACK
6
CONTINUOUS
10
5.30361
20
-3.66264
11
5.30018
21
-3.66858
0
LINE
8
BLACK
6
CONTINUOUS
10
5.30018
20
-3.66858
11
5.29548
21
-3.67356
0
LINE
8
BLACK
6
CONTINUOUS
10
5.29548
20
-3.67356
11
5.28975
21
-3.67733
0
LINE
8
BLACK
6
CONTINUOUS
10
5.28975
20
-3.67733
11
5.28331
21
-3.67968
0
LINE
8
BLACK
6
CONTINUOUS
10
5.28331
20
-3.67968
11
5.2765
21
-3.68047
0
LINE
8
BLACK
6
CONTINUOUS
10
5.2765
20
-3.68047
11
5.26862
21
-3.68047
0
LINE
8
BLACK
6
CONTINUOUS
10
5.26862
20
-3.68047
11
5.26519
21
-3.68027
0
LINE
8
BLACK
6
CONTINUOUS
10
5.26519
20
-3.68027
11
5.25852
21
-3.67869
0
LINE
8
BLACK
6
CONTINUOUS
10
5.25852
20
-3.67869
11
5.2524
21
-3.67561
0
LINE
8
BLACK
6
CONTINUOUS
10
5.2524
20
-3.67561
11
5.24714
21
-3.67121
0
LINE
8
BLACK
6
CONTINUOUS
10
5.24714
20
-3.67121
11
5.24305
21
-3.66571
0
LINE
8
BLACK
6
CONTINUOUS
10
5.24305
20
-3.66571
11
5.24033
21
-3.65941
0
LINE
8
BLACK
6
CONTINUOUS
10
5.24033
20
-3.65941
11
5.23914
21
-3.65266
0
LINE
8
BLACK
6
CONTINUOUS
10
5.23914
20
-3.65266
11
5.23954
21
-3.64582
0
LINE
8
BLACK
6
CONTINUOUS
10
5.23954
20
-3.64582
11
5.24151
21
-3.63925
0
LINE
8
BLACK
6
CONTINUOUS
10
5.24151
20
-3.63925
11
5.24494
21
-3.63331
0
LINE
8
BLACK
6
CONTINUOUS
10
5.24494
20
-3.63331
11
5.24964
21
-3.62833
0
LINE
8
BLACK
6
CONTINUOUS
10
5.24964
20
-3.62833
11
5.25537
21
-3.62456
0
LINE
8
BLACK
6
CONTINUOUS
10
5.25537
20
-3.62456
11
5.26181
21
-3.62221
0
LINE
8
BLACK
6
CONTINUOUS
10
5.26181
20
-3.62221
11
5.26862
21
-3.62142
0
LINE
8
BLACK
6
CONTINUOUS
10
5.26862
20
-3.62142
11
5.2765
21
-3.62142
0
LINE
8
BLACK
6
CONTINUOUS
10
5.2765
20
-3.62142
11
5.27992
21
-3.62162
0
LINE
8
BLACK
6
CONTINUOUS
10
7.01122
20
-3.62162
11
7.01789
21
-3.6232
0
LINE
8
BLACK
6
CONTINUOUS
10
7.01789
20
-3.6232
11
7.02402
21
-3.62627
0
LINE
8
BLACK
6
CONTINUOUS
10
7.02402
20
-3.62627
11
7.02927
21
-3.63068
0
LINE
8
BLACK
6
CONTINUOUS
10
7.02927
20
-3.63068
11
7.03337
21
-3.63618
0
LINE
8
BLACK
6
CONTINUOUS
10
7.03337
20
-3.63618
11
7.03608
21
-3.64248
0
LINE
8
BLACK
6
CONTINUOUS
10
7.03608
20
-3.64248
11
7.03727
21
-3.64923
0
LINE
8
BLACK
6
CONTINUOUS
10
7.03727
20
-3.64923
11
7.03687
21
-3.65607
0
LINE
8
BLACK
6
CONTINUOUS
10
7.03687
20
-3.65607
11
7.03491
21
-3.66264
0
LINE
8
BLACK
6
CONTINUOUS
10
7.03491
20
-3.66264
11
7.03148
21
-3.66858
0
LINE
8
BLACK
6
CONTINUOUS
10
7.03148
20
-3.66858
11
7.02678
21
-3.67356
0
LINE
8
BLACK
6
CONTINUOUS
10
7.02678
20
-3.67356
11
7.02105
21
-3.67733
0
LINE
8
BLACK
6
CONTINUOUS
10
7.02105
20
-3.67733
11
7.0146
21
-3.67968
0
LINE
8
BLACK
6
CONTINUOUS
10
7.0146
20
-3.67968
11
7.0078
21
-3.68047
0
LINE
8
BLACK
6
CONTINUOUS
10
7.0078
20
-3.68047
11
6.99992
21
-3.68047
0
LINE
8
BLACK
6
CONTINUOUS
10
6.99992
20
-3.68047
11
6.99649
21
-3.68027
0
LINE
8
BLACK
6
CONTINUOUS
10
6.99649
20
-3.68027
11
6.98982
21
-3.67869
0
LINE
8
BLACK
6
CONTINUOUS
10
6.98982
20
-3.67869
11
6.9837
21
-3.67561
0
LINE
8
BLACK
6
CONTINUOUS
10
6.9837
20
-3.67561
11
6.97844
21
-3.67121
0
LINE
8
BLACK
6
CONTINUOUS
10
6.97844
20
-3.67121
11
6.97435
21
-3.66571
0
LINE
8
BLACK
6
CONTINUOUS
10
6.97435
20
-3.66571
11
6.97163
21
-3.65941
0
LINE
8
BLACK
6
CONTINUOUS
10
6.97163
20
-3.65941
11
6.97044
21
-3.65266
0
LINE
8
BLACK
6
CONTINUOUS
10
6.97044
20
-3.65266
11
6.97084
21
-3.64582
0
LINE
8
BLACK
6
CONTINUOUS
10
6.97084
20
-3.64582
11
6.97281
21
-3.63925
0
LINE
8
BLACK
6
CONTINUOUS
10
6.97281
20
-3.63925
11
6.97624
21
-3.63331
0
LINE
8
BLACK
6
CONTINUOUS
10
6.97624
20
-3.63331
11
6.98094
21
-3.62833
0
LINE
8
BLACK
6
CONTINUOUS
10
6.98094
20
-3.62833
11
6.98667
21
-3.62456
0
LINE
8
BLACK
6
CONTINUOUS
10
6.98667
20
-3.62456
11
6.99311
21
-3.62221
0
LINE
8
BLACK
6
CONTINUOUS
10
6.99311
20
-3.62221
11
6.99992
21
-3.62142
0
LINE
8
BLACK
6
CONTINUOUS
10
6.99992
20
-3.62142
11
7.0078
21
-3.62142
0
LINE
8
BLACK
6
CONTINUOUS
10
7.0078
20
-3.62142
11
7.01122
21
-3.62162
0
LINE
8
BLACK
6
CONTINUOUS
10
6.09008
20
-3.58732
11
6.09468
21
-3.58966
0
LINE
8
BLACK
6
CONTINUOUS
10
6.09468
20
-3.58966
11
6.09832
21
-3.59331
0
LINE
8
BLACK
6
CONTINUOUS
10
6.09832
20
-3.59331
11
6.10067
21
-3.5979
0
LINE
8
BLACK
6
CONTINUOUS
10
6.10067
20
-3.5979
11
6.10147
21
-3.603
0
LINE
8
BLACK
6
CONTINUOUS
10
6.10147
20
-3.603
11
6.10147
21
-3.63302
0
LINE
8
BLACK
6
CONTINUOUS
10
6.10147
20
-3.63302
11
6.10067
21
-3.63811
0
LINE
8
BLACK
6
CONTINUOUS
10
6.10067
20
-3.63811
11
6.09832
21
-3.64271
0
LINE
8
BLACK
6
CONTINUOUS
10
6.09832
20
-3.64271
11
6.09468
21
-3.64636
0
LINE
8
BLACK
6
CONTINUOUS
10
6.09468
20
-3.64636
11
6.09008
21
-3.6487
0
LINE
8
BLACK
6
CONTINUOUS
10
6.09008
20
-3.6487
11
6.08499
21
-3.6495
0
LINE
8
BLACK
6
CONTINUOUS
10
6.08499
20
-3.6495
11
6.06776
21
-3.6495
0
LINE
8
BLACK
6
CONTINUOUS
10
6.06776
20
-3.6495
11
6.06267
21
-3.6487
0
LINE
8
BLACK
6
CONTINUOUS
10
6.06267
20
-3.6487
11
6.05807
21
-3.64636
0
LINE
8
BLACK
6
CONTINUOUS
10
6.05807
20
-3.64636
11
6.05442
21
-3.64271
0
LINE
8
BLACK
6
CONTINUOUS
10
6.05442
20
-3.64271
11
6.05208
21
-3.63811
0
LINE
8
BLACK
6
CONTINUOUS
10
6.05208
20
-3.63811
11
6.05128
21
-3.63302
0
LINE
8
BLACK
6
CONTINUOUS
10
6.05128
20
-3.63302
11
6.05128
21
-3.603
0
LINE
8
BLACK
6
CONTINUOUS
10
6.05128
20
-3.603
11
6.05208
21
-3.5979
0
LINE
8
BLACK
6
CONTINUOUS
10
6.05208
20
-3.5979
11
6.05442
21
-3.59331
0
LINE
8
BLACK
6
CONTINUOUS
10
6.05442
20
-3.59331
11
6.05807
21
-3.58966
0
LINE
8
BLACK
6
CONTINUOUS
10
6.05807
20
-3.58966
11
6.06267
21
-3.58732
0
LINE
8
BLACK
6
CONTINUOUS
10
6.06267
20
-3.58732
11
6.06776
21
-3.58651
0
LINE
8
BLACK
6
CONTINUOUS
10
6.06776
20
-3.58651
11
6.08499
21
-3.58651
0
LINE
8
BLACK
6
CONTINUOUS
10
6.08499
20
-3.58651
11
6.09008
21
-3.58732
0
LINE
8
BLACK
6
CONTINUOUS
10
6.17374
20
-3.58732
11
6.17834
21
-3.58966
0
LINE
8
BLACK
6
CONTINUOUS
10
6.17834
20
-3.58966
11
6.18199
21
-3.59331
0
LINE
8
BLACK
6
CONTINUOUS
10
6.18199
20
-3.59331
11
6.18433
21
-3.5979
0
LINE
8
BLACK
6
CONTINUOUS
10
6.18433
20
-3.5979
11
6.18513
21
-3.603
0
LINE
8
BLACK
6
CONTINUOUS
10
6.18513
20
-3.603
11
6.18513
21
-3.63302
0
LINE
8
BLACK
6
CONTINUOUS
10
6.18513
20
-3.63302
11
6.18433
21
-3.63811
0
LINE
8
BLACK
6
CONTINUOUS
10
6.18433
20
-3.63811
11
6.18199
21
-3.64271
0
LINE
8
BLACK
6
CONTINUOUS
10
6.18199
20
-3.64271
11
6.17834
21
-3.64636
0
LINE
8
BLACK
6
CONTINUOUS
10
6.17834
20
-3.64636
11
6.17374
21
-3.6487
0
LINE
8
BLACK
6
CONTINUOUS
10
6.17374
20
-3.6487
11
6.16865
21
-3.6495
0
LINE
8
BLACK
6
CONTINUOUS
10
6.16865
20
-3.6495
11
6.15142
21
-3.6495
0
LINE
8
BLACK
6
CONTINUOUS
10
6.15142
20
-3.6495
11
6.14633
21
-3.6487
0
LINE
8
BLACK
6
CONTINUOUS
10
6.14633
20
-3.6487
11
6.14173
21
-3.64636
0
LINE
8
BLACK
6
CONTINUOUS
10
6.14173
20
-3.64636
11
6.13809
21
-3.64271
0
LINE
8
BLACK
6
CONTINUOUS
10
6.13809
20
-3.64271
11
6.13574
21
-3.63811
0
LINE
8
BLACK
6
CONTINUOUS
10
6.13574
20
-3.63811
11
6.13494
21
-3.63302
0
LINE
8
BLACK
6
CONTINUOUS
10
6.13494
20
-3.63302
11
6.13494
21
-3.603
0
LINE
8
BLACK
6
CONTINUOUS
10
6.13494
20
-3.603
11
6.13574
21
-3.5979
0
LINE
8
BLACK
6
CONTINUOUS
10
6.13574
20
-3.5979
11
6.13809
21
-3.59331
0
LINE
8
BLACK
6
CONTINUOUS
10
6.13809
20
-3.59331
11
6.14173
21
-3.58966
0
LINE
8
BLACK
6
CONTINUOUS
10
6.14173
20
-3.58966
11
6.14633
21
-3.58732
0
LINE
8
BLACK
6
CONTINUOUS
10
6.14633
20
-3.58732
11
6.15142
21
-3.58651
0
LINE
8
BLACK
6
CONTINUOUS
10
6.15142
20
-3.58651
11
6.16865
21
-3.58651
0
LINE
8
BLACK
6
CONTINUOUS
10
6.16865
20
-3.58651
11
6.17374
21
-3.58732
0
LINE
8
BLACK
6
CONTINUOUS
10
5.92408
20
-3.58532
11
5.92868
21
-3.58766
0
LINE
8
BLACK
6
CONTINUOUS
10
5.92868
20
-3.58766
11
5.93232
21
-3.59131
0
LINE
8
BLACK
6
CONTINUOUS
10
5.93232
20
-3.59131
11
5.93467
21
-3.5959
0
LINE
8
BLACK
6
CONTINUOUS
10
5.93467
20
-3.5959
11
5.93547
21
-3.601
0
LINE
8
BLACK
6
CONTINUOUS
10
5.93547
20
-3.601
11
5.93547
21
-3.63102
0
LINE
8
BLACK
6
CONTINUOUS
10
5.93547
20
-3.63102
11
5.93467
21
-3.63611
0
LINE
8
BLACK
6
CONTINUOUS
10
5.93467
20
-3.63611
11
5.93232
21
-3.64071
0
LINE
8
BLACK
6
CONTINUOUS
10
5.93232
20
-3.64071
11
5.92868
21
-3.64436
0
LINE
8
BLACK
6
CONTINUOUS
10
5.92868
20
-3.64436
11
5.92408
21
-3.6467
0
LINE
8
BLACK
6
CONTINUOUS
10
5.92408
20
-3.6467
11
5.91899
21
-3.6475
0
LINE
8
BLACK
6
CONTINUOUS
10
5.91899
20
-3.6475
11
5.90176
21
-3.6475
0
LINE
8
BLACK
6
CONTINUOUS
10
5.90176
20
-3.6475
11
5.89667
21
-3.6467
0
LINE
8
BLACK
6
CONTINUOUS
10
5.89667
20
-3.6467
11
5.89207
21
-3.64436
0
LINE
8
BLACK
6
CONTINUOUS
10
5.89207
20
-3.64436
11
5.88842
21
-3.64071
0
LINE
8
BLACK
6
CONTINUOUS
10
5.88842
20
-3.64071
11
5.88608
21
-3.63611
0
LINE
8
BLACK
6
CONTINUOUS
10
5.88608
20
-3.63611
11
5.88528
21
-3.63102
0
LINE
8
BLACK
6
CONTINUOUS
10
5.88528
20
-3.63102
11
5.88528
21
-3.601
0
LINE
8
BLACK
6
CONTINUOUS
10
5.88528
20
-3.601
11
5.88608
21
-3.5959
0
LINE
8
BLACK
6
CONTINUOUS
10
5.88608
20
-3.5959
11
5.88842
21
-3.59131
0
LINE
8
BLACK
6
CONTINUOUS
10
5.88842
20
-3.59131
11
5.89207
21
-3.58766
0
LINE
8
BLACK
6
CONTINUOUS
10
5.89207
20
-3.58766
11
5.89667
21
-3.58532
0
LINE
8
BLACK
6
CONTINUOUS
10
5.89667
20
-3.58532
11
5.90176
21
-3.58451
0
LINE
8
BLACK
6
CONTINUOUS
10
5.90176
20
-3.58451
11
5.91899
21
-3.58451
0
LINE
8
BLACK
6
CONTINUOUS
10
5.91899
20
-3.58451
11
5.92408
21
-3.58532
0
LINE
8
BLACK
6
CONTINUOUS
10
6.00774
20
-3.58532
11
6.01234
21
-3.58766
0
LINE
8
BLACK
6
CONTINUOUS
10
6.01234
20
-3.58766
11
6.01599
21
-3.59131
0
LINE
8
BLACK
6
CONTINUOUS
10
6.01599
20
-3.59131
11
6.01833
21
-3.5959
0
LINE
8
BLACK
6
CONTINUOUS
10
6.01833
20
-3.5959
11
6.01913
21
-3.601
0
LINE
8
BLACK
6
CONTINUOUS
10
6.01913
20
-3.601
11
6.01913
21
-3.63102
0
LINE
8
BLACK
6
CONTINUOUS
10
6.01913
20
-3.63102
11
6.01833
21
-3.63611
0
LINE
8
BLACK
6
CONTINUOUS
10
6.01833
20
-3.63611
11
6.01599
21
-3.64071
0
LINE
8
BLACK
6
CONTINUOUS
10
6.01599
20
-3.64071
11
6.01234
21
-3.64436
0
LINE
8
BLACK
6
CONTINUOUS
10
6.01234
20
-3.64436
11
6.00774
21
-3.6467
0
LINE
8
BLACK
6
CONTINUOUS
10
6.00774
20
-3.6467
11
6.00265
21
-3.6475
0
LINE
8
BLACK
6
CONTINUOUS
10
6.00265
20
-3.6475
11
5.98542
21
-3.6475
0
LINE
8
BLACK
6
CONTINUOUS
10
5.98542
20
-3.6475
11
5.98033
21
-3.6467
0
LINE
8
BLACK
6
CONTINUOUS
10
5.98033
20
-3.6467
11
5.97573
21
-3.64436
0
LINE
8
BLACK
6
CONTINUOUS
10
5.97573
20
-3.64436
11
5.97209
21
-3.64071
0
LINE
8
BLACK
6
CONTINUOUS
10
5.97209
20
-3.64071
11
5.96974
21
-3.63611
0
LINE
8
BLACK
6
CONTINUOUS
10
5.96974
20
-3.63611
11
5.96894
21
-3.63102
0
LINE
8
BLACK
6
CONTINUOUS
10
5.96894
20
-3.63102
11
5.96894
21
-3.601
0
LINE
8
BLACK
6
CONTINUOUS
10
5.96894
20
-3.601
11
5.96974
21
-3.5959
0
LINE
8
BLACK
6
CONTINUOUS
10
5.96974
20
-3.5959
11
5.97209
21
-3.59131
0
LINE
8
BLACK
6
CONTINUOUS
10
5.97209
20
-3.59131
11
5.97573
21
-3.58766
0
LINE
8
BLACK
6
CONTINUOUS
10
5.97573
20
-3.58766
11
5.98033
21
-3.58532
0
LINE
8
BLACK
6
CONTINUOUS
10
5.98033
20
-3.58532
11
5.98542
21
-3.58451
0
LINE
8
BLACK
6
CONTINUOUS
10
5.98542
20
-3.58451
11
6.00265
21
-3.58451
0
LINE
8
BLACK
6
CONTINUOUS
10
6.00265
20
-3.58451
11
6.00774
21
-3.58532
0
LINE
8
BLACK
6
CONTINUOUS
10
5.22087
20
-3.52162
11
5.22754
21
-3.5232
0
LINE
8
BLACK
6
CONTINUOUS
10
5.22754
20
-3.5232
11
5.23367
21
-3.52627
0
LINE
8
BLACK
6
CONTINUOUS
10
5.23367
20
-3.52627
11
5.23892
21
-3.53068
0
LINE
8
BLACK
6
CONTINUOUS
10
5.23892
20
-3.53068
11
5.24301
21
-3.53618
0
LINE
8
BLACK
6
CONTINUOUS
10
5.24301
20
-3.53618
11
5.24573
21
-3.54248
0
LINE
8
BLACK
6
CONTINUOUS
10
5.24573
20
-3.54248
11
5.24692
21
-3.54923
0
LINE
8
BLACK
6
CONTINUOUS
10
5.24692
20
-3.54923
11
5.24652
21
-3.55607
0
LINE
8
BLACK
6
CONTINUOUS
10
5.24652
20
-3.55607
11
5.24455
21
-3.56264
0
LINE
8
BLACK
6
CONTINUOUS
10
5.24455
20
-3.56264
11
5.24113
21
-3.56858
0
LINE
8
BLACK
6
CONTINUOUS
10
5.24113
20
-3.56858
11
5.23642
21
-3.57356
0
LINE
8
BLACK
6
CONTINUOUS
10
5.23642
20
-3.57356
11
5.23289
21
-3.57589
0
LINE
8
BLACK
6
CONTINUOUS
10
5.23289
20
-3.57589
11
5.23367
21
-3.57627
0
LINE
8
BLACK
6
CONTINUOUS
10
5.23367
20
-3.57627
11
5.23892
21
-3.58068
0
LINE
8
BLACK
6
CONTINUOUS
10
5.23892
20
-3.58068
11
5.24301
21
-3.58618
0
LINE
8
BLACK
6
CONTINUOUS
10
5.24301
20
-3.58618
11
5.24573
21
-3.59248
0
LINE
8
BLACK
6
CONTINUOUS
10
5.24573
20
-3.59248
11
5.24692
21
-3.59923
0
LINE
8
BLACK
6
CONTINUOUS
10
5.24692
20
-3.59923
11
5.24652
21
-3.60607
0
LINE
8
BLACK
6
CONTINUOUS
10
5.24652
20
-3.60607
11
5.24455
21
-3.61264
0
LINE
8
BLACK
6
CONTINUOUS
10
5.24455
20
-3.61264
11
5.24113
21
-3.61858
0
LINE
8
BLACK
6
CONTINUOUS
10
5.24113
20
-3.61858
11
5.23642
21
-3.62356
0
LINE
8
BLACK
6
CONTINUOUS
10
5.23642
20
-3.62356
11
5.23069
21
-3.62733
0
LINE
8
BLACK
6
CONTINUOUS
10
5.23069
20
-3.62733
11
5.22425
21
-3.62968
0
LINE
8
BLACK
6
CONTINUOUS
10
5.22425
20
-3.62968
11
5.21744
21
-3.63047
0
LINE
8
BLACK
6
CONTINUOUS
10
5.21744
20
-3.63047
11
5.20957
21
-3.63047
0
LINE
8
BLACK
6
CONTINUOUS
10
5.20957
20
-3.63047
11
5.20614
21
-3.63027
0
LINE
8
BLACK
6
CONTINUOUS
10
5.20614
20
-3.63027
11
5.19947
21
-3.62869
0
LINE
8
BLACK
6
CONTINUOUS
10
5.19947
20
-3.62869
11
5.19334
21
-3.62561
0
LINE
8
BLACK
6
CONTINUOUS
10
5.19334
20
-3.62561
11
5.18809
21
-3.62121
0
LINE
8
BLACK
6
CONTINUOUS
10
5.18809
20
-3.62121
11
5.184
21
-3.61571
0
LINE
8
BLACK
6
CONTINUOUS
10
5.184
20
-3.61571
11
5.18128
21
-3.60941
0
LINE
8
BLACK
6
CONTINUOUS
10
5.18128
20
-3.60941
11
5.18009
21
-3.60266
0
LINE
8
BLACK
6
CONTINUOUS
10
5.18009
20
-3.60266
11
5.18049
21
-3.59582
0
LINE
8
BLACK
6
CONTINUOUS
10
5.18049
20
-3.59582
11
5.18245
21
-3.58925
0
LINE
8
BLACK
6
CONTINUOUS
10
5.18245
20
-3.58925
11
5.18588
21
-3.58331
0
LINE
8
BLACK
6
CONTINUOUS
10
5.18588
20
-3.58331
11
5.19059
21
-3.57833
0
LINE
8
BLACK
6
CONTINUOUS
10
5.19059
20
-3.57833
11
5.19412
21
-3.576
0
LINE
8
BLACK
6
CONTINUOUS
10
5.19412
20
-3.576
11
5.19334
21
-3.57561
0
LINE
8
BLACK
6
CONTINUOUS
10
5.19334
20
-3.57561
11
5.18809
21
-3.57121
0
LINE
8
BLACK
6
CONTINUOUS
10
5.18809
20
-3.57121
11
5.184
21
-3.56571
0
LINE
8
BLACK
6
CONTINUOUS
10
5.184
20
-3.56571
11
5.18128
21
-3.55941
0
LINE
8
BLACK
6
CONTINUOUS
10
5.18128
20
-3.55941
11
5.18009
21
-3.55266
0
LINE
8
BLACK
6
CONTINUOUS
10
5.18009
20
-3.55266
11
5.18049
21
-3.54582
0
LINE
8
BLACK
6
CONTINUOUS
10
5.18049
20
-3.54582
11
5.18245
21
-3.53925
0
LINE
8
BLACK
6
CONTINUOUS
10
5.18245
20
-3.53925
11
5.18588
21
-3.53331
0
LINE
8
BLACK
6
CONTINUOUS
10
5.18588
20
-3.53331
11
5.19059
21
-3.52833
0
LINE
8
BLACK
6
CONTINUOUS
10
5.19059
20
-3.52833
11
5.19632
21
-3.52456
0
LINE
8
BLACK
6
CONTINUOUS
10
5.19632
20
-3.52456
11
5.20276
21
-3.52221
0
LINE
8
BLACK
6
CONTINUOUS
10
5.20276
20
-3.52221
11
5.20957
21
-3.52142
0
LINE
8
BLACK
6
CONTINUOUS
10
5.20957
20
-3.52142
11
5.21744
21
-3.52142
0
LINE
8
BLACK
6
CONTINUOUS
10
5.21744
20
-3.52142
11
5.22087
21
-3.52162
0
LINE
8
BLACK
6
CONTINUOUS
10
6.95217
20
-3.52162
11
6.95884
21
-3.5232
0
LINE
8
BLACK
6
CONTINUOUS
10
6.95884
20
-3.5232
11
6.96497
21
-3.52627
0
LINE
8
BLACK
6
CONTINUOUS
10
6.96497
20
-3.52627
11
6.97022
21
-3.53068
0
LINE
8
BLACK
6
CONTINUOUS
10
6.97022
20
-3.53068
11
6.97431
21
-3.53618
0
LINE
8
BLACK
6
CONTINUOUS
10
6.97431
20
-3.53618
11
6.97703
21
-3.54248
0
LINE
8
BLACK
6
CONTINUOUS
10
6.97703
20
-3.54248
11
6.97822
21
-3.54923
0
LINE
8
BLACK
6
CONTINUOUS
10
6.97822
20
-3.54923
11
6.97782
21
-3.55607
0
LINE
8
BLACK
6
CONTINUOUS
10
6.97782
20
-3.55607
11
6.97585
21
-3.56264
0
LINE
8
BLACK
6
CONTINUOUS
10
6.97585
20
-3.56264
11
6.97242
21
-3.56858
0
LINE
8
BLACK
6
CONTINUOUS
10
6.97242
20
-3.56858
11
6.96772
21
-3.57356
0
LINE
8
BLACK
6
CONTINUOUS
10
6.96772
20
-3.57356
11
6.96419
21
-3.57589
0
LINE
8
BLACK
6
CONTINUOUS
10
6.96419
20
-3.57589
11
6.96497
21
-3.57627
0
LINE
8
BLACK
6
CONTINUOUS
10
6.96497
20
-3.57627
11
6.97022
21
-3.58068
0
LINE
8
BLACK
6
CONTINUOUS
10
6.97022
20
-3.58068
11
6.97431
21
-3.58618
0
LINE
8
BLACK
6
CONTINUOUS
10
6.97431
20
-3.58618
11
6.97703
21
-3.59248
0
LINE
8
BLACK
6
CONTINUOUS
10
6.97703
20
-3.59248
11
6.97822
21
-3.59923
0
LINE
8
BLACK
6
CONTINUOUS
10
6.97822
20
-3.59923
11
6.97782
21
-3.60607
0
LINE
8
BLACK
6
CONTINUOUS
10
6.97782
20
-3.60607
11
6.97585
21
-3.61264
0
LINE
8
BLACK
6
CONTINUOUS
10
6.97585
20
-3.61264
11
6.97242
21
-3.61858
0
LINE
8
BLACK
6
CONTINUOUS
10
6.97242
20
-3.61858
11
6.96772
21
-3.62356
0
LINE
8
BLACK
6
CONTINUOUS
10
6.96772
20
-3.62356
11
6.96199
21
-3.62733
0
LINE
8
BLACK
6
CONTINUOUS
10
6.96199
20
-3.62733
11
6.95555
21
-3.62968
0
LINE
8
BLACK
6
CONTINUOUS
10
6.95555
20
-3.62968
11
6.94874
21
-3.63047
0
LINE
8
BLACK
6
CONTINUOUS
10
6.94874
20
-3.63047
11
6.94087
21
-3.63047
0
LINE
8
BLACK
6
CONTINUOUS
10
6.94087
20
-3.63047
11
6.93744
21
-3.63027
0
LINE
8
BLACK
6
CONTINUOUS
10
6.93744
20
-3.63027
11
6.93077
21
-3.62869
0
LINE
8
BLACK
6
CONTINUOUS
10
6.93077
20
-3.62869
11
6.92464
21
-3.62561
0
LINE
8
BLACK
6
CONTINUOUS
10
6.92464
20
-3.62561
11
6.91939
21
-3.62121
0
LINE
8
BLACK
6
CONTINUOUS
10
6.91939
20
-3.62121
11
6.91529
21
-3.61571
0
LINE
8
BLACK
6
CONTINUOUS
10
6.91529
20
-3.61571
11
6.91258
21
-3.60941
0
LINE
8
BLACK
6
CONTINUOUS
10
6.91258
20
-3.60941
11
6.91139
21
-3.60266
0
LINE
8
BLACK
6
CONTINUOUS
10
6.91139
20
-3.60266
11
6.91179
21
-3.59582
0
LINE
8
BLACK
6
CONTINUOUS
10
6.91179
20
-3.59582
11
6.91375
21
-3.58925
0
LINE
8
BLACK
6
CONTINUOUS
10
6.91375
20
-3.58925
11
6.91718
21
-3.58331
0
LINE
8
BLACK
6
CONTINUOUS
10
6.91718
20
-3.58331
11
6.92189
21
-3.57833
0
LINE
8
BLACK
6
CONTINUOUS
10
6.92189
20
-3.57833
11
6.92542
21
-3.576
0
LINE
8
BLACK
6
CONTINUOUS
10
6.92542
20
-3.576
11
6.92464
21
-3.57561
0
LINE
8
BLACK
6
CONTINUOUS
10
6.92464
20
-3.57561
11
6.91939
21
-3.57121
0
LINE
8
BLACK
6
CONTINUOUS
10
6.91939
20
-3.57121
11
6.91529
21
-3.56571
0
LINE
8
BLACK
6
CONTINUOUS
10
6.91529
20
-3.56571
11
6.91258
21
-3.55941
0
LINE
8
BLACK
6
CONTINUOUS
10
6.91258
20
-3.55941
11
6.91139
21
-3.55266
0
LINE
8
BLACK
6
CONTINUOUS
10
6.91139
20
-3.55266
11
6.91179
21
-3.54582
0
LINE
8
BLACK
6
CONTINUOUS
10
6.91179
20
-3.54582
11
6.91375
21
-3.53925
0
LINE
8
BLACK
6
CONTINUOUS
10
6.91375
20
-3.53925
11
6.91718
21
-3.53331
0
LINE
8
BLACK
6
CONTINUOUS
10
6.91718
20
-3.53331
11
6.92189
21
-3.52833
0
LINE
8
BLACK
6
CONTINUOUS
10
6.92189
20
-3.52833
11
6.92761
21
-3.52456
0
LINE
8
BLACK
6
CONTINUOUS
10
6.92761
20
-3.52456
11
6.93406
21
-3.52221
0
LINE
8
BLACK
6
CONTINUOUS
10
6.93406
20
-3.52221
11
6.94087
21
-3.52142
0
LINE
8
BLACK
6
CONTINUOUS
10
6.94087
20
-3.52142
11
6.94874
21
-3.52142
0
LINE
8
BLACK
6
CONTINUOUS
10
6.94874
20
-3.52142
11
6.95217
21
-3.52162
0
LINE
8
BLACK
6
CONTINUOUS
10
5.54196
20
-3.51723
11
5.54694
21
-3.51897
0
LINE
8
BLACK
6
CONTINUOUS
10
5.54694
20
-3.51897
11
5.55119
21
-3.52211
0
LINE
8
BLACK
6
CONTINUOUS
10
5.55119
20
-3.52211
11
5.55433
21
-3.52636
0
LINE
8
BLACK
6
CONTINUOUS
10
5.55433
20
-3.52636
11
5.55607
21
-3.53134
0
LINE
8
BLACK
6
CONTINUOUS
10
5.55607
20
-3.53134
11
5.55638
21
-3.53464
0
LINE
8
BLACK
6
CONTINUOUS
10
5.55638
20
-3.53464
11
5.55638
21
-3.57204
0
LINE
8
BLACK
6
CONTINUOUS
10
5.55638
20
-3.57204
11
5.55607
21
-3.57533
0
LINE
8
BLACK
6
CONTINUOUS
10
5.55607
20
-3.57533
11
5.55433
21
-3.58032
0
LINE
8
BLACK
6
CONTINUOUS
10
5.55433
20
-3.58032
11
5.55119
21
-3.58457
0
LINE
8
BLACK
6
CONTINUOUS
10
5.55119
20
-3.58457
11
5.54694
21
-3.5877
0
LINE
8
BLACK
6
CONTINUOUS
10
5.54694
20
-3.5877
11
5.54196
21
-3.58945
0
LINE
8
BLACK
6
CONTINUOUS
10
5.54196
20
-3.58945
11
5.53867
21
-3.58976
0
LINE
8
BLACK
6
CONTINUOUS
10
5.53867
20
-3.58976
11
5.51898
21
-3.58976
0
LINE
8
BLACK
6
CONTINUOUS
10
5.51898
20
-3.58976
11
5.51569
21
-3.58945
0
LINE
8
BLACK
6
CONTINUOUS
10
5.51569
20
-3.58945
11
5.5107
21
-3.5877
0
LINE
8
BLACK
6
CONTINUOUS
10
5.5107
20
-3.5877
11
5.50645
21
-3.58457
0
LINE
8
BLACK
6
CONTINUOUS
10
5.50645
20
-3.58457
11
5.50332
21
-3.58032
0
LINE
8
BLACK
6
CONTINUOUS
10
5.50332
20
-3.58032
11
5.50157
21
-3.57533
0
LINE
8
BLACK
6
CONTINUOUS
10
5.50157
20
-3.57533
11
5.50126
21
-3.57204
0
LINE
8
BLACK
6
CONTINUOUS
10
5.50126
20
-3.57204
11
5.50126
21
-3.53464
0
LINE
8
BLACK
6
CONTINUOUS
10
5.50126
20
-3.53464
11
5.50157
21
-3.53134
0
LINE
8
BLACK
6
CONTINUOUS
10
5.50157
20
-3.53134
11
5.50332
21
-3.52636
0
LINE
8
BLACK
6
CONTINUOUS
10
5.50332
20
-3.52636
11
5.50645
21
-3.52211
0
LINE
8
BLACK
6
CONTINUOUS
10
5.50645
20
-3.52211
11
5.5107
21
-3.51897
0
LINE
8
BLACK
6
CONTINUOUS
10
5.5107
20
-3.51897
11
5.51569
21
-3.51723
0
LINE
8
BLACK
6
CONTINUOUS
10
5.51569
20
-3.51723
11
5.51898
21
-3.51692
0
LINE
8
BLACK
6
CONTINUOUS
10
5.51898
20
-3.51692
11
5.53867
21
-3.51692
0
LINE
8
BLACK
6
CONTINUOUS
10
5.53867
20
-3.51692
11
5.54196
21
-3.51723
0
LINE
8
BLACK
6
CONTINUOUS
10
5.61676
20
-3.51723
11
5.62175
21
-3.51897
0
LINE
8
BLACK
6
CONTINUOUS
10
5.62175
20
-3.51897
11
5.626
21
-3.52211
0
LINE
8
BLACK
6
CONTINUOUS
10
5.626
20
-3.52211
11
5.62913
21
-3.52636
0
LINE
8
BLACK
6
CONTINUOUS
10
5.62913
20
-3.52636
11
5.63088
21
-3.53134
0
LINE
8
BLACK
6
CONTINUOUS
10
5.63088
20
-3.53134
11
5.63119
21
-3.53464
0
LINE
8
BLACK
6
CONTINUOUS
10
5.63119
20
-3.53464
11
5.63119
21
-3.57204
0
LINE
8
BLACK
6
CONTINUOUS
10
5.63119
20
-3.57204
11
5.63088
21
-3.57533
0
LINE
8
BLACK
6
CONTINUOUS
10
5.63088
20
-3.57533
11
5.62913
21
-3.58032
0
LINE
8
BLACK
6
CONTINUOUS
10
5.62913
20
-3.58032
11
5.626
21
-3.58457
0
LINE
8
BLACK
6
CONTINUOUS
10
5.626
20
-3.58457
11
5.62175
21
-3.5877
0
LINE
8
BLACK
6
CONTINUOUS
10
5.62175
20
-3.5877
11
5.61676
21
-3.58945
0
LINE
8
BLACK
6
CONTINUOUS
10
5.61676
20
-3.58945
11
5.61347
21
-3.58976
0
LINE
8
BLACK
6
CONTINUOUS
10
5.61347
20
-3.58976
11
5.59378
21
-3.58976
0
LINE
8
BLACK
6
CONTINUOUS
10
5.59378
20
-3.58976
11
5.59049
21
-3.58945
0
LINE
8
BLACK
6
CONTINUOUS
10
5.59049
20
-3.58945
11
5.58551
21
-3.5877
0
LINE
8
BLACK
6
CONTINUOUS
10
5.58551
20
-3.5877
11
5.58126
21
-3.58457
0
LINE
8
BLACK
6
CONTINUOUS
10
5.58126
20
-3.58457
11
5.57812
21
-3.58032
0
LINE
8
BLACK
6
CONTINUOUS
10
5.57812
20
-3.58032
11
5.57638
21
-3.57533
0
LINE
8
BLACK
6
CONTINUOUS
10
5.57638
20
-3.57533
11
5.57607
21
-3.57204
0
LINE
8
BLACK
6
CONTINUOUS
10
5.57607
20
-3.57204
11
5.57607
21
-3.53464
0
LINE
8
BLACK
6
CONTINUOUS
10
5.57607
20
-3.53464
11
5.57638
21
-3.53134
0
LINE
8
BLACK
6
CONTINUOUS
10
5.57638
20
-3.53134
11
5.57812
21
-3.52636
0
LINE
8
BLACK
6
CONTINUOUS
10
5.57812
20
-3.52636
11
5.58126
21
-3.52211
0
LINE
8
BLACK
6
CONTINUOUS
10
5.58126
20
-3.52211
11
5.58551
21
-3.51897
0
LINE
8
BLACK
6
CONTINUOUS
10
5.58551
20
-3.51897
11
5.59049
21
-3.51723
0
LINE
8
BLACK
6
CONTINUOUS
10
5.59049
20
-3.51723
11
5.59378
21
-3.51692
0
LINE
8
BLACK
6
CONTINUOUS
10
5.59378
20
-3.51692
11
5.61347
21
-3.51692
0
LINE
8
BLACK
6
CONTINUOUS
10
5.61347
20
-3.51692
11
5.61676
21
-3.51723
0
LINE
8
BLACK
6
CONTINUOUS
10
6.47394
20
-3.5159
11
6.47892
21
-3.51764
0
LINE
8
BLACK
6
CONTINUOUS
10
6.47892
20
-3.51764
11
6.48317
21
-3.52078
0
LINE
8
BLACK
6
CONTINUOUS
10
6.48317
20
-3.52078
11
6.48631
21
-3.52503
0
LINE
8
BLACK
6
CONTINUOUS
10
6.48631
20
-3.52503
11
6.48805
21
-3.53001
0
LINE
8
BLACK
6
CONTINUOUS
10
6.48805
20
-3.53001
11
6.48836
21
-3.53331
0
LINE
8
BLACK
6
CONTINUOUS
10
6.48836
20
-3.53331
11
6.48836
21
-3.57071
0
LINE
8
BLACK
6
CONTINUOUS
10
6.48836
20
-3.57071
11
6.48805
21
-3.574
0
LINE
8
BLACK
6
CONTINUOUS
10
6.48805
20
-3.574
11
6.48631
21
-3.57899
0
LINE
8
BLACK
6
CONTINUOUS
10
6.48631
20
-3.57899
11
6.48317
21
-3.58324
0
LINE
8
BLACK
6
CONTINUOUS
10
6.48317
20
-3.58324
11
6.47892
21
-3.58637
0
LINE
8
BLACK
6
CONTINUOUS
10
6.47892
20
-3.58637
11
6.47394
21
-3.58812
0
LINE
8
BLACK
6
CONTINUOUS
10
6.47394
20
-3.58812
11
6.47065
21
-3.58843
0
LINE
8
BLACK
6
CONTINUOUS
10
6.47065
20
-3.58843
11
6.45096
21
-3.58843
0
LINE
8
BLACK
6
CONTINUOUS
10
6.45096
20
-3.58843
11
6.44767
21
-3.58812
0
LINE
8
BLACK
6
CONTINUOUS
10
6.44767
20
-3.58812
11
6.44268
21
-3.58637
0
LINE
8
BLACK
6
CONTINUOUS
10
6.44268
20
-3.58637
11
6.43843
21
-3.58324
0
LINE
8
BLACK
6
CONTINUOUS
10
6.43843
20
-3.58324
11
6.4353
21
-3.57899
0
LINE
8
BLACK
6
CONTINUOUS
10
6.4353
20
-3.57899
11
6.43355
21
-3.574
0
LINE
8
BLACK
6
CONTINUOUS
10
6.43355
20
-3.574
11
6.43324
21
-3.57071
0
LINE
8
BLACK
6
CONTINUOUS
10
6.43324
20
-3.57071
11
6.43324
21
-3.53331
0
LINE
8
BLACK
6
CONTINUOUS
10
6.43324
20
-3.53331
11
6.43355
21
-3.53001
0
LINE
8
BLACK
6
CONTINUOUS
10
6.43355
20
-3.53001
11
6.4353
21
-3.52503
0
LINE
8
BLACK
6
CONTINUOUS
10
6.4353
20
-3.52503
11
6.43843
21
-3.52078
0
LINE
8
BLACK
6
CONTINUOUS
10
6.43843
20
-3.52078
11
6.44268
21
-3.51764
0
LINE
8
BLACK
6
CONTINUOUS
10
6.44268
20
-3.51764
11
6.44767
21
-3.5159
0
LINE
8
BLACK
6
CONTINUOUS
10
6.44767
20
-3.5159
11
6.45096
21
-3.51559
0
LINE
8
BLACK
6
CONTINUOUS
10
6.45096
20
-3.51559
11
6.47065
21
-3.51559
0
LINE
8
BLACK
6
CONTINUOUS
10
6.47065
20
-3.51559
11
6.47394
21
-3.5159
0
LINE
8
BLACK
6
CONTINUOUS
10
6.54874
20
-3.5159
11
6.55373
21
-3.51764
0
LINE
8
BLACK
6
CONTINUOUS
10
6.55373
20
-3.51764
11
6.55798
21
-3.52078
0
LINE
8
BLACK
6
CONTINUOUS
10
6.55798
20
-3.52078
11
6.56111
21
-3.52503
0
LINE
8
BLACK
6
CONTINUOUS
10
6.56111
20
-3.52503
11
6.56286
21
-3.53001
0
LINE
8
BLACK
6
CONTINUOUS
10
6.56286
20
-3.53001
11
6.56317
21
-3.53331
0
LINE
8
BLACK
6
CONTINUOUS
10
6.56317
20
-3.53331
11
6.56317
21
-3.57071
0
LINE
8
BLACK
6
CONTINUOUS
10
6.56317
20
-3.57071
11
6.56286
21
-3.574
0
LINE
8
BLACK
6
CONTINUOUS
10
6.56286
20
-3.574
11
6.56111
21
-3.57899
0
LINE
8
BLACK
6
CONTINUOUS
10
6.56111
20
-3.57899
11
6.55798
21
-3.58324
0
LINE
8
BLACK
6
CONTINUOUS
10
6.55798
20
-3.58324
11
6.55373
21
-3.58637
0
LINE
8
BLACK
6
CONTINUOUS
10
6.55373
20
-3.58637
11
6.54874
21
-3.58812
0
LINE
8
BLACK
6
CONTINUOUS
10
6.54874
20
-3.58812
11
6.54545
21
-3.58843
0
LINE
8
BLACK
6
CONTINUOUS
10
6.54545
20
-3.58843
11
6.52576
21
-3.58843
0
LINE
8
BLACK
6
CONTINUOUS
10
6.52576
20
-3.58843
11
6.52247
21
-3.58812
0
LINE
8
BLACK
6
CONTINUOUS
10
6.52247
20
-3.58812
11
6.51749
21
-3.58637
0
LINE
8
BLACK
6
CONTINUOUS
10
6.51749
20
-3.58637
11
6.51324
21
-3.58324
0
LINE
8
BLACK
6
CONTINUOUS
10
6.51324
20
-3.58324
11
6.5101
21
-3.57899
0
LINE
8
BLACK
6
CONTINUOUS
10
6.5101
20
-3.57899
11
6.50836
21
-3.574
0
LINE
8
BLACK
6
CONTINUOUS
10
6.50836
20
-3.574
11
6.50805
21
-3.57071
0
LINE
8
BLACK
6
CONTINUOUS
10
6.50805
20
-3.57071
11
6.50805
21
-3.53331
0
LINE
8
BLACK
6
CONTINUOUS
10
6.50805
20
-3.53331
11
6.50836
21
-3.53001
0
LINE
8
BLACK
6
CONTINUOUS
10
6.50836
20
-3.53001
11
6.5101
21
-3.52503
0
LINE
8
BLACK
6
CONTINUOUS
10
6.5101
20
-3.52503
11
6.51324
21
-3.52078
0
LINE
8
BLACK
6
CONTINUOUS
10
6.51324
20
-3.52078
11
6.51749
21
-3.51764
0
LINE
8
BLACK
6
CONTINUOUS
10
6.51749
20
-3.51764
11
6.52247
21
-3.5159
0
LINE
8
BLACK
6
CONTINUOUS
10
6.52247
20
-3.5159
11
6.52576
21
-3.51559
0
LINE
8
BLACK
6
CONTINUOUS
10
6.52576
20
-3.51559
11
6.54545
21
-3.51559
0
LINE
8
BLACK
6
CONTINUOUS
10
6.54545
20
-3.51559
11
6.54874
21
-3.5159
0
LINE
8
BLACK
6
CONTINUOUS
10
5.68593
20
-3.51865
11
5.69053
21
-3.52099
0
LINE
8
BLACK
6
CONTINUOUS
10
5.69053
20
-3.52099
11
5.69417
21
-3.52464
0
LINE
8
BLACK
6
CONTINUOUS
10
5.69417
20
-3.52464
11
5.69652
21
-3.52923
0
LINE
8
BLACK
6
CONTINUOUS
10
5.69652
20
-3.52923
11
5.69732
21
-3.53433
0
LINE
8
BLACK
6
CONTINUOUS
10
5.69732
20
-3.53433
11
5.69732
21
-3.56435
0
LINE
8
BLACK
6
CONTINUOUS
10
5.69732
20
-3.56435
11
5.69652
21
-3.56944
0
LINE
8
BLACK
6
CONTINUOUS
10
5.69652
20
-3.56944
11
5.69417
21
-3.57404
0
LINE
8
BLACK
6
CONTINUOUS
10
5.69417
20
-3.57404
11
5.69053
21
-3.57769
0
LINE
8
BLACK
6
CONTINUOUS
10
5.69053
20
-3.57769
11
5.68593
21
-3.58003
0
LINE
8
BLACK
6
CONTINUOUS
10
5.68593
20
-3.58003
11
5.68084
21
-3.58083
0
LINE
8
BLACK
6
CONTINUOUS
10
5.68084
20
-3.58083
11
5.66361
21
-3.58083
0
LINE
8
BLACK
6
CONTINUOUS
10
5.66361
20
-3.58083
11
5.65852
21
-3.58003
0
LINE
8
BLACK
6
CONTINUOUS
10
5.65852
20
-3.58003
11
5.65392
21
-3.57769
0
LINE
8
BLACK
6
CONTINUOUS
10
5.65392
20
-3.57769
11
5.65027
21
-3.57404
0
LINE
8
BLACK
6
CONTINUOUS
10
5.65027
20
-3.57404
11
5.64793
21
-3.56944
0
LINE
8
BLACK
6
CONTINUOUS
10
5.64793
20
-3.56944
11
5.64713
21
-3.56435
0
LINE
8
BLACK
6
CONTINUOUS
10
5.64713
20
-3.56435
11
5.64713
21
-3.53433
0
LINE
8
BLACK
6
CONTINUOUS
10
5.64713
20
-3.53433
11
5.64793
21
-3.52923
0
LINE
8
BLACK
6
CONTINUOUS
10
5.64793
20
-3.52923
11
5.65027
21
-3.52464
0
LINE
8
BLACK
6
CONTINUOUS
10
5.65027
20
-3.52464
11
5.65392
21
-3.52099
0
LINE
8
BLACK
6
CONTINUOUS
10
5.65392
20
-3.52099
11
5.65852
21
-3.51865
0
LINE
8
BLACK
6
CONTINUOUS
10
5.65852
20
-3.51865
11
5.66361
21
-3.51784
0
LINE
8
BLACK
6
CONTINUOUS
10
5.66361
20
-3.51784
11
5.68084
21
-3.51784
0
LINE
8
BLACK
6
CONTINUOUS
10
5.68084
20
-3.51784
11
5.68593
21
-3.51865
0
LINE
8
BLACK
6
CONTINUOUS
10
5.76959
20
-3.51865
11
5.77419
21
-3.52099
0
LINE
8
BLACK
6
CONTINUOUS
10
5.77419
20
-3.52099
11
5.77784
21
-3.52464
0
LINE
8
BLACK
6
CONTINUOUS
10
5.77784
20
-3.52464
11
5.78018
21
-3.52923
0
LINE
8
BLACK
6
CONTINUOUS
10
5.78018
20
-3.52923
11
5.78098
21
-3.53433
0
LINE
8
BLACK
6
CONTINUOUS
10
5.78098
20
-3.53433
11
5.78098
21
-3.56435
0
LINE
8
BLACK
6
CONTINUOUS
10
5.78098
20
-3.56435
11
5.78018
21
-3.56944
0
LINE
8
BLACK
6
CONTINUOUS
10
5.78018
20
-3.56944
11
5.77784
21
-3.57404
0
LINE
8
BLACK
6
CONTINUOUS
10
5.77784
20
-3.57404
11
5.77419
21
-3.57769
0
LINE
8
BLACK
6
CONTINUOUS
10
5.77419
20
-3.57769
11
5.76959
21
-3.58003
0
LINE
8
BLACK
6
CONTINUOUS
10
5.76959
20
-3.58003
11
5.7645
21
-3.58083
0
LINE
8
BLACK
6
CONTINUOUS
10
5.7645
20
-3.58083
11
5.74727
21
-3.58083
0
LINE
8
BLACK
6
CONTINUOUS
10
5.74727
20
-3.58083
11
5.74218
21
-3.58003
0
LINE
8
BLACK
6
CONTINUOUS
10
5.74218
20
-3.58003
11
5.73758
21
-3.57769
0
LINE
8
BLACK
6
CONTINUOUS
10
5.73758
20
-3.57769
11
5.73394
21
-3.57404
0
LINE
8
BLACK
6
CONTINUOUS
10
5.73394
20
-3.57404
11
5.73159
21
-3.56944
0
LINE
8
BLACK
6
CONTINUOUS
10
5.73159
20
-3.56944
11
5.73079
21
-3.56435
0
LINE
8
BLACK
6
CONTINUOUS
10
5.73079
20
-3.56435
11
5.73079
21
-3.53433
0
LINE
8
BLACK
6
CONTINUOUS
10
5.73079
20
-3.53433
11
5.73159
21
-3.52923
0
LINE
8
BLACK
6
CONTINUOUS
10
5.73159
20
-3.52923
11
5.73394
21
-3.52464
0
LINE
8
BLACK
6
CONTINUOUS
10
5.73394
20
-3.52464
11
5.73758
21
-3.52099
0
LINE
8
BLACK
6
CONTINUOUS
10
5.73758
20
-3.52099
11
5.74218
21
-3.51865
0
LINE
8
BLACK
6
CONTINUOUS
10
5.74218
20
-3.51865
11
5.74727
21
-3.51784
0
LINE
8
BLACK
6
CONTINUOUS
10
5.74727
20
-3.51784
11
5.7645
21
-3.51784
0
LINE
8
BLACK
6
CONTINUOUS
10
5.7645
20
-3.51784
11
5.76959
21
-3.51865
0
LINE
8
BLACK
6
CONTINUOUS
10
6.32408
20
-3.51732
11
6.32868
21
-3.51966
0
LINE
8
BLACK
6
CONTINUOUS
10
6.32868
20
-3.51966
11
6.33232
21
-3.52331
0
LINE
8
BLACK
6
CONTINUOUS
10
6.33232
20
-3.52331
11
6.33467
21
-3.5279
0
LINE
8
BLACK
6
CONTINUOUS
10
6.33467
20
-3.5279
11
6.33547
21
-3.533
0
LINE
8
BLACK
6
CONTINUOUS
10
6.33547
20
-3.533
11
6.33547
21
-3.56302
0
LINE
8
BLACK
6
CONTINUOUS
10
6.33547
20
-3.56302
11
6.33467
21
-3.56811
0
LINE
8
BLACK
6
CONTINUOUS
10
6.33467
20
-3.56811
11
6.33232
21
-3.57271
0
LINE
8
BLACK
6
CONTINUOUS
10
6.33232
20
-3.57271
11
6.32868
21
-3.57636
0
LINE
8
BLACK
6
CONTINUOUS
10
6.32868
20
-3.57636
11
6.32408
21
-3.5787
0
LINE
8
BLACK
6
CONTINUOUS
10
6.32408
20
-3.5787
11
6.31899
21
-3.5795
0
LINE
8
BLACK
6
CONTINUOUS
10
6.31899
20
-3.5795
11
6.30176
21
-3.5795
0
LINE
8
BLACK
6
CONTINUOUS
10
6.30176
20
-3.5795
11
6.29667
21
-3.5787
0
LINE
8
BLACK
6
CONTINUOUS
10
6.29667
20
-3.5787
11
6.29207
21
-3.57636
0
LINE
8
BLACK
6
CONTINUOUS
10
6.29207
20
-3.57636
11
6.28842
21
-3.57271
0
LINE
8
BLACK
6
CONTINUOUS
10
6.28842
20
-3.57271
11
6.28608
21
-3.56811
0
LINE
8
BLACK
6
CONTINUOUS
10
6.28608
20
-3.56811
11
6.28528
21
-3.56302
0
LINE
8
BLACK
6
CONTINUOUS
10
6.28528
20
-3.56302
11
6.28528
21
-3.533
0
LINE
8
BLACK
6
CONTINUOUS
10
6.28528
20
-3.533
11
6.28608
21
-3.5279
0
LINE
8
BLACK
6
CONTINUOUS
10
6.28608
20
-3.5279
11
6.28842
21
-3.52331
0
LINE
8
BLACK
6
CONTINUOUS
10
6.28842
20
-3.52331
11
6.29207
21
-3.51966
0
LINE
8
BLACK
6
CONTINUOUS
10
6.29207
20
-3.51966
11
6.29667
21
-3.51732
0
LINE
8
BLACK
6
CONTINUOUS
10
6.29667
20
-3.51732
11
6.30176
21
-3.51651
0
LINE
8
BLACK
6
CONTINUOUS
10
6.30176
20
-3.51651
11
6.31899
21
-3.51651
0
LINE
8
BLACK
6
CONTINUOUS
10
6.31899
20
-3.51651
11
6.32408
21
-3.51732
0
LINE
8
BLACK
6
CONTINUOUS
10
6.40774
20
-3.51732
11
6.41234
21
-3.51966
0
LINE
8
BLACK
6
CONTINUOUS
10
6.41234
20
-3.51966
11
6.41599
21
-3.52331
0
LINE
8
BLACK
6
CONTINUOUS
10
6.41599
20
-3.52331
11
6.41833
21
-3.5279
0
LINE
8
BLACK
6
CONTINUOUS
10
6.41833
20
-3.5279
11
6.41913
21
-3.533
0
LINE
8
BLACK
6
CONTINUOUS
10
6.41913
20
-3.533
11
6.41913
21
-3.56302
0
LINE
8
BLACK
6
CONTINUOUS
10
6.41913
20
-3.56302
11
6.41833
21
-3.56811
0
LINE
8
BLACK
6
CONTINUOUS
10
6.41833
20
-3.56811
11
6.41599
21
-3.57271
0
LINE
8
BLACK
6
CONTINUOUS
10
6.41599
20
-3.57271
11
6.41234
21
-3.57636
0
LINE
8
BLACK
6
CONTINUOUS
10
6.41234
20
-3.57636
11
6.40774
21
-3.5787
0
LINE
8
BLACK
6
CONTINUOUS
10
6.40774
20
-3.5787
11
6.40265
21
-3.5795
0
LINE
8
BLACK
6
CONTINUOUS
10
6.40265
20
-3.5795
11
6.38542
21
-3.5795
0
LINE
8
BLACK
6
CONTINUOUS
10
6.38542
20
-3.5795
11
6.38033
21
-3.5787
0
LINE
8
BLACK
6
CONTINUOUS
10
6.38033
20
-3.5787
11
6.37573
21
-3.57636
0
LINE
8
BLACK
6
CONTINUOUS
10
6.37573
20
-3.57636
11
6.37209
21
-3.57271
0
LINE
8
BLACK
6
CONTINUOUS
10
6.37209
20
-3.57271
11
6.36974
21
-3.56811
0
LINE
8
BLACK
6
CONTINUOUS
10
6.36974
20
-3.56811
11
6.36894
21
-3.56302
0
LINE
8
BLACK
6
CONTINUOUS
10
6.36894
20
-3.56302
11
6.36894
21
-3.533
0
LINE
8
BLACK
6
CONTINUOUS
10
6.36894
20
-3.533
11
6.36974
21
-3.5279
0
LINE
8
BLACK
6
CONTINUOUS
10
6.36974
20
-3.5279
11
6.37209
21
-3.52331
0
LINE
8
BLACK
6
CONTINUOUS
10
6.37209
20
-3.52331
11
6.37573
21
-3.51966
0
LINE
8
BLACK
6
CONTINUOUS
10
6.37573
20
-3.51966
11
6.38033
21
-3.51732
0
LINE
8
BLACK
6
CONTINUOUS
10
6.38033
20
-3.51732
11
6.38542
21
-3.51651
0
LINE
8
BLACK
6
CONTINUOUS
10
6.38542
20
-3.51651
11
6.40265
21
-3.51651
0
LINE
8
BLACK
6
CONTINUOUS
10
6.40265
20
-3.51651
11
6.40774
21
-3.51732
0
LINE
8
BLACK
6
CONTINUOUS
10
6.26031
20
-3.52555
11
6.2649
21
-3.52789
0
LINE
8
BLACK
6
CONTINUOUS
10
6.2649
20
-3.52789
11
6.26855
21
-3.53154
0
LINE
8
BLACK
6
CONTINUOUS
10
6.26855
20
-3.53154
11
6.27089
21
-3.53613
0
LINE
8
BLACK
6
CONTINUOUS
10
6.27089
20
-3.53613
11
6.2717
21
-3.54123
0
LINE
8
BLACK
6
CONTINUOUS
10
6.2717
20
-3.54123
11
6.2717
21
-3.55845
0
LINE
8
BLACK
6
CONTINUOUS
10
6.2717
20
-3.55845
11
6.27089
21
-3.56355
0
LINE
8
BLACK
6
CONTINUOUS
10
6.27089
20
-3.56355
11
6.26855
21
-3.56814
0
LINE
8
BLACK
6
CONTINUOUS
10
6.26855
20
-3.56814
11
6.2649
21
-3.57179
0
LINE
8
BLACK
6
CONTINUOUS
10
6.2649
20
-3.57179
11
6.26031
21
-3.57413
0
LINE
8
BLACK
6
CONTINUOUS
10
6.26031
20
-3.57413
11
6.25521
21
-3.57494
0
LINE
8
BLACK
6
CONTINUOUS
10
6.25521
20
-3.57494
11
6.22519
21
-3.57494
0
LINE
8
BLACK
6
CONTINUOUS
10
6.22519
20
-3.57494
11
6.2201
21
-3.57413
0
LINE
8
BLACK
6
CONTINUOUS
10
6.2201
20
-3.57413
11
6.2155
21
-3.57179
0
LINE
8
BLACK
6
CONTINUOUS
10
6.2155
20
-3.57179
11
6.21186
21
-3.56814
0
LINE
8
BLACK
6
CONTINUOUS
10
6.21186
20
-3.56814
11
6.20952
21
-3.56355
0
LINE
8
BLACK
6
CONTINUOUS
10
6.20952
20
-3.56355
11
6.20871
21
-3.55845
0
LINE
8
BLACK
6
CONTINUOUS
10
6.20871
20
-3.55845
11
6.20871
21
-3.54123
0
LINE
8
BLACK
6
CONTINUOUS
10
6.20871
20
-3.54123
11
6.20952
21
-3.53613
0
LINE
8
BLACK
6
CONTINUOUS
10
6.20952
20
-3.53613
11
6.21186
21
-3.53154
0
LINE
8
BLACK
6
CONTINUOUS
10
6.21186
20
-3.53154
11
6.2155
21
-3.52789
0
LINE
8
BLACK
6
CONTINUOUS
10
6.2155
20
-3.52789
11
6.2201
21
-3.52555
0
LINE
8
BLACK
6
CONTINUOUS
10
6.2201
20
-3.52555
11
6.22519
21
-3.52474
0
LINE
8
BLACK
6
CONTINUOUS
10
6.22519
20
-3.52474
11
6.25521
21
-3.52474
0
LINE
8
BLACK
6
CONTINUOUS
10
6.25521
20
-3.52474
11
6.26031
21
-3.52555
0
LINE
8
BLACK
6
CONTINUOUS
10
6.09631
20
-3.52472
11
6.1009
21
-3.52706
0
LINE
8
BLACK
6
CONTINUOUS
10
6.1009
20
-3.52706
11
6.10455
21
-3.53071
0
LINE
8
BLACK
6
CONTINUOUS
10
6.10455
20
-3.53071
11
6.10689
21
-3.5353
0
LINE
8
BLACK
6
CONTINUOUS
10
6.10689
20
-3.5353
11
6.1077
21
-3.5404
0
LINE
8
BLACK
6
CONTINUOUS
10
6.1077
20
-3.5404
11
6.1077
21
-3.55762
0
LINE
8
BLACK
6
CONTINUOUS
10
6.1077
20
-3.55762
11
6.10689
21
-3.56271
0
LINE
8
BLACK
6
CONTINUOUS
10
6.10689
20
-3.56271
11
6.10455
21
-3.56731
0
LINE
8
BLACK
6
CONTINUOUS
10
6.10455
20
-3.56731
11
6.1009
21
-3.57096
0
LINE
8
BLACK
6
CONTINUOUS
10
6.1009
20
-3.57096
11
6.09631
21
-3.5733
0
LINE
8
BLACK
6
CONTINUOUS
10
6.09631
20
-3.5733
11
6.09121
21
-3.57411
0
LINE
8
BLACK
6
CONTINUOUS
10
6.09121
20
-3.57411
11
6.06119
21
-3.57411
0
LINE
8
BLACK
6
CONTINUOUS
10
6.06119
20
-3.57411
11
6.0561
21
-3.5733
0
LINE
8
BLACK
6
CONTINUOUS
10
6.0561
20
-3.5733
11
6.0515
21
-3.57096
0
LINE
8
BLACK
6
CONTINUOUS
10
6.0515
20
-3.57096
11
6.04786
21
-3.56731
0
LINE
8
BLACK
6
CONTINUOUS
10
6.04786
20
-3.56731
11
6.04552
21
-3.56271
0
LINE
8
BLACK
6
CONTINUOUS
10
6.04552
20
-3.56271
11
6.04471
21
-3.55762
0
LINE
8
BLACK
6
CONTINUOUS
10
6.04471
20
-3.55762
11
6.04471
21
-3.5404
0
LINE
8
BLACK
6
CONTINUOUS
10
6.04471
20
-3.5404
11
6.04552
21
-3.5353
0
LINE
8
BLACK
6
CONTINUOUS
10
6.04552
20
-3.5353
11
6.04786
21
-3.53071
0
LINE
8
BLACK
6
CONTINUOUS
10
6.04786
20
-3.53071
11
6.0515
21
-3.52706
0
LINE
8
BLACK
6
CONTINUOUS
10
6.0515
20
-3.52706
11
6.0561
21
-3.52472
0
LINE
8
BLACK
6
CONTINUOUS
10
6.0561
20
-3.52472
11
6.06119
21
-3.52391
0
LINE
8
BLACK
6
CONTINUOUS
10
6.06119
20
-3.52391
11
6.09121
21
-3.52391
0
LINE
8
BLACK
6
CONTINUOUS
10
6.09121
20
-3.52391
11
6.09631
21
-3.52472
0
LINE
8
BLACK
6
CONTINUOUS
10
5.93131
20
-3.52455
11
5.9359
21
-3.52689
0
LINE
8
BLACK
6
CONTINUOUS
10
5.9359
20
-3.52689
11
5.93955
21
-3.53054
0
LINE
8
BLACK
6
CONTINUOUS
10
5.93955
20
-3.53054
11
5.94189
21
-3.53513
0
LINE
8
BLACK
6
CONTINUOUS
10
5.94189
20
-3.53513
11
5.9427
21
-3.54023
0
LINE
8
BLACK
6
CONTINUOUS
10
5.9427
20
-3.54023
11
5.9427
21
-3.55745
0
LINE
8
BLACK
6
CONTINUOUS
10
5.9427
20
-3.55745
11
5.94189
21
-3.56255
0
LINE
8
BLACK
6
CONTINUOUS
10
5.94189
20
-3.56255
11
5.93955
21
-3.56714
0
LINE
8
BLACK
6
CONTINUOUS
10
5.93955
20
-3.56714
11
5.9359
21
-3.57079
0
LINE
8
BLACK
6
CONTINUOUS
10
5.9359
20
-3.57079
11
5.93131
21
-3.57313
0
LINE
8
BLACK
6
CONTINUOUS
10
5.93131
20
-3.57313
11
5.92621
21
-3.57394
0
LINE
8
BLACK
6
CONTINUOUS
10
5.92621
20
-3.57394
11
5.89619
21
-3.57394
0
LINE
8
BLACK
6
CONTINUOUS
10
5.89619
20
-3.57394
11
5.8911
21
-3.57313
0
LINE
8
BLACK
6
CONTINUOUS
10
5.8911
20
-3.57313
11
5.8865
21
-3.57079
0
LINE
8
BLACK
6
CONTINUOUS
10
5.8865
20
-3.57079
11
5.88286
21
-3.56714
0
LINE
8
BLACK
6
CONTINUOUS
10
5.88286
20
-3.56714
11
5.88052
21
-3.56255
0
LINE
8
BLACK
6
CONTINUOUS
10
5.88052
20
-3.56255
11
5.87971
21
-3.55745
0
LINE
8
BLACK
6
CONTINUOUS
10
5.87971
20
-3.55745
11
5.87971
21
-3.54023
0
LINE
8
BLACK
6
CONTINUOUS
10
5.87971
20
-3.54023
11
5.88052
21
-3.53513
0
LINE
8
BLACK
6
CONTINUOUS
10
5.88052
20
-3.53513
11
5.88286
21
-3.53054
0
LINE
8
BLACK
6
CONTINUOUS
10
5.88286
20
-3.53054
11
5.8865
21
-3.52689
0
LINE
8
BLACK
6
CONTINUOUS
10
5.8865
20
-3.52689
11
5.8911
21
-3.52455
0
LINE
8
BLACK
6
CONTINUOUS
10
5.8911
20
-3.52455
11
5.89619
21
-3.52374
0
LINE
8
BLACK
6
CONTINUOUS
10
5.89619
20
-3.52374
11
5.92621
21
-3.52374
0
LINE
8
BLACK
6
CONTINUOUS
10
5.92621
20
-3.52374
11
5.93131
21
-3.52455
0
LINE
8
BLACK
6
CONTINUOUS
10
6.1822
20
-3.51816
11
6.18718
21
-3.5199
0
LINE
8
BLACK
6
CONTINUOUS
10
6.18718
20
-3.5199
11
6.19143
21
-3.52304
0
LINE
8
BLACK
6
CONTINUOUS
10
6.19143
20
-3.52304
11
6.19457
21
-3.52729
0
LINE
8
BLACK
6
CONTINUOUS
10
6.19457
20
-3.52729
11
6.19631
21
-3.53227
0
LINE
8
BLACK
6
CONTINUOUS
10
6.19631
20
-3.53227
11
6.19662
21
-3.53557
0
LINE
8
BLACK
6
CONTINUOUS
10
6.19662
20
-3.53557
11
6.19662
21
-3.55525
0
LINE
8
BLACK
6
CONTINUOUS
10
6.19662
20
-3.55525
11
6.19631
21
-3.55855
0
LINE
8
BLACK
6
CONTINUOUS
10
6.19631
20
-3.55855
11
6.19457
21
-3.56353
0
LINE
8
BLACK
6
CONTINUOUS
10
6.19457
20
-3.56353
11
6.19143
21
-3.56778
0
LINE
8
BLACK
6
CONTINUOUS
10
6.19143
20
-3.56778
11
6.18718
21
-3.57092
0
LINE
8
BLACK
6
CONTINUOUS
10
6.18718
20
-3.57092
11
6.1822
21
-3.57266
0
LINE
8
BLACK
6
CONTINUOUS
10
6.1822
20
-3.57266
11
6.17891
21
-3.57297
0
LINE
8
BLACK
6
CONTINUOUS
10
6.17891
20
-3.57297
11
6.1415
21
-3.57297
0
LINE
8
BLACK
6
CONTINUOUS
10
6.1415
20
-3.57297
11
6.13821
21
-3.57266
0
LINE
8
BLACK
6
CONTINUOUS
10
6.13821
20
-3.57266
11
6.13323
21
-3.57092
0
LINE
8
BLACK
6
CONTINUOUS
10
6.13323
20
-3.57092
11
6.12898
21
-3.56778
0
LINE
8
BLACK
6
CONTINUOUS
10
6.12898
20
-3.56778
11
6.12584
21
-3.56353
0
LINE
8
BLACK
6
CONTINUOUS
10
6.12584
20
-3.56353
11
6.1241
21
-3.55855
0
LINE
8
BLACK
6
CONTINUOUS
10
6.1241
20
-3.55855
11
6.12379
21
-3.55525
0
LINE
8
BLACK
6
CONTINUOUS
10
6.12379
20
-3.55525
11
6.12379
21
-3.53557
0
LINE
8
BLACK
6
CONTINUOUS
10
6.12379
20
-3.53557
11
6.1241
21
-3.53227
0
LINE
8
BLACK
6
CONTINUOUS
10
6.1241
20
-3.53227
11
6.12584
21
-3.52729
0
LINE
8
BLACK
6
CONTINUOUS
10
6.12584
20
-3.52729
11
6.12898
21
-3.52304
0
LINE
8
BLACK
6
CONTINUOUS
10
6.12898
20
-3.52304
11
6.13323
21
-3.5199
0
LINE
8
BLACK
6
CONTINUOUS
10
6.13323
20
-3.5199
11
6.13821
21
-3.51816
0
LINE
8
BLACK
6
CONTINUOUS
10
6.13821
20
-3.51816
11
6.1415
21
-3.51785
0
LINE
8
BLACK
6
CONTINUOUS
10
6.1415
20
-3.51785
11
6.17891
21
-3.51785
0
LINE
8
BLACK
6
CONTINUOUS
10
6.17891
20
-3.51785
11
6.1822
21
-3.51816
0
LINE
8
BLACK
6
CONTINUOUS
10
6.0182
20
-3.51733
11
6.02318
21
-3.51907
0
LINE
8
BLACK
6
CONTINUOUS
10
6.02318
20
-3.51907
11
6.02743
21
-3.52221
0
LINE
8
BLACK
6
CONTINUOUS
10
6.02743
20
-3.52221
11
6.03057
21
-3.52646
0
LINE
8
BLACK
6
CONTINUOUS
10
6.03057
20
-3.52646
11
6.03231
21
-3.53144
0
LINE
8
BLACK
6
CONTINUOUS
10
6.03231
20
-3.53144
11
6.03262
21
-3.53474
0
LINE
8
BLACK
6
CONTINUOUS
10
6.03262
20
-3.53474
11
6.03262
21
-3.55442
0
LINE
8
BLACK
6
CONTINUOUS
10
6.03262
20
-3.55442
11
6.03231
21
-3.55771
0
LINE
8
BLACK
6
CONTINUOUS
10
6.03231
20
-3.55771
11
6.03057
21
-3.5627
0
LINE
8
BLACK
6
CONTINUOUS
10
6.03057
20
-3.5627
11
6.02743
21
-3.56695
0
LINE
8
BLACK
6
CONTINUOUS
10
6.02743
20
-3.56695
11
6.02318
21
-3.57008
0
LINE
8
BLACK
6
CONTINUOUS
10
6.02318
20
-3.57008
11
6.0182
21
-3.57183
0
LINE
8
BLACK
6
CONTINUOUS
10
6.0182
20
-3.57183
11
6.01491
21
-3.57214
0
LINE
8
BLACK
6
CONTINUOUS
10
6.01491
20
-3.57214
11
5.9775
21
-3.57214
0
LINE
8
BLACK
6
CONTINUOUS
10
5.9775
20
-3.57214
11
5.97421
21
-3.57183
0
LINE
8
BLACK
6
CONTINUOUS
10
5.97421
20
-3.57183
11
5.96923
21
-3.57008
0
LINE
8
BLACK
6
CONTINUOUS
10
5.96923
20
-3.57008
11
5.96498
21
-3.56695
0
LINE
8
BLACK
6
CONTINUOUS
10
5.96498
20
-3.56695
11
5.96184
21
-3.5627
0
LINE
8
BLACK
6
CONTINUOUS
10
5.96184
20
-3.5627
11
5.9601
21
-3.55771
0
LINE
8
BLACK
6
CONTINUOUS
10
5.9601
20
-3.55771
11
5.95979
21
-3.55442
0
LINE
8
BLACK
6
CONTINUOUS
10
5.95979
20
-3.55442
11
5.95979
21
-3.53474
0
LINE
8
BLACK
6
CONTINUOUS
10
5.95979
20
-3.53474
11
5.9601
21
-3.53144
0
LINE
8
BLACK
6
CONTINUOUS
10
5.9601
20
-3.53144
11
5.96184
21
-3.52646
0
LINE
8
BLACK
6
CONTINUOUS
10
5.96184
20
-3.52646
11
5.96498
21
-3.52221
0
LINE
8
BLACK
6
CONTINUOUS
10
5.96498
20
-3.52221
11
5.96923
21
-3.51907
0
LINE
8
BLACK
6
CONTINUOUS
10
5.96923
20
-3.51907
11
5.97421
21
-3.51733
0
LINE
8
BLACK
6
CONTINUOUS
10
5.97421
20
-3.51733
11
5.9775
21
-3.51702
0
LINE
8
BLACK
6
CONTINUOUS
10
5.9775
20
-3.51702
11
6.01491
21
-3.51702
0
LINE
8
BLACK
6
CONTINUOUS
10
6.01491
20
-3.51702
11
6.0182
21
-3.51733
0
LINE
8
BLACK
6
CONTINUOUS
10
5.8532
20
-3.51716
11
5.85818
21
-3.5189
0
LINE
8
BLACK
6
CONTINUOUS
10
5.85818
20
-3.5189
11
5.86243
21
-3.52204
0
LINE
8
BLACK
6
CONTINUOUS
10
5.86243
20
-3.52204
11
5.86557
21
-3.52629
0
LINE
8
BLACK
6
CONTINUOUS
10
5.86557
20
-3.52629
11
5.86731
21
-3.53127
0
LINE
8
BLACK
6
CONTINUOUS
10
5.86731
20
-3.53127
11
5.86762
21
-3.53457
0
LINE
8
BLACK
6
CONTINUOUS
10
5.86762
20
-3.53457
11
5.86762
21
-3.55425
0
LINE
8
BLACK
6
CONTINUOUS
10
5.86762
20
-3.55425
11
5.86731
21
-3.55755
0
LINE
8
BLACK
6
CONTINUOUS
10
5.86731
20
-3.55755
11
5.86557
21
-3.56253
0
LINE
8
BLACK
6
CONTINUOUS
10
5.86557
20
-3.56253
11
5.86243
21
-3.56678
0
LINE
8
BLACK
6
CONTINUOUS
10
5.86243
20
-3.56678
11
5.85818
21
-3.56992
0
LINE
8
BLACK
6
CONTINUOUS
10
5.85818
20
-3.56992
11
5.8532
21
-3.57166
0
LINE
8
BLACK
6
CONTINUOUS
10
5.8532
20
-3.57166
11
5.84991
21
-3.57197
0
LINE
8
BLACK
6
CONTINUOUS
10
5.84991
20
-3.57197
11
5.8125
21
-3.57197
0
LINE
8
BLACK
6
CONTINUOUS
10
5.8125
20
-3.57197
11
5.80921
21
-3.57166
0
LINE
8
BLACK
6
CONTINUOUS
10
5.80921
20
-3.57166
11
5.80423
21
-3.56992
0
LINE
8
BLACK
6
CONTINUOUS
10
5.80423
20
-3.56992
11
5.79998
21
-3.56678
0
LINE
8
BLACK
6
CONTINUOUS
10
5.79998
20
-3.56678
11
5.79684
21
-3.56253
0
LINE
8
BLACK
6
CONTINUOUS
10
5.79684
20
-3.56253
11
5.7951
21
-3.55755
0
LINE
8
BLACK
6
CONTINUOUS
10
5.7951
20
-3.55755
11
5.79479
21
-3.55425
0
LINE
8
BLACK
6
CONTINUOUS
10
5.79479
20
-3.55425
11
5.79479
21
-3.53457
0
LINE
8
BLACK
6
CONTINUOUS
10
5.79479
20
-3.53457
11
5.7951
21
-3.53127
0
LINE
8
BLACK
6
CONTINUOUS
10
5.7951
20
-3.53127
11
5.79684
21
-3.52629
0
LINE
8
BLACK
6
CONTINUOUS
10
5.79684
20
-3.52629
11
5.79998
21
-3.52204
0
LINE
8
BLACK
6
CONTINUOUS
10
5.79998
20
-3.52204
11
5.80423
21
-3.5189
0
LINE
8
BLACK
6
CONTINUOUS
10
5.80423
20
-3.5189
11
5.80921
21
-3.51716
0
LINE
8
BLACK
6
CONTINUOUS
10
5.80921
20
-3.51716
11
5.8125
21
-3.51685
0
LINE
8
BLACK
6
CONTINUOUS
10
5.8125
20
-3.51685
11
5.84991
21
-3.51685
0
LINE
8
BLACK
6
CONTINUOUS
10
5.84991
20
-3.51685
11
5.8532
21
-3.51716
0
LINE
8
BLACK
6
CONTINUOUS
10
5.27992
20
-3.47162
11
5.2866
21
-3.4732
0
LINE
8
BLACK
6
CONTINUOUS
10
5.2866
20
-3.4732
11
5.29272
21
-3.47627
0
LINE
8
BLACK
6
CONTINUOUS
10
5.29272
20
-3.47627
11
5.29797
21
-3.48068
0
LINE
8
BLACK
6
CONTINUOUS
10
5.29797
20
-3.48068
11
5.30207
21
-3.48618
0
LINE
8
BLACK
6
CONTINUOUS
10
5.30207
20
-3.48618
11
5.30478
21
-3.49248
0
LINE
8
BLACK
6
CONTINUOUS
10
5.30478
20
-3.49248
11
5.30597
21
-3.49923
0
LINE
8
BLACK
6
CONTINUOUS
10
5.30597
20
-3.49923
11
5.30558
21
-3.50607
0
LINE
8
BLACK
6
CONTINUOUS
10
5.30558
20
-3.50607
11
5.30361
21
-3.51264
0
LINE
8
BLACK
6
CONTINUOUS
10
5.30361
20
-3.51264
11
5.30018
21
-3.51858
0
LINE
8
BLACK
6
CONTINUOUS
10
5.30018
20
-3.51858
11
5.29548
21
-3.52356
0
LINE
8
BLACK
6
CONTINUOUS
10
5.29548
20
-3.52356
11
5.28975
21
-3.52733
0
LINE
8
BLACK
6
CONTINUOUS
10
5.28975
20
-3.52733
11
5.28331
21
-3.52968
0
LINE
8
BLACK
6
CONTINUOUS
10
5.28331
20
-3.52968
11
5.2765
21
-3.53047
0
LINE
8
BLACK
6
CONTINUOUS
10
5.2765
20
-3.53047
11
5.26862
21
-3.53047
0
LINE
8
BLACK
6
CONTINUOUS
10
5.26862
20
-3.53047
11
5.26519
21
-3.53027
0
LINE
8
BLACK
6
CONTINUOUS
10
5.26519
20
-3.53027
11
5.25852
21
-3.52869
0
LINE
8
BLACK
6
CONTINUOUS
10
5.25852
20
-3.52869
11
5.2524
21
-3.52561
0
LINE
8
BLACK
6
CONTINUOUS
10
5.2524
20
-3.52561
11
5.24714
21
-3.52121
0
LINE
8
BLACK
6
CONTINUOUS
10
5.24714
20
-3.52121
11
5.24305
21
-3.51571
0
LINE
8
BLACK
6
CONTINUOUS
10
5.24305
20
-3.51571
11
5.24033
21
-3.50941
0
LINE
8
BLACK
6
CONTINUOUS
10
5.24033
20
-3.50941
11
5.23914
21
-3.50266
0
LINE
8
BLACK
6
CONTINUOUS
10
5.23914
20
-3.50266
11
5.23954
21
-3.49582
0
LINE
8
BLACK
6
CONTINUOUS
10
5.23954
20
-3.49582
11
5.24151
21
-3.48925
0
LINE
8
BLACK
6
CONTINUOUS
10
5.24151
20
-3.48925
11
5.24494
21
-3.48331
0
LINE
8
BLACK
6
CONTINUOUS
10
5.24494
20
-3.48331
11
5.24964
21
-3.47833
0
LINE
8
BLACK
6
CONTINUOUS
10
5.24964
20
-3.47833
11
5.25537
21
-3.47456
0
LINE
8
BLACK
6
CONTINUOUS
10
5.25537
20
-3.47456
11
5.26181
21
-3.47221
0
LINE
8
BLACK
6
CONTINUOUS
10
5.26181
20
-3.47221
11
5.26862
21
-3.47142
0
LINE
8
BLACK
6
CONTINUOUS
10
5.26862
20
-3.47142
11
5.2765
21
-3.47142
0
LINE
8
BLACK
6
CONTINUOUS
10
5.2765
20
-3.47142
11
5.27992
21
-3.47162
0
LINE
8
BLACK
6
CONTINUOUS
10
7.01122
20
-3.47162
11
7.01789
21
-3.4732
0
LINE
8
BLACK
6
CONTINUOUS
10
7.01789
20
-3.4732
11
7.02402
21
-3.47627
0
LINE
8
BLACK
6
CONTINUOUS
10
7.02402
20
-3.47627
11
7.02927
21
-3.48068
0
LINE
8
BLACK
6
CONTINUOUS
10
7.02927
20
-3.48068
11
7.03337
21
-3.48618
0
LINE
8
BLACK
6
CONTINUOUS
10
7.03337
20
-3.48618
11
7.03608
21
-3.49248
0
LINE
8
BLACK
6
CONTINUOUS
10
7.03608
20
-3.49248
11
7.03727
21
-3.49923
0
LINE
8
BLACK
6
CONTINUOUS
10
7.03727
20
-3.49923
11
7.03687
21
-3.50607
0
LINE
8
BLACK
6
CONTINUOUS
10
7.03687
20
-3.50607
11
7.03491
21
-3.51264
0
LINE
8
BLACK
6
CONTINUOUS
10
7.03491
20
-3.51264
11
7.03148
21
-3.51858
0
LINE
8
BLACK
6
CONTINUOUS
10
7.03148
20
-3.51858
11
7.02678
21
-3.52356
0
LINE
8
BLACK
6
CONTINUOUS
10
7.02678
20
-3.52356
11
7.02105
21
-3.52733
0
LINE
8
BLACK
6
CONTINUOUS
10
7.02105
20
-3.52733
11
7.0146
21
-3.52968
0
LINE
8
BLACK
6
CONTINUOUS
10
7.0146
20
-3.52968
11
7.0078
21
-3.53047
0
LINE
8
BLACK
6
CONTINUOUS
10
7.0078
20
-3.53047
11
6.99992
21
-3.53047
0
LINE
8
BLACK
6
CONTINUOUS
10
6.99992
20
-3.53047
11
6.99649
21
-3.53027
0
LINE
8
BLACK
6
CONTINUOUS
10
6.99649
20
-3.53027
11
6.98982
21
-3.52869
0
LINE
8
BLACK
6
CONTINUOUS
10
6.98982
20
-3.52869
11
6.9837
21
-3.52561
0
LINE
8
BLACK
6
CONTINUOUS
10
6.9837
20
-3.52561
11
6.97844
21
-3.52121
0
LINE
8
BLACK
6
CONTINUOUS
10
6.97844
20
-3.52121
11
6.97435
21
-3.51571
0
LINE
8
BLACK
6
CONTINUOUS
10
6.97435
20
-3.51571
11
6.97163
21
-3.50941
0
LINE
8
BLACK
6
CONTINUOUS
10
6.97163
20
-3.50941
11
6.97044
21
-3.50266
0
LINE
8
BLACK
6
CONTINUOUS
10
6.97044
20
-3.50266
11
6.97084
21
-3.49582
0
LINE
8
BLACK
6
CONTINUOUS
10
6.97084
20
-3.49582
11
6.97281
21
-3.48925
0
LINE
8
BLACK
6
CONTINUOUS
10
6.97281
20
-3.48925
11
6.97624
21
-3.48331
0
LINE
8
BLACK
6
CONTINUOUS
10
6.97624
20
-3.48331
11
6.98094
21
-3.47833
0
LINE
8
BLACK
6
CONTINUOUS
10
6.98094
20
-3.47833
11
6.98667
21
-3.47456
0
LINE
8
BLACK
6
CONTINUOUS
10
6.98667
20
-3.47456
11
6.99311
21
-3.47221
0
LINE
8
BLACK
6
CONTINUOUS
10
6.99311
20
-3.47221
11
6.99992
21
-3.47142
0
LINE
8
BLACK
6
CONTINUOUS
10
6.99992
20
-3.47142
11
7.0078
21
-3.47142
0
LINE
8
BLACK
6
CONTINUOUS
10
7.0078
20
-3.47142
11
7.01122
21
-3.47162
0
LINE
8
BLACK
6
CONTINUOUS
10
5.68593
20
-3.43865
11
5.69053
21
-3.44099
0
LINE
8
BLACK
6
CONTINUOUS
10
5.69053
20
-3.44099
11
5.69417
21
-3.44464
0
LINE
8
BLACK
6
CONTINUOUS
10
5.69417
20
-3.44464
11
5.69652
21
-3.44923
0
LINE
8
BLACK
6
CONTINUOUS
10
5.69652
20
-3.44923
11
5.69732
21
-3.45433
0
LINE
8
BLACK
6
CONTINUOUS
10
5.69732
20
-3.45433
11
5.69732
21
-3.48435
0
LINE
8
BLACK
6
CONTINUOUS
10
5.69732
20
-3.48435
11
5.69652
21
-3.48944
0
LINE
8
BLACK
6
CONTINUOUS
10
5.69652
20
-3.48944
11
5.69417
21
-3.49404
0
LINE
8
BLACK
6
CONTINUOUS
10
5.69417
20
-3.49404
11
5.69053
21
-3.49769
0
LINE
8
BLACK
6
CONTINUOUS
10
5.69053
20
-3.49769
11
5.68593
21
-3.50003
0
LINE
8
BLACK
6
CONTINUOUS
10
5.68593
20
-3.50003
11
5.68084
21
-3.50083
0
LINE
8
BLACK
6
CONTINUOUS
10
5.68084
20
-3.50083
11
5.66361
21
-3.50083
0
LINE
8
BLACK
6
CONTINUOUS
10
5.66361
20
-3.50083
11
5.65852
21
-3.50003
0
LINE
8
BLACK
6
CONTINUOUS
10
5.65852
20
-3.50003
11
5.65392
21
-3.49769
0
LINE
8
BLACK
6
CONTINUOUS
10
5.65392
20
-3.49769
11
5.65027
21
-3.49404
0
LINE
8
BLACK
6
CONTINUOUS
10
5.65027
20
-3.49404
11
5.64793
21
-3.48944
0
LINE
8
BLACK
6
CONTINUOUS
10
5.64793
20
-3.48944
11
5.64713
21
-3.48435
0
LINE
8
BLACK
6
CONTINUOUS
10
5.64713
20
-3.48435
11
5.64713
21
-3.45433
0
LINE
8
BLACK
6
CONTINUOUS
10
5.64713
20
-3.45433
11
5.64793
21
-3.44923
0
LINE
8
BLACK
6
CONTINUOUS
10
5.64793
20
-3.44923
11
5.65027
21
-3.44464
0
LINE
8
BLACK
6
CONTINUOUS
10
5.65027
20
-3.44464
11
5.65392
21
-3.44099
0
LINE
8
BLACK
6
CONTINUOUS
10
5.65392
20
-3.44099
11
5.65852
21
-3.43865
0
LINE
8
BLACK
6
CONTINUOUS
10
5.65852
20
-3.43865
11
5.66361
21
-3.43784
0
LINE
8
BLACK
6
CONTINUOUS
10
5.66361
20
-3.43784
11
5.68084
21
-3.43784
0
LINE
8
BLACK
6
CONTINUOUS
10
5.68084
20
-3.43784
11
5.68593
21
-3.43865
0
LINE
8
BLACK
6
CONTINUOUS
10
5.76959
20
-3.43865
11
5.77419
21
-3.44099
0
LINE
8
BLACK
6
CONTINUOUS
10
5.77419
20
-3.44099
11
5.77784
21
-3.44464
0
LINE
8
BLACK
6
CONTINUOUS
10
5.77784
20
-3.44464
11
5.78018
21
-3.44923
0
LINE
8
BLACK
6
CONTINUOUS
10
5.78018
20
-3.44923
11
5.78098
21
-3.45433
0
LINE
8
BLACK
6
CONTINUOUS
10
5.78098
20
-3.45433
11
5.78098
21
-3.48435
0
LINE
8
BLACK
6
CONTINUOUS
10
5.78098
20
-3.48435
11
5.78018
21
-3.48944
0
LINE
8
BLACK
6
CONTINUOUS
10
5.78018
20
-3.48944
11
5.77784
21
-3.49404
0
LINE
8
BLACK
6
CONTINUOUS
10
5.77784
20
-3.49404
11
5.77419
21
-3.49769
0
LINE
8
BLACK
6
CONTINUOUS
10
5.77419
20
-3.49769
11
5.76959
21
-3.50003
0
LINE
8
BLACK
6
CONTINUOUS
10
5.76959
20
-3.50003
11
5.7645
21
-3.50083
0
LINE
8
BLACK
6
CONTINUOUS
10
5.7645
20
-3.50083
11
5.74727
21
-3.50083
0
LINE
8
BLACK
6
CONTINUOUS
10
5.74727
20
-3.50083
11
5.74218
21
-3.50003
0
LINE
8
BLACK
6
CONTINUOUS
10
5.74218
20
-3.50003
11
5.73758
21
-3.49769
0
LINE
8
BLACK
6
CONTINUOUS
10
5.73758
20
-3.49769
11
5.73394
21
-3.49404
0
LINE
8
BLACK
6
CONTINUOUS
10
5.73394
20
-3.49404
11
5.73159
21
-3.48944
0
LINE
8
BLACK
6
CONTINUOUS
10
5.73159
20
-3.48944
11
5.73079
21
-3.48435
0
LINE
8
BLACK
6
CONTINUOUS
10
5.73079
20
-3.48435
11
5.73079
21
-3.45433
0
LINE
8
BLACK
6
CONTINUOUS
10
5.73079
20
-3.45433
11
5.73159
21
-3.44923
0
LINE
8
BLACK
6
CONTINUOUS
10
5.73159
20
-3.44923
11
5.73394
21
-3.44464
0
LINE
8
BLACK
6
CONTINUOUS
10
5.73394
20
-3.44464
11
5.73758
21
-3.44099
0
LINE
8
BLACK
6
CONTINUOUS
10
5.73758
20
-3.44099
11
5.74218
21
-3.43865
0
LINE
8
BLACK
6
CONTINUOUS
10
5.74218
20
-3.43865
11
5.74727
21
-3.43784
0
LINE
8
BLACK
6
CONTINUOUS
10
5.74727
20
-3.43784
11
5.7645
21
-3.43784
0
LINE
8
BLACK
6
CONTINUOUS
10
5.7645
20
-3.43784
11
5.76959
21
-3.43865
0
LINE
8
BLACK
6
CONTINUOUS
10
5.54196
20
-3.42723
11
5.54694
21
-3.42897
0
LINE
8
BLACK
6
CONTINUOUS
10
5.54694
20
-3.42897
11
5.55119
21
-3.43211
0
LINE
8
BLACK
6
CONTINUOUS
10
5.55119
20
-3.43211
11
5.55433
21
-3.43636
0
LINE
8
BLACK
6
CONTINUOUS
10
5.55433
20
-3.43636
11
5.55607
21
-3.44134
0
LINE
8
BLACK
6
CONTINUOUS
10
5.55607
20
-3.44134
11
5.55638
21
-3.44464
0
LINE
8
BLACK
6
CONTINUOUS
10
5.55638
20
-3.44464
11
5.55638
21
-3.48204
0
LINE
8
BLACK
6
CONTINUOUS
10
5.55638
20
-3.48204
11
5.55607
21
-3.48533
0
LINE
8
BLACK
6
CONTINUOUS
10
5.55607
20
-3.48533
11
5.55433
21
-3.49032
0
LINE
8
BLACK
6
CONTINUOUS
10
5.55433
20
-3.49032
11
5.55119
21
-3.49457
0
LINE
8
BLACK
6
CONTINUOUS
10
5.55119
20
-3.49457
11
5.54694
21
-3.4977
0
LINE
8
BLACK
6
CONTINUOUS
10
5.54694
20
-3.4977
11
5.54196
21
-3.49945
0
LINE
8
BLACK
6
CONTINUOUS
10
5.54196
20
-3.49945
11
5.53867
21
-3.49976
0
LINE
8
BLACK
6
CONTINUOUS
10
5.53867
20
-3.49976
11
5.51898
21
-3.49976
0
LINE
8
BLACK
6
CONTINUOUS
10
5.51898
20
-3.49976
11
5.51569
21
-3.49945
0
LINE
8
BLACK
6
CONTINUOUS
10
5.51569
20
-3.49945
11
5.5107
21
-3.4977
0
LINE
8
BLACK
6
CONTINUOUS
10
5.5107
20
-3.4977
11
5.50645
21
-3.49457
0
LINE
8
BLACK
6
CONTINUOUS
10
5.50645
20
-3.49457
11
5.50332
21
-3.49032
0
LINE
8
BLACK
6
CONTINUOUS
10
5.50332
20
-3.49032
11
5.50157
21
-3.48533
0
LINE
8
BLACK
6
CONTINUOUS
10
5.50157
20
-3.48533
11
5.50126
21
-3.48204
0
LINE
8
BLACK
6
CONTINUOUS
10
5.50126
20
-3.48204
11
5.50126
21
-3.44464
0
LINE
8
BLACK
6
CONTINUOUS
10
5.50126
20
-3.44464
11
5.50157
21
-3.44134
0
LINE
8
BLACK
6
CONTINUOUS
10
5.50157
20
-3.44134
11
5.50332
21
-3.43636
0
LINE
8
BLACK
6
CONTINUOUS
10
5.50332
20
-3.43636
11
5.50645
21
-3.43211
0
LINE
8
BLACK
6
CONTINUOUS
10
5.50645
20
-3.43211
11
5.5107
21
-3.42897
0
LINE
8
BLACK
6
CONTINUOUS
10
5.5107
20
-3.42897
11
5.51569
21
-3.42723
0
LINE
8
BLACK
6
CONTINUOUS
10
5.51569
20
-3.42723
11
5.51898
21
-3.42692
0
LINE
8
BLACK
6
CONTINUOUS
10
5.51898
20
-3.42692
11
5.53867
21
-3.42692
0
LINE
8
BLACK
6
CONTINUOUS
10
5.53867
20
-3.42692
11
5.54196
21
-3.42723
0
LINE
8
BLACK
6
CONTINUOUS
10
5.61676
20
-3.42723
11
5.62175
21
-3.42897
0
LINE
8
BLACK
6
CONTINUOUS
10
5.62175
20
-3.42897
11
5.626
21
-3.43211
0
LINE
8
BLACK
6
CONTINUOUS
10
5.626
20
-3.43211
11
5.62913
21
-3.43636
0
LINE
8
BLACK
6
CONTINUOUS
10
5.62913
20
-3.43636
11
5.63088
21
-3.44134
0
LINE
8
BLACK
6
CONTINUOUS
10
5.63088
20
-3.44134
11
5.63119
21
-3.44464
0
LINE
8
BLACK
6
CONTINUOUS
10
5.63119
20
-3.44464
11
5.63119
21
-3.48204
0
LINE
8
BLACK
6
CONTINUOUS
10
5.63119
20
-3.48204
11
5.63088
21
-3.48533
0
LINE
8
BLACK
6
CONTINUOUS
10
5.63088
20
-3.48533
11
5.62913
21
-3.49032
0
LINE
8
BLACK
6
CONTINUOUS
10
5.62913
20
-3.49032
11
5.626
21
-3.49457
0
LINE
8
BLACK
6
CONTINUOUS
10
5.626
20
-3.49457
11
5.62175
21
-3.4977
0
LINE
8
BLACK
6
CONTINUOUS
10
5.62175
20
-3.4977
11
5.61676
21
-3.49945
0
LINE
8
BLACK
6
CONTINUOUS
10
5.61676
20
-3.49945
11
5.61347
21
-3.49976
0
LINE
8
BLACK
6
CONTINUOUS
10
5.61347
20
-3.49976
11
5.59378
21
-3.49976
0
LINE
8
BLACK
6
CONTINUOUS
10
5.59378
20
-3.49976
11
5.59049
21
-3.49945
0
LINE
8
BLACK
6
CONTINUOUS
10
5.59049
20
-3.49945
11
5.58551
21
-3.4977
0
LINE
8
BLACK
6
CONTINUOUS
10
5.58551
20
-3.4977
11
5.58126
21
-3.49457
0
LINE
8
BLACK
6
CONTINUOUS
10
5.58126
20
-3.49457
11
5.57812
21
-3.49032
0
LINE
8
BLACK
6
CONTINUOUS
10
5.57812
20
-3.49032
11
5.57638
21
-3.48533
0
LINE
8
BLACK
6
CONTINUOUS
10
5.57638
20
-3.48533
11
5.57607
21
-3.48204
0
LINE
8
BLACK
6
CONTINUOUS
10
5.57607
20
-3.48204
11
5.57607
21
-3.44464
0
LINE
8
BLACK
6
CONTINUOUS
10
5.57607
20
-3.44464
11
5.57638
21
-3.44134
0
LINE
8
BLACK
6
CONTINUOUS
10
5.57638
20
-3.44134
11
5.57812
21
-3.43636
0
LINE
8
BLACK
6
CONTINUOUS
10
5.57812
20
-3.43636
11
5.58126
21
-3.43211
0
LINE
8
BLACK
6
CONTINUOUS
10
5.58126
20
-3.43211
11
5.58551
21
-3.42897
0
LINE
8
BLACK
6
CONTINUOUS
10
5.58551
20
-3.42897
11
5.59049
21
-3.42723
0
LINE
8
BLACK
6
CONTINUOUS
10
5.59049
20
-3.42723
11
5.59378
21
-3.42692
0
LINE
8
BLACK
6
CONTINUOUS
10
5.59378
20
-3.42692
11
5.61347
21
-3.42692
0
LINE
8
BLACK
6
CONTINUOUS
10
5.61347
20
-3.42692
11
5.61676
21
-3.42723
0
LINE
8
BLACK
6
CONTINUOUS
10
6.32408
20
-3.43732
11
6.32868
21
-3.43966
0
LINE
8
BLACK
6
CONTINUOUS
10
6.32868
20
-3.43966
11
6.33232
21
-3.44331
0
LINE
8
BLACK
6
CONTINUOUS
10
6.33232
20
-3.44331
11
6.33467
21
-3.4479
0
LINE
8
BLACK
6
CONTINUOUS
10
6.33467
20
-3.4479
11
6.33547
21
-3.453
0
LINE
8
BLACK
6
CONTINUOUS
10
6.33547
20
-3.453
11
6.33547
21
-3.48302
0
LINE
8
BLACK
6
CONTINUOUS
10
6.33547
20
-3.48302
11
6.33467
21
-3.48811
0
LINE
8
BLACK
6
CONTINUOUS
10
6.33467
20
-3.48811
11
6.33232
21
-3.49271
0
LINE
8
BLACK
6
CONTINUOUS
10
6.33232
20
-3.49271
11
6.32868
21
-3.49636
0
LINE
8
BLACK
6
CONTINUOUS
10
6.32868
20
-3.49636
11
6.32408
21
-3.4987
0
LINE
8
BLACK
6
CONTINUOUS
10
6.32408
20
-3.4987
11
6.31899
21
-3.4995
0
LINE
8
BLACK
6
CONTINUOUS
10
6.31899
20
-3.4995
11
6.30176
21
-3.4995
0
LINE
8
BLACK
6
CONTINUOUS
10
6.30176
20
-3.4995
11
6.29667
21
-3.4987
0
LINE
8
BLACK
6
CONTINUOUS
10
6.29667
20
-3.4987
11
6.29207
21
-3.49636
0
LINE
8
BLACK
6
CONTINUOUS
10
6.29207
20
-3.49636
11
6.28842
21
-3.49271
0
LINE
8
BLACK
6
CONTINUOUS
10
6.28842
20
-3.49271
11
6.28608
21
-3.48811
0
LINE
8
BLACK
6
CONTINUOUS
10
6.28608
20
-3.48811
11
6.28528
21
-3.48302
0
LINE
8
BLACK
6
CONTINUOUS
10
6.28528
20
-3.48302
11
6.28528
21
-3.453
0
LINE
8
BLACK
6
CONTINUOUS
10
6.28528
20
-3.453
11
6.28608
21
-3.4479
0
LINE
8
BLACK
6
CONTINUOUS
10
6.28608
20
-3.4479
11
6.28842
21
-3.44331
0
LINE
8
BLACK
6
CONTINUOUS
10
6.28842
20
-3.44331
11
6.29207
21
-3.43966
0
LINE
8
BLACK
6
CONTINUOUS
10
6.29207
20
-3.43966
11
6.29667
21
-3.43732
0
LINE
8
BLACK
6
CONTINUOUS
10
6.29667
20
-3.43732
11
6.30176
21
-3.43651
0
LINE
8
BLACK
6
CONTINUOUS
10
6.30176
20
-3.43651
11
6.31899
21
-3.43651
0
LINE
8
BLACK
6
CONTINUOUS
10
6.31899
20
-3.43651
11
6.32408
21
-3.43732
0
LINE
8
BLACK
6
CONTINUOUS
10
6.40774
20
-3.43732
11
6.41234
21
-3.43966
0
LINE
8
BLACK
6
CONTINUOUS
10
6.41234
20
-3.43966
11
6.41599
21
-3.44331
0
LINE
8
BLACK
6
CONTINUOUS
10
6.41599
20
-3.44331
11
6.41833
21
-3.4479
0
LINE
8
BLACK
6
CONTINUOUS
10
6.41833
20
-3.4479
11
6.41913
21
-3.453
0
LINE
8
BLACK
6
CONTINUOUS
10
6.41913
20
-3.453
11
6.41913
21
-3.48302
0
LINE
8
BLACK
6
CONTINUOUS
10
6.41913
20
-3.48302
11
6.41833
21
-3.48811
0
LINE
8
BLACK
6
CONTINUOUS
10
6.41833
20
-3.48811
11
6.41599
21
-3.49271
0
LINE
8
BLACK
6
CONTINUOUS
10
6.41599
20
-3.49271
11
6.41234
21
-3.49636
0
LINE
8
BLACK
6
CONTINUOUS
10
6.41234
20
-3.49636
11
6.40774
21
-3.4987
0
LINE
8
BLACK
6
CONTINUOUS
10
6.40774
20
-3.4987
11
6.40265
21
-3.4995
0
LINE
8
BLACK
6
CONTINUOUS
10
6.40265
20
-3.4995
11
6.38542
21
-3.4995
0
LINE
8
BLACK
6
CONTINUOUS
10
6.38542
20
-3.4995
11
6.38033
21
-3.4987
0
LINE
8
BLACK
6
CONTINUOUS
10
6.38033
20
-3.4987
11
6.37573
21
-3.49636
0
LINE
8
BLACK
6
CONTINUOUS
10
6.37573
20
-3.49636
11
6.37209
21
-3.49271
0
LINE
8
BLACK
6
CONTINUOUS
10
6.37209
20
-3.49271
11
6.36974
21
-3.48811
0
LINE
8
BLACK
6
CONTINUOUS
10
6.36974
20
-3.48811
11
6.36894
21
-3.48302
0
LINE
8
BLACK
6
CONTINUOUS
10
6.36894
20
-3.48302
11
6.36894
21
-3.453
0
LINE
8
BLACK
6
CONTINUOUS
10
6.36894
20
-3.453
11
6.36974
21
-3.4479
0
LINE
8
BLACK
6
CONTINUOUS
10
6.36974
20
-3.4479
11
6.37209
21
-3.44331
0
LINE
8
BLACK
6
CONTINUOUS
10
6.37209
20
-3.44331
11
6.37573
21
-3.43966
0
LINE
8
BLACK
6
CONTINUOUS
10
6.37573
20
-3.43966
11
6.38033
21
-3.43732
0
LINE
8
BLACK
6
CONTINUOUS
10
6.38033
20
-3.43732
11
6.38542
21
-3.43651
0
LINE
8
BLACK
6
CONTINUOUS
10
6.38542
20
-3.43651
11
6.40265
21
-3.43651
0
LINE
8
BLACK
6
CONTINUOUS
10
6.40265
20
-3.43651
11
6.40774
21
-3.43732
0
LINE
8
BLACK
6
CONTINUOUS
10
6.47394
20
-3.4259
11
6.47892
21
-3.42764
0
LINE
8
BLACK
6
CONTINUOUS
10
6.47892
20
-3.42764
11
6.48317
21
-3.43078
0
LINE
8
BLACK
6
CONTINUOUS
10
6.48317
20
-3.43078
11
6.48631
21
-3.43503
0
LINE
8
BLACK
6
CONTINUOUS
10
6.48631
20
-3.43503
11
6.48805
21
-3.44001
0
LINE
8
BLACK
6
CONTINUOUS
10
6.48805
20
-3.44001
11
6.48836
21
-3.44331
0
LINE
8
BLACK
6
CONTINUOUS
10
6.48836
20
-3.44331
11
6.48836
21
-3.48071
0
LINE
8
BLACK
6
CONTINUOUS
10
6.48836
20
-3.48071
11
6.48805
21
-3.484
0
LINE
8
BLACK
6
CONTINUOUS
10
6.48805
20
-3.484
11
6.48631
21
-3.48899
0
LINE
8
BLACK
6
CONTINUOUS
10
6.48631
20
-3.48899
11
6.48317
21
-3.49324
0
LINE
8
BLACK
6
CONTINUOUS
10
6.48317
20
-3.49324
11
6.47892
21
-3.49637
0
LINE
8
BLACK
6
CONTINUOUS
10
6.47892
20
-3.49637
11
6.47394
21
-3.49812
0
LINE
8
BLACK
6
CONTINUOUS
10
6.47394
20
-3.49812
11
6.47065
21
-3.49843
0
LINE
8
BLACK
6
CONTINUOUS
10
6.47065
20
-3.49843
11
6.45096
21
-3.49843
0
LINE
8
BLACK
6
CONTINUOUS
10
6.45096
20
-3.49843
11
6.44767
21
-3.49812
0
LINE
8
BLACK
6
CONTINUOUS
10
6.44767
20
-3.49812
11
6.44268
21
-3.49637
0
LINE
8
BLACK
6
CONTINUOUS
10
6.44268
20
-3.49637
11
6.43843
21
-3.49324
0
LINE
8
BLACK
6
CONTINUOUS
10
6.43843
20
-3.49324
11
6.4353
21
-3.48899
0
LINE
8
BLACK
6
CONTINUOUS
10
6.4353
20
-3.48899
11
6.43355
21
-3.484
0
LINE
8
BLACK
6
CONTINUOUS
10
6.43355
20
-3.484
11
6.43324
21
-3.48071
0
LINE
8
BLACK
6
CONTINUOUS
10
6.43324
20
-3.48071
11
6.43324
21
-3.44331
0
LINE
8
BLACK
6
CONTINUOUS
10
6.43324
20
-3.44331
11
6.43355
21
-3.44001
0
LINE
8
BLACK
6
CONTINUOUS
10
6.43355
20
-3.44001
11
6.4353
21
-3.43503
0
LINE
8
BLACK
6
CONTINUOUS
10
6.4353
20
-3.43503
11
6.43843
21
-3.43078
0
LINE
8
BLACK
6
CONTINUOUS
10
6.43843
20
-3.43078
11
6.44268
21
-3.42764
0
LINE
8
BLACK
6
CONTINUOUS
10
6.44268
20
-3.42764
11
6.44767
21
-3.4259
0
LINE
8
BLACK
6
CONTINUOUS
10
6.44767
20
-3.4259
11
6.45096
21
-3.42559
0
LINE
8
BLACK
6
CONTINUOUS
10
6.45096
20
-3.42559
11
6.47065
21
-3.42559
0
LINE
8
BLACK
6
CONTINUOUS
10
6.47065
20
-3.42559
11
6.47394
21
-3.4259
0
LINE
8
BLACK
6
CONTINUOUS
10
6.54874
20
-3.4259
11
6.55373
21
-3.42764
0
LINE
8
BLACK
6
CONTINUOUS
10
6.55373
20
-3.42764
11
6.55798
21
-3.43078
0
LINE
8
BLACK
6
CONTINUOUS
10
6.55798
20
-3.43078
11
6.56111
21
-3.43503
0
LINE
8
BLACK
6
CONTINUOUS
10
6.56111
20
-3.43503
11
6.56286
21
-3.44001
0
LINE
8
BLACK
6
CONTINUOUS
10
6.56286
20
-3.44001
11
6.56317
21
-3.44331
0
LINE
8
BLACK
6
CONTINUOUS
10
6.56317
20
-3.44331
11
6.56317
21
-3.48071
0
LINE
8
BLACK
6
CONTINUOUS
10
6.56317
20
-3.48071
11
6.56286
21
-3.484
0
LINE
8
BLACK
6
CONTINUOUS
10
6.56286
20
-3.484
11
6.56111
21
-3.48899
0
LINE
8
BLACK
6
CONTINUOUS
10
6.56111
20
-3.48899
11
6.55798
21
-3.49324
0
LINE
8
BLACK
6
CONTINUOUS
10
6.55798
20
-3.49324
11
6.55373
21
-3.49637
0
LINE
8
BLACK
6
CONTINUOUS
10
6.55373
20
-3.49637
11
6.54874
21
-3.49812
0
LINE
8
BLACK
6
CONTINUOUS
10
6.54874
20
-3.49812
11
6.54545
21
-3.49843
0
LINE
8
BLACK
6
CONTINUOUS
10
6.54545
20
-3.49843
11
6.52576
21
-3.49843
0
LINE
8
BLACK
6
CONTINUOUS
10
6.52576
20
-3.49843
11
6.52247
21
-3.49812
0
LINE
8
BLACK
6
CONTINUOUS
10
6.52247
20
-3.49812
11
6.51749
21
-3.49637
0
LINE
8
BLACK
6
CONTINUOUS
10
6.51749
20
-3.49637
11
6.51324
21
-3.49324
0
LINE
8
BLACK
6
CONTINUOUS
10
6.51324
20
-3.49324
11
6.5101
21
-3.48899
0
LINE
8
BLACK
6
CONTINUOUS
10
6.5101
20
-3.48899
11
6.50836
21
-3.484
0
LINE
8
BLACK
6
CONTINUOUS
10
6.50836
20
-3.484
11
6.50805
21
-3.48071
0
LINE
8
BLACK
6
CONTINUOUS
10
6.50805
20
-3.48071
11
6.50805
21
-3.44331
0
LINE
8
BLACK
6
CONTINUOUS
10
6.50805
20
-3.44331
11
6.50836
21
-3.44001
0
LINE
8
BLACK
6
CONTINUOUS
10
6.50836
20
-3.44001
11
6.5101
21
-3.43503
0
LINE
8
BLACK
6
CONTINUOUS
10
6.5101
20
-3.43503
11
6.51324
21
-3.43078
0
LINE
8
BLACK
6
CONTINUOUS
10
6.51324
20
-3.43078
11
6.51749
21
-3.42764
0
LINE
8
BLACK
6
CONTINUOUS
10
6.51749
20
-3.42764
11
6.52247
21
-3.4259
0
LINE
8
BLACK
6
CONTINUOUS
10
6.52247
20
-3.4259
11
6.52576
21
-3.42559
0
LINE
8
BLACK
6
CONTINUOUS
10
6.52576
20
-3.42559
11
6.54545
21
-3.42559
0
LINE
8
BLACK
6
CONTINUOUS
10
6.54545
20
-3.42559
11
6.54874
21
-3.4259
0
LINE
8
BLACK
6
CONTINUOUS
10
6.1822
20
-3.44336
11
6.18718
21
-3.4451
0
LINE
8
BLACK
6
CONTINUOUS
10
6.18718
20
-3.4451
11
6.19143
21
-3.44824
0
LINE
8
BLACK
6
CONTINUOUS
10
6.19143
20
-3.44824
11
6.19457
21
-3.45249
0
LINE
8
BLACK
6
CONTINUOUS
10
6.19457
20
-3.45249
11
6.19631
21
-3.45747
0
LINE
8
BLACK
6
CONTINUOUS
10
6.19631
20
-3.45747
11
6.19662
21
-3.46076
0
LINE
8
BLACK
6
CONTINUOUS
10
6.19662
20
-3.46076
11
6.19662
21
-3.48045
0
LINE
8
BLACK
6
CONTINUOUS
10
6.19662
20
-3.48045
11
6.19631
21
-3.48374
0
LINE
8
BLACK
6
CONTINUOUS
10
6.19631
20
-3.48374
11
6.19457
21
-3.48873
0
LINE
8
BLACK
6
CONTINUOUS
10
6.19457
20
-3.48873
11
6.19143
21
-3.49298
0
LINE
8
BLACK
6
CONTINUOUS
10
6.19143
20
-3.49298
11
6.18718
21
-3.49611
0
LINE
8
BLACK
6
CONTINUOUS
10
6.18718
20
-3.49611
11
6.1822
21
-3.49786
0
LINE
8
BLACK
6
CONTINUOUS
10
6.1822
20
-3.49786
11
6.17891
21
-3.49817
0
LINE
8
BLACK
6
CONTINUOUS
10
6.17891
20
-3.49817
11
6.1415
21
-3.49817
0
LINE
8
BLACK
6
CONTINUOUS
10
6.1415
20
-3.49817
11
6.13821
21
-3.49786
0
LINE
8
BLACK
6
CONTINUOUS
10
6.13821
20
-3.49786
11
6.13323
21
-3.49611
0
LINE
8
BLACK
6
CONTINUOUS
10
6.13323
20
-3.49611
11
6.12898
21
-3.49298
0
LINE
8
BLACK
6
CONTINUOUS
10
6.12898
20
-3.49298
11
6.12584
21
-3.48873
0
LINE
8
BLACK
6
CONTINUOUS
10
6.12584
20
-3.48873
11
6.1241
21
-3.48374
0
LINE
8
BLACK
6
CONTINUOUS
10
6.1241
20
-3.48374
11
6.12379
21
-3.48045
0
LINE
8
BLACK
6
CONTINUOUS
10
6.12379
20
-3.48045
11
6.12379
21
-3.46076
0
LINE
8
BLACK
6
CONTINUOUS
10
6.12379
20
-3.46076
11
6.1241
21
-3.45747
0
LINE
8
BLACK
6
CONTINUOUS
10
6.1241
20
-3.45747
11
6.12584
21
-3.45249
0
LINE
8
BLACK
6
CONTINUOUS
10
6.12584
20
-3.45249
11
6.12898
21
-3.44824
0
LINE
8
BLACK
6
CONTINUOUS
10
6.12898
20
-3.44824
11
6.13323
21
-3.4451
0
LINE
8
BLACK
6
CONTINUOUS
10
6.13323
20
-3.4451
11
6.13821
21
-3.44336
0
LINE
8
BLACK
6
CONTINUOUS
10
6.13821
20
-3.44336
11
6.1415
21
-3.44305
0
LINE
8
BLACK
6
CONTINUOUS
10
6.1415
20
-3.44305
11
6.17891
21
-3.44305
0
LINE
8
BLACK
6
CONTINUOUS
10
6.17891
20
-3.44305
11
6.1822
21
-3.44336
0
LINE
8
BLACK
6
CONTINUOUS
10
6.0182
20
-3.44253
11
6.02318
21
-3.44427
0
LINE
8
BLACK
6
CONTINUOUS
10
6.02318
20
-3.44427
11
6.02743
21
-3.44741
0
LINE
8
BLACK
6
CONTINUOUS
10
6.02743
20
-3.44741
11
6.03057
21
-3.45165
0
LINE
8
BLACK
6
CONTINUOUS
10
6.03057
20
-3.45165
11
6.03231
21
-3.45664
0
LINE
8
BLACK
6
CONTINUOUS
10
6.03231
20
-3.45664
11
6.03262
21
-3.45993
0
LINE
8
BLACK
6
CONTINUOUS
10
6.03262
20
-3.45993
11
6.03262
21
-3.47962
0
LINE
8
BLACK
6
CONTINUOUS
10
6.03262
20
-3.47962
11
6.03231
21
-3.48291
0
LINE
8
BLACK
6
CONTINUOUS
10
6.03231
20
-3.48291
11
6.03057
21
-3.4879
0
LINE
8
BLACK
6
CONTINUOUS
10
6.03057
20
-3.4879
11
6.02743
21
-3.49215
0
LINE
8
BLACK
6
CONTINUOUS
10
6.02743
20
-3.49215
11
6.02318
21
-3.49528
0
LINE
8
BLACK
6
CONTINUOUS
10
6.02318
20
-3.49528
11
6.0182
21
-3.49703
0
LINE
8
BLACK
6
CONTINUOUS
10
6.0182
20
-3.49703
11
6.01491
21
-3.49733
0
LINE
8
BLACK
6
CONTINUOUS
10
6.01491
20
-3.49733
11
5.9775
21
-3.49733
0
LINE
8
BLACK
6
CONTINUOUS
10
5.9775
20
-3.49733
11
5.97421
21
-3.49703
0
LINE
8
BLACK
6
CONTINUOUS
10
5.97421
20
-3.49703
11
5.96923
21
-3.49528
0
LINE
8
BLACK
6
CONTINUOUS
10
5.96923
20
-3.49528
11
5.96498
21
-3.49215
0
LINE
8
BLACK
6
CONTINUOUS
10
5.96498
20
-3.49215
11
5.96184
21
-3.4879
0
LINE
8
BLACK
6
CONTINUOUS
10
5.96184
20
-3.4879
11
5.9601
21
-3.48291
0
LINE
8
BLACK
6
CONTINUOUS
10
5.9601
20
-3.48291
11
5.95979
21
-3.47962
0
LINE
8
BLACK
6
CONTINUOUS
10
5.95979
20
-3.47962
11
5.95979
21
-3.45993
0
LINE
8
BLACK
6
CONTINUOUS
10
5.95979
20
-3.45993
11
5.9601
21
-3.45664
0
LINE
8
BLACK
6
CONTINUOUS
10
5.9601
20
-3.45664
11
5.96184
21
-3.45165
0
LINE
8
BLACK
6
CONTINUOUS
10
5.96184
20
-3.45165
11
5.96498
21
-3.44741
0
LINE
8
BLACK
6
CONTINUOUS
10
5.96498
20
-3.44741
11
5.96923
21
-3.44427
0
LINE
8
BLACK
6
CONTINUOUS
10
5.96923
20
-3.44427
11
5.97421
21
-3.44253
0
LINE
8
BLACK
6
CONTINUOUS
10
5.97421
20
-3.44253
11
5.9775
21
-3.44222
0
LINE
8
BLACK
6
CONTINUOUS
10
5.9775
20
-3.44222
11
6.01491
21
-3.44222
0
LINE
8
BLACK
6
CONTINUOUS
10
6.01491
20
-3.44222
11
6.0182
21
-3.44253
0
LINE
8
BLACK
6
CONTINUOUS
10
5.8532
20
-3.44236
11
5.85818
21
-3.4441
0
LINE
8
BLACK
6
CONTINUOUS
10
5.85818
20
-3.4441
11
5.86243
21
-3.44724
0
LINE
8
BLACK
6
CONTINUOUS
10
5.86243
20
-3.44724
11
5.86557
21
-3.45149
0
LINE
8
BLACK
6
CONTINUOUS
10
5.86557
20
-3.45149
11
5.86731
21
-3.45647
0
LINE
8
BLACK
6
CONTINUOUS
10
5.86731
20
-3.45647
11
5.86762
21
-3.45976
0
LINE
8
BLACK
6
CONTINUOUS
10
5.86762
20
-3.45976
11
5.86762
21
-3.47945
0
LINE
8
BLACK
6
CONTINUOUS
10
5.86762
20
-3.47945
11
5.86731
21
-3.48274
0
LINE
8
BLACK
6
CONTINUOUS
10
5.86731
20
-3.48274
11
5.86557
21
-3.48773
0
LINE
8
BLACK
6
CONTINUOUS
10
5.86557
20
-3.48773
11
5.86243
21
-3.49198
0
LINE
8
BLACK
6
CONTINUOUS
10
5.86243
20
-3.49198
11
5.85818
21
-3.49511
0
LINE
8
BLACK
6
CONTINUOUS
10
5.85818
20
-3.49511
11
5.8532
21
-3.49686
0
LINE
8
BLACK
6
CONTINUOUS
10
5.8532
20
-3.49686
11
5.84991
21
-3.49717
0
LINE
8
BLACK
6
CONTINUOUS
10
5.84991
20
-3.49717
11
5.8125
21
-3.49717
0
LINE
8
BLACK
6
CONTINUOUS
10
5.8125
20
-3.49717
11
5.80921
21
-3.49686
0
LINE
8
BLACK
6
CONTINUOUS
10
5.80921
20
-3.49686
11
5.80423
21
-3.49511
0
LINE
8
BLACK
6
CONTINUOUS
10
5.80423
20
-3.49511
11
5.79998
21
-3.49198
0
LINE
8
BLACK
6
CONTINUOUS
10
5.79998
20
-3.49198
11
5.79684
21
-3.48773
0
LINE
8
BLACK
6
CONTINUOUS
10
5.79684
20
-3.48773
11
5.7951
21
-3.48274
0
LINE
8
BLACK
6
CONTINUOUS
10
5.7951
20
-3.48274
11
5.79479
21
-3.47945
0
LINE
8
BLACK
6
CONTINUOUS
10
5.79479
20
-3.47945
11
5.79479
21
-3.45976
0
LINE
8
BLACK
6
CONTINUOUS
10
5.79479
20
-3.45976
11
5.7951
21
-3.45647
0
LINE
8
BLACK
6
CONTINUOUS
10
5.7951
20
-3.45647
11
5.79684
21
-3.45149
0
LINE
8
BLACK
6
CONTINUOUS
10
5.79684
20
-3.45149
11
5.79998
21
-3.44724
0
LINE
8
BLACK
6
CONTINUOUS
10
5.79998
20
-3.44724
11
5.80423
21
-3.4441
0
LINE
8
BLACK
6
CONTINUOUS
10
5.80423
20
-3.4441
11
5.80921
21
-3.44236
0
LINE
8
BLACK
6
CONTINUOUS
10
5.80921
20
-3.44236
11
5.8125
21
-3.44205
0
LINE
8
BLACK
6
CONTINUOUS
10
5.8125
20
-3.44205
11
5.84991
21
-3.44205
0
LINE
8
BLACK
6
CONTINUOUS
10
5.84991
20
-3.44205
11
5.8532
21
-3.44236
0
LINE
8
BLACK
6
CONTINUOUS
10
6.26031
20
-3.44189
11
6.2649
21
-3.44423
0
LINE
8
BLACK
6
CONTINUOUS
10
6.2649
20
-3.44423
11
6.26855
21
-3.44787
0
LINE
8
BLACK
6
CONTINUOUS
10
6.26855
20
-3.44787
11
6.27089
21
-3.45247
0
LINE
8
BLACK
6
CONTINUOUS
10
6.27089
20
-3.45247
11
6.2717
21
-3.45756
0
LINE
8
BLACK
6
CONTINUOUS
10
6.2717
20
-3.45756
11
6.2717
21
-3.47479
0
LINE
8
BLACK
6
CONTINUOUS
10
6.2717
20
-3.47479
11
6.27089
21
-3.47988
0
LINE
8
BLACK
6
CONTINUOUS
10
6.27089
20
-3.47988
11
6.26855
21
-3.48448
0
LINE
8
BLACK
6
CONTINUOUS
10
6.26855
20
-3.48448
11
6.2649
21
-3.48813
0
LINE
8
BLACK
6
CONTINUOUS
10
6.2649
20
-3.48813
11
6.26031
21
-3.49047
0
LINE
8
BLACK
6
CONTINUOUS
10
6.26031
20
-3.49047
11
6.25521
21
-3.49128
0
LINE
8
BLACK
6
CONTINUOUS
10
6.25521
20
-3.49128
11
6.22519
21
-3.49128
0
LINE
8
BLACK
6
CONTINUOUS
10
6.22519
20
-3.49128
11
6.2201
21
-3.49047
0
LINE
8
BLACK
6
CONTINUOUS
10
6.2201
20
-3.49047
11
6.2155
21
-3.48813
0
LINE
8
BLACK
6
CONTINUOUS
10
6.2155
20
-3.48813
11
6.21186
21
-3.48448
0
LINE
8
BLACK
6
CONTINUOUS
10
6.21186
20
-3.48448
11
6.20952
21
-3.47988
0
LINE
8
BLACK
6
CONTINUOUS
10
6.20952
20
-3.47988
11
6.20871
21
-3.47479
0
LINE
8
BLACK
6
CONTINUOUS
10
6.20871
20
-3.47479
11
6.20871
21
-3.45756
0
LINE
8
BLACK
6
CONTINUOUS
10
6.20871
20
-3.45756
11
6.20952
21
-3.45247
0
LINE
8
BLACK
6
CONTINUOUS
10
6.20952
20
-3.45247
11
6.21186
21
-3.44787
0
LINE
8
BLACK
6
CONTINUOUS
10
6.21186
20
-3.44787
11
6.2155
21
-3.44423
0
LINE
8
BLACK
6
CONTINUOUS
10
6.2155
20
-3.44423
11
6.2201
21
-3.44189
0
LINE
8
BLACK
6
CONTINUOUS
10
6.2201
20
-3.44189
11
6.22519
21
-3.44108
0
LINE
8
BLACK
6
CONTINUOUS
10
6.22519
20
-3.44108
11
6.25521
21
-3.44108
0
LINE
8
BLACK
6
CONTINUOUS
10
6.25521
20
-3.44108
11
6.26031
21
-3.44189
0
LINE
8
BLACK
6
CONTINUOUS
10
6.09631
20
-3.44105
11
6.1009
21
-3.4434
0
LINE
8
BLACK
6
CONTINUOUS
10
6.1009
20
-3.4434
11
6.10455
21
-3.44704
0
LINE
8
BLACK
6
CONTINUOUS
10
6.10455
20
-3.44704
11
6.10689
21
-3.45164
0
LINE
8
BLACK
6
CONTINUOUS
10
6.10689
20
-3.45164
11
6.1077
21
-3.45673
0
LINE
8
BLACK
6
CONTINUOUS
10
6.1077
20
-3.45673
11
6.1077
21
-3.47396
0
LINE
8
BLACK
6
CONTINUOUS
10
6.1077
20
-3.47396
11
6.10689
21
-3.47905
0
LINE
8
BLACK
6
CONTINUOUS
10
6.10689
20
-3.47905
11
6.10455
21
-3.48365
0
LINE
8
BLACK
6
CONTINUOUS
10
6.10455
20
-3.48365
11
6.1009
21
-3.4873
0
LINE
8
BLACK
6
CONTINUOUS
10
6.1009
20
-3.4873
11
6.09631
21
-3.48964
0
LINE
8
BLACK
6
CONTINUOUS
10
6.09631
20
-3.48964
11
6.09121
21
-3.49044
0
LINE
8
BLACK
6
CONTINUOUS
10
6.09121
20
-3.49044
11
6.06119
21
-3.49044
0
LINE
8
BLACK
6
CONTINUOUS
10
6.06119
20
-3.49044
11
6.0561
21
-3.48964
0
LINE
8
BLACK
6
CONTINUOUS
10
6.0561
20
-3.48964
11
6.0515
21
-3.4873
0
LINE
8
BLACK
6
CONTINUOUS
10
6.0515
20
-3.4873
11
6.04786
21
-3.48365
0
LINE
8
BLACK
6
CONTINUOUS
10
6.04786
20
-3.48365
11
6.04552
21
-3.47905
0
LINE
8
BLACK
6
CONTINUOUS
10
6.04552
20
-3.47905
11
6.04471
21
-3.47396
0
LINE
8
BLACK
6
CONTINUOUS
10
6.04471
20
-3.47396
11
6.04471
21
-3.45673
0
LINE
8
BLACK
6
CONTINUOUS
10
6.04471
20
-3.45673
11
6.04552
21
-3.45164
0
LINE
8
BLACK
6
CONTINUOUS
10
6.04552
20
-3.45164
11
6.04786
21
-3.44704
0
LINE
8
BLACK
6
CONTINUOUS
10
6.04786
20
-3.44704
11
6.0515
21
-3.4434
0
LINE
8
BLACK
6
CONTINUOUS
10
6.0515
20
-3.4434
11
6.0561
21
-3.44105
0
LINE
8
BLACK
6
CONTINUOUS
10
6.0561
20
-3.44105
11
6.06119
21
-3.44025
0
LINE
8
BLACK
6
CONTINUOUS
10
6.06119
20
-3.44025
11
6.09121
21
-3.44025
0
LINE
8
BLACK
6
CONTINUOUS
10
6.09121
20
-3.44025
11
6.09631
21
-3.44105
0
LINE
8
BLACK
6
CONTINUOUS
10
5.93131
20
-3.44089
11
5.9359
21
-3.44323
0
LINE
8
BLACK
6
CONTINUOUS
10
5.9359
20
-3.44323
11
5.93955
21
-3.44687
0
LINE
8
BLACK
6
CONTINUOUS
10
5.93955
20
-3.44687
11
5.94189
21
-3.45147
0
LINE
8
BLACK
6
CONTINUOUS
10
5.94189
20
-3.45147
11
5.9427
21
-3.45656
0
LINE
8
BLACK
6
CONTINUOUS
10
5.9427
20
-3.45656
11
5.9427
21
-3.47379
0
LINE
8
BLACK
6
CONTINUOUS
10
5.9427
20
-3.47379
11
5.94189
21
-3.47888
0
LINE
8
BLACK
6
CONTINUOUS
10
5.94189
20
-3.47888
11
5.93955
21
-3.48348
0
LINE
8
BLACK
6
CONTINUOUS
10
5.93955
20
-3.48348
11
5.9359
21
-3.48713
0
LINE
8
BLACK
6
CONTINUOUS
10
5.9359
20
-3.48713
11
5.93131
21
-3.48947
0
LINE
8
BLACK
6
CONTINUOUS
10
5.93131
20
-3.48947
11
5.92621
21
-3.49028
0
LINE
8
BLACK
6
CONTINUOUS
10
5.92621
20
-3.49028
11
5.89619
21
-3.49028
0
LINE
8
BLACK
6
CONTINUOUS
10
5.89619
20
-3.49028
11
5.8911
21
-3.48947
0
LINE
8
BLACK
6
CONTINUOUS
10
5.8911
20
-3.48947
11
5.8865
21
-3.48713
0
LINE
8
BLACK
6
CONTINUOUS
10
5.8865
20
-3.48713
11
5.88286
21
-3.48348
0
LINE
8
BLACK
6
CONTINUOUS
10
5.88286
20
-3.48348
11
5.88052
21
-3.47888
0
LINE
8
BLACK
6
CONTINUOUS
10
5.88052
20
-3.47888
11
5.87971
21
-3.47379
0
LINE
8
BLACK
6
CONTINUOUS
10
5.87971
20
-3.47379
11
5.87971
21
-3.45656
0
LINE
8
BLACK
6
CONTINUOUS
10
5.87971
20
-3.45656
11
5.88052
21
-3.45147
0
LINE
8
BLACK
6
CONTINUOUS
10
5.88052
20
-3.45147
11
5.88286
21
-3.44687
0
LINE
8
BLACK
6
CONTINUOUS
10
5.88286
20
-3.44687
11
5.8865
21
-3.44323
0
LINE
8
BLACK
6
CONTINUOUS
10
5.8865
20
-3.44323
11
5.8911
21
-3.44089
0
LINE
8
BLACK
6
CONTINUOUS
10
5.8911
20
-3.44089
11
5.89619
21
-3.44008
0
LINE
8
BLACK
6
CONTINUOUS
10
5.89619
20
-3.44008
11
5.92621
21
-3.44008
0
LINE
8
BLACK
6
CONTINUOUS
10
5.92621
20
-3.44008
11
5.93131
21
-3.44089
0
LINE
8
BLACK
6
CONTINUOUS
10
5.22752
20
-3.34875
11
5.23644
21
-3.35182
0
LINE
8
BLACK
6
CONTINUOUS
10
5.23644
20
-3.35182
11
5.24473
21
-3.3563
0
LINE
8
BLACK
6
CONTINUOUS
10
5.24473
20
-3.3563
11
5.25217
21
-3.36209
0
LINE
8
BLACK
6
CONTINUOUS
10
5.25217
20
-3.36209
11
5.25855
21
-3.36903
0
LINE
8
BLACK
6
CONTINUOUS
10
5.25855
20
-3.36903
11
5.26371
21
-3.37692
0
LINE
8
BLACK
6
CONTINUOUS
10
5.26371
20
-3.37692
11
5.2675
21
-3.38556
0
LINE
8
BLACK
6
CONTINUOUS
10
5.2675
20
-3.38556
11
5.26981
21
-3.3947
0
LINE
8
BLACK
6
CONTINUOUS
10
5.26981
20
-3.3947
11
5.27059
21
-3.40409
0
LINE
8
BLACK
6
CONTINUOUS
10
5.27059
20
-3.40409
11
5.26981
21
-3.41349
0
LINE
8
BLACK
6
CONTINUOUS
10
5.26981
20
-3.41349
11
5.2675
21
-3.42263
0
LINE
8
BLACK
6
CONTINUOUS
10
5.2675
20
-3.42263
11
5.26371
21
-3.43126
0
LINE
8
BLACK
6
CONTINUOUS
10
5.26371
20
-3.43126
11
5.25855
21
-3.43916
0
LINE
8
BLACK
6
CONTINUOUS
10
5.25855
20
-3.43916
11
5.25217
21
-3.44609
0
LINE
8
BLACK
6
CONTINUOUS
10
5.25217
20
-3.44609
11
5.24473
21
-3.45189
0
LINE
8
BLACK
6
CONTINUOUS
10
5.24473
20
-3.45189
11
5.23644
21
-3.45637
0
LINE
8
BLACK
6
CONTINUOUS
10
5.23644
20
-3.45637
11
5.22752
21
-3.45943
0
LINE
8
BLACK
6
CONTINUOUS
10
5.22752
20
-3.45943
11
5.21822
21
-3.46099
0
LINE
8
BLACK
6
CONTINUOUS
10
5.21822
20
-3.46099
11
5.20879
21
-3.46099
0
LINE
8
BLACK
6
CONTINUOUS
10
5.20879
20
-3.46099
11
5.19949
21
-3.45943
0
LINE
8
BLACK
6
CONTINUOUS
10
5.19949
20
-3.45943
11
5.19057
21
-3.45637
0
LINE
8
BLACK
6
CONTINUOUS
10
5.19057
20
-3.45637
11
5.18228
21
-3.45189
0
LINE
8
BLACK
6
CONTINUOUS
10
5.18228
20
-3.45189
11
5.17484
21
-3.44609
0
LINE
8
BLACK
6
CONTINUOUS
10
5.17484
20
-3.44609
11
5.16845
21
-3.43916
0
LINE
8
BLACK
6
CONTINUOUS
10
5.16845
20
-3.43916
11
5.1633
21
-3.43126
0
LINE
8
BLACK
6
CONTINUOUS
10
5.1633
20
-3.43126
11
5.15951
21
-3.42263
0
LINE
8
BLACK
6
CONTINUOUS
10
5.15951
20
-3.42263
11
5.1572
21
-3.41349
0
LINE
8
BLACK
6
CONTINUOUS
10
5.1572
20
-3.41349
11
5.15642
21
-3.40409
0
LINE
8
BLACK
6
CONTINUOUS
10
5.15642
20
-3.40409
11
5.1572
21
-3.3947
0
LINE
8
BLACK
6
CONTINUOUS
10
5.1572
20
-3.3947
11
5.15951
21
-3.38556
0
LINE
8
BLACK
6
CONTINUOUS
10
5.15951
20
-3.38556
11
5.1633
21
-3.37692
0
LINE
8
BLACK
6
CONTINUOUS
10
5.1633
20
-3.37692
11
5.16845
21
-3.36903
0
LINE
8
BLACK
6
CONTINUOUS
10
5.16845
20
-3.36903
11
5.17484
21
-3.36209
0
LINE
8
BLACK
6
CONTINUOUS
10
5.17484
20
-3.36209
11
5.18228
21
-3.3563
0
LINE
8
BLACK
6
CONTINUOUS
10
5.18228
20
-3.3563
11
5.19057
21
-3.35182
0
LINE
8
BLACK
6
CONTINUOUS
10
5.19057
20
-3.35182
11
5.19949
21
-3.34875
0
LINE
8
BLACK
6
CONTINUOUS
10
5.19949
20
-3.34875
11
5.20879
21
-3.3472
0
LINE
8
BLACK
6
CONTINUOUS
10
5.20879
20
-3.3472
11
5.21822
21
-3.3472
0
LINE
8
BLACK
6
CONTINUOUS
10
5.21822
20
-3.3472
11
5.22752
21
-3.34875
0
LINE
8
BLACK
6
CONTINUOUS
10
6.95882
20
-3.34875
11
6.96773
21
-3.35182
0
LINE
8
BLACK
6
CONTINUOUS
10
6.96773
20
-3.35182
11
6.97603
21
-3.3563
0
LINE
8
BLACK
6
CONTINUOUS
10
6.97603
20
-3.3563
11
6.98347
21
-3.36209
0
LINE
8
BLACK
6
CONTINUOUS
10
6.98347
20
-3.36209
11
6.98985
21
-3.36903
0
LINE
8
BLACK
6
CONTINUOUS
10
6.98985
20
-3.36903
11
6.99501
21
-3.37692
0
LINE
8
BLACK
6
CONTINUOUS
10
6.99501
20
-3.37692
11
6.9988
21
-3.38556
0
LINE
8
BLACK
6
CONTINUOUS
10
6.9988
20
-3.38556
11
7.00111
21
-3.3947
0
LINE
8
BLACK
6
CONTINUOUS
10
7.00111
20
-3.3947
11
7.00189
21
-3.40409
0
LINE
8
BLACK
6
CONTINUOUS
10
7.00189
20
-3.40409
11
7.00111
21
-3.41349
0
LINE
8
BLACK
6
CONTINUOUS
10
7.00111
20
-3.41349
11
6.9988
21
-3.42263
0
LINE
8
BLACK
6
CONTINUOUS
10
6.9988
20
-3.42263
11
6.99501
21
-3.43126
0
LINE
8
BLACK
6
CONTINUOUS
10
6.99501
20
-3.43126
11
6.98985
21
-3.43916
0
LINE
8
BLACK
6
CONTINUOUS
10
6.98985
20
-3.43916
11
6.98347
21
-3.44609
0
LINE
8
BLACK
6
CONTINUOUS
10
6.98347
20
-3.44609
11
6.97603
21
-3.45189
0
LINE
8
BLACK
6
CONTINUOUS
10
6.97603
20
-3.45189
11
6.96773
21
-3.45637
0
LINE
8
BLACK
6
CONTINUOUS
10
6.96773
20
-3.45637
11
6.95882
21
-3.45943
0
LINE
8
BLACK
6
CONTINUOUS
10
6.95882
20
-3.45943
11
6.94952
21
-3.46099
0
LINE
8
BLACK
6
CONTINUOUS
10
6.94952
20
-3.46099
11
6.94009
21
-3.46099
0
LINE
8
BLACK
6
CONTINUOUS
10
6.94009
20
-3.46099
11
6.93079
21
-3.45943
0
LINE
8
BLACK
6
CONTINUOUS
10
6.93079
20
-3.45943
11
6.92187
21
-3.45637
0
LINE
8
BLACK
6
CONTINUOUS
10
6.92187
20
-3.45637
11
6.91358
21
-3.45189
0
LINE
8
BLACK
6
CONTINUOUS
10
6.91358
20
-3.45189
11
6.90614
21
-3.44609
0
LINE
8
BLACK
6
CONTINUOUS
10
6.90614
20
-3.44609
11
6.89975
21
-3.43916
0
LINE
8
BLACK
6
CONTINUOUS
10
6.89975
20
-3.43916
11
6.8946
21
-3.43126
0
LINE
8
BLACK
6
CONTINUOUS
10
6.8946
20
-3.43126
11
6.89081
21
-3.42263
0
LINE
8
BLACK
6
CONTINUOUS
10
6.89081
20
-3.42263
11
6.8885
21
-3.41349
0
LINE
8
BLACK
6
CONTINUOUS
10
6.8885
20
-3.41349
11
6.88772
21
-3.40409
0
LINE
8
BLACK
6
CONTINUOUS
10
6.88772
20
-3.40409
11
6.8885
21
-3.3947
0
LINE
8
BLACK
6
CONTINUOUS
10
6.8885
20
-3.3947
11
6.89081
21
-3.38556
0
LINE
8
BLACK
6
CONTINUOUS
10
6.89081
20
-3.38556
11
6.8946
21
-3.37692
0
LINE
8
BLACK
6
CONTINUOUS
10
6.8946
20
-3.37692
11
6.89975
21
-3.36903
0
LINE
8
BLACK
6
CONTINUOUS
10
6.89975
20
-3.36903
11
6.90614
21
-3.36209
0
LINE
8
BLACK
6
CONTINUOUS
10
6.90614
20
-3.36209
11
6.91358
21
-3.3563
0
LINE
8
BLACK
6
CONTINUOUS
10
6.91358
20
-3.3563
11
6.92187
21
-3.35182
0
LINE
8
BLACK
6
CONTINUOUS
10
6.92187
20
-3.35182
11
6.93079
21
-3.34875
0
LINE
8
BLACK
6
CONTINUOUS
10
6.93079
20
-3.34875
11
6.94009
21
-3.3472
0
LINE
8
BLACK
6
CONTINUOUS
10
6.94009
20
-3.3472
11
6.94952
21
-3.3472
0
LINE
8
BLACK
6
CONTINUOUS
10
6.94952
20
-3.3472
11
6.95882
21
-3.34875
0
LINE
8
BLACK
6
CONTINUOUS
10
5.92508
20
-3.36532
11
5.92968
21
-3.36766
0
LINE
8
BLACK
6
CONTINUOUS
10
5.92968
20
-3.36766
11
5.93332
21
-3.37131
0
LINE
8
BLACK
6
CONTINUOUS
10
5.93332
20
-3.37131
11
5.93567
21
-3.3759
0
LINE
8
BLACK
6
CONTINUOUS
10
5.93567
20
-3.3759
11
5.93647
21
-3.381
0
LINE
8
BLACK
6
CONTINUOUS
10
5.93647
20
-3.381
11
5.93647
21
-3.41102
0
LINE
8
BLACK
6
CONTINUOUS
10
5.93647
20
-3.41102
11
5.93567
21
-3.41611
0
LINE
8
BLACK
6
CONTINUOUS
10
5.93567
20
-3.41611
11
5.93332
21
-3.42071
0
LINE
8
BLACK
6
CONTINUOUS
10
5.93332
20
-3.42071
11
5.92968
21
-3.42436
0
LINE
8
BLACK
6
CONTINUOUS
10
5.92968
20
-3.42436
11
5.92508
21
-3.4267
0
LINE
8
BLACK
6
CONTINUOUS
10
5.92508
20
-3.4267
11
5.91999
21
-3.4275
0
LINE
8
BLACK
6
CONTINUOUS
10
5.91999
20
-3.4275
11
5.90276
21
-3.4275
0
LINE
8
BLACK
6
CONTINUOUS
10
5.90276
20
-3.4275
11
5.89767
21
-3.4267
0
LINE
8
BLACK
6
CONTINUOUS
10
5.89767
20
-3.4267
11
5.89307
21
-3.42436
0
LINE
8
BLACK
6
CONTINUOUS
10
5.89307
20
-3.42436
11
5.88942
21
-3.42071
0
LINE
8
BLACK
6
CONTINUOUS
10
5.88942
20
-3.42071
11
5.88708
21
-3.41611
0
LINE
8
BLACK
6
CONTINUOUS
10
5.88708
20
-3.41611
11
5.88628
21
-3.41102
0
LINE
8
BLACK
6
CONTINUOUS
10
5.88628
20
-3.41102
11
5.88628
21
-3.381
0
LINE
8
BLACK
6
CONTINUOUS
10
5.88628
20
-3.381
11
5.88708
21
-3.3759
0
LINE
8
BLACK
6
CONTINUOUS
10
5.88708
20
-3.3759
11
5.88942
21
-3.37131
0
LINE
8
BLACK
6
CONTINUOUS
10
5.88942
20
-3.37131
11
5.89307
21
-3.36766
0
LINE
8
BLACK
6
CONTINUOUS
10
5.89307
20
-3.36766
11
5.89767
21
-3.36532
0
LINE
8
BLACK
6
CONTINUOUS
10
5.89767
20
-3.36532
11
5.90276
21
-3.36451
0
LINE
8
BLACK
6
CONTINUOUS
10
5.90276
20
-3.36451
11
5.91999
21
-3.36451
0
LINE
8
BLACK
6
CONTINUOUS
10
5.91999
20
-3.36451
11
5.92508
21
-3.36532
0
LINE
8
BLACK
6
CONTINUOUS
10
6.00874
20
-3.36532
11
6.01334
21
-3.36766
0
LINE
8
BLACK
6
CONTINUOUS
10
6.01334
20
-3.36766
11
6.01699
21
-3.37131
0
LINE
8
BLACK
6
CONTINUOUS
10
6.01699
20
-3.37131
11
6.01933
21
-3.3759
0
LINE
8
BLACK
6
CONTINUOUS
10
6.01933
20
-3.3759
11
6.02013
21
-3.381
0
LINE
8
BLACK
6
CONTINUOUS
10
6.02013
20
-3.381
11
6.02013
21
-3.41102
0
LINE
8
BLACK
6
CONTINUOUS
10
6.02013
20
-3.41102
11
6.01933
21
-3.41611
0
LINE
8
BLACK
6
CONTINUOUS
10
6.01933
20
-3.41611
11
6.01699
21
-3.42071
0
LINE
8
BLACK
6
CONTINUOUS
10
6.01699
20
-3.42071
11
6.01334
21
-3.42436
0
LINE
8
BLACK
6
CONTINUOUS
10
6.01334
20
-3.42436
11
6.00874
21
-3.4267
0
LINE
8
BLACK
6
CONTINUOUS
10
6.00874
20
-3.4267
11
6.00365
21
-3.4275
0
LINE
8
BLACK
6
CONTINUOUS
10
6.00365
20
-3.4275
11
5.98642
21
-3.4275
0
LINE
8
BLACK
6
CONTINUOUS
10
5.98642
20
-3.4275
11
5.98133
21
-3.4267
0
LINE
8
BLACK
6
CONTINUOUS
10
5.98133
20
-3.4267
11
5.97673
21
-3.42436
0
LINE
8
BLACK
6
CONTINUOUS
10
5.97673
20
-3.42436
11
5.97309
21
-3.42071
0
LINE
8
BLACK
6
CONTINUOUS
10
5.97309
20
-3.42071
11
5.97074
21
-3.41611
0
LINE
8
BLACK
6
CONTINUOUS
10
5.97074
20
-3.41611
11
5.96994
21
-3.41102
0
LINE
8
BLACK
6
CONTINUOUS
10
5.96994
20
-3.41102
11
5.96994
21
-3.381
0
LINE
8
BLACK
6
CONTINUOUS
10
5.96994
20
-3.381
11
5.97074
21
-3.3759
0
LINE
8
BLACK
6
CONTINUOUS
10
5.97074
20
-3.3759
11
5.97309
21
-3.37131
0
LINE
8
BLACK
6
CONTINUOUS
10
5.97309
20
-3.37131
11
5.97673
21
-3.36766
0
LINE
8
BLACK
6
CONTINUOUS
10
5.97673
20
-3.36766
11
5.98133
21
-3.36532
0
LINE
8
BLACK
6
CONTINUOUS
10
5.98133
20
-3.36532
11
5.98642
21
-3.36451
0
LINE
8
BLACK
6
CONTINUOUS
10
5.98642
20
-3.36451
11
6.00365
21
-3.36451
0
LINE
8
BLACK
6
CONTINUOUS
10
6.00365
20
-3.36451
11
6.00874
21
-3.36532
0
LINE
8
BLACK
6
CONTINUOUS
10
6.09008
20
-3.36532
11
6.09468
21
-3.36766
0
LINE
8
BLACK
6
CONTINUOUS
10
6.09468
20
-3.36766
11
6.09832
21
-3.37131
0
LINE
8
BLACK
6
CONTINUOUS
10
6.09832
20
-3.37131
11
6.10067
21
-3.3759
0
LINE
8
BLACK
6
CONTINUOUS
10
6.10067
20
-3.3759
11
6.10147
21
-3.381
0
LINE
8
BLACK
6
CONTINUOUS
10
6.10147
20
-3.381
11
6.10147
21
-3.41102
0
LINE
8
BLACK
6
CONTINUOUS
10
6.10147
20
-3.41102
11
6.10067
21
-3.41611
0
LINE
8
BLACK
6
CONTINUOUS
10
6.10067
20
-3.41611
11
6.09832
21
-3.42071
0
LINE
8
BLACK
6
CONTINUOUS
10
6.09832
20
-3.42071
11
6.09468
21
-3.42436
0
LINE
8
BLACK
6
CONTINUOUS
10
6.09468
20
-3.42436
11
6.09008
21
-3.4267
0
LINE
8
BLACK
6
CONTINUOUS
10
6.09008
20
-3.4267
11
6.08499
21
-3.4275
0
LINE
8
BLACK
6
CONTINUOUS
10
6.08499
20
-3.4275
11
6.06776
21
-3.4275
0
LINE
8
BLACK
6
CONTINUOUS
10
6.06776
20
-3.4275
11
6.06267
21
-3.4267
0
LINE
8
BLACK
6
CONTINUOUS
10
6.06267
20
-3.4267
11
6.05807
21
-3.42436
0
LINE
8
BLACK
6
CONTINUOUS
10
6.05807
20
-3.42436
11
6.05442
21
-3.42071
0
LINE
8
BLACK
6
CONTINUOUS
10
6.05442
20
-3.42071
11
6.05208
21
-3.41611
0
LINE
8
BLACK
6
CONTINUOUS
10
6.05208
20
-3.41611
11
6.05128
21
-3.41102
0
LINE
8
BLACK
6
CONTINUOUS
10
6.05128
20
-3.41102
11
6.05128
21
-3.381
0
LINE
8
BLACK
6
CONTINUOUS
10
6.05128
20
-3.381
11
6.05208
21
-3.3759
0
LINE
8
BLACK
6
CONTINUOUS
10
6.05208
20
-3.3759
11
6.05442
21
-3.37131
0
LINE
8
BLACK
6
CONTINUOUS
10
6.05442
20
-3.37131
11
6.05807
21
-3.36766
0
LINE
8
BLACK
6
CONTINUOUS
10
6.05807
20
-3.36766
11
6.06267
21
-3.36532
0
LINE
8
BLACK
6
CONTINUOUS
10
6.06267
20
-3.36532
11
6.06776
21
-3.36451
0
LINE
8
BLACK
6
CONTINUOUS
10
6.06776
20
-3.36451
11
6.08499
21
-3.36451
0
LINE
8
BLACK
6
CONTINUOUS
10
6.08499
20
-3.36451
11
6.09008
21
-3.36532
0
LINE
8
BLACK
6
CONTINUOUS
10
6.17374
20
-3.36532
11
6.17834
21
-3.36766
0
LINE
8
BLACK
6
CONTINUOUS
10
6.17834
20
-3.36766
11
6.18199
21
-3.37131
0
LINE
8
BLACK
6
CONTINUOUS
10
6.18199
20
-3.37131
11
6.18433
21
-3.3759
0
LINE
8
BLACK
6
CONTINUOUS
10
6.18433
20
-3.3759
11
6.18513
21
-3.381
0
LINE
8
BLACK
6
CONTINUOUS
10
6.18513
20
-3.381
11
6.18513
21
-3.41102
0
LINE
8
BLACK
6
CONTINUOUS
10
6.18513
20
-3.41102
11
6.18433
21
-3.41611
0
LINE
8
BLACK
6
CONTINUOUS
10
6.18433
20
-3.41611
11
6.18199
21
-3.42071
0
LINE
8
BLACK
6
CONTINUOUS
10
6.18199
20
-3.42071
11
6.17834
21
-3.42436
0
LINE
8
BLACK
6
CONTINUOUS
10
6.17834
20
-3.42436
11
6.17374
21
-3.4267
0
LINE
8
BLACK
6
CONTINUOUS
10
6.17374
20
-3.4267
11
6.16865
21
-3.4275
0
LINE
8
BLACK
6
CONTINUOUS
10
6.16865
20
-3.4275
11
6.15142
21
-3.4275
0
LINE
8
BLACK
6
CONTINUOUS
10
6.15142
20
-3.4275
11
6.14633
21
-3.4267
0
LINE
8
BLACK
6
CONTINUOUS
10
6.14633
20
-3.4267
11
6.14173
21
-3.42436
0
LINE
8
BLACK
6
CONTINUOUS
10
6.14173
20
-3.42436
11
6.13809
21
-3.42071
0
LINE
8
BLACK
6
CONTINUOUS
10
6.13809
20
-3.42071
11
6.13574
21
-3.41611
0
LINE
8
BLACK
6
CONTINUOUS
10
6.13574
20
-3.41611
11
6.13494
21
-3.41102
0
LINE
8
BLACK
6
CONTINUOUS
10
6.13494
20
-3.41102
11
6.13494
21
-3.381
0
LINE
8
BLACK
6
CONTINUOUS
10
6.13494
20
-3.381
11
6.13574
21
-3.3759
0
LINE
8
BLACK
6
CONTINUOUS
10
6.13574
20
-3.3759
11
6.13809
21
-3.37131
0
LINE
8
BLACK
6
CONTINUOUS
10
6.13809
20
-3.37131
11
6.14173
21
-3.36766
0
LINE
8
BLACK
6
CONTINUOUS
10
6.14173
20
-3.36766
11
6.14633
21
-3.36532
0
LINE
8
BLACK
6
CONTINUOUS
10
6.14633
20
-3.36532
11
6.15142
21
-3.36451
0
LINE
8
BLACK
6
CONTINUOUS
10
6.15142
20
-3.36451
11
6.16865
21
-3.36451
0
LINE
8
BLACK
6
CONTINUOUS
10
6.16865
20
-3.36451
11
6.17374
21
-3.36532
0
LINE
8
BLACK
6
CONTINUOUS
10
5.09891
20
-2.92182
11
5.11284
21
-2.92418
0
LINE
8
BLACK
6
CONTINUOUS
10
5.11284
20
-2.92418
11
5.12641
21
-2.92809
0
LINE
8
BLACK
6
CONTINUOUS
10
5.12641
20
-2.92809
11
5.13947
21
-2.9335
0
LINE
8
BLACK
6
CONTINUOUS
10
5.13947
20
-2.9335
11
5.15183
21
-2.94033
0
LINE
8
BLACK
6
CONTINUOUS
10
5.15183
20
-2.94033
11
5.16335
21
-2.94851
0
LINE
8
BLACK
6
CONTINUOUS
10
5.16335
20
-2.94851
11
5.17389
21
-2.95792
0
LINE
8
BLACK
6
CONTINUOUS
10
5.17389
20
-2.95792
11
5.1833
21
-2.96846
0
LINE
8
BLACK
6
CONTINUOUS
10
5.1833
20
-2.96846
11
5.19148
21
-2.97998
0
LINE
8
BLACK
6
CONTINUOUS
10
5.19148
20
-2.97998
11
5.19831
21
-2.99235
0
LINE
8
BLACK
6
CONTINUOUS
10
5.19831
20
-2.99235
11
5.20372
21
-3.0054
0
LINE
8
BLACK
6
CONTINUOUS
10
5.20372
20
-3.0054
11
5.20763
21
-3.01897
0
LINE
8
BLACK
6
CONTINUOUS
10
5.20763
20
-3.01897
11
5.21
21
-3.0329
0
LINE
8
BLACK
6
CONTINUOUS
10
5.21
20
-3.0329
11
5.21079
21
-3.04701
0
LINE
8
BLACK
6
CONTINUOUS
10
5.21079
20
-3.04701
11
5.21
21
-3.06111
0
LINE
8
BLACK
6
CONTINUOUS
10
5.21
20
-3.06111
11
5.20763
21
-3.07504
0
LINE
8
BLACK
6
CONTINUOUS
10
5.20763
20
-3.07504
11
5.20372
21
-3.08862
0
LINE
8
BLACK
6
CONTINUOUS
10
5.20372
20
-3.08862
11
5.19831
21
-3.10167
0
LINE
8
BLACK
6
CONTINUOUS
10
5.19831
20
-3.10167
11
5.19148
21
-3.11404
0
LINE
8
BLACK
6
CONTINUOUS
10
5.19148
20
-3.11404
11
5.1833
21
-3.12556
0
LINE
8
BLACK
6
CONTINUOUS
10
5.1833
20
-3.12556
11
5.17389
21
-3.13609
0
LINE
8
BLACK
6
CONTINUOUS
10
5.17389
20
-3.13609
11
5.16335
21
-3.14551
0
LINE
8
BLACK
6
CONTINUOUS
10
5.16335
20
-3.14551
11
5.15183
21
-3.15368
0
LINE
8
BLACK
6
CONTINUOUS
10
5.15183
20
-3.15368
11
5.13947
21
-3.16052
0
LINE
8
BLACK
6
CONTINUOUS
10
5.13947
20
-3.16052
11
5.12641
21
-3.16592
0
LINE
8
BLACK
6
CONTINUOUS
10
5.12641
20
-3.16592
11
5.11284
21
-3.16983
0
LINE
8
BLACK
6
CONTINUOUS
10
5.11284
20
-3.16983
11
5.09891
21
-3.1722
0
LINE
8
BLACK
6
CONTINUOUS
10
5.09891
20
-3.1722
11
5.0848
21
-3.17299
0
LINE
8
BLACK
6
CONTINUOUS
10
5.0848
20
-3.17299
11
5.0707
21
-3.1722
0
LINE
8
BLACK
6
CONTINUOUS
10
5.0707
20
-3.1722
11
5.05677
21
-3.16983
0
LINE
8
BLACK
6
CONTINUOUS
10
5.05677
20
-3.16983
11
5.04319
21
-3.16592
0
LINE
8
BLACK
6
CONTINUOUS
10
5.04319
20
-3.16592
11
5.03014
21
-3.16052
0
LINE
8
BLACK
6
CONTINUOUS
10
5.03014
20
-3.16052
11
5.01778
21
-3.15368
0
LINE
8
BLACK
6
CONTINUOUS
10
5.01778
20
-3.15368
11
5.00625
21
-3.14551
0
LINE
8
BLACK
6
CONTINUOUS
10
5.00625
20
-3.14551
11
4.99572
21
-3.13609
0
LINE
8
BLACK
6
CONTINUOUS
10
4.99572
20
-3.13609
11
4.9863
21
-3.12556
0
LINE
8
BLACK
6
CONTINUOUS
10
4.9863
20
-3.12556
11
4.97813
21
-3.11404
0
LINE
8
BLACK
6
CONTINUOUS
10
4.97813
20
-3.11404
11
4.9713
21
-3.10167
0
LINE
8
BLACK
6
CONTINUOUS
10
4.9713
20
-3.10167
11
4.96589
21
-3.08862
0
LINE
8
BLACK
6
CONTINUOUS
10
4.96589
20
-3.08862
11
4.96198
21
-3.07504
0
LINE
8
BLACK
6
CONTINUOUS
10
4.96198
20
-3.07504
11
4.95961
21
-3.06111
0
LINE
8
BLACK
6
CONTINUOUS
10
4.95961
20
-3.06111
11
4.95882
21
-3.04701
0
LINE
8
BLACK
6
CONTINUOUS
10
4.95882
20
-3.04701
11
4.95961
21
-3.0329
0
LINE
8
BLACK
6
CONTINUOUS
10
4.95961
20
-3.0329
11
4.96198
21
-3.01897
0
LINE
8
BLACK
6
CONTINUOUS
10
4.96198
20
-3.01897
11
4.96589
21
-3.0054
0
LINE
8
BLACK
6
CONTINUOUS
10
4.96589
20
-3.0054
11
4.9713
21
-2.99235
0
LINE
8
BLACK
6
CONTINUOUS
10
4.9713
20
-2.99235
11
4.97813
21
-2.97998
0
LINE
8
BLACK
6
CONTINUOUS
10
4.97813
20
-2.97998
11
4.9863
21
-2.96846
0
LINE
8
BLACK
6
CONTINUOUS
10
4.9863
20
-2.96846
11
4.99572
21
-2.95792
0
LINE
8
BLACK
6
CONTINUOUS
10
4.99572
20
-2.95792
11
5.00625
21
-2.94851
0
LINE
8
BLACK
6
CONTINUOUS
10
5.00625
20
-2.94851
11
5.01778
21
-2.94033
0
LINE
8
BLACK
6
CONTINUOUS
10
5.01778
20
-2.94033
11
5.03014
21
-2.9335
0
LINE
8
BLACK
6
CONTINUOUS
10
5.03014
20
-2.9335
11
5.04319
21
-2.92809
0
LINE
8
BLACK
6
CONTINUOUS
10
5.04319
20
-2.92809
11
5.05677
21
-2.92418
0
LINE
8
BLACK
6
CONTINUOUS
10
5.05677
20
-2.92418
11
5.0707
21
-2.92182
0
LINE
8
BLACK
6
CONTINUOUS
10
5.0707
20
-2.92182
11
5.0848
21
-2.92102
0
LINE
8
BLACK
6
CONTINUOUS
10
5.0848
20
-2.92102
11
5.09891
21
-2.92182
0
LINE
8
BLACK
6
CONTINUOUS
10
7.09891
20
-2.92182
11
7.11284
21
-2.92418
0
LINE
8
BLACK
6
CONTINUOUS
10
7.11284
20
-2.92418
11
7.12641
21
-2.92809
0
LINE
8
BLACK
6
CONTINUOUS
10
7.12641
20
-2.92809
11
7.13947
21
-2.9335
0
LINE
8
BLACK
6
CONTINUOUS
10
7.13947
20
-2.9335
11
7.15183
21
-2.94033
0
LINE
8
BLACK
6
CONTINUOUS
10
7.15183
20
-2.94033
11
7.16335
21
-2.94851
0
LINE
8
BLACK
6
CONTINUOUS
10
7.16335
20
-2.94851
11
7.17389
21
-2.95792
0
LINE
8
BLACK
6
CONTINUOUS
10
7.17389
20
-2.95792
11
7.1833
21
-2.96846
0
LINE
8
BLACK
6
CONTINUOUS
10
7.1833
20
-2.96846
11
7.19148
21
-2.97998
0
LINE
8
BLACK
6
CONTINUOUS
10
7.19148
20
-2.97998
11
7.19831
21
-2.99235
0
LINE
8
BLACK
6
CONTINUOUS
10
7.19831
20
-2.99235
11
7.20372
21
-3.0054
0
LINE
8
BLACK
6
CONTINUOUS
10
7.20372
20
-3.0054
11
7.20763
21
-3.01897
0
LINE
8
BLACK
6
CONTINUOUS
10
7.20763
20
-3.01897
11
7.21
21
-3.0329
0
LINE
8
BLACK
6
CONTINUOUS
10
7.21
20
-3.0329
11
7.21079
21
-3.04701
0
LINE
8
BLACK
6
CONTINUOUS
10
7.21079
20
-3.04701
11
7.21
21
-3.06111
0
LINE
8
BLACK
6
CONTINUOUS
10
7.21
20
-3.06111
11
7.20763
21
-3.07504
0
LINE
8
BLACK
6
CONTINUOUS
10
7.20763
20
-3.07504
11
7.20372
21
-3.08862
0
LINE
8
BLACK
6
CONTINUOUS
10
7.20372
20
-3.08862
11
7.19831
21
-3.10167
0
LINE
8
BLACK
6
CONTINUOUS
10
7.19831
20
-3.10167
11
7.19148
21
-3.11404
0
LINE
8
BLACK
6
CONTINUOUS
10
7.19148
20
-3.11404
11
7.1833
21
-3.12556
0
LINE
8
BLACK
6
CONTINUOUS
10
7.1833
20
-3.12556
11
7.17389
21
-3.13609
0
LINE
8
BLACK
6
CONTINUOUS
10
7.17389
20
-3.13609
11
7.16335
21
-3.14551
0
LINE
8
BLACK
6
CONTINUOUS
10
7.16335
20
-3.14551
11
7.15183
21
-3.15368
0
LINE
8
BLACK
6
CONTINUOUS
10
7.15183
20
-3.15368
11
7.13947
21
-3.16052
0
LINE
8
BLACK
6
CONTINUOUS
10
7.13947
20
-3.16052
11
7.12641
21
-3.16592
0
LINE
8
BLACK
6
CONTINUOUS
10
7.12641
20
-3.16592
11
7.11284
21
-3.16983
0
LINE
8
BLACK
6
CONTINUOUS
10
7.11284
20
-3.16983
11
7.09891
21
-3.1722
0
LINE
8
BLACK
6
CONTINUOUS
10
7.09891
20
-3.1722
11
7.0848
21
-3.17299
0
LINE
8
BLACK
6
CONTINUOUS
10
7.0848
20
-3.17299
11
7.0707
21
-3.1722
0
LINE
8
BLACK
6
CONTINUOUS
10
7.0707
20
-3.1722
11
7.05677
21
-3.16983
0
LINE
8
BLACK
6
CONTINUOUS
10
7.05677
20
-3.16983
11
7.04319
21
-3.16592
0
LINE
8
BLACK
6
CONTINUOUS
10
7.04319
20
-3.16592
11
7.03014
21
-3.16052
0
LINE
8
BLACK
6
CONTINUOUS
10
7.03014
20
-3.16052
11
7.01778
21
-3.15368
0
LINE
8
BLACK
6
CONTINUOUS
10
7.01778
20
-3.15368
11
7.00625
21
-3.14551
0
LINE
8
BLACK
6
CONTINUOUS
10
7.00625
20
-3.14551
11
6.99572
21
-3.13609
0
LINE
8
BLACK
6
CONTINUOUS
10
6.99572
20
-3.13609
11
6.9863
21
-3.12556
0
LINE
8
BLACK
6
CONTINUOUS
10
6.9863
20
-3.12556
11
6.97813
21
-3.11404
0
LINE
8
BLACK
6
CONTINUOUS
10
6.97813
20
-3.11404
11
6.9713
21
-3.10167
0
LINE
8
BLACK
6
CONTINUOUS
10
6.9713
20
-3.10167
11
6.96589
21
-3.08862
0
LINE
8
BLACK
6
CONTINUOUS
10
6.96589
20
-3.08862
11
6.96198
21
-3.07504
0
LINE
8
BLACK
6
CONTINUOUS
10
6.96198
20
-3.07504
11
6.95961
21
-3.06111
0
LINE
8
BLACK
6
CONTINUOUS
10
6.95961
20
-3.06111
11
6.95882
21
-3.04701
0
LINE
8
BLACK
6
CONTINUOUS
10
6.95882
20
-3.04701
11
6.95961
21
-3.0329
0
LINE
8
BLACK
6
CONTINUOUS
10
6.95961
20
-3.0329
11
6.96198
21
-3.01897
0
LINE
8
BLACK
6
CONTINUOUS
10
6.96198
20
-3.01897
11
6.96589
21
-3.0054
0
LINE
8
BLACK
6
CONTINUOUS
10
6.96589
20
-3.0054
11
6.9713
21
-2.99235
0
LINE
8
BLACK
6
CONTINUOUS
10
6.9713
20
-2.99235
11
6.97813
21
-2.97998
0
LINE
8
BLACK
6
CONTINUOUS
10
6.97813
20
-2.97998
11
6.9863
21
-2.96846
0
LINE
8
BLACK
6
CONTINUOUS
10
6.9863
20
-2.96846
11
6.99572
21
-2.95792
0
LINE
8
BLACK
6
CONTINUOUS
10
6.99572
20
-2.95792
11
7.00625
21
-2.94851
0
LINE
8
BLACK
6
CONTINUOUS
10
7.00625
20
-2.94851
11
7.01778
21
-2.94033
0
LINE
8
BLACK
6
CONTINUOUS
10
7.01778
20
-2.94033
11
7.03014
21
-2.9335
0
LINE
8
BLACK
6
CONTINUOUS
10
7.03014
20
-2.9335
11
7.04319
21
-2.92809
0
LINE
8
BLACK
6
CONTINUOUS
10
7.04319
20
-2.92809
11
7.05677
21
-2.92418
0
LINE
8
BLACK
6
CONTINUOUS
10
7.05677
20
-2.92418
11
7.0707
21
-2.92182
0
LINE
8
BLACK
6
CONTINUOUS
10
7.0707
20
-2.92182
11
7.0848
21
-2.92102
0
LINE
8
BLACK
6
CONTINUOUS
10
7.0848
20
-2.92102
11
7.09891
21
-2.92182
  0
ENDSEC
  0
EOF
