  0
SECTION
  2
HEADER
  9
$ANGBASE
  50
0.0
  9
$ANGDIR
  70
1
  9
$MEASUREMENT
  70
0
  0
ENDSEC
  0
SECTION
  2
TABLES
  0
TABLE
  2
LTYPE
  70
4
  0
LTYPE
  5
40F
  2
CONTINUOUS
  70
0
  3
Solid line
  72
65
  73
0
  40
0.0
  0
LTYPE
  5
410
  2
DASHDOT
 70
0
  3
Dash Dot ____ _ ____ _
 72
65
 73
4
 40
2.0
 49
1.25
 49
-0.25
 49
0.25
 49
-0.25
  0
LTYPE
  5
411
  2
DASHED
 70
0
  3
Dashed __ __ __ __ __
 72
65
 73
2
 40
0.75
 49
0.5
 49
-0.25
  0
LTYPE
  5
43B
  2
DOTTED
 70
0
  3
Dotted .  .  .  .
 72
65
 73
2
 40
0.2
 49
0.0
 49
-0.2
  0
ENDTAB
  0
TABLE
  2
STYLE
  70
4
  0
STYLE
  2
KICAD
  70
0
  40
0
  41
1
  42
1
  50
0
  71
0
  3
isocp.shx
  0
STYLE
  2
KICADB
  70
0
  40
0
  41
1
  42
1
  50
0
  71
0
  3
isocp.shx
  0
STYLE
  2
KICADI
  70
0
  40
0
  41
1
  42
1
  50
15
  71
0
  3
isocp.shx
  0
STYLE
  2
KICADBI
  70
0
  40
0
  41
1
  42
1
  50
15
  71
0
  3
isocp.shx
  0
ENDTAB
  0
TABLE
  2
LAYER
  70
1
  0
LAYER
  2
BLACK
  70
0
  62
7
  6
CONTINUOUS
  0
ENDTAB
  0
ENDSEC
  0
SECTION
  2
ENTITIES
0
LINE
8
BLACK
6
CONTINUOUS
10
0.626139
20
0.542123
11
0.62585
21
0.542819
0
LINE
8
BLACK
6
CONTINUOUS
10
0.62585
20
0.542819
11
0.62585
21
0.619984
0
LINE
8
BLACK
6
CONTINUOUS
10
0.62585
20
0.619984
11
0.626139
21
0.62068
0
LINE
8
BLACK
6
CONTINUOUS
10
0.626139
20
0.62068
11
0.626835
21
0.620969
0
LINE
8
BLACK
6
CONTINUOUS
10
0.626835
20
0.620969
11
0.760693
21
0.620969
0
LINE
8
BLACK
6
CONTINUOUS
10
0.760693
20
0.620969
11
0.761389
21
0.62068
0
LINE
8
BLACK
6
CONTINUOUS
10
0.761389
20
0.62068
11
0.761677
21
0.619984
0
LINE
8
BLACK
6
CONTINUOUS
10
0.761677
20
0.619984
11
0.761677
21
0.542819
0
LINE
8
BLACK
6
CONTINUOUS
10
0.761677
20
0.542819
11
0.761389
21
0.542123
0
LINE
8
BLACK
6
CONTINUOUS
10
0.761389
20
0.542123
11
0.760693
21
0.541835
0
LINE
8
BLACK
6
CONTINUOUS
10
0.760693
20
0.541835
11
0.626835
21
0.541835
0
LINE
8
BLACK
6
CONTINUOUS
10
0.626835
20
0.541835
11
0.626139
21
0.542123
0
LINE
8
BLACK
6
CONTINUOUS
10
0.627819
20
0.619
11
0.627819
21
0.543803
0
LINE
8
BLACK
6
CONTINUOUS
10
0.627819
20
0.543803
11
0.759709
21
0.543803
0
LINE
8
BLACK
6
CONTINUOUS
10
0.759709
20
0.543803
11
0.759709
21
0.619
0
LINE
8
BLACK
6
CONTINUOUS
10
0.759709
20
0.619
11
0.627819
21
0.619
0
LINE
8
BLACK
6
CONTINUOUS
10
1.54037
20
0.544721
11
1.54009
21
0.545417
0
LINE
8
BLACK
6
CONTINUOUS
10
1.54009
20
0.545417
11
1.54009
21
0.622583
0
LINE
8
BLACK
6
CONTINUOUS
10
1.54009
20
0.622583
11
1.54037
21
0.623279
0
LINE
8
BLACK
6
CONTINUOUS
10
1.54037
20
0.623279
11
1.54107
21
0.623567
0
LINE
8
BLACK
6
CONTINUOUS
10
1.54107
20
0.623567
11
1.67493
21
0.623567
0
LINE
8
BLACK
6
CONTINUOUS
10
1.67493
20
0.623567
11
1.67563
21
0.623279
0
LINE
8
BLACK
6
CONTINUOUS
10
1.67563
20
0.623279
11
1.67591
21
0.622583
0
LINE
8
BLACK
6
CONTINUOUS
10
1.67591
20
0.622583
11
1.67591
21
0.545417
0
LINE
8
BLACK
6
CONTINUOUS
10
1.67591
20
0.545417
11
1.67563
21
0.544721
0
LINE
8
BLACK
6
CONTINUOUS
10
1.67563
20
0.544721
11
1.67493
21
0.544433
0
LINE
8
BLACK
6
CONTINUOUS
10
1.67493
20
0.544433
11
1.54107
21
0.544433
0
LINE
8
BLACK
6
CONTINUOUS
10
1.54107
20
0.544433
11
1.54037
21
0.544721
0
LINE
8
BLACK
6
CONTINUOUS
10
1.54206
20
0.621598
11
1.54206
21
0.546402
0
LINE
8
BLACK
6
CONTINUOUS
10
1.54206
20
0.546402
11
1.67394
21
0.546402
0
LINE
8
BLACK
6
CONTINUOUS
10
1.67394
20
0.546402
11
1.67394
21
0.621598
0
LINE
8
BLACK
6
CONTINUOUS
10
1.67394
20
0.621598
11
1.54206
21
0.621598
0
LINE
8
BLACK
6
CONTINUOUS
10
0.770406
20
0.551839
11
0.770118
21
0.552535
0
LINE
8
BLACK
6
CONTINUOUS
10
0.770118
20
0.552535
11
0.770118
21
0.619465
0
LINE
8
BLACK
6
CONTINUOUS
10
0.770118
20
0.619465
11
0.770406
21
0.620161
0
LINE
8
BLACK
6
CONTINUOUS
10
0.770406
20
0.620161
11
0.771102
21
0.620449
0
LINE
8
BLACK
6
CONTINUOUS
10
0.771102
20
0.620449
11
0.908898
21
0.620449
0
LINE
8
BLACK
6
CONTINUOUS
10
0.908898
20
0.620449
11
0.909594
21
0.620161
0
LINE
8
BLACK
6
CONTINUOUS
10
0.909594
20
0.620161
11
0.909882
21
0.619465
0
LINE
8
BLACK
6
CONTINUOUS
10
0.909882
20
0.619465
11
0.909882
21
0.552535
0
LINE
8
BLACK
6
CONTINUOUS
10
0.909882
20
0.552535
11
0.909594
21
0.551839
0
LINE
8
BLACK
6
CONTINUOUS
10
0.909594
20
0.551839
11
0.908898
21
0.551551
0
LINE
8
BLACK
6
CONTINUOUS
10
0.908898
20
0.551551
11
0.771102
21
0.551551
0
LINE
8
BLACK
6
CONTINUOUS
10
0.771102
20
0.551551
11
0.770406
21
0.551839
0
LINE
8
BLACK
6
CONTINUOUS
10
0.772087
20
0.61848
11
0.772087
21
0.55352
0
LINE
8
BLACK
6
CONTINUOUS
10
0.772087
20
0.55352
11
0.907913
21
0.55352
0
LINE
8
BLACK
6
CONTINUOUS
10
0.907913
20
0.55352
11
0.907913
21
0.61848
0
LINE
8
BLACK
6
CONTINUOUS
10
0.907913
20
0.61848
11
0.772087
21
0.61848
0
LINE
8
BLACK
6
CONTINUOUS
10
1.08041
20
0.553839
11
1.08012
21
0.554535
0
LINE
8
BLACK
6
CONTINUOUS
10
1.08012
20
0.554535
11
1.08012
21
0.621465
0
LINE
8
BLACK
6
CONTINUOUS
10
1.08012
20
0.621465
11
1.08041
21
0.622161
0
LINE
8
BLACK
6
CONTINUOUS
10
1.08041
20
0.622161
11
1.0811
21
0.622449
0
LINE
8
BLACK
6
CONTINUOUS
10
1.0811
20
0.622449
11
1.2189
21
0.622449
0
LINE
8
BLACK
6
CONTINUOUS
10
1.2189
20
0.622449
11
1.21959
21
0.622161
0
LINE
8
BLACK
6
CONTINUOUS
10
1.21959
20
0.622161
11
1.21988
21
0.621465
0
LINE
8
BLACK
6
CONTINUOUS
10
1.21988
20
0.621465
11
1.21988
21
0.554535
0
LINE
8
BLACK
6
CONTINUOUS
10
1.21988
20
0.554535
11
1.21959
21
0.553839
0
LINE
8
BLACK
6
CONTINUOUS
10
1.21959
20
0.553839
11
1.2189
21
0.553551
0
LINE
8
BLACK
6
CONTINUOUS
10
1.2189
20
0.553551
11
1.0811
21
0.553551
0
LINE
8
BLACK
6
CONTINUOUS
10
1.0811
20
0.553551
11
1.08041
21
0.553839
0
LINE
8
BLACK
6
CONTINUOUS
10
1.08209
20
0.62048
11
1.08209
21
0.55552
0
LINE
8
BLACK
6
CONTINUOUS
10
1.08209
20
0.55552
11
1.21791
21
0.55552
0
LINE
8
BLACK
6
CONTINUOUS
10
1.21791
20
0.55552
11
1.21791
21
0.62048
0
LINE
8
BLACK
6
CONTINUOUS
10
1.21791
20
0.62048
11
1.08209
21
0.62048
0
LINE
8
BLACK
6
CONTINUOUS
10
1.39141
20
0.554839
11
1.39112
21
0.555535
0
LINE
8
BLACK
6
CONTINUOUS
10
1.39112
20
0.555535
11
1.39112
21
0.622465
0
LINE
8
BLACK
6
CONTINUOUS
10
1.39112
20
0.622465
11
1.39141
21
0.623161
0
LINE
8
BLACK
6
CONTINUOUS
10
1.39141
20
0.623161
11
1.3921
21
0.623449
0
LINE
8
BLACK
6
CONTINUOUS
10
1.3921
20
0.623449
11
1.5299
21
0.623449
0
LINE
8
BLACK
6
CONTINUOUS
10
1.5299
20
0.623449
11
1.53059
21
0.623161
0
LINE
8
BLACK
6
CONTINUOUS
10
1.53059
20
0.623161
11
1.53088
21
0.622465
0
LINE
8
BLACK
6
CONTINUOUS
10
1.53088
20
0.622465
11
1.53088
21
0.555535
0
LINE
8
BLACK
6
CONTINUOUS
10
1.53088
20
0.555535
11
1.53059
21
0.554839
0
LINE
8
BLACK
6
CONTINUOUS
10
1.53059
20
0.554839
11
1.5299
21
0.554551
0
LINE
8
BLACK
6
CONTINUOUS
10
1.5299
20
0.554551
11
1.3921
21
0.554551
0
LINE
8
BLACK
6
CONTINUOUS
10
1.3921
20
0.554551
11
1.39141
21
0.554839
0
LINE
8
BLACK
6
CONTINUOUS
10
1.39309
20
0.62148
11
1.39309
21
0.55652
0
LINE
8
BLACK
6
CONTINUOUS
10
1.39309
20
0.55652
11
1.52891
21
0.55652
0
LINE
8
BLACK
6
CONTINUOUS
10
1.52891
20
0.55652
11
1.52891
21
0.62148
0
LINE
8
BLACK
6
CONTINUOUS
10
1.52891
20
0.62148
11
1.39309
21
0.62148
0
LINE
8
BLACK
6
CONTINUOUS
10
1.00384
20
0.556808
11
1.00355
21
0.557504
0
LINE
8
BLACK
6
CONTINUOUS
10
1.00355
20
0.557504
11
1.00355
21
0.695299
0
LINE
8
BLACK
6
CONTINUOUS
10
1.00355
20
0.695299
11
1.00384
21
0.695995
0
LINE
8
BLACK
6
CONTINUOUS
10
1.00384
20
0.695995
11
1.00454
21
0.696283
0
LINE
8
BLACK
6
CONTINUOUS
10
1.00454
20
0.696283
11
1.07146
21
0.696283
0
LINE
8
BLACK
6
CONTINUOUS
10
1.07146
20
0.696283
11
1.07216
21
0.695995
0
LINE
8
BLACK
6
CONTINUOUS
10
1.07216
20
0.695995
11
1.07245
21
0.695299
0
LINE
8
BLACK
6
CONTINUOUS
10
1.07245
20
0.695299
11
1.07245
21
0.557504
0
LINE
8
BLACK
6
CONTINUOUS
10
1.07245
20
0.557504
11
1.07216
21
0.556808
0
LINE
8
BLACK
6
CONTINUOUS
10
1.07216
20
0.556808
11
1.07146
21
0.55652
0
LINE
8
BLACK
6
CONTINUOUS
10
1.07146
20
0.55652
11
1.00454
21
0.55652
0
LINE
8
BLACK
6
CONTINUOUS
10
1.00454
20
0.55652
11
1.00384
21
0.556808
0
LINE
8
BLACK
6
CONTINUOUS
10
1.00552
20
0.694315
11
1.00552
21
0.558488
0
LINE
8
BLACK
6
CONTINUOUS
10
1.00552
20
0.558488
11
1.07048
21
0.558488
0
LINE
8
BLACK
6
CONTINUOUS
10
1.07048
20
0.558488
11
1.07048
21
0.694315
0
LINE
8
BLACK
6
CONTINUOUS
10
1.07048
20
0.694315
11
1.00552
21
0.694315
0
LINE
8
BLACK
6
CONTINUOUS
10
0.918721
20
0.558776
11
0.918433
21
0.559472
0
LINE
8
BLACK
6
CONTINUOUS
10
0.918433
20
0.559472
11
0.918433
21
0.693331
0
LINE
8
BLACK
6
CONTINUOUS
10
0.918433
20
0.693331
11
0.918721
21
0.694027
0
LINE
8
BLACK
6
CONTINUOUS
10
0.918721
20
0.694027
11
0.919417
21
0.694315
0
LINE
8
BLACK
6
CONTINUOUS
10
0.919417
20
0.694315
11
0.996583
21
0.694315
0
LINE
8
BLACK
6
CONTINUOUS
10
0.996583
20
0.694315
11
0.997279
21
0.694027
0
LINE
8
BLACK
6
CONTINUOUS
10
0.997279
20
0.694027
11
0.997567
21
0.693331
0
LINE
8
BLACK
6
CONTINUOUS
10
0.997567
20
0.693331
11
0.997567
21
0.559472
0
LINE
8
BLACK
6
CONTINUOUS
10
0.997567
20
0.559472
11
0.997279
21
0.558776
0
LINE
8
BLACK
6
CONTINUOUS
10
0.997279
20
0.558776
11
0.996583
21
0.558488
0
LINE
8
BLACK
6
CONTINUOUS
10
0.996583
20
0.558488
11
0.919417
21
0.558488
0
LINE
8
BLACK
6
CONTINUOUS
10
0.919417
20
0.558488
11
0.918721
21
0.558776
0
LINE
8
BLACK
6
CONTINUOUS
10
0.920402
20
0.692346
11
0.920402
21
0.560457
0
LINE
8
BLACK
6
CONTINUOUS
10
0.920402
20
0.560457
11
0.995598
21
0.560457
0
LINE
8
BLACK
6
CONTINUOUS
10
0.995598
20
0.560457
11
0.995598
21
0.692346
0
LINE
8
BLACK
6
CONTINUOUS
10
0.995598
20
0.692346
11
0.920402
21
0.692346
0
LINE
8
BLACK
6
CONTINUOUS
10
1.31384
20
0.560406
11
1.31355
21
0.561102
0
LINE
8
BLACK
6
CONTINUOUS
10
1.31355
20
0.561102
11
1.31355
21
0.698898
0
LINE
8
BLACK
6
CONTINUOUS
10
1.31355
20
0.698898
11
1.31384
21
0.699594
0
LINE
8
BLACK
6
CONTINUOUS
10
1.31384
20
0.699594
11
1.31454
21
0.699882
0
LINE
8
BLACK
6
CONTINUOUS
10
1.31454
20
0.699882
11
1.38146
21
0.699882
0
LINE
8
BLACK
6
CONTINUOUS
10
1.38146
20
0.699882
11
1.38216
21
0.699594
0
LINE
8
BLACK
6
CONTINUOUS
10
1.38216
20
0.699594
11
1.38245
21
0.698898
0
LINE
8
BLACK
6
CONTINUOUS
10
1.38245
20
0.698898
11
1.38245
21
0.561102
0
LINE
8
BLACK
6
CONTINUOUS
10
1.38245
20
0.561102
11
1.38216
21
0.560406
0
LINE
8
BLACK
6
CONTINUOUS
10
1.38216
20
0.560406
11
1.38146
21
0.560118
0
LINE
8
BLACK
6
CONTINUOUS
10
1.38146
20
0.560118
11
1.31454
21
0.560118
0
LINE
8
BLACK
6
CONTINUOUS
10
1.31454
20
0.560118
11
1.31384
21
0.560406
0
LINE
8
BLACK
6
CONTINUOUS
10
1.31552
20
0.697913
11
1.31552
21
0.562087
0
LINE
8
BLACK
6
CONTINUOUS
10
1.31552
20
0.562087
11
1.38048
21
0.562087
0
LINE
8
BLACK
6
CONTINUOUS
10
1.38048
20
0.562087
11
1.38048
21
0.697913
0
LINE
8
BLACK
6
CONTINUOUS
10
1.38048
20
0.697913
11
1.31552
21
0.697913
0
LINE
8
BLACK
6
CONTINUOUS
10
1.22872
20
0.562375
11
1.22843
21
0.563071
0
LINE
8
BLACK
6
CONTINUOUS
10
1.22843
20
0.563071
11
1.22843
21
0.696929
0
LINE
8
BLACK
6
CONTINUOUS
10
1.22843
20
0.696929
11
1.22872
21
0.697625
0
LINE
8
BLACK
6
CONTINUOUS
10
1.22872
20
0.697625
11
1.22942
21
0.697913
0
LINE
8
BLACK
6
CONTINUOUS
10
1.22942
20
0.697913
11
1.30658
21
0.697913
0
LINE
8
BLACK
6
CONTINUOUS
10
1.30658
20
0.697913
11
1.30728
21
0.697625
0
LINE
8
BLACK
6
CONTINUOUS
10
1.30728
20
0.697625
11
1.30757
21
0.696929
0
LINE
8
BLACK
6
CONTINUOUS
10
1.30757
20
0.696929
11
1.30757
21
0.563071
0
LINE
8
BLACK
6
CONTINUOUS
10
1.30757
20
0.563071
11
1.30728
21
0.562375
0
LINE
8
BLACK
6
CONTINUOUS
10
1.30728
20
0.562375
11
1.30658
21
0.562087
0
LINE
8
BLACK
6
CONTINUOUS
10
1.30658
20
0.562087
11
1.22942
21
0.562087
0
LINE
8
BLACK
6
CONTINUOUS
10
1.22942
20
0.562087
11
1.22872
21
0.562375
0
LINE
8
BLACK
6
CONTINUOUS
10
1.2304
20
0.695945
11
1.2304
21
0.564055
0
LINE
8
BLACK
6
CONTINUOUS
10
1.2304
20
0.564055
11
1.3056
21
0.564055
0
LINE
8
BLACK
6
CONTINUOUS
10
1.3056
20
0.564055
11
1.3056
21
0.695945
0
LINE
8
BLACK
6
CONTINUOUS
10
1.3056
20
0.695945
11
1.2304
21
0.695945
0
LINE
8
BLACK
6
CONTINUOUS
10
0.770406
20
0.631839
11
0.770118
21
0.632535
0
LINE
8
BLACK
6
CONTINUOUS
10
0.770118
20
0.632535
11
0.770118
21
0.699465
0
LINE
8
BLACK
6
CONTINUOUS
10
0.770118
20
0.699465
11
0.770406
21
0.700161
0
LINE
8
BLACK
6
CONTINUOUS
10
0.770406
20
0.700161
11
0.771102
21
0.700449
0
LINE
8
BLACK
6
CONTINUOUS
10
0.771102
20
0.700449
11
0.908898
21
0.700449
0
LINE
8
BLACK
6
CONTINUOUS
10
0.908898
20
0.700449
11
0.909594
21
0.700161
0
LINE
8
BLACK
6
CONTINUOUS
10
0.909594
20
0.700161
11
0.909882
21
0.699465
0
LINE
8
BLACK
6
CONTINUOUS
10
0.909882
20
0.699465
11
0.909882
21
0.632535
0
LINE
8
BLACK
6
CONTINUOUS
10
0.909882
20
0.632535
11
0.909594
21
0.631839
0
LINE
8
BLACK
6
CONTINUOUS
10
0.909594
20
0.631839
11
0.908898
21
0.631551
0
LINE
8
BLACK
6
CONTINUOUS
10
0.908898
20
0.631551
11
0.771102
21
0.631551
0
LINE
8
BLACK
6
CONTINUOUS
10
0.771102
20
0.631551
11
0.770406
21
0.631839
0
LINE
8
BLACK
6
CONTINUOUS
10
0.772087
20
0.69848
11
0.772087
21
0.63352
0
LINE
8
BLACK
6
CONTINUOUS
10
0.772087
20
0.63352
11
0.907913
21
0.63352
0
LINE
8
BLACK
6
CONTINUOUS
10
0.907913
20
0.63352
11
0.907913
21
0.69848
0
LINE
8
BLACK
6
CONTINUOUS
10
0.907913
20
0.69848
11
0.772087
21
0.69848
0
LINE
8
BLACK
6
CONTINUOUS
10
0.626139
20
0.632123
11
0.62585
21
0.632819
0
LINE
8
BLACK
6
CONTINUOUS
10
0.62585
20
0.632819
11
0.62585
21
0.709984
0
LINE
8
BLACK
6
CONTINUOUS
10
0.62585
20
0.709984
11
0.626139
21
0.71068
0
LINE
8
BLACK
6
CONTINUOUS
10
0.626139
20
0.71068
11
0.626835
21
0.710969
0
LINE
8
BLACK
6
CONTINUOUS
10
0.626835
20
0.710969
11
0.760693
21
0.710969
0
LINE
8
BLACK
6
CONTINUOUS
10
0.760693
20
0.710969
11
0.761389
21
0.71068
0
LINE
8
BLACK
6
CONTINUOUS
10
0.761389
20
0.71068
11
0.761677
21
0.709984
0
LINE
8
BLACK
6
CONTINUOUS
10
0.761677
20
0.709984
11
0.761677
21
0.632819
0
LINE
8
BLACK
6
CONTINUOUS
10
0.761677
20
0.632819
11
0.761389
21
0.632123
0
LINE
8
BLACK
6
CONTINUOUS
10
0.761389
20
0.632123
11
0.760693
21
0.631835
0
LINE
8
BLACK
6
CONTINUOUS
10
0.760693
20
0.631835
11
0.626835
21
0.631835
0
LINE
8
BLACK
6
CONTINUOUS
10
0.626835
20
0.631835
11
0.626139
21
0.632123
0
LINE
8
BLACK
6
CONTINUOUS
10
0.627819
20
0.709
11
0.627819
21
0.633803
0
LINE
8
BLACK
6
CONTINUOUS
10
0.627819
20
0.633803
11
0.759709
21
0.633803
0
LINE
8
BLACK
6
CONTINUOUS
10
0.759709
20
0.633803
11
0.759709
21
0.709
0
LINE
8
BLACK
6
CONTINUOUS
10
0.759709
20
0.709
11
0.627819
21
0.709
0
LINE
8
BLACK
6
CONTINUOUS
10
1.08041
20
0.633839
11
1.08012
21
0.634535
0
LINE
8
BLACK
6
CONTINUOUS
10
1.08012
20
0.634535
11
1.08012
21
0.701465
0
LINE
8
BLACK
6
CONTINUOUS
10
1.08012
20
0.701465
11
1.08041
21
0.702161
0
LINE
8
BLACK
6
CONTINUOUS
10
1.08041
20
0.702161
11
1.0811
21
0.702449
0
LINE
8
BLACK
6
CONTINUOUS
10
1.0811
20
0.702449
11
1.2189
21
0.702449
0
LINE
8
BLACK
6
CONTINUOUS
10
1.2189
20
0.702449
11
1.21959
21
0.702161
0
LINE
8
BLACK
6
CONTINUOUS
10
1.21959
20
0.702161
11
1.21988
21
0.701465
0
LINE
8
BLACK
6
CONTINUOUS
10
1.21988
20
0.701465
11
1.21988
21
0.634535
0
LINE
8
BLACK
6
CONTINUOUS
10
1.21988
20
0.634535
11
1.21959
21
0.633839
0
LINE
8
BLACK
6
CONTINUOUS
10
1.21959
20
0.633839
11
1.2189
21
0.633551
0
LINE
8
BLACK
6
CONTINUOUS
10
1.2189
20
0.633551
11
1.0811
21
0.633551
0
LINE
8
BLACK
6
CONTINUOUS
10
1.0811
20
0.633551
11
1.08041
21
0.633839
0
LINE
8
BLACK
6
CONTINUOUS
10
1.08209
20
0.70048
11
1.08209
21
0.63552
0
LINE
8
BLACK
6
CONTINUOUS
10
1.08209
20
0.63552
11
1.21791
21
0.63552
0
LINE
8
BLACK
6
CONTINUOUS
10
1.21791
20
0.63552
11
1.21791
21
0.70048
0
LINE
8
BLACK
6
CONTINUOUS
10
1.21791
20
0.70048
11
1.08209
21
0.70048
0
LINE
8
BLACK
6
CONTINUOUS
10
1.54037
20
0.634721
11
1.54009
21
0.635417
0
LINE
8
BLACK
6
CONTINUOUS
10
1.54009
20
0.635417
11
1.54009
21
0.712583
0
LINE
8
BLACK
6
CONTINUOUS
10
1.54009
20
0.712583
11
1.54037
21
0.713279
0
LINE
8
BLACK
6
CONTINUOUS
10
1.54037
20
0.713279
11
1.54107
21
0.713567
0
LINE
8
BLACK
6
CONTINUOUS
10
1.54107
20
0.713567
11
1.67493
21
0.713567
0
LINE
8
BLACK
6
CONTINUOUS
10
1.67493
20
0.713567
11
1.67563
21
0.713279
0
LINE
8
BLACK
6
CONTINUOUS
10
1.67563
20
0.713279
11
1.67591
21
0.712583
0
LINE
8
BLACK
6
CONTINUOUS
10
1.67591
20
0.712583
11
1.67591
21
0.635417
0
LINE
8
BLACK
6
CONTINUOUS
10
1.67591
20
0.635417
11
1.67563
21
0.634721
0
LINE
8
BLACK
6
CONTINUOUS
10
1.67563
20
0.634721
11
1.67493
21
0.634433
0
LINE
8
BLACK
6
CONTINUOUS
10
1.67493
20
0.634433
11
1.54107
21
0.634433
0
LINE
8
BLACK
6
CONTINUOUS
10
1.54107
20
0.634433
11
1.54037
21
0.634721
0
LINE
8
BLACK
6
CONTINUOUS
10
1.54206
20
0.711598
11
1.54206
21
0.636402
0
LINE
8
BLACK
6
CONTINUOUS
10
1.54206
20
0.636402
11
1.67394
21
0.636402
0
LINE
8
BLACK
6
CONTINUOUS
10
1.67394
20
0.636402
11
1.67394
21
0.711598
0
LINE
8
BLACK
6
CONTINUOUS
10
1.67394
20
0.711598
11
1.54206
21
0.711598
0
LINE
8
BLACK
6
CONTINUOUS
10
1.39141
20
0.634839
11
1.39112
21
0.635535
0
LINE
8
BLACK
6
CONTINUOUS
10
1.39112
20
0.635535
11
1.39112
21
0.702465
0
LINE
8
BLACK
6
CONTINUOUS
10
1.39112
20
0.702465
11
1.39141
21
0.703161
0
LINE
8
BLACK
6
CONTINUOUS
10
1.39141
20
0.703161
11
1.3921
21
0.703449
0
LINE
8
BLACK
6
CONTINUOUS
10
1.3921
20
0.703449
11
1.5299
21
0.703449
0
LINE
8
BLACK
6
CONTINUOUS
10
1.5299
20
0.703449
11
1.53059
21
0.703161
0
LINE
8
BLACK
6
CONTINUOUS
10
1.53059
20
0.703161
11
1.53088
21
0.702465
0
LINE
8
BLACK
6
CONTINUOUS
10
1.53088
20
0.702465
11
1.53088
21
0.635535
0
LINE
8
BLACK
6
CONTINUOUS
10
1.53088
20
0.635535
11
1.53059
21
0.634839
0
LINE
8
BLACK
6
CONTINUOUS
10
1.53059
20
0.634839
11
1.5299
21
0.634551
0
LINE
8
BLACK
6
CONTINUOUS
10
1.5299
20
0.634551
11
1.3921
21
0.634551
0
LINE
8
BLACK
6
CONTINUOUS
10
1.3921
20
0.634551
11
1.39141
21
0.634839
0
LINE
8
BLACK
6
CONTINUOUS
10
1.39309
20
0.70148
11
1.39309
21
0.63652
0
LINE
8
BLACK
6
CONTINUOUS
10
1.39309
20
0.63652
11
1.52891
21
0.63652
0
LINE
8
BLACK
6
CONTINUOUS
10
1.52891
20
0.63652
11
1.52891
21
0.70148
0
LINE
8
BLACK
6
CONTINUOUS
10
1.52891
20
0.70148
11
1.39309
21
0.70148
0
LINE
8
BLACK
6
CONTINUOUS
10
1.16381
20
0.794839
11
1.16352
21
0.795535
0
LINE
8
BLACK
6
CONTINUOUS
10
1.16352
20
0.795535
11
1.16352
21
0.862465
0
LINE
8
BLACK
6
CONTINUOUS
10
1.16352
20
0.862465
11
1.16381
21
0.863161
0
LINE
8
BLACK
6
CONTINUOUS
10
1.16381
20
0.863161
11
1.1645
21
0.863449
0
LINE
8
BLACK
6
CONTINUOUS
10
1.1645
20
0.863449
11
1.3023
21
0.863449
0
LINE
8
BLACK
6
CONTINUOUS
10
1.3023
20
0.863449
11
1.303
21
0.863161
0
LINE
8
BLACK
6
CONTINUOUS
10
1.303
20
0.863161
11
1.30328
21
0.862465
0
LINE
8
BLACK
6
CONTINUOUS
10
1.30328
20
0.862465
11
1.30328
21
0.795535
0
LINE
8
BLACK
6
CONTINUOUS
10
1.30328
20
0.795535
11
1.303
21
0.794839
0
LINE
8
BLACK
6
CONTINUOUS
10
1.303
20
0.794839
11
1.3023
21
0.794551
0
LINE
8
BLACK
6
CONTINUOUS
10
1.3023
20
0.794551
11
1.1645
21
0.794551
0
LINE
8
BLACK
6
CONTINUOUS
10
1.1645
20
0.794551
11
1.16381
21
0.794839
0
LINE
8
BLACK
6
CONTINUOUS
10
1.16549
20
0.86148
11
1.16549
21
0.79652
0
LINE
8
BLACK
6
CONTINUOUS
10
1.16549
20
0.79652
11
1.30131
21
0.79652
0
LINE
8
BLACK
6
CONTINUOUS
10
1.30131
20
0.79652
11
1.30131
21
0.86148
0
LINE
8
BLACK
6
CONTINUOUS
10
1.30131
20
0.86148
11
1.16549
21
0.86148
0
LINE
8
BLACK
6
CONTINUOUS
10
0.997808
20
0.796839
11
0.99752
21
0.797535
0
LINE
8
BLACK
6
CONTINUOUS
10
0.99752
20
0.797535
11
0.99752
21
0.864465
0
LINE
8
BLACK
6
CONTINUOUS
10
0.99752
20
0.864465
11
0.997808
21
0.865161
0
LINE
8
BLACK
6
CONTINUOUS
10
0.997808
20
0.865161
11
0.998504
21
0.865449
0
LINE
8
BLACK
6
CONTINUOUS
10
0.998504
20
0.865449
11
1.1363
21
0.865449
0
LINE
8
BLACK
6
CONTINUOUS
10
1.1363
20
0.865449
11
1.137
21
0.865161
0
LINE
8
BLACK
6
CONTINUOUS
10
1.137
20
0.865161
11
1.13728
21
0.864465
0
LINE
8
BLACK
6
CONTINUOUS
10
1.13728
20
0.864465
11
1.13728
21
0.797535
0
LINE
8
BLACK
6
CONTINUOUS
10
1.13728
20
0.797535
11
1.137
21
0.796839
0
LINE
8
BLACK
6
CONTINUOUS
10
1.137
20
0.796839
11
1.1363
21
0.796551
0
LINE
8
BLACK
6
CONTINUOUS
10
1.1363
20
0.796551
11
0.998504
21
0.796551
0
LINE
8
BLACK
6
CONTINUOUS
10
0.998504
20
0.796551
11
0.997808
21
0.796839
0
LINE
8
BLACK
6
CONTINUOUS
10
0.999488
20
0.86348
11
0.999488
21
0.79852
0
LINE
8
BLACK
6
CONTINUOUS
10
0.999488
20
0.79852
11
1.13531
21
0.79852
0
LINE
8
BLACK
6
CONTINUOUS
10
1.13531
20
0.79852
11
1.13531
21
0.86348
0
LINE
8
BLACK
6
CONTINUOUS
10
1.13531
20
0.86348
11
0.999488
21
0.86348
0
LINE
8
BLACK
6
CONTINUOUS
10
0.613796
20
0.854391
11
0.613508
21
0.855087
0
LINE
8
BLACK
6
CONTINUOUS
10
0.613508
20
0.855087
11
0.613508
21
0.932252
0
LINE
8
BLACK
6
CONTINUOUS
10
0.613508
20
0.932252
11
0.613796
21
0.932948
0
LINE
8
BLACK
6
CONTINUOUS
10
0.613796
20
0.932948
11
0.614492
21
0.933236
0
LINE
8
BLACK
6
CONTINUOUS
10
0.614492
20
0.933236
11
0.74835
21
0.933236
0
LINE
8
BLACK
6
CONTINUOUS
10
0.74835
20
0.933236
11
0.749046
21
0.932948
0
LINE
8
BLACK
6
CONTINUOUS
10
0.749046
20
0.932948
11
0.749335
21
0.932252
0
LINE
8
BLACK
6
CONTINUOUS
10
0.749335
20
0.932252
11
0.749335
21
0.855087
0
LINE
8
BLACK
6
CONTINUOUS
10
0.749335
20
0.855087
11
0.749046
21
0.854391
0
LINE
8
BLACK
6
CONTINUOUS
10
0.749046
20
0.854391
11
0.74835
21
0.854102
0
LINE
8
BLACK
6
CONTINUOUS
10
0.74835
20
0.854102
11
0.614492
21
0.854102
0
LINE
8
BLACK
6
CONTINUOUS
10
0.614492
20
0.854102
11
0.613796
21
0.854391
0
LINE
8
BLACK
6
CONTINUOUS
10
0.615476
20
0.931268
11
0.615476
21
0.856071
0
LINE
8
BLACK
6
CONTINUOUS
10
0.615476
20
0.856071
11
0.747366
21
0.856071
0
LINE
8
BLACK
6
CONTINUOUS
10
0.747366
20
0.856071
11
0.747366
21
0.931268
0
LINE
8
BLACK
6
CONTINUOUS
10
0.747366
20
0.931268
11
0.615476
21
0.931268
0
LINE
8
BLACK
6
CONTINUOUS
10
1.54578
20
0.855721
11
1.54549
21
0.856417
0
LINE
8
BLACK
6
CONTINUOUS
10
1.54549
20
0.856417
11
1.54549
21
0.933583
0
LINE
8
BLACK
6
CONTINUOUS
10
1.54549
20
0.933583
11
1.54578
21
0.934279
0
LINE
8
BLACK
6
CONTINUOUS
10
1.54578
20
0.934279
11
1.54647
21
0.934567
0
LINE
8
BLACK
6
CONTINUOUS
10
1.54647
20
0.934567
11
1.68033
21
0.934567
0
LINE
8
BLACK
6
CONTINUOUS
10
1.68033
20
0.934567
11
1.68103
21
0.934279
0
LINE
8
BLACK
6
CONTINUOUS
10
1.68103
20
0.934279
11
1.68131
21
0.933583
0
LINE
8
BLACK
6
CONTINUOUS
10
1.68131
20
0.933583
11
1.68131
21
0.856417
0
LINE
8
BLACK
6
CONTINUOUS
10
1.68131
20
0.856417
11
1.68103
21
0.855721
0
LINE
8
BLACK
6
CONTINUOUS
10
1.68103
20
0.855721
11
1.68033
21
0.855433
0
LINE
8
BLACK
6
CONTINUOUS
10
1.68033
20
0.855433
11
1.54647
21
0.855433
0
LINE
8
BLACK
6
CONTINUOUS
10
1.54647
20
0.855433
11
1.54578
21
0.855721
0
LINE
8
BLACK
6
CONTINUOUS
10
1.54746
20
0.932598
11
1.54746
21
0.857402
0
LINE
8
BLACK
6
CONTINUOUS
10
1.54746
20
0.857402
11
1.67935
21
0.857402
0
LINE
8
BLACK
6
CONTINUOUS
10
1.67935
20
0.857402
11
1.67935
21
0.932598
0
LINE
8
BLACK
6
CONTINUOUS
10
1.67935
20
0.932598
11
1.54746
21
0.932598
0
LINE
8
BLACK
6
CONTINUOUS
10
0.759658
20
0.863509
11
0.75937
21
0.864205
0
LINE
8
BLACK
6
CONTINUOUS
10
0.75937
20
0.864205
11
0.75937
21
0.931134
0
LINE
8
BLACK
6
CONTINUOUS
10
0.75937
20
0.931134
11
0.759658
21
0.93183
0
LINE
8
BLACK
6
CONTINUOUS
10
0.759658
20
0.93183
11
0.760354
21
0.932118
0
LINE
8
BLACK
6
CONTINUOUS
10
0.760354
20
0.932118
11
0.89815
21
0.932118
0
LINE
8
BLACK
6
CONTINUOUS
10
0.89815
20
0.932118
11
0.898846
21
0.93183
0
LINE
8
BLACK
6
CONTINUOUS
10
0.898846
20
0.93183
11
0.899134
21
0.931134
0
LINE
8
BLACK
6
CONTINUOUS
10
0.899134
20
0.931134
11
0.899134
21
0.864205
0
LINE
8
BLACK
6
CONTINUOUS
10
0.899134
20
0.864205
11
0.898846
21
0.863509
0
LINE
8
BLACK
6
CONTINUOUS
10
0.898846
20
0.863509
11
0.89815
21
0.86322
0
LINE
8
BLACK
6
CONTINUOUS
10
0.89815
20
0.86322
11
0.760354
21
0.86322
0
LINE
8
BLACK
6
CONTINUOUS
10
0.760354
20
0.86322
11
0.759658
21
0.863509
0
LINE
8
BLACK
6
CONTINUOUS
10
0.761339
20
0.93015
11
0.761339
21
0.865189
0
LINE
8
BLACK
6
CONTINUOUS
10
0.761339
20
0.865189
11
0.897165
21
0.865189
0
LINE
8
BLACK
6
CONTINUOUS
10
0.897165
20
0.865189
11
0.897165
21
0.93015
0
LINE
8
BLACK
6
CONTINUOUS
10
0.897165
20
0.93015
11
0.761339
21
0.93015
0
LINE
8
BLACK
6
CONTINUOUS
10
1.39781
20
0.864839
11
1.39752
21
0.865535
0
LINE
8
BLACK
6
CONTINUOUS
10
1.39752
20
0.865535
11
1.39752
21
0.932465
0
LINE
8
BLACK
6
CONTINUOUS
10
1.39752
20
0.932465
11
1.39781
21
0.933161
0
LINE
8
BLACK
6
CONTINUOUS
10
1.39781
20
0.933161
11
1.3985
21
0.933449
0
LINE
8
BLACK
6
CONTINUOUS
10
1.3985
20
0.933449
11
1.5363
21
0.933449
0
LINE
8
BLACK
6
CONTINUOUS
10
1.5363
20
0.933449
11
1.537
21
0.933161
0
LINE
8
BLACK
6
CONTINUOUS
10
1.537
20
0.933161
11
1.53728
21
0.932465
0
LINE
8
BLACK
6
CONTINUOUS
10
1.53728
20
0.932465
11
1.53728
21
0.865535
0
LINE
8
BLACK
6
CONTINUOUS
10
1.53728
20
0.865535
11
1.537
21
0.864839
0
LINE
8
BLACK
6
CONTINUOUS
10
1.537
20
0.864839
11
1.5363
21
0.864551
0
LINE
8
BLACK
6
CONTINUOUS
10
1.5363
20
0.864551
11
1.3985
21
0.864551
0
LINE
8
BLACK
6
CONTINUOUS
10
1.3985
20
0.864551
11
1.39781
21
0.864839
0
LINE
8
BLACK
6
CONTINUOUS
10
1.39949
20
0.93148
11
1.39949
21
0.86652
0
LINE
8
BLACK
6
CONTINUOUS
10
1.39949
20
0.86652
11
1.53531
21
0.86652
0
LINE
8
BLACK
6
CONTINUOUS
10
1.53531
20
0.86652
11
1.53531
21
0.93148
0
LINE
8
BLACK
6
CONTINUOUS
10
1.53531
20
0.93148
11
1.39949
21
0.93148
0
LINE
8
BLACK
6
CONTINUOUS
10
1.32124
20
0.869406
11
1.32095
21
0.870102
0
LINE
8
BLACK
6
CONTINUOUS
10
1.32095
20
0.870102
11
1.32095
21
1.0079
0
LINE
8
BLACK
6
CONTINUOUS
10
1.32095
20
1.0079
11
1.32124
21
1.00859
0
LINE
8
BLACK
6
CONTINUOUS
10
1.32124
20
1.00859
11
1.32194
21
1.00888
0
LINE
8
BLACK
6
CONTINUOUS
10
1.32194
20
1.00888
11
1.38887
21
1.00888
0
LINE
8
BLACK
6
CONTINUOUS
10
1.38887
20
1.00888
11
1.38956
21
1.00859
0
LINE
8
BLACK
6
CONTINUOUS
10
1.38956
20
1.00859
11
1.38985
21
1.0079
0
LINE
8
BLACK
6
CONTINUOUS
10
1.38985
20
1.0079
11
1.38985
21
0.870102
0
LINE
8
BLACK
6
CONTINUOUS
10
1.38985
20
0.870102
11
1.38956
21
0.869406
0
LINE
8
BLACK
6
CONTINUOUS
10
1.38956
20
0.869406
11
1.38887
21
0.869118
0
LINE
8
BLACK
6
CONTINUOUS
10
1.38887
20
0.869118
11
1.32194
21
0.869118
0
LINE
8
BLACK
6
CONTINUOUS
10
1.32194
20
0.869118
11
1.32124
21
0.869406
0
LINE
8
BLACK
6
CONTINUOUS
10
1.32292
20
1.00691
11
1.32292
21
0.871087
0
LINE
8
BLACK
6
CONTINUOUS
10
1.32292
20
0.871087
11
1.38788
21
0.871087
0
LINE
8
BLACK
6
CONTINUOUS
10
1.38788
20
0.871087
11
1.38788
21
1.00691
0
LINE
8
BLACK
6
CONTINUOUS
10
1.38788
20
1.00691
11
1.32292
21
1.00691
0
LINE
8
BLACK
6
CONTINUOUS
10
1.15724
20
0.870237
11
1.15695
21
0.870933
0
LINE
8
BLACK
6
CONTINUOUS
10
1.15695
20
0.870933
11
1.15695
21
1.00873
0
LINE
8
BLACK
6
CONTINUOUS
10
1.15695
20
1.00873
11
1.15724
21
1.00942
0
LINE
8
BLACK
6
CONTINUOUS
10
1.15724
20
1.00942
11
1.15794
21
1.00971
0
LINE
8
BLACK
6
CONTINUOUS
10
1.15794
20
1.00971
11
1.22487
21
1.00971
0
LINE
8
BLACK
6
CONTINUOUS
10
1.22487
20
1.00971
11
1.22556
21
1.00942
0
LINE
8
BLACK
6
CONTINUOUS
10
1.22556
20
1.00942
11
1.22585
21
1.00873
0
LINE
8
BLACK
6
CONTINUOUS
10
1.22585
20
1.00873
11
1.22585
21
0.870933
0
LINE
8
BLACK
6
CONTINUOUS
10
1.22585
20
0.870933
11
1.22556
21
0.870237
0
LINE
8
BLACK
6
CONTINUOUS
10
1.22556
20
0.870237
11
1.22487
21
0.869949
0
LINE
8
BLACK
6
CONTINUOUS
10
1.22487
20
0.869949
11
1.15794
21
0.869949
0
LINE
8
BLACK
6
CONTINUOUS
10
1.15794
20
0.869949
11
1.15724
21
0.870237
0
LINE
8
BLACK
6
CONTINUOUS
10
1.15892
20
1.00774
11
1.15892
21
0.871917
0
LINE
8
BLACK
6
CONTINUOUS
10
1.15892
20
0.871917
11
1.22388
21
0.871917
0
LINE
8
BLACK
6
CONTINUOUS
10
1.22388
20
0.871917
11
1.22388
21
1.00774
0
LINE
8
BLACK
6
CONTINUOUS
10
1.22388
20
1.00774
11
1.15892
21
1.00774
0
LINE
8
BLACK
6
CONTINUOUS
10
0.992241
20
0.870406
11
0.991953
21
0.871102
0
LINE
8
BLACK
6
CONTINUOUS
10
0.991953
20
0.871102
11
0.991953
21
1.0089
0
LINE
8
BLACK
6
CONTINUOUS
10
0.991953
20
1.0089
11
0.992241
21
1.00959
0
LINE
8
BLACK
6
CONTINUOUS
10
0.992241
20
1.00959
11
0.992937
21
1.00988
0
LINE
8
BLACK
6
CONTINUOUS
10
0.992937
20
1.00988
11
1.05987
21
1.00988
0
LINE
8
BLACK
6
CONTINUOUS
10
1.05987
20
1.00988
11
1.06056
21
1.00959
0
LINE
8
BLACK
6
CONTINUOUS
10
1.06056
20
1.00959
11
1.06085
21
1.0089
0
LINE
8
BLACK
6
CONTINUOUS
10
1.06085
20
1.0089
11
1.06085
21
0.871102
0
LINE
8
BLACK
6
CONTINUOUS
10
1.06085
20
0.871102
11
1.06056
21
0.870406
0
LINE
8
BLACK
6
CONTINUOUS
10
1.06056
20
0.870406
11
1.05987
21
0.870118
0
LINE
8
BLACK
6
CONTINUOUS
10
1.05987
20
0.870118
11
0.992937
21
0.870118
0
LINE
8
BLACK
6
CONTINUOUS
10
0.992937
20
0.870118
11
0.992241
21
0.870406
0
LINE
8
BLACK
6
CONTINUOUS
10
0.993921
20
1.00791
11
0.993921
21
0.872087
0
LINE
8
BLACK
6
CONTINUOUS
10
0.993921
20
0.872087
11
1.05888
21
0.872087
0
LINE
8
BLACK
6
CONTINUOUS
10
1.05888
20
0.872087
11
1.05888
21
1.00791
0
LINE
8
BLACK
6
CONTINUOUS
10
1.05888
20
1.00791
11
0.993921
21
1.00791
0
LINE
8
BLACK
6
CONTINUOUS
10
1.23612
20
0.871375
11
1.23583
21
0.872071
0
LINE
8
BLACK
6
CONTINUOUS
10
1.23583
20
0.872071
11
1.23583
21
1.00593
0
LINE
8
BLACK
6
CONTINUOUS
10
1.23583
20
1.00593
11
1.23612
21
1.00663
0
LINE
8
BLACK
6
CONTINUOUS
10
1.23612
20
1.00663
11
1.23682
21
1.00691
0
LINE
8
BLACK
6
CONTINUOUS
10
1.23682
20
1.00691
11
1.31398
21
1.00691
0
LINE
8
BLACK
6
CONTINUOUS
10
1.31398
20
1.00691
11
1.31468
21
1.00663
0
LINE
8
BLACK
6
CONTINUOUS
10
1.31468
20
1.00663
11
1.31497
21
1.00593
0
LINE
8
BLACK
6
CONTINUOUS
10
1.31497
20
1.00593
11
1.31497
21
0.872071
0
LINE
8
BLACK
6
CONTINUOUS
10
1.31497
20
0.872071
11
1.31468
21
0.871375
0
LINE
8
BLACK
6
CONTINUOUS
10
1.31468
20
0.871375
11
1.31398
21
0.871087
0
LINE
8
BLACK
6
CONTINUOUS
10
1.31398
20
0.871087
11
1.23682
21
0.871087
0
LINE
8
BLACK
6
CONTINUOUS
10
1.23682
20
0.871087
11
1.23612
21
0.871375
0
LINE
8
BLACK
6
CONTINUOUS
10
1.2378
20
1.00494
11
1.2378
21
0.873055
0
LINE
8
BLACK
6
CONTINUOUS
10
1.2378
20
0.873055
11
1.313
21
0.873055
0
LINE
8
BLACK
6
CONTINUOUS
10
1.313
20
0.873055
11
1.313
21
1.00494
0
LINE
8
BLACK
6
CONTINUOUS
10
1.313
20
1.00494
11
1.2378
21
1.00494
0
LINE
8
BLACK
6
CONTINUOUS
10
1.07212
20
0.872206
11
1.07183
21
0.872902
0
LINE
8
BLACK
6
CONTINUOUS
10
1.07183
20
0.872902
11
1.07183
21
1.00676
0
LINE
8
BLACK
6
CONTINUOUS
10
1.07183
20
1.00676
11
1.07212
21
1.00746
0
LINE
8
BLACK
6
CONTINUOUS
10
1.07212
20
1.00746
11
1.07282
21
1.00774
0
LINE
8
BLACK
6
CONTINUOUS
10
1.07282
20
1.00774
11
1.14998
21
1.00774
0
LINE
8
BLACK
6
CONTINUOUS
10
1.14998
20
1.00774
11
1.15068
21
1.00746
0
LINE
8
BLACK
6
CONTINUOUS
10
1.15068
20
1.00746
11
1.15097
21
1.00676
0
LINE
8
BLACK
6
CONTINUOUS
10
1.15097
20
1.00676
11
1.15097
21
0.872902
0
LINE
8
BLACK
6
CONTINUOUS
10
1.15097
20
0.872902
11
1.15068
21
0.872206
0
LINE
8
BLACK
6
CONTINUOUS
10
1.15068
20
0.872206
11
1.14998
21
0.871917
0
LINE
8
BLACK
6
CONTINUOUS
10
1.14998
20
0.871917
11
1.07282
21
0.871917
0
LINE
8
BLACK
6
CONTINUOUS
10
1.07282
20
0.871917
11
1.07212
21
0.872206
0
LINE
8
BLACK
6
CONTINUOUS
10
1.0738
20
1.00578
11
1.0738
21
0.873886
0
LINE
8
BLACK
6
CONTINUOUS
10
1.0738
20
0.873886
11
1.149
21
0.873886
0
LINE
8
BLACK
6
CONTINUOUS
10
1.149
20
0.873886
11
1.149
21
1.00578
0
LINE
8
BLACK
6
CONTINUOUS
10
1.149
20
1.00578
11
1.0738
21
1.00578
0
LINE
8
BLACK
6
CONTINUOUS
10
0.907123
20
0.872375
11
0.906835
21
0.873071
0
LINE
8
BLACK
6
CONTINUOUS
10
0.906835
20
0.873071
11
0.906835
21
1.00693
0
LINE
8
BLACK
6
CONTINUOUS
10
0.906835
20
1.00693
11
0.907123
21
1.00763
0
LINE
8
BLACK
6
CONTINUOUS
10
0.907123
20
1.00763
11
0.907819
21
1.00791
0
LINE
8
BLACK
6
CONTINUOUS
10
0.907819
20
1.00791
11
0.984984
21
1.00791
0
LINE
8
BLACK
6
CONTINUOUS
10
0.984984
20
1.00791
11
0.98568
21
1.00763
0
LINE
8
BLACK
6
CONTINUOUS
10
0.98568
20
1.00763
11
0.985969
21
1.00693
0
LINE
8
BLACK
6
CONTINUOUS
10
0.985969
20
1.00693
11
0.985969
21
0.873071
0
LINE
8
BLACK
6
CONTINUOUS
10
0.985969
20
0.873071
11
0.98568
21
0.872375
0
LINE
8
BLACK
6
CONTINUOUS
10
0.98568
20
0.872375
11
0.984984
21
0.872087
0
LINE
8
BLACK
6
CONTINUOUS
10
0.984984
20
0.872087
11
0.907819
21
0.872087
0
LINE
8
BLACK
6
CONTINUOUS
10
0.907819
20
0.872087
11
0.907123
21
0.872375
0
LINE
8
BLACK
6
CONTINUOUS
10
0.908803
20
1.00594
11
0.908803
21
0.874055
0
LINE
8
BLACK
6
CONTINUOUS
10
0.908803
20
0.874055
11
0.984
21
0.874055
0
LINE
8
BLACK
6
CONTINUOUS
10
0.984
20
0.874055
11
0.984
21
1.00594
0
LINE
8
BLACK
6
CONTINUOUS
10
0.984
20
1.00594
11
0.908803
21
1.00594
0
LINE
8
BLACK
6
CONTINUOUS
10
0.759658
20
0.943509
11
0.75937
21
0.944205
0
LINE
8
BLACK
6
CONTINUOUS
10
0.75937
20
0.944205
11
0.75937
21
1.01113
0
LINE
8
BLACK
6
CONTINUOUS
10
0.75937
20
1.01113
11
0.759658
21
1.01183
0
LINE
8
BLACK
6
CONTINUOUS
10
0.759658
20
1.01183
11
0.760354
21
1.01212
0
LINE
8
BLACK
6
CONTINUOUS
10
0.760354
20
1.01212
11
0.89815
21
1.01212
0
LINE
8
BLACK
6
CONTINUOUS
10
0.89815
20
1.01212
11
0.898846
21
1.01183
0
LINE
8
BLACK
6
CONTINUOUS
10
0.898846
20
1.01183
11
0.899134
21
1.01113
0
LINE
8
BLACK
6
CONTINUOUS
10
0.899134
20
1.01113
11
0.899134
21
0.944205
0
LINE
8
BLACK
6
CONTINUOUS
10
0.899134
20
0.944205
11
0.898846
21
0.943509
0
LINE
8
BLACK
6
CONTINUOUS
10
0.898846
20
0.943509
11
0.89815
21
0.94322
0
LINE
8
BLACK
6
CONTINUOUS
10
0.89815
20
0.94322
11
0.760354
21
0.94322
0
LINE
8
BLACK
6
CONTINUOUS
10
0.760354
20
0.94322
11
0.759658
21
0.943509
0
LINE
8
BLACK
6
CONTINUOUS
10
0.761339
20
1.01015
11
0.761339
21
0.945189
0
LINE
8
BLACK
6
CONTINUOUS
10
0.761339
20
0.945189
11
0.897165
21
0.945189
0
LINE
8
BLACK
6
CONTINUOUS
10
0.897165
20
0.945189
11
0.897165
21
1.01015
0
LINE
8
BLACK
6
CONTINUOUS
10
0.897165
20
1.01015
11
0.761339
21
1.01015
0
LINE
8
BLACK
6
CONTINUOUS
10
0.613796
20
0.944391
11
0.613508
21
0.945087
0
LINE
8
BLACK
6
CONTINUOUS
10
0.613508
20
0.945087
11
0.613508
21
1.02225
0
LINE
8
BLACK
6
CONTINUOUS
10
0.613508
20
1.02225
11
0.613796
21
1.02295
0
LINE
8
BLACK
6
CONTINUOUS
10
0.613796
20
1.02295
11
0.614492
21
1.02324
0
LINE
8
BLACK
6
CONTINUOUS
10
0.614492
20
1.02324
11
0.74835
21
1.02324
0
LINE
8
BLACK
6
CONTINUOUS
10
0.74835
20
1.02324
11
0.749046
21
1.02295
0
LINE
8
BLACK
6
CONTINUOUS
10
0.749046
20
1.02295
11
0.749335
21
1.02225
0
LINE
8
BLACK
6
CONTINUOUS
10
0.749335
20
1.02225
11
0.749335
21
0.945087
0
LINE
8
BLACK
6
CONTINUOUS
10
0.749335
20
0.945087
11
0.749046
21
0.944391
0
LINE
8
BLACK
6
CONTINUOUS
10
0.749046
20
0.944391
11
0.74835
21
0.944102
0
LINE
8
BLACK
6
CONTINUOUS
10
0.74835
20
0.944102
11
0.614492
21
0.944102
0
LINE
8
BLACK
6
CONTINUOUS
10
0.614492
20
0.944102
11
0.613796
21
0.944391
0
LINE
8
BLACK
6
CONTINUOUS
10
0.615476
20
1.02127
11
0.615476
21
0.946071
0
LINE
8
BLACK
6
CONTINUOUS
10
0.615476
20
0.946071
11
0.747366
21
0.946071
0
LINE
8
BLACK
6
CONTINUOUS
10
0.747366
20
0.946071
11
0.747366
21
1.02127
0
LINE
8
BLACK
6
CONTINUOUS
10
0.747366
20
1.02127
11
0.615476
21
1.02127
0
LINE
8
BLACK
6
CONTINUOUS
10
1.39781
20
0.944839
11
1.39752
21
0.945535
0
LINE
8
BLACK
6
CONTINUOUS
10
1.39752
20
0.945535
11
1.39752
21
1.01246
0
LINE
8
BLACK
6
CONTINUOUS
10
1.39752
20
1.01246
11
1.39781
21
1.01316
0
LINE
8
BLACK
6
CONTINUOUS
10
1.39781
20
1.01316
11
1.3985
21
1.01345
0
LINE
8
BLACK
6
CONTINUOUS
10
1.3985
20
1.01345
11
1.5363
21
1.01345
0
LINE
8
BLACK
6
CONTINUOUS
10
1.5363
20
1.01345
11
1.537
21
1.01316
0
LINE
8
BLACK
6
CONTINUOUS
10
1.537
20
1.01316
11
1.53728
21
1.01246
0
LINE
8
BLACK
6
CONTINUOUS
10
1.53728
20
1.01246
11
1.53728
21
0.945535
0
LINE
8
BLACK
6
CONTINUOUS
10
1.53728
20
0.945535
11
1.537
21
0.944839
0
LINE
8
BLACK
6
CONTINUOUS
10
1.537
20
0.944839
11
1.5363
21
0.944551
0
LINE
8
BLACK
6
CONTINUOUS
10
1.5363
20
0.944551
11
1.3985
21
0.944551
0
LINE
8
BLACK
6
CONTINUOUS
10
1.3985
20
0.944551
11
1.39781
21
0.944839
0
LINE
8
BLACK
6
CONTINUOUS
10
1.39949
20
1.01148
11
1.39949
21
0.94652
0
LINE
8
BLACK
6
CONTINUOUS
10
1.39949
20
0.94652
11
1.53531
21
0.94652
0
LINE
8
BLACK
6
CONTINUOUS
10
1.53531
20
0.94652
11
1.53531
21
1.01148
0
LINE
8
BLACK
6
CONTINUOUS
10
1.53531
20
1.01148
11
1.39949
21
1.01148
0
LINE
8
BLACK
6
CONTINUOUS
10
1.54578
20
0.945721
11
1.54549
21
0.946417
0
LINE
8
BLACK
6
CONTINUOUS
10
1.54549
20
0.946417
11
1.54549
21
1.02358
0
LINE
8
BLACK
6
CONTINUOUS
10
1.54549
20
1.02358
11
1.54578
21
1.02428
0
LINE
8
BLACK
6
CONTINUOUS
10
1.54578
20
1.02428
11
1.54647
21
1.02457
0
LINE
8
BLACK
6
CONTINUOUS
10
1.54647
20
1.02457
11
1.68033
21
1.02457
0
LINE
8
BLACK
6
CONTINUOUS
10
1.68033
20
1.02457
11
1.68103
21
1.02428
0
LINE
8
BLACK
6
CONTINUOUS
10
1.68103
20
1.02428
11
1.68131
21
1.02358
0
LINE
8
BLACK
6
CONTINUOUS
10
1.68131
20
1.02358
11
1.68131
21
0.946417
0
LINE
8
BLACK
6
CONTINUOUS
10
1.68131
20
0.946417
11
1.68103
21
0.945721
0
LINE
8
BLACK
6
CONTINUOUS
10
1.68103
20
0.945721
11
1.68033
21
0.945433
0
LINE
8
BLACK
6
CONTINUOUS
10
1.68033
20
0.945433
11
1.54647
21
0.945433
0
LINE
8
BLACK
6
CONTINUOUS
10
1.54647
20
0.945433
11
1.54578
21
0.945721
0
LINE
8
BLACK
6
CONTINUOUS
10
1.54746
20
1.0226
11
1.54746
21
0.947402
0
LINE
8
BLACK
6
CONTINUOUS
10
1.54746
20
0.947402
11
1.67935
21
0.947402
0
LINE
8
BLACK
6
CONTINUOUS
10
1.67935
20
0.947402
11
1.67935
21
1.0226
0
LINE
8
BLACK
6
CONTINUOUS
10
1.67935
20
1.0226
11
1.54746
21
1.0226
0
LINE
8
BLACK
6
CONTINUOUS
10
1.16381
20
1.01684
11
1.16352
21
1.01754
0
LINE
8
BLACK
6
CONTINUOUS
10
1.16352
20
1.01754
11
1.16352
21
1.08446
0
LINE
8
BLACK
6
CONTINUOUS
10
1.16352
20
1.08446
11
1.16381
21
1.08516
0
LINE
8
BLACK
6
CONTINUOUS
10
1.16381
20
1.08516
11
1.1645
21
1.08545
0
LINE
8
BLACK
6
CONTINUOUS
10
1.1645
20
1.08545
11
1.3023
21
1.08545
0
LINE
8
BLACK
6
CONTINUOUS
10
1.3023
20
1.08545
11
1.303
21
1.08516
0
LINE
8
BLACK
6
CONTINUOUS
10
1.303
20
1.08516
11
1.30328
21
1.08446
0
LINE
8
BLACK
6
CONTINUOUS
10
1.30328
20
1.08446
11
1.30328
21
1.01754
0
LINE
8
BLACK
6
CONTINUOUS
10
1.30328
20
1.01754
11
1.303
21
1.01684
0
LINE
8
BLACK
6
CONTINUOUS
10
1.303
20
1.01684
11
1.3023
21
1.01655
0
LINE
8
BLACK
6
CONTINUOUS
10
1.3023
20
1.01655
11
1.1645
21
1.01655
0
LINE
8
BLACK
6
CONTINUOUS
10
1.1645
20
1.01655
11
1.16381
21
1.01684
0
LINE
8
BLACK
6
CONTINUOUS
10
1.16549
20
1.08348
11
1.16549
21
1.01852
0
LINE
8
BLACK
6
CONTINUOUS
10
1.16549
20
1.01852
11
1.30131
21
1.01852
0
LINE
8
BLACK
6
CONTINUOUS
10
1.30131
20
1.01852
11
1.30131
21
1.08348
0
LINE
8
BLACK
6
CONTINUOUS
10
1.30131
20
1.08348
11
1.16549
21
1.08348
0
LINE
8
BLACK
6
CONTINUOUS
10
0.998808
20
1.01684
11
0.99852
21
1.01754
0
LINE
8
BLACK
6
CONTINUOUS
10
0.99852
20
1.01754
11
0.99852
21
1.08446
0
LINE
8
BLACK
6
CONTINUOUS
10
0.99852
20
1.08446
11
0.998808
21
1.08516
0
LINE
8
BLACK
6
CONTINUOUS
10
0.998808
20
1.08516
11
0.999504
21
1.08545
0
LINE
8
BLACK
6
CONTINUOUS
10
0.999504
20
1.08545
11
1.1373
21
1.08545
0
LINE
8
BLACK
6
CONTINUOUS
10
1.1373
20
1.08545
11
1.138
21
1.08516
0
LINE
8
BLACK
6
CONTINUOUS
10
1.138
20
1.08516
11
1.13828
21
1.08446
0
LINE
8
BLACK
6
CONTINUOUS
10
1.13828
20
1.08446
11
1.13828
21
1.01754
0
LINE
8
BLACK
6
CONTINUOUS
10
1.13828
20
1.01754
11
1.138
21
1.01684
0
LINE
8
BLACK
6
CONTINUOUS
10
1.138
20
1.01684
11
1.1373
21
1.01655
0
LINE
8
BLACK
6
CONTINUOUS
10
1.1373
20
1.01655
11
0.999504
21
1.01655
0
LINE
8
BLACK
6
CONTINUOUS
10
0.999504
20
1.01655
11
0.998808
21
1.01684
0
LINE
8
BLACK
6
CONTINUOUS
10
1.00049
20
1.08348
11
1.00049
21
1.01852
0
LINE
8
BLACK
6
CONTINUOUS
10
1.00049
20
1.01852
11
1.13631
21
1.01852
0
LINE
8
BLACK
6
CONTINUOUS
10
1.13631
20
1.01852
11
1.13631
21
1.08348
0
LINE
8
BLACK
6
CONTINUOUS
10
1.13631
20
1.08348
11
1.00049
21
1.08348
  0
ENDSEC
  0
EOF
