  0
SECTION
  2
HEADER
  9
$ANGBASE
  50
0.0
  9
$ANGDIR
  70
1
  9
$MEASUREMENT
  70
0
  0
ENDSEC
  0
SECTION
  2
TABLES
  0
TABLE
  2
LTYPE
  70
4
  0
LTYPE
  5
40F
  2
CONTINUOUS
  70
0
  3
Solid line
  72
65
  73
0
  40
0.0
  0
LTYPE
  5
410
  2
DASHDOT
 70
0
  3
Dash Dot ____ _ ____ _
 72
65
 73
4
 40
2.0
 49
1.25
 49
-0.25
 49
0.25
 49
-0.25
  0
LTYPE
  5
411
  2
DASHED
 70
0
  3
Dashed __ __ __ __ __
 72
65
 73
2
 40
0.75
 49
0.5
 49
-0.25
  0
LTYPE
  5
43B
  2
DOTTED
 70
0
  3
Dotted .  .  .  .
 72
65
 73
2
 40
0.2
 49
0.0
 49
-0.2
  0
ENDTAB
  0
TABLE
  2
STYLE
  70
4
  0
STYLE
  2
KICAD
  70
0
  40
0
  41
1
  42
1
  50
0
  71
0
  3
isocp.shx
  0
STYLE
  2
KICADB
  70
0
  40
0
  41
1
  42
1
  50
0
  71
0
  3
isocp.shx
  0
STYLE
  2
KICADI
  70
0
  40
0
  41
1
  42
1
  50
15
  71
0
  3
isocp.shx
  0
STYLE
  2
KICADBI
  70
0
  40
0
  41
1
  42
1
  50
15
  71
0
  3
isocp.shx
  0
ENDTAB
  0
TABLE
  2
LAYER
  70
1
  0
LAYER
  2
BLACK
  70
0
  62
7
  6
CONTINUOUS
  0
ENDTAB
  0
ENDSEC
  0
SECTION
  2
ENTITIES
0
LINE
8
BLACK
6
CONTINUOUS
10
2.21492
20
0.325098
11
2.22877
21
0.322656
0
LINE
8
BLACK
6
CONTINUOUS
10
2.22877
20
0.322656
11
2.24226
21
0.318684
0
LINE
8
BLACK
6
CONTINUOUS
10
2.24226
20
0.318684
11
2.25523
21
0.313234
0
LINE
8
BLACK
6
CONTINUOUS
10
2.25523
20
0.313234
11
2.26751
21
0.306372
0
LINE
8
BLACK
6
CONTINUOUS
10
2.26751
20
0.306372
11
2.27894
21
0.298184
0
LINE
8
BLACK
6
CONTINUOUS
10
2.27894
20
0.298184
11
2.28939
21
0.288773
0
LINE
8
BLACK
6
CONTINUOUS
10
2.28939
20
0.288773
11
2.29873
21
0.278255
0
LINE
8
BLACK
6
CONTINUOUS
10
2.29873
20
0.278255
11
2.30684
21
0.266761
0
LINE
8
BLACK
6
CONTINUOUS
10
2.30684
20
0.266761
11
2.31362
21
0.254436
0
LINE
8
BLACK
6
CONTINUOUS
10
2.31362
20
0.254436
11
2.31898
21
0.241432
0
LINE
8
BLACK
6
CONTINUOUS
10
2.31898
20
0.241432
11
2.32285
21
0.227912
0
LINE
8
BLACK
6
CONTINUOUS
10
2.32285
20
0.227912
11
2.3252
21
0.214043
0
LINE
8
BLACK
6
CONTINUOUS
10
2.3252
20
0.214043
11
2.32598
21
0.2
0
LINE
8
BLACK
6
CONTINUOUS
10
2.32598
20
0.2
11
2.32594
21
0.196482
0
LINE
8
BLACK
6
CONTINUOUS
10
2.32594
20
0.196482
11
2.32476
21
0.182466
0
LINE
8
BLACK
6
CONTINUOUS
10
2.32476
20
0.182466
11
2.32203
21
0.168669
0
LINE
8
BLACK
6
CONTINUOUS
10
2.32203
20
0.168669
11
2.31777
21
0.155262
0
LINE
8
BLACK
6
CONTINUOUS
10
2.31777
20
0.155262
11
2.31205
21
0.142413
0
LINE
8
BLACK
6
CONTINUOUS
10
2.31205
20
0.142413
11
2.30493
21
0.130281
0
LINE
8
BLACK
6
CONTINUOUS
10
2.30493
20
0.130281
11
2.29651
21
0.119019
0
LINE
8
BLACK
6
CONTINUOUS
10
2.29651
20
0.119019
11
2.28688
21
0.108766
0
LINE
8
BLACK
6
CONTINUOUS
10
2.28688
20
0.108766
11
2.27617
21
0.0996498
0
LINE
8
BLACK
6
CONTINUOUS
10
2.27617
20
0.0996498
11
2.26451
21
0.0917846
0
LINE
8
BLACK
6
CONTINUOUS
10
2.26451
20
0.0917846
11
2.25204
21
0.0852682
0
LINE
8
BLACK
6
CONTINUOUS
10
2.25204
20
0.0852682
11
2.23893
21
0.0801819
0
LINE
8
BLACK
6
CONTINUOUS
10
2.23893
20
0.0801819
11
2.22533
21
0.0765889
0
LINE
8
BLACK
6
CONTINUOUS
10
2.22533
20
0.0765889
11
2.21142
21
0.0745343
0
LINE
8
BLACK
6
CONTINUOUS
10
2.21142
20
0.0745343
11
2.19736
21
0.0740434
0
LINE
8
BLACK
6
CONTINUOUS
10
2.19736
20
0.0740434
11
2.18334
21
0.0751224
0
LINE
8
BLACK
6
CONTINUOUS
10
2.18334
20
0.0751224
11
2.16952
21
0.077758
0
LINE
8
BLACK
6
CONTINUOUS
10
2.16952
20
0.077758
11
2.15609
21
0.0819172
0
LINE
8
BLACK
6
CONTINUOUS
10
2.15609
20
0.0819172
11
2.1432
21
0.0875482
0
LINE
8
BLACK
6
CONTINUOUS
10
2.1432
20
0.0875482
11
2.13102
21
0.0945809
0
LINE
8
BLACK
6
CONTINUOUS
10
2.13102
20
0.0945809
11
2.11969
21
0.102927
0
LINE
8
BLACK
6
CONTINUOUS
10
2.11969
20
0.102927
11
2.10937
21
0.112484
0
LINE
8
BLACK
6
CONTINUOUS
10
2.10937
20
0.112484
11
2.10018
21
0.123131
0
LINE
8
BLACK
6
CONTINUOUS
10
2.10018
20
0.123131
11
2.09224
21
0.134737
0
LINE
8
BLACK
6
CONTINUOUS
10
2.09224
20
0.134737
11
2.08563
21
0.147156
0
LINE
8
BLACK
6
CONTINUOUS
10
2.08563
20
0.147156
11
2.08046
21
0.160233
0
LINE
8
BLACK
6
CONTINUOUS
10
2.08046
20
0.160233
11
2.07677
21
0.173806
0
LINE
8
BLACK
6
CONTINUOUS
10
2.07677
20
0.173806
11
2.07462
21
0.187706
0
LINE
8
BLACK
6
CONTINUOUS
10
2.07462
20
0.187706
11
2.07403
21
0.201759
0
LINE
8
BLACK
6
CONTINUOUS
10
2.07403
20
0.201759
11
2.07501
21
0.21579
0
LINE
8
BLACK
6
CONTINUOUS
10
2.07501
20
0.21579
11
2.07755
21
0.229624
0
LINE
8
BLACK
6
CONTINUOUS
10
2.07755
20
0.229624
11
2.08161
21
0.243089
0
LINE
8
BLACK
6
CONTINUOUS
10
2.08161
20
0.243089
11
2.08715
21
0.256017
0
LINE
8
BLACK
6
CONTINUOUS
10
2.08715
20
0.256017
11
2.0941
21
0.268247
0
LINE
8
BLACK
6
CONTINUOUS
10
2.0941
20
0.268247
11
2.10237
21
0.279626
0
LINE
8
BLACK
6
CONTINUOUS
10
2.10237
20
0.279626
11
2.11185
21
0.290012
0
LINE
8
BLACK
6
CONTINUOUS
10
2.11185
20
0.290012
11
2.12244
21
0.299277
0
LINE
8
BLACK
6
CONTINUOUS
10
2.12244
20
0.299277
11
2.13399
21
0.307304
0
LINE
8
BLACK
6
CONTINUOUS
10
2.13399
20
0.307304
11
2.14636
21
0.313994
0
LINE
8
BLACK
6
CONTINUOUS
10
2.14636
20
0.313994
11
2.1594
21
0.319263
0
LINE
8
BLACK
6
CONTINUOUS
10
2.1594
20
0.319263
11
2.17295
21
0.323045
0
LINE
8
BLACK
6
CONTINUOUS
10
2.17295
20
0.323045
11
2.18683
21
0.325294
0
LINE
8
BLACK
6
CONTINUOUS
10
2.18683
20
0.325294
11
2.20088
21
0.325981
0
LINE
8
BLACK
6
CONTINUOUS
10
2.20088
20
0.325981
11
2.21492
21
0.325098
0
LINE
8
BLACK
6
CONTINUOUS
10
0.214917
20
0.325098
11
0.228769
21
0.322656
0
LINE
8
BLACK
6
CONTINUOUS
10
0.228769
20
0.322656
11
0.242262
21
0.318684
0
LINE
8
BLACK
6
CONTINUOUS
10
0.242262
20
0.318684
11
0.255228
21
0.313234
0
LINE
8
BLACK
6
CONTINUOUS
10
0.255228
20
0.313234
11
0.267506
21
0.306372
0
LINE
8
BLACK
6
CONTINUOUS
10
0.267506
20
0.306372
11
0.278942
21
0.298184
0
LINE
8
BLACK
6
CONTINUOUS
10
0.278942
20
0.298184
11
0.289395
21
0.288773
0
LINE
8
BLACK
6
CONTINUOUS
10
0.289395
20
0.288773
11
0.298733
21
0.278255
0
LINE
8
BLACK
6
CONTINUOUS
10
0.298733
20
0.278255
11
0.306841
21
0.266761
0
LINE
8
BLACK
6
CONTINUOUS
10
0.306841
20
0.266761
11
0.313617
21
0.254436
0
LINE
8
BLACK
6
CONTINUOUS
10
0.313617
20
0.254436
11
0.318977
21
0.241432
0
LINE
8
BLACK
6
CONTINUOUS
10
0.318977
20
0.241432
11
0.322853
21
0.227912
0
LINE
8
BLACK
6
CONTINUOUS
10
0.322853
20
0.227912
11
0.325199
21
0.214043
0
LINE
8
BLACK
6
CONTINUOUS
10
0.325199
20
0.214043
11
0.325984
21
0.2
0
LINE
8
BLACK
6
CONTINUOUS
10
0.325984
20
0.2
11
0.325935
21
0.196482
0
LINE
8
BLACK
6
CONTINUOUS
10
0.325935
20
0.196482
11
0.324758
21
0.182466
0
LINE
8
BLACK
6
CONTINUOUS
10
0.324758
20
0.182466
11
0.322026
21
0.168669
0
LINE
8
BLACK
6
CONTINUOUS
10
0.322026
20
0.168669
11
0.317773
21
0.155262
0
LINE
8
BLACK
6
CONTINUOUS
10
0.317773
20
0.155262
11
0.312052
21
0.142413
0
LINE
8
BLACK
6
CONTINUOUS
10
0.312052
20
0.142413
11
0.304935
21
0.130281
0
LINE
8
BLACK
6
CONTINUOUS
10
0.304935
20
0.130281
11
0.29651
21
0.119019
0
LINE
8
BLACK
6
CONTINUOUS
10
0.29651
20
0.119019
11
0.286881
21
0.108766
0
LINE
8
BLACK
6
CONTINUOUS
10
0.286881
20
0.108766
11
0.27617
21
0.0996498
0
LINE
8
BLACK
6
CONTINUOUS
10
0.27617
20
0.0996498
11
0.264509
21
0.0917846
0
LINE
8
BLACK
6
CONTINUOUS
10
0.264509
20
0.0917846
11
0.252045
21
0.0852682
0
LINE
8
BLACK
6
CONTINUOUS
10
0.252045
20
0.0852682
11
0.238931
21
0.0801819
0
LINE
8
BLACK
6
CONTINUOUS
10
0.238931
20
0.0801819
11
0.225333
21
0.0765889
0
LINE
8
BLACK
6
CONTINUOUS
10
0.225333
20
0.0765889
11
0.211418
21
0.0745343
0
LINE
8
BLACK
6
CONTINUOUS
10
0.211418
20
0.0745343
11
0.197362
21
0.0740434
0
LINE
8
BLACK
6
CONTINUOUS
10
0.197362
20
0.0740434
11
0.183338
21
0.0751224
0
LINE
8
BLACK
6
CONTINUOUS
10
0.183338
20
0.0751224
11
0.169522
21
0.077758
0
LINE
8
BLACK
6
CONTINUOUS
10
0.169522
20
0.077758
11
0.156085
21
0.0819172
0
LINE
8
BLACK
6
CONTINUOUS
10
0.156085
20
0.0819172
11
0.143197
21
0.0875482
0
LINE
8
BLACK
6
CONTINUOUS
10
0.143197
20
0.0875482
11
0.131016
21
0.0945809
0
LINE
8
BLACK
6
CONTINUOUS
10
0.131016
20
0.0945809
11
0.119695
21
0.102927
0
LINE
8
BLACK
6
CONTINUOUS
10
0.119695
20
0.102927
11
0.109375
21
0.112484
0
LINE
8
BLACK
6
CONTINUOUS
10
0.109375
20
0.112484
11
0.100184
21
0.123131
0
LINE
8
BLACK
6
CONTINUOUS
10
0.100184
20
0.123131
11
0.0922376
21
0.134737
0
LINE
8
BLACK
6
CONTINUOUS
10
0.0922376
20
0.134737
11
0.0856343
21
0.147156
0
LINE
8
BLACK
6
CONTINUOUS
10
0.0856343
20
0.147156
11
0.0804566
21
0.160233
0
LINE
8
BLACK
6
CONTINUOUS
10
0.0804566
20
0.160233
11
0.0767688
21
0.173806
0
LINE
8
BLACK
6
CONTINUOUS
10
0.0767688
20
0.173806
11
0.074617
21
0.187706
0
LINE
8
BLACK
6
CONTINUOUS
10
0.074617
20
0.187706
11
0.074028
21
0.201759
0
LINE
8
BLACK
6
CONTINUOUS
10
0.074028
20
0.201759
11
0.0750092
21
0.21579
0
LINE
8
BLACK
6
CONTINUOUS
10
0.0750092
20
0.21579
11
0.0775482
21
0.229624
0
LINE
8
BLACK
6
CONTINUOUS
10
0.0775482
20
0.229624
11
0.0816135
21
0.243089
0
LINE
8
BLACK
6
CONTINUOUS
10
0.0816135
20
0.243089
11
0.0871544
21
0.256017
0
LINE
8
BLACK
6
CONTINUOUS
10
0.0871544
20
0.256017
11
0.0941019
21
0.268247
0
LINE
8
BLACK
6
CONTINUOUS
10
0.0941019
20
0.268247
11
0.102369
21
0.279626
0
LINE
8
BLACK
6
CONTINUOUS
10
0.102369
20
0.279626
11
0.111853
21
0.290012
0
LINE
8
BLACK
6
CONTINUOUS
10
0.111853
20
0.290012
11
0.122436
21
0.299277
0
LINE
8
BLACK
6
CONTINUOUS
10
0.122436
20
0.299277
11
0.133986
21
0.307304
0
LINE
8
BLACK
6
CONTINUOUS
10
0.133986
20
0.307304
11
0.146359
21
0.313994
0
LINE
8
BLACK
6
CONTINUOUS
10
0.146359
20
0.313994
11
0.1594
21
0.319263
0
LINE
8
BLACK
6
CONTINUOUS
10
0.1594
20
0.319263
11
0.172947
21
0.323045
0
LINE
8
BLACK
6
CONTINUOUS
10
0.172947
20
0.323045
11
0.186831
21
0.325294
0
LINE
8
BLACK
6
CONTINUOUS
10
0.186831
20
0.325294
11
0.20088
21
0.325981
0
LINE
8
BLACK
6
CONTINUOUS
10
0.20088
20
0.325981
11
0.214917
21
0.325098
0
LINE
8
BLACK
6
CONTINUOUS
10
2.026
20
0.594629
11
2.03521
21
0.592988
0
LINE
8
BLACK
6
CONTINUOUS
10
2.03521
20
0.592988
11
2.04403
21
0.589865
0
LINE
8
BLACK
6
CONTINUOUS
10
2.04403
20
0.589865
11
2.05222
21
0.585344
0
LINE
8
BLACK
6
CONTINUOUS
10
2.05222
20
0.585344
11
2.05956
21
0.579546
0
LINE
8
BLACK
6
CONTINUOUS
10
2.05956
20
0.579546
11
2.06586
21
0.572626
0
LINE
8
BLACK
6
CONTINUOUS
10
2.06586
20
0.572626
11
2.07094
21
0.564772
0
LINE
8
BLACK
6
CONTINUOUS
10
2.07094
20
0.564772
11
2.07467
21
0.556192
0
LINE
8
BLACK
6
CONTINUOUS
10
2.07467
20
0.556192
11
2.07695
21
0.547119
0
LINE
8
BLACK
6
CONTINUOUS
10
2.07695
20
0.547119
11
2.07772
21
0.537795
0
LINE
8
BLACK
6
CONTINUOUS
10
2.07772
20
0.537795
11
2.07765
21
0.535007
0
LINE
8
BLACK
6
CONTINUOUS
10
2.07765
20
0.535007
11
2.07643
21
0.525731
0
LINE
8
BLACK
6
CONTINUOUS
10
2.07643
20
0.525731
11
2.07371
21
0.51678
0
LINE
8
BLACK
6
CONTINUOUS
10
2.07371
20
0.51678
11
2.06956
21
0.508394
0
LINE
8
BLACK
6
CONTINUOUS
10
2.06956
20
0.508394
11
2.0641
21
0.500796
0
LINE
8
BLACK
6
CONTINUOUS
10
2.0641
20
0.500796
11
2.05748
21
0.494193
0
LINE
8
BLACK
6
CONTINUOUS
10
2.05748
20
0.494193
11
2.04986
21
0.48876
0
LINE
8
BLACK
6
CONTINUOUS
10
2.04986
20
0.48876
11
2.04146
21
0.484644
0
LINE
8
BLACK
6
CONTINUOUS
10
2.04146
20
0.484644
11
2.0325
21
0.481956
0
LINE
8
BLACK
6
CONTINUOUS
10
2.0325
20
0.481956
11
2.02322
21
0.480767
0
LINE
8
BLACK
6
CONTINUOUS
10
2.02322
20
0.480767
11
2.01387
21
0.48111
0
LINE
8
BLACK
6
CONTINUOUS
10
2.01387
20
0.48111
11
2.0047
21
0.482975
0
LINE
8
BLACK
6
CONTINUOUS
10
2.0047
20
0.482975
11
1.99596
21
0.486313
0
LINE
8
BLACK
6
CONTINUOUS
10
1.99596
20
0.486313
11
1.98789
21
0.491033
0
LINE
8
BLACK
6
CONTINUOUS
10
1.98789
20
0.491033
11
1.98069
21
0.497008
0
LINE
8
BLACK
6
CONTINUOUS
10
1.98069
20
0.497008
11
1.97456
21
0.50408
0
LINE
8
BLACK
6
CONTINUOUS
10
1.97456
20
0.50408
11
1.96968
21
0.512056
0
LINE
8
BLACK
6
CONTINUOUS
10
1.96968
20
0.512056
11
1.96616
21
0.520724
0
LINE
8
BLACK
6
CONTINUOUS
10
1.96616
20
0.520724
11
1.9641
21
0.52985
0
LINE
8
BLACK
6
CONTINUOUS
10
1.9641
20
0.52985
11
1.96356
21
0.53919
0
LINE
8
BLACK
6
CONTINUOUS
10
1.96356
20
0.53919
11
1.96455
21
0.548492
0
LINE
8
BLACK
6
CONTINUOUS
10
1.96455
20
0.548492
11
1.96705
21
0.557507
0
LINE
8
BLACK
6
CONTINUOUS
10
1.96705
20
0.557507
11
1.97099
21
0.565993
0
LINE
8
BLACK
6
CONTINUOUS
10
1.97099
20
0.565993
11
1.97627
21
0.573721
0
LINE
8
BLACK
6
CONTINUOUS
10
1.97627
20
0.573721
11
1.98273
21
0.580485
0
LINE
8
BLACK
6
CONTINUOUS
10
1.98273
20
0.580485
11
1.99021
21
0.586102
0
LINE
8
BLACK
6
CONTINUOUS
10
1.99021
20
0.586102
11
1.99851
21
0.590421
0
LINE
8
BLACK
6
CONTINUOUS
10
1.99851
20
0.590421
11
2.0074
21
0.593328
0
LINE
8
BLACK
6
CONTINUOUS
10
2.0074
20
0.593328
11
2.01665
21
0.594743
0
LINE
8
BLACK
6
CONTINUOUS
10
2.01665
20
0.594743
11
2.026
21
0.594629
0
LINE
8
BLACK
6
CONTINUOUS
10
0.294703
20
0.594629
11
0.303913
21
0.592988
0
LINE
8
BLACK
6
CONTINUOUS
10
0.303913
20
0.592988
11
0.312732
21
0.589865
0
LINE
8
BLACK
6
CONTINUOUS
10
0.312732
20
0.589865
11
0.320922
21
0.585344
0
LINE
8
BLACK
6
CONTINUOUS
10
0.320922
20
0.585344
11
0.328264
21
0.579546
0
LINE
8
BLACK
6
CONTINUOUS
10
0.328264
20
0.579546
11
0.33456
21
0.572626
0
LINE
8
BLACK
6
CONTINUOUS
10
0.33456
20
0.572626
11
0.339641
21
0.564772
0
LINE
8
BLACK
6
CONTINUOUS
10
0.339641
20
0.564772
11
0.343372
21
0.556192
0
LINE
8
BLACK
6
CONTINUOUS
10
0.343372
20
0.556192
11
0.345651
21
0.547119
0
LINE
8
BLACK
6
CONTINUOUS
10
0.345651
20
0.547119
11
0.346417
21
0.537795
0
LINE
8
BLACK
6
CONTINUOUS
10
0.346417
20
0.537795
11
0.346349
21
0.535007
0
LINE
8
BLACK
6
CONTINUOUS
10
0.346349
20
0.535007
11
0.345128
21
0.525731
0
LINE
8
BLACK
6
CONTINUOUS
10
0.345128
20
0.525731
11
0.342409
21
0.51678
0
LINE
8
BLACK
6
CONTINUOUS
10
0.342409
20
0.51678
11
0.338264
21
0.508394
0
LINE
8
BLACK
6
CONTINUOUS
10
0.338264
20
0.508394
11
0.332804
21
0.500796
0
LINE
8
BLACK
6
CONTINUOUS
10
0.332804
20
0.500796
11
0.326178
21
0.494193
0
LINE
8
BLACK
6
CONTINUOUS
10
0.326178
20
0.494193
11
0.318561
21
0.48876
0
LINE
8
BLACK
6
CONTINUOUS
10
0.318561
20
0.48876
11
0.31016
21
0.484644
0
LINE
8
BLACK
6
CONTINUOUS
10
0.31016
20
0.484644
11
0.3012
21
0.481956
0
LINE
8
BLACK
6
CONTINUOUS
10
0.3012
20
0.481956
11
0.29192
21
0.480767
0
LINE
8
BLACK
6
CONTINUOUS
10
0.29192
20
0.480767
11
0.282571
21
0.48111
0
LINE
8
BLACK
6
CONTINUOUS
10
0.282571
20
0.48111
11
0.273404
21
0.482975
0
LINE
8
BLACK
6
CONTINUOUS
10
0.273404
20
0.482975
11
0.264664
21
0.486313
0
LINE
8
BLACK
6
CONTINUOUS
10
0.264664
20
0.486313
11
0.256587
21
0.491033
0
LINE
8
BLACK
6
CONTINUOUS
10
0.256587
20
0.491033
11
0.249389
21
0.497008
0
LINE
8
BLACK
6
CONTINUOUS
10
0.249389
20
0.497008
11
0.243264
21
0.50408
0
LINE
8
BLACK
6
CONTINUOUS
10
0.243264
20
0.50408
11
0.238376
21
0.512056
0
LINE
8
BLACK
6
CONTINUOUS
10
0.238376
20
0.512056
11
0.234856
21
0.520724
0
LINE
8
BLACK
6
CONTINUOUS
10
0.234856
20
0.520724
11
0.2328
21
0.52985
0
LINE
8
BLACK
6
CONTINUOUS
10
0.2328
20
0.52985
11
0.232261
21
0.53919
0
LINE
8
BLACK
6
CONTINUOUS
10
0.232261
20
0.53919
11
0.233255
21
0.548492
0
LINE
8
BLACK
6
CONTINUOUS
10
0.233255
20
0.548492
11
0.235755
21
0.557507
0
LINE
8
BLACK
6
CONTINUOUS
10
0.235755
20
0.557507
11
0.239694
21
0.565993
0
LINE
8
BLACK
6
CONTINUOUS
10
0.239694
20
0.565993
11
0.244966
21
0.573721
0
LINE
8
BLACK
6
CONTINUOUS
10
0.244966
20
0.573721
11
0.251429
21
0.580485
0
LINE
8
BLACK
6
CONTINUOUS
10
0.251429
20
0.580485
11
0.258911
21
0.586102
0
LINE
8
BLACK
6
CONTINUOUS
10
0.258911
20
0.586102
11
0.267209
21
0.590421
0
LINE
8
BLACK
6
CONTINUOUS
10
0.267209
20
0.590421
11
0.276101
21
0.593328
0
LINE
8
BLACK
6
CONTINUOUS
10
0.276101
20
0.593328
11
0.285349
21
0.594743
0
LINE
8
BLACK
6
CONTINUOUS
10
0.285349
20
0.594743
11
0.294703
21
0.594629
0
LINE
8
BLACK
6
CONTINUOUS
10
0.395343
20
0.675364
11
0.401985
21
0.673739
0
LINE
8
BLACK
6
CONTINUOUS
10
0.401985
20
0.673739
11
0.408076
21
0.670629
0
LINE
8
BLACK
6
CONTINUOUS
10
0.408076
20
0.670629
11
0.413288
21
0.666201
0
LINE
8
BLACK
6
CONTINUOUS
10
0.413288
20
0.666201
11
0.417341
21
0.660693
0
LINE
8
BLACK
6
CONTINUOUS
10
0.417341
20
0.660693
11
0.420019
21
0.6544
0
LINE
8
BLACK
6
CONTINUOUS
10
0.420019
20
0.6544
11
0.421177
21
0.64766
0
LINE
8
BLACK
6
CONTINUOUS
10
0.421177
20
0.64766
11
0.420754
21
0.640834
0
LINE
8
BLACK
6
CONTINUOUS
10
0.420754
20
0.640834
11
0.418771
21
0.634289
0
LINE
8
BLACK
6
CONTINUOUS
10
0.418771
20
0.634289
11
0.415337
21
0.628375
0
LINE
8
BLACK
6
CONTINUOUS
10
0.415337
20
0.628375
11
0.410633
21
0.62341
0
LINE
8
BLACK
6
CONTINUOUS
10
0.410633
20
0.62341
11
0.404914
21
0.619661
0
LINE
8
BLACK
6
CONTINUOUS
10
0.404914
20
0.619661
11
0.398486
21
0.617327
0
LINE
8
BLACK
6
CONTINUOUS
10
0.398486
20
0.617327
11
0.391693
21
0.616535
0
LINE
8
BLACK
6
CONTINUOUS
10
0.391693
20
0.616535
11
0.383819
21
0.616535
0
LINE
8
BLACK
6
CONTINUOUS
10
0.383819
20
0.616535
11
0.380169
21
0.616762
0
LINE
8
BLACK
6
CONTINUOUS
10
0.380169
20
0.616762
11
0.373526
21
0.618387
0
LINE
8
BLACK
6
CONTINUOUS
10
0.373526
20
0.618387
11
0.367436
21
0.621497
0
LINE
8
BLACK
6
CONTINUOUS
10
0.367436
20
0.621497
11
0.362224
21
0.625925
0
LINE
8
BLACK
6
CONTINUOUS
10
0.362224
20
0.625925
11
0.35817
21
0.631433
0
LINE
8
BLACK
6
CONTINUOUS
10
0.35817
20
0.631433
11
0.355493
21
0.637726
0
LINE
8
BLACK
6
CONTINUOUS
10
0.355493
20
0.637726
11
0.354335
21
0.644466
0
LINE
8
BLACK
6
CONTINUOUS
10
0.354335
20
0.644466
11
0.354758
21
0.651292
0
LINE
8
BLACK
6
CONTINUOUS
10
0.354758
20
0.651292
11
0.35674
21
0.657837
0
LINE
8
BLACK
6
CONTINUOUS
10
0.35674
20
0.657837
11
0.360175
21
0.663751
0
LINE
8
BLACK
6
CONTINUOUS
10
0.360175
20
0.663751
11
0.364878
21
0.668716
0
LINE
8
BLACK
6
CONTINUOUS
10
0.364878
20
0.668716
11
0.370598
21
0.672465
0
LINE
8
BLACK
6
CONTINUOUS
10
0.370598
20
0.672465
11
0.377026
21
0.674799
0
LINE
8
BLACK
6
CONTINUOUS
10
0.377026
20
0.674799
11
0.383819
21
0.675591
0
LINE
8
BLACK
6
CONTINUOUS
10
0.383819
20
0.675591
11
0.391693
21
0.675591
0
LINE
8
BLACK
6
CONTINUOUS
10
0.391693
20
0.675591
11
0.395343
21
0.675364
0
LINE
8
BLACK
6
CONTINUOUS
10
2.12664
20
0.675364
11
2.13328
21
0.673739
0
LINE
8
BLACK
6
CONTINUOUS
10
2.13328
20
0.673739
11
2.13938
21
0.670629
0
LINE
8
BLACK
6
CONTINUOUS
10
2.13938
20
0.670629
11
2.14459
21
0.666201
0
LINE
8
BLACK
6
CONTINUOUS
10
2.14459
20
0.666201
11
2.14864
21
0.660693
0
LINE
8
BLACK
6
CONTINUOUS
10
2.14864
20
0.660693
11
2.15132
21
0.6544
0
LINE
8
BLACK
6
CONTINUOUS
10
2.15132
20
0.6544
11
2.15248
21
0.64766
0
LINE
8
BLACK
6
CONTINUOUS
10
2.15248
20
0.64766
11
2.15205
21
0.640834
0
LINE
8
BLACK
6
CONTINUOUS
10
2.15205
20
0.640834
11
2.15007
21
0.634289
0
LINE
8
BLACK
6
CONTINUOUS
10
2.15007
20
0.634289
11
2.14664
21
0.628375
0
LINE
8
BLACK
6
CONTINUOUS
10
2.14664
20
0.628375
11
2.14193
21
0.62341
0
LINE
8
BLACK
6
CONTINUOUS
10
2.14193
20
0.62341
11
2.13621
21
0.619661
0
LINE
8
BLACK
6
CONTINUOUS
10
2.13621
20
0.619661
11
2.12978
21
0.617327
0
LINE
8
BLACK
6
CONTINUOUS
10
2.12978
20
0.617327
11
2.12299
21
0.616535
0
LINE
8
BLACK
6
CONTINUOUS
10
2.12299
20
0.616535
11
2.11512
21
0.616535
0
LINE
8
BLACK
6
CONTINUOUS
10
2.11512
20
0.616535
11
2.11147
21
0.616762
0
LINE
8
BLACK
6
CONTINUOUS
10
2.11147
20
0.616762
11
2.10483
21
0.618387
0
LINE
8
BLACK
6
CONTINUOUS
10
2.10483
20
0.618387
11
2.09873
21
0.621497
0
LINE
8
BLACK
6
CONTINUOUS
10
2.09873
20
0.621497
11
2.09352
21
0.625925
0
LINE
8
BLACK
6
CONTINUOUS
10
2.09352
20
0.625925
11
2.08947
21
0.631433
0
LINE
8
BLACK
6
CONTINUOUS
10
2.08947
20
0.631433
11
2.08679
21
0.637726
0
LINE
8
BLACK
6
CONTINUOUS
10
2.08679
20
0.637726
11
2.08563
21
0.644466
0
LINE
8
BLACK
6
CONTINUOUS
10
2.08563
20
0.644466
11
2.08606
21
0.651292
0
LINE
8
BLACK
6
CONTINUOUS
10
2.08606
20
0.651292
11
2.08804
21
0.657837
0
LINE
8
BLACK
6
CONTINUOUS
10
2.08804
20
0.657837
11
2.09147
21
0.663751
0
LINE
8
BLACK
6
CONTINUOUS
10
2.09147
20
0.663751
11
2.09618
21
0.668716
0
LINE
8
BLACK
6
CONTINUOUS
10
2.09618
20
0.668716
11
2.1019
21
0.672465
0
LINE
8
BLACK
6
CONTINUOUS
10
2.1019
20
0.672465
11
2.10833
21
0.674799
0
LINE
8
BLACK
6
CONTINUOUS
10
2.10833
20
0.674799
11
2.11512
21
0.675591
0
LINE
8
BLACK
6
CONTINUOUS
10
2.11512
20
0.675591
11
2.12299
21
0.675591
0
LINE
8
BLACK
6
CONTINUOUS
10
2.12299
20
0.675591
11
2.12664
21
0.675364
0
LINE
8
BLACK
6
CONTINUOUS
10
0.336287
20
0.775364
11
0.34293
21
0.773739
0
LINE
8
BLACK
6
CONTINUOUS
10
0.34293
20
0.773739
11
0.349021
21
0.770629
0
LINE
8
BLACK
6
CONTINUOUS
10
0.349021
20
0.770629
11
0.354233
21
0.766201
0
LINE
8
BLACK
6
CONTINUOUS
10
0.354233
20
0.766201
11
0.358286
21
0.760693
0
LINE
8
BLACK
6
CONTINUOUS
10
0.358286
20
0.760693
11
0.360964
21
0.7544
0
LINE
8
BLACK
6
CONTINUOUS
10
0.360964
20
0.7544
11
0.362122
21
0.74766
0
LINE
8
BLACK
6
CONTINUOUS
10
0.362122
20
0.74766
11
0.361699
21
0.740834
0
LINE
8
BLACK
6
CONTINUOUS
10
0.361699
20
0.740834
11
0.359716
21
0.734289
0
LINE
8
BLACK
6
CONTINUOUS
10
0.359716
20
0.734289
11
0.356281
21
0.728375
0
LINE
8
BLACK
6
CONTINUOUS
10
0.356281
20
0.728375
11
0.351578
21
0.72341
0
LINE
8
BLACK
6
CONTINUOUS
10
0.351578
20
0.72341
11
0.348073
21
0.721113
0
LINE
8
BLACK
6
CONTINUOUS
10
0.348073
20
0.721113
11
0.349021
21
0.720629
0
LINE
8
BLACK
6
CONTINUOUS
10
0.349021
20
0.720629
11
0.354233
21
0.716201
0
LINE
8
BLACK
6
CONTINUOUS
10
0.354233
20
0.716201
11
0.358286
21
0.710693
0
LINE
8
BLACK
6
CONTINUOUS
10
0.358286
20
0.710693
11
0.360964
21
0.7044
0
LINE
8
BLACK
6
CONTINUOUS
10
0.360964
20
0.7044
11
0.362122
21
0.69766
0
LINE
8
BLACK
6
CONTINUOUS
10
0.362122
20
0.69766
11
0.361699
21
0.690834
0
LINE
8
BLACK
6
CONTINUOUS
10
0.361699
20
0.690834
11
0.359716
21
0.684289
0
LINE
8
BLACK
6
CONTINUOUS
10
0.359716
20
0.684289
11
0.356281
21
0.678375
0
LINE
8
BLACK
6
CONTINUOUS
10
0.356281
20
0.678375
11
0.351578
21
0.67341
0
LINE
8
BLACK
6
CONTINUOUS
10
0.351578
20
0.67341
11
0.345859
21
0.669661
0
LINE
8
BLACK
6
CONTINUOUS
10
0.345859
20
0.669661
11
0.339431
21
0.667327
0
LINE
8
BLACK
6
CONTINUOUS
10
0.339431
20
0.667327
11
0.332638
21
0.666535
0
LINE
8
BLACK
6
CONTINUOUS
10
0.332638
20
0.666535
11
0.324764
21
0.666535
0
LINE
8
BLACK
6
CONTINUOUS
10
0.324764
20
0.666535
11
0.321114
21
0.666762
0
LINE
8
BLACK
6
CONTINUOUS
10
0.321114
20
0.666762
11
0.314471
21
0.668387
0
LINE
8
BLACK
6
CONTINUOUS
10
0.314471
20
0.668387
11
0.308381
21
0.671497
0
LINE
8
BLACK
6
CONTINUOUS
10
0.308381
20
0.671497
11
0.303169
21
0.675925
0
LINE
8
BLACK
6
CONTINUOUS
10
0.303169
20
0.675925
11
0.299115
21
0.681433
0
LINE
8
BLACK
6
CONTINUOUS
10
0.299115
20
0.681433
11
0.296438
21
0.687726
0
LINE
8
BLACK
6
CONTINUOUS
10
0.296438
20
0.687726
11
0.295279
21
0.694466
0
LINE
8
BLACK
6
CONTINUOUS
10
0.295279
20
0.694466
11
0.295703
21
0.701292
0
LINE
8
BLACK
6
CONTINUOUS
10
0.295703
20
0.701292
11
0.297685
21
0.707837
0
LINE
8
BLACK
6
CONTINUOUS
10
0.297685
20
0.707837
11
0.30112
21
0.713751
0
LINE
8
BLACK
6
CONTINUOUS
10
0.30112
20
0.713751
11
0.305823
21
0.718716
0
LINE
8
BLACK
6
CONTINUOUS
10
0.305823
20
0.718716
11
0.309328
21
0.721013
0
LINE
8
BLACK
6
CONTINUOUS
10
0.309328
20
0.721013
11
0.308381
21
0.721497
0
LINE
8
BLACK
6
CONTINUOUS
10
0.308381
20
0.721497
11
0.303169
21
0.725925
0
LINE
8
BLACK
6
CONTINUOUS
10
0.303169
20
0.725925
11
0.299115
21
0.731433
0
LINE
8
BLACK
6
CONTINUOUS
10
0.299115
20
0.731433
11
0.296438
21
0.737726
0
LINE
8
BLACK
6
CONTINUOUS
10
0.296438
20
0.737726
11
0.295279
21
0.744466
0
LINE
8
BLACK
6
CONTINUOUS
10
0.295279
20
0.744466
11
0.295703
21
0.751292
0
LINE
8
BLACK
6
CONTINUOUS
10
0.295703
20
0.751292
11
0.297685
21
0.757837
0
LINE
8
BLACK
6
CONTINUOUS
10
0.297685
20
0.757837
11
0.30112
21
0.763751
0
LINE
8
BLACK
6
CONTINUOUS
10
0.30112
20
0.763751
11
0.305823
21
0.768716
0
LINE
8
BLACK
6
CONTINUOUS
10
0.305823
20
0.768716
11
0.311543
21
0.772465
0
LINE
8
BLACK
6
CONTINUOUS
10
0.311543
20
0.772465
11
0.317971
21
0.774799
0
LINE
8
BLACK
6
CONTINUOUS
10
0.317971
20
0.774799
11
0.324764
21
0.775591
0
LINE
8
BLACK
6
CONTINUOUS
10
0.324764
20
0.775591
11
0.332638
21
0.775591
0
LINE
8
BLACK
6
CONTINUOUS
10
0.332638
20
0.775591
11
0.336287
21
0.775364
0
LINE
8
BLACK
6
CONTINUOUS
10
2.06759
20
0.775364
11
2.07423
21
0.773739
0
LINE
8
BLACK
6
CONTINUOUS
10
2.07423
20
0.773739
11
2.08032
21
0.770629
0
LINE
8
BLACK
6
CONTINUOUS
10
2.08032
20
0.770629
11
2.08553
21
0.766201
0
LINE
8
BLACK
6
CONTINUOUS
10
2.08553
20
0.766201
11
2.08959
21
0.760693
0
LINE
8
BLACK
6
CONTINUOUS
10
2.08959
20
0.760693
11
2.09226
21
0.7544
0
LINE
8
BLACK
6
CONTINUOUS
10
2.09226
20
0.7544
11
2.09342
21
0.74766
0
LINE
8
BLACK
6
CONTINUOUS
10
2.09342
20
0.74766
11
2.093
21
0.740834
0
LINE
8
BLACK
6
CONTINUOUS
10
2.093
20
0.740834
11
2.09102
21
0.734289
0
LINE
8
BLACK
6
CONTINUOUS
10
2.09102
20
0.734289
11
2.08758
21
0.728375
0
LINE
8
BLACK
6
CONTINUOUS
10
2.08758
20
0.728375
11
2.08288
21
0.72341
0
LINE
8
BLACK
6
CONTINUOUS
10
2.08288
20
0.72341
11
2.07937
21
0.721113
0
LINE
8
BLACK
6
CONTINUOUS
10
2.07937
20
0.721113
11
2.08032
21
0.720629
0
LINE
8
BLACK
6
CONTINUOUS
10
2.08032
20
0.720629
11
2.08553
21
0.716201
0
LINE
8
BLACK
6
CONTINUOUS
10
2.08553
20
0.716201
11
2.08959
21
0.710693
0
LINE
8
BLACK
6
CONTINUOUS
10
2.08959
20
0.710693
11
2.09226
21
0.7044
0
LINE
8
BLACK
6
CONTINUOUS
10
2.09226
20
0.7044
11
2.09342
21
0.69766
0
LINE
8
BLACK
6
CONTINUOUS
10
2.09342
20
0.69766
11
2.093
21
0.690834
0
LINE
8
BLACK
6
CONTINUOUS
10
2.093
20
0.690834
11
2.09102
21
0.684289
0
LINE
8
BLACK
6
CONTINUOUS
10
2.09102
20
0.684289
11
2.08758
21
0.678375
0
LINE
8
BLACK
6
CONTINUOUS
10
2.08758
20
0.678375
11
2.08288
21
0.67341
0
LINE
8
BLACK
6
CONTINUOUS
10
2.08288
20
0.67341
11
2.07716
21
0.669661
0
LINE
8
BLACK
6
CONTINUOUS
10
2.07716
20
0.669661
11
2.07073
21
0.667327
0
LINE
8
BLACK
6
CONTINUOUS
10
2.07073
20
0.667327
11
2.06394
21
0.666535
0
LINE
8
BLACK
6
CONTINUOUS
10
2.06394
20
0.666535
11
2.05606
21
0.666535
0
LINE
8
BLACK
6
CONTINUOUS
10
2.05606
20
0.666535
11
2.05241
21
0.666762
0
LINE
8
BLACK
6
CONTINUOUS
10
2.05241
20
0.666762
11
2.04577
21
0.668387
0
LINE
8
BLACK
6
CONTINUOUS
10
2.04577
20
0.668387
11
2.03968
21
0.671497
0
LINE
8
BLACK
6
CONTINUOUS
10
2.03968
20
0.671497
11
2.03447
21
0.675925
0
LINE
8
BLACK
6
CONTINUOUS
10
2.03447
20
0.675925
11
2.03041
21
0.681433
0
LINE
8
BLACK
6
CONTINUOUS
10
2.03041
20
0.681433
11
2.02774
21
0.687726
0
LINE
8
BLACK
6
CONTINUOUS
10
2.02774
20
0.687726
11
2.02658
21
0.694466
0
LINE
8
BLACK
6
CONTINUOUS
10
2.02658
20
0.694466
11
2.027
21
0.701292
0
LINE
8
BLACK
6
CONTINUOUS
10
2.027
20
0.701292
11
2.02898
21
0.707837
0
LINE
8
BLACK
6
CONTINUOUS
10
2.02898
20
0.707837
11
2.03242
21
0.713751
0
LINE
8
BLACK
6
CONTINUOUS
10
2.03242
20
0.713751
11
2.03712
21
0.718716
0
LINE
8
BLACK
6
CONTINUOUS
10
2.03712
20
0.718716
11
2.04063
21
0.721013
0
LINE
8
BLACK
6
CONTINUOUS
10
2.04063
20
0.721013
11
2.03968
21
0.721497
0
LINE
8
BLACK
6
CONTINUOUS
10
2.03968
20
0.721497
11
2.03447
21
0.725925
0
LINE
8
BLACK
6
CONTINUOUS
10
2.03447
20
0.725925
11
2.03041
21
0.731433
0
LINE
8
BLACK
6
CONTINUOUS
10
2.03041
20
0.731433
11
2.02774
21
0.737726
0
LINE
8
BLACK
6
CONTINUOUS
10
2.02774
20
0.737726
11
2.02658
21
0.744466
0
LINE
8
BLACK
6
CONTINUOUS
10
2.02658
20
0.744466
11
2.027
21
0.751292
0
LINE
8
BLACK
6
CONTINUOUS
10
2.027
20
0.751292
11
2.02898
21
0.757837
0
LINE
8
BLACK
6
CONTINUOUS
10
2.02898
20
0.757837
11
2.03242
21
0.763751
0
LINE
8
BLACK
6
CONTINUOUS
10
2.03242
20
0.763751
11
2.03712
21
0.768716
0
LINE
8
BLACK
6
CONTINUOUS
10
2.03712
20
0.768716
11
2.04284
21
0.772465
0
LINE
8
BLACK
6
CONTINUOUS
10
2.04284
20
0.772465
11
2.04927
21
0.774799
0
LINE
8
BLACK
6
CONTINUOUS
10
2.04927
20
0.774799
11
2.05606
21
0.775591
0
LINE
8
BLACK
6
CONTINUOUS
10
2.05606
20
0.775591
11
2.06394
21
0.775591
0
LINE
8
BLACK
6
CONTINUOUS
10
2.06394
20
0.775591
11
2.06759
21
0.775364
0
LINE
8
BLACK
6
CONTINUOUS
10
0.395343
20
0.825364
11
0.401985
21
0.823739
0
LINE
8
BLACK
6
CONTINUOUS
10
0.401985
20
0.823739
11
0.408076
21
0.820629
0
LINE
8
BLACK
6
CONTINUOUS
10
0.408076
20
0.820629
11
0.413288
21
0.816201
0
LINE
8
BLACK
6
CONTINUOUS
10
0.413288
20
0.816201
11
0.417341
21
0.810693
0
LINE
8
BLACK
6
CONTINUOUS
10
0.417341
20
0.810693
11
0.420019
21
0.8044
0
LINE
8
BLACK
6
CONTINUOUS
10
0.420019
20
0.8044
11
0.421177
21
0.79766
0
LINE
8
BLACK
6
CONTINUOUS
10
0.421177
20
0.79766
11
0.420754
21
0.790834
0
LINE
8
BLACK
6
CONTINUOUS
10
0.420754
20
0.790834
11
0.418771
21
0.784289
0
LINE
8
BLACK
6
CONTINUOUS
10
0.418771
20
0.784289
11
0.415337
21
0.778375
0
LINE
8
BLACK
6
CONTINUOUS
10
0.415337
20
0.778375
11
0.410633
21
0.77341
0
LINE
8
BLACK
6
CONTINUOUS
10
0.410633
20
0.77341
11
0.404914
21
0.769661
0
LINE
8
BLACK
6
CONTINUOUS
10
0.404914
20
0.769661
11
0.398486
21
0.767327
0
LINE
8
BLACK
6
CONTINUOUS
10
0.398486
20
0.767327
11
0.391693
21
0.766535
0
LINE
8
BLACK
6
CONTINUOUS
10
0.391693
20
0.766535
11
0.383819
21
0.766535
0
LINE
8
BLACK
6
CONTINUOUS
10
0.383819
20
0.766535
11
0.380169
21
0.766762
0
LINE
8
BLACK
6
CONTINUOUS
10
0.380169
20
0.766762
11
0.373526
21
0.768387
0
LINE
8
BLACK
6
CONTINUOUS
10
0.373526
20
0.768387
11
0.367436
21
0.771497
0
LINE
8
BLACK
6
CONTINUOUS
10
0.367436
20
0.771497
11
0.362224
21
0.775925
0
LINE
8
BLACK
6
CONTINUOUS
10
0.362224
20
0.775925
11
0.35817
21
0.781433
0
LINE
8
BLACK
6
CONTINUOUS
10
0.35817
20
0.781433
11
0.355493
21
0.787726
0
LINE
8
BLACK
6
CONTINUOUS
10
0.355493
20
0.787726
11
0.354335
21
0.794466
0
LINE
8
BLACK
6
CONTINUOUS
10
0.354335
20
0.794466
11
0.354758
21
0.801292
0
LINE
8
BLACK
6
CONTINUOUS
10
0.354758
20
0.801292
11
0.35674
21
0.807837
0
LINE
8
BLACK
6
CONTINUOUS
10
0.35674
20
0.807837
11
0.360175
21
0.813751
0
LINE
8
BLACK
6
CONTINUOUS
10
0.360175
20
0.813751
11
0.364878
21
0.818716
0
LINE
8
BLACK
6
CONTINUOUS
10
0.364878
20
0.818716
11
0.370598
21
0.822465
0
LINE
8
BLACK
6
CONTINUOUS
10
0.370598
20
0.822465
11
0.377026
21
0.824799
0
LINE
8
BLACK
6
CONTINUOUS
10
0.377026
20
0.824799
11
0.383819
21
0.825591
0
LINE
8
BLACK
6
CONTINUOUS
10
0.383819
20
0.825591
11
0.391693
21
0.825591
0
LINE
8
BLACK
6
CONTINUOUS
10
0.391693
20
0.825591
11
0.395343
21
0.825364
0
LINE
8
BLACK
6
CONTINUOUS
10
2.12664
20
0.825364
11
2.13328
21
0.823739
0
LINE
8
BLACK
6
CONTINUOUS
10
2.13328
20
0.823739
11
2.13938
21
0.820629
0
LINE
8
BLACK
6
CONTINUOUS
10
2.13938
20
0.820629
11
2.14459
21
0.816201
0
LINE
8
BLACK
6
CONTINUOUS
10
2.14459
20
0.816201
11
2.14864
21
0.810693
0
LINE
8
BLACK
6
CONTINUOUS
10
2.14864
20
0.810693
11
2.15132
21
0.8044
0
LINE
8
BLACK
6
CONTINUOUS
10
2.15132
20
0.8044
11
2.15248
21
0.79766
0
LINE
8
BLACK
6
CONTINUOUS
10
2.15248
20
0.79766
11
2.15205
21
0.790834
0
LINE
8
BLACK
6
CONTINUOUS
10
2.15205
20
0.790834
11
2.15007
21
0.784289
0
LINE
8
BLACK
6
CONTINUOUS
10
2.15007
20
0.784289
11
2.14664
21
0.778375
0
LINE
8
BLACK
6
CONTINUOUS
10
2.14664
20
0.778375
11
2.14193
21
0.77341
0
LINE
8
BLACK
6
CONTINUOUS
10
2.14193
20
0.77341
11
2.13621
21
0.769661
0
LINE
8
BLACK
6
CONTINUOUS
10
2.13621
20
0.769661
11
2.12978
21
0.767327
0
LINE
8
BLACK
6
CONTINUOUS
10
2.12978
20
0.767327
11
2.12299
21
0.766535
0
LINE
8
BLACK
6
CONTINUOUS
10
2.12299
20
0.766535
11
2.11512
21
0.766535
0
LINE
8
BLACK
6
CONTINUOUS
10
2.11512
20
0.766535
11
2.11147
21
0.766762
0
LINE
8
BLACK
6
CONTINUOUS
10
2.11147
20
0.766762
11
2.10483
21
0.768387
0
LINE
8
BLACK
6
CONTINUOUS
10
2.10483
20
0.768387
11
2.09873
21
0.771497
0
LINE
8
BLACK
6
CONTINUOUS
10
2.09873
20
0.771497
11
2.09352
21
0.775925
0
LINE
8
BLACK
6
CONTINUOUS
10
2.09352
20
0.775925
11
2.08947
21
0.781433
0
LINE
8
BLACK
6
CONTINUOUS
10
2.08947
20
0.781433
11
2.08679
21
0.787726
0
LINE
8
BLACK
6
CONTINUOUS
10
2.08679
20
0.787726
11
2.08563
21
0.794466
0
LINE
8
BLACK
6
CONTINUOUS
10
2.08563
20
0.794466
11
2.08606
21
0.801292
0
LINE
8
BLACK
6
CONTINUOUS
10
2.08606
20
0.801292
11
2.08804
21
0.807837
0
LINE
8
BLACK
6
CONTINUOUS
10
2.08804
20
0.807837
11
2.09147
21
0.813751
0
LINE
8
BLACK
6
CONTINUOUS
10
2.09147
20
0.813751
11
2.09618
21
0.818716
0
LINE
8
BLACK
6
CONTINUOUS
10
2.09618
20
0.818716
11
2.1019
21
0.822465
0
LINE
8
BLACK
6
CONTINUOUS
10
2.1019
20
0.822465
11
2.10833
21
0.824799
0
LINE
8
BLACK
6
CONTINUOUS
10
2.10833
20
0.824799
11
2.11512
21
0.825591
0
LINE
8
BLACK
6
CONTINUOUS
10
2.11512
20
0.825591
11
2.12299
21
0.825591
0
LINE
8
BLACK
6
CONTINUOUS
10
2.12299
20
0.825591
11
2.12664
21
0.825364
0
LINE
8
BLACK
6
CONTINUOUS
10
0.336287
20
0.925364
11
0.34293
21
0.923739
0
LINE
8
BLACK
6
CONTINUOUS
10
0.34293
20
0.923739
11
0.349021
21
0.920629
0
LINE
8
BLACK
6
CONTINUOUS
10
0.349021
20
0.920629
11
0.354233
21
0.916201
0
LINE
8
BLACK
6
CONTINUOUS
10
0.354233
20
0.916201
11
0.358286
21
0.910693
0
LINE
8
BLACK
6
CONTINUOUS
10
0.358286
20
0.910693
11
0.360964
21
0.9044
0
LINE
8
BLACK
6
CONTINUOUS
10
0.360964
20
0.9044
11
0.362122
21
0.89766
0
LINE
8
BLACK
6
CONTINUOUS
10
0.362122
20
0.89766
11
0.361699
21
0.890834
0
LINE
8
BLACK
6
CONTINUOUS
10
0.361699
20
0.890834
11
0.359716
21
0.884289
0
LINE
8
BLACK
6
CONTINUOUS
10
0.359716
20
0.884289
11
0.356281
21
0.878375
0
LINE
8
BLACK
6
CONTINUOUS
10
0.356281
20
0.878375
11
0.351578
21
0.87341
0
LINE
8
BLACK
6
CONTINUOUS
10
0.351578
20
0.87341
11
0.348073
21
0.871113
0
LINE
8
BLACK
6
CONTINUOUS
10
0.348073
20
0.871113
11
0.349021
21
0.870629
0
LINE
8
BLACK
6
CONTINUOUS
10
0.349021
20
0.870629
11
0.354233
21
0.866201
0
LINE
8
BLACK
6
CONTINUOUS
10
0.354233
20
0.866201
11
0.358286
21
0.860693
0
LINE
8
BLACK
6
CONTINUOUS
10
0.358286
20
0.860693
11
0.360964
21
0.8544
0
LINE
8
BLACK
6
CONTINUOUS
10
0.360964
20
0.8544
11
0.362122
21
0.84766
0
LINE
8
BLACK
6
CONTINUOUS
10
0.362122
20
0.84766
11
0.361699
21
0.840834
0
LINE
8
BLACK
6
CONTINUOUS
10
0.361699
20
0.840834
11
0.359716
21
0.834289
0
LINE
8
BLACK
6
CONTINUOUS
10
0.359716
20
0.834289
11
0.356281
21
0.828375
0
LINE
8
BLACK
6
CONTINUOUS
10
0.356281
20
0.828375
11
0.351578
21
0.82341
0
LINE
8
BLACK
6
CONTINUOUS
10
0.351578
20
0.82341
11
0.345859
21
0.819661
0
LINE
8
BLACK
6
CONTINUOUS
10
0.345859
20
0.819661
11
0.339431
21
0.817327
0
LINE
8
BLACK
6
CONTINUOUS
10
0.339431
20
0.817327
11
0.332638
21
0.816535
0
LINE
8
BLACK
6
CONTINUOUS
10
0.332638
20
0.816535
11
0.324764
21
0.816535
0
LINE
8
BLACK
6
CONTINUOUS
10
0.324764
20
0.816535
11
0.321114
21
0.816762
0
LINE
8
BLACK
6
CONTINUOUS
10
0.321114
20
0.816762
11
0.314471
21
0.818387
0
LINE
8
BLACK
6
CONTINUOUS
10
0.314471
20
0.818387
11
0.308381
21
0.821497
0
LINE
8
BLACK
6
CONTINUOUS
10
0.308381
20
0.821497
11
0.303169
21
0.825925
0
LINE
8
BLACK
6
CONTINUOUS
10
0.303169
20
0.825925
11
0.299115
21
0.831433
0
LINE
8
BLACK
6
CONTINUOUS
10
0.299115
20
0.831433
11
0.296438
21
0.837726
0
LINE
8
BLACK
6
CONTINUOUS
10
0.296438
20
0.837726
11
0.295279
21
0.844466
0
LINE
8
BLACK
6
CONTINUOUS
10
0.295279
20
0.844466
11
0.295703
21
0.851292
0
LINE
8
BLACK
6
CONTINUOUS
10
0.295703
20
0.851292
11
0.297685
21
0.857837
0
LINE
8
BLACK
6
CONTINUOUS
10
0.297685
20
0.857837
11
0.30112
21
0.863751
0
LINE
8
BLACK
6
CONTINUOUS
10
0.30112
20
0.863751
11
0.305823
21
0.868716
0
LINE
8
BLACK
6
CONTINUOUS
10
0.305823
20
0.868716
11
0.309328
21
0.871013
0
LINE
8
BLACK
6
CONTINUOUS
10
0.309328
20
0.871013
11
0.308381
21
0.871497
0
LINE
8
BLACK
6
CONTINUOUS
10
0.308381
20
0.871497
11
0.303169
21
0.875925
0
LINE
8
BLACK
6
CONTINUOUS
10
0.303169
20
0.875925
11
0.299115
21
0.881433
0
LINE
8
BLACK
6
CONTINUOUS
10
0.299115
20
0.881433
11
0.296438
21
0.887726
0
LINE
8
BLACK
6
CONTINUOUS
10
0.296438
20
0.887726
11
0.295279
21
0.894466
0
LINE
8
BLACK
6
CONTINUOUS
10
0.295279
20
0.894466
11
0.295703
21
0.901292
0
LINE
8
BLACK
6
CONTINUOUS
10
0.295703
20
0.901292
11
0.297685
21
0.907837
0
LINE
8
BLACK
6
CONTINUOUS
10
0.297685
20
0.907837
11
0.30112
21
0.913751
0
LINE
8
BLACK
6
CONTINUOUS
10
0.30112
20
0.913751
11
0.305823
21
0.918716
0
LINE
8
BLACK
6
CONTINUOUS
10
0.305823
20
0.918716
11
0.311543
21
0.922465
0
LINE
8
BLACK
6
CONTINUOUS
10
0.311543
20
0.922465
11
0.317971
21
0.924799
0
LINE
8
BLACK
6
CONTINUOUS
10
0.317971
20
0.924799
11
0.324764
21
0.925591
0
LINE
8
BLACK
6
CONTINUOUS
10
0.324764
20
0.925591
11
0.332638
21
0.925591
0
LINE
8
BLACK
6
CONTINUOUS
10
0.332638
20
0.925591
11
0.336287
21
0.925364
0
LINE
8
BLACK
6
CONTINUOUS
10
2.06759
20
0.925364
11
2.07423
21
0.923739
0
LINE
8
BLACK
6
CONTINUOUS
10
2.07423
20
0.923739
11
2.08032
21
0.920629
0
LINE
8
BLACK
6
CONTINUOUS
10
2.08032
20
0.920629
11
2.08553
21
0.916201
0
LINE
8
BLACK
6
CONTINUOUS
10
2.08553
20
0.916201
11
2.08959
21
0.910693
0
LINE
8
BLACK
6
CONTINUOUS
10
2.08959
20
0.910693
11
2.09226
21
0.9044
0
LINE
8
BLACK
6
CONTINUOUS
10
2.09226
20
0.9044
11
2.09342
21
0.89766
0
LINE
8
BLACK
6
CONTINUOUS
10
2.09342
20
0.89766
11
2.093
21
0.890834
0
LINE
8
BLACK
6
CONTINUOUS
10
2.093
20
0.890834
11
2.09102
21
0.884289
0
LINE
8
BLACK
6
CONTINUOUS
10
2.09102
20
0.884289
11
2.08758
21
0.878375
0
LINE
8
BLACK
6
CONTINUOUS
10
2.08758
20
0.878375
11
2.08288
21
0.87341
0
LINE
8
BLACK
6
CONTINUOUS
10
2.08288
20
0.87341
11
2.07937
21
0.871113
0
LINE
8
BLACK
6
CONTINUOUS
10
2.07937
20
0.871113
11
2.08032
21
0.870629
0
LINE
8
BLACK
6
CONTINUOUS
10
2.08032
20
0.870629
11
2.08553
21
0.866201
0
LINE
8
BLACK
6
CONTINUOUS
10
2.08553
20
0.866201
11
2.08959
21
0.860693
0
LINE
8
BLACK
6
CONTINUOUS
10
2.08959
20
0.860693
11
2.09226
21
0.8544
0
LINE
8
BLACK
6
CONTINUOUS
10
2.09226
20
0.8544
11
2.09342
21
0.84766
0
LINE
8
BLACK
6
CONTINUOUS
10
2.09342
20
0.84766
11
2.093
21
0.840834
0
LINE
8
BLACK
6
CONTINUOUS
10
2.093
20
0.840834
11
2.09102
21
0.834289
0
LINE
8
BLACK
6
CONTINUOUS
10
2.09102
20
0.834289
11
2.08758
21
0.828375
0
LINE
8
BLACK
6
CONTINUOUS
10
2.08758
20
0.828375
11
2.08288
21
0.82341
0
LINE
8
BLACK
6
CONTINUOUS
10
2.08288
20
0.82341
11
2.07716
21
0.819661
0
LINE
8
BLACK
6
CONTINUOUS
10
2.07716
20
0.819661
11
2.07073
21
0.817327
0
LINE
8
BLACK
6
CONTINUOUS
10
2.07073
20
0.817327
11
2.06394
21
0.816535
0
LINE
8
BLACK
6
CONTINUOUS
10
2.06394
20
0.816535
11
2.05606
21
0.816535
0
LINE
8
BLACK
6
CONTINUOUS
10
2.05606
20
0.816535
11
2.05241
21
0.816762
0
LINE
8
BLACK
6
CONTINUOUS
10
2.05241
20
0.816762
11
2.04577
21
0.818387
0
LINE
8
BLACK
6
CONTINUOUS
10
2.04577
20
0.818387
11
2.03968
21
0.821497
0
LINE
8
BLACK
6
CONTINUOUS
10
2.03968
20
0.821497
11
2.03447
21
0.825925
0
LINE
8
BLACK
6
CONTINUOUS
10
2.03447
20
0.825925
11
2.03041
21
0.831433
0
LINE
8
BLACK
6
CONTINUOUS
10
2.03041
20
0.831433
11
2.02774
21
0.837726
0
LINE
8
BLACK
6
CONTINUOUS
10
2.02774
20
0.837726
11
2.02658
21
0.844466
0
LINE
8
BLACK
6
CONTINUOUS
10
2.02658
20
0.844466
11
2.027
21
0.851292
0
LINE
8
BLACK
6
CONTINUOUS
10
2.027
20
0.851292
11
2.02898
21
0.857837
0
LINE
8
BLACK
6
CONTINUOUS
10
2.02898
20
0.857837
11
2.03242
21
0.863751
0
LINE
8
BLACK
6
CONTINUOUS
10
2.03242
20
0.863751
11
2.03712
21
0.868716
0
LINE
8
BLACK
6
CONTINUOUS
10
2.03712
20
0.868716
11
2.04063
21
0.871013
0
LINE
8
BLACK
6
CONTINUOUS
10
2.04063
20
0.871013
11
2.03968
21
0.871497
0
LINE
8
BLACK
6
CONTINUOUS
10
2.03968
20
0.871497
11
2.03447
21
0.875925
0
LINE
8
BLACK
6
CONTINUOUS
10
2.03447
20
0.875925
11
2.03041
21
0.881433
0
LINE
8
BLACK
6
CONTINUOUS
10
2.03041
20
0.881433
11
2.02774
21
0.887726
0
LINE
8
BLACK
6
CONTINUOUS
10
2.02774
20
0.887726
11
2.02658
21
0.894466
0
LINE
8
BLACK
6
CONTINUOUS
10
2.02658
20
0.894466
11
2.027
21
0.901292
0
LINE
8
BLACK
6
CONTINUOUS
10
2.027
20
0.901292
11
2.02898
21
0.907837
0
LINE
8
BLACK
6
CONTINUOUS
10
2.02898
20
0.907837
11
2.03242
21
0.913751
0
LINE
8
BLACK
6
CONTINUOUS
10
2.03242
20
0.913751
11
2.03712
21
0.918716
0
LINE
8
BLACK
6
CONTINUOUS
10
2.03712
20
0.918716
11
2.04284
21
0.922465
0
LINE
8
BLACK
6
CONTINUOUS
10
2.04284
20
0.922465
11
2.04927
21
0.924799
0
LINE
8
BLACK
6
CONTINUOUS
10
2.04927
20
0.924799
11
2.05606
21
0.925591
0
LINE
8
BLACK
6
CONTINUOUS
10
2.05606
20
0.925591
11
2.06394
21
0.925591
0
LINE
8
BLACK
6
CONTINUOUS
10
2.06394
20
0.925591
11
2.06759
21
0.925364
0
LINE
8
BLACK
6
CONTINUOUS
10
2.12664
20
0.975364
11
2.13328
21
0.973739
0
LINE
8
BLACK
6
CONTINUOUS
10
2.13328
20
0.973739
11
2.13938
21
0.970629
0
LINE
8
BLACK
6
CONTINUOUS
10
2.13938
20
0.970629
11
2.14459
21
0.966201
0
LINE
8
BLACK
6
CONTINUOUS
10
2.14459
20
0.966201
11
2.14864
21
0.960693
0
LINE
8
BLACK
6
CONTINUOUS
10
2.14864
20
0.960693
11
2.15132
21
0.9544
0
LINE
8
BLACK
6
CONTINUOUS
10
2.15132
20
0.9544
11
2.15248
21
0.94766
0
LINE
8
BLACK
6
CONTINUOUS
10
2.15248
20
0.94766
11
2.15205
21
0.940834
0
LINE
8
BLACK
6
CONTINUOUS
10
2.15205
20
0.940834
11
2.15007
21
0.934289
0
LINE
8
BLACK
6
CONTINUOUS
10
2.15007
20
0.934289
11
2.14664
21
0.928375
0
LINE
8
BLACK
6
CONTINUOUS
10
2.14664
20
0.928375
11
2.14193
21
0.92341
0
LINE
8
BLACK
6
CONTINUOUS
10
2.14193
20
0.92341
11
2.13621
21
0.919661
0
LINE
8
BLACK
6
CONTINUOUS
10
2.13621
20
0.919661
11
2.12978
21
0.917327
0
LINE
8
BLACK
6
CONTINUOUS
10
2.12978
20
0.917327
11
2.12299
21
0.916535
0
LINE
8
BLACK
6
CONTINUOUS
10
2.12299
20
0.916535
11
2.11512
21
0.916535
0
LINE
8
BLACK
6
CONTINUOUS
10
2.11512
20
0.916535
11
2.11147
21
0.916762
0
LINE
8
BLACK
6
CONTINUOUS
10
2.11147
20
0.916762
11
2.10483
21
0.918387
0
LINE
8
BLACK
6
CONTINUOUS
10
2.10483
20
0.918387
11
2.09873
21
0.921497
0
LINE
8
BLACK
6
CONTINUOUS
10
2.09873
20
0.921497
11
2.09352
21
0.925925
0
LINE
8
BLACK
6
CONTINUOUS
10
2.09352
20
0.925925
11
2.08947
21
0.931433
0
LINE
8
BLACK
6
CONTINUOUS
10
2.08947
20
0.931433
11
2.08679
21
0.937726
0
LINE
8
BLACK
6
CONTINUOUS
10
2.08679
20
0.937726
11
2.08563
21
0.944466
0
LINE
8
BLACK
6
CONTINUOUS
10
2.08563
20
0.944466
11
2.08606
21
0.951292
0
LINE
8
BLACK
6
CONTINUOUS
10
2.08606
20
0.951292
11
2.08804
21
0.957837
0
LINE
8
BLACK
6
CONTINUOUS
10
2.08804
20
0.957837
11
2.09147
21
0.963751
0
LINE
8
BLACK
6
CONTINUOUS
10
2.09147
20
0.963751
11
2.09618
21
0.968716
0
LINE
8
BLACK
6
CONTINUOUS
10
2.09618
20
0.968716
11
2.1019
21
0.972465
0
LINE
8
BLACK
6
CONTINUOUS
10
2.1019
20
0.972465
11
2.10833
21
0.974799
0
LINE
8
BLACK
6
CONTINUOUS
10
2.10833
20
0.974799
11
2.11512
21
0.975591
0
LINE
8
BLACK
6
CONTINUOUS
10
2.11512
20
0.975591
11
2.12299
21
0.975591
0
LINE
8
BLACK
6
CONTINUOUS
10
2.12299
20
0.975591
11
2.12664
21
0.975364
0
LINE
8
BLACK
6
CONTINUOUS
10
0.395343
20
0.975364
11
0.401985
21
0.973739
0
LINE
8
BLACK
6
CONTINUOUS
10
0.401985
20
0.973739
11
0.408076
21
0.970629
0
LINE
8
BLACK
6
CONTINUOUS
10
0.408076
20
0.970629
11
0.413288
21
0.966201
0
LINE
8
BLACK
6
CONTINUOUS
10
0.413288
20
0.966201
11
0.417341
21
0.960693
0
LINE
8
BLACK
6
CONTINUOUS
10
0.417341
20
0.960693
11
0.420019
21
0.9544
0
LINE
8
BLACK
6
CONTINUOUS
10
0.420019
20
0.9544
11
0.421177
21
0.94766
0
LINE
8
BLACK
6
CONTINUOUS
10
0.421177
20
0.94766
11
0.420754
21
0.940834
0
LINE
8
BLACK
6
CONTINUOUS
10
0.420754
20
0.940834
11
0.418771
21
0.934289
0
LINE
8
BLACK
6
CONTINUOUS
10
0.418771
20
0.934289
11
0.415337
21
0.928375
0
LINE
8
BLACK
6
CONTINUOUS
10
0.415337
20
0.928375
11
0.410633
21
0.92341
0
LINE
8
BLACK
6
CONTINUOUS
10
0.410633
20
0.92341
11
0.404914
21
0.919661
0
LINE
8
BLACK
6
CONTINUOUS
10
0.404914
20
0.919661
11
0.398486
21
0.917327
0
LINE
8
BLACK
6
CONTINUOUS
10
0.398486
20
0.917327
11
0.391693
21
0.916535
0
LINE
8
BLACK
6
CONTINUOUS
10
0.391693
20
0.916535
11
0.383819
21
0.916535
0
LINE
8
BLACK
6
CONTINUOUS
10
0.383819
20
0.916535
11
0.380169
21
0.916762
0
LINE
8
BLACK
6
CONTINUOUS
10
0.380169
20
0.916762
11
0.373526
21
0.918387
0
LINE
8
BLACK
6
CONTINUOUS
10
0.373526
20
0.918387
11
0.367436
21
0.921497
0
LINE
8
BLACK
6
CONTINUOUS
10
0.367436
20
0.921497
11
0.362224
21
0.925925
0
LINE
8
BLACK
6
CONTINUOUS
10
0.362224
20
0.925925
11
0.35817
21
0.931433
0
LINE
8
BLACK
6
CONTINUOUS
10
0.35817
20
0.931433
11
0.355493
21
0.937726
0
LINE
8
BLACK
6
CONTINUOUS
10
0.355493
20
0.937726
11
0.354335
21
0.944466
0
LINE
8
BLACK
6
CONTINUOUS
10
0.354335
20
0.944466
11
0.354758
21
0.951292
0
LINE
8
BLACK
6
CONTINUOUS
10
0.354758
20
0.951292
11
0.35674
21
0.957837
0
LINE
8
BLACK
6
CONTINUOUS
10
0.35674
20
0.957837
11
0.360175
21
0.963751
0
LINE
8
BLACK
6
CONTINUOUS
10
0.360175
20
0.963751
11
0.364878
21
0.968716
0
LINE
8
BLACK
6
CONTINUOUS
10
0.364878
20
0.968716
11
0.370598
21
0.972465
0
LINE
8
BLACK
6
CONTINUOUS
10
0.370598
20
0.972465
11
0.377026
21
0.974799
0
LINE
8
BLACK
6
CONTINUOUS
10
0.377026
20
0.974799
11
0.383819
21
0.975591
0
LINE
8
BLACK
6
CONTINUOUS
10
0.383819
20
0.975591
11
0.391693
21
0.975591
0
LINE
8
BLACK
6
CONTINUOUS
10
0.391693
20
0.975591
11
0.395343
21
0.975364
0
LINE
8
BLACK
6
CONTINUOUS
10
0.334073
20
1.09975
11
0.343283
21
1.09811
0
LINE
8
BLACK
6
CONTINUOUS
10
0.343283
20
1.09811
11
0.352102
21
1.09498
0
LINE
8
BLACK
6
CONTINUOUS
10
0.352102
20
1.09498
11
0.360292
21
1.09046
0
LINE
8
BLACK
6
CONTINUOUS
10
0.360292
20
1.09046
11
0.367634
21
1.08466
0
LINE
8
BLACK
6
CONTINUOUS
10
0.367634
20
1.08466
11
0.37393
21
1.07774
0
LINE
8
BLACK
6
CONTINUOUS
10
0.37393
20
1.07774
11
0.379011
21
1.06989
0
LINE
8
BLACK
6
CONTINUOUS
10
0.379011
20
1.06989
11
0.382742
21
1.06131
0
LINE
8
BLACK
6
CONTINUOUS
10
0.382742
20
1.06131
11
0.385021
21
1.05224
0
LINE
8
BLACK
6
CONTINUOUS
10
0.385021
20
1.05224
11
0.385787
21
1.04291
0
LINE
8
BLACK
6
CONTINUOUS
10
0.385787
20
1.04291
11
0.385719
21
1.04012
0
LINE
8
BLACK
6
CONTINUOUS
10
0.385719
20
1.04012
11
0.384498
21
1.03085
0
LINE
8
BLACK
6
CONTINUOUS
10
0.384498
20
1.03085
11
0.381779
21
1.0219
0
LINE
8
BLACK
6
CONTINUOUS
10
0.381779
20
1.0219
11
0.377634
21
1.01351
0
LINE
8
BLACK
6
CONTINUOUS
10
0.377634
20
1.01351
11
0.372174
21
1.00591
0
LINE
8
BLACK
6
CONTINUOUS
10
0.372174
20
1.00591
11
0.365548
21
0.999311
0
LINE
8
BLACK
6
CONTINUOUS
10
0.365548
20
0.999311
11
0.357932
21
0.993878
0
LINE
8
BLACK
6
CONTINUOUS
10
0.357932
20
0.993878
11
0.34953
21
0.989763
0
LINE
8
BLACK
6
CONTINUOUS
10
0.34953
20
0.989763
11
0.34057
21
0.987074
0
LINE
8
BLACK
6
CONTINUOUS
10
0.34057
20
0.987074
11
0.33129
21
0.985886
0
LINE
8
BLACK
6
CONTINUOUS
10
0.33129
20
0.985886
11
0.321941
21
0.986228
0
LINE
8
BLACK
6
CONTINUOUS
10
0.321941
20
0.986228
11
0.312774
21
0.988093
0
LINE
8
BLACK
6
CONTINUOUS
10
0.312774
20
0.988093
11
0.304034
21
0.991431
0
LINE
8
BLACK
6
CONTINUOUS
10
0.304034
20
0.991431
11
0.295957
21
0.996151
0
LINE
8
BLACK
6
CONTINUOUS
10
0.295957
20
0.996151
11
0.288759
21
1.00213
0
LINE
8
BLACK
6
CONTINUOUS
10
0.288759
20
1.00213
11
0.282634
21
1.0092
0
LINE
8
BLACK
6
CONTINUOUS
10
0.282634
20
1.0092
11
0.277746
21
1.01717
0
LINE
8
BLACK
6
CONTINUOUS
10
0.277746
20
1.01717
11
0.274226
21
1.02584
0
LINE
8
BLACK
6
CONTINUOUS
10
0.274226
20
1.02584
11
0.27217
21
1.03497
0
LINE
8
BLACK
6
CONTINUOUS
10
0.27217
20
1.03497
11
0.271631
21
1.04431
0
LINE
8
BLACK
6
CONTINUOUS
10
0.271631
20
1.04431
11
0.272625
21
1.05361
0
LINE
8
BLACK
6
CONTINUOUS
10
0.272625
20
1.05361
11
0.275125
21
1.06263
0
LINE
8
BLACK
6
CONTINUOUS
10
0.275125
20
1.06263
11
0.279064
21
1.07111
0
LINE
8
BLACK
6
CONTINUOUS
10
0.279064
20
1.07111
11
0.284336
21
1.07884
0
LINE
8
BLACK
6
CONTINUOUS
10
0.284336
20
1.07884
11
0.290799
21
1.0856
0
LINE
8
BLACK
6
CONTINUOUS
10
0.290799
20
1.0856
11
0.298281
21
1.09122
0
LINE
8
BLACK
6
CONTINUOUS
10
0.298281
20
1.09122
11
0.306579
21
1.09554
0
LINE
8
BLACK
6
CONTINUOUS
10
0.306579
20
1.09554
11
0.315471
21
1.09845
0
LINE
8
BLACK
6
CONTINUOUS
10
0.315471
20
1.09845
11
0.324719
21
1.09986
0
LINE
8
BLACK
6
CONTINUOUS
10
0.324719
20
1.09986
11
0.334073
21
1.09975
0
LINE
8
BLACK
6
CONTINUOUS
10
2.06537
20
1.09975
11
2.07458
21
1.09811
0
LINE
8
BLACK
6
CONTINUOUS
10
2.07458
20
1.09811
11
2.0834
21
1.09498
0
LINE
8
BLACK
6
CONTINUOUS
10
2.0834
20
1.09498
11
2.09159
21
1.09046
0
LINE
8
BLACK
6
CONTINUOUS
10
2.09159
20
1.09046
11
2.09893
21
1.08466
0
LINE
8
BLACK
6
CONTINUOUS
10
2.09893
20
1.08466
11
2.10523
21
1.07774
0
LINE
8
BLACK
6
CONTINUOUS
10
2.10523
20
1.07774
11
2.11031
21
1.06989
0
LINE
8
BLACK
6
CONTINUOUS
10
2.11031
20
1.06989
11
2.11404
21
1.06131
0
LINE
8
BLACK
6
CONTINUOUS
10
2.11404
20
1.06131
11
2.11632
21
1.05224
0
LINE
8
BLACK
6
CONTINUOUS
10
2.11632
20
1.05224
11
2.11709
21
1.04291
0
LINE
8
BLACK
6
CONTINUOUS
10
2.11709
20
1.04291
11
2.11702
21
1.04012
0
LINE
8
BLACK
6
CONTINUOUS
10
2.11702
20
1.04012
11
2.1158
21
1.03085
0
LINE
8
BLACK
6
CONTINUOUS
10
2.1158
20
1.03085
11
2.11308
21
1.0219
0
LINE
8
BLACK
6
CONTINUOUS
10
2.11308
20
1.0219
11
2.10893
21
1.01351
0
LINE
8
BLACK
6
CONTINUOUS
10
2.10893
20
1.01351
11
2.10347
21
1.00591
0
LINE
8
BLACK
6
CONTINUOUS
10
2.10347
20
1.00591
11
2.09685
21
0.999311
0
LINE
8
BLACK
6
CONTINUOUS
10
2.09685
20
0.999311
11
2.08923
21
0.993878
0
LINE
8
BLACK
6
CONTINUOUS
10
2.08923
20
0.993878
11
2.08083
21
0.989763
0
LINE
8
BLACK
6
CONTINUOUS
10
2.08083
20
0.989763
11
2.07187
21
0.987074
0
LINE
8
BLACK
6
CONTINUOUS
10
2.07187
20
0.987074
11
2.06259
21
0.985886
0
LINE
8
BLACK
6
CONTINUOUS
10
2.06259
20
0.985886
11
2.05324
21
0.986228
0
LINE
8
BLACK
6
CONTINUOUS
10
2.05324
20
0.986228
11
2.04407
21
0.988093
0
LINE
8
BLACK
6
CONTINUOUS
10
2.04407
20
0.988093
11
2.03533
21
0.991431
0
LINE
8
BLACK
6
CONTINUOUS
10
2.03533
20
0.991431
11
2.02726
21
0.996151
0
LINE
8
BLACK
6
CONTINUOUS
10
2.02726
20
0.996151
11
2.02006
21
1.00213
0
LINE
8
BLACK
6
CONTINUOUS
10
2.02006
20
1.00213
11
2.01393
21
1.0092
0
LINE
8
BLACK
6
CONTINUOUS
10
2.01393
20
1.0092
11
2.00905
21
1.01717
0
LINE
8
BLACK
6
CONTINUOUS
10
2.00905
20
1.01717
11
2.00553
21
1.02584
0
LINE
8
BLACK
6
CONTINUOUS
10
2.00553
20
1.02584
11
2.00347
21
1.03497
0
LINE
8
BLACK
6
CONTINUOUS
10
2.00347
20
1.03497
11
2.00293
21
1.04431
0
LINE
8
BLACK
6
CONTINUOUS
10
2.00293
20
1.04431
11
2.00392
21
1.05361
0
LINE
8
BLACK
6
CONTINUOUS
10
2.00392
20
1.05361
11
2.00642
21
1.06263
0
LINE
8
BLACK
6
CONTINUOUS
10
2.00642
20
1.06263
11
2.01036
21
1.07111
0
LINE
8
BLACK
6
CONTINUOUS
10
2.01036
20
1.07111
11
2.01564
21
1.07884
0
LINE
8
BLACK
6
CONTINUOUS
10
2.01564
20
1.07884
11
2.0221
21
1.0856
0
LINE
8
BLACK
6
CONTINUOUS
10
2.0221
20
1.0856
11
2.02958
21
1.09122
0
LINE
8
BLACK
6
CONTINUOUS
10
2.02958
20
1.09122
11
2.03788
21
1.09554
0
LINE
8
BLACK
6
CONTINUOUS
10
2.03788
20
1.09554
11
2.04677
21
1.09845
0
LINE
8
BLACK
6
CONTINUOUS
10
2.04677
20
1.09845
11
2.05602
21
1.09986
0
LINE
8
BLACK
6
CONTINUOUS
10
2.05602
20
1.09986
11
2.06537
21
1.09975
0
LINE
8
BLACK
6
CONTINUOUS
10
0.214917
20
1.5251
11
0.228769
21
1.52266
0
LINE
8
BLACK
6
CONTINUOUS
10
0.228769
20
1.52266
11
0.242262
21
1.51868
0
LINE
8
BLACK
6
CONTINUOUS
10
0.242262
20
1.51868
11
0.255228
21
1.51323
0
LINE
8
BLACK
6
CONTINUOUS
10
0.255228
20
1.51323
11
0.267506
21
1.50637
0
LINE
8
BLACK
6
CONTINUOUS
10
0.267506
20
1.50637
11
0.278942
21
1.49818
0
LINE
8
BLACK
6
CONTINUOUS
10
0.278942
20
1.49818
11
0.289395
21
1.48877
0
LINE
8
BLACK
6
CONTINUOUS
10
0.289395
20
1.48877
11
0.298733
21
1.47825
0
LINE
8
BLACK
6
CONTINUOUS
10
0.298733
20
1.47825
11
0.306841
21
1.46676
0
LINE
8
BLACK
6
CONTINUOUS
10
0.306841
20
1.46676
11
0.313617
21
1.45444
0
LINE
8
BLACK
6
CONTINUOUS
10
0.313617
20
1.45444
11
0.318977
21
1.44143
0
LINE
8
BLACK
6
CONTINUOUS
10
0.318977
20
1.44143
11
0.322853
21
1.42791
0
LINE
8
BLACK
6
CONTINUOUS
10
0.322853
20
1.42791
11
0.325199
21
1.41404
0
LINE
8
BLACK
6
CONTINUOUS
10
0.325199
20
1.41404
11
0.325984
21
1.4
0
LINE
8
BLACK
6
CONTINUOUS
10
0.325984
20
1.4
11
0.325935
21
1.39648
0
LINE
8
BLACK
6
CONTINUOUS
10
0.325935
20
1.39648
11
0.324758
21
1.38247
0
LINE
8
BLACK
6
CONTINUOUS
10
0.324758
20
1.38247
11
0.322026
21
1.36867
0
LINE
8
BLACK
6
CONTINUOUS
10
0.322026
20
1.36867
11
0.317773
21
1.35526
0
LINE
8
BLACK
6
CONTINUOUS
10
0.317773
20
1.35526
11
0.312052
21
1.34241
0
LINE
8
BLACK
6
CONTINUOUS
10
0.312052
20
1.34241
11
0.304935
21
1.33028
0
LINE
8
BLACK
6
CONTINUOUS
10
0.304935
20
1.33028
11
0.29651
21
1.31902
0
LINE
8
BLACK
6
CONTINUOUS
10
0.29651
20
1.31902
11
0.286881
21
1.30877
0
LINE
8
BLACK
6
CONTINUOUS
10
0.286881
20
1.30877
11
0.27617
21
1.29965
0
LINE
8
BLACK
6
CONTINUOUS
10
0.27617
20
1.29965
11
0.264509
21
1.29178
0
LINE
8
BLACK
6
CONTINUOUS
10
0.264509
20
1.29178
11
0.252045
21
1.28527
0
LINE
8
BLACK
6
CONTINUOUS
10
0.252045
20
1.28527
11
0.238931
21
1.28018
0
LINE
8
BLACK
6
CONTINUOUS
10
0.238931
20
1.28018
11
0.225333
21
1.27659
0
LINE
8
BLACK
6
CONTINUOUS
10
0.225333
20
1.27659
11
0.211418
21
1.27453
0
LINE
8
BLACK
6
CONTINUOUS
10
0.211418
20
1.27453
11
0.197362
21
1.27404
0
LINE
8
BLACK
6
CONTINUOUS
10
0.197362
20
1.27404
11
0.183338
21
1.27512
0
LINE
8
BLACK
6
CONTINUOUS
10
0.183338
20
1.27512
11
0.169522
21
1.27776
0
LINE
8
BLACK
6
CONTINUOUS
10
0.169522
20
1.27776
11
0.156085
21
1.28192
0
LINE
8
BLACK
6
CONTINUOUS
10
0.156085
20
1.28192
11
0.143197
21
1.28755
0
LINE
8
BLACK
6
CONTINUOUS
10
0.143197
20
1.28755
11
0.131016
21
1.29458
0
LINE
8
BLACK
6
CONTINUOUS
10
0.131016
20
1.29458
11
0.119695
21
1.30293
0
LINE
8
BLACK
6
CONTINUOUS
10
0.119695
20
1.30293
11
0.109375
21
1.31248
0
LINE
8
BLACK
6
CONTINUOUS
10
0.109375
20
1.31248
11
0.100184
21
1.32313
0
LINE
8
BLACK
6
CONTINUOUS
10
0.100184
20
1.32313
11
0.0922376
21
1.33474
0
LINE
8
BLACK
6
CONTINUOUS
10
0.0922376
20
1.33474
11
0.0856343
21
1.34716
0
LINE
8
BLACK
6
CONTINUOUS
10
0.0856343
20
1.34716
11
0.0804566
21
1.36023
0
LINE
8
BLACK
6
CONTINUOUS
10
0.0804566
20
1.36023
11
0.0767688
21
1.37381
0
LINE
8
BLACK
6
CONTINUOUS
10
0.0767688
20
1.37381
11
0.074617
21
1.38771
0
LINE
8
BLACK
6
CONTINUOUS
10
0.074617
20
1.38771
11
0.074028
21
1.40176
0
LINE
8
BLACK
6
CONTINUOUS
10
0.074028
20
1.40176
11
0.0750092
21
1.41579
0
LINE
8
BLACK
6
CONTINUOUS
10
0.0750092
20
1.41579
11
0.0775482
21
1.42962
0
LINE
8
BLACK
6
CONTINUOUS
10
0.0775482
20
1.42962
11
0.0816135
21
1.44309
0
LINE
8
BLACK
6
CONTINUOUS
10
0.0816135
20
1.44309
11
0.0871544
21
1.45602
0
LINE
8
BLACK
6
CONTINUOUS
10
0.0871544
20
1.45602
11
0.0941019
21
1.46825
0
LINE
8
BLACK
6
CONTINUOUS
10
0.0941019
20
1.46825
11
0.102369
21
1.47963
0
LINE
8
BLACK
6
CONTINUOUS
10
0.102369
20
1.47963
11
0.111853
21
1.49001
0
LINE
8
BLACK
6
CONTINUOUS
10
0.111853
20
1.49001
11
0.122436
21
1.49928
0
LINE
8
BLACK
6
CONTINUOUS
10
0.122436
20
1.49928
11
0.133986
21
1.5073
0
LINE
8
BLACK
6
CONTINUOUS
10
0.133986
20
1.5073
11
0.146359
21
1.51399
0
LINE
8
BLACK
6
CONTINUOUS
10
0.146359
20
1.51399
11
0.1594
21
1.51926
0
LINE
8
BLACK
6
CONTINUOUS
10
0.1594
20
1.51926
11
0.172947
21
1.52305
0
LINE
8
BLACK
6
CONTINUOUS
10
0.172947
20
1.52305
11
0.186831
21
1.52529
0
LINE
8
BLACK
6
CONTINUOUS
10
0.186831
20
1.52529
11
0.20088
21
1.52598
0
LINE
8
BLACK
6
CONTINUOUS
10
0.20088
20
1.52598
11
0.214917
21
1.5251
0
LINE
8
BLACK
6
CONTINUOUS
10
2.21492
20
1.5251
11
2.22877
21
1.52266
0
LINE
8
BLACK
6
CONTINUOUS
10
2.22877
20
1.52266
11
2.24226
21
1.51868
0
LINE
8
BLACK
6
CONTINUOUS
10
2.24226
20
1.51868
11
2.25523
21
1.51323
0
LINE
8
BLACK
6
CONTINUOUS
10
2.25523
20
1.51323
11
2.26751
21
1.50637
0
LINE
8
BLACK
6
CONTINUOUS
10
2.26751
20
1.50637
11
2.27894
21
1.49818
0
LINE
8
BLACK
6
CONTINUOUS
10
2.27894
20
1.49818
11
2.28939
21
1.48877
0
LINE
8
BLACK
6
CONTINUOUS
10
2.28939
20
1.48877
11
2.29873
21
1.47825
0
LINE
8
BLACK
6
CONTINUOUS
10
2.29873
20
1.47825
11
2.30684
21
1.46676
0
LINE
8
BLACK
6
CONTINUOUS
10
2.30684
20
1.46676
11
2.31362
21
1.45444
0
LINE
8
BLACK
6
CONTINUOUS
10
2.31362
20
1.45444
11
2.31898
21
1.44143
0
LINE
8
BLACK
6
CONTINUOUS
10
2.31898
20
1.44143
11
2.32285
21
1.42791
0
LINE
8
BLACK
6
CONTINUOUS
10
2.32285
20
1.42791
11
2.3252
21
1.41404
0
LINE
8
BLACK
6
CONTINUOUS
10
2.3252
20
1.41404
11
2.32598
21
1.4
0
LINE
8
BLACK
6
CONTINUOUS
10
2.32598
20
1.4
11
2.32594
21
1.39648
0
LINE
8
BLACK
6
CONTINUOUS
10
2.32594
20
1.39648
11
2.32476
21
1.38247
0
LINE
8
BLACK
6
CONTINUOUS
10
2.32476
20
1.38247
11
2.32203
21
1.36867
0
LINE
8
BLACK
6
CONTINUOUS
10
2.32203
20
1.36867
11
2.31777
21
1.35526
0
LINE
8
BLACK
6
CONTINUOUS
10
2.31777
20
1.35526
11
2.31205
21
1.34241
0
LINE
8
BLACK
6
CONTINUOUS
10
2.31205
20
1.34241
11
2.30493
21
1.33028
0
LINE
8
BLACK
6
CONTINUOUS
10
2.30493
20
1.33028
11
2.29651
21
1.31902
0
LINE
8
BLACK
6
CONTINUOUS
10
2.29651
20
1.31902
11
2.28688
21
1.30877
0
LINE
8
BLACK
6
CONTINUOUS
10
2.28688
20
1.30877
11
2.27617
21
1.29965
0
LINE
8
BLACK
6
CONTINUOUS
10
2.27617
20
1.29965
11
2.26451
21
1.29178
0
LINE
8
BLACK
6
CONTINUOUS
10
2.26451
20
1.29178
11
2.25204
21
1.28527
0
LINE
8
BLACK
6
CONTINUOUS
10
2.25204
20
1.28527
11
2.23893
21
1.28018
0
LINE
8
BLACK
6
CONTINUOUS
10
2.23893
20
1.28018
11
2.22533
21
1.27659
0
LINE
8
BLACK
6
CONTINUOUS
10
2.22533
20
1.27659
11
2.21142
21
1.27453
0
LINE
8
BLACK
6
CONTINUOUS
10
2.21142
20
1.27453
11
2.19736
21
1.27404
0
LINE
8
BLACK
6
CONTINUOUS
10
2.19736
20
1.27404
11
2.18334
21
1.27512
0
LINE
8
BLACK
6
CONTINUOUS
10
2.18334
20
1.27512
11
2.16952
21
1.27776
0
LINE
8
BLACK
6
CONTINUOUS
10
2.16952
20
1.27776
11
2.15609
21
1.28192
0
LINE
8
BLACK
6
CONTINUOUS
10
2.15609
20
1.28192
11
2.1432
21
1.28755
0
LINE
8
BLACK
6
CONTINUOUS
10
2.1432
20
1.28755
11
2.13102
21
1.29458
0
LINE
8
BLACK
6
CONTINUOUS
10
2.13102
20
1.29458
11
2.11969
21
1.30293
0
LINE
8
BLACK
6
CONTINUOUS
10
2.11969
20
1.30293
11
2.10937
21
1.31248
0
LINE
8
BLACK
6
CONTINUOUS
10
2.10937
20
1.31248
11
2.10018
21
1.32313
0
LINE
8
BLACK
6
CONTINUOUS
10
2.10018
20
1.32313
11
2.09224
21
1.33474
0
LINE
8
BLACK
6
CONTINUOUS
10
2.09224
20
1.33474
11
2.08563
21
1.34716
0
LINE
8
BLACK
6
CONTINUOUS
10
2.08563
20
1.34716
11
2.08046
21
1.36023
0
LINE
8
BLACK
6
CONTINUOUS
10
2.08046
20
1.36023
11
2.07677
21
1.37381
0
LINE
8
BLACK
6
CONTINUOUS
10
2.07677
20
1.37381
11
2.07462
21
1.38771
0
LINE
8
BLACK
6
CONTINUOUS
10
2.07462
20
1.38771
11
2.07403
21
1.40176
0
LINE
8
BLACK
6
CONTINUOUS
10
2.07403
20
1.40176
11
2.07501
21
1.41579
0
LINE
8
BLACK
6
CONTINUOUS
10
2.07501
20
1.41579
11
2.07755
21
1.42962
0
LINE
8
BLACK
6
CONTINUOUS
10
2.07755
20
1.42962
11
2.08161
21
1.44309
0
LINE
8
BLACK
6
CONTINUOUS
10
2.08161
20
1.44309
11
2.08715
21
1.45602
0
LINE
8
BLACK
6
CONTINUOUS
10
2.08715
20
1.45602
11
2.0941
21
1.46825
0
LINE
8
BLACK
6
CONTINUOUS
10
2.0941
20
1.46825
11
2.10237
21
1.47963
0
LINE
8
BLACK
6
CONTINUOUS
10
2.10237
20
1.47963
11
2.11185
21
1.49001
0
LINE
8
BLACK
6
CONTINUOUS
10
2.11185
20
1.49001
11
2.12244
21
1.49928
0
LINE
8
BLACK
6
CONTINUOUS
10
2.12244
20
1.49928
11
2.13399
21
1.5073
0
LINE
8
BLACK
6
CONTINUOUS
10
2.13399
20
1.5073
11
2.14636
21
1.51399
0
LINE
8
BLACK
6
CONTINUOUS
10
2.14636
20
1.51399
11
2.1594
21
1.51926
0
LINE
8
BLACK
6
CONTINUOUS
10
2.1594
20
1.51926
11
2.17295
21
1.52305
0
LINE
8
BLACK
6
CONTINUOUS
10
2.17295
20
1.52305
11
2.18683
21
1.52529
0
LINE
8
BLACK
6
CONTINUOUS
10
2.18683
20
1.52529
11
2.20088
21
1.52598
0
LINE
8
BLACK
6
CONTINUOUS
10
2.20088
20
1.52598
11
2.21492
21
1.5251
  0
ENDSEC
  0
EOF
