  0
SECTION
  2
HEADER
  9
$ANGBASE
  50
0.0
  9
$ANGDIR
  70
1
  9
$MEASUREMENT
  70
0
  0
ENDSEC
  0
SECTION
  2
TABLES
  0
TABLE
  2
LTYPE
  70
4
  0
LTYPE
  5
40F
  2
CONTINUOUS
  70
0
  3
Solid line
  72
65
  73
0
  40
0.0
  0
LTYPE
  5
410
  2
DASHDOT
 70
0
  3
Dash Dot ____ _ ____ _
 72
65
 73
4
 40
2.0
 49
1.25
 49
-0.25
 49
0.25
 49
-0.25
  0
LTYPE
  5
411
  2
DASHED
 70
0
  3
Dashed __ __ __ __ __
 72
65
 73
2
 40
0.75
 49
0.5
 49
-0.25
  0
LTYPE
  5
43B
  2
DOTTED
 70
0
  3
Dotted .  .  .  .
 72
65
 73
2
 40
0.2
 49
0.0
 49
-0.2
  0
ENDTAB
  0
TABLE
  2
STYLE
  70
4
  0
STYLE
  2
KICAD
  70
0
  40
0
  41
1
  42
1
  50
0
  71
0
  3
isocp.shx
  0
STYLE
  2
KICADB
  70
0
  40
0
  41
1
  42
1
  50
0
  71
0
  3
isocp.shx
  0
STYLE
  2
KICADI
  70
0
  40
0
  41
1
  42
1
  50
15
  71
0
  3
isocp.shx
  0
STYLE
  2
KICADBI
  70
0
  40
0
  41
1
  42
1
  50
15
  71
0
  3
isocp.shx
  0
ENDTAB
  0
TABLE
  2
LAYER
  70
1
  0
LAYER
  2
BLACK
  70
0
  62
7
  6
CONTINUOUS
  0
ENDTAB
  0
ENDSEC
  0
SECTION
  2
ENTITIES
0
LINE
8
BLACK
6
CONTINUOUS
10
0.0303609
20
1.56693
11
0.0314448
21
1.56856
0
LINE
8
BLACK
6
CONTINUOUS
10
0.0314448
20
1.56856
11
0.0330669
21
1.56964
0
LINE
8
BLACK
6
CONTINUOUS
10
0.0330669
20
1.56964
11
0.0349803
21
1.57002
0
LINE
8
BLACK
6
CONTINUOUS
10
0.0349803
20
1.57002
11
2.36502
21
1.57002
0
LINE
8
BLACK
6
CONTINUOUS
10
2.36502
20
1.57002
11
2.36693
21
1.56964
0
LINE
8
BLACK
6
CONTINUOUS
10
2.36693
20
1.56964
11
2.36856
21
1.56856
0
LINE
8
BLACK
6
CONTINUOUS
10
2.36856
20
1.56856
11
2.36964
21
1.56693
0
LINE
8
BLACK
6
CONTINUOUS
10
2.36964
20
1.56693
11
2.37002
21
1.56502
0
LINE
8
BLACK
6
CONTINUOUS
10
2.37002
20
1.56502
11
2.37002
21
0.0349803
0
LINE
8
BLACK
6
CONTINUOUS
10
2.37002
20
0.0349803
11
2.36964
21
0.0330669
0
LINE
8
BLACK
6
CONTINUOUS
10
2.36964
20
0.0330669
11
2.36856
21
0.0314448
0
LINE
8
BLACK
6
CONTINUOUS
10
2.36856
20
0.0314448
11
2.36693
21
0.0303609
0
LINE
8
BLACK
6
CONTINUOUS
10
2.36693
20
0.0303609
11
2.36502
21
0.0299803
0
LINE
8
BLACK
6
CONTINUOUS
10
2.36502
20
0.0299803
11
0.0349803
21
0.0299803
0
LINE
8
BLACK
6
CONTINUOUS
10
0.0349803
20
0.0299803
11
0.0330669
21
0.0303609
0
LINE
8
BLACK
6
CONTINUOUS
10
0.0330669
20
0.0303609
11
0.0314448
21
0.0314448
0
LINE
8
BLACK
6
CONTINUOUS
10
0.0314448
20
0.0314448
11
0.0303609
21
0.0330669
0
LINE
8
BLACK
6
CONTINUOUS
10
0.0303609
20
0.0330669
11
0.0299803
21
0.0349803
0
LINE
8
BLACK
6
CONTINUOUS
10
0.0299803
20
0.0349803
11
0.0299803
21
1.56502
0
LINE
8
BLACK
6
CONTINUOUS
10
0.0299803
20
1.56502
11
0.0303609
21
1.56693
0
LINE
8
BLACK
6
CONTINUOUS
10
1.98372
20
0.479076
11
1.98403
21
0.478884
0
LINE
8
BLACK
6
CONTINUOUS
10
1.98403
20
0.478884
11
1.99281
21
0.474267
0
LINE
8
BLACK
6
CONTINUOUS
10
1.99281
20
0.474267
11
1.99314
21
0.474121
0
LINE
8
BLACK
6
CONTINUOUS
10
1.99314
20
0.474121
11
2.0025
21
0.470852
0
LINE
8
BLACK
6
CONTINUOUS
10
2.0025
20
0.470852
11
2.00286
21
0.470758
0
LINE
8
BLACK
6
CONTINUOUS
10
2.00286
20
0.470758
11
2.0126
21
0.468908
0
LINE
8
BLACK
6
CONTINUOUS
10
2.0126
20
0.468908
11
2.01296
21
0.468867
0
LINE
8
BLACK
6
CONTINUOUS
10
2.01296
20
0.468867
11
2.02287
21
0.468477
0
LINE
8
BLACK
6
CONTINUOUS
10
2.02287
20
0.468477
11
2.02323
21
0.46849
0
LINE
8
BLACK
6
CONTINUOUS
10
2.02323
20
0.46849
11
2.03309
21
0.46957
0
LINE
8
BLACK
6
CONTINUOUS
10
2.03309
20
0.46957
11
2.03345
21
0.469636
0
LINE
8
BLACK
6
CONTINUOUS
10
2.03345
20
0.469636
11
2.04304
21
0.472161
0
LINE
8
BLACK
6
CONTINUOUS
10
2.04304
20
0.472161
11
2.04338
21
0.472279
0
LINE
8
BLACK
6
CONTINUOUS
10
2.04338
20
0.472279
11
2.05249
21
0.476194
0
LINE
8
BLACK
6
CONTINUOUS
10
2.05249
20
0.476194
11
2.05282
21
0.476362
0
LINE
8
BLACK
6
CONTINUOUS
10
2.05282
20
0.476362
11
2.06125
21
0.48158
0
LINE
8
BLACK
6
CONTINUOUS
10
2.06125
20
0.48158
11
2.06151
21
0.481773
0
LINE
8
BLACK
6
CONTINUOUS
10
2.06151
20
0.481773
11
2.06182
21
0.482245
0
LINE
8
BLACK
6
CONTINUOUS
10
2.06182
20
0.482245
11
2.0616
21
0.482627
0
LINE
8
BLACK
6
CONTINUOUS
10
2.0616
20
0.482627
11
2.04748
21
0.496747
0
LINE
8
BLACK
6
CONTINUOUS
10
2.04748
20
0.496747
11
2.04524
21
0.495176
0
LINE
8
BLACK
6
CONTINUOUS
10
2.04524
20
0.495176
11
2.03746
21
0.491551
0
LINE
8
BLACK
6
CONTINUOUS
10
2.03746
20
0.491551
11
2.02918
21
0.48933
0
LINE
8
BLACK
6
CONTINUOUS
10
2.02918
20
0.48933
11
2.02063
21
0.488583
0
LINE
8
BLACK
6
CONTINUOUS
10
2.02063
20
0.488583
11
2.01208
21
0.48933
0
LINE
8
BLACK
6
CONTINUOUS
10
2.01208
20
0.48933
11
2.0038
21
0.491551
0
LINE
8
BLACK
6
CONTINUOUS
10
2.0038
20
0.491551
11
1.99602
21
0.495176
0
LINE
8
BLACK
6
CONTINUOUS
10
1.99602
20
0.495176
11
1.99378
21
0.496747
0
LINE
8
BLACK
6
CONTINUOUS
10
1.99378
20
0.496747
11
1.97981
21
0.482774
0
LINE
8
BLACK
6
CONTINUOUS
10
1.97981
20
0.482774
11
1.97956
21
0.482321
0
LINE
8
BLACK
6
CONTINUOUS
10
1.97956
20
0.482321
11
1.97988
21
0.481892
0
LINE
8
BLACK
6
CONTINUOUS
10
1.97988
20
0.481892
11
1.98372
21
0.479076
0
LINE
8
BLACK
6
CONTINUOUS
10
1.95182
20
0.529163
11
1.95375
21
0.519437
0
LINE
8
BLACK
6
CONTINUOUS
10
1.95375
20
0.519437
11
1.95385
21
0.519085
0
LINE
8
BLACK
6
CONTINUOUS
10
1.95385
20
0.519085
11
1.9572
21
0.509753
0
LINE
8
BLACK
6
CONTINUOUS
10
1.9572
20
0.509753
11
1.95735
21
0.509421
0
LINE
8
BLACK
6
CONTINUOUS
10
1.95735
20
0.509421
11
1.96204
21
0.500685
0
LINE
8
BLACK
6
CONTINUOUS
10
1.96204
20
0.500685
11
1.96224
21
0.500378
0
LINE
8
BLACK
6
CONTINUOUS
10
1.96224
20
0.500378
11
1.96473
21
0.497036
0
LINE
8
BLACK
6
CONTINUOUS
10
1.96473
20
0.497036
11
1.96515
21
0.496722
0
LINE
8
BLACK
6
CONTINUOUS
10
1.96515
20
0.496722
11
1.96561
21
0.496974
0
LINE
8
BLACK
6
CONTINUOUS
10
1.96561
20
0.496974
11
1.97958
21
0.510945
0
LINE
8
BLACK
6
CONTINUOUS
10
1.97958
20
0.510945
11
1.97801
21
0.513189
0
LINE
8
BLACK
6
CONTINUOUS
10
1.97801
20
0.513189
11
1.97439
21
0.520964
0
LINE
8
BLACK
6
CONTINUOUS
10
1.97439
20
0.520964
11
1.97216
21
0.52925
0
LINE
8
BLACK
6
CONTINUOUS
10
1.97216
20
0.52925
11
1.97142
21
0.537795
0
LINE
8
BLACK
6
CONTINUOUS
10
1.97142
20
0.537795
11
1.97216
21
0.546341
0
LINE
8
BLACK
6
CONTINUOUS
10
1.97216
20
0.546341
11
1.97439
21
0.554627
0
LINE
8
BLACK
6
CONTINUOUS
10
1.97439
20
0.554627
11
1.97801
21
0.562402
0
LINE
8
BLACK
6
CONTINUOUS
10
1.97801
20
0.562402
11
1.97958
21
0.564646
0
LINE
8
BLACK
6
CONTINUOUS
10
1.97958
20
0.564646
11
1.96554
21
0.578688
0
LINE
8
BLACK
6
CONTINUOUS
10
1.96554
20
0.578688
11
1.96504
21
0.578959
0
LINE
8
BLACK
6
CONTINUOUS
10
1.96504
20
0.578959
11
1.96467
21
0.578696
0
LINE
8
BLACK
6
CONTINUOUS
10
1.96467
20
0.578696
11
1.96427
21
0.578218
0
LINE
8
BLACK
6
CONTINUOUS
10
1.96427
20
0.578218
11
1.96406
21
0.577921
0
LINE
8
BLACK
6
CONTINUOUS
10
1.96406
20
0.577921
11
1.95892
21
0.569444
0
LINE
8
BLACK
6
CONTINUOUS
10
1.95892
20
0.569444
11
1.95875
21
0.569119
0
LINE
8
BLACK
6
CONTINUOUS
10
1.95875
20
0.569119
11
1.95492
21
0.559975
0
LINE
8
BLACK
6
CONTINUOUS
10
1.95492
20
0.559975
11
1.9548
21
0.559629
0
LINE
8
BLACK
6
CONTINUOUS
10
1.9548
20
0.559629
11
1.95236
21
0.550018
0
LINE
8
BLACK
6
CONTINUOUS
10
1.95236
20
0.550018
11
1.9523
21
0.549659
0
LINE
8
BLACK
6
CONTINUOUS
10
1.9523
20
0.549659
11
1.9513
21
0.539793
0
LINE
8
BLACK
6
CONTINUOUS
10
1.9513
20
0.539793
11
1.9513
21
0.539429
0
LINE
8
BLACK
6
CONTINUOUS
10
1.9513
20
0.539429
11
1.95177
21
0.529524
0
LINE
8
BLACK
6
CONTINUOUS
10
1.95177
20
0.529524
11
1.95182
21
0.529163
0
LINE
8
BLACK
6
CONTINUOUS
10
2.07569
20
0.578658
11
2.06168
21
0.564646
0
LINE
8
BLACK
6
CONTINUOUS
10
2.06168
20
0.564646
11
2.06325
21
0.562402
0
LINE
8
BLACK
6
CONTINUOUS
10
2.06325
20
0.562402
11
2.06687
21
0.554627
0
LINE
8
BLACK
6
CONTINUOUS
10
2.06687
20
0.554627
11
2.06909
21
0.546341
0
LINE
8
BLACK
6
CONTINUOUS
10
2.06909
20
0.546341
11
2.06984
21
0.537795
0
LINE
8
BLACK
6
CONTINUOUS
10
2.06984
20
0.537795
11
2.06909
21
0.52925
0
LINE
8
BLACK
6
CONTINUOUS
10
2.06909
20
0.52925
11
2.06687
21
0.520964
0
LINE
8
BLACK
6
CONTINUOUS
10
2.06687
20
0.520964
11
2.06325
21
0.513189
0
LINE
8
BLACK
6
CONTINUOUS
10
2.06325
20
0.513189
11
2.06168
21
0.510945
0
LINE
8
BLACK
6
CONTINUOUS
10
2.06168
20
0.510945
11
2.07577
21
0.496854
0
LINE
8
BLACK
6
CONTINUOUS
10
2.07577
20
0.496854
11
2.07623
21
0.496603
0
LINE
8
BLACK
6
CONTINUOUS
10
2.07623
20
0.496603
11
2.07653
21
0.49683
0
LINE
8
BLACK
6
CONTINUOUS
10
2.07653
20
0.49683
11
2.08149
21
0.504543
0
LINE
8
BLACK
6
CONTINUOUS
10
2.08149
20
0.504543
11
2.08167
21
0.504863
0
LINE
8
BLACK
6
CONTINUOUS
10
2.08167
20
0.504863
11
2.08574
21
0.513904
0
LINE
8
BLACK
6
CONTINUOUS
10
2.08574
20
0.513904
11
2.08586
21
0.514246
0
LINE
8
BLACK
6
CONTINUOUS
10
2.08586
20
0.514246
11
2.08855
21
0.52379
0
LINE
8
BLACK
6
CONTINUOUS
10
2.08855
20
0.52379
11
2.08863
21
0.524147
0
LINE
8
BLACK
6
CONTINUOUS
10
2.08863
20
0.524147
11
2.08989
21
0.534044
0
LINE
8
BLACK
6
CONTINUOUS
10
2.08989
20
0.534044
11
2.08991
21
0.53429
0
LINE
8
BLACK
6
CONTINUOUS
10
2.08991
20
0.53429
11
2.08999
21
0.53767
0
LINE
8
BLACK
6
CONTINUOUS
10
2.08999
20
0.53767
11
2.08999
21
0.537918
0
LINE
8
BLACK
6
CONTINUOUS
10
2.08999
20
0.537918
11
2.08925
21
0.547867
0
LINE
8
BLACK
6
CONTINUOUS
10
2.08925
20
0.547867
11
2.08919
21
0.548226
0
LINE
8
BLACK
6
CONTINUOUS
10
2.08919
20
0.548226
11
2.08701
21
0.557898
0
LINE
8
BLACK
6
CONTINUOUS
10
2.08701
20
0.557898
11
2.0869
21
0.558247
0
LINE
8
BLACK
6
CONTINUOUS
10
2.0869
20
0.558247
11
2.08331
21
0.567488
0
LINE
8
BLACK
6
CONTINUOUS
10
2.08331
20
0.567488
11
2.08315
21
0.567817
0
LINE
8
BLACK
6
CONTINUOUS
10
2.08315
20
0.567817
11
2.07823
21
0.576426
0
LINE
8
BLACK
6
CONTINUOUS
10
2.07823
20
0.576426
11
2.07802
21
0.576729
0
LINE
8
BLACK
6
CONTINUOUS
10
2.07802
20
0.576729
11
2.07656
21
0.578583
0
LINE
8
BLACK
6
CONTINUOUS
10
2.07656
20
0.578583
11
2.07612
21
0.578899
0
LINE
8
BLACK
6
CONTINUOUS
10
2.07612
20
0.578899
11
2.07569
21
0.578658
0
LINE
8
BLACK
6
CONTINUOUS
10
0.397924
20
0.687085
11
0.397795
21
0.68662
0
LINE
8
BLACK
6
CONTINUOUS
10
0.397795
20
0.68662
11
0.397795
21
0.66663
0
LINE
8
BLACK
6
CONTINUOUS
10
0.397795
20
0.66663
11
0.4005
21
0.665844
0
LINE
8
BLACK
6
CONTINUOUS
10
0.4005
20
0.665844
11
0.405495
21
0.662747
0
LINE
8
BLACK
6
CONTINUOUS
10
0.405495
20
0.662747
11
0.409474
21
0.658421
0
LINE
8
BLACK
6
CONTINUOUS
10
0.409474
20
0.658421
11
0.410655
21
0.656102
0
LINE
8
BLACK
6
CONTINUOUS
10
0.410655
20
0.656102
11
0.431453
21
0.656102
0
LINE
8
BLACK
6
CONTINUOUS
10
0.431453
20
0.656102
11
0.431956
21
0.65625
0
LINE
8
BLACK
6
CONTINUOUS
10
0.431956
20
0.65625
11
0.431995
21
0.656523
0
LINE
8
BLACK
6
CONTINUOUS
10
0.431995
20
0.656523
11
0.430532
21
0.661496
0
LINE
8
BLACK
6
CONTINUOUS
10
0.430532
20
0.661496
11
0.430352
21
0.661941
0
LINE
8
BLACK
6
CONTINUOUS
10
0.430352
20
0.661941
11
0.426794
21
0.668747
0
LINE
8
BLACK
6
CONTINUOUS
10
0.426794
20
0.668747
11
0.426532
21
0.669147
0
LINE
8
BLACK
6
CONTINUOUS
10
0.426532
20
0.669147
11
0.42172
21
0.675132
0
LINE
8
BLACK
6
CONTINUOUS
10
0.42172
20
0.675132
11
0.421384
21
0.675475
0
LINE
8
BLACK
6
CONTINUOUS
10
0.421384
20
0.675475
11
0.415502
21
0.680411
0
LINE
8
BLACK
6
CONTINUOUS
10
0.415502
20
0.680411
11
0.415107
21
0.680681
0
LINE
8
BLACK
6
CONTINUOUS
10
0.415107
20
0.680681
11
0.408377
21
0.684381
0
LINE
8
BLACK
6
CONTINUOUS
10
0.408377
20
0.684381
11
0.407936
21
0.68457
0
LINE
8
BLACK
6
CONTINUOUS
10
0.407936
20
0.68457
11
0.400617
21
0.686892
0
LINE
8
BLACK
6
CONTINUOUS
10
0.400617
20
0.686892
11
0.400148
21
0.686992
0
LINE
8
BLACK
6
CONTINUOUS
10
0.400148
20
0.686992
11
0.398466
21
0.68718
0
LINE
8
BLACK
6
CONTINUOUS
10
0.398466
20
0.68718
11
0.397924
21
0.687085
0
LINE
8
BLACK
6
CONTINUOUS
10
2.12922
20
0.687085
11
2.12909
21
0.68662
0
LINE
8
BLACK
6
CONTINUOUS
10
2.12909
20
0.68662
11
2.12909
21
0.66663
0
LINE
8
BLACK
6
CONTINUOUS
10
2.12909
20
0.66663
11
2.1318
21
0.665844
0
LINE
8
BLACK
6
CONTINUOUS
10
2.1318
20
0.665844
11
2.13679
21
0.662747
0
LINE
8
BLACK
6
CONTINUOUS
10
2.13679
20
0.662747
11
2.14077
21
0.658421
0
LINE
8
BLACK
6
CONTINUOUS
10
2.14077
20
0.658421
11
2.14195
21
0.656102
0
LINE
8
BLACK
6
CONTINUOUS
10
2.14195
20
0.656102
11
2.16275
21
0.656102
0
LINE
8
BLACK
6
CONTINUOUS
10
2.16275
20
0.656102
11
2.16326
21
0.65625
0
LINE
8
BLACK
6
CONTINUOUS
10
2.16326
20
0.65625
11
2.16329
21
0.656523
0
LINE
8
BLACK
6
CONTINUOUS
10
2.16329
20
0.656523
11
2.16183
21
0.661496
0
LINE
8
BLACK
6
CONTINUOUS
10
2.16183
20
0.661496
11
2.16165
21
0.661941
0
LINE
8
BLACK
6
CONTINUOUS
10
2.16165
20
0.661941
11
2.15809
21
0.668747
0
LINE
8
BLACK
6
CONTINUOUS
10
2.15809
20
0.668747
11
2.15783
21
0.669147
0
LINE
8
BLACK
6
CONTINUOUS
10
2.15783
20
0.669147
11
2.15302
21
0.675132
0
LINE
8
BLACK
6
CONTINUOUS
10
2.15302
20
0.675132
11
2.15268
21
0.675475
0
LINE
8
BLACK
6
CONTINUOUS
10
2.15268
20
0.675475
11
2.1468
21
0.680411
0
LINE
8
BLACK
6
CONTINUOUS
10
2.1468
20
0.680411
11
2.14641
21
0.680681
0
LINE
8
BLACK
6
CONTINUOUS
10
2.14641
20
0.680681
11
2.13968
21
0.684381
0
LINE
8
BLACK
6
CONTINUOUS
10
2.13968
20
0.684381
11
2.13924
21
0.68457
0
LINE
8
BLACK
6
CONTINUOUS
10
2.13924
20
0.68457
11
2.13192
21
0.686892
0
LINE
8
BLACK
6
CONTINUOUS
10
2.13192
20
0.686892
11
2.13145
21
0.686992
0
LINE
8
BLACK
6
CONTINUOUS
10
2.13145
20
0.686992
11
2.12977
21
0.68718
0
LINE
8
BLACK
6
CONTINUOUS
10
2.12977
20
0.68718
11
2.12922
21
0.687085
0
LINE
8
BLACK
6
CONTINUOUS
10
0.397924
20
0.837085
11
0.397795
21
0.83662
0
LINE
8
BLACK
6
CONTINUOUS
10
0.397795
20
0.83662
11
0.397795
21
0.81663
0
LINE
8
BLACK
6
CONTINUOUS
10
0.397795
20
0.81663
11
0.4005
21
0.815844
0
LINE
8
BLACK
6
CONTINUOUS
10
0.4005
20
0.815844
11
0.405495
21
0.812747
0
LINE
8
BLACK
6
CONTINUOUS
10
0.405495
20
0.812747
11
0.409474
21
0.808421
0
LINE
8
BLACK
6
CONTINUOUS
10
0.409474
20
0.808421
11
0.410655
21
0.806102
0
LINE
8
BLACK
6
CONTINUOUS
10
0.410655
20
0.806102
11
0.431453
21
0.806102
0
LINE
8
BLACK
6
CONTINUOUS
10
0.431453
20
0.806102
11
0.431956
21
0.80625
0
LINE
8
BLACK
6
CONTINUOUS
10
0.431956
20
0.80625
11
0.431995
21
0.806523
0
LINE
8
BLACK
6
CONTINUOUS
10
0.431995
20
0.806523
11
0.430532
21
0.811496
0
LINE
8
BLACK
6
CONTINUOUS
10
0.430532
20
0.811496
11
0.430352
21
0.811941
0
LINE
8
BLACK
6
CONTINUOUS
10
0.430352
20
0.811941
11
0.426794
21
0.818747
0
LINE
8
BLACK
6
CONTINUOUS
10
0.426794
20
0.818747
11
0.426532
21
0.819147
0
LINE
8
BLACK
6
CONTINUOUS
10
0.426532
20
0.819147
11
0.42172
21
0.825132
0
LINE
8
BLACK
6
CONTINUOUS
10
0.42172
20
0.825132
11
0.421384
21
0.825475
0
LINE
8
BLACK
6
CONTINUOUS
10
0.421384
20
0.825475
11
0.415502
21
0.830411
0
LINE
8
BLACK
6
CONTINUOUS
10
0.415502
20
0.830411
11
0.415107
21
0.830681
0
LINE
8
BLACK
6
CONTINUOUS
10
0.415107
20
0.830681
11
0.408377
21
0.834381
0
LINE
8
BLACK
6
CONTINUOUS
10
0.408377
20
0.834381
11
0.407936
21
0.83457
0
LINE
8
BLACK
6
CONTINUOUS
10
0.407936
20
0.83457
11
0.400617
21
0.836892
0
LINE
8
BLACK
6
CONTINUOUS
10
0.400617
20
0.836892
11
0.400148
21
0.836992
0
LINE
8
BLACK
6
CONTINUOUS
10
0.400148
20
0.836992
11
0.398466
21
0.83718
0
LINE
8
BLACK
6
CONTINUOUS
10
0.398466
20
0.83718
11
0.397924
21
0.837085
0
LINE
8
BLACK
6
CONTINUOUS
10
2.12922
20
0.837085
11
2.12909
21
0.83662
0
LINE
8
BLACK
6
CONTINUOUS
10
2.12909
20
0.83662
11
2.12909
21
0.81663
0
LINE
8
BLACK
6
CONTINUOUS
10
2.12909
20
0.81663
11
2.1318
21
0.815844
0
LINE
8
BLACK
6
CONTINUOUS
10
2.1318
20
0.815844
11
2.13679
21
0.812747
0
LINE
8
BLACK
6
CONTINUOUS
10
2.13679
20
0.812747
11
2.14077
21
0.808421
0
LINE
8
BLACK
6
CONTINUOUS
10
2.14077
20
0.808421
11
2.14195
21
0.806102
0
LINE
8
BLACK
6
CONTINUOUS
10
2.14195
20
0.806102
11
2.16275
21
0.806102
0
LINE
8
BLACK
6
CONTINUOUS
10
2.16275
20
0.806102
11
2.16326
21
0.80625
0
LINE
8
BLACK
6
CONTINUOUS
10
2.16326
20
0.80625
11
2.16329
21
0.806523
0
LINE
8
BLACK
6
CONTINUOUS
10
2.16329
20
0.806523
11
2.16183
21
0.811496
0
LINE
8
BLACK
6
CONTINUOUS
10
2.16183
20
0.811496
11
2.16165
21
0.811941
0
LINE
8
BLACK
6
CONTINUOUS
10
2.16165
20
0.811941
11
2.15809
21
0.818747
0
LINE
8
BLACK
6
CONTINUOUS
10
2.15809
20
0.818747
11
2.15783
21
0.819147
0
LINE
8
BLACK
6
CONTINUOUS
10
2.15783
20
0.819147
11
2.15302
21
0.825132
0
LINE
8
BLACK
6
CONTINUOUS
10
2.15302
20
0.825132
11
2.15268
21
0.825475
0
LINE
8
BLACK
6
CONTINUOUS
10
2.15268
20
0.825475
11
2.1468
21
0.830411
0
LINE
8
BLACK
6
CONTINUOUS
10
2.1468
20
0.830411
11
2.14641
21
0.830681
0
LINE
8
BLACK
6
CONTINUOUS
10
2.14641
20
0.830681
11
2.13968
21
0.834381
0
LINE
8
BLACK
6
CONTINUOUS
10
2.13968
20
0.834381
11
2.13924
21
0.83457
0
LINE
8
BLACK
6
CONTINUOUS
10
2.13924
20
0.83457
11
2.13192
21
0.836892
0
LINE
8
BLACK
6
CONTINUOUS
10
2.13192
20
0.836892
11
2.13145
21
0.836992
0
LINE
8
BLACK
6
CONTINUOUS
10
2.13145
20
0.836992
11
2.12977
21
0.83718
0
LINE
8
BLACK
6
CONTINUOUS
10
2.12977
20
0.83718
11
2.12922
21
0.837085
0
LINE
8
BLACK
6
CONTINUOUS
10
2.12922
20
0.987085
11
2.12909
21
0.98662
0
LINE
8
BLACK
6
CONTINUOUS
10
2.12909
20
0.98662
11
2.12909
21
0.96663
0
LINE
8
BLACK
6
CONTINUOUS
10
2.12909
20
0.96663
11
2.1318
21
0.965844
0
LINE
8
BLACK
6
CONTINUOUS
10
2.1318
20
0.965844
11
2.13679
21
0.962747
0
LINE
8
BLACK
6
CONTINUOUS
10
2.13679
20
0.962747
11
2.14077
21
0.958421
0
LINE
8
BLACK
6
CONTINUOUS
10
2.14077
20
0.958421
11
2.14195
21
0.956102
0
LINE
8
BLACK
6
CONTINUOUS
10
2.14195
20
0.956102
11
2.16275
21
0.956102
0
LINE
8
BLACK
6
CONTINUOUS
10
2.16275
20
0.956102
11
2.16326
21
0.95625
0
LINE
8
BLACK
6
CONTINUOUS
10
2.16326
20
0.95625
11
2.16329
21
0.956523
0
LINE
8
BLACK
6
CONTINUOUS
10
2.16329
20
0.956523
11
2.16183
21
0.961496
0
LINE
8
BLACK
6
CONTINUOUS
10
2.16183
20
0.961496
11
2.16165
21
0.961941
0
LINE
8
BLACK
6
CONTINUOUS
10
2.16165
20
0.961941
11
2.15809
21
0.968747
0
LINE
8
BLACK
6
CONTINUOUS
10
2.15809
20
0.968747
11
2.15783
21
0.969147
0
LINE
8
BLACK
6
CONTINUOUS
10
2.15783
20
0.969147
11
2.15302
21
0.975132
0
LINE
8
BLACK
6
CONTINUOUS
10
2.15302
20
0.975132
11
2.15268
21
0.975475
0
LINE
8
BLACK
6
CONTINUOUS
10
2.15268
20
0.975475
11
2.1468
21
0.980411
0
LINE
8
BLACK
6
CONTINUOUS
10
2.1468
20
0.980411
11
2.14641
21
0.980681
0
LINE
8
BLACK
6
CONTINUOUS
10
2.14641
20
0.980681
11
2.13968
21
0.984381
0
LINE
8
BLACK
6
CONTINUOUS
10
2.13968
20
0.984381
11
2.13924
21
0.98457
0
LINE
8
BLACK
6
CONTINUOUS
10
2.13924
20
0.98457
11
2.13192
21
0.986892
0
LINE
8
BLACK
6
CONTINUOUS
10
2.13192
20
0.986892
11
2.13145
21
0.986992
0
LINE
8
BLACK
6
CONTINUOUS
10
2.13145
20
0.986992
11
2.12977
21
0.98718
0
LINE
8
BLACK
6
CONTINUOUS
10
2.12977
20
0.98718
11
2.12922
21
0.987085
0
LINE
8
BLACK
6
CONTINUOUS
10
0.397924
20
0.987085
11
0.397795
21
0.98662
0
LINE
8
BLACK
6
CONTINUOUS
10
0.397795
20
0.98662
11
0.397795
21
0.96663
0
LINE
8
BLACK
6
CONTINUOUS
10
0.397795
20
0.96663
11
0.4005
21
0.965844
0
LINE
8
BLACK
6
CONTINUOUS
10
0.4005
20
0.965844
11
0.405495
21
0.962747
0
LINE
8
BLACK
6
CONTINUOUS
10
0.405495
20
0.962747
11
0.409474
21
0.958421
0
LINE
8
BLACK
6
CONTINUOUS
10
0.409474
20
0.958421
11
0.410655
21
0.956102
0
LINE
8
BLACK
6
CONTINUOUS
10
0.410655
20
0.956102
11
0.431453
21
0.956102
0
LINE
8
BLACK
6
CONTINUOUS
10
0.431453
20
0.956102
11
0.431956
21
0.95625
0
LINE
8
BLACK
6
CONTINUOUS
10
0.431956
20
0.95625
11
0.431995
21
0.956523
0
LINE
8
BLACK
6
CONTINUOUS
10
0.431995
20
0.956523
11
0.430532
21
0.961496
0
LINE
8
BLACK
6
CONTINUOUS
10
0.430532
20
0.961496
11
0.430352
21
0.961941
0
LINE
8
BLACK
6
CONTINUOUS
10
0.430352
20
0.961941
11
0.426794
21
0.968747
0
LINE
8
BLACK
6
CONTINUOUS
10
0.426794
20
0.968747
11
0.426532
21
0.969147
0
LINE
8
BLACK
6
CONTINUOUS
10
0.426532
20
0.969147
11
0.42172
21
0.975132
0
LINE
8
BLACK
6
CONTINUOUS
10
0.42172
20
0.975132
11
0.421384
21
0.975475
0
LINE
8
BLACK
6
CONTINUOUS
10
0.421384
20
0.975475
11
0.415502
21
0.980411
0
LINE
8
BLACK
6
CONTINUOUS
10
0.415502
20
0.980411
11
0.415106
21
0.980681
0
LINE
8
BLACK
6
CONTINUOUS
10
0.415106
20
0.980681
11
0.408917
21
0.984084
0
LINE
8
BLACK
6
CONTINUOUS
10
0.408917
20
0.984084
11
0.408917
21
0.984084
0
LINE
8
BLACK
6
CONTINUOUS
10
0.408917
20
0.984084
11
0.408377
21
0.984381
0
LINE
8
BLACK
6
CONTINUOUS
10
0.408377
20
0.984381
11
0.407936
21
0.98457
0
LINE
8
BLACK
6
CONTINUOUS
10
0.407936
20
0.98457
11
0.400617
21
0.986892
0
LINE
8
BLACK
6
CONTINUOUS
10
0.400617
20
0.986892
11
0.400148
21
0.986992
0
LINE
8
BLACK
6
CONTINUOUS
10
0.400148
20
0.986992
11
0.398466
21
0.98718
0
LINE
8
BLACK
6
CONTINUOUS
10
0.398466
20
0.98718
11
0.397924
21
0.987085
0
LINE
8
BLACK
6
CONTINUOUS
10
1.99119
20
1.03428
11
1.99312
21
1.02456
0
LINE
8
BLACK
6
CONTINUOUS
10
1.99312
20
1.02456
11
1.99322
21
1.0242
0
LINE
8
BLACK
6
CONTINUOUS
10
1.99322
20
1.0242
11
1.99657
21
1.01487
0
LINE
8
BLACK
6
CONTINUOUS
10
1.99657
20
1.01487
11
1.99672
21
1.01454
0
LINE
8
BLACK
6
CONTINUOUS
10
1.99672
20
1.01454
11
2.00141
21
1.0058
0
LINE
8
BLACK
6
CONTINUOUS
10
2.00141
20
1.0058
11
2.00161
21
1.0055
0
LINE
8
BLACK
6
CONTINUOUS
10
2.00161
20
1.0055
11
2.0041
21
1.00215
0
LINE
8
BLACK
6
CONTINUOUS
10
2.0041
20
1.00215
11
2.00452
21
1.00184
0
LINE
8
BLACK
6
CONTINUOUS
10
2.00452
20
1.00184
11
2.00498
21
1.00209
0
LINE
8
BLACK
6
CONTINUOUS
10
2.00498
20
1.00209
11
2.01895
21
1.01606
0
LINE
8
BLACK
6
CONTINUOUS
10
2.01895
20
1.01606
11
2.01738
21
1.01831
0
LINE
8
BLACK
6
CONTINUOUS
10
2.01738
20
1.01831
11
2.01376
21
1.02608
0
LINE
8
BLACK
6
CONTINUOUS
10
2.01376
20
1.02608
11
2.01154
21
1.03437
0
LINE
8
BLACK
6
CONTINUOUS
10
2.01154
20
1.03437
11
2.01079
21
1.04291
0
LINE
8
BLACK
6
CONTINUOUS
10
2.01079
20
1.04291
11
2.01154
21
1.05146
0
LINE
8
BLACK
6
CONTINUOUS
10
2.01154
20
1.05146
11
2.01376
21
1.05975
0
LINE
8
BLACK
6
CONTINUOUS
10
2.01376
20
1.05975
11
2.01738
21
1.06752
0
LINE
8
BLACK
6
CONTINUOUS
10
2.01738
20
1.06752
11
2.01895
21
1.06976
0
LINE
8
BLACK
6
CONTINUOUS
10
2.01895
20
1.06976
11
2.00491
21
1.08381
0
LINE
8
BLACK
6
CONTINUOUS
10
2.00491
20
1.08381
11
2.00441
21
1.08408
0
LINE
8
BLACK
6
CONTINUOUS
10
2.00441
20
1.08408
11
2.00404
21
1.08381
0
LINE
8
BLACK
6
CONTINUOUS
10
2.00404
20
1.08381
11
2.00364
21
1.08334
0
LINE
8
BLACK
6
CONTINUOUS
10
2.00364
20
1.08334
11
2.00343
21
1.08304
0
LINE
8
BLACK
6
CONTINUOUS
10
2.00343
20
1.08304
11
1.99829
21
1.07456
0
LINE
8
BLACK
6
CONTINUOUS
10
1.99829
20
1.07456
11
1.99812
21
1.07424
0
LINE
8
BLACK
6
CONTINUOUS
10
1.99812
20
1.07424
11
1.99429
21
1.06509
0
LINE
8
BLACK
6
CONTINUOUS
10
1.99429
20
1.06509
11
1.99417
21
1.06475
0
LINE
8
BLACK
6
CONTINUOUS
10
1.99417
20
1.06475
11
1.99173
21
1.05514
0
LINE
8
BLACK
6
CONTINUOUS
10
1.99173
20
1.05514
11
1.99167
21
1.05478
0
LINE
8
BLACK
6
CONTINUOUS
10
1.99167
20
1.05478
11
1.99067
21
1.04491
0
LINE
8
BLACK
6
CONTINUOUS
10
1.99067
20
1.04491
11
1.99067
21
1.04455
0
LINE
8
BLACK
6
CONTINUOUS
10
1.99067
20
1.04455
11
1.99114
21
1.03464
0
LINE
8
BLACK
6
CONTINUOUS
10
1.99114
20
1.03464
11
1.99119
21
1.03428
0
LINE
8
BLACK
6
CONTINUOUS
10
2.11506
20
1.08378
11
2.10105
21
1.06976
0
LINE
8
BLACK
6
CONTINUOUS
10
2.10105
20
1.06976
11
2.10262
21
1.06752
0
LINE
8
BLACK
6
CONTINUOUS
10
2.10262
20
1.06752
11
2.10624
21
1.05975
0
LINE
8
BLACK
6
CONTINUOUS
10
2.10624
20
1.05975
11
2.10846
21
1.05146
0
LINE
8
BLACK
6
CONTINUOUS
10
2.10846
20
1.05146
11
2.10921
21
1.04291
0
LINE
8
BLACK
6
CONTINUOUS
10
2.10921
20
1.04291
11
2.10846
21
1.03437
0
LINE
8
BLACK
6
CONTINUOUS
10
2.10846
20
1.03437
11
2.10624
21
1.02608
0
LINE
8
BLACK
6
CONTINUOUS
10
2.10624
20
1.02608
11
2.10262
21
1.01831
0
LINE
8
BLACK
6
CONTINUOUS
10
2.10262
20
1.01831
11
2.10105
21
1.01606
0
LINE
8
BLACK
6
CONTINUOUS
10
2.10105
20
1.01606
11
2.11514
21
1.00197
0
LINE
8
BLACK
6
CONTINUOUS
10
2.11514
20
1.00197
11
2.1156
21
1.00172
0
LINE
8
BLACK
6
CONTINUOUS
10
2.1156
20
1.00172
11
2.1159
21
1.00195
0
LINE
8
BLACK
6
CONTINUOUS
10
2.1159
20
1.00195
11
2.12086
21
1.00966
0
LINE
8
BLACK
6
CONTINUOUS
10
2.12086
20
1.00966
11
2.12104
21
1.00998
0
LINE
8
BLACK
6
CONTINUOUS
10
2.12104
20
1.00998
11
2.12511
21
1.01902
0
LINE
8
BLACK
6
CONTINUOUS
10
2.12511
20
1.01902
11
2.12523
21
1.01936
0
LINE
8
BLACK
6
CONTINUOUS
10
2.12523
20
1.01936
11
2.12793
21
1.02891
0
LINE
8
BLACK
6
CONTINUOUS
10
2.12793
20
1.02891
11
2.128
21
1.02927
0
LINE
8
BLACK
6
CONTINUOUS
10
2.128
20
1.02927
11
2.12926
21
1.03916
0
LINE
8
BLACK
6
CONTINUOUS
10
2.12926
20
1.03916
11
2.12928
21
1.03941
0
LINE
8
BLACK
6
CONTINUOUS
10
2.12928
20
1.03941
11
2.12936
21
1.04279
0
LINE
8
BLACK
6
CONTINUOUS
10
2.12936
20
1.04279
11
2.12936
21
1.04304
0
LINE
8
BLACK
6
CONTINUOUS
10
2.12936
20
1.04304
11
2.12862
21
1.05298
0
LINE
8
BLACK
6
CONTINUOUS
10
2.12862
20
1.05298
11
2.12857
21
1.05334
0
LINE
8
BLACK
6
CONTINUOUS
10
2.12857
20
1.05334
11
2.12638
21
1.06302
0
LINE
8
BLACK
6
CONTINUOUS
10
2.12638
20
1.06302
11
2.12627
21
1.06336
0
LINE
8
BLACK
6
CONTINUOUS
10
2.12627
20
1.06336
11
2.12268
21
1.07261
0
LINE
8
BLACK
6
CONTINUOUS
10
2.12268
20
1.07261
11
2.12252
21
1.07294
0
LINE
8
BLACK
6
CONTINUOUS
10
2.12252
20
1.07294
11
2.1176
21
1.08154
0
LINE
8
BLACK
6
CONTINUOUS
10
2.1176
20
1.08154
11
2.11739
21
1.08185
0
LINE
8
BLACK
6
CONTINUOUS
10
2.11739
20
1.08185
11
2.11593
21
1.0837
0
LINE
8
BLACK
6
CONTINUOUS
10
2.11593
20
1.0837
11
2.11549
21
1.08402
0
LINE
8
BLACK
6
CONTINUOUS
10
2.11549
20
1.08402
11
2.11506
21
1.08378
0
LINE
8
BLACK
6
CONTINUOUS
10
0.316181
20
0.496747
11
0.313937
21
0.495176
0
LINE
8
BLACK
6
CONTINUOUS
10
0.313937
20
0.495176
11
0.306162
21
0.491551
0
LINE
8
BLACK
6
CONTINUOUS
10
0.306162
20
0.491551
11
0.297876
21
0.48933
0
LINE
8
BLACK
6
CONTINUOUS
10
0.297876
20
0.48933
11
0.289331
21
0.488583
0
LINE
8
BLACK
6
CONTINUOUS
10
0.289331
20
0.488583
11
0.280785
21
0.48933
0
LINE
8
BLACK
6
CONTINUOUS
10
0.280785
20
0.48933
11
0.272499
21
0.491551
0
LINE
8
BLACK
6
CONTINUOUS
10
0.272499
20
0.491551
11
0.264724
21
0.495176
0
LINE
8
BLACK
6
CONTINUOUS
10
0.264724
20
0.495176
11
0.26248
21
0.496747
0
LINE
8
BLACK
6
CONTINUOUS
10
0.26248
20
0.496747
11
0.248507
21
0.482774
0
LINE
8
BLACK
6
CONTINUOUS
10
0.248507
20
0.482774
11
0.24826
21
0.482321
0
LINE
8
BLACK
6
CONTINUOUS
10
0.24826
20
0.482321
11
0.248584
21
0.481892
0
LINE
8
BLACK
6
CONTINUOUS
10
0.248584
20
0.481892
11
0.252425
21
0.479076
0
LINE
8
BLACK
6
CONTINUOUS
10
0.252425
20
0.479076
11
0.252733
21
0.478884
0
LINE
8
BLACK
6
CONTINUOUS
10
0.252733
20
0.478884
11
0.261509
21
0.474267
0
LINE
8
BLACK
6
CONTINUOUS
10
0.261509
20
0.474267
11
0.261843
21
0.474121
0
LINE
8
BLACK
6
CONTINUOUS
10
0.261843
20
0.474121
11
0.271205
21
0.470852
0
LINE
8
BLACK
6
CONTINUOUS
10
0.271205
20
0.470852
11
0.271557
21
0.470758
0
LINE
8
BLACK
6
CONTINUOUS
10
0.271557
20
0.470758
11
0.281299
21
0.468908
0
LINE
8
BLACK
6
CONTINUOUS
10
0.281299
20
0.468908
11
0.281661
21
0.468867
0
LINE
8
BLACK
6
CONTINUOUS
10
0.281661
20
0.468867
11
0.291569
21
0.468477
0
LINE
8
BLACK
6
CONTINUOUS
10
0.291569
20
0.468477
11
0.291933
21
0.46849
0
LINE
8
BLACK
6
CONTINUOUS
10
0.291933
20
0.46849
11
0.30179
21
0.46957
0
LINE
8
BLACK
6
CONTINUOUS
10
0.30179
20
0.46957
11
0.302148
21
0.469636
0
LINE
8
BLACK
6
CONTINUOUS
10
0.302148
20
0.469636
11
0.311738
21
0.472161
0
LINE
8
BLACK
6
CONTINUOUS
10
0.311738
20
0.472161
11
0.312082
21
0.472279
0
LINE
8
BLACK
6
CONTINUOUS
10
0.312082
20
0.472279
11
0.321193
21
0.476194
0
LINE
8
BLACK
6
CONTINUOUS
10
0.321193
20
0.476194
11
0.321516
21
0.476362
0
LINE
8
BLACK
6
CONTINUOUS
10
0.321516
20
0.476362
11
0.329949
21
0.48158
0
LINE
8
BLACK
6
CONTINUOUS
10
0.329949
20
0.48158
11
0.330215
21
0.481773
0
LINE
8
BLACK
6
CONTINUOUS
10
0.330215
20
0.481773
11
0.330525
21
0.482245
0
LINE
8
BLACK
6
CONTINUOUS
10
0.330525
20
0.482245
11
0.33048
21
0.482321
0
LINE
8
BLACK
6
CONTINUOUS
10
0.33048
20
0.482321
11
0.330302
21
0.482627
0
LINE
8
BLACK
6
CONTINUOUS
10
0.330302
20
0.482627
11
0.316181
21
0.496747
0
LINE
8
BLACK
6
CONTINUOUS
10
0.220516
20
0.529163
11
0.222451
21
0.519437
0
LINE
8
BLACK
6
CONTINUOUS
10
0.222451
20
0.519437
11
0.222548
21
0.519085
0
LINE
8
BLACK
6
CONTINUOUS
10
0.222548
20
0.519085
11
0.225899
21
0.509753
0
LINE
8
BLACK
6
CONTINUOUS
10
0.225899
20
0.509753
11
0.226047
21
0.509421
0
LINE
8
BLACK
6
CONTINUOUS
10
0.226047
20
0.509421
11
0.230741
21
0.500685
0
LINE
8
BLACK
6
CONTINUOUS
10
0.230741
20
0.500685
11
0.230936
21
0.500378
0
LINE
8
BLACK
6
CONTINUOUS
10
0.230936
20
0.500378
11
0.233431
21
0.497036
0
LINE
8
BLACK
6
CONTINUOUS
10
0.233431
20
0.497036
11
0.23385
21
0.496722
0
LINE
8
BLACK
6
CONTINUOUS
10
0.23385
20
0.496722
11
0.234312
21
0.496974
0
LINE
8
BLACK
6
CONTINUOUS
10
0.234312
20
0.496974
11
0.248283
21
0.510945
0
LINE
8
BLACK
6
CONTINUOUS
10
0.248283
20
0.510945
11
0.246711
21
0.513189
0
LINE
8
BLACK
6
CONTINUOUS
10
0.246711
20
0.513189
11
0.243086
21
0.520964
0
LINE
8
BLACK
6
CONTINUOUS
10
0.243086
20
0.520964
11
0.240866
21
0.52925
0
LINE
8
BLACK
6
CONTINUOUS
10
0.240866
20
0.52925
11
0.240118
21
0.537795
0
LINE
8
BLACK
6
CONTINUOUS
10
0.240118
20
0.537795
11
0.240866
21
0.546341
0
LINE
8
BLACK
6
CONTINUOUS
10
0.240866
20
0.546341
11
0.243086
21
0.554627
0
LINE
8
BLACK
6
CONTINUOUS
10
0.243086
20
0.554627
11
0.246711
21
0.562402
0
LINE
8
BLACK
6
CONTINUOUS
10
0.246711
20
0.562402
11
0.248283
21
0.564646
0
LINE
8
BLACK
6
CONTINUOUS
10
0.248283
20
0.564646
11
0.234241
21
0.578688
0
LINE
8
BLACK
6
CONTINUOUS
10
0.234241
20
0.578688
11
0.233743
21
0.578959
0
LINE
8
BLACK
6
CONTINUOUS
10
0.233743
20
0.578959
11
0.233372
21
0.578696
0
LINE
8
BLACK
6
CONTINUOUS
10
0.233372
20
0.578696
11
0.232975
21
0.578218
0
LINE
8
BLACK
6
CONTINUOUS
10
0.232975
20
0.578218
11
0.232763
21
0.577921
0
LINE
8
BLACK
6
CONTINUOUS
10
0.232763
20
0.577921
11
0.227619
21
0.569444
0
LINE
8
BLACK
6
CONTINUOUS
10
0.227619
20
0.569444
11
0.227453
21
0.569119
0
LINE
8
BLACK
6
CONTINUOUS
10
0.227453
20
0.569119
11
0.223619
21
0.559975
0
LINE
8
BLACK
6
CONTINUOUS
10
0.223619
20
0.559975
11
0.223503
21
0.559629
0
LINE
8
BLACK
6
CONTINUOUS
10
0.223503
20
0.559629
11
0.221062
21
0.550018
0
LINE
8
BLACK
6
CONTINUOUS
10
0.221062
20
0.550018
11
0.220999
21
0.549659
0
LINE
8
BLACK
6
CONTINUOUS
10
0.220999
20
0.549659
11
0.220006
21
0.539793
0
LINE
8
BLACK
6
CONTINUOUS
10
0.220006
20
0.539793
11
0.219996
21
0.539429
0
LINE
8
BLACK
6
CONTINUOUS
10
0.219996
20
0.539429
11
0.220472
21
0.529524
0
LINE
8
BLACK
6
CONTINUOUS
10
0.220472
20
0.529524
11
0.220516
21
0.529163
0
LINE
8
BLACK
6
CONTINUOUS
10
0.357896
20
0.548226
11
0.355707
21
0.557898
0
LINE
8
BLACK
6
CONTINUOUS
10
0.355707
20
0.557898
11
0.355601
21
0.558247
0
LINE
8
BLACK
6
CONTINUOUS
10
0.355601
20
0.558247
11
0.352007
21
0.567488
0
LINE
8
BLACK
6
CONTINUOUS
10
0.352007
20
0.567488
11
0.35185
21
0.567817
0
LINE
8
BLACK
6
CONTINUOUS
10
0.35185
20
0.567817
11
0.346929
21
0.576426
0
LINE
8
BLACK
6
CONTINUOUS
10
0.346929
20
0.576426
11
0.346726
21
0.576729
0
LINE
8
BLACK
6
CONTINUOUS
10
0.346726
20
0.576729
11
0.345264
21
0.578583
0
LINE
8
BLACK
6
CONTINUOUS
10
0.345264
20
0.578583
11
0.344819
21
0.578899
0
LINE
8
BLACK
6
CONTINUOUS
10
0.344819
20
0.578899
11
0.344392
21
0.578658
0
LINE
8
BLACK
6
CONTINUOUS
10
0.344392
20
0.578658
11
0.330379
21
0.564646
0
LINE
8
BLACK
6
CONTINUOUS
10
0.330379
20
0.564646
11
0.33195
21
0.562402
0
LINE
8
BLACK
6
CONTINUOUS
10
0.33195
20
0.562402
11
0.335575
21
0.554627
0
LINE
8
BLACK
6
CONTINUOUS
10
0.335575
20
0.554627
11
0.337796
21
0.546341
0
LINE
8
BLACK
6
CONTINUOUS
10
0.337796
20
0.546341
11
0.338543
21
0.537795
0
LINE
8
BLACK
6
CONTINUOUS
10
0.338543
20
0.537795
11
0.337796
21
0.52925
0
LINE
8
BLACK
6
CONTINUOUS
10
0.337796
20
0.52925
11
0.335575
21
0.520964
0
LINE
8
BLACK
6
CONTINUOUS
10
0.335575
20
0.520964
11
0.33195
21
0.513189
0
LINE
8
BLACK
6
CONTINUOUS
10
0.33195
20
0.513189
11
0.330379
21
0.510945
0
LINE
8
BLACK
6
CONTINUOUS
10
0.330379
20
0.510945
11
0.344469
21
0.496854
0
LINE
8
BLACK
6
CONTINUOUS
10
0.344469
20
0.496854
11
0.344929
21
0.496603
0
LINE
8
BLACK
6
CONTINUOUS
10
0.344929
20
0.496603
11
0.345232
21
0.49683
0
LINE
8
BLACK
6
CONTINUOUS
10
0.345232
20
0.49683
11
0.350193
21
0.504543
0
LINE
8
BLACK
6
CONTINUOUS
10
0.350193
20
0.504543
11
0.350367
21
0.504863
0
LINE
8
BLACK
6
CONTINUOUS
10
0.350367
20
0.504863
11
0.354439
21
0.513904
0
LINE
8
BLACK
6
CONTINUOUS
10
0.354439
20
0.513904
11
0.354564
21
0.514246
0
LINE
8
BLACK
6
CONTINUOUS
10
0.354564
20
0.514246
11
0.357256
21
0.52379
0
LINE
8
BLACK
6
CONTINUOUS
10
0.357256
20
0.52379
11
0.357328
21
0.524147
0
LINE
8
BLACK
6
CONTINUOUS
10
0.357328
20
0.524147
11
0.358587
21
0.534044
0
LINE
8
BLACK
6
CONTINUOUS
10
0.358587
20
0.534044
11
0.358606
21
0.53429
0
LINE
8
BLACK
6
CONTINUOUS
10
0.358606
20
0.53429
11
0.358695
21
0.53767
0
LINE
8
BLACK
6
CONTINUOUS
10
0.358695
20
0.53767
11
0.358689
21
0.537918
0
LINE
8
BLACK
6
CONTINUOUS
10
0.358689
20
0.537918
11
0.358608
21
0.539004
0
LINE
8
BLACK
6
CONTINUOUS
10
0.358608
20
0.539004
11
0.358577
21
0.539429
0
LINE
8
BLACK
6
CONTINUOUS
10
0.358577
20
0.539429
11
0.35795
21
0.547867
0
LINE
8
BLACK
6
CONTINUOUS
10
0.35795
20
0.547867
11
0.357896
21
0.548226
0
LINE
8
BLACK
6
CONTINUOUS
10
1.99378
20
0.578843
11
1.99602
21
0.580415
0
LINE
8
BLACK
6
CONTINUOUS
10
1.99602
20
0.580415
11
2.0038
21
0.58404
0
LINE
8
BLACK
6
CONTINUOUS
10
2.0038
20
0.58404
11
2.01208
21
0.58626
0
LINE
8
BLACK
6
CONTINUOUS
10
2.01208
20
0.58626
11
2.02063
21
0.587008
0
LINE
8
BLACK
6
CONTINUOUS
10
2.02063
20
0.587008
11
2.02918
21
0.58626
0
LINE
8
BLACK
6
CONTINUOUS
10
2.02918
20
0.58626
11
2.03746
21
0.58404
0
LINE
8
BLACK
6
CONTINUOUS
10
2.03746
20
0.58404
11
2.04524
21
0.580415
0
LINE
8
BLACK
6
CONTINUOUS
10
2.04524
20
0.580415
11
2.04748
21
0.578843
0
LINE
8
BLACK
6
CONTINUOUS
10
2.04748
20
0.578843
11
2.06148
21
0.592844
0
LINE
8
BLACK
6
CONTINUOUS
10
2.06148
20
0.592844
11
2.06172
21
0.593276
0
LINE
8
BLACK
6
CONTINUOUS
10
2.06172
20
0.593276
11
2.06137
21
0.593728
0
LINE
8
BLACK
6
CONTINUOUS
10
2.06137
20
0.593728
11
2.05599
21
0.59746
0
LINE
8
BLACK
6
CONTINUOUS
10
2.05599
20
0.59746
11
2.05567
21
0.597645
0
LINE
8
BLACK
6
CONTINUOUS
10
2.05567
20
0.597645
11
2.04678
21
0.602031
0
LINE
8
BLACK
6
CONTINUOUS
10
2.04678
20
0.602031
11
2.04644
21
0.602167
0
LINE
8
BLACK
6
CONTINUOUS
10
2.04644
20
0.602167
11
2.037
21
0.60519
0
LINE
8
BLACK
6
CONTINUOUS
10
2.037
20
0.60519
11
2.03664
21
0.605275
0
LINE
8
BLACK
6
CONTINUOUS
10
2.03664
20
0.605275
11
2.02686
21
0.606869
0
LINE
8
BLACK
6
CONTINUOUS
10
2.02686
20
0.606869
11
2.02649
21
0.606901
0
LINE
8
BLACK
6
CONTINUOUS
10
2.02649
20
0.606901
11
2.01658
21
0.607031
0
LINE
8
BLACK
6
CONTINUOUS
10
2.01658
20
0.607031
11
2.01621
21
0.607009
0
LINE
8
BLACK
6
CONTINUOUS
10
2.01621
20
0.607009
11
2.00639
21
0.605671
0
LINE
8
BLACK
6
CONTINUOUS
10
2.00639
20
0.605671
11
2.00603
21
0.605596
0
LINE
8
BLACK
6
CONTINUOUS
10
2.00603
20
0.605596
11
1.99651
21
0.602821
0
LINE
8
BLACK
6
CONTINUOUS
10
1.99651
20
0.602821
11
1.99617
21
0.602693
0
LINE
8
BLACK
6
CONTINUOUS
10
1.99617
20
0.602693
11
1.98717
21
0.598542
0
LINE
8
BLACK
6
CONTINUOUS
10
1.98717
20
0.598542
11
1.98685
21
0.598365
0
LINE
8
BLACK
6
CONTINUOUS
10
1.98685
20
0.598365
11
1.9798
21
0.593747
0
LINE
8
BLACK
6
CONTINUOUS
10
1.9798
20
0.593747
11
1.97946
21
0.593348
0
LINE
8
BLACK
6
CONTINUOUS
10
1.97946
20
0.593348
11
1.97963
21
0.592992
0
LINE
8
BLACK
6
CONTINUOUS
10
1.97963
20
0.592992
11
1.99378
21
0.578843
0
LINE
8
BLACK
6
CONTINUOUS
10
0.324688
20
0.59746
11
0.324373
21
0.597645
0
LINE
8
BLACK
6
CONTINUOUS
10
0.324373
20
0.597645
11
0.31548
21
0.602031
0
LINE
8
BLACK
6
CONTINUOUS
10
0.31548
20
0.602031
11
0.315142
21
0.602167
0
LINE
8
BLACK
6
CONTINUOUS
10
0.315142
20
0.602167
11
0.305698
21
0.60519
0
LINE
8
BLACK
6
CONTINUOUS
10
0.305698
20
0.60519
11
0.305344
21
0.605275
0
LINE
8
BLACK
6
CONTINUOUS
10
0.305344
20
0.605275
11
0.295556
21
0.606869
0
LINE
8
BLACK
6
CONTINUOUS
10
0.295556
20
0.606869
11
0.295194
21
0.606901
0
LINE
8
BLACK
6
CONTINUOUS
10
0.295194
20
0.606901
11
0.285279
21
0.607031
0
LINE
8
BLACK
6
CONTINUOUS
10
0.285279
20
0.607031
11
0.284915
21
0.607009
0
LINE
8
BLACK
6
CONTINUOUS
10
0.284915
20
0.607009
11
0.275089
21
0.605671
0
LINE
8
BLACK
6
CONTINUOUS
10
0.275089
20
0.605671
11
0.274733
21
0.605596
0
LINE
8
BLACK
6
CONTINUOUS
10
0.274733
20
0.605596
11
0.265213
21
0.602821
0
LINE
8
BLACK
6
CONTINUOUS
10
0.265213
20
0.602821
11
0.264872
21
0.602693
0
LINE
8
BLACK
6
CONTINUOUS
10
0.264872
20
0.602693
11
0.255866
21
0.598542
0
LINE
8
BLACK
6
CONTINUOUS
10
0.255866
20
0.598542
11
0.255548
21
0.598365
0
LINE
8
BLACK
6
CONTINUOUS
10
0.255548
20
0.598365
11
0.248505
21
0.593747
0
LINE
8
BLACK
6
CONTINUOUS
10
0.248505
20
0.593747
11
0.248165
21
0.593348
0
LINE
8
BLACK
6
CONTINUOUS
10
0.248165
20
0.593348
11
0.248331
21
0.592992
0
LINE
8
BLACK
6
CONTINUOUS
10
0.248331
20
0.592992
11
0.26248
21
0.578843
0
LINE
8
BLACK
6
CONTINUOUS
10
0.26248
20
0.578843
11
0.264724
21
0.580415
0
LINE
8
BLACK
6
CONTINUOUS
10
0.264724
20
0.580415
11
0.272499
21
0.58404
0
LINE
8
BLACK
6
CONTINUOUS
10
0.272499
20
0.58404
11
0.280785
21
0.58626
0
LINE
8
BLACK
6
CONTINUOUS
10
0.280785
20
0.58626
11
0.289331
21
0.587008
0
LINE
8
BLACK
6
CONTINUOUS
10
0.289331
20
0.587008
11
0.297876
21
0.58626
0
LINE
8
BLACK
6
CONTINUOUS
10
0.297876
20
0.58626
11
0.306162
21
0.58404
0
LINE
8
BLACK
6
CONTINUOUS
10
0.306162
20
0.58404
11
0.313937
21
0.580415
0
LINE
8
BLACK
6
CONTINUOUS
10
0.313937
20
0.580415
11
0.316181
21
0.578843
0
LINE
8
BLACK
6
CONTINUOUS
10
0.316181
20
0.578843
11
0.330182
21
0.592844
0
LINE
8
BLACK
6
CONTINUOUS
10
0.330182
20
0.592844
11
0.330418
21
0.593276
0
LINE
8
BLACK
6
CONTINUOUS
10
0.330418
20
0.593276
11
0.330362
21
0.593348
0
LINE
8
BLACK
6
CONTINUOUS
10
0.330362
20
0.593348
11
0.330067
21
0.593728
0
LINE
8
BLACK
6
CONTINUOUS
10
0.330067
20
0.593728
11
0.324688
21
0.59746
0
LINE
8
BLACK
6
CONTINUOUS
10
2.12971
20
0.604906
11
2.13087
21
0.60502
0
LINE
8
BLACK
6
CONTINUOUS
10
2.13087
20
0.60502
11
2.13134
21
0.605113
0
LINE
8
BLACK
6
CONTINUOUS
10
2.13134
20
0.605113
11
2.1387
21
0.607333
0
LINE
8
BLACK
6
CONTINUOUS
10
2.1387
20
0.607333
11
2.13914
21
0.607516
0
LINE
8
BLACK
6
CONTINUOUS
10
2.13914
20
0.607516
11
2.14592
21
0.611121
0
LINE
8
BLACK
6
CONTINUOUS
10
2.14592
20
0.611121
11
2.14632
21
0.611386
0
LINE
8
BLACK
6
CONTINUOUS
10
2.14632
20
0.611386
11
2.15227
21
0.61624
0
LINE
8
BLACK
6
CONTINUOUS
10
2.15227
20
0.61624
11
2.15261
21
0.616577
0
LINE
8
BLACK
6
CONTINUOUS
10
2.15261
20
0.616577
11
2.15751
21
0.622495
0
LINE
8
BLACK
6
CONTINUOUS
10
2.15751
20
0.622495
11
2.15777
21
0.622891
0
LINE
8
BLACK
6
CONTINUOUS
10
2.15777
20
0.622891
11
2.16143
21
0.629647
0
LINE
8
BLACK
6
CONTINUOUS
10
2.16143
20
0.629647
11
2.16161
21
0.630089
0
LINE
8
BLACK
6
CONTINUOUS
10
2.16161
20
0.630089
11
2.16325
21
0.635388
0
LINE
8
BLACK
6
CONTINUOUS
10
2.16325
20
0.635388
11
2.16326
21
0.635912
0
LINE
8
BLACK
6
CONTINUOUS
10
2.16326
20
0.635912
11
2.16302
21
0.636024
0
LINE
8
BLACK
6
CONTINUOUS
10
2.16302
20
0.636024
11
2.14218
21
0.636024
0
LINE
8
BLACK
6
CONTINUOUS
10
2.14218
20
0.636024
11
2.13878
21
0.63124
0
LINE
8
BLACK
6
CONTINUOUS
10
2.13878
20
0.63124
11
2.13421
21
0.627541
0
LINE
8
BLACK
6
CONTINUOUS
10
2.13421
20
0.627541
11
2.12909
21
0.625328
0
LINE
8
BLACK
6
CONTINUOUS
10
2.12909
20
0.625328
11
2.12909
21
0.605521
0
LINE
8
BLACK
6
CONTINUOUS
10
2.12909
20
0.605521
11
2.12925
21
0.604982
0
LINE
8
BLACK
6
CONTINUOUS
10
2.12925
20
0.604982
11
2.12971
21
0.604906
0
LINE
8
BLACK
6
CONTINUOUS
10
2.10631
20
0.626281
11
2.10132
21
0.629379
0
LINE
8
BLACK
6
CONTINUOUS
10
2.10132
20
0.629379
11
2.09734
21
0.633705
0
LINE
8
BLACK
6
CONTINUOUS
10
2.09734
20
0.633705
11
2.09616
21
0.636024
0
LINE
8
BLACK
6
CONTINUOUS
10
2.09616
20
0.636024
11
2.07536
21
0.636024
0
LINE
8
BLACK
6
CONTINUOUS
10
2.07536
20
0.636024
11
2.07486
21
0.635876
0
LINE
8
BLACK
6
CONTINUOUS
10
2.07486
20
0.635876
11
2.07482
21
0.635603
0
LINE
8
BLACK
6
CONTINUOUS
10
2.07482
20
0.635603
11
2.07628
21
0.63063
0
LINE
8
BLACK
6
CONTINUOUS
10
2.07628
20
0.63063
11
2.07646
21
0.630185
0
LINE
8
BLACK
6
CONTINUOUS
10
2.07646
20
0.630185
11
2.08002
21
0.623379
0
LINE
8
BLACK
6
CONTINUOUS
10
2.08002
20
0.623379
11
2.08028
21
0.622979
0
LINE
8
BLACK
6
CONTINUOUS
10
2.08028
20
0.622979
11
2.08509
21
0.616994
0
LINE
8
BLACK
6
CONTINUOUS
10
2.08509
20
0.616994
11
2.08543
21
0.616651
0
LINE
8
BLACK
6
CONTINUOUS
10
2.08543
20
0.616651
11
2.09131
21
0.611715
0
LINE
8
BLACK
6
CONTINUOUS
10
2.09131
20
0.611715
11
2.0917
21
0.611445
0
LINE
8
BLACK
6
CONTINUOUS
10
2.0917
20
0.611445
11
2.09843
21
0.607745
0
LINE
8
BLACK
6
CONTINUOUS
10
2.09843
20
0.607745
11
2.09887
21
0.607556
0
LINE
8
BLACK
6
CONTINUOUS
10
2.09887
20
0.607556
11
2.10619
21
0.605234
0
LINE
8
BLACK
6
CONTINUOUS
10
2.10619
20
0.605234
11
2.10666
21
0.605134
0
LINE
8
BLACK
6
CONTINUOUS
10
2.10666
20
0.605134
11
2.10835
21
0.604946
0
LINE
8
BLACK
6
CONTINUOUS
10
2.10835
20
0.604946
11
2.10889
21
0.605041
0
LINE
8
BLACK
6
CONTINUOUS
10
2.10889
20
0.605041
11
2.10902
21
0.605506
0
LINE
8
BLACK
6
CONTINUOUS
10
2.10902
20
0.605506
11
2.10902
21
0.625496
0
LINE
8
BLACK
6
CONTINUOUS
10
2.10902
20
0.625496
11
2.10631
21
0.626281
0
LINE
8
BLACK
6
CONTINUOUS
10
0.375012
20
0.626281
11
0.370016
21
0.629379
0
LINE
8
BLACK
6
CONTINUOUS
10
0.370016
20
0.629379
11
0.366038
21
0.633705
0
LINE
8
BLACK
6
CONTINUOUS
10
0.366038
20
0.633705
11
0.364857
21
0.636024
0
LINE
8
BLACK
6
CONTINUOUS
10
0.364857
20
0.636024
11
0.344059
21
0.636024
0
LINE
8
BLACK
6
CONTINUOUS
10
0.344059
20
0.636024
11
0.343556
21
0.635876
0
LINE
8
BLACK
6
CONTINUOUS
10
0.343556
20
0.635876
11
0.343517
21
0.635603
0
LINE
8
BLACK
6
CONTINUOUS
10
0.343517
20
0.635603
11
0.34498
21
0.63063
0
LINE
8
BLACK
6
CONTINUOUS
10
0.34498
20
0.63063
11
0.34516
21
0.630185
0
LINE
8
BLACK
6
CONTINUOUS
10
0.34516
20
0.630185
11
0.348718
21
0.623379
0
LINE
8
BLACK
6
CONTINUOUS
10
0.348718
20
0.623379
11
0.34898
21
0.622979
0
LINE
8
BLACK
6
CONTINUOUS
10
0.34898
20
0.622979
11
0.353792
21
0.616994
0
LINE
8
BLACK
6
CONTINUOUS
10
0.353792
20
0.616994
11
0.354127
21
0.616651
0
LINE
8
BLACK
6
CONTINUOUS
10
0.354127
20
0.616651
11
0.36001
21
0.611715
0
LINE
8
BLACK
6
CONTINUOUS
10
0.36001
20
0.611715
11
0.360405
21
0.611445
0
LINE
8
BLACK
6
CONTINUOUS
10
0.360405
20
0.611445
11
0.367135
21
0.607745
0
LINE
8
BLACK
6
CONTINUOUS
10
0.367135
20
0.607745
11
0.367576
21
0.607556
0
LINE
8
BLACK
6
CONTINUOUS
10
0.367576
20
0.607556
11
0.374895
21
0.605234
0
LINE
8
BLACK
6
CONTINUOUS
10
0.374895
20
0.605234
11
0.375364
21
0.605134
0
LINE
8
BLACK
6
CONTINUOUS
10
0.375364
20
0.605134
11
0.377046
21
0.604946
0
LINE
8
BLACK
6
CONTINUOUS
10
0.377046
20
0.604946
11
0.377588
21
0.605041
0
LINE
8
BLACK
6
CONTINUOUS
10
0.377588
20
0.605041
11
0.377717
21
0.605506
0
LINE
8
BLACK
6
CONTINUOUS
10
0.377717
20
0.605506
11
0.377717
21
0.625496
0
LINE
8
BLACK
6
CONTINUOUS
10
0.377717
20
0.625496
11
0.375012
21
0.626281
0
LINE
8
BLACK
6
CONTINUOUS
10
0.39841
20
0.604906
11
0.399575
21
0.60502
0
LINE
8
BLACK
6
CONTINUOUS
10
0.399575
20
0.60502
11
0.400045
21
0.605113
0
LINE
8
BLACK
6
CONTINUOUS
10
0.400045
20
0.605113
11
0.407397
21
0.607333
0
LINE
8
BLACK
6
CONTINUOUS
10
0.407397
20
0.607333
11
0.40784
21
0.607516
0
LINE
8
BLACK
6
CONTINUOUS
10
0.40784
20
0.607516
11
0.414621
21
0.611121
0
LINE
8
BLACK
6
CONTINUOUS
10
0.414621
20
0.611121
11
0.41502
21
0.611386
0
LINE
8
BLACK
6
CONTINUOUS
10
0.41502
20
0.611386
11
0.420971
21
0.61624
0
LINE
8
BLACK
6
CONTINUOUS
10
0.420971
20
0.61624
11
0.421311
21
0.616577
0
LINE
8
BLACK
6
CONTINUOUS
10
0.421311
20
0.616577
11
0.426206
21
0.622495
0
LINE
8
BLACK
6
CONTINUOUS
10
0.426206
20
0.622495
11
0.426474
21
0.622891
0
LINE
8
BLACK
6
CONTINUOUS
10
0.426474
20
0.622891
11
0.430127
21
0.629647
0
LINE
8
BLACK
6
CONTINUOUS
10
0.430127
20
0.629647
11
0.430312
21
0.630089
0
LINE
8
BLACK
6
CONTINUOUS
10
0.430312
20
0.630089
11
0.431953
21
0.635388
0
LINE
8
BLACK
6
CONTINUOUS
10
0.431953
20
0.635388
11
0.431953
21
0.63543
0
LINE
8
BLACK
6
CONTINUOUS
10
0.431953
20
0.63543
11
0.431953
21
0.63543
0
LINE
8
BLACK
6
CONTINUOUS
10
0.431953
20
0.63543
11
0.431956
21
0.635603
0
LINE
8
BLACK
6
CONTINUOUS
10
0.431956
20
0.635603
11
0.43196
21
0.635912
0
LINE
8
BLACK
6
CONTINUOUS
10
0.43196
20
0.635912
11
0.431725
21
0.636024
0
LINE
8
BLACK
6
CONTINUOUS
10
0.431725
20
0.636024
11
0.410877
21
0.636024
0
LINE
8
BLACK
6
CONTINUOUS
10
0.410877
20
0.636024
11
0.407478
21
0.63124
0
LINE
8
BLACK
6
CONTINUOUS
10
0.407478
20
0.63124
11
0.40291
21
0.627541
0
LINE
8
BLACK
6
CONTINUOUS
10
0.40291
20
0.627541
11
0.397795
21
0.625328
0
LINE
8
BLACK
6
CONTINUOUS
10
0.397795
20
0.625328
11
0.397795
21
0.605521
0
LINE
8
BLACK
6
CONTINUOUS
10
0.397795
20
0.605521
11
0.397954
21
0.604982
0
LINE
8
BLACK
6
CONTINUOUS
10
0.397954
20
0.604982
11
0.39841
21
0.604906
0
LINE
8
BLACK
6
CONTINUOUS
10
2.12971
20
0.754906
11
2.13087
21
0.75502
0
LINE
8
BLACK
6
CONTINUOUS
10
2.13087
20
0.75502
11
2.13134
21
0.755113
0
LINE
8
BLACK
6
CONTINUOUS
10
2.13134
20
0.755113
11
2.1387
21
0.757333
0
LINE
8
BLACK
6
CONTINUOUS
10
2.1387
20
0.757333
11
2.13914
21
0.757516
0
LINE
8
BLACK
6
CONTINUOUS
10
2.13914
20
0.757516
11
2.14592
21
0.761121
0
LINE
8
BLACK
6
CONTINUOUS
10
2.14592
20
0.761121
11
2.14632
21
0.761386
0
LINE
8
BLACK
6
CONTINUOUS
10
2.14632
20
0.761386
11
2.15227
21
0.76624
0
LINE
8
BLACK
6
CONTINUOUS
10
2.15227
20
0.76624
11
2.15261
21
0.766577
0
LINE
8
BLACK
6
CONTINUOUS
10
2.15261
20
0.766577
11
2.15751
21
0.772495
0
LINE
8
BLACK
6
CONTINUOUS
10
2.15751
20
0.772495
11
2.15777
21
0.772891
0
LINE
8
BLACK
6
CONTINUOUS
10
2.15777
20
0.772891
11
2.16143
21
0.779647
0
LINE
8
BLACK
6
CONTINUOUS
10
2.16143
20
0.779647
11
2.16161
21
0.780089
0
LINE
8
BLACK
6
CONTINUOUS
10
2.16161
20
0.780089
11
2.16325
21
0.785388
0
LINE
8
BLACK
6
CONTINUOUS
10
2.16325
20
0.785388
11
2.16326
21
0.785912
0
LINE
8
BLACK
6
CONTINUOUS
10
2.16326
20
0.785912
11
2.16302
21
0.786024
0
LINE
8
BLACK
6
CONTINUOUS
10
2.16302
20
0.786024
11
2.14218
21
0.786024
0
LINE
8
BLACK
6
CONTINUOUS
10
2.14218
20
0.786024
11
2.13878
21
0.78124
0
LINE
8
BLACK
6
CONTINUOUS
10
2.13878
20
0.78124
11
2.13421
21
0.777541
0
LINE
8
BLACK
6
CONTINUOUS
10
2.13421
20
0.777541
11
2.12909
21
0.775328
0
LINE
8
BLACK
6
CONTINUOUS
10
2.12909
20
0.775328
11
2.12909
21
0.755521
0
LINE
8
BLACK
6
CONTINUOUS
10
2.12909
20
0.755521
11
2.12925
21
0.754982
0
LINE
8
BLACK
6
CONTINUOUS
10
2.12925
20
0.754982
11
2.12971
21
0.754906
0
LINE
8
BLACK
6
CONTINUOUS
10
2.12971
20
0.904906
11
2.13087
21
0.90502
0
LINE
8
BLACK
6
CONTINUOUS
10
2.13087
20
0.90502
11
2.13134
21
0.905113
0
LINE
8
BLACK
6
CONTINUOUS
10
2.13134
20
0.905113
11
2.1387
21
0.907333
0
LINE
8
BLACK
6
CONTINUOUS
10
2.1387
20
0.907333
11
2.13914
21
0.907516
0
LINE
8
BLACK
6
CONTINUOUS
10
2.13914
20
0.907516
11
2.14592
21
0.911121
0
LINE
8
BLACK
6
CONTINUOUS
10
2.14592
20
0.911121
11
2.14632
21
0.911386
0
LINE
8
BLACK
6
CONTINUOUS
10
2.14632
20
0.911386
11
2.15227
21
0.91624
0
LINE
8
BLACK
6
CONTINUOUS
10
2.15227
20
0.91624
11
2.15261
21
0.916577
0
LINE
8
BLACK
6
CONTINUOUS
10
2.15261
20
0.916577
11
2.15751
21
0.922495
0
LINE
8
BLACK
6
CONTINUOUS
10
2.15751
20
0.922495
11
2.15777
21
0.922891
0
LINE
8
BLACK
6
CONTINUOUS
10
2.15777
20
0.922891
11
2.16143
21
0.929647
0
LINE
8
BLACK
6
CONTINUOUS
10
2.16143
20
0.929647
11
2.16161
21
0.930089
0
LINE
8
BLACK
6
CONTINUOUS
10
2.16161
20
0.930089
11
2.16325
21
0.935388
0
LINE
8
BLACK
6
CONTINUOUS
10
2.16325
20
0.935388
11
2.16326
21
0.935912
0
LINE
8
BLACK
6
CONTINUOUS
10
2.16326
20
0.935912
11
2.16302
21
0.936024
0
LINE
8
BLACK
6
CONTINUOUS
10
2.16302
20
0.936024
11
2.14218
21
0.936024
0
LINE
8
BLACK
6
CONTINUOUS
10
2.14218
20
0.936024
11
2.13878
21
0.93124
0
LINE
8
BLACK
6
CONTINUOUS
10
2.13878
20
0.93124
11
2.13421
21
0.927541
0
LINE
8
BLACK
6
CONTINUOUS
10
2.13421
20
0.927541
11
2.12909
21
0.925328
0
LINE
8
BLACK
6
CONTINUOUS
10
2.12909
20
0.925328
11
2.12909
21
0.905521
0
LINE
8
BLACK
6
CONTINUOUS
10
2.12909
20
0.905521
11
2.12925
21
0.904982
0
LINE
8
BLACK
6
CONTINUOUS
10
2.12925
20
0.904982
11
2.12971
21
0.904906
0
LINE
8
BLACK
6
CONTINUOUS
10
0.39841
20
0.754906
11
0.399575
21
0.75502
0
LINE
8
BLACK
6
CONTINUOUS
10
0.399575
20
0.75502
11
0.400045
21
0.755113
0
LINE
8
BLACK
6
CONTINUOUS
10
0.400045
20
0.755113
11
0.407397
21
0.757333
0
LINE
8
BLACK
6
CONTINUOUS
10
0.407397
20
0.757333
11
0.40784
21
0.757516
0
LINE
8
BLACK
6
CONTINUOUS
10
0.40784
20
0.757516
11
0.414621
21
0.761121
0
LINE
8
BLACK
6
CONTINUOUS
10
0.414621
20
0.761121
11
0.41502
21
0.761386
0
LINE
8
BLACK
6
CONTINUOUS
10
0.41502
20
0.761386
11
0.420971
21
0.76624
0
LINE
8
BLACK
6
CONTINUOUS
10
0.420971
20
0.76624
11
0.421311
21
0.766577
0
LINE
8
BLACK
6
CONTINUOUS
10
0.421311
20
0.766577
11
0.426206
21
0.772495
0
LINE
8
BLACK
6
CONTINUOUS
10
0.426206
20
0.772495
11
0.426474
21
0.772891
0
LINE
8
BLACK
6
CONTINUOUS
10
0.426474
20
0.772891
11
0.430127
21
0.779647
0
LINE
8
BLACK
6
CONTINUOUS
10
0.430127
20
0.779647
11
0.430312
21
0.780089
0
LINE
8
BLACK
6
CONTINUOUS
10
0.430312
20
0.780089
11
0.431953
21
0.785388
0
LINE
8
BLACK
6
CONTINUOUS
10
0.431953
20
0.785388
11
0.43196
21
0.785912
0
LINE
8
BLACK
6
CONTINUOUS
10
0.43196
20
0.785912
11
0.431725
21
0.786024
0
LINE
8
BLACK
6
CONTINUOUS
10
0.431725
20
0.786024
11
0.410877
21
0.786024
0
LINE
8
BLACK
6
CONTINUOUS
10
0.410877
20
0.786024
11
0.407478
21
0.78124
0
LINE
8
BLACK
6
CONTINUOUS
10
0.407478
20
0.78124
11
0.40291
21
0.777541
0
LINE
8
BLACK
6
CONTINUOUS
10
0.40291
20
0.777541
11
0.397795
21
0.775328
0
LINE
8
BLACK
6
CONTINUOUS
10
0.397795
20
0.775328
11
0.397795
21
0.755521
0
LINE
8
BLACK
6
CONTINUOUS
10
0.397795
20
0.755521
11
0.397954
21
0.754982
0
LINE
8
BLACK
6
CONTINUOUS
10
0.397954
20
0.754982
11
0.39841
21
0.754906
0
LINE
8
BLACK
6
CONTINUOUS
10
0.283737
20
0.687993
11
0.285907
21
0.680622
0
LINE
8
BLACK
6
CONTINUOUS
10
0.285907
20
0.680622
11
0.286086
21
0.680178
0
LINE
8
BLACK
6
CONTINUOUS
10
0.286086
20
0.680178
11
0.289646
21
0.673369
0
LINE
8
BLACK
6
CONTINUOUS
10
0.289646
20
0.673369
11
0.289908
21
0.672968
0
LINE
8
BLACK
6
CONTINUOUS
10
0.289908
20
0.672968
11
0.294723
21
0.66698
0
LINE
8
BLACK
6
CONTINUOUS
10
0.294723
20
0.66698
11
0.295058
21
0.666638
0
LINE
8
BLACK
6
CONTINUOUS
10
0.295058
20
0.666638
11
0.300944
21
0.661699
0
LINE
8
BLACK
6
CONTINUOUS
10
0.300944
20
0.661699
11
0.301339
21
0.661428
0
LINE
8
BLACK
6
CONTINUOUS
10
0.301339
20
0.661428
11
0.308072
21
0.657727
0
LINE
8
BLACK
6
CONTINUOUS
10
0.308072
20
0.657727
11
0.308512
21
0.657538
0
LINE
8
BLACK
6
CONTINUOUS
10
0.308512
20
0.657538
11
0.315836
21
0.655215
0
LINE
8
BLACK
6
CONTINUOUS
10
0.315836
20
0.655215
11
0.316305
21
0.655115
0
LINE
8
BLACK
6
CONTINUOUS
10
0.316305
20
0.655115
11
0.322284
21
0.654444
0
LINE
8
BLACK
6
CONTINUOUS
10
0.322284
20
0.654444
11
0.322557
21
0.654429
0
LINE
8
BLACK
6
CONTINUOUS
10
0.322557
20
0.654429
11
0.334572
21
0.654429
0
LINE
8
BLACK
6
CONTINUOUS
10
0.334572
20
0.654429
11
0.334812
21
0.654441
0
LINE
8
BLACK
6
CONTINUOUS
10
0.334812
20
0.654441
11
0.340524
21
0.655001
0
LINE
8
BLACK
6
CONTINUOUS
10
0.340524
20
0.655001
11
0.340994
21
0.655094
0
LINE
8
BLACK
6
CONTINUOUS
10
0.340994
20
0.655094
11
0.343627
21
0.655889
0
LINE
8
BLACK
6
CONTINUOUS
10
0.343627
20
0.655889
11
0.345072
21
0.656102
0
LINE
8
BLACK
6
CONTINUOUS
10
0.345072
20
0.656102
11
0.364635
21
0.656102
0
LINE
8
BLACK
6
CONTINUOUS
10
0.364635
20
0.656102
11
0.368034
21
0.660886
0
LINE
8
BLACK
6
CONTINUOUS
10
0.368034
20
0.660886
11
0.372602
21
0.664585
0
LINE
8
BLACK
6
CONTINUOUS
10
0.372602
20
0.664585
11
0.377717
21
0.666798
0
LINE
8
BLACK
6
CONTINUOUS
10
0.377717
20
0.666798
11
0.377717
21
0.686605
0
LINE
8
BLACK
6
CONTINUOUS
10
0.377717
20
0.686605
11
0.377545
21
0.687188
0
LINE
8
BLACK
6
CONTINUOUS
10
0.377545
20
0.687188
11
0.377316
21
0.687387
0
LINE
8
BLACK
6
CONTINUOUS
10
0.377316
20
0.687387
11
0.376451
21
0.687714
0
LINE
8
BLACK
6
CONTINUOUS
10
0.376451
20
0.687714
11
0.375029
21
0.68905
0
LINE
8
BLACK
6
CONTINUOUS
10
0.375029
20
0.68905
11
0.374227
21
0.690829
0
LINE
8
BLACK
6
CONTINUOUS
10
0.374227
20
0.690829
11
0.374126
21
0.692478
0
LINE
8
BLACK
6
CONTINUOUS
10
0.374126
20
0.692478
11
0.374447
21
0.695531
0
LINE
8
BLACK
6
CONTINUOUS
10
0.374447
20
0.695531
11
0.37445
21
0.69594
0
LINE
8
BLACK
6
CONTINUOUS
10
0.37445
20
0.69594
11
0.37445
21
0.695941
0
LINE
8
BLACK
6
CONTINUOUS
10
0.37445
20
0.695941
11
0.37445
21
0.696011
0
LINE
8
BLACK
6
CONTINUOUS
10
0.37445
20
0.696011
11
0.374441
21
0.696115
0
LINE
8
BLACK
6
CONTINUOUS
10
0.374441
20
0.696115
11
0.373754
21
0.703663
0
LINE
8
BLACK
6
CONTINUOUS
10
0.373754
20
0.703663
11
0.373664
21
0.704133
0
LINE
8
BLACK
6
CONTINUOUS
10
0.373664
20
0.704133
11
0.371495
21
0.711504
0
LINE
8
BLACK
6
CONTINUOUS
10
0.371495
20
0.711504
11
0.371315
21
0.711948
0
LINE
8
BLACK
6
CONTINUOUS
10
0.371315
20
0.711948
11
0.367734
21
0.718799
0
LINE
8
BLACK
6
CONTINUOUS
10
0.367734
20
0.718799
11
0.367185
21
0.720671
0
LINE
8
BLACK
6
CONTINUOUS
10
0.367185
20
0.720671
11
0.367394
21
0.72261
0
LINE
8
BLACK
6
CONTINUOUS
10
0.367394
20
0.72261
11
0.367767
21
0.723493
0
LINE
8
BLACK
6
CONTINUOUS
10
0.367767
20
0.723493
11
0.37109
21
0.72964
0
LINE
8
BLACK
6
CONTINUOUS
10
0.37109
20
0.72964
11
0.371275
21
0.730081
0
LINE
8
BLACK
6
CONTINUOUS
10
0.371275
20
0.730081
11
0.373547
21
0.737421
0
LINE
8
BLACK
6
CONTINUOUS
10
0.373547
20
0.737421
11
0.373644
21
0.73789
0
LINE
8
BLACK
6
CONTINUOUS
10
0.373644
20
0.73789
11
0.374447
21
0.745531
0
LINE
8
BLACK
6
CONTINUOUS
10
0.374447
20
0.745531
11
0.37445
21
0.746011
0
LINE
8
BLACK
6
CONTINUOUS
10
0.37445
20
0.746011
11
0.374108
21
0.749775
0
LINE
8
BLACK
6
CONTINUOUS
10
0.374108
20
0.749775
11
0.374313
21
0.751715
0
LINE
8
BLACK
6
CONTINUOUS
10
0.374313
20
0.751715
11
0.375246
21
0.753428
0
LINE
8
BLACK
6
CONTINUOUS
10
0.375246
20
0.753428
11
0.376763
21
0.754655
0
LINE
8
BLACK
6
CONTINUOUS
10
0.376763
20
0.754655
11
0.377481
21
0.7549
0
LINE
8
BLACK
6
CONTINUOUS
10
0.377481
20
0.7549
11
0.377572
21
0.754984
0
LINE
8
BLACK
6
CONTINUOUS
10
0.377572
20
0.754984
11
0.377717
21
0.755506
0
LINE
8
BLACK
6
CONTINUOUS
10
0.377717
20
0.755506
11
0.377717
21
0.775496
0
LINE
8
BLACK
6
CONTINUOUS
10
0.377717
20
0.775496
11
0.375012
21
0.776281
0
LINE
8
BLACK
6
CONTINUOUS
10
0.375012
20
0.776281
11
0.370016
21
0.779379
0
LINE
8
BLACK
6
CONTINUOUS
10
0.370016
20
0.779379
11
0.366038
21
0.783705
0
LINE
8
BLACK
6
CONTINUOUS
10
0.366038
20
0.783705
11
0.364857
21
0.786024
0
LINE
8
BLACK
6
CONTINUOUS
10
0.364857
20
0.786024
11
0.345138
21
0.786024
0
LINE
8
BLACK
6
CONTINUOUS
10
0.345138
20
0.786024
11
0.343626
21
0.786258
0
LINE
8
BLACK
6
CONTINUOUS
10
0.343626
20
0.786258
11
0.341565
21
0.786911
0
LINE
8
BLACK
6
CONTINUOUS
10
0.341565
20
0.786911
11
0.341097
21
0.787011
0
LINE
8
BLACK
6
CONTINUOUS
10
0.341097
20
0.787011
11
0.335118
21
0.787682
0
LINE
8
BLACK
6
CONTINUOUS
10
0.335118
20
0.787682
11
0.334844
21
0.787697
0
LINE
8
BLACK
6
CONTINUOUS
10
0.334844
20
0.787697
11
0.32283
21
0.787697
0
LINE
8
BLACK
6
CONTINUOUS
10
0.32283
20
0.787697
11
0.322589
21
0.787685
0
LINE
8
BLACK
6
CONTINUOUS
10
0.322589
20
0.787685
11
0.316877
21
0.787125
0
LINE
8
BLACK
6
CONTINUOUS
10
0.316877
20
0.787125
11
0.316408
21
0.787032
0
LINE
8
BLACK
6
CONTINUOUS
10
0.316408
20
0.787032
11
0.309052
21
0.784811
0
LINE
8
BLACK
6
CONTINUOUS
10
0.309052
20
0.784811
11
0.308609
21
0.784629
0
LINE
8
BLACK
6
CONTINUOUS
10
0.308609
20
0.784629
11
0.301825
21
0.781021
0
LINE
8
BLACK
6
CONTINUOUS
10
0.301825
20
0.781021
11
0.301426
21
0.780757
0
LINE
8
BLACK
6
CONTINUOUS
10
0.301426
20
0.780757
11
0.295472
21
0.7759
0
LINE
8
BLACK
6
CONTINUOUS
10
0.295472
20
0.7759
11
0.295132
21
0.775563
0
LINE
8
BLACK
6
CONTINUOUS
10
0.295132
20
0.775563
11
0.290234
21
0.769642
0
LINE
8
BLACK
6
CONTINUOUS
10
0.290234
20
0.769642
11
0.289966
21
0.769245
0
LINE
8
BLACK
6
CONTINUOUS
10
0.289966
20
0.769245
11
0.286312
21
0.762487
0
LINE
8
BLACK
6
CONTINUOUS
10
0.286312
20
0.762487
11
0.286126
21
0.762045
0
LINE
8
BLACK
6
CONTINUOUS
10
0.286126
20
0.762045
11
0.283854
21
0.754705
0
LINE
8
BLACK
6
CONTINUOUS
10
0.283854
20
0.754705
11
0.283758
21
0.754236
0
LINE
8
BLACK
6
CONTINUOUS
10
0.283758
20
0.754236
11
0.282955
21
0.746595
0
LINE
8
BLACK
6
CONTINUOUS
10
0.282955
20
0.746595
11
0.282951
21
0.746115
0
LINE
8
BLACK
6
CONTINUOUS
10
0.282951
20
0.746115
11
0.283648
21
0.738463
0
LINE
8
BLACK
6
CONTINUOUS
10
0.283648
20
0.738463
11
0.283737
21
0.737993
0
LINE
8
BLACK
6
CONTINUOUS
10
0.283737
20
0.737993
11
0.285907
21
0.730622
0
LINE
8
BLACK
6
CONTINUOUS
10
0.285907
20
0.730622
11
0.286086
21
0.730178
0
LINE
8
BLACK
6
CONTINUOUS
10
0.286086
20
0.730178
11
0.289668
21
0.723327
0
LINE
8
BLACK
6
CONTINUOUS
10
0.289668
20
0.723327
11
0.290217
21
0.721455
0
LINE
8
BLACK
6
CONTINUOUS
10
0.290217
20
0.721455
11
0.290008
21
0.719516
0
LINE
8
BLACK
6
CONTINUOUS
10
0.290008
20
0.719516
11
0.289635
21
0.718633
0
LINE
8
BLACK
6
CONTINUOUS
10
0.289635
20
0.718633
11
0.286312
21
0.712486
0
LINE
8
BLACK
6
CONTINUOUS
10
0.286312
20
0.712486
11
0.286126
21
0.712045
0
LINE
8
BLACK
6
CONTINUOUS
10
0.286126
20
0.712045
11
0.283854
21
0.704705
0
LINE
8
BLACK
6
CONTINUOUS
10
0.283854
20
0.704705
11
0.283758
21
0.704236
0
LINE
8
BLACK
6
CONTINUOUS
10
0.283758
20
0.704236
11
0.282955
21
0.696595
0
LINE
8
BLACK
6
CONTINUOUS
10
0.282955
20
0.696595
11
0.282951
21
0.696115
0
LINE
8
BLACK
6
CONTINUOUS
10
0.282951
20
0.696115
11
0.283648
21
0.688463
0
LINE
8
BLACK
6
CONTINUOUS
10
0.283648
20
0.688463
11
0.283737
21
0.687993
0
LINE
8
BLACK
6
CONTINUOUS
10
2.01504
20
0.687993
11
2.01721
21
0.680622
0
LINE
8
BLACK
6
CONTINUOUS
10
2.01721
20
0.680622
11
2.01739
21
0.680178
0
LINE
8
BLACK
6
CONTINUOUS
10
2.01739
20
0.680178
11
2.02095
21
0.673369
0
LINE
8
BLACK
6
CONTINUOUS
10
2.02095
20
0.673369
11
2.02121
21
0.672968
0
LINE
8
BLACK
6
CONTINUOUS
10
2.02121
20
0.672968
11
2.02602
21
0.66698
0
LINE
8
BLACK
6
CONTINUOUS
10
2.02602
20
0.66698
11
2.02636
21
0.666638
0
LINE
8
BLACK
6
CONTINUOUS
10
2.02636
20
0.666638
11
2.03224
21
0.661699
0
LINE
8
BLACK
6
CONTINUOUS
10
2.03224
20
0.661699
11
2.03264
21
0.661428
0
LINE
8
BLACK
6
CONTINUOUS
10
2.03264
20
0.661428
11
2.03937
21
0.657727
0
LINE
8
BLACK
6
CONTINUOUS
10
2.03937
20
0.657727
11
2.03981
21
0.657538
0
LINE
8
BLACK
6
CONTINUOUS
10
2.03981
20
0.657538
11
2.04714
21
0.655215
0
LINE
8
BLACK
6
CONTINUOUS
10
2.04714
20
0.655215
11
2.0476
21
0.655115
0
LINE
8
BLACK
6
CONTINUOUS
10
2.0476
20
0.655115
11
2.05358
21
0.654444
0
LINE
8
BLACK
6
CONTINUOUS
10
2.05358
20
0.654444
11
2.05386
21
0.654429
0
LINE
8
BLACK
6
CONTINUOUS
10
2.05386
20
0.654429
11
2.06587
21
0.654429
0
LINE
8
BLACK
6
CONTINUOUS
10
2.06587
20
0.654429
11
2.06611
21
0.654441
0
LINE
8
BLACK
6
CONTINUOUS
10
2.06611
20
0.654441
11
2.07182
21
0.655001
0
LINE
8
BLACK
6
CONTINUOUS
10
2.07182
20
0.655001
11
2.07229
21
0.655094
0
LINE
8
BLACK
6
CONTINUOUS
10
2.07229
20
0.655094
11
2.07493
21
0.655889
0
LINE
8
BLACK
6
CONTINUOUS
10
2.07493
20
0.655889
11
2.07637
21
0.656102
0
LINE
8
BLACK
6
CONTINUOUS
10
2.07637
20
0.656102
11
2.09593
21
0.656102
0
LINE
8
BLACK
6
CONTINUOUS
10
2.09593
20
0.656102
11
2.09933
21
0.660886
0
LINE
8
BLACK
6
CONTINUOUS
10
2.09933
20
0.660886
11
2.1039
21
0.664585
0
LINE
8
BLACK
6
CONTINUOUS
10
2.1039
20
0.664585
11
2.10902
21
0.666798
0
LINE
8
BLACK
6
CONTINUOUS
10
2.10902
20
0.666798
11
2.10902
21
0.686605
0
LINE
8
BLACK
6
CONTINUOUS
10
2.10902
20
0.686605
11
2.10884
21
0.687188
0
LINE
8
BLACK
6
CONTINUOUS
10
2.10884
20
0.687188
11
2.10861
21
0.687387
0
LINE
8
BLACK
6
CONTINUOUS
10
2.10861
20
0.687387
11
2.10775
21
0.687714
0
LINE
8
BLACK
6
CONTINUOUS
10
2.10775
20
0.687714
11
2.10633
21
0.68905
0
LINE
8
BLACK
6
CONTINUOUS
10
2.10633
20
0.68905
11
2.10553
21
0.690829
0
LINE
8
BLACK
6
CONTINUOUS
10
2.10553
20
0.690829
11
2.10543
21
0.692478
0
LINE
8
BLACK
6
CONTINUOUS
10
2.10543
20
0.692478
11
2.10575
21
0.695531
0
LINE
8
BLACK
6
CONTINUOUS
10
2.10575
20
0.695531
11
2.10575
21
0.696011
0
LINE
8
BLACK
6
CONTINUOUS
10
2.10575
20
0.696011
11
2.10505
21
0.703663
0
LINE
8
BLACK
6
CONTINUOUS
10
2.10505
20
0.703663
11
2.10496
21
0.704133
0
LINE
8
BLACK
6
CONTINUOUS
10
2.10496
20
0.704133
11
2.10279
21
0.711504
0
LINE
8
BLACK
6
CONTINUOUS
10
2.10279
20
0.711504
11
2.10261
21
0.711948
0
LINE
8
BLACK
6
CONTINUOUS
10
2.10261
20
0.711948
11
2.09903
21
0.718799
0
LINE
8
BLACK
6
CONTINUOUS
10
2.09903
20
0.718799
11
2.09848
21
0.720671
0
LINE
8
BLACK
6
CONTINUOUS
10
2.09848
20
0.720671
11
2.09869
21
0.72261
0
LINE
8
BLACK
6
CONTINUOUS
10
2.09869
20
0.72261
11
2.09907
21
0.723493
0
LINE
8
BLACK
6
CONTINUOUS
10
2.09907
20
0.723493
11
2.10239
21
0.72964
0
LINE
8
BLACK
6
CONTINUOUS
10
2.10239
20
0.72964
11
2.10257
21
0.730081
0
LINE
8
BLACK
6
CONTINUOUS
10
2.10257
20
0.730081
11
2.10485
21
0.737421
0
LINE
8
BLACK
6
CONTINUOUS
10
2.10485
20
0.737421
11
2.10494
21
0.73789
0
LINE
8
BLACK
6
CONTINUOUS
10
2.10494
20
0.73789
11
2.10575
21
0.745531
0
LINE
8
BLACK
6
CONTINUOUS
10
2.10575
20
0.745531
11
2.10575
21
0.746011
0
LINE
8
BLACK
6
CONTINUOUS
10
2.10575
20
0.746011
11
2.10541
21
0.749775
0
LINE
8
BLACK
6
CONTINUOUS
10
2.10541
20
0.749775
11
2.10561
21
0.751715
0
LINE
8
BLACK
6
CONTINUOUS
10
2.10561
20
0.751715
11
2.10654
21
0.753428
0
LINE
8
BLACK
6
CONTINUOUS
10
2.10654
20
0.753428
11
2.10806
21
0.754655
0
LINE
8
BLACK
6
CONTINUOUS
10
2.10806
20
0.754655
11
2.10878
21
0.7549
0
LINE
8
BLACK
6
CONTINUOUS
10
2.10878
20
0.7549
11
2.10887
21
0.754984
0
LINE
8
BLACK
6
CONTINUOUS
10
2.10887
20
0.754984
11
2.10902
21
0.755506
0
LINE
8
BLACK
6
CONTINUOUS
10
2.10902
20
0.755506
11
2.10902
21
0.775496
0
LINE
8
BLACK
6
CONTINUOUS
10
2.10902
20
0.775496
11
2.10631
21
0.776281
0
LINE
8
BLACK
6
CONTINUOUS
10
2.10631
20
0.776281
11
2.10132
21
0.779379
0
LINE
8
BLACK
6
CONTINUOUS
10
2.10132
20
0.779379
11
2.09734
21
0.783705
0
LINE
8
BLACK
6
CONTINUOUS
10
2.09734
20
0.783705
11
2.09616
21
0.786024
0
LINE
8
BLACK
6
CONTINUOUS
10
2.09616
20
0.786024
11
2.07644
21
0.786024
0
LINE
8
BLACK
6
CONTINUOUS
10
2.07644
20
0.786024
11
2.07493
21
0.786258
0
LINE
8
BLACK
6
CONTINUOUS
10
2.07493
20
0.786258
11
2.07286
21
0.786911
0
LINE
8
BLACK
6
CONTINUOUS
10
2.07286
20
0.786911
11
2.0724
21
0.787011
0
LINE
8
BLACK
6
CONTINUOUS
10
2.0724
20
0.787011
11
2.06642
21
0.787682
0
LINE
8
BLACK
6
CONTINUOUS
10
2.06642
20
0.787682
11
2.06614
21
0.787697
0
LINE
8
BLACK
6
CONTINUOUS
10
2.06614
20
0.787697
11
2.05413
21
0.787697
0
LINE
8
BLACK
6
CONTINUOUS
10
2.05413
20
0.787697
11
2.05389
21
0.787685
0
LINE
8
BLACK
6
CONTINUOUS
10
2.05389
20
0.787685
11
2.04818
21
0.787125
0
LINE
8
BLACK
6
CONTINUOUS
10
2.04818
20
0.787125
11
2.04771
21
0.787032
0
LINE
8
BLACK
6
CONTINUOUS
10
2.04771
20
0.787032
11
2.04035
21
0.784811
0
LINE
8
BLACK
6
CONTINUOUS
10
2.04035
20
0.784811
11
2.03991
21
0.784629
0
LINE
8
BLACK
6
CONTINUOUS
10
2.03991
20
0.784629
11
2.03312
21
0.781021
0
LINE
8
BLACK
6
CONTINUOUS
10
2.03312
20
0.781021
11
2.03273
21
0.780757
0
LINE
8
BLACK
6
CONTINUOUS
10
2.03273
20
0.780757
11
2.02677
21
0.7759
0
LINE
8
BLACK
6
CONTINUOUS
10
2.02677
20
0.7759
11
2.02643
21
0.775563
0
LINE
8
BLACK
6
CONTINUOUS
10
2.02643
20
0.775563
11
2.02153
21
0.769642
0
LINE
8
BLACK
6
CONTINUOUS
10
2.02153
20
0.769642
11
2.02127
21
0.769245
0
LINE
8
BLACK
6
CONTINUOUS
10
2.02127
20
0.769245
11
2.01761
21
0.762487
0
LINE
8
BLACK
6
CONTINUOUS
10
2.01761
20
0.762487
11
2.01743
21
0.762045
0
LINE
8
BLACK
6
CONTINUOUS
10
2.01743
20
0.762045
11
2.01515
21
0.754705
0
LINE
8
BLACK
6
CONTINUOUS
10
2.01515
20
0.754705
11
2.01506
21
0.754236
0
LINE
8
BLACK
6
CONTINUOUS
10
2.01506
20
0.754236
11
2.01425
21
0.746595
0
LINE
8
BLACK
6
CONTINUOUS
10
2.01425
20
0.746595
11
2.01425
21
0.746115
0
LINE
8
BLACK
6
CONTINUOUS
10
2.01425
20
0.746115
11
2.01495
21
0.738463
0
LINE
8
BLACK
6
CONTINUOUS
10
2.01495
20
0.738463
11
2.01504
21
0.737993
0
LINE
8
BLACK
6
CONTINUOUS
10
2.01504
20
0.737993
11
2.01721
21
0.730622
0
LINE
8
BLACK
6
CONTINUOUS
10
2.01721
20
0.730622
11
2.01739
21
0.730178
0
LINE
8
BLACK
6
CONTINUOUS
10
2.01739
20
0.730178
11
2.02097
21
0.723327
0
LINE
8
BLACK
6
CONTINUOUS
10
2.02097
20
0.723327
11
2.02152
21
0.721455
0
LINE
8
BLACK
6
CONTINUOUS
10
2.02152
20
0.721455
11
2.02131
21
0.719516
0
LINE
8
BLACK
6
CONTINUOUS
10
2.02131
20
0.719516
11
2.02093
21
0.718633
0
LINE
8
BLACK
6
CONTINUOUS
10
2.02093
20
0.718633
11
2.01761
21
0.712486
0
LINE
8
BLACK
6
CONTINUOUS
10
2.01761
20
0.712486
11
2.01743
21
0.712045
0
LINE
8
BLACK
6
CONTINUOUS
10
2.01743
20
0.712045
11
2.01515
21
0.704705
0
LINE
8
BLACK
6
CONTINUOUS
10
2.01515
20
0.704705
11
2.01506
21
0.704236
0
LINE
8
BLACK
6
CONTINUOUS
10
2.01506
20
0.704236
11
2.01425
21
0.696595
0
LINE
8
BLACK
6
CONTINUOUS
10
2.01425
20
0.696595
11
2.01425
21
0.696115
0
LINE
8
BLACK
6
CONTINUOUS
10
2.01425
20
0.696115
11
2.01495
21
0.688463
0
LINE
8
BLACK
6
CONTINUOUS
10
2.01495
20
0.688463
11
2.01504
21
0.687993
0
LINE
8
BLACK
6
CONTINUOUS
10
2.02309
20
0.984194
11
2.0234
21
0.984002
0
LINE
8
BLACK
6
CONTINUOUS
10
2.0234
20
0.984002
11
2.03218
21
0.979385
0
LINE
8
BLACK
6
CONTINUOUS
10
2.03218
20
0.979385
11
2.03251
21
0.979239
0
LINE
8
BLACK
6
CONTINUOUS
10
2.03251
20
0.979239
11
2.04187
21
0.97597
0
LINE
8
BLACK
6
CONTINUOUS
10
2.04187
20
0.97597
11
2.04223
21
0.975876
0
LINE
8
BLACK
6
CONTINUOUS
10
2.04223
20
0.975876
11
2.05197
21
0.974026
0
LINE
8
BLACK
6
CONTINUOUS
10
2.05197
20
0.974026
11
2.05233
21
0.973985
0
LINE
8
BLACK
6
CONTINUOUS
10
2.05233
20
0.973985
11
2.06224
21
0.973596
0
LINE
8
BLACK
6
CONTINUOUS
10
2.06224
20
0.973596
11
2.0626
21
0.973608
0
LINE
8
BLACK
6
CONTINUOUS
10
2.0626
20
0.973608
11
2.07246
21
0.974688
0
LINE
8
BLACK
6
CONTINUOUS
10
2.07246
20
0.974688
11
2.07282
21
0.974754
0
LINE
8
BLACK
6
CONTINUOUS
10
2.07282
20
0.974754
11
2.0739
21
0.97504
0
LINE
8
BLACK
6
CONTINUOUS
10
2.0739
20
0.97504
11
2.07585
21
0.97516
0
LINE
8
BLACK
6
CONTINUOUS
10
2.07585
20
0.97516
11
2.0777
21
0.974524
0
LINE
8
BLACK
6
CONTINUOUS
10
2.0777
20
0.974524
11
2.07916
21
0.973232
0
LINE
8
BLACK
6
CONTINUOUS
10
2.07916
20
0.973232
11
2.08001
21
0.971478
0
LINE
8
BLACK
6
CONTINUOUS
10
2.08001
20
0.971478
11
2.08013
21
0.969531
0
LINE
8
BLACK
6
CONTINUOUS
10
2.08013
20
0.969531
11
2.07958
21
0.967827
0
LINE
8
BLACK
6
CONTINUOUS
10
2.07958
20
0.967827
11
2.07668
21
0.962479
0
LINE
8
BLACK
6
CONTINUOUS
10
2.07668
20
0.962479
11
2.0765
21
0.962037
0
LINE
8
BLACK
6
CONTINUOUS
10
2.0765
20
0.962037
11
2.07486
21
0.956738
0
LINE
8
BLACK
6
CONTINUOUS
10
2.07486
20
0.956738
11
2.07485
21
0.956214
0
LINE
8
BLACK
6
CONTINUOUS
10
2.07485
20
0.956214
11
2.07509
21
0.956102
0
LINE
8
BLACK
6
CONTINUOUS
10
2.07509
20
0.956102
11
2.09593
21
0.956102
0
LINE
8
BLACK
6
CONTINUOUS
10
2.09593
20
0.956102
11
2.09933
21
0.960886
0
LINE
8
BLACK
6
CONTINUOUS
10
2.09933
20
0.960886
11
2.1039
21
0.964585
0
LINE
8
BLACK
6
CONTINUOUS
10
2.1039
20
0.964585
11
2.10902
21
0.966798
0
LINE
8
BLACK
6
CONTINUOUS
10
2.10902
20
0.966798
11
2.10902
21
0.986605
0
LINE
8
BLACK
6
CONTINUOUS
10
2.10902
20
0.986605
11
2.10886
21
0.987144
0
LINE
8
BLACK
6
CONTINUOUS
10
2.10886
20
0.987144
11
2.1084
21
0.98722
0
LINE
8
BLACK
6
CONTINUOUS
10
2.1084
20
0.98722
11
2.10724
21
0.987106
0
LINE
8
BLACK
6
CONTINUOUS
10
2.10724
20
0.987106
11
2.10677
21
0.987013
0
LINE
8
BLACK
6
CONTINUOUS
10
2.10677
20
0.987013
11
2.10574
21
0.986703
0
LINE
8
BLACK
6
CONTINUOUS
10
2.10574
20
0.986703
11
2.1038
21
0.986515
0
LINE
8
BLACK
6
CONTINUOUS
10
2.1038
20
0.986515
11
2.10193
21
0.987083
0
LINE
8
BLACK
6
CONTINUOUS
10
2.10193
20
0.987083
11
2.10076
21
0.987954
0
LINE
8
BLACK
6
CONTINUOUS
10
2.10076
20
0.987954
11
2.08685
21
1.00187
0
LINE
8
BLACK
6
CONTINUOUS
10
2.08685
20
1.00187
11
2.08461
21
1.00029
0
LINE
8
BLACK
6
CONTINUOUS
10
2.08461
20
1.00029
11
2.07683
21
0.996669
0
LINE
8
BLACK
6
CONTINUOUS
10
2.07683
20
0.996669
11
2.06855
21
0.994448
0
LINE
8
BLACK
6
CONTINUOUS
10
2.06855
20
0.994448
11
2.06
21
0.993701
0
LINE
8
BLACK
6
CONTINUOUS
10
2.06
20
0.993701
11
2.05145
21
0.994448
0
LINE
8
BLACK
6
CONTINUOUS
10
2.05145
20
0.994448
11
2.04317
21
0.996669
0
LINE
8
BLACK
6
CONTINUOUS
10
2.04317
20
0.996669
11
2.03539
21
1.00029
0
LINE
8
BLACK
6
CONTINUOUS
10
2.03539
20
1.00029
11
2.03315
21
1.00187
0
LINE
8
BLACK
6
CONTINUOUS
10
2.03315
20
1.00187
11
2.01918
21
0.987892
0
LINE
8
BLACK
6
CONTINUOUS
10
2.01918
20
0.987892
11
2.01893
21
0.987439
0
LINE
8
BLACK
6
CONTINUOUS
10
2.01893
20
0.987439
11
2.01925
21
0.987011
0
LINE
8
BLACK
6
CONTINUOUS
10
2.01925
20
0.987011
11
2.02309
21
0.984194
0
LINE
8
BLACK
6
CONTINUOUS
10
0.39841
20
0.904906
11
0.399575
21
0.90502
0
LINE
8
BLACK
6
CONTINUOUS
10
0.399575
20
0.90502
11
0.400045
21
0.905113
0
LINE
8
BLACK
6
CONTINUOUS
10
0.400045
20
0.905113
11
0.407397
21
0.907333
0
LINE
8
BLACK
6
CONTINUOUS
10
0.407397
20
0.907333
11
0.40784
21
0.907516
0
LINE
8
BLACK
6
CONTINUOUS
10
0.40784
20
0.907516
11
0.414621
21
0.911121
0
LINE
8
BLACK
6
CONTINUOUS
10
0.414621
20
0.911121
11
0.41502
21
0.911386
0
LINE
8
BLACK
6
CONTINUOUS
10
0.41502
20
0.911386
11
0.420971
21
0.91624
0
LINE
8
BLACK
6
CONTINUOUS
10
0.420971
20
0.91624
11
0.421311
21
0.916577
0
LINE
8
BLACK
6
CONTINUOUS
10
0.421311
20
0.916577
11
0.426206
21
0.922495
0
LINE
8
BLACK
6
CONTINUOUS
10
0.426206
20
0.922495
11
0.426474
21
0.922891
0
LINE
8
BLACK
6
CONTINUOUS
10
0.426474
20
0.922891
11
0.430127
21
0.929647
0
LINE
8
BLACK
6
CONTINUOUS
10
0.430127
20
0.929647
11
0.430312
21
0.930089
0
LINE
8
BLACK
6
CONTINUOUS
10
0.430312
20
0.930089
11
0.431953
21
0.935388
0
LINE
8
BLACK
6
CONTINUOUS
10
0.431953
20
0.935388
11
0.43196
21
0.935912
0
LINE
8
BLACK
6
CONTINUOUS
10
0.43196
20
0.935912
11
0.431725
21
0.936024
0
LINE
8
BLACK
6
CONTINUOUS
10
0.431725
20
0.936024
11
0.410877
21
0.936024
0
LINE
8
BLACK
6
CONTINUOUS
10
0.410877
20
0.936024
11
0.407478
21
0.93124
0
LINE
8
BLACK
6
CONTINUOUS
10
0.407478
20
0.93124
11
0.40291
21
0.927541
0
LINE
8
BLACK
6
CONTINUOUS
10
0.40291
20
0.927541
11
0.397795
21
0.925328
0
LINE
8
BLACK
6
CONTINUOUS
10
0.397795
20
0.925328
11
0.397795
21
0.905521
0
LINE
8
BLACK
6
CONTINUOUS
10
0.397795
20
0.905521
11
0.397954
21
0.904982
0
LINE
8
BLACK
6
CONTINUOUS
10
0.397954
20
0.904982
11
0.39841
21
0.904906
0
LINE
8
BLACK
6
CONTINUOUS
10
0.283737
20
0.837993
11
0.285907
21
0.830622
0
LINE
8
BLACK
6
CONTINUOUS
10
0.285907
20
0.830622
11
0.286086
21
0.830178
0
LINE
8
BLACK
6
CONTINUOUS
10
0.286086
20
0.830178
11
0.289646
21
0.823369
0
LINE
8
BLACK
6
CONTINUOUS
10
0.289646
20
0.823369
11
0.289908
21
0.822968
0
LINE
8
BLACK
6
CONTINUOUS
10
0.289908
20
0.822968
11
0.294723
21
0.81698
0
LINE
8
BLACK
6
CONTINUOUS
10
0.294723
20
0.81698
11
0.295058
21
0.816638
0
LINE
8
BLACK
6
CONTINUOUS
10
0.295058
20
0.816638
11
0.300944
21
0.811699
0
LINE
8
BLACK
6
CONTINUOUS
10
0.300944
20
0.811699
11
0.301339
21
0.811428
0
LINE
8
BLACK
6
CONTINUOUS
10
0.301339
20
0.811428
11
0.308072
21
0.807727
0
LINE
8
BLACK
6
CONTINUOUS
10
0.308072
20
0.807727
11
0.308512
21
0.807538
0
LINE
8
BLACK
6
CONTINUOUS
10
0.308512
20
0.807538
11
0.315836
21
0.805215
0
LINE
8
BLACK
6
CONTINUOUS
10
0.315836
20
0.805215
11
0.316305
21
0.805115
0
LINE
8
BLACK
6
CONTINUOUS
10
0.316305
20
0.805115
11
0.322284
21
0.804444
0
LINE
8
BLACK
6
CONTINUOUS
10
0.322284
20
0.804444
11
0.322557
21
0.804429
0
LINE
8
BLACK
6
CONTINUOUS
10
0.322557
20
0.804429
11
0.334572
21
0.804429
0
LINE
8
BLACK
6
CONTINUOUS
10
0.334572
20
0.804429
11
0.334812
21
0.804441
0
LINE
8
BLACK
6
CONTINUOUS
10
0.334812
20
0.804441
11
0.340524
21
0.805001
0
LINE
8
BLACK
6
CONTINUOUS
10
0.340524
20
0.805001
11
0.340994
21
0.805094
0
LINE
8
BLACK
6
CONTINUOUS
10
0.340994
20
0.805094
11
0.343627
21
0.805889
0
LINE
8
BLACK
6
CONTINUOUS
10
0.343627
20
0.805889
11
0.345072
21
0.806102
0
LINE
8
BLACK
6
CONTINUOUS
10
0.345072
20
0.806102
11
0.364635
21
0.806102
0
LINE
8
BLACK
6
CONTINUOUS
10
0.364635
20
0.806102
11
0.368034
21
0.810886
0
LINE
8
BLACK
6
CONTINUOUS
10
0.368034
20
0.810886
11
0.372602
21
0.814585
0
LINE
8
BLACK
6
CONTINUOUS
10
0.372602
20
0.814585
11
0.377717
21
0.816798
0
LINE
8
BLACK
6
CONTINUOUS
10
0.377717
20
0.816798
11
0.377717
21
0.836605
0
LINE
8
BLACK
6
CONTINUOUS
10
0.377717
20
0.836605
11
0.377545
21
0.837188
0
LINE
8
BLACK
6
CONTINUOUS
10
0.377545
20
0.837188
11
0.377316
21
0.837387
0
LINE
8
BLACK
6
CONTINUOUS
10
0.377316
20
0.837387
11
0.376451
21
0.837714
0
LINE
8
BLACK
6
CONTINUOUS
10
0.376451
20
0.837714
11
0.375029
21
0.83905
0
LINE
8
BLACK
6
CONTINUOUS
10
0.375029
20
0.83905
11
0.374227
21
0.840829
0
LINE
8
BLACK
6
CONTINUOUS
10
0.374227
20
0.840829
11
0.374126
21
0.842478
0
LINE
8
BLACK
6
CONTINUOUS
10
0.374126
20
0.842478
11
0.374447
21
0.845531
0
LINE
8
BLACK
6
CONTINUOUS
10
0.374447
20
0.845531
11
0.37445
21
0.84594
0
LINE
8
BLACK
6
CONTINUOUS
10
0.37445
20
0.84594
11
0.37445
21
0.845941
0
LINE
8
BLACK
6
CONTINUOUS
10
0.37445
20
0.845941
11
0.37445
21
0.846011
0
LINE
8
BLACK
6
CONTINUOUS
10
0.37445
20
0.846011
11
0.374441
21
0.846115
0
LINE
8
BLACK
6
CONTINUOUS
10
0.374441
20
0.846115
11
0.373754
21
0.853663
0
LINE
8
BLACK
6
CONTINUOUS
10
0.373754
20
0.853663
11
0.373664
21
0.854133
0
LINE
8
BLACK
6
CONTINUOUS
10
0.373664
20
0.854133
11
0.371495
21
0.861504
0
LINE
8
BLACK
6
CONTINUOUS
10
0.371495
20
0.861504
11
0.371315
21
0.861948
0
LINE
8
BLACK
6
CONTINUOUS
10
0.371315
20
0.861948
11
0.367734
21
0.868799
0
LINE
8
BLACK
6
CONTINUOUS
10
0.367734
20
0.868799
11
0.367185
21
0.870671
0
LINE
8
BLACK
6
CONTINUOUS
10
0.367185
20
0.870671
11
0.367394
21
0.87261
0
LINE
8
BLACK
6
CONTINUOUS
10
0.367394
20
0.87261
11
0.367767
21
0.873493
0
LINE
8
BLACK
6
CONTINUOUS
10
0.367767
20
0.873493
11
0.37109
21
0.87964
0
LINE
8
BLACK
6
CONTINUOUS
10
0.37109
20
0.87964
11
0.371275
21
0.880081
0
LINE
8
BLACK
6
CONTINUOUS
10
0.371275
20
0.880081
11
0.373547
21
0.887421
0
LINE
8
BLACK
6
CONTINUOUS
10
0.373547
20
0.887421
11
0.373644
21
0.88789
0
LINE
8
BLACK
6
CONTINUOUS
10
0.373644
20
0.88789
11
0.374447
21
0.895531
0
LINE
8
BLACK
6
CONTINUOUS
10
0.374447
20
0.895531
11
0.37445
21
0.896011
0
LINE
8
BLACK
6
CONTINUOUS
10
0.37445
20
0.896011
11
0.374108
21
0.899775
0
LINE
8
BLACK
6
CONTINUOUS
10
0.374108
20
0.899775
11
0.374313
21
0.901715
0
LINE
8
BLACK
6
CONTINUOUS
10
0.374313
20
0.901715
11
0.375246
21
0.903428
0
LINE
8
BLACK
6
CONTINUOUS
10
0.375246
20
0.903428
11
0.376763
21
0.904655
0
LINE
8
BLACK
6
CONTINUOUS
10
0.376763
20
0.904655
11
0.377481
21
0.9049
0
LINE
8
BLACK
6
CONTINUOUS
10
0.377481
20
0.9049
11
0.377572
21
0.904984
0
LINE
8
BLACK
6
CONTINUOUS
10
0.377572
20
0.904984
11
0.377717
21
0.905506
0
LINE
8
BLACK
6
CONTINUOUS
10
0.377717
20
0.905506
11
0.377717
21
0.925496
0
LINE
8
BLACK
6
CONTINUOUS
10
0.377717
20
0.925496
11
0.375012
21
0.926281
0
LINE
8
BLACK
6
CONTINUOUS
10
0.375012
20
0.926281
11
0.370016
21
0.929379
0
LINE
8
BLACK
6
CONTINUOUS
10
0.370016
20
0.929379
11
0.366038
21
0.933705
0
LINE
8
BLACK
6
CONTINUOUS
10
0.366038
20
0.933705
11
0.364857
21
0.936024
0
LINE
8
BLACK
6
CONTINUOUS
10
0.364857
20
0.936024
11
0.345138
21
0.936024
0
LINE
8
BLACK
6
CONTINUOUS
10
0.345138
20
0.936024
11
0.343626
21
0.936258
0
LINE
8
BLACK
6
CONTINUOUS
10
0.343626
20
0.936258
11
0.341565
21
0.936911
0
LINE
8
BLACK
6
CONTINUOUS
10
0.341565
20
0.936911
11
0.341097
21
0.937011
0
LINE
8
BLACK
6
CONTINUOUS
10
0.341097
20
0.937011
11
0.335118
21
0.937682
0
LINE
8
BLACK
6
CONTINUOUS
10
0.335118
20
0.937682
11
0.334844
21
0.937697
0
LINE
8
BLACK
6
CONTINUOUS
10
0.334844
20
0.937697
11
0.32283
21
0.937697
0
LINE
8
BLACK
6
CONTINUOUS
10
0.32283
20
0.937697
11
0.322589
21
0.937685
0
LINE
8
BLACK
6
CONTINUOUS
10
0.322589
20
0.937685
11
0.316877
21
0.937125
0
LINE
8
BLACK
6
CONTINUOUS
10
0.316877
20
0.937125
11
0.316408
21
0.937032
0
LINE
8
BLACK
6
CONTINUOUS
10
0.316408
20
0.937032
11
0.309052
21
0.934811
0
LINE
8
BLACK
6
CONTINUOUS
10
0.309052
20
0.934811
11
0.308609
21
0.934629
0
LINE
8
BLACK
6
CONTINUOUS
10
0.308609
20
0.934629
11
0.301825
21
0.931021
0
LINE
8
BLACK
6
CONTINUOUS
10
0.301825
20
0.931021
11
0.301426
21
0.930757
0
LINE
8
BLACK
6
CONTINUOUS
10
0.301426
20
0.930757
11
0.295472
21
0.9259
0
LINE
8
BLACK
6
CONTINUOUS
10
0.295472
20
0.9259
11
0.295132
21
0.925563
0
LINE
8
BLACK
6
CONTINUOUS
10
0.295132
20
0.925563
11
0.290234
21
0.919642
0
LINE
8
BLACK
6
CONTINUOUS
10
0.290234
20
0.919642
11
0.289966
21
0.919245
0
LINE
8
BLACK
6
CONTINUOUS
10
0.289966
20
0.919245
11
0.286312
21
0.912487
0
LINE
8
BLACK
6
CONTINUOUS
10
0.286312
20
0.912487
11
0.286126
21
0.912045
0
LINE
8
BLACK
6
CONTINUOUS
10
0.286126
20
0.912045
11
0.283854
21
0.904705
0
LINE
8
BLACK
6
CONTINUOUS
10
0.283854
20
0.904705
11
0.283758
21
0.904236
0
LINE
8
BLACK
6
CONTINUOUS
10
0.283758
20
0.904236
11
0.282955
21
0.896595
0
LINE
8
BLACK
6
CONTINUOUS
10
0.282955
20
0.896595
11
0.282951
21
0.896115
0
LINE
8
BLACK
6
CONTINUOUS
10
0.282951
20
0.896115
11
0.283648
21
0.888463
0
LINE
8
BLACK
6
CONTINUOUS
10
0.283648
20
0.888463
11
0.283737
21
0.887993
0
LINE
8
BLACK
6
CONTINUOUS
10
0.283737
20
0.887993
11
0.285907
21
0.880622
0
LINE
8
BLACK
6
CONTINUOUS
10
0.285907
20
0.880622
11
0.286086
21
0.880178
0
LINE
8
BLACK
6
CONTINUOUS
10
0.286086
20
0.880178
11
0.289668
21
0.873327
0
LINE
8
BLACK
6
CONTINUOUS
10
0.289668
20
0.873327
11
0.290217
21
0.871455
0
LINE
8
BLACK
6
CONTINUOUS
10
0.290217
20
0.871455
11
0.290008
21
0.869516
0
LINE
8
BLACK
6
CONTINUOUS
10
0.290008
20
0.869516
11
0.289635
21
0.868633
0
LINE
8
BLACK
6
CONTINUOUS
10
0.289635
20
0.868633
11
0.286312
21
0.862486
0
LINE
8
BLACK
6
CONTINUOUS
10
0.286312
20
0.862486
11
0.286126
21
0.862045
0
LINE
8
BLACK
6
CONTINUOUS
10
0.286126
20
0.862045
11
0.283854
21
0.854705
0
LINE
8
BLACK
6
CONTINUOUS
10
0.283854
20
0.854705
11
0.283758
21
0.854236
0
LINE
8
BLACK
6
CONTINUOUS
10
0.283758
20
0.854236
11
0.282955
21
0.846595
0
LINE
8
BLACK
6
CONTINUOUS
10
0.282955
20
0.846595
11
0.282951
21
0.846115
0
LINE
8
BLACK
6
CONTINUOUS
10
0.282951
20
0.846115
11
0.283648
21
0.838463
0
LINE
8
BLACK
6
CONTINUOUS
10
0.283648
20
0.838463
11
0.283737
21
0.837993
0
LINE
8
BLACK
6
CONTINUOUS
10
2.01504
20
0.837993
11
2.01721
21
0.830622
0
LINE
8
BLACK
6
CONTINUOUS
10
2.01721
20
0.830622
11
2.01739
21
0.830178
0
LINE
8
BLACK
6
CONTINUOUS
10
2.01739
20
0.830178
11
2.02095
21
0.823369
0
LINE
8
BLACK
6
CONTINUOUS
10
2.02095
20
0.823369
11
2.02121
21
0.822968
0
LINE
8
BLACK
6
CONTINUOUS
10
2.02121
20
0.822968
11
2.02602
21
0.81698
0
LINE
8
BLACK
6
CONTINUOUS
10
2.02602
20
0.81698
11
2.02636
21
0.816638
0
LINE
8
BLACK
6
CONTINUOUS
10
2.02636
20
0.816638
11
2.03224
21
0.811699
0
LINE
8
BLACK
6
CONTINUOUS
10
2.03224
20
0.811699
11
2.03264
21
0.811428
0
LINE
8
BLACK
6
CONTINUOUS
10
2.03264
20
0.811428
11
2.03937
21
0.807727
0
LINE
8
BLACK
6
CONTINUOUS
10
2.03937
20
0.807727
11
2.03981
21
0.807538
0
LINE
8
BLACK
6
CONTINUOUS
10
2.03981
20
0.807538
11
2.04714
21
0.805215
0
LINE
8
BLACK
6
CONTINUOUS
10
2.04714
20
0.805215
11
2.0476
21
0.805115
0
LINE
8
BLACK
6
CONTINUOUS
10
2.0476
20
0.805115
11
2.05358
21
0.804444
0
LINE
8
BLACK
6
CONTINUOUS
10
2.05358
20
0.804444
11
2.05386
21
0.804429
0
LINE
8
BLACK
6
CONTINUOUS
10
2.05386
20
0.804429
11
2.06587
21
0.804429
0
LINE
8
BLACK
6
CONTINUOUS
10
2.06587
20
0.804429
11
2.06611
21
0.804441
0
LINE
8
BLACK
6
CONTINUOUS
10
2.06611
20
0.804441
11
2.07182
21
0.805001
0
LINE
8
BLACK
6
CONTINUOUS
10
2.07182
20
0.805001
11
2.07229
21
0.805094
0
LINE
8
BLACK
6
CONTINUOUS
10
2.07229
20
0.805094
11
2.07493
21
0.805889
0
LINE
8
BLACK
6
CONTINUOUS
10
2.07493
20
0.805889
11
2.07637
21
0.806102
0
LINE
8
BLACK
6
CONTINUOUS
10
2.07637
20
0.806102
11
2.09593
21
0.806102
0
LINE
8
BLACK
6
CONTINUOUS
10
2.09593
20
0.806102
11
2.09933
21
0.810886
0
LINE
8
BLACK
6
CONTINUOUS
10
2.09933
20
0.810886
11
2.1039
21
0.814585
0
LINE
8
BLACK
6
CONTINUOUS
10
2.1039
20
0.814585
11
2.10902
21
0.816798
0
LINE
8
BLACK
6
CONTINUOUS
10
2.10902
20
0.816798
11
2.10902
21
0.836605
0
LINE
8
BLACK
6
CONTINUOUS
10
2.10902
20
0.836605
11
2.10884
21
0.837188
0
LINE
8
BLACK
6
CONTINUOUS
10
2.10884
20
0.837188
11
2.10861
21
0.837387
0
LINE
8
BLACK
6
CONTINUOUS
10
2.10861
20
0.837387
11
2.10775
21
0.837714
0
LINE
8
BLACK
6
CONTINUOUS
10
2.10775
20
0.837714
11
2.10633
21
0.83905
0
LINE
8
BLACK
6
CONTINUOUS
10
2.10633
20
0.83905
11
2.10553
21
0.840829
0
LINE
8
BLACK
6
CONTINUOUS
10
2.10553
20
0.840829
11
2.10543
21
0.842478
0
LINE
8
BLACK
6
CONTINUOUS
10
2.10543
20
0.842478
11
2.10575
21
0.845531
0
LINE
8
BLACK
6
CONTINUOUS
10
2.10575
20
0.845531
11
2.10575
21
0.846011
0
LINE
8
BLACK
6
CONTINUOUS
10
2.10575
20
0.846011
11
2.10505
21
0.853663
0
LINE
8
BLACK
6
CONTINUOUS
10
2.10505
20
0.853663
11
2.10496
21
0.854133
0
LINE
8
BLACK
6
CONTINUOUS
10
2.10496
20
0.854133
11
2.10279
21
0.861504
0
LINE
8
BLACK
6
CONTINUOUS
10
2.10279
20
0.861504
11
2.10261
21
0.861948
0
LINE
8
BLACK
6
CONTINUOUS
10
2.10261
20
0.861948
11
2.09903
21
0.868799
0
LINE
8
BLACK
6
CONTINUOUS
10
2.09903
20
0.868799
11
2.09848
21
0.870671
0
LINE
8
BLACK
6
CONTINUOUS
10
2.09848
20
0.870671
11
2.09869
21
0.87261
0
LINE
8
BLACK
6
CONTINUOUS
10
2.09869
20
0.87261
11
2.09907
21
0.873493
0
LINE
8
BLACK
6
CONTINUOUS
10
2.09907
20
0.873493
11
2.10239
21
0.87964
0
LINE
8
BLACK
6
CONTINUOUS
10
2.10239
20
0.87964
11
2.10257
21
0.880081
0
LINE
8
BLACK
6
CONTINUOUS
10
2.10257
20
0.880081
11
2.10485
21
0.887421
0
LINE
8
BLACK
6
CONTINUOUS
10
2.10485
20
0.887421
11
2.10494
21
0.88789
0
LINE
8
BLACK
6
CONTINUOUS
10
2.10494
20
0.88789
11
2.10575
21
0.895531
0
LINE
8
BLACK
6
CONTINUOUS
10
2.10575
20
0.895531
11
2.10575
21
0.896011
0
LINE
8
BLACK
6
CONTINUOUS
10
2.10575
20
0.896011
11
2.10541
21
0.899775
0
LINE
8
BLACK
6
CONTINUOUS
10
2.10541
20
0.899775
11
2.10561
21
0.901715
0
LINE
8
BLACK
6
CONTINUOUS
10
2.10561
20
0.901715
11
2.10654
21
0.903428
0
LINE
8
BLACK
6
CONTINUOUS
10
2.10654
20
0.903428
11
2.10806
21
0.904655
0
LINE
8
BLACK
6
CONTINUOUS
10
2.10806
20
0.904655
11
2.10878
21
0.9049
0
LINE
8
BLACK
6
CONTINUOUS
10
2.10878
20
0.9049
11
2.10887
21
0.904984
0
LINE
8
BLACK
6
CONTINUOUS
10
2.10887
20
0.904984
11
2.10902
21
0.905506
0
LINE
8
BLACK
6
CONTINUOUS
10
2.10902
20
0.905506
11
2.10902
21
0.925496
0
LINE
8
BLACK
6
CONTINUOUS
10
2.10902
20
0.925496
11
2.10631
21
0.926281
0
LINE
8
BLACK
6
CONTINUOUS
10
2.10631
20
0.926281
11
2.10132
21
0.929379
0
LINE
8
BLACK
6
CONTINUOUS
10
2.10132
20
0.929379
11
2.09734
21
0.933705
0
LINE
8
BLACK
6
CONTINUOUS
10
2.09734
20
0.933705
11
2.09616
21
0.936024
0
LINE
8
BLACK
6
CONTINUOUS
10
2.09616
20
0.936024
11
2.07644
21
0.936024
0
LINE
8
BLACK
6
CONTINUOUS
10
2.07644
20
0.936024
11
2.07493
21
0.936258
0
LINE
8
BLACK
6
CONTINUOUS
10
2.07493
20
0.936258
11
2.07286
21
0.936911
0
LINE
8
BLACK
6
CONTINUOUS
10
2.07286
20
0.936911
11
2.0724
21
0.937011
0
LINE
8
BLACK
6
CONTINUOUS
10
2.0724
20
0.937011
11
2.06642
21
0.937682
0
LINE
8
BLACK
6
CONTINUOUS
10
2.06642
20
0.937682
11
2.06614
21
0.937697
0
LINE
8
BLACK
6
CONTINUOUS
10
2.06614
20
0.937697
11
2.05413
21
0.937697
0
LINE
8
BLACK
6
CONTINUOUS
10
2.05413
20
0.937697
11
2.05389
21
0.937685
0
LINE
8
BLACK
6
CONTINUOUS
10
2.05389
20
0.937685
11
2.04818
21
0.937125
0
LINE
8
BLACK
6
CONTINUOUS
10
2.04818
20
0.937125
11
2.04771
21
0.937032
0
LINE
8
BLACK
6
CONTINUOUS
10
2.04771
20
0.937032
11
2.04035
21
0.934811
0
LINE
8
BLACK
6
CONTINUOUS
10
2.04035
20
0.934811
11
2.03991
21
0.934629
0
LINE
8
BLACK
6
CONTINUOUS
10
2.03991
20
0.934629
11
2.03312
21
0.931021
0
LINE
8
BLACK
6
CONTINUOUS
10
2.03312
20
0.931021
11
2.03273
21
0.930757
0
LINE
8
BLACK
6
CONTINUOUS
10
2.03273
20
0.930757
11
2.02677
21
0.9259
0
LINE
8
BLACK
6
CONTINUOUS
10
2.02677
20
0.9259
11
2.02643
21
0.925563
0
LINE
8
BLACK
6
CONTINUOUS
10
2.02643
20
0.925563
11
2.02153
21
0.919642
0
LINE
8
BLACK
6
CONTINUOUS
10
2.02153
20
0.919642
11
2.02127
21
0.919245
0
LINE
8
BLACK
6
CONTINUOUS
10
2.02127
20
0.919245
11
2.01761
21
0.912487
0
LINE
8
BLACK
6
CONTINUOUS
10
2.01761
20
0.912487
11
2.01743
21
0.912045
0
LINE
8
BLACK
6
CONTINUOUS
10
2.01743
20
0.912045
11
2.01515
21
0.904705
0
LINE
8
BLACK
6
CONTINUOUS
10
2.01515
20
0.904705
11
2.01506
21
0.904236
0
LINE
8
BLACK
6
CONTINUOUS
10
2.01506
20
0.904236
11
2.01425
21
0.896595
0
LINE
8
BLACK
6
CONTINUOUS
10
2.01425
20
0.896595
11
2.01425
21
0.896115
0
LINE
8
BLACK
6
CONTINUOUS
10
2.01425
20
0.896115
11
2.01495
21
0.888463
0
LINE
8
BLACK
6
CONTINUOUS
10
2.01495
20
0.888463
11
2.01504
21
0.887993
0
LINE
8
BLACK
6
CONTINUOUS
10
2.01504
20
0.887993
11
2.01721
21
0.880622
0
LINE
8
BLACK
6
CONTINUOUS
10
2.01721
20
0.880622
11
2.01739
21
0.880178
0
LINE
8
BLACK
6
CONTINUOUS
10
2.01739
20
0.880178
11
2.02097
21
0.873327
0
LINE
8
BLACK
6
CONTINUOUS
10
2.02097
20
0.873327
11
2.02152
21
0.871455
0
LINE
8
BLACK
6
CONTINUOUS
10
2.02152
20
0.871455
11
2.02131
21
0.869516
0
LINE
8
BLACK
6
CONTINUOUS
10
2.02131
20
0.869516
11
2.02093
21
0.868633
0
LINE
8
BLACK
6
CONTINUOUS
10
2.02093
20
0.868633
11
2.01761
21
0.862486
0
LINE
8
BLACK
6
CONTINUOUS
10
2.01761
20
0.862486
11
2.01743
21
0.862045
0
LINE
8
BLACK
6
CONTINUOUS
10
2.01743
20
0.862045
11
2.01515
21
0.854705
0
LINE
8
BLACK
6
CONTINUOUS
10
2.01515
20
0.854705
11
2.01506
21
0.854236
0
LINE
8
BLACK
6
CONTINUOUS
10
2.01506
20
0.854236
11
2.01425
21
0.846595
0
LINE
8
BLACK
6
CONTINUOUS
10
2.01425
20
0.846595
11
2.01425
21
0.846115
0
LINE
8
BLACK
6
CONTINUOUS
10
2.01425
20
0.846115
11
2.01495
21
0.838463
0
LINE
8
BLACK
6
CONTINUOUS
10
2.01495
20
0.838463
11
2.01504
21
0.837993
0
LINE
8
BLACK
6
CONTINUOUS
10
0.355551
20
1.00187
11
0.353307
21
1.00029
0
LINE
8
BLACK
6
CONTINUOUS
10
0.353307
20
1.00029
11
0.345532
21
0.996669
0
LINE
8
BLACK
6
CONTINUOUS
10
0.345532
20
0.996669
11
0.337246
21
0.994448
0
LINE
8
BLACK
6
CONTINUOUS
10
0.337246
20
0.994448
11
0.328701
21
0.993701
0
LINE
8
BLACK
6
CONTINUOUS
10
0.328701
20
0.993701
11
0.320155
21
0.994448
0
LINE
8
BLACK
6
CONTINUOUS
10
0.320155
20
0.994448
11
0.311869
21
0.996669
0
LINE
8
BLACK
6
CONTINUOUS
10
0.311869
20
0.996669
11
0.304094
21
1.00029
0
LINE
8
BLACK
6
CONTINUOUS
10
0.304094
20
1.00029
11
0.301851
21
1.00187
0
LINE
8
BLACK
6
CONTINUOUS
10
0.301851
20
1.00187
11
0.287877
21
0.987892
0
LINE
8
BLACK
6
CONTINUOUS
10
0.287877
20
0.987892
11
0.28763
21
0.987439
0
LINE
8
BLACK
6
CONTINUOUS
10
0.28763
20
0.987439
11
0.287954
21
0.987011
0
LINE
8
BLACK
6
CONTINUOUS
10
0.287954
20
0.987011
11
0.291795
21
0.984194
0
LINE
8
BLACK
6
CONTINUOUS
10
0.291795
20
0.984194
11
0.292103
21
0.984002
0
LINE
8
BLACK
6
CONTINUOUS
10
0.292103
20
0.984002
11
0.300879
21
0.979385
0
LINE
8
BLACK
6
CONTINUOUS
10
0.300879
20
0.979385
11
0.301213
21
0.979239
0
LINE
8
BLACK
6
CONTINUOUS
10
0.301213
20
0.979239
11
0.310575
21
0.97597
0
LINE
8
BLACK
6
CONTINUOUS
10
0.310575
20
0.97597
11
0.310927
21
0.975876
0
LINE
8
BLACK
6
CONTINUOUS
10
0.310927
20
0.975876
11
0.320669
21
0.974026
0
LINE
8
BLACK
6
CONTINUOUS
10
0.320669
20
0.974026
11
0.321031
21
0.973985
0
LINE
8
BLACK
6
CONTINUOUS
10
0.321031
20
0.973985
11
0.330939
21
0.973596
0
LINE
8
BLACK
6
CONTINUOUS
10
0.330939
20
0.973596
11
0.331303
21
0.973608
0
LINE
8
BLACK
6
CONTINUOUS
10
0.331303
20
0.973608
11
0.34116
21
0.974688
0
LINE
8
BLACK
6
CONTINUOUS
10
0.34116
20
0.974688
11
0.341518
21
0.974754
0
LINE
8
BLACK
6
CONTINUOUS
10
0.341518
20
0.974754
11
0.342606
21
0.97504
0
LINE
8
BLACK
6
CONTINUOUS
10
0.342606
20
0.97504
11
0.344553
21
0.97516
0
LINE
8
BLACK
6
CONTINUOUS
10
0.344553
20
0.97516
11
0.346398
21
0.974524
0
LINE
8
BLACK
6
CONTINUOUS
10
0.346398
20
0.974524
11
0.347859
21
0.973232
0
LINE
8
BLACK
6
CONTINUOUS
10
0.347859
20
0.973232
11
0.348714
21
0.971478
0
LINE
8
BLACK
6
CONTINUOUS
10
0.348714
20
0.971478
11
0.348833
21
0.969531
0
LINE
8
BLACK
6
CONTINUOUS
10
0.348833
20
0.969531
11
0.348277
21
0.967827
0
LINE
8
BLACK
6
CONTINUOUS
10
0.348277
20
0.967827
11
0.345385
21
0.962479
0
LINE
8
BLACK
6
CONTINUOUS
10
0.345385
20
0.962479
11
0.345199
21
0.962037
0
LINE
8
BLACK
6
CONTINUOUS
10
0.345199
20
0.962037
11
0.343559
21
0.956738
0
LINE
8
BLACK
6
CONTINUOUS
10
0.343559
20
0.956738
11
0.343551
21
0.956214
0
LINE
8
BLACK
6
CONTINUOUS
10
0.343551
20
0.956214
11
0.343787
21
0.956102
0
LINE
8
BLACK
6
CONTINUOUS
10
0.343787
20
0.956102
11
0.364635
21
0.956102
0
LINE
8
BLACK
6
CONTINUOUS
10
0.364635
20
0.956102
11
0.368034
21
0.960886
0
LINE
8
BLACK
6
CONTINUOUS
10
0.368034
20
0.960886
11
0.372602
21
0.964585
0
LINE
8
BLACK
6
CONTINUOUS
10
0.372602
20
0.964585
11
0.377717
21
0.966798
0
LINE
8
BLACK
6
CONTINUOUS
10
0.377717
20
0.966798
11
0.377717
21
0.986605
0
LINE
8
BLACK
6
CONTINUOUS
10
0.377717
20
0.986605
11
0.377558
21
0.987144
0
LINE
8
BLACK
6
CONTINUOUS
10
0.377558
20
0.987144
11
0.377101
21
0.98722
0
LINE
8
BLACK
6
CONTINUOUS
10
0.377101
20
0.98722
11
0.375936
21
0.987106
0
LINE
8
BLACK
6
CONTINUOUS
10
0.375936
20
0.987106
11
0.375467
21
0.987013
0
LINE
8
BLACK
6
CONTINUOUS
10
0.375467
20
0.987013
11
0.374443
21
0.986703
0
LINE
8
BLACK
6
CONTINUOUS
10
0.374443
20
0.986703
11
0.372501
21
0.986515
0
LINE
8
BLACK
6
CONTINUOUS
10
0.372501
20
0.986515
11
0.370635
21
0.987083
0
LINE
8
BLACK
6
CONTINUOUS
10
0.370635
20
0.987083
11
0.370156
21
0.987439
0
LINE
8
BLACK
6
CONTINUOUS
10
0.370156
20
0.987439
11
0.369462
21
0.987954
0
LINE
8
BLACK
6
CONTINUOUS
10
0.369462
20
0.987954
11
0.355551
21
1.00187
0
LINE
8
BLACK
6
CONTINUOUS
10
0.259886
20
1.03428
11
0.261821
21
1.02456
0
LINE
8
BLACK
6
CONTINUOUS
10
0.261821
20
1.02456
11
0.261918
21
1.0242
0
LINE
8
BLACK
6
CONTINUOUS
10
0.261918
20
1.0242
11
0.265269
21
1.01487
0
LINE
8
BLACK
6
CONTINUOUS
10
0.265269
20
1.01487
11
0.265417
21
1.01454
0
LINE
8
BLACK
6
CONTINUOUS
10
0.265417
20
1.01454
11
0.270111
21
1.0058
0
LINE
8
BLACK
6
CONTINUOUS
10
0.270111
20
1.0058
11
0.270306
21
1.0055
0
LINE
8
BLACK
6
CONTINUOUS
10
0.270306
20
1.0055
11
0.272802
21
1.00215
0
LINE
8
BLACK
6
CONTINUOUS
10
0.272802
20
1.00215
11
0.27322
21
1.00184
0
LINE
8
BLACK
6
CONTINUOUS
10
0.27322
20
1.00184
11
0.273682
21
1.00209
0
LINE
8
BLACK
6
CONTINUOUS
10
0.273682
20
1.00209
11
0.287653
21
1.01606
0
LINE
8
BLACK
6
CONTINUOUS
10
0.287653
20
1.01606
11
0.286081
21
1.01831
0
LINE
8
BLACK
6
CONTINUOUS
10
0.286081
20
1.01831
11
0.282456
21
1.02608
0
LINE
8
BLACK
6
CONTINUOUS
10
0.282456
20
1.02608
11
0.280236
21
1.03437
0
LINE
8
BLACK
6
CONTINUOUS
10
0.280236
20
1.03437
11
0.279488
21
1.04291
0
LINE
8
BLACK
6
CONTINUOUS
10
0.279488
20
1.04291
11
0.280236
21
1.05146
0
LINE
8
BLACK
6
CONTINUOUS
10
0.280236
20
1.05146
11
0.282456
21
1.05975
0
LINE
8
BLACK
6
CONTINUOUS
10
0.282456
20
1.05975
11
0.286081
21
1.06752
0
LINE
8
BLACK
6
CONTINUOUS
10
0.286081
20
1.06752
11
0.287653
21
1.06976
0
LINE
8
BLACK
6
CONTINUOUS
10
0.287653
20
1.06976
11
0.273611
21
1.08381
0
LINE
8
BLACK
6
CONTINUOUS
10
0.273611
20
1.08381
11
0.273114
21
1.08408
0
LINE
8
BLACK
6
CONTINUOUS
10
0.273114
20
1.08408
11
0.272742
21
1.08381
0
LINE
8
BLACK
6
CONTINUOUS
10
0.272742
20
1.08381
11
0.272345
21
1.08334
0
LINE
8
BLACK
6
CONTINUOUS
10
0.272345
20
1.08334
11
0.272133
21
1.08304
0
LINE
8
BLACK
6
CONTINUOUS
10
0.272133
20
1.08304
11
0.266989
21
1.07456
0
LINE
8
BLACK
6
CONTINUOUS
10
0.266989
20
1.07456
11
0.266823
21
1.07424
0
LINE
8
BLACK
6
CONTINUOUS
10
0.266823
20
1.07424
11
0.262989
21
1.06509
0
LINE
8
BLACK
6
CONTINUOUS
10
0.262989
20
1.06509
11
0.262873
21
1.06475
0
LINE
8
BLACK
6
CONTINUOUS
10
0.262873
20
1.06475
11
0.260432
21
1.05514
0
LINE
8
BLACK
6
CONTINUOUS
10
0.260432
20
1.05514
11
0.260369
21
1.05478
0
LINE
8
BLACK
6
CONTINUOUS
10
0.260369
20
1.05478
11
0.259376
21
1.04491
0
LINE
8
BLACK
6
CONTINUOUS
10
0.259376
20
1.04491
11
0.259366
21
1.04455
0
LINE
8
BLACK
6
CONTINUOUS
10
0.259366
20
1.04455
11
0.259842
21
1.03464
0
LINE
8
BLACK
6
CONTINUOUS
10
0.259842
20
1.03464
11
0.259886
21
1.03428
0
LINE
8
BLACK
6
CONTINUOUS
10
0.397266
20
1.05334
11
0.395077
21
1.06302
0
LINE
8
BLACK
6
CONTINUOUS
10
0.395077
20
1.06302
11
0.394971
21
1.06336
0
LINE
8
BLACK
6
CONTINUOUS
10
0.394971
20
1.06336
11
0.391377
21
1.07261
0
LINE
8
BLACK
6
CONTINUOUS
10
0.391377
20
1.07261
11
0.39122
21
1.07294
0
LINE
8
BLACK
6
CONTINUOUS
10
0.39122
20
1.07294
11
0.386299
21
1.08154
0
LINE
8
BLACK
6
CONTINUOUS
10
0.386299
20
1.08154
11
0.386096
21
1.08185
0
LINE
8
BLACK
6
CONTINUOUS
10
0.386096
20
1.08185
11
0.384634
21
1.0837
0
LINE
8
BLACK
6
CONTINUOUS
10
0.384634
20
1.0837
11
0.384189
21
1.08402
0
LINE
8
BLACK
6
CONTINUOUS
10
0.384189
20
1.08402
11
0.383762
21
1.08378
0
LINE
8
BLACK
6
CONTINUOUS
10
0.383762
20
1.08378
11
0.369749
21
1.06976
0
LINE
8
BLACK
6
CONTINUOUS
10
0.369749
20
1.06976
11
0.37132
21
1.06752
0
LINE
8
BLACK
6
CONTINUOUS
10
0.37132
20
1.06752
11
0.374946
21
1.05975
0
LINE
8
BLACK
6
CONTINUOUS
10
0.374946
20
1.05975
11
0.377166
21
1.05146
0
LINE
8
BLACK
6
CONTINUOUS
10
0.377166
20
1.05146
11
0.377913
21
1.04291
0
LINE
8
BLACK
6
CONTINUOUS
10
0.377913
20
1.04291
11
0.377166
21
1.03437
0
LINE
8
BLACK
6
CONTINUOUS
10
0.377166
20
1.03437
11
0.374946
21
1.02608
0
LINE
8
BLACK
6
CONTINUOUS
10
0.374946
20
1.02608
11
0.37132
21
1.01831
0
LINE
8
BLACK
6
CONTINUOUS
10
0.37132
20
1.01831
11
0.369749
21
1.01606
0
LINE
8
BLACK
6
CONTINUOUS
10
0.369749
20
1.01606
11
0.38384
21
1.00197
0
LINE
8
BLACK
6
CONTINUOUS
10
0.38384
20
1.00197
11
0.384299
21
1.00172
0
LINE
8
BLACK
6
CONTINUOUS
10
0.384299
20
1.00172
11
0.384602
21
1.00195
0
LINE
8
BLACK
6
CONTINUOUS
10
0.384602
20
1.00195
11
0.389563
21
1.00966
0
LINE
8
BLACK
6
CONTINUOUS
10
0.389563
20
1.00966
11
0.389737
21
1.00998
0
LINE
8
BLACK
6
CONTINUOUS
10
0.389737
20
1.00998
11
0.39381
21
1.01902
0
LINE
8
BLACK
6
CONTINUOUS
10
0.39381
20
1.01902
11
0.393934
21
1.01936
0
LINE
8
BLACK
6
CONTINUOUS
10
0.393934
20
1.01936
11
0.396626
21
1.02891
0
LINE
8
BLACK
6
CONTINUOUS
10
0.396626
20
1.02891
11
0.396699
21
1.02927
0
LINE
8
BLACK
6
CONTINUOUS
10
0.396699
20
1.02927
11
0.397958
21
1.03916
0
LINE
8
BLACK
6
CONTINUOUS
10
0.397958
20
1.03916
11
0.397976
21
1.03941
0
LINE
8
BLACK
6
CONTINUOUS
10
0.397976
20
1.03941
11
0.398065
21
1.04279
0
LINE
8
BLACK
6
CONTINUOUS
10
0.398065
20
1.04279
11
0.398059
21
1.04304
0
LINE
8
BLACK
6
CONTINUOUS
10
0.398059
20
1.04304
11
0.397978
21
1.04412
0
LINE
8
BLACK
6
CONTINUOUS
10
0.397978
20
1.04412
11
0.397947
21
1.04455
0
LINE
8
BLACK
6
CONTINUOUS
10
0.397947
20
1.04455
11
0.39732
21
1.05298
0
LINE
8
BLACK
6
CONTINUOUS
10
0.39732
20
1.05298
11
0.397266
21
1.05334
0
LINE
8
BLACK
6
CONTINUOUS
10
2.03315
20
1.08396
11
2.03539
21
1.08553
0
LINE
8
BLACK
6
CONTINUOUS
10
2.03539
20
1.08553
11
2.04317
21
1.08916
0
LINE
8
BLACK
6
CONTINUOUS
10
2.04317
20
1.08916
11
2.05145
21
1.09138
0
LINE
8
BLACK
6
CONTINUOUS
10
2.05145
20
1.09138
11
2.06
21
1.09213
0
LINE
8
BLACK
6
CONTINUOUS
10
2.06
20
1.09213
11
2.06855
21
1.09138
0
LINE
8
BLACK
6
CONTINUOUS
10
2.06855
20
1.09138
11
2.07683
21
1.08916
0
LINE
8
BLACK
6
CONTINUOUS
10
2.07683
20
1.08916
11
2.08461
21
1.08553
0
LINE
8
BLACK
6
CONTINUOUS
10
2.08461
20
1.08553
11
2.08685
21
1.08396
0
LINE
8
BLACK
6
CONTINUOUS
10
2.08685
20
1.08396
11
2.10085
21
1.09796
0
LINE
8
BLACK
6
CONTINUOUS
10
2.10085
20
1.09796
11
2.10109
21
1.09839
0
LINE
8
BLACK
6
CONTINUOUS
10
2.10109
20
1.09839
11
2.10074
21
1.09885
0
LINE
8
BLACK
6
CONTINUOUS
10
2.10074
20
1.09885
11
2.09536
21
1.10258
0
LINE
8
BLACK
6
CONTINUOUS
10
2.09536
20
1.10258
11
2.09504
21
1.10276
0
LINE
8
BLACK
6
CONTINUOUS
10
2.09504
20
1.10276
11
2.08615
21
1.10715
0
LINE
8
BLACK
6
CONTINUOUS
10
2.08615
20
1.10715
11
2.08581
21
1.10729
0
LINE
8
BLACK
6
CONTINUOUS
10
2.08581
20
1.10729
11
2.07637
21
1.11031
0
LINE
8
BLACK
6
CONTINUOUS
10
2.07637
20
1.11031
11
2.07601
21
1.11039
0
LINE
8
BLACK
6
CONTINUOUS
10
2.07601
20
1.11039
11
2.06623
21
1.11199
0
LINE
8
BLACK
6
CONTINUOUS
10
2.06623
20
1.11199
11
2.06586
21
1.11202
0
LINE
8
BLACK
6
CONTINUOUS
10
2.06586
20
1.11202
11
2.05595
21
1.11215
0
LINE
8
BLACK
6
CONTINUOUS
10
2.05595
20
1.11215
11
2.05558
21
1.11213
0
LINE
8
BLACK
6
CONTINUOUS
10
2.05558
20
1.11213
11
2.04576
21
1.11079
0
LINE
8
BLACK
6
CONTINUOUS
10
2.04576
20
1.11079
11
2.0454
21
1.11071
0
LINE
8
BLACK
6
CONTINUOUS
10
2.0454
20
1.11071
11
2.03588
21
1.10794
0
LINE
8
BLACK
6
CONTINUOUS
10
2.03588
20
1.10794
11
2.03554
21
1.10781
0
LINE
8
BLACK
6
CONTINUOUS
10
2.03554
20
1.10781
11
2.02654
21
1.10366
0
LINE
8
BLACK
6
CONTINUOUS
10
2.02654
20
1.10366
11
2.02622
21
1.10348
0
LINE
8
BLACK
6
CONTINUOUS
10
2.02622
20
1.10348
11
2.01917
21
1.09887
0
LINE
8
BLACK
6
CONTINUOUS
10
2.01917
20
1.09887
11
2.01883
21
1.09847
0
LINE
8
BLACK
6
CONTINUOUS
10
2.01883
20
1.09847
11
2.019
21
1.09811
0
LINE
8
BLACK
6
CONTINUOUS
10
2.019
20
1.09811
11
2.03315
21
1.08396
0
LINE
8
BLACK
6
CONTINUOUS
10
0.364058
20
1.10258
11
0.363743
21
1.10276
0
LINE
8
BLACK
6
CONTINUOUS
10
0.363743
20
1.10276
11
0.35485
21
1.10715
0
LINE
8
BLACK
6
CONTINUOUS
10
0.35485
20
1.10715
11
0.354512
21
1.10729
0
LINE
8
BLACK
6
CONTINUOUS
10
0.354512
20
1.10729
11
0.345068
21
1.11031
0
LINE
8
BLACK
6
CONTINUOUS
10
0.345068
20
1.11031
11
0.344714
21
1.11039
0
LINE
8
BLACK
6
CONTINUOUS
10
0.344714
20
1.11039
11
0.334926
21
1.11199
0
LINE
8
BLACK
6
CONTINUOUS
10
0.334926
20
1.11199
11
0.334564
21
1.11202
0
LINE
8
BLACK
6
CONTINUOUS
10
0.334564
20
1.11202
11
0.324649
21
1.11215
0
LINE
8
BLACK
6
CONTINUOUS
10
0.324649
20
1.11215
11
0.324285
21
1.11213
0
LINE
8
BLACK
6
CONTINUOUS
10
0.324285
20
1.11213
11
0.314459
21
1.11079
0
LINE
8
BLACK
6
CONTINUOUS
10
0.314459
20
1.11079
11
0.314103
21
1.11071
0
LINE
8
BLACK
6
CONTINUOUS
10
0.314103
20
1.11071
11
0.304583
21
1.10794
0
LINE
8
BLACK
6
CONTINUOUS
10
0.304583
20
1.10794
11
0.304242
21
1.10781
0
LINE
8
BLACK
6
CONTINUOUS
10
0.304242
20
1.10781
11
0.295237
21
1.10366
0
LINE
8
BLACK
6
CONTINUOUS
10
0.295237
20
1.10366
11
0.294918
21
1.10348
0
LINE
8
BLACK
6
CONTINUOUS
10
0.294918
20
1.10348
11
0.287875
21
1.09887
0
LINE
8
BLACK
6
CONTINUOUS
10
0.287875
20
1.09887
11
0.287535
21
1.09847
0
LINE
8
BLACK
6
CONTINUOUS
10
0.287535
20
1.09847
11
0.287702
21
1.09811
0
LINE
8
BLACK
6
CONTINUOUS
10
0.287702
20
1.09811
11
0.301851
21
1.08396
0
LINE
8
BLACK
6
CONTINUOUS
10
0.301851
20
1.08396
11
0.304094
21
1.08553
0
LINE
8
BLACK
6
CONTINUOUS
10
0.304094
20
1.08553
11
0.311869
21
1.08916
0
LINE
8
BLACK
6
CONTINUOUS
10
0.311869
20
1.08916
11
0.320155
21
1.09138
0
LINE
8
BLACK
6
CONTINUOUS
10
0.320155
20
1.09138
11
0.328701
21
1.09213
0
LINE
8
BLACK
6
CONTINUOUS
10
0.328701
20
1.09213
11
0.337246
21
1.09138
0
LINE
8
BLACK
6
CONTINUOUS
10
0.337246
20
1.09138
11
0.345532
21
1.08916
0
LINE
8
BLACK
6
CONTINUOUS
10
0.345532
20
1.08916
11
0.353307
21
1.08553
0
LINE
8
BLACK
6
CONTINUOUS
10
0.353307
20
1.08553
11
0.355551
21
1.08396
0
LINE
8
BLACK
6
CONTINUOUS
10
0.355551
20
1.08396
11
0.369552
21
1.09796
0
LINE
8
BLACK
6
CONTINUOUS
10
0.369552
20
1.09796
11
0.369788
21
1.09839
0
LINE
8
BLACK
6
CONTINUOUS
10
0.369788
20
1.09839
11
0.369732
21
1.09847
0
LINE
8
BLACK
6
CONTINUOUS
10
0.369732
20
1.09847
11
0.369437
21
1.09885
0
LINE
8
BLACK
6
CONTINUOUS
10
0.369437
20
1.09885
11
0.364058
21
1.10258
0
LINE
8
BLACK
6
CONTINUOUS
10
0.335801
20
0.717484
11
0.341445
21
0.715844
0
LINE
8
BLACK
6
CONTINUOUS
10
0.341445
20
0.715844
11
0.34644
21
0.712747
0
LINE
8
BLACK
6
CONTINUOUS
10
0.34644
20
0.712747
11
0.350419
21
0.708421
0
LINE
8
BLACK
6
CONTINUOUS
10
0.350419
20
0.708421
11
0.353087
21
0.703184
0
LINE
8
BLACK
6
CONTINUOUS
10
0.353087
20
0.703184
11
0.354249
21
0.697423
0
LINE
8
BLACK
6
CONTINUOUS
10
0.354249
20
0.697423
11
0.353818
21
0.691561
0
LINE
8
BLACK
6
CONTINUOUS
10
0.353818
20
0.691561
11
0.351827
21
0.686031
0
LINE
8
BLACK
6
CONTINUOUS
10
0.351827
20
0.686031
11
0.348423
21
0.68124
0
LINE
8
BLACK
6
CONTINUOUS
10
0.348423
20
0.68124
11
0.343855
21
0.677541
0
LINE
8
BLACK
6
CONTINUOUS
10
0.343855
20
0.677541
11
0.338461
21
0.675207
0
LINE
8
BLACK
6
CONTINUOUS
10
0.338461
20
0.675207
11
0.332638
21
0.674409
0
LINE
8
BLACK
6
CONTINUOUS
10
0.332638
20
0.674409
11
0.324764
21
0.674409
0
LINE
8
BLACK
6
CONTINUOUS
10
0.324764
20
0.674409
11
0.321601
21
0.674642
0
LINE
8
BLACK
6
CONTINUOUS
10
0.321601
20
0.674642
11
0.315956
21
0.676281
0
LINE
8
BLACK
6
CONTINUOUS
10
0.315956
20
0.676281
11
0.310961
21
0.679379
0
LINE
8
BLACK
6
CONTINUOUS
10
0.310961
20
0.679379
11
0.306983
21
0.683705
0
LINE
8
BLACK
6
CONTINUOUS
10
0.306983
20
0.683705
11
0.304315
21
0.688942
0
LINE
8
BLACK
6
CONTINUOUS
10
0.304315
20
0.688942
11
0.303153
21
0.694703
0
LINE
8
BLACK
6
CONTINUOUS
10
0.303153
20
0.694703
11
0.303583
21
0.700565
0
LINE
8
BLACK
6
CONTINUOUS
10
0.303583
20
0.700565
11
0.305574
21
0.706095
0
LINE
8
BLACK
6
CONTINUOUS
10
0.305574
20
0.706095
11
0.308979
21
0.710886
0
LINE
8
BLACK
6
CONTINUOUS
10
0.308979
20
0.710886
11
0.313547
21
0.714585
0
LINE
8
BLACK
6
CONTINUOUS
10
0.313547
20
0.714585
11
0.318941
21
0.716919
0
LINE
8
BLACK
6
CONTINUOUS
10
0.318941
20
0.716919
11
0.324764
21
0.717717
0
LINE
8
BLACK
6
CONTINUOUS
10
0.324764
20
0.717717
11
0.332638
21
0.717717
0
LINE
8
BLACK
6
CONTINUOUS
10
0.332638
20
0.717717
11
0.335801
21
0.717484
0
LINE
8
BLACK
6
CONTINUOUS
10
2.0671
20
0.717484
11
2.07274
21
0.715844
0
LINE
8
BLACK
6
CONTINUOUS
10
2.07274
20
0.715844
11
2.07774
21
0.712747
0
LINE
8
BLACK
6
CONTINUOUS
10
2.07774
20
0.712747
11
2.08172
21
0.708421
0
LINE
8
BLACK
6
CONTINUOUS
10
2.08172
20
0.708421
11
2.08439
21
0.703184
0
LINE
8
BLACK
6
CONTINUOUS
10
2.08439
20
0.703184
11
2.08555
21
0.697423
0
LINE
8
BLACK
6
CONTINUOUS
10
2.08555
20
0.697423
11
2.08512
21
0.691561
0
LINE
8
BLACK
6
CONTINUOUS
10
2.08512
20
0.691561
11
2.08313
21
0.686031
0
LINE
8
BLACK
6
CONTINUOUS
10
2.08313
20
0.686031
11
2.07972
21
0.68124
0
LINE
8
BLACK
6
CONTINUOUS
10
2.07972
20
0.68124
11
2.07515
21
0.677541
0
LINE
8
BLACK
6
CONTINUOUS
10
2.07515
20
0.677541
11
2.06976
21
0.675207
0
LINE
8
BLACK
6
CONTINUOUS
10
2.06976
20
0.675207
11
2.06394
21
0.674409
0
LINE
8
BLACK
6
CONTINUOUS
10
2.06394
20
0.674409
11
2.05606
21
0.674409
0
LINE
8
BLACK
6
CONTINUOUS
10
2.05606
20
0.674409
11
2.0529
21
0.674642
0
LINE
8
BLACK
6
CONTINUOUS
10
2.0529
20
0.674642
11
2.04726
21
0.676281
0
LINE
8
BLACK
6
CONTINUOUS
10
2.04726
20
0.676281
11
2.04226
21
0.679379
0
LINE
8
BLACK
6
CONTINUOUS
10
2.04226
20
0.679379
11
2.03828
21
0.683705
0
LINE
8
BLACK
6
CONTINUOUS
10
2.03828
20
0.683705
11
2.03561
21
0.688942
0
LINE
8
BLACK
6
CONTINUOUS
10
2.03561
20
0.688942
11
2.03445
21
0.694703
0
LINE
8
BLACK
6
CONTINUOUS
10
2.03445
20
0.694703
11
2.03488
21
0.700565
0
LINE
8
BLACK
6
CONTINUOUS
10
2.03488
20
0.700565
11
2.03687
21
0.706095
0
LINE
8
BLACK
6
CONTINUOUS
10
2.03687
20
0.706095
11
2.04028
21
0.710886
0
LINE
8
BLACK
6
CONTINUOUS
10
2.04028
20
0.710886
11
2.04485
21
0.714585
0
LINE
8
BLACK
6
CONTINUOUS
10
2.04485
20
0.714585
11
2.05024
21
0.716919
0
LINE
8
BLACK
6
CONTINUOUS
10
2.05024
20
0.716919
11
2.05606
21
0.717717
0
LINE
8
BLACK
6
CONTINUOUS
10
2.05606
20
0.717717
11
2.06394
21
0.717717
0
LINE
8
BLACK
6
CONTINUOUS
10
2.06394
20
0.717717
11
2.0671
21
0.717484
0
LINE
8
BLACK
6
CONTINUOUS
10
0.335801
20
0.867484
11
0.341445
21
0.865844
0
LINE
8
BLACK
6
CONTINUOUS
10
0.341445
20
0.865844
11
0.34644
21
0.862747
0
LINE
8
BLACK
6
CONTINUOUS
10
0.34644
20
0.862747
11
0.350419
21
0.858421
0
LINE
8
BLACK
6
CONTINUOUS
10
0.350419
20
0.858421
11
0.353087
21
0.853184
0
LINE
8
BLACK
6
CONTINUOUS
10
0.353087
20
0.853184
11
0.354249
21
0.847423
0
LINE
8
BLACK
6
CONTINUOUS
10
0.354249
20
0.847423
11
0.353818
21
0.841561
0
LINE
8
BLACK
6
CONTINUOUS
10
0.353818
20
0.841561
11
0.351827
21
0.836031
0
LINE
8
BLACK
6
CONTINUOUS
10
0.351827
20
0.836031
11
0.348423
21
0.83124
0
LINE
8
BLACK
6
CONTINUOUS
10
0.348423
20
0.83124
11
0.343855
21
0.827541
0
LINE
8
BLACK
6
CONTINUOUS
10
0.343855
20
0.827541
11
0.338461
21
0.825207
0
LINE
8
BLACK
6
CONTINUOUS
10
0.338461
20
0.825207
11
0.332638
21
0.824409
0
LINE
8
BLACK
6
CONTINUOUS
10
0.332638
20
0.824409
11
0.324764
21
0.824409
0
LINE
8
BLACK
6
CONTINUOUS
10
0.324764
20
0.824409
11
0.321601
21
0.824642
0
LINE
8
BLACK
6
CONTINUOUS
10
0.321601
20
0.824642
11
0.315956
21
0.826281
0
LINE
8
BLACK
6
CONTINUOUS
10
0.315956
20
0.826281
11
0.310961
21
0.829379
0
LINE
8
BLACK
6
CONTINUOUS
10
0.310961
20
0.829379
11
0.306983
21
0.833705
0
LINE
8
BLACK
6
CONTINUOUS
10
0.306983
20
0.833705
11
0.304315
21
0.838942
0
LINE
8
BLACK
6
CONTINUOUS
10
0.304315
20
0.838942
11
0.303153
21
0.844703
0
LINE
8
BLACK
6
CONTINUOUS
10
0.303153
20
0.844703
11
0.303583
21
0.850565
0
LINE
8
BLACK
6
CONTINUOUS
10
0.303583
20
0.850565
11
0.305574
21
0.856095
0
LINE
8
BLACK
6
CONTINUOUS
10
0.305574
20
0.856095
11
0.308979
21
0.860886
0
LINE
8
BLACK
6
CONTINUOUS
10
0.308979
20
0.860886
11
0.313547
21
0.864585
0
LINE
8
BLACK
6
CONTINUOUS
10
0.313547
20
0.864585
11
0.318941
21
0.866919
0
LINE
8
BLACK
6
CONTINUOUS
10
0.318941
20
0.866919
11
0.324764
21
0.867717
0
LINE
8
BLACK
6
CONTINUOUS
10
0.324764
20
0.867717
11
0.332638
21
0.867717
0
LINE
8
BLACK
6
CONTINUOUS
10
0.332638
20
0.867717
11
0.335801
21
0.867484
0
LINE
8
BLACK
6
CONTINUOUS
10
2.0671
20
0.867484
11
2.07274
21
0.865844
0
LINE
8
BLACK
6
CONTINUOUS
10
2.07274
20
0.865844
11
2.07774
21
0.862747
0
LINE
8
BLACK
6
CONTINUOUS
10
2.07774
20
0.862747
11
2.08172
21
0.858421
0
LINE
8
BLACK
6
CONTINUOUS
10
2.08172
20
0.858421
11
2.08439
21
0.853184
0
LINE
8
BLACK
6
CONTINUOUS
10
2.08439
20
0.853184
11
2.08555
21
0.847423
0
LINE
8
BLACK
6
CONTINUOUS
10
2.08555
20
0.847423
11
2.08512
21
0.841561
0
LINE
8
BLACK
6
CONTINUOUS
10
2.08512
20
0.841561
11
2.08313
21
0.836031
0
LINE
8
BLACK
6
CONTINUOUS
10
2.08313
20
0.836031
11
2.07972
21
0.83124
0
LINE
8
BLACK
6
CONTINUOUS
10
2.07972
20
0.83124
11
2.07515
21
0.827541
0
LINE
8
BLACK
6
CONTINUOUS
10
2.07515
20
0.827541
11
2.06976
21
0.825207
0
LINE
8
BLACK
6
CONTINUOUS
10
2.06976
20
0.825207
11
2.06394
21
0.824409
0
LINE
8
BLACK
6
CONTINUOUS
10
2.06394
20
0.824409
11
2.05606
21
0.824409
0
LINE
8
BLACK
6
CONTINUOUS
10
2.05606
20
0.824409
11
2.0529
21
0.824642
0
LINE
8
BLACK
6
CONTINUOUS
10
2.0529
20
0.824642
11
2.04726
21
0.826281
0
LINE
8
BLACK
6
CONTINUOUS
10
2.04726
20
0.826281
11
2.04226
21
0.829379
0
LINE
8
BLACK
6
CONTINUOUS
10
2.04226
20
0.829379
11
2.03828
21
0.833705
0
LINE
8
BLACK
6
CONTINUOUS
10
2.03828
20
0.833705
11
2.03561
21
0.838942
0
LINE
8
BLACK
6
CONTINUOUS
10
2.03561
20
0.838942
11
2.03445
21
0.844703
0
LINE
8
BLACK
6
CONTINUOUS
10
2.03445
20
0.844703
11
2.03488
21
0.850565
0
LINE
8
BLACK
6
CONTINUOUS
10
2.03488
20
0.850565
11
2.03687
21
0.856095
0
LINE
8
BLACK
6
CONTINUOUS
10
2.03687
20
0.856095
11
2.04028
21
0.860886
0
LINE
8
BLACK
6
CONTINUOUS
10
2.04028
20
0.860886
11
2.04485
21
0.864585
0
LINE
8
BLACK
6
CONTINUOUS
10
2.04485
20
0.864585
11
2.05024
21
0.866919
0
LINE
8
BLACK
6
CONTINUOUS
10
2.05024
20
0.866919
11
2.05606
21
0.867717
0
LINE
8
BLACK
6
CONTINUOUS
10
2.05606
20
0.867717
11
2.06394
21
0.867717
0
LINE
8
BLACK
6
CONTINUOUS
10
2.06394
20
0.867717
11
2.0671
21
0.867484
0
LINE
8
BLACK
6
CONTINUOUS
10
0.335801
20
0.767484
11
0.341445
21
0.765844
0
LINE
8
BLACK
6
CONTINUOUS
10
0.341445
20
0.765844
11
0.34644
21
0.762747
0
LINE
8
BLACK
6
CONTINUOUS
10
0.34644
20
0.762747
11
0.350419
21
0.758421
0
LINE
8
BLACK
6
CONTINUOUS
10
0.350419
20
0.758421
11
0.353087
21
0.753184
0
LINE
8
BLACK
6
CONTINUOUS
10
0.353087
20
0.753184
11
0.354249
21
0.747423
0
LINE
8
BLACK
6
CONTINUOUS
10
0.354249
20
0.747423
11
0.353818
21
0.741561
0
LINE
8
BLACK
6
CONTINUOUS
10
0.353818
20
0.741561
11
0.351827
21
0.736031
0
LINE
8
BLACK
6
CONTINUOUS
10
0.351827
20
0.736031
11
0.348423
21
0.73124
0
LINE
8
BLACK
6
CONTINUOUS
10
0.348423
20
0.73124
11
0.343855
21
0.727541
0
LINE
8
BLACK
6
CONTINUOUS
10
0.343855
20
0.727541
11
0.338461
21
0.725207
0
LINE
8
BLACK
6
CONTINUOUS
10
0.338461
20
0.725207
11
0.332638
21
0.724409
0
LINE
8
BLACK
6
CONTINUOUS
10
0.332638
20
0.724409
11
0.324764
21
0.724409
0
LINE
8
BLACK
6
CONTINUOUS
10
0.324764
20
0.724409
11
0.321601
21
0.724642
0
LINE
8
BLACK
6
CONTINUOUS
10
0.321601
20
0.724642
11
0.315956
21
0.726281
0
LINE
8
BLACK
6
CONTINUOUS
10
0.315956
20
0.726281
11
0.310961
21
0.729379
0
LINE
8
BLACK
6
CONTINUOUS
10
0.310961
20
0.729379
11
0.306983
21
0.733705
0
LINE
8
BLACK
6
CONTINUOUS
10
0.306983
20
0.733705
11
0.304315
21
0.738942
0
LINE
8
BLACK
6
CONTINUOUS
10
0.304315
20
0.738942
11
0.303153
21
0.744703
0
LINE
8
BLACK
6
CONTINUOUS
10
0.303153
20
0.744703
11
0.303583
21
0.750565
0
LINE
8
BLACK
6
CONTINUOUS
10
0.303583
20
0.750565
11
0.305574
21
0.756095
0
LINE
8
BLACK
6
CONTINUOUS
10
0.305574
20
0.756095
11
0.308979
21
0.760886
0
LINE
8
BLACK
6
CONTINUOUS
10
0.308979
20
0.760886
11
0.313547
21
0.764585
0
LINE
8
BLACK
6
CONTINUOUS
10
0.313547
20
0.764585
11
0.318941
21
0.766919
0
LINE
8
BLACK
6
CONTINUOUS
10
0.318941
20
0.766919
11
0.324764
21
0.767717
0
LINE
8
BLACK
6
CONTINUOUS
10
0.324764
20
0.767717
11
0.332638
21
0.767717
0
LINE
8
BLACK
6
CONTINUOUS
10
0.332638
20
0.767717
11
0.335801
21
0.767484
0
LINE
8
BLACK
6
CONTINUOUS
10
2.0671
20
0.767484
11
2.07274
21
0.765844
0
LINE
8
BLACK
6
CONTINUOUS
10
2.07274
20
0.765844
11
2.07774
21
0.762747
0
LINE
8
BLACK
6
CONTINUOUS
10
2.07774
20
0.762747
11
2.08172
21
0.758421
0
LINE
8
BLACK
6
CONTINUOUS
10
2.08172
20
0.758421
11
2.08439
21
0.753184
0
LINE
8
BLACK
6
CONTINUOUS
10
2.08439
20
0.753184
11
2.08555
21
0.747423
0
LINE
8
BLACK
6
CONTINUOUS
10
2.08555
20
0.747423
11
2.08512
21
0.741561
0
LINE
8
BLACK
6
CONTINUOUS
10
2.08512
20
0.741561
11
2.08313
21
0.736031
0
LINE
8
BLACK
6
CONTINUOUS
10
2.08313
20
0.736031
11
2.07972
21
0.73124
0
LINE
8
BLACK
6
CONTINUOUS
10
2.07972
20
0.73124
11
2.07515
21
0.727541
0
LINE
8
BLACK
6
CONTINUOUS
10
2.07515
20
0.727541
11
2.06976
21
0.725207
0
LINE
8
BLACK
6
CONTINUOUS
10
2.06976
20
0.725207
11
2.06394
21
0.724409
0
LINE
8
BLACK
6
CONTINUOUS
10
2.06394
20
0.724409
11
2.05606
21
0.724409
0
LINE
8
BLACK
6
CONTINUOUS
10
2.05606
20
0.724409
11
2.0529
21
0.724642
0
LINE
8
BLACK
6
CONTINUOUS
10
2.0529
20
0.724642
11
2.04726
21
0.726281
0
LINE
8
BLACK
6
CONTINUOUS
10
2.04726
20
0.726281
11
2.04226
21
0.729379
0
LINE
8
BLACK
6
CONTINUOUS
10
2.04226
20
0.729379
11
2.03828
21
0.733705
0
LINE
8
BLACK
6
CONTINUOUS
10
2.03828
20
0.733705
11
2.03561
21
0.738942
0
LINE
8
BLACK
6
CONTINUOUS
10
2.03561
20
0.738942
11
2.03445
21
0.744703
0
LINE
8
BLACK
6
CONTINUOUS
10
2.03445
20
0.744703
11
2.03488
21
0.750565
0
LINE
8
BLACK
6
CONTINUOUS
10
2.03488
20
0.750565
11
2.03687
21
0.756095
0
LINE
8
BLACK
6
CONTINUOUS
10
2.03687
20
0.756095
11
2.04028
21
0.760886
0
LINE
8
BLACK
6
CONTINUOUS
10
2.04028
20
0.760886
11
2.04485
21
0.764585
0
LINE
8
BLACK
6
CONTINUOUS
10
2.04485
20
0.764585
11
2.05024
21
0.766919
0
LINE
8
BLACK
6
CONTINUOUS
10
2.05024
20
0.766919
11
2.05606
21
0.767717
0
LINE
8
BLACK
6
CONTINUOUS
10
2.05606
20
0.767717
11
2.06394
21
0.767717
0
LINE
8
BLACK
6
CONTINUOUS
10
2.06394
20
0.767717
11
2.0671
21
0.767484
0
LINE
8
BLACK
6
CONTINUOUS
10
0.335801
20
0.917484
11
0.341445
21
0.915844
0
LINE
8
BLACK
6
CONTINUOUS
10
0.341445
20
0.915844
11
0.34644
21
0.912747
0
LINE
8
BLACK
6
CONTINUOUS
10
0.34644
20
0.912747
11
0.350419
21
0.908421
0
LINE
8
BLACK
6
CONTINUOUS
10
0.350419
20
0.908421
11
0.353087
21
0.903184
0
LINE
8
BLACK
6
CONTINUOUS
10
0.353087
20
0.903184
11
0.354249
21
0.897423
0
LINE
8
BLACK
6
CONTINUOUS
10
0.354249
20
0.897423
11
0.353818
21
0.891561
0
LINE
8
BLACK
6
CONTINUOUS
10
0.353818
20
0.891561
11
0.351827
21
0.886031
0
LINE
8
BLACK
6
CONTINUOUS
10
0.351827
20
0.886031
11
0.348423
21
0.88124
0
LINE
8
BLACK
6
CONTINUOUS
10
0.348423
20
0.88124
11
0.343855
21
0.877541
0
LINE
8
BLACK
6
CONTINUOUS
10
0.343855
20
0.877541
11
0.338461
21
0.875207
0
LINE
8
BLACK
6
CONTINUOUS
10
0.338461
20
0.875207
11
0.332638
21
0.874409
0
LINE
8
BLACK
6
CONTINUOUS
10
0.332638
20
0.874409
11
0.324764
21
0.874409
0
LINE
8
BLACK
6
CONTINUOUS
10
0.324764
20
0.874409
11
0.321601
21
0.874642
0
LINE
8
BLACK
6
CONTINUOUS
10
0.321601
20
0.874642
11
0.315956
21
0.876281
0
LINE
8
BLACK
6
CONTINUOUS
10
0.315956
20
0.876281
11
0.310961
21
0.879379
0
LINE
8
BLACK
6
CONTINUOUS
10
0.310961
20
0.879379
11
0.306983
21
0.883705
0
LINE
8
BLACK
6
CONTINUOUS
10
0.306983
20
0.883705
11
0.304315
21
0.888942
0
LINE
8
BLACK
6
CONTINUOUS
10
0.304315
20
0.888942
11
0.303153
21
0.894703
0
LINE
8
BLACK
6
CONTINUOUS
10
0.303153
20
0.894703
11
0.303583
21
0.900565
0
LINE
8
BLACK
6
CONTINUOUS
10
0.303583
20
0.900565
11
0.305574
21
0.906095
0
LINE
8
BLACK
6
CONTINUOUS
10
0.305574
20
0.906095
11
0.308979
21
0.910886
0
LINE
8
BLACK
6
CONTINUOUS
10
0.308979
20
0.910886
11
0.313547
21
0.914585
0
LINE
8
BLACK
6
CONTINUOUS
10
0.313547
20
0.914585
11
0.318941
21
0.916919
0
LINE
8
BLACK
6
CONTINUOUS
10
0.318941
20
0.916919
11
0.324764
21
0.917717
0
LINE
8
BLACK
6
CONTINUOUS
10
0.324764
20
0.917717
11
0.332638
21
0.917717
0
LINE
8
BLACK
6
CONTINUOUS
10
0.332638
20
0.917717
11
0.335801
21
0.917484
0
LINE
8
BLACK
6
CONTINUOUS
10
2.0671
20
0.917484
11
2.07274
21
0.915844
0
LINE
8
BLACK
6
CONTINUOUS
10
2.07274
20
0.915844
11
2.07774
21
0.912747
0
LINE
8
BLACK
6
CONTINUOUS
10
2.07774
20
0.912747
11
2.08172
21
0.908421
0
LINE
8
BLACK
6
CONTINUOUS
10
2.08172
20
0.908421
11
2.08439
21
0.903184
0
LINE
8
BLACK
6
CONTINUOUS
10
2.08439
20
0.903184
11
2.08555
21
0.897423
0
LINE
8
BLACK
6
CONTINUOUS
10
2.08555
20
0.897423
11
2.08512
21
0.891561
0
LINE
8
BLACK
6
CONTINUOUS
10
2.08512
20
0.891561
11
2.08313
21
0.886031
0
LINE
8
BLACK
6
CONTINUOUS
10
2.08313
20
0.886031
11
2.07972
21
0.88124
0
LINE
8
BLACK
6
CONTINUOUS
10
2.07972
20
0.88124
11
2.07515
21
0.877541
0
LINE
8
BLACK
6
CONTINUOUS
10
2.07515
20
0.877541
11
2.06976
21
0.875207
0
LINE
8
BLACK
6
CONTINUOUS
10
2.06976
20
0.875207
11
2.06394
21
0.874409
0
LINE
8
BLACK
6
CONTINUOUS
10
2.06394
20
0.874409
11
2.05606
21
0.874409
0
LINE
8
BLACK
6
CONTINUOUS
10
2.05606
20
0.874409
11
2.0529
21
0.874642
0
LINE
8
BLACK
6
CONTINUOUS
10
2.0529
20
0.874642
11
2.04726
21
0.876281
0
LINE
8
BLACK
6
CONTINUOUS
10
2.04726
20
0.876281
11
2.04226
21
0.879379
0
LINE
8
BLACK
6
CONTINUOUS
10
2.04226
20
0.879379
11
2.03828
21
0.883705
0
LINE
8
BLACK
6
CONTINUOUS
10
2.03828
20
0.883705
11
2.03561
21
0.888942
0
LINE
8
BLACK
6
CONTINUOUS
10
2.03561
20
0.888942
11
2.03445
21
0.894703
0
LINE
8
BLACK
6
CONTINUOUS
10
2.03445
20
0.894703
11
2.03488
21
0.900565
0
LINE
8
BLACK
6
CONTINUOUS
10
2.03488
20
0.900565
11
2.03687
21
0.906095
0
LINE
8
BLACK
6
CONTINUOUS
10
2.03687
20
0.906095
11
2.04028
21
0.910886
0
LINE
8
BLACK
6
CONTINUOUS
10
2.04028
20
0.910886
11
2.04485
21
0.914585
0
LINE
8
BLACK
6
CONTINUOUS
10
2.04485
20
0.914585
11
2.05024
21
0.916919
0
LINE
8
BLACK
6
CONTINUOUS
10
2.05024
20
0.916919
11
2.05606
21
0.917717
0
LINE
8
BLACK
6
CONTINUOUS
10
2.05606
20
0.917717
11
2.06394
21
0.917717
0
LINE
8
BLACK
6
CONTINUOUS
10
2.06394
20
0.917717
11
2.0671
21
0.917484
  0
ENDSEC
  0
EOF
