  0
SECTION
  2
HEADER
  9
$ANGBASE
  50
0.0
  9
$ANGDIR
  70
1
  9
$MEASUREMENT
  70
0
  0
ENDSEC
  0
SECTION
  2
TABLES
  0
TABLE
  2
LTYPE
  70
4
  0
LTYPE
  5
40F
  2
CONTINUOUS
  70
0
  3
Solid line
  72
65
  73
0
  40
0.0
  0
LTYPE
  5
410
  2
DASHDOT
 70
0
  3
Dash Dot ____ _ ____ _
 72
65
 73
4
 40
2.0
 49
1.25
 49
-0.25
 49
0.25
 49
-0.25
  0
LTYPE
  5
411
  2
DASHED
 70
0
  3
Dashed __ __ __ __ __
 72
65
 73
2
 40
0.75
 49
0.5
 49
-0.25
  0
LTYPE
  5
43B
  2
DOTTED
 70
0
  3
Dotted .  .  .  .
 72
65
 73
2
 40
0.2
 49
0.0
 49
-0.2
  0
ENDTAB
  0
TABLE
  2
STYLE
  70
4
  0
STYLE
  2
KICAD
  70
0
  40
0
  41
1
  42
1
  50
0
  71
0
  3
isocp.shx
  0
STYLE
  2
KICADB
  70
0
  40
0
  41
1
  42
1
  50
0
  71
0
  3
isocp.shx
  0
STYLE
  2
KICADI
  70
0
  40
0
  41
1
  42
1
  50
15
  71
0
  3
isocp.shx
  0
STYLE
  2
KICADBI
  70
0
  40
0
  41
1
  42
1
  50
15
  71
0
  3
isocp.shx
  0
ENDTAB
  0
TABLE
  2
LAYER
  70
1
  0
LAYER
  2
BLACK
  70
0
  62
7
  6
CONTINUOUS
  0
ENDTAB
  0
ENDSEC
  0
SECTION
  2
ENTITIES
0
LINE
8
BLACK
6
CONTINUOUS
10
0.226364
20
0.464671
11
0.225787
21
0.466063
0
LINE
8
BLACK
6
CONTINUOUS
10
0.225787
20
0.466063
11
0.225787
21
1.12606
0
LINE
8
BLACK
6
CONTINUOUS
10
0.225787
20
1.12606
11
0.226364
21
1.12745
0
LINE
8
BLACK
6
CONTINUOUS
10
0.226364
20
1.12745
11
0.227756
21
1.12803
0
LINE
8
BLACK
6
CONTINUOUS
10
0.227756
20
1.12803
11
0.432756
21
1.12803
0
LINE
8
BLACK
6
CONTINUOUS
10
0.432756
20
1.12803
11
0.434148
21
1.12745
0
LINE
8
BLACK
6
CONTINUOUS
10
0.434148
20
1.12745
11
0.434724
21
1.12606
0
LINE
8
BLACK
6
CONTINUOUS
10
0.434724
20
1.12606
11
0.434724
21
0.466063
0
LINE
8
BLACK
6
CONTINUOUS
10
0.434724
20
0.466063
11
0.434148
21
0.464671
0
LINE
8
BLACK
6
CONTINUOUS
10
0.434148
20
0.464671
11
0.432756
21
0.464094
0
LINE
8
BLACK
6
CONTINUOUS
10
0.432756
20
0.464094
11
0.227756
21
0.464094
0
LINE
8
BLACK
6
CONTINUOUS
10
0.227756
20
0.464094
11
0.226364
21
0.464671
0
LINE
8
BLACK
6
CONTINUOUS
10
0.229724
20
1.12409
11
0.229724
21
0.468031
0
LINE
8
BLACK
6
CONTINUOUS
10
0.229724
20
0.468031
11
0.430787
21
0.468031
0
LINE
8
BLACK
6
CONTINUOUS
10
0.430787
20
0.468031
11
0.430787
21
1.12409
0
LINE
8
BLACK
6
CONTINUOUS
10
0.430787
20
1.12409
11
0.229724
21
1.12409
0
LINE
8
BLACK
6
CONTINUOUS
10
0.271431
20
0.795676
11
0.271495
21
0.795678
0
LINE
8
BLACK
6
CONTINUOUS
10
0.271495
20
0.795678
11
0.27712
21
0.793803
0
LINE
8
BLACK
6
CONTINUOUS
10
0.27712
20
0.793803
11
0.278021
21
0.793315
0
LINE
8
BLACK
6
CONTINUOUS
10
0.278021
20
0.793315
11
0.278114
21
0.793164
0
LINE
8
BLACK
6
CONTINUOUS
10
0.278114
20
0.793164
11
0.278274
21
0.79309
0
LINE
8
BLACK
6
CONTINUOUS
10
0.278274
20
0.79309
11
0.282023
21
0.78934
0
LINE
8
BLACK
6
CONTINUOUS
10
0.282023
20
0.78934
11
0.282612
21
0.7885
0
LINE
8
BLACK
6
CONTINUOUS
10
0.282612
20
0.7885
11
0.282627
21
0.788324
0
LINE
8
BLACK
6
CONTINUOUS
10
0.282627
20
0.788324
11
0.282737
21
0.788186
0
LINE
8
BLACK
6
CONTINUOUS
10
0.282737
20
0.788186
11
0.284611
21
0.782562
0
LINE
8
BLACK
6
CONTINUOUS
10
0.284611
20
0.782562
11
0.284741
21
0.781689
0
LINE
8
BLACK
6
CONTINUOUS
10
0.284741
20
0.781689
11
0.284763
21
0.781628
0
LINE
8
BLACK
6
CONTINUOUS
10
0.284763
20
0.781628
11
0.284763
21
0.777879
0
LINE
8
BLACK
6
CONTINUOUS
10
0.284763
20
0.777879
11
0.284585
21
0.776869
0
LINE
8
BLACK
6
CONTINUOUS
10
0.284585
20
0.776869
11
0.283287
21
0.775321
0
LINE
8
BLACK
6
CONTINUOUS
10
0.283287
20
0.775321
11
0.281297
21
0.774971
0
LINE
8
BLACK
6
CONTINUOUS
10
0.281297
20
0.774971
11
0.279548
21
0.775981
0
LINE
8
BLACK
6
CONTINUOUS
10
0.279548
20
0.775981
11
0.278857
21
0.777879
0
LINE
8
BLACK
6
CONTINUOUS
10
0.278857
20
0.777879
11
0.278857
21
0.781149
0
LINE
8
BLACK
6
CONTINUOUS
10
0.278857
20
0.781149
11
0.277355
21
0.785657
0
LINE
8
BLACK
6
CONTINUOUS
10
0.277355
20
0.785657
11
0.274591
21
0.788421
0
LINE
8
BLACK
6
CONTINUOUS
10
0.274591
20
0.788421
11
0.270083
21
0.789924
0
LINE
8
BLACK
6
CONTINUOUS
10
0.270083
20
0.789924
11
0.24244
21
0.789924
0
LINE
8
BLACK
6
CONTINUOUS
10
0.24244
20
0.789924
11
0.24143
21
0.790102
0
LINE
8
BLACK
6
CONTINUOUS
10
0.24143
20
0.790102
11
0.239883
21
0.7914
0
LINE
8
BLACK
6
CONTINUOUS
10
0.239883
20
0.7914
11
0.239532
21
0.793389
0
LINE
8
BLACK
6
CONTINUOUS
10
0.239532
20
0.793389
11
0.240542
21
0.795139
0
LINE
8
BLACK
6
CONTINUOUS
10
0.240542
20
0.795139
11
0.24244
21
0.795829
0
LINE
8
BLACK
6
CONTINUOUS
10
0.24244
20
0.795829
11
0.270562
21
0.795829
0
LINE
8
BLACK
6
CONTINUOUS
10
0.270562
20
0.795829
11
0.271431
21
0.795676
0
LINE
8
BLACK
6
CONTINUOUS
10
0.284072
20
0.834145
11
0.284763
21
0.832247
0
LINE
8
BLACK
6
CONTINUOUS
10
0.284763
20
0.832247
11
0.284763
21
0.80975
0
LINE
8
BLACK
6
CONTINUOUS
10
0.284763
20
0.80975
11
0.284585
21
0.80874
0
LINE
8
BLACK
6
CONTINUOUS
10
0.284585
20
0.80874
11
0.283287
21
0.807192
0
LINE
8
BLACK
6
CONTINUOUS
10
0.283287
20
0.807192
11
0.281297
21
0.806842
0
LINE
8
BLACK
6
CONTINUOUS
10
0.281297
20
0.806842
11
0.279548
21
0.807852
0
LINE
8
BLACK
6
CONTINUOUS
10
0.279548
20
0.807852
11
0.278857
21
0.80975
0
LINE
8
BLACK
6
CONTINUOUS
10
0.278857
20
0.80975
11
0.278857
21
0.818045
0
LINE
8
BLACK
6
CONTINUOUS
10
0.278857
20
0.818045
11
0.251444
21
0.818045
0
LINE
8
BLACK
6
CONTINUOUS
10
0.251444
20
0.818045
11
0.253902
21
0.815587
0
LINE
8
BLACK
6
CONTINUOUS
10
0.253902
20
0.815587
11
0.254408
21
0.814864
0
LINE
8
BLACK
6
CONTINUOUS
10
0.254408
20
0.814864
11
0.254455
21
0.81482
0
LINE
8
BLACK
6
CONTINUOUS
10
0.254455
20
0.81482
11
0.25633
21
0.81107
0
LINE
8
BLACK
6
CONTINUOUS
10
0.25633
20
0.81107
11
0.256622
21
0.810087
0
LINE
8
BLACK
6
CONTINUOUS
10
0.256622
20
0.810087
11
0.256153
21
0.808123
0
LINE
8
BLACK
6
CONTINUOUS
10
0.256153
20
0.808123
11
0.254531
21
0.806919
0
LINE
8
BLACK
6
CONTINUOUS
10
0.254531
20
0.806919
11
0.252514
21
0.80704
0
LINE
8
BLACK
6
CONTINUOUS
10
0.252514
20
0.80704
11
0.251048
21
0.808429
0
LINE
8
BLACK
6
CONTINUOUS
10
0.251048
20
0.808429
11
0.249387
21
0.81175
0
LINE
8
BLACK
6
CONTINUOUS
10
0.249387
20
0.81175
11
0.246183
21
0.814954
0
LINE
8
BLACK
6
CONTINUOUS
10
0.246183
20
0.814954
11
0.240802
21
0.818541
0
LINE
8
BLACK
6
CONTINUOUS
10
0.240802
20
0.818541
11
0.240061
21
0.81925
0
LINE
8
BLACK
6
CONTINUOUS
10
0.240061
20
0.81925
11
0.240013
21
0.819413
0
LINE
8
BLACK
6
CONTINUOUS
10
0.240013
20
0.819413
11
0.239883
21
0.819522
0
LINE
8
BLACK
6
CONTINUOUS
10
0.239883
20
0.819522
11
0.239734
21
0.820366
0
LINE
8
BLACK
6
CONTINUOUS
10
0.239734
20
0.820366
11
0.239494
21
0.821188
0
LINE
8
BLACK
6
CONTINUOUS
10
0.239494
20
0.821188
11
0.239562
21
0.821344
0
LINE
8
BLACK
6
CONTINUOUS
10
0.239562
20
0.821344
11
0.239532
21
0.821511
0
LINE
8
BLACK
6
CONTINUOUS
10
0.239532
20
0.821511
11
0.239961
21
0.822253
0
LINE
8
BLACK
6
CONTINUOUS
10
0.239961
20
0.822253
11
0.240305
21
0.823038
0
LINE
8
BLACK
6
CONTINUOUS
10
0.240305
20
0.823038
11
0.240457
21
0.823113
0
LINE
8
BLACK
6
CONTINUOUS
10
0.240457
20
0.823113
11
0.240542
21
0.82326
0
LINE
8
BLACK
6
CONTINUOUS
10
0.240542
20
0.82326
11
0.241347
21
0.823553
0
LINE
8
BLACK
6
CONTINUOUS
10
0.241347
20
0.823553
11
0.242116
21
0.823933
0
LINE
8
BLACK
6
CONTINUOUS
10
0.242116
20
0.823933
11
0.242281
21
0.823893
0
LINE
8
BLACK
6
CONTINUOUS
10
0.242281
20
0.823893
11
0.24244
21
0.823951
0
LINE
8
BLACK
6
CONTINUOUS
10
0.24244
20
0.823951
11
0.278857
21
0.823951
0
LINE
8
BLACK
6
CONTINUOUS
10
0.278857
20
0.823951
11
0.278857
21
0.832247
0
LINE
8
BLACK
6
CONTINUOUS
10
0.278857
20
0.832247
11
0.279036
21
0.833257
0
LINE
8
BLACK
6
CONTINUOUS
10
0.279036
20
0.833257
11
0.280334
21
0.834804
0
LINE
8
BLACK
6
CONTINUOUS
10
0.280334
20
0.834804
11
0.282323
21
0.835155
0
LINE
8
BLACK
6
CONTINUOUS
10
0.282323
20
0.835155
11
0.284072
21
0.834145
0
LINE
8
BLACK
6
CONTINUOUS
10
1.95766
20
0.464671
11
1.95709
21
0.466063
0
LINE
8
BLACK
6
CONTINUOUS
10
1.95709
20
0.466063
11
1.95709
21
1.12606
0
LINE
8
BLACK
6
CONTINUOUS
10
1.95709
20
1.12606
11
1.95766
21
1.12745
0
LINE
8
BLACK
6
CONTINUOUS
10
1.95766
20
1.12745
11
1.95906
21
1.12803
0
LINE
8
BLACK
6
CONTINUOUS
10
1.95906
20
1.12803
11
2.16406
21
1.12803
0
LINE
8
BLACK
6
CONTINUOUS
10
2.16406
20
1.12803
11
2.16545
21
1.12745
0
LINE
8
BLACK
6
CONTINUOUS
10
2.16545
20
1.12745
11
2.16602
21
1.12606
0
LINE
8
BLACK
6
CONTINUOUS
10
2.16602
20
1.12606
11
2.16602
21
0.466063
0
LINE
8
BLACK
6
CONTINUOUS
10
2.16602
20
0.466063
11
2.16545
21
0.464671
0
LINE
8
BLACK
6
CONTINUOUS
10
2.16545
20
0.464671
11
2.16406
21
0.464094
0
LINE
8
BLACK
6
CONTINUOUS
10
2.16406
20
0.464094
11
1.95906
21
0.464094
0
LINE
8
BLACK
6
CONTINUOUS
10
1.95906
20
0.464094
11
1.95766
21
0.464671
0
LINE
8
BLACK
6
CONTINUOUS
10
1.96102
20
1.12409
11
1.96102
21
0.468031
0
LINE
8
BLACK
6
CONTINUOUS
10
1.96102
20
0.468031
11
2.16209
21
0.468031
0
LINE
8
BLACK
6
CONTINUOUS
10
2.16209
20
0.468031
11
2.16209
21
1.12409
0
LINE
8
BLACK
6
CONTINUOUS
10
2.16209
20
1.12409
11
1.96102
21
1.12409
0
LINE
8
BLACK
6
CONTINUOUS
10
2.00243
20
0.780676
11
2.0025
21
0.780678
0
LINE
8
BLACK
6
CONTINUOUS
10
2.0025
20
0.780678
11
2.00812
21
0.778803
0
LINE
8
BLACK
6
CONTINUOUS
10
2.00812
20
0.778803
11
2.00902
21
0.778315
0
LINE
8
BLACK
6
CONTINUOUS
10
2.00902
20
0.778315
11
2.00911
21
0.778164
0
LINE
8
BLACK
6
CONTINUOUS
10
2.00911
20
0.778164
11
2.00927
21
0.77809
0
LINE
8
BLACK
6
CONTINUOUS
10
2.00927
20
0.77809
11
2.01302
21
0.77434
0
LINE
8
BLACK
6
CONTINUOUS
10
2.01302
20
0.77434
11
2.01361
21
0.7735
0
LINE
8
BLACK
6
CONTINUOUS
10
2.01361
20
0.7735
11
2.01363
21
0.773324
0
LINE
8
BLACK
6
CONTINUOUS
10
2.01363
20
0.773324
11
2.01374
21
0.773186
0
LINE
8
BLACK
6
CONTINUOUS
10
2.01374
20
0.773186
11
2.01561
21
0.767562
0
LINE
8
BLACK
6
CONTINUOUS
10
2.01561
20
0.767562
11
2.01574
21
0.766689
0
LINE
8
BLACK
6
CONTINUOUS
10
2.01574
20
0.766689
11
2.01576
21
0.766628
0
LINE
8
BLACK
6
CONTINUOUS
10
2.01576
20
0.766628
11
2.01576
21
0.762879
0
LINE
8
BLACK
6
CONTINUOUS
10
2.01576
20
0.762879
11
2.01558
21
0.761869
0
LINE
8
BLACK
6
CONTINUOUS
10
2.01558
20
0.761869
11
2.01429
21
0.760321
0
LINE
8
BLACK
6
CONTINUOUS
10
2.01429
20
0.760321
11
2.0123
21
0.759971
0
LINE
8
BLACK
6
CONTINUOUS
10
2.0123
20
0.759971
11
2.01055
21
0.760981
0
LINE
8
BLACK
6
CONTINUOUS
10
2.01055
20
0.760981
11
2.00986
21
0.762879
0
LINE
8
BLACK
6
CONTINUOUS
10
2.00986
20
0.762879
11
2.00986
21
0.766149
0
LINE
8
BLACK
6
CONTINUOUS
10
2.00986
20
0.766149
11
2.00835
21
0.770657
0
LINE
8
BLACK
6
CONTINUOUS
10
2.00835
20
0.770657
11
2.00559
21
0.773421
0
LINE
8
BLACK
6
CONTINUOUS
10
2.00559
20
0.773421
11
2.00108
21
0.774924
0
LINE
8
BLACK
6
CONTINUOUS
10
2.00108
20
0.774924
11
1.97344
21
0.774924
0
LINE
8
BLACK
6
CONTINUOUS
10
1.97344
20
0.774924
11
1.97243
21
0.775102
0
LINE
8
BLACK
6
CONTINUOUS
10
1.97243
20
0.775102
11
1.97088
21
0.7764
0
LINE
8
BLACK
6
CONTINUOUS
10
1.97088
20
0.7764
11
1.97053
21
0.778389
0
LINE
8
BLACK
6
CONTINUOUS
10
1.97053
20
0.778389
11
1.97154
21
0.780139
0
LINE
8
BLACK
6
CONTINUOUS
10
1.97154
20
0.780139
11
1.97344
21
0.780829
0
LINE
8
BLACK
6
CONTINUOUS
10
1.97344
20
0.780829
11
2.00156
21
0.780829
0
LINE
8
BLACK
6
CONTINUOUS
10
2.00156
20
0.780829
11
2.00243
21
0.780676
0
LINE
8
BLACK
6
CONTINUOUS
10
1.98556
20
0.820046
11
1.98562
21
0.820048
0
LINE
8
BLACK
6
CONTINUOUS
10
1.98562
20
0.820048
11
1.99125
21
0.818173
0
LINE
8
BLACK
6
CONTINUOUS
10
1.99125
20
0.818173
11
1.99215
21
0.817685
0
LINE
8
BLACK
6
CONTINUOUS
10
1.99215
20
0.817685
11
1.99224
21
0.817534
0
LINE
8
BLACK
6
CONTINUOUS
10
1.99224
20
0.817534
11
1.9924
21
0.81746
0
LINE
8
BLACK
6
CONTINUOUS
10
1.9924
20
0.81746
11
2.00986
21
0.800003
0
LINE
8
BLACK
6
CONTINUOUS
10
2.00986
20
0.800003
11
2.00986
21
0.817247
0
LINE
8
BLACK
6
CONTINUOUS
10
2.00986
20
0.817247
11
2.01004
21
0.818257
0
LINE
8
BLACK
6
CONTINUOUS
10
2.01004
20
0.818257
11
2.01133
21
0.819804
0
LINE
8
BLACK
6
CONTINUOUS
10
2.01133
20
0.819804
11
2.01332
21
0.820155
0
LINE
8
BLACK
6
CONTINUOUS
10
2.01332
20
0.820155
11
2.01507
21
0.819145
0
LINE
8
BLACK
6
CONTINUOUS
10
2.01507
20
0.819145
11
2.01576
21
0.817247
0
LINE
8
BLACK
6
CONTINUOUS
10
2.01576
20
0.817247
11
2.01576
21
0.792875
0
LINE
8
BLACK
6
CONTINUOUS
10
2.01576
20
0.792875
11
2.01565
21
0.79224
0
LINE
8
BLACK
6
CONTINUOUS
10
2.01565
20
0.79224
11
2.01566
21
0.792111
0
LINE
8
BLACK
6
CONTINUOUS
10
2.01566
20
0.792111
11
2.01562
21
0.792045
0
LINE
8
BLACK
6
CONTINUOUS
10
2.01562
20
0.792045
11
2.01558
21
0.791865
0
LINE
8
BLACK
6
CONTINUOUS
10
2.01558
20
0.791865
11
2.01501
21
0.791184
0
LINE
8
BLACK
6
CONTINUOUS
10
2.01501
20
0.791184
11
2.0145
21
0.790456
0
LINE
8
BLACK
6
CONTINUOUS
10
2.0145
20
0.790456
11
2.01437
21
0.790421
0
LINE
8
BLACK
6
CONTINUOUS
10
2.01437
20
0.790421
11
2.01429
21
0.790318
0
LINE
8
BLACK
6
CONTINUOUS
10
2.01429
20
0.790318
11
2.01341
21
0.790163
0
LINE
8
BLACK
6
CONTINUOUS
10
2.01341
20
0.790163
11
2.01255
21
0.789933
0
LINE
8
BLACK
6
CONTINUOUS
10
2.01255
20
0.789933
11
2.01243
21
0.78999
0
LINE
8
BLACK
6
CONTINUOUS
10
2.01243
20
0.78999
11
2.0123
21
0.789967
0
LINE
8
BLACK
6
CONTINUOUS
10
2.0123
20
0.789967
11
2.01153
21
0.790411
0
LINE
8
BLACK
6
CONTINUOUS
10
2.01153
20
0.790411
11
2.01072
21
0.790787
0
LINE
8
BLACK
6
CONTINUOUS
10
2.01072
20
0.790787
11
1.98872
21
0.812791
0
LINE
8
BLACK
6
CONTINUOUS
10
1.98872
20
0.812791
11
1.98421
21
0.814294
0
LINE
8
BLACK
6
CONTINUOUS
10
1.98421
20
0.814294
11
1.98164
21
0.814294
0
LINE
8
BLACK
6
CONTINUOUS
10
1.98164
20
0.814294
11
1.97894
21
0.812945
0
LINE
8
BLACK
6
CONTINUOUS
10
1.97894
20
0.812945
11
1.97774
21
0.811748
0
LINE
8
BLACK
6
CONTINUOUS
10
1.97774
20
0.811748
11
1.97639
21
0.809051
0
LINE
8
BLACK
6
CONTINUOUS
10
1.97639
20
0.809051
11
1.97639
21
0.801071
0
LINE
8
BLACK
6
CONTINUOUS
10
1.97639
20
0.801071
11
1.97774
21
0.798373
0
LINE
8
BLACK
6
CONTINUOUS
10
1.97774
20
0.798373
11
1.97928
21
0.796837
0
LINE
8
BLACK
6
CONTINUOUS
10
1.97928
20
0.796837
11
1.97987
21
0.795997
0
LINE
8
BLACK
6
CONTINUOUS
10
1.97987
20
0.795997
11
1.98004
21
0.793985
0
LINE
8
BLACK
6
CONTINUOUS
10
1.98004
20
0.793985
11
1.97888
21
0.792331
0
LINE
8
BLACK
6
CONTINUOUS
10
1.97888
20
0.792331
11
1.97693
21
0.791808
0
LINE
8
BLACK
6
CONTINUOUS
10
1.97693
20
0.791808
11
1.9751
21
0.792662
0
LINE
8
BLACK
6
CONTINUOUS
10
1.9751
20
0.792662
11
1.97323
21
0.794536
0
LINE
8
BLACK
6
CONTINUOUS
10
1.97323
20
0.794536
11
1.97272
21
0.795259
0
LINE
8
BLACK
6
CONTINUOUS
10
1.97272
20
0.795259
11
1.97267
21
0.795304
0
LINE
8
BLACK
6
CONTINUOUS
10
1.97267
20
0.795304
11
1.9708
21
0.799053
0
LINE
8
BLACK
6
CONTINUOUS
10
1.9708
20
0.799053
11
1.97051
21
0.800036
0
LINE
8
BLACK
6
CONTINUOUS
10
1.97051
20
0.800036
11
1.97055
21
0.800208
0
LINE
8
BLACK
6
CONTINUOUS
10
1.97055
20
0.800208
11
1.97049
21
0.800374
0
LINE
8
BLACK
6
CONTINUOUS
10
1.97049
20
0.800374
11
1.97049
21
0.809748
0
LINE
8
BLACK
6
CONTINUOUS
10
1.97049
20
0.809748
11
1.97067
21
0.810758
0
LINE
8
BLACK
6
CONTINUOUS
10
1.97067
20
0.810758
11
1.97078
21
0.810893
0
LINE
8
BLACK
6
CONTINUOUS
10
1.97078
20
0.810893
11
1.9708
21
0.811068
0
LINE
8
BLACK
6
CONTINUOUS
10
1.9708
20
0.811068
11
1.97267
21
0.814818
0
LINE
8
BLACK
6
CONTINUOUS
10
1.97267
20
0.814818
11
1.9732
21
0.815527
0
LINE
8
BLACK
6
CONTINUOUS
10
1.9732
20
0.815527
11
1.97323
21
0.815585
0
LINE
8
BLACK
6
CONTINUOUS
10
1.97323
20
0.815585
11
1.9751
21
0.81746
0
LINE
8
BLACK
6
CONTINUOUS
10
1.9751
20
0.81746
11
1.97582
21
0.817966
0
LINE
8
BLACK
6
CONTINUOUS
10
1.97582
20
0.817966
11
1.97587
21
0.818013
0
LINE
8
BLACK
6
CONTINUOUS
10
1.97587
20
0.818013
11
1.97962
21
0.819888
0
LINE
8
BLACK
6
CONTINUOUS
10
1.97962
20
0.819888
11
1.9806
21
0.82018
0
LINE
8
BLACK
6
CONTINUOUS
10
1.9806
20
0.82018
11
1.98077
21
0.820139
0
LINE
8
BLACK
6
CONTINUOUS
10
1.98077
20
0.820139
11
1.98094
21
0.820199
0
LINE
8
BLACK
6
CONTINUOUS
10
1.98094
20
0.820199
11
1.98469
21
0.820199
0
LINE
8
BLACK
6
CONTINUOUS
10
1.98469
20
0.820199
11
1.98556
21
0.820046
0
LINE
8
BLACK
6
CONTINUOUS
10
0.0779217
20
0.229534
11
0.0819746
21
0.242958
0
LINE
8
BLACK
6
CONTINUOUS
10
0.0819746
20
0.242958
11
0.0874986
21
0.255846
0
LINE
8
BLACK
6
CONTINUOUS
10
0.0874986
20
0.255846
11
0.0944248
21
0.268039
0
LINE
8
BLACK
6
CONTINUOUS
10
0.0944248
20
0.268039
11
0.102667
21
0.279383
0
LINE
8
BLACK
6
CONTINUOUS
10
0.102667
20
0.279383
11
0.112122
21
0.289738
0
LINE
8
BLACK
6
CONTINUOUS
10
0.112122
20
0.289738
11
0.122673
21
0.298974
0
LINE
8
BLACK
6
CONTINUOUS
10
0.122673
20
0.298974
11
0.134187
21
0.306977
0
LINE
8
BLACK
6
CONTINUOUS
10
0.134187
20
0.306977
11
0.146522
21
0.313646
0
LINE
8
BLACK
6
CONTINUOUS
10
0.146522
20
0.313646
11
0.159523
21
0.318899
0
LINE
8
BLACK
6
CONTINUOUS
10
0.159523
20
0.318899
11
0.173029
21
0.32267
0
LINE
8
BLACK
6
CONTINUOUS
10
0.173029
20
0.32267
11
0.186871
21
0.324912
0
LINE
8
BLACK
6
CONTINUOUS
10
0.186871
20
0.324912
11
0.200877
21
0.325597
0
LINE
8
BLACK
6
CONTINUOUS
10
0.200877
20
0.325597
11
0.214872
21
0.324716
0
LINE
8
BLACK
6
CONTINUOUS
10
0.214872
20
0.324716
11
0.228681
21
0.322281
0
LINE
8
BLACK
6
CONTINUOUS
10
0.228681
20
0.322281
11
0.242133
21
0.318322
0
LINE
8
BLACK
6
CONTINUOUS
10
0.242133
20
0.318322
11
0.255059
21
0.312889
0
LINE
8
BLACK
6
CONTINUOUS
10
0.255059
20
0.312889
11
0.2673
21
0.306048
0
LINE
8
BLACK
6
CONTINUOUS
10
0.2673
20
0.306048
11
0.278701
21
0.297885
0
LINE
8
BLACK
6
CONTINUOUS
10
0.278701
20
0.297885
11
0.289122
21
0.288502
0
LINE
8
BLACK
6
CONTINUOUS
10
0.289122
20
0.288502
11
0.298432
21
0.278016
0
LINE
8
BLACK
6
CONTINUOUS
10
0.298432
20
0.278016
11
0.306515
21
0.266558
0
LINE
8
BLACK
6
CONTINUOUS
10
0.306515
20
0.266558
11
0.31327
21
0.25427
0
LINE
8
BLACK
6
CONTINUOUS
10
0.31327
20
0.25427
11
0.318614
21
0.241306
0
LINE
8
BLACK
6
CONTINUOUS
10
0.318614
20
0.241306
11
0.322479
21
0.227826
0
LINE
8
BLACK
6
CONTINUOUS
10
0.322479
20
0.227826
11
0.324817
21
0.214001
0
LINE
8
BLACK
6
CONTINUOUS
10
0.324817
20
0.214001
11
0.3256
21
0.2
0
LINE
8
BLACK
6
CONTINUOUS
10
0.3256
20
0.2
11
0.325551
21
0.196493
0
LINE
8
BLACK
6
CONTINUOUS
10
0.325551
20
0.196493
11
0.324378
21
0.18252
0
LINE
8
BLACK
6
CONTINUOUS
10
0.324378
20
0.18252
11
0.321654
21
0.168765
0
LINE
8
BLACK
6
CONTINUOUS
10
0.321654
20
0.168765
11
0.317414
21
0.155399
0
LINE
8
BLACK
6
CONTINUOUS
10
0.317414
20
0.155399
11
0.311711
21
0.142589
0
LINE
8
BLACK
6
CONTINUOUS
10
0.311711
20
0.142589
11
0.304615
21
0.130494
0
LINE
8
BLACK
6
CONTINUOUS
10
0.304615
20
0.130494
11
0.296215
21
0.119266
0
LINE
8
BLACK
6
CONTINUOUS
10
0.296215
20
0.119266
11
0.286616
21
0.109044
0
LINE
8
BLACK
6
CONTINUOUS
10
0.286616
20
0.109044
11
0.275938
21
0.0999558
0
LINE
8
BLACK
6
CONTINUOUS
10
0.275938
20
0.0999558
11
0.264313
21
0.0921146
0
LINE
8
BLACK
6
CONTINUOUS
10
0.264313
20
0.0921146
11
0.251886
21
0.0856181
0
LINE
8
BLACK
6
CONTINUOUS
10
0.251886
20
0.0856181
11
0.238813
21
0.0805473
0
LINE
8
BLACK
6
CONTINUOUS
10
0.238813
20
0.0805473
11
0.225255
21
0.0769654
0
LINE
8
BLACK
6
CONTINUOUS
10
0.225255
20
0.0769654
11
0.211383
21
0.0749169
0
LINE
8
BLACK
6
CONTINUOUS
10
0.211383
20
0.0749169
11
0.19737
21
0.0744276
0
LINE
8
BLACK
6
CONTINUOUS
10
0.19737
20
0.0744276
11
0.183389
21
0.0755033
0
LINE
8
BLACK
6
CONTINUOUS
10
0.183389
20
0.0755033
11
0.169615
21
0.0781309
0
LINE
8
BLACK
6
CONTINUOUS
10
0.169615
20
0.0781309
11
0.156219
21
0.0822774
0
LINE
8
BLACK
6
CONTINUOUS
10
0.156219
20
0.0822774
11
0.14337
21
0.0878912
0
LINE
8
BLACK
6
CONTINUOUS
10
0.14337
20
0.0878912
11
0.131226
21
0.0949024
0
LINE
8
BLACK
6
CONTINUOUS
10
0.131226
20
0.0949024
11
0.11994
21
0.103224
0
LINE
8
BLACK
6
CONTINUOUS
10
0.11994
20
0.103224
11
0.109651
21
0.112751
0
LINE
8
BLACK
6
CONTINUOUS
10
0.109651
20
0.112751
11
0.100488
21
0.123366
0
LINE
8
BLACK
6
CONTINUOUS
10
0.100488
20
0.123366
11
0.0925663
21
0.134936
0
LINE
8
BLACK
6
CONTINUOUS
10
0.0925663
20
0.134936
11
0.0859831
21
0.147317
0
LINE
8
BLACK
6
CONTINUOUS
10
0.0859831
20
0.147317
11
0.0808212
21
0.160354
0
LINE
8
BLACK
6
CONTINUOUS
10
0.0808212
20
0.160354
11
0.0771446
21
0.173886
0
LINE
8
BLACK
6
CONTINUOUS
10
0.0771446
20
0.173886
11
0.0749994
21
0.187744
0
LINE
8
BLACK
6
CONTINUOUS
10
0.0749994
20
0.187744
11
0.0744122
21
0.201754
0
LINE
8
BLACK
6
CONTINUOUS
10
0.0744122
20
0.201754
11
0.074533
21
0.20348
0
LINE
8
BLACK
6
CONTINUOUS
10
0.074533
20
0.20348
11
0.0753904
21
0.215742
0
LINE
8
BLACK
6
CONTINUOUS
10
0.0753904
20
0.215742
11
0.0779217
21
0.229534
0
LINE
8
BLACK
6
CONTINUOUS
10
0.0913983
20
0.178102
11
0.0946349
21
0.165765
0
LINE
8
BLACK
6
CONTINUOUS
10
0.0946349
20
0.165765
11
0.0992681
21
0.153881
0
LINE
8
BLACK
6
CONTINUOUS
10
0.0992681
20
0.153881
11
0.105236
21
0.142609
0
LINE
8
BLACK
6
CONTINUOUS
10
0.105236
20
0.142609
11
0.112461
21
0.132098
0
LINE
8
BLACK
6
CONTINUOUS
10
0.112461
20
0.132098
11
0.120845
21
0.122486
0
LINE
8
BLACK
6
CONTINUOUS
10
0.120845
20
0.122486
11
0.130279
21
0.113902
0
LINE
8
BLACK
6
CONTINUOUS
10
0.130279
20
0.113902
11
0.140637
21
0.106459
0
LINE
8
BLACK
6
CONTINUOUS
10
0.140637
20
0.106459
11
0.151782
21
0.100256
0
LINE
8
BLACK
6
CONTINUOUS
10
0.151782
20
0.100256
11
0.163566
21
0.095375
0
LINE
8
BLACK
6
CONTINUOUS
10
0.163566
20
0.095375
11
0.175832
21
0.0918807
0
LINE
8
BLACK
6
CONTINUOUS
10
0.175832
20
0.0918807
11
0.18842
21
0.0898194
0
LINE
8
BLACK
6
CONTINUOUS
10
0.18842
20
0.0898194
11
0.20116
21
0.0892186
0
LINE
8
BLACK
6
CONTINUOUS
10
0.20116
20
0.0892186
11
0.213885
21
0.0900861
0
LINE
8
BLACK
6
CONTINUOUS
10
0.213885
20
0.0900861
11
0.226426
21
0.0924105
0
LINE
8
BLACK
6
CONTINUOUS
10
0.226426
20
0.0924105
11
0.238617
21
0.0961609
0
LINE
8
BLACK
6
CONTINUOUS
10
0.238617
20
0.0961609
11
0.250296
21
0.101288
0
LINE
8
BLACK
6
CONTINUOUS
10
0.250296
20
0.101288
11
0.261309
21
0.107723
0
LINE
8
BLACK
6
CONTINUOUS
10
0.261309
20
0.107723
11
0.271509
21
0.115381
0
LINE
8
BLACK
6
CONTINUOUS
10
0.271509
20
0.115381
11
0.280761
21
0.124161
0
LINE
8
BLACK
6
CONTINUOUS
10
0.280761
20
0.124161
11
0.288942
21
0.133946
0
LINE
8
BLACK
6
CONTINUOUS
10
0.288942
20
0.133946
11
0.295945
21
0.144606
0
LINE
8
BLACK
6
CONTINUOUS
10
0.295945
20
0.144606
11
0.301676
21
0.156001
0
LINE
8
BLACK
6
CONTINUOUS
10
0.301676
20
0.156001
11
0.306059
21
0.167979
0
LINE
8
BLACK
6
CONTINUOUS
10
0.306059
20
0.167979
11
0.309036
21
0.180381
0
LINE
8
BLACK
6
CONTINUOUS
10
0.309036
20
0.180381
11
0.310569
21
0.193044
0
LINE
8
BLACK
6
CONTINUOUS
10
0.310569
20
0.193044
11
0.310787
21
0.2
0
LINE
8
BLACK
6
CONTINUOUS
10
0.310787
20
0.2
11
0.310053
21
0.212734
0
LINE
8
BLACK
6
CONTINUOUS
10
0.310053
20
0.212734
11
0.30786
21
0.225298
0
LINE
8
BLACK
6
CONTINUOUS
10
0.30786
20
0.225298
11
0.304238
21
0.237528
0
LINE
8
BLACK
6
CONTINUOUS
10
0.304238
20
0.237528
11
0.299234
21
0.24926
0
LINE
8
BLACK
6
CONTINUOUS
10
0.299234
20
0.24926
11
0.292914
21
0.260339
0
LINE
8
BLACK
6
CONTINUOUS
10
0.292914
20
0.260339
11
0.285363
21
0.270619
0
LINE
8
BLACK
6
CONTINUOUS
10
0.285363
20
0.270619
11
0.276681
21
0.279962
0
LINE
8
BLACK
6
CONTINUOUS
10
0.276681
20
0.279962
11
0.266982
21
0.288246
0
LINE
8
BLACK
6
CONTINUOUS
10
0.266982
20
0.288246
11
0.256395
21
0.295359
0
LINE
8
BLACK
6
CONTINUOUS
10
0.256395
20
0.295359
11
0.245061
21
0.301209
0
LINE
8
BLACK
6
CONTINUOUS
10
0.245061
20
0.301209
11
0.23313
21
0.305718
0
LINE
8
BLACK
6
CONTINUOUS
10
0.23313
20
0.305718
11
0.220759
21
0.308825
0
LINE
8
BLACK
6
CONTINUOUS
10
0.220759
20
0.308825
11
0.208114
21
0.31049
0
LINE
8
BLACK
6
CONTINUOUS
10
0.208114
20
0.31049
11
0.195361
21
0.31069
0
LINE
8
BLACK
6
CONTINUOUS
10
0.195361
20
0.31069
11
0.182669
21
0.309423
0
LINE
8
BLACK
6
CONTINUOUS
10
0.182669
20
0.309423
11
0.170207
21
0.306706
0
LINE
8
BLACK
6
CONTINUOUS
10
0.170207
20
0.306706
11
0.15814
21
0.302575
0
LINE
8
BLACK
6
CONTINUOUS
10
0.15814
20
0.302575
11
0.146628
21
0.297084
0
LINE
8
BLACK
6
CONTINUOUS
10
0.146628
20
0.297084
11
0.135823
21
0.290306
0
LINE
8
BLACK
6
CONTINUOUS
10
0.135823
20
0.290306
11
0.125869
21
0.282331
0
LINE
8
BLACK
6
CONTINUOUS
10
0.125869
20
0.282331
11
0.116897
21
0.273265
0
LINE
8
BLACK
6
CONTINUOUS
10
0.116897
20
0.273265
11
0.109027
21
0.263228
0
LINE
8
BLACK
6
CONTINUOUS
10
0.109027
20
0.263228
11
0.102363
21
0.252353
0
LINE
8
BLACK
6
CONTINUOUS
10
0.102363
20
0.252353
11
0.0969924
21
0.240784
0
LINE
8
BLACK
6
CONTINUOUS
10
0.0969924
20
0.240784
11
0.0929876
21
0.228674
0
LINE
8
BLACK
6
CONTINUOUS
10
0.0929876
20
0.228674
11
0.0904011
21
0.216184
0
LINE
8
BLACK
6
CONTINUOUS
10
0.0904011
20
0.216184
11
0.0892672
21
0.20348
0
LINE
8
BLACK
6
CONTINUOUS
10
0.0892672
20
0.20348
11
0.0896011
21
0.19073
0
LINE
8
BLACK
6
CONTINUOUS
10
0.0896011
20
0.19073
11
0.0913983
21
0.178102
0
LINE
8
BLACK
6
CONTINUOUS
10
2.07792
20
0.229534
11
2.08197
21
0.242958
0
LINE
8
BLACK
6
CONTINUOUS
10
2.08197
20
0.242958
11
2.0875
21
0.255846
0
LINE
8
BLACK
6
CONTINUOUS
10
2.0875
20
0.255846
11
2.09442
21
0.268039
0
LINE
8
BLACK
6
CONTINUOUS
10
2.09442
20
0.268039
11
2.10267
21
0.279383
0
LINE
8
BLACK
6
CONTINUOUS
10
2.10267
20
0.279383
11
2.11212
21
0.289738
0
LINE
8
BLACK
6
CONTINUOUS
10
2.11212
20
0.289738
11
2.12267
21
0.298974
0
LINE
8
BLACK
6
CONTINUOUS
10
2.12267
20
0.298974
11
2.13419
21
0.306977
0
LINE
8
BLACK
6
CONTINUOUS
10
2.13419
20
0.306977
11
2.14652
21
0.313646
0
LINE
8
BLACK
6
CONTINUOUS
10
2.14652
20
0.313646
11
2.15952
21
0.318899
0
LINE
8
BLACK
6
CONTINUOUS
10
2.15952
20
0.318899
11
2.17303
21
0.32267
0
LINE
8
BLACK
6
CONTINUOUS
10
2.17303
20
0.32267
11
2.18687
21
0.324912
0
LINE
8
BLACK
6
CONTINUOUS
10
2.18687
20
0.324912
11
2.20088
21
0.325597
0
LINE
8
BLACK
6
CONTINUOUS
10
2.20088
20
0.325597
11
2.21487
21
0.324716
0
LINE
8
BLACK
6
CONTINUOUS
10
2.21487
20
0.324716
11
2.22868
21
0.322281
0
LINE
8
BLACK
6
CONTINUOUS
10
2.22868
20
0.322281
11
2.24213
21
0.318322
0
LINE
8
BLACK
6
CONTINUOUS
10
2.24213
20
0.318322
11
2.25506
21
0.312889
0
LINE
8
BLACK
6
CONTINUOUS
10
2.25506
20
0.312889
11
2.2673
21
0.306048
0
LINE
8
BLACK
6
CONTINUOUS
10
2.2673
20
0.306048
11
2.2787
21
0.297885
0
LINE
8
BLACK
6
CONTINUOUS
10
2.2787
20
0.297885
11
2.28912
21
0.288502
0
LINE
8
BLACK
6
CONTINUOUS
10
2.28912
20
0.288502
11
2.29843
21
0.278016
0
LINE
8
BLACK
6
CONTINUOUS
10
2.29843
20
0.278016
11
2.30651
21
0.266558
0
LINE
8
BLACK
6
CONTINUOUS
10
2.30651
20
0.266558
11
2.31327
21
0.25427
0
LINE
8
BLACK
6
CONTINUOUS
10
2.31327
20
0.25427
11
2.31861
21
0.241306
0
LINE
8
BLACK
6
CONTINUOUS
10
2.31861
20
0.241306
11
2.32248
21
0.227826
0
LINE
8
BLACK
6
CONTINUOUS
10
2.32248
20
0.227826
11
2.32482
21
0.214001
0
LINE
8
BLACK
6
CONTINUOUS
10
2.32482
20
0.214001
11
2.3256
21
0.2
0
LINE
8
BLACK
6
CONTINUOUS
10
2.3256
20
0.2
11
2.32555
21
0.196493
0
LINE
8
BLACK
6
CONTINUOUS
10
2.32555
20
0.196493
11
2.32438
21
0.18252
0
LINE
8
BLACK
6
CONTINUOUS
10
2.32438
20
0.18252
11
2.32165
21
0.168765
0
LINE
8
BLACK
6
CONTINUOUS
10
2.32165
20
0.168765
11
2.31741
21
0.155399
0
LINE
8
BLACK
6
CONTINUOUS
10
2.31741
20
0.155399
11
2.31171
21
0.142589
0
LINE
8
BLACK
6
CONTINUOUS
10
2.31171
20
0.142589
11
2.30461
21
0.130494
0
LINE
8
BLACK
6
CONTINUOUS
10
2.30461
20
0.130494
11
2.29622
21
0.119266
0
LINE
8
BLACK
6
CONTINUOUS
10
2.29622
20
0.119266
11
2.28662
21
0.109044
0
LINE
8
BLACK
6
CONTINUOUS
10
2.28662
20
0.109044
11
2.27594
21
0.0999558
0
LINE
8
BLACK
6
CONTINUOUS
10
2.27594
20
0.0999558
11
2.26431
21
0.0921146
0
LINE
8
BLACK
6
CONTINUOUS
10
2.26431
20
0.0921146
11
2.25189
21
0.0856181
0
LINE
8
BLACK
6
CONTINUOUS
10
2.25189
20
0.0856181
11
2.23881
21
0.0805473
0
LINE
8
BLACK
6
CONTINUOUS
10
2.23881
20
0.0805473
11
2.22526
21
0.0769654
0
LINE
8
BLACK
6
CONTINUOUS
10
2.22526
20
0.0769654
11
2.21138
21
0.0749169
0
LINE
8
BLACK
6
CONTINUOUS
10
2.21138
20
0.0749169
11
2.19737
21
0.0744276
0
LINE
8
BLACK
6
CONTINUOUS
10
2.19737
20
0.0744276
11
2.18339
21
0.0755033
0
LINE
8
BLACK
6
CONTINUOUS
10
2.18339
20
0.0755033
11
2.16961
21
0.0781309
0
LINE
8
BLACK
6
CONTINUOUS
10
2.16961
20
0.0781309
11
2.15622
21
0.0822774
0
LINE
8
BLACK
6
CONTINUOUS
10
2.15622
20
0.0822774
11
2.14337
21
0.0878912
0
LINE
8
BLACK
6
CONTINUOUS
10
2.14337
20
0.0878912
11
2.13123
21
0.0949024
0
LINE
8
BLACK
6
CONTINUOUS
10
2.13123
20
0.0949024
11
2.11994
21
0.103224
0
LINE
8
BLACK
6
CONTINUOUS
10
2.11994
20
0.103224
11
2.10965
21
0.112751
0
LINE
8
BLACK
6
CONTINUOUS
10
2.10965
20
0.112751
11
2.10049
21
0.123366
0
LINE
8
BLACK
6
CONTINUOUS
10
2.10049
20
0.123366
11
2.09257
21
0.134936
0
LINE
8
BLACK
6
CONTINUOUS
10
2.09257
20
0.134936
11
2.08598
21
0.147317
0
LINE
8
BLACK
6
CONTINUOUS
10
2.08598
20
0.147317
11
2.08082
21
0.160354
0
LINE
8
BLACK
6
CONTINUOUS
10
2.08082
20
0.160354
11
2.07714
21
0.173886
0
LINE
8
BLACK
6
CONTINUOUS
10
2.07714
20
0.173886
11
2.075
21
0.187744
0
LINE
8
BLACK
6
CONTINUOUS
10
2.075
20
0.187744
11
2.07441
21
0.201754
0
LINE
8
BLACK
6
CONTINUOUS
10
2.07441
20
0.201754
11
2.07453
21
0.20348
0
LINE
8
BLACK
6
CONTINUOUS
10
2.07453
20
0.20348
11
2.07539
21
0.215742
0
LINE
8
BLACK
6
CONTINUOUS
10
2.07539
20
0.215742
11
2.07792
21
0.229534
0
LINE
8
BLACK
6
CONTINUOUS
10
2.0914
20
0.178102
11
2.09463
21
0.165765
0
LINE
8
BLACK
6
CONTINUOUS
10
2.09463
20
0.165765
11
2.09927
21
0.153881
0
LINE
8
BLACK
6
CONTINUOUS
10
2.09927
20
0.153881
11
2.10524
21
0.142609
0
LINE
8
BLACK
6
CONTINUOUS
10
2.10524
20
0.142609
11
2.11246
21
0.132098
0
LINE
8
BLACK
6
CONTINUOUS
10
2.11246
20
0.132098
11
2.12085
21
0.122486
0
LINE
8
BLACK
6
CONTINUOUS
10
2.12085
20
0.122486
11
2.13028
21
0.113902
0
LINE
8
BLACK
6
CONTINUOUS
10
2.13028
20
0.113902
11
2.14064
21
0.106459
0
LINE
8
BLACK
6
CONTINUOUS
10
2.14064
20
0.106459
11
2.15178
21
0.100256
0
LINE
8
BLACK
6
CONTINUOUS
10
2.15178
20
0.100256
11
2.16357
21
0.095375
0
LINE
8
BLACK
6
CONTINUOUS
10
2.16357
20
0.095375
11
2.17583
21
0.0918807
0
LINE
8
BLACK
6
CONTINUOUS
10
2.17583
20
0.0918807
11
2.18842
21
0.0898194
0
LINE
8
BLACK
6
CONTINUOUS
10
2.18842
20
0.0898194
11
2.20116
21
0.0892186
0
LINE
8
BLACK
6
CONTINUOUS
10
2.20116
20
0.0892186
11
2.21389
21
0.0900861
0
LINE
8
BLACK
6
CONTINUOUS
10
2.21389
20
0.0900861
11
2.22643
21
0.0924105
0
LINE
8
BLACK
6
CONTINUOUS
10
2.22643
20
0.0924105
11
2.23862
21
0.0961609
0
LINE
8
BLACK
6
CONTINUOUS
10
2.23862
20
0.0961609
11
2.2503
21
0.101288
0
LINE
8
BLACK
6
CONTINUOUS
10
2.2503
20
0.101288
11
2.26131
21
0.107723
0
LINE
8
BLACK
6
CONTINUOUS
10
2.26131
20
0.107723
11
2.27151
21
0.115381
0
LINE
8
BLACK
6
CONTINUOUS
10
2.27151
20
0.115381
11
2.28076
21
0.124161
0
LINE
8
BLACK
6
CONTINUOUS
10
2.28076
20
0.124161
11
2.28894
21
0.133946
0
LINE
8
BLACK
6
CONTINUOUS
10
2.28894
20
0.133946
11
2.29594
21
0.144606
0
LINE
8
BLACK
6
CONTINUOUS
10
2.29594
20
0.144606
11
2.30168
21
0.156001
0
LINE
8
BLACK
6
CONTINUOUS
10
2.30168
20
0.156001
11
2.30606
21
0.167979
0
LINE
8
BLACK
6
CONTINUOUS
10
2.30606
20
0.167979
11
2.30904
21
0.180381
0
LINE
8
BLACK
6
CONTINUOUS
10
2.30904
20
0.180381
11
2.31057
21
0.193044
0
LINE
8
BLACK
6
CONTINUOUS
10
2.31057
20
0.193044
11
2.31079
21
0.2
0
LINE
8
BLACK
6
CONTINUOUS
10
2.31079
20
0.2
11
2.31005
21
0.212734
0
LINE
8
BLACK
6
CONTINUOUS
10
2.31005
20
0.212734
11
2.30786
21
0.225298
0
LINE
8
BLACK
6
CONTINUOUS
10
2.30786
20
0.225298
11
2.30424
21
0.237528
0
LINE
8
BLACK
6
CONTINUOUS
10
2.30424
20
0.237528
11
2.29923
21
0.24926
0
LINE
8
BLACK
6
CONTINUOUS
10
2.29923
20
0.24926
11
2.29291
21
0.260339
0
LINE
8
BLACK
6
CONTINUOUS
10
2.29291
20
0.260339
11
2.28536
21
0.270619
0
LINE
8
BLACK
6
CONTINUOUS
10
2.28536
20
0.270619
11
2.27668
21
0.279962
0
LINE
8
BLACK
6
CONTINUOUS
10
2.27668
20
0.279962
11
2.26698
21
0.288246
0
LINE
8
BLACK
6
CONTINUOUS
10
2.26698
20
0.288246
11
2.2564
21
0.295359
0
LINE
8
BLACK
6
CONTINUOUS
10
2.2564
20
0.295359
11
2.24506
21
0.301209
0
LINE
8
BLACK
6
CONTINUOUS
10
2.24506
20
0.301209
11
2.23313
21
0.305718
0
LINE
8
BLACK
6
CONTINUOUS
10
2.23313
20
0.305718
11
2.22076
21
0.308825
0
LINE
8
BLACK
6
CONTINUOUS
10
2.22076
20
0.308825
11
2.20811
21
0.31049
0
LINE
8
BLACK
6
CONTINUOUS
10
2.20811
20
0.31049
11
2.19536
21
0.31069
0
LINE
8
BLACK
6
CONTINUOUS
10
2.19536
20
0.31069
11
2.18267
21
0.309423
0
LINE
8
BLACK
6
CONTINUOUS
10
2.18267
20
0.309423
11
2.17021
21
0.306706
0
LINE
8
BLACK
6
CONTINUOUS
10
2.17021
20
0.306706
11
2.15814
21
0.302575
0
LINE
8
BLACK
6
CONTINUOUS
10
2.15814
20
0.302575
11
2.14663
21
0.297084
0
LINE
8
BLACK
6
CONTINUOUS
10
2.14663
20
0.297084
11
2.13582
21
0.290306
0
LINE
8
BLACK
6
CONTINUOUS
10
2.13582
20
0.290306
11
2.12587
21
0.282331
0
LINE
8
BLACK
6
CONTINUOUS
10
2.12587
20
0.282331
11
2.1169
21
0.273265
0
LINE
8
BLACK
6
CONTINUOUS
10
2.1169
20
0.273265
11
2.10903
21
0.263228
0
LINE
8
BLACK
6
CONTINUOUS
10
2.10903
20
0.263228
11
2.10236
21
0.252353
0
LINE
8
BLACK
6
CONTINUOUS
10
2.10236
20
0.252353
11
2.09699
21
0.240784
0
LINE
8
BLACK
6
CONTINUOUS
10
2.09699
20
0.240784
11
2.09299
21
0.228674
0
LINE
8
BLACK
6
CONTINUOUS
10
2.09299
20
0.228674
11
2.0904
21
0.216184
0
LINE
8
BLACK
6
CONTINUOUS
10
2.0904
20
0.216184
11
2.08927
21
0.20348
0
LINE
8
BLACK
6
CONTINUOUS
10
2.08927
20
0.20348
11
2.0896
21
0.19073
0
LINE
8
BLACK
6
CONTINUOUS
10
2.0896
20
0.19073
11
2.0914
21
0.178102
0
LINE
8
BLACK
6
CONTINUOUS
10
0.0779217
20
1.42953
11
0.0819746
21
1.44296
0
LINE
8
BLACK
6
CONTINUOUS
10
0.0819746
20
1.44296
11
0.0874986
21
1.45585
0
LINE
8
BLACK
6
CONTINUOUS
10
0.0874986
20
1.45585
11
0.0944248
21
1.46804
0
LINE
8
BLACK
6
CONTINUOUS
10
0.0944248
20
1.46804
11
0.102667
21
1.47938
0
LINE
8
BLACK
6
CONTINUOUS
10
0.102667
20
1.47938
11
0.112122
21
1.48974
0
LINE
8
BLACK
6
CONTINUOUS
10
0.112122
20
1.48974
11
0.122673
21
1.49897
0
LINE
8
BLACK
6
CONTINUOUS
10
0.122673
20
1.49897
11
0.134187
21
1.50698
0
LINE
8
BLACK
6
CONTINUOUS
10
0.134187
20
1.50698
11
0.146522
21
1.51365
0
LINE
8
BLACK
6
CONTINUOUS
10
0.146522
20
1.51365
11
0.159523
21
1.5189
0
LINE
8
BLACK
6
CONTINUOUS
10
0.159523
20
1.5189
11
0.173029
21
1.52267
0
LINE
8
BLACK
6
CONTINUOUS
10
0.173029
20
1.52267
11
0.186871
21
1.52491
0
LINE
8
BLACK
6
CONTINUOUS
10
0.186871
20
1.52491
11
0.200877
21
1.5256
0
LINE
8
BLACK
6
CONTINUOUS
10
0.200877
20
1.5256
11
0.214872
21
1.52472
0
LINE
8
BLACK
6
CONTINUOUS
10
0.214872
20
1.52472
11
0.228681
21
1.52228
0
LINE
8
BLACK
6
CONTINUOUS
10
0.228681
20
1.52228
11
0.242133
21
1.51832
0
LINE
8
BLACK
6
CONTINUOUS
10
0.242133
20
1.51832
11
0.255059
21
1.51289
0
LINE
8
BLACK
6
CONTINUOUS
10
0.255059
20
1.51289
11
0.2673
21
1.50605
0
LINE
8
BLACK
6
CONTINUOUS
10
0.2673
20
1.50605
11
0.278701
21
1.49788
0
LINE
8
BLACK
6
CONTINUOUS
10
0.278701
20
1.49788
11
0.289122
21
1.4885
0
LINE
8
BLACK
6
CONTINUOUS
10
0.289122
20
1.4885
11
0.298432
21
1.47802
0
LINE
8
BLACK
6
CONTINUOUS
10
0.298432
20
1.47802
11
0.306515
21
1.46656
0
LINE
8
BLACK
6
CONTINUOUS
10
0.306515
20
1.46656
11
0.31327
21
1.45427
0
LINE
8
BLACK
6
CONTINUOUS
10
0.31327
20
1.45427
11
0.318614
21
1.44131
0
LINE
8
BLACK
6
CONTINUOUS
10
0.318614
20
1.44131
11
0.322479
21
1.42783
0
LINE
8
BLACK
6
CONTINUOUS
10
0.322479
20
1.42783
11
0.324817
21
1.414
0
LINE
8
BLACK
6
CONTINUOUS
10
0.324817
20
1.414
11
0.3256
21
1.4
0
LINE
8
BLACK
6
CONTINUOUS
10
0.3256
20
1.4
11
0.325551
21
1.39649
0
LINE
8
BLACK
6
CONTINUOUS
10
0.325551
20
1.39649
11
0.324378
21
1.38252
0
LINE
8
BLACK
6
CONTINUOUS
10
0.324378
20
1.38252
11
0.321654
21
1.36876
0
LINE
8
BLACK
6
CONTINUOUS
10
0.321654
20
1.36876
11
0.317414
21
1.3554
0
LINE
8
BLACK
6
CONTINUOUS
10
0.317414
20
1.3554
11
0.311711
21
1.34259
0
LINE
8
BLACK
6
CONTINUOUS
10
0.311711
20
1.34259
11
0.304615
21
1.33049
0
LINE
8
BLACK
6
CONTINUOUS
10
0.304615
20
1.33049
11
0.296215
21
1.31927
0
LINE
8
BLACK
6
CONTINUOUS
10
0.296215
20
1.31927
11
0.286616
21
1.30904
0
LINE
8
BLACK
6
CONTINUOUS
10
0.286616
20
1.30904
11
0.275938
21
1.29996
0
LINE
8
BLACK
6
CONTINUOUS
10
0.275938
20
1.29996
11
0.264313
21
1.29211
0
LINE
8
BLACK
6
CONTINUOUS
10
0.264313
20
1.29211
11
0.251886
21
1.28562
0
LINE
8
BLACK
6
CONTINUOUS
10
0.251886
20
1.28562
11
0.238813
21
1.28055
0
LINE
8
BLACK
6
CONTINUOUS
10
0.238813
20
1.28055
11
0.225255
21
1.27697
0
LINE
8
BLACK
6
CONTINUOUS
10
0.225255
20
1.27697
11
0.211383
21
1.27492
0
LINE
8
BLACK
6
CONTINUOUS
10
0.211383
20
1.27492
11
0.19737
21
1.27443
0
LINE
8
BLACK
6
CONTINUOUS
10
0.19737
20
1.27443
11
0.183389
21
1.2755
0
LINE
8
BLACK
6
CONTINUOUS
10
0.183389
20
1.2755
11
0.169615
21
1.27813
0
LINE
8
BLACK
6
CONTINUOUS
10
0.169615
20
1.27813
11
0.156219
21
1.28228
0
LINE
8
BLACK
6
CONTINUOUS
10
0.156219
20
1.28228
11
0.14337
21
1.28789
0
LINE
8
BLACK
6
CONTINUOUS
10
0.14337
20
1.28789
11
0.131226
21
1.2949
0
LINE
8
BLACK
6
CONTINUOUS
10
0.131226
20
1.2949
11
0.11994
21
1.30322
0
LINE
8
BLACK
6
CONTINUOUS
10
0.11994
20
1.30322
11
0.109651
21
1.31275
0
LINE
8
BLACK
6
CONTINUOUS
10
0.109651
20
1.31275
11
0.100488
21
1.32337
0
LINE
8
BLACK
6
CONTINUOUS
10
0.100488
20
1.32337
11
0.0925663
21
1.33494
0
LINE
8
BLACK
6
CONTINUOUS
10
0.0925663
20
1.33494
11
0.0859831
21
1.34732
0
LINE
8
BLACK
6
CONTINUOUS
10
0.0859831
20
1.34732
11
0.0808212
21
1.36035
0
LINE
8
BLACK
6
CONTINUOUS
10
0.0808212
20
1.36035
11
0.0771446
21
1.37389
0
LINE
8
BLACK
6
CONTINUOUS
10
0.0771446
20
1.37389
11
0.0749994
21
1.38774
0
LINE
8
BLACK
6
CONTINUOUS
10
0.0749994
20
1.38774
11
0.0744122
21
1.40175
0
LINE
8
BLACK
6
CONTINUOUS
10
0.0744122
20
1.40175
11
0.074533
21
1.40348
0
LINE
8
BLACK
6
CONTINUOUS
10
0.074533
20
1.40348
11
0.0753904
21
1.41574
0
LINE
8
BLACK
6
CONTINUOUS
10
0.0753904
20
1.41574
11
0.0779217
21
1.42953
0
LINE
8
BLACK
6
CONTINUOUS
10
0.0913983
20
1.3781
11
0.0946349
21
1.36576
0
LINE
8
BLACK
6
CONTINUOUS
10
0.0946349
20
1.36576
11
0.0992681
21
1.35388
0
LINE
8
BLACK
6
CONTINUOUS
10
0.0992681
20
1.35388
11
0.105236
21
1.34261
0
LINE
8
BLACK
6
CONTINUOUS
10
0.105236
20
1.34261
11
0.112461
21
1.3321
0
LINE
8
BLACK
6
CONTINUOUS
10
0.112461
20
1.3321
11
0.120845
21
1.32249
0
LINE
8
BLACK
6
CONTINUOUS
10
0.120845
20
1.32249
11
0.130279
21
1.3139
0
LINE
8
BLACK
6
CONTINUOUS
10
0.130279
20
1.3139
11
0.140637
21
1.30646
0
LINE
8
BLACK
6
CONTINUOUS
10
0.140637
20
1.30646
11
0.151782
21
1.30026
0
LINE
8
BLACK
6
CONTINUOUS
10
0.151782
20
1.30026
11
0.163566
21
1.29537
0
LINE
8
BLACK
6
CONTINUOUS
10
0.163566
20
1.29537
11
0.175832
21
1.29188
0
LINE
8
BLACK
6
CONTINUOUS
10
0.175832
20
1.29188
11
0.18842
21
1.28982
0
LINE
8
BLACK
6
CONTINUOUS
10
0.18842
20
1.28982
11
0.20116
21
1.28922
0
LINE
8
BLACK
6
CONTINUOUS
10
0.20116
20
1.28922
11
0.213885
21
1.29009
0
LINE
8
BLACK
6
CONTINUOUS
10
0.213885
20
1.29009
11
0.226426
21
1.29241
0
LINE
8
BLACK
6
CONTINUOUS
10
0.226426
20
1.29241
11
0.238617
21
1.29616
0
LINE
8
BLACK
6
CONTINUOUS
10
0.238617
20
1.29616
11
0.250296
21
1.30129
0
LINE
8
BLACK
6
CONTINUOUS
10
0.250296
20
1.30129
11
0.261309
21
1.30772
0
LINE
8
BLACK
6
CONTINUOUS
10
0.261309
20
1.30772
11
0.271509
21
1.31538
0
LINE
8
BLACK
6
CONTINUOUS
10
0.271509
20
1.31538
11
0.280761
21
1.32416
0
LINE
8
BLACK
6
CONTINUOUS
10
0.280761
20
1.32416
11
0.288942
21
1.33395
0
LINE
8
BLACK
6
CONTINUOUS
10
0.288942
20
1.33395
11
0.295945
21
1.34461
0
LINE
8
BLACK
6
CONTINUOUS
10
0.295945
20
1.34461
11
0.301676
21
1.356
0
LINE
8
BLACK
6
CONTINUOUS
10
0.301676
20
1.356
11
0.306059
21
1.36798
0
LINE
8
BLACK
6
CONTINUOUS
10
0.306059
20
1.36798
11
0.309036
21
1.38038
0
LINE
8
BLACK
6
CONTINUOUS
10
0.309036
20
1.38038
11
0.310569
21
1.39304
0
LINE
8
BLACK
6
CONTINUOUS
10
0.310569
20
1.39304
11
0.310787
21
1.4
0
LINE
8
BLACK
6
CONTINUOUS
10
0.310787
20
1.4
11
0.310053
21
1.41273
0
LINE
8
BLACK
6
CONTINUOUS
10
0.310053
20
1.41273
11
0.30786
21
1.4253
0
LINE
8
BLACK
6
CONTINUOUS
10
0.30786
20
1.4253
11
0.304238
21
1.43753
0
LINE
8
BLACK
6
CONTINUOUS
10
0.304238
20
1.43753
11
0.299234
21
1.44926
0
LINE
8
BLACK
6
CONTINUOUS
10
0.299234
20
1.44926
11
0.292914
21
1.46034
0
LINE
8
BLACK
6
CONTINUOUS
10
0.292914
20
1.46034
11
0.285363
21
1.47062
0
LINE
8
BLACK
6
CONTINUOUS
10
0.285363
20
1.47062
11
0.276681
21
1.47996
0
LINE
8
BLACK
6
CONTINUOUS
10
0.276681
20
1.47996
11
0.266982
21
1.48825
0
LINE
8
BLACK
6
CONTINUOUS
10
0.266982
20
1.48825
11
0.256395
21
1.49536
0
LINE
8
BLACK
6
CONTINUOUS
10
0.256395
20
1.49536
11
0.245061
21
1.50121
0
LINE
8
BLACK
6
CONTINUOUS
10
0.245061
20
1.50121
11
0.23313
21
1.50572
0
LINE
8
BLACK
6
CONTINUOUS
10
0.23313
20
1.50572
11
0.220759
21
1.50883
0
LINE
8
BLACK
6
CONTINUOUS
10
0.220759
20
1.50883
11
0.208114
21
1.51049
0
LINE
8
BLACK
6
CONTINUOUS
10
0.208114
20
1.51049
11
0.195361
21
1.51069
0
LINE
8
BLACK
6
CONTINUOUS
10
0.195361
20
1.51069
11
0.182669
21
1.50942
0
LINE
8
BLACK
6
CONTINUOUS
10
0.182669
20
1.50942
11
0.170207
21
1.50671
0
LINE
8
BLACK
6
CONTINUOUS
10
0.170207
20
1.50671
11
0.15814
21
1.50257
0
LINE
8
BLACK
6
CONTINUOUS
10
0.15814
20
1.50257
11
0.146628
21
1.49708
0
LINE
8
BLACK
6
CONTINUOUS
10
0.146628
20
1.49708
11
0.135823
21
1.49031
0
LINE
8
BLACK
6
CONTINUOUS
10
0.135823
20
1.49031
11
0.125869
21
1.48233
0
LINE
8
BLACK
6
CONTINUOUS
10
0.125869
20
1.48233
11
0.116897
21
1.47327
0
LINE
8
BLACK
6
CONTINUOUS
10
0.116897
20
1.47327
11
0.109027
21
1.46323
0
LINE
8
BLACK
6
CONTINUOUS
10
0.109027
20
1.46323
11
0.102363
21
1.45235
0
LINE
8
BLACK
6
CONTINUOUS
10
0.102363
20
1.45235
11
0.0969924
21
1.44078
0
LINE
8
BLACK
6
CONTINUOUS
10
0.0969924
20
1.44078
11
0.0929876
21
1.42867
0
LINE
8
BLACK
6
CONTINUOUS
10
0.0929876
20
1.42867
11
0.0904011
21
1.41618
0
LINE
8
BLACK
6
CONTINUOUS
10
0.0904011
20
1.41618
11
0.0892672
21
1.40348
0
LINE
8
BLACK
6
CONTINUOUS
10
0.0892672
20
1.40348
11
0.0896011
21
1.39073
0
LINE
8
BLACK
6
CONTINUOUS
10
0.0896011
20
1.39073
11
0.0913983
21
1.3781
0
LINE
8
BLACK
6
CONTINUOUS
10
2.07792
20
1.42953
11
2.08197
21
1.44296
0
LINE
8
BLACK
6
CONTINUOUS
10
2.08197
20
1.44296
11
2.0875
21
1.45585
0
LINE
8
BLACK
6
CONTINUOUS
10
2.0875
20
1.45585
11
2.09442
21
1.46804
0
LINE
8
BLACK
6
CONTINUOUS
10
2.09442
20
1.46804
11
2.10267
21
1.47938
0
LINE
8
BLACK
6
CONTINUOUS
10
2.10267
20
1.47938
11
2.11212
21
1.48974
0
LINE
8
BLACK
6
CONTINUOUS
10
2.11212
20
1.48974
11
2.12267
21
1.49897
0
LINE
8
BLACK
6
CONTINUOUS
10
2.12267
20
1.49897
11
2.13419
21
1.50698
0
LINE
8
BLACK
6
CONTINUOUS
10
2.13419
20
1.50698
11
2.14652
21
1.51365
0
LINE
8
BLACK
6
CONTINUOUS
10
2.14652
20
1.51365
11
2.15952
21
1.5189
0
LINE
8
BLACK
6
CONTINUOUS
10
2.15952
20
1.5189
11
2.17303
21
1.52267
0
LINE
8
BLACK
6
CONTINUOUS
10
2.17303
20
1.52267
11
2.18687
21
1.52491
0
LINE
8
BLACK
6
CONTINUOUS
10
2.18687
20
1.52491
11
2.20088
21
1.5256
0
LINE
8
BLACK
6
CONTINUOUS
10
2.20088
20
1.5256
11
2.21487
21
1.52472
0
LINE
8
BLACK
6
CONTINUOUS
10
2.21487
20
1.52472
11
2.22868
21
1.52228
0
LINE
8
BLACK
6
CONTINUOUS
10
2.22868
20
1.52228
11
2.24213
21
1.51832
0
LINE
8
BLACK
6
CONTINUOUS
10
2.24213
20
1.51832
11
2.25506
21
1.51289
0
LINE
8
BLACK
6
CONTINUOUS
10
2.25506
20
1.51289
11
2.2673
21
1.50605
0
LINE
8
BLACK
6
CONTINUOUS
10
2.2673
20
1.50605
11
2.2787
21
1.49788
0
LINE
8
BLACK
6
CONTINUOUS
10
2.2787
20
1.49788
11
2.28912
21
1.4885
0
LINE
8
BLACK
6
CONTINUOUS
10
2.28912
20
1.4885
11
2.29843
21
1.47802
0
LINE
8
BLACK
6
CONTINUOUS
10
2.29843
20
1.47802
11
2.30651
21
1.46656
0
LINE
8
BLACK
6
CONTINUOUS
10
2.30651
20
1.46656
11
2.31327
21
1.45427
0
LINE
8
BLACK
6
CONTINUOUS
10
2.31327
20
1.45427
11
2.31861
21
1.44131
0
LINE
8
BLACK
6
CONTINUOUS
10
2.31861
20
1.44131
11
2.32248
21
1.42783
0
LINE
8
BLACK
6
CONTINUOUS
10
2.32248
20
1.42783
11
2.32482
21
1.414
0
LINE
8
BLACK
6
CONTINUOUS
10
2.32482
20
1.414
11
2.3256
21
1.4
0
LINE
8
BLACK
6
CONTINUOUS
10
2.3256
20
1.4
11
2.32555
21
1.39649
0
LINE
8
BLACK
6
CONTINUOUS
10
2.32555
20
1.39649
11
2.32438
21
1.38252
0
LINE
8
BLACK
6
CONTINUOUS
10
2.32438
20
1.38252
11
2.32165
21
1.36876
0
LINE
8
BLACK
6
CONTINUOUS
10
2.32165
20
1.36876
11
2.31741
21
1.3554
0
LINE
8
BLACK
6
CONTINUOUS
10
2.31741
20
1.3554
11
2.31171
21
1.34259
0
LINE
8
BLACK
6
CONTINUOUS
10
2.31171
20
1.34259
11
2.30461
21
1.33049
0
LINE
8
BLACK
6
CONTINUOUS
10
2.30461
20
1.33049
11
2.29622
21
1.31927
0
LINE
8
BLACK
6
CONTINUOUS
10
2.29622
20
1.31927
11
2.28662
21
1.30904
0
LINE
8
BLACK
6
CONTINUOUS
10
2.28662
20
1.30904
11
2.27594
21
1.29996
0
LINE
8
BLACK
6
CONTINUOUS
10
2.27594
20
1.29996
11
2.26431
21
1.29211
0
LINE
8
BLACK
6
CONTINUOUS
10
2.26431
20
1.29211
11
2.25189
21
1.28562
0
LINE
8
BLACK
6
CONTINUOUS
10
2.25189
20
1.28562
11
2.23881
21
1.28055
0
LINE
8
BLACK
6
CONTINUOUS
10
2.23881
20
1.28055
11
2.22526
21
1.27697
0
LINE
8
BLACK
6
CONTINUOUS
10
2.22526
20
1.27697
11
2.21138
21
1.27492
0
LINE
8
BLACK
6
CONTINUOUS
10
2.21138
20
1.27492
11
2.19737
21
1.27443
0
LINE
8
BLACK
6
CONTINUOUS
10
2.19737
20
1.27443
11
2.18339
21
1.2755
0
LINE
8
BLACK
6
CONTINUOUS
10
2.18339
20
1.2755
11
2.16961
21
1.27813
0
LINE
8
BLACK
6
CONTINUOUS
10
2.16961
20
1.27813
11
2.15622
21
1.28228
0
LINE
8
BLACK
6
CONTINUOUS
10
2.15622
20
1.28228
11
2.14337
21
1.28789
0
LINE
8
BLACK
6
CONTINUOUS
10
2.14337
20
1.28789
11
2.13123
21
1.2949
0
LINE
8
BLACK
6
CONTINUOUS
10
2.13123
20
1.2949
11
2.11994
21
1.30322
0
LINE
8
BLACK
6
CONTINUOUS
10
2.11994
20
1.30322
11
2.10965
21
1.31275
0
LINE
8
BLACK
6
CONTINUOUS
10
2.10965
20
1.31275
11
2.10049
21
1.32337
0
LINE
8
BLACK
6
CONTINUOUS
10
2.10049
20
1.32337
11
2.09257
21
1.33494
0
LINE
8
BLACK
6
CONTINUOUS
10
2.09257
20
1.33494
11
2.08598
21
1.34732
0
LINE
8
BLACK
6
CONTINUOUS
10
2.08598
20
1.34732
11
2.08082
21
1.36035
0
LINE
8
BLACK
6
CONTINUOUS
10
2.08082
20
1.36035
11
2.07714
21
1.37389
0
LINE
8
BLACK
6
CONTINUOUS
10
2.07714
20
1.37389
11
2.075
21
1.38774
0
LINE
8
BLACK
6
CONTINUOUS
10
2.075
20
1.38774
11
2.07441
21
1.40175
0
LINE
8
BLACK
6
CONTINUOUS
10
2.07441
20
1.40175
11
2.07453
21
1.40348
0
LINE
8
BLACK
6
CONTINUOUS
10
2.07453
20
1.40348
11
2.07539
21
1.41574
0
LINE
8
BLACK
6
CONTINUOUS
10
2.07539
20
1.41574
11
2.07792
21
1.42953
0
LINE
8
BLACK
6
CONTINUOUS
10
2.0914
20
1.3781
11
2.09463
21
1.36576
0
LINE
8
BLACK
6
CONTINUOUS
10
2.09463
20
1.36576
11
2.09927
21
1.35388
0
LINE
8
BLACK
6
CONTINUOUS
10
2.09927
20
1.35388
11
2.10524
21
1.34261
0
LINE
8
BLACK
6
CONTINUOUS
10
2.10524
20
1.34261
11
2.11246
21
1.3321
0
LINE
8
BLACK
6
CONTINUOUS
10
2.11246
20
1.3321
11
2.12085
21
1.32249
0
LINE
8
BLACK
6
CONTINUOUS
10
2.12085
20
1.32249
11
2.13028
21
1.3139
0
LINE
8
BLACK
6
CONTINUOUS
10
2.13028
20
1.3139
11
2.14064
21
1.30646
0
LINE
8
BLACK
6
CONTINUOUS
10
2.14064
20
1.30646
11
2.15178
21
1.30026
0
LINE
8
BLACK
6
CONTINUOUS
10
2.15178
20
1.30026
11
2.16357
21
1.29537
0
LINE
8
BLACK
6
CONTINUOUS
10
2.16357
20
1.29537
11
2.17583
21
1.29188
0
LINE
8
BLACK
6
CONTINUOUS
10
2.17583
20
1.29188
11
2.18842
21
1.28982
0
LINE
8
BLACK
6
CONTINUOUS
10
2.18842
20
1.28982
11
2.20116
21
1.28922
0
LINE
8
BLACK
6
CONTINUOUS
10
2.20116
20
1.28922
11
2.21389
21
1.29009
0
LINE
8
BLACK
6
CONTINUOUS
10
2.21389
20
1.29009
11
2.22643
21
1.29241
0
LINE
8
BLACK
6
CONTINUOUS
10
2.22643
20
1.29241
11
2.23862
21
1.29616
0
LINE
8
BLACK
6
CONTINUOUS
10
2.23862
20
1.29616
11
2.2503
21
1.30129
0
LINE
8
BLACK
6
CONTINUOUS
10
2.2503
20
1.30129
11
2.26131
21
1.30772
0
LINE
8
BLACK
6
CONTINUOUS
10
2.26131
20
1.30772
11
2.27151
21
1.31538
0
LINE
8
BLACK
6
CONTINUOUS
10
2.27151
20
1.31538
11
2.28076
21
1.32416
0
LINE
8
BLACK
6
CONTINUOUS
10
2.28076
20
1.32416
11
2.28894
21
1.33395
0
LINE
8
BLACK
6
CONTINUOUS
10
2.28894
20
1.33395
11
2.29594
21
1.34461
0
LINE
8
BLACK
6
CONTINUOUS
10
2.29594
20
1.34461
11
2.30168
21
1.356
0
LINE
8
BLACK
6
CONTINUOUS
10
2.30168
20
1.356
11
2.30606
21
1.36798
0
LINE
8
BLACK
6
CONTINUOUS
10
2.30606
20
1.36798
11
2.30904
21
1.38038
0
LINE
8
BLACK
6
CONTINUOUS
10
2.30904
20
1.38038
11
2.31057
21
1.39304
0
LINE
8
BLACK
6
CONTINUOUS
10
2.31057
20
1.39304
11
2.31079
21
1.4
0
LINE
8
BLACK
6
CONTINUOUS
10
2.31079
20
1.4
11
2.31005
21
1.41273
0
LINE
8
BLACK
6
CONTINUOUS
10
2.31005
20
1.41273
11
2.30786
21
1.4253
0
LINE
8
BLACK
6
CONTINUOUS
10
2.30786
20
1.4253
11
2.30424
21
1.43753
0
LINE
8
BLACK
6
CONTINUOUS
10
2.30424
20
1.43753
11
2.29923
21
1.44926
0
LINE
8
BLACK
6
CONTINUOUS
10
2.29923
20
1.44926
11
2.29291
21
1.46034
0
LINE
8
BLACK
6
CONTINUOUS
10
2.29291
20
1.46034
11
2.28536
21
1.47062
0
LINE
8
BLACK
6
CONTINUOUS
10
2.28536
20
1.47062
11
2.27668
21
1.47996
0
LINE
8
BLACK
6
CONTINUOUS
10
2.27668
20
1.47996
11
2.26698
21
1.48825
0
LINE
8
BLACK
6
CONTINUOUS
10
2.26698
20
1.48825
11
2.2564
21
1.49536
0
LINE
8
BLACK
6
CONTINUOUS
10
2.2564
20
1.49536
11
2.24506
21
1.50121
0
LINE
8
BLACK
6
CONTINUOUS
10
2.24506
20
1.50121
11
2.23313
21
1.50572
0
LINE
8
BLACK
6
CONTINUOUS
10
2.23313
20
1.50572
11
2.22076
21
1.50883
0
LINE
8
BLACK
6
CONTINUOUS
10
2.22076
20
1.50883
11
2.20811
21
1.51049
0
LINE
8
BLACK
6
CONTINUOUS
10
2.20811
20
1.51049
11
2.19536
21
1.51069
0
LINE
8
BLACK
6
CONTINUOUS
10
2.19536
20
1.51069
11
2.18267
21
1.50942
0
LINE
8
BLACK
6
CONTINUOUS
10
2.18267
20
1.50942
11
2.17021
21
1.50671
0
LINE
8
BLACK
6
CONTINUOUS
10
2.17021
20
1.50671
11
2.15814
21
1.50257
0
LINE
8
BLACK
6
CONTINUOUS
10
2.15814
20
1.50257
11
2.14663
21
1.49708
0
LINE
8
BLACK
6
CONTINUOUS
10
2.14663
20
1.49708
11
2.13582
21
1.49031
0
LINE
8
BLACK
6
CONTINUOUS
10
2.13582
20
1.49031
11
2.12587
21
1.48233
0
LINE
8
BLACK
6
CONTINUOUS
10
2.12587
20
1.48233
11
2.1169
21
1.47327
0
LINE
8
BLACK
6
CONTINUOUS
10
2.1169
20
1.47327
11
2.10903
21
1.46323
0
LINE
8
BLACK
6
CONTINUOUS
10
2.10903
20
1.46323
11
2.10236
21
1.45235
0
LINE
8
BLACK
6
CONTINUOUS
10
2.10236
20
1.45235
11
2.09699
21
1.44078
0
LINE
8
BLACK
6
CONTINUOUS
10
2.09699
20
1.44078
11
2.09299
21
1.42867
0
LINE
8
BLACK
6
CONTINUOUS
10
2.09299
20
1.42867
11
2.0904
21
1.41618
0
LINE
8
BLACK
6
CONTINUOUS
10
2.0904
20
1.41618
11
2.08927
21
1.40348
0
LINE
8
BLACK
6
CONTINUOUS
10
2.08927
20
1.40348
11
2.0896
21
1.39073
0
LINE
8
BLACK
6
CONTINUOUS
10
2.0896
20
1.39073
11
2.0914
21
1.3781
  0
ENDSEC
  0
EOF
