  0
SECTION
  2
HEADER
  9
$ANGBASE
  50
0.0
  9
$ANGDIR
  70
1
  9
$MEASUREMENT
  70
0
  0
ENDSEC
  0
SECTION
  2
TABLES
  0
TABLE
  2
LTYPE
  70
4
  0
LTYPE
  5
40F
  2
CONTINUOUS
  70
0
  3
Solid line
  72
65
  73
0
  40
0.0
  0
LTYPE
  5
410
  2
DASHDOT
 70
0
  3
Dash Dot ____ _ ____ _
 72
65
 73
4
 40
2.0
 49
1.25
 49
-0.25
 49
0.25
 49
-0.25
  0
LTYPE
  5
411
  2
DASHED
 70
0
  3
Dashed __ __ __ __ __
 72
65
 73
2
 40
0.75
 49
0.5
 49
-0.25
  0
LTYPE
  5
43B
  2
DOTTED
 70
0
  3
Dotted .  .  .  .
 72
65
 73
2
 40
0.2
 49
0.0
 49
-0.2
  0
ENDTAB
  0
TABLE
  2
STYLE
  70
4
  0
STYLE
  2
KICAD
  70
0
  40
0
  41
1
  42
1
  50
0
  71
0
  3
isocp.shx
  0
STYLE
  2
KICADB
  70
0
  40
0
  41
1
  42
1
  50
0
  71
0
  3
isocp.shx
  0
STYLE
  2
KICADI
  70
0
  40
0
  41
1
  42
1
  50
15
  71
0
  3
isocp.shx
  0
STYLE
  2
KICADBI
  70
0
  40
0
  41
1
  42
1
  50
15
  71
0
  3
isocp.shx
  0
ENDTAB
  0
TABLE
  2
LAYER
  70
1
  0
LAYER
  2
BLACK
  70
0
  62
7
  6
CONTINUOUS
  0
ENDTAB
  0
ENDSEC
  0
SECTION
  2
ENTITIES
0
LINE
8
BLACK
6
CONTINUOUS
10
0.0303412
20
1.56695
11
0.0314251
21
1.56857
0
LINE
8
BLACK
6
CONTINUOUS
10
0.0314251
20
1.56857
11
0.0330472
21
1.56966
0
LINE
8
BLACK
6
CONTINUOUS
10
0.0330472
20
1.56966
11
0.0349606
21
1.57004
0
LINE
8
BLACK
6
CONTINUOUS
10
0.0349606
20
1.57004
11
2.36504
21
1.57004
0
LINE
8
BLACK
6
CONTINUOUS
10
2.36504
20
1.57004
11
2.36695
21
1.56966
0
LINE
8
BLACK
6
CONTINUOUS
10
2.36695
20
1.56966
11
2.36857
21
1.56857
0
LINE
8
BLACK
6
CONTINUOUS
10
2.36857
20
1.56857
11
2.36966
21
1.56695
0
LINE
8
BLACK
6
CONTINUOUS
10
2.36966
20
1.56695
11
2.37004
21
1.56504
0
LINE
8
BLACK
6
CONTINUOUS
10
2.37004
20
1.56504
11
2.37004
21
0.0349606
0
LINE
8
BLACK
6
CONTINUOUS
10
2.37004
20
0.0349606
11
2.36966
21
0.0330472
0
LINE
8
BLACK
6
CONTINUOUS
10
2.36966
20
0.0330472
11
2.36857
21
0.0314251
0
LINE
8
BLACK
6
CONTINUOUS
10
2.36857
20
0.0314251
11
2.36695
21
0.0303412
0
LINE
8
BLACK
6
CONTINUOUS
10
2.36695
20
0.0303412
11
2.36504
21
0.0299606
0
LINE
8
BLACK
6
CONTINUOUS
10
2.36504
20
0.0299606
11
0.0349606
21
0.0299606
0
LINE
8
BLACK
6
CONTINUOUS
10
0.0349606
20
0.0299606
11
0.0330472
21
0.0303412
0
LINE
8
BLACK
6
CONTINUOUS
10
0.0330472
20
0.0303412
11
0.0314251
21
0.0314251
0
LINE
8
BLACK
6
CONTINUOUS
10
0.0314251
20
0.0314251
11
0.0303412
21
0.0330472
0
LINE
8
BLACK
6
CONTINUOUS
10
0.0303412
20
0.0330472
11
0.0299606
21
0.0349606
0
LINE
8
BLACK
6
CONTINUOUS
10
0.0299606
20
0.0349606
11
0.0299606
21
1.56504
0
LINE
8
BLACK
6
CONTINUOUS
10
0.0299606
20
1.56504
11
0.0303412
21
1.56695
0
LINE
8
BLACK
6
CONTINUOUS
10
2.03315
20
1.08396
11
2.03539
21
1.08553
0
LINE
8
BLACK
6
CONTINUOUS
10
2.03539
20
1.08553
11
2.04317
21
1.08916
0
LINE
8
BLACK
6
CONTINUOUS
10
2.04317
20
1.08916
11
2.05145
21
1.09138
0
LINE
8
BLACK
6
CONTINUOUS
10
2.05145
20
1.09138
11
2.06
21
1.09213
0
LINE
8
BLACK
6
CONTINUOUS
10
2.06
20
1.09213
11
2.06855
21
1.09138
0
LINE
8
BLACK
6
CONTINUOUS
10
2.06855
20
1.09138
11
2.07683
21
1.08916
0
LINE
8
BLACK
6
CONTINUOUS
10
2.07683
20
1.08916
11
2.08461
21
1.08553
0
LINE
8
BLACK
6
CONTINUOUS
10
2.08461
20
1.08553
11
2.08685
21
1.08396
0
LINE
8
BLACK
6
CONTINUOUS
10
2.08685
20
1.08396
11
2.10085
21
1.09796
0
LINE
8
BLACK
6
CONTINUOUS
10
2.10085
20
1.09796
11
2.10109
21
1.0984
0
LINE
8
BLACK
6
CONTINUOUS
10
2.10109
20
1.0984
11
2.10074
21
1.09885
0
LINE
8
BLACK
6
CONTINUOUS
10
2.10074
20
1.09885
11
2.09536
21
1.10258
0
LINE
8
BLACK
6
CONTINUOUS
10
2.09536
20
1.10258
11
2.09504
21
1.10277
0
LINE
8
BLACK
6
CONTINUOUS
10
2.09504
20
1.10277
11
2.08615
21
1.10715
0
LINE
8
BLACK
6
CONTINUOUS
10
2.08615
20
1.10715
11
2.08581
21
1.10729
0
LINE
8
BLACK
6
CONTINUOUS
10
2.08581
20
1.10729
11
2.07637
21
1.11031
0
LINE
8
BLACK
6
CONTINUOUS
10
2.07637
20
1.11031
11
2.07601
21
1.1104
0
LINE
8
BLACK
6
CONTINUOUS
10
2.07601
20
1.1104
11
2.06623
21
1.11199
0
LINE
8
BLACK
6
CONTINUOUS
10
2.06623
20
1.11199
11
2.06586
21
1.11202
0
LINE
8
BLACK
6
CONTINUOUS
10
2.06586
20
1.11202
11
2.05595
21
1.11215
0
LINE
8
BLACK
6
CONTINUOUS
10
2.05595
20
1.11215
11
2.05558
21
1.11213
0
LINE
8
BLACK
6
CONTINUOUS
10
2.05558
20
1.11213
11
2.04576
21
1.11079
0
LINE
8
BLACK
6
CONTINUOUS
10
2.04576
20
1.11079
11
2.0454
21
1.11072
0
LINE
8
BLACK
6
CONTINUOUS
10
2.0454
20
1.11072
11
2.03588
21
1.10794
0
LINE
8
BLACK
6
CONTINUOUS
10
2.03588
20
1.10794
11
2.03554
21
1.10781
0
LINE
8
BLACK
6
CONTINUOUS
10
2.03554
20
1.10781
11
2.02653
21
1.10366
0
LINE
8
BLACK
6
CONTINUOUS
10
2.02653
20
1.10366
11
2.02622
21
1.10349
0
LINE
8
BLACK
6
CONTINUOUS
10
2.02622
20
1.10349
11
2.01917
21
1.09887
0
LINE
8
BLACK
6
CONTINUOUS
10
2.01917
20
1.09887
11
2.01883
21
1.09847
0
LINE
8
BLACK
6
CONTINUOUS
10
2.01883
20
1.09847
11
2.019
21
1.09811
0
LINE
8
BLACK
6
CONTINUOUS
10
2.019
20
1.09811
11
2.03315
21
1.08396
  0
ENDSEC
  0
EOF
