  0
SECTION
  2
HEADER
  9
$ANGBASE
  50
0.0
  9
$ANGDIR
  70
1
  9
$MEASUREMENT
  70
0
  0
ENDSEC
  0
SECTION
  2
TABLES
  0
TABLE
  2
LTYPE
  70
4
  0
LTYPE
  5
40F
  2
CONTINUOUS
  70
0
  3
Solid line
  72
65
  73
0
  40
0.0
  0
LTYPE
  5
410
  2
DASHDOT
 70
0
  3
Dash Dot ____ _ ____ _
 72
65
 73
4
 40
2.0
 49
1.25
 49
-0.25
 49
0.25
 49
-0.25
  0
LTYPE
  5
411
  2
DASHED
 70
0
  3
Dashed __ __ __ __ __
 72
65
 73
2
 40
0.75
 49
0.5
 49
-0.25
  0
LTYPE
  5
43B
  2
DOTTED
 70
0
  3
Dotted .  .  .  .
 72
65
 73
2
 40
0.2
 49
0.0
 49
-0.2
  0
ENDTAB
  0
TABLE
  2
STYLE
  70
4
  0
STYLE
  2
KICAD
  70
0
  40
0
  41
1
  42
1
  50
0
  71
0
  3
isocp.shx
  0
STYLE
  2
KICADB
  70
0
  40
0
  41
1
  42
1
  50
0
  71
0
  3
isocp.shx
  0
STYLE
  2
KICADI
  70
0
  40
0
  41
1
  42
1
  50
15
  71
0
  3
isocp.shx
  0
STYLE
  2
KICADBI
  70
0
  40
0
  41
1
  42
1
  50
15
  71
0
  3
isocp.shx
  0
ENDTAB
  0
TABLE
  2
LAYER
  70
1
  0
LAYER
  2
BLACK
  70
0
  62
7
  6
CONTINUOUS
  0
ENDTAB
  0
ENDSEC
  0
SECTION
  2
ENTITIES
0
LINE
8
BLACK
6
CONTINUOUS
10
5.55477
20
-3.83781
11
5.55797
21
-3.83995
0
LINE
8
BLACK
6
CONTINUOUS
10
5.55797
20
-3.83995
11
5.5601
21
-3.84314
0
LINE
8
BLACK
6
CONTINUOUS
10
5.5601
20
-3.84314
11
5.56085
21
-3.84691
0
LINE
8
BLACK
6
CONTINUOUS
10
5.56085
20
-3.84691
11
5.56085
21
-3.88431
0
LINE
8
BLACK
6
CONTINUOUS
10
5.56085
20
-3.88431
11
5.5601
21
-3.88807
0
LINE
8
BLACK
6
CONTINUOUS
10
5.5601
20
-3.88807
11
5.55797
21
-3.89127
0
LINE
8
BLACK
6
CONTINUOUS
10
5.55797
20
-3.89127
11
5.55477
21
-3.8934
0
LINE
8
BLACK
6
CONTINUOUS
10
5.55477
20
-3.8934
11
5.55101
21
-3.89415
0
LINE
8
BLACK
6
CONTINUOUS
10
5.55101
20
-3.89415
11
5.53132
21
-3.89415
0
LINE
8
BLACK
6
CONTINUOUS
10
5.53132
20
-3.89415
11
5.52756
21
-3.8934
0
LINE
8
BLACK
6
CONTINUOUS
10
5.52756
20
-3.8934
11
5.52436
21
-3.89127
0
LINE
8
BLACK
6
CONTINUOUS
10
5.52436
20
-3.89127
11
5.52223
21
-3.88807
0
LINE
8
BLACK
6
CONTINUOUS
10
5.52223
20
-3.88807
11
5.52148
21
-3.88431
0
LINE
8
BLACK
6
CONTINUOUS
10
5.52148
20
-3.88431
11
5.52148
21
-3.84691
0
LINE
8
BLACK
6
CONTINUOUS
10
5.52148
20
-3.84691
11
5.52223
21
-3.84314
0
LINE
8
BLACK
6
CONTINUOUS
10
5.52223
20
-3.84314
11
5.52436
21
-3.83995
0
LINE
8
BLACK
6
CONTINUOUS
10
5.52436
20
-3.83995
11
5.52756
21
-3.83781
0
LINE
8
BLACK
6
CONTINUOUS
10
5.52756
20
-3.83781
11
5.53132
21
-3.83706
0
LINE
8
BLACK
6
CONTINUOUS
10
5.53132
20
-3.83706
11
5.55101
21
-3.83706
0
LINE
8
BLACK
6
CONTINUOUS
10
5.55101
20
-3.83706
11
5.55477
21
-3.83781
0
LINE
8
BLACK
6
CONTINUOUS
10
5.62958
20
-3.83781
11
5.63277
21
-3.83995
0
LINE
8
BLACK
6
CONTINUOUS
10
5.63277
20
-3.83995
11
5.6349
21
-3.84314
0
LINE
8
BLACK
6
CONTINUOUS
10
5.6349
20
-3.84314
11
5.63565
21
-3.84691
0
LINE
8
BLACK
6
CONTINUOUS
10
5.63565
20
-3.84691
11
5.63565
21
-3.88431
0
LINE
8
BLACK
6
CONTINUOUS
10
5.63565
20
-3.88431
11
5.6349
21
-3.88807
0
LINE
8
BLACK
6
CONTINUOUS
10
5.6349
20
-3.88807
11
5.63277
21
-3.89127
0
LINE
8
BLACK
6
CONTINUOUS
10
5.63277
20
-3.89127
11
5.62958
21
-3.8934
0
LINE
8
BLACK
6
CONTINUOUS
10
5.62958
20
-3.8934
11
5.62581
21
-3.89415
0
LINE
8
BLACK
6
CONTINUOUS
10
5.62581
20
-3.89415
11
5.60613
21
-3.89415
0
LINE
8
BLACK
6
CONTINUOUS
10
5.60613
20
-3.89415
11
5.60236
21
-3.8934
0
LINE
8
BLACK
6
CONTINUOUS
10
5.60236
20
-3.8934
11
5.59917
21
-3.89127
0
LINE
8
BLACK
6
CONTINUOUS
10
5.59917
20
-3.89127
11
5.59703
21
-3.88807
0
LINE
8
BLACK
6
CONTINUOUS
10
5.59703
20
-3.88807
11
5.59628
21
-3.88431
0
LINE
8
BLACK
6
CONTINUOUS
10
5.59628
20
-3.88431
11
5.59628
21
-3.84691
0
LINE
8
BLACK
6
CONTINUOUS
10
5.59628
20
-3.84691
11
5.59703
21
-3.84314
0
LINE
8
BLACK
6
CONTINUOUS
10
5.59703
20
-3.84314
11
5.59917
21
-3.83995
0
LINE
8
BLACK
6
CONTINUOUS
10
5.59917
20
-3.83995
11
5.60236
21
-3.83781
0
LINE
8
BLACK
6
CONTINUOUS
10
5.60236
20
-3.83781
11
5.60613
21
-3.83706
0
LINE
8
BLACK
6
CONTINUOUS
10
5.60613
20
-3.83706
11
5.62581
21
-3.83706
0
LINE
8
BLACK
6
CONTINUOUS
10
5.62581
20
-3.83706
11
5.62958
21
-3.83781
0
LINE
8
BLACK
6
CONTINUOUS
10
6.46901
20
-3.83521
11
6.4722
21
-3.83735
0
LINE
8
BLACK
6
CONTINUOUS
10
6.4722
20
-3.83735
11
6.47434
21
-3.84054
0
LINE
8
BLACK
6
CONTINUOUS
10
6.47434
20
-3.84054
11
6.47509
21
-3.84431
0
LINE
8
BLACK
6
CONTINUOUS
10
6.47509
20
-3.84431
11
6.47509
21
-3.88171
0
LINE
8
BLACK
6
CONTINUOUS
10
6.47509
20
-3.88171
11
6.47434
21
-3.88548
0
LINE
8
BLACK
6
CONTINUOUS
10
6.47434
20
-3.88548
11
6.4722
21
-3.88867
0
LINE
8
BLACK
6
CONTINUOUS
10
6.4722
20
-3.88867
11
6.46901
21
-3.8908
0
LINE
8
BLACK
6
CONTINUOUS
10
6.46901
20
-3.8908
11
6.46524
21
-3.89155
0
LINE
8
BLACK
6
CONTINUOUS
10
6.46524
20
-3.89155
11
6.44556
21
-3.89155
0
LINE
8
BLACK
6
CONTINUOUS
10
6.44556
20
-3.89155
11
6.44179
21
-3.8908
0
LINE
8
BLACK
6
CONTINUOUS
10
6.44179
20
-3.8908
11
6.4386
21
-3.88867
0
LINE
8
BLACK
6
CONTINUOUS
10
6.4386
20
-3.88867
11
6.43647
21
-3.88548
0
LINE
8
BLACK
6
CONTINUOUS
10
6.43647
20
-3.88548
11
6.43572
21
-3.88171
0
LINE
8
BLACK
6
CONTINUOUS
10
6.43572
20
-3.88171
11
6.43572
21
-3.84431
0
LINE
8
BLACK
6
CONTINUOUS
10
6.43572
20
-3.84431
11
6.43647
21
-3.84054
0
LINE
8
BLACK
6
CONTINUOUS
10
6.43647
20
-3.84054
11
6.4386
21
-3.83735
0
LINE
8
BLACK
6
CONTINUOUS
10
6.4386
20
-3.83735
11
6.44179
21
-3.83521
0
LINE
8
BLACK
6
CONTINUOUS
10
6.44179
20
-3.83521
11
6.44556
21
-3.83446
0
LINE
8
BLACK
6
CONTINUOUS
10
6.44556
20
-3.83446
11
6.46524
21
-3.83446
0
LINE
8
BLACK
6
CONTINUOUS
10
6.46524
20
-3.83446
11
6.46901
21
-3.83521
0
LINE
8
BLACK
6
CONTINUOUS
10
6.54381
20
-3.83521
11
6.54701
21
-3.83735
0
LINE
8
BLACK
6
CONTINUOUS
10
6.54701
20
-3.83735
11
6.54914
21
-3.84054
0
LINE
8
BLACK
6
CONTINUOUS
10
6.54914
20
-3.84054
11
6.54989
21
-3.84431
0
LINE
8
BLACK
6
CONTINUOUS
10
6.54989
20
-3.84431
11
6.54989
21
-3.88171
0
LINE
8
BLACK
6
CONTINUOUS
10
6.54989
20
-3.88171
11
6.54914
21
-3.88548
0
LINE
8
BLACK
6
CONTINUOUS
10
6.54914
20
-3.88548
11
6.54701
21
-3.88867
0
LINE
8
BLACK
6
CONTINUOUS
10
6.54701
20
-3.88867
11
6.54381
21
-3.8908
0
LINE
8
BLACK
6
CONTINUOUS
10
6.54381
20
-3.8908
11
6.54005
21
-3.89155
0
LINE
8
BLACK
6
CONTINUOUS
10
6.54005
20
-3.89155
11
6.52036
21
-3.89155
0
LINE
8
BLACK
6
CONTINUOUS
10
6.52036
20
-3.89155
11
6.5166
21
-3.8908
0
LINE
8
BLACK
6
CONTINUOUS
10
6.5166
20
-3.8908
11
6.5134
21
-3.88867
0
LINE
8
BLACK
6
CONTINUOUS
10
6.5134
20
-3.88867
11
6.51127
21
-3.88548
0
LINE
8
BLACK
6
CONTINUOUS
10
6.51127
20
-3.88548
11
6.51052
21
-3.88171
0
LINE
8
BLACK
6
CONTINUOUS
10
6.51052
20
-3.88171
11
6.51052
21
-3.84431
0
LINE
8
BLACK
6
CONTINUOUS
10
6.51052
20
-3.84431
11
6.51127
21
-3.84054
0
LINE
8
BLACK
6
CONTINUOUS
10
6.51127
20
-3.84054
11
6.5134
21
-3.83735
0
LINE
8
BLACK
6
CONTINUOUS
10
6.5134
20
-3.83735
11
6.5166
21
-3.83521
0
LINE
8
BLACK
6
CONTINUOUS
10
6.5166
20
-3.83521
11
6.52036
21
-3.83446
0
LINE
8
BLACK
6
CONTINUOUS
10
6.52036
20
-3.83446
11
6.54005
21
-3.83446
0
LINE
8
BLACK
6
CONTINUOUS
10
6.54005
20
-3.83446
11
6.54381
21
-3.83521
0
LINE
8
BLACK
6
CONTINUOUS
10
5.69488
20
-3.83804
11
5.69767
21
-3.83991
0
LINE
8
BLACK
6
CONTINUOUS
10
5.69767
20
-3.83991
11
5.69954
21
-3.8427
0
LINE
8
BLACK
6
CONTINUOUS
10
5.69954
20
-3.8427
11
5.7002
21
-3.846
0
LINE
8
BLACK
6
CONTINUOUS
10
5.7002
20
-3.846
11
5.7002
21
-3.87602
0
LINE
8
BLACK
6
CONTINUOUS
10
5.7002
20
-3.87602
11
5.69954
21
-3.87931
0
LINE
8
BLACK
6
CONTINUOUS
10
5.69954
20
-3.87931
11
5.69767
21
-3.88211
0
LINE
8
BLACK
6
CONTINUOUS
10
5.69767
20
-3.88211
11
5.69488
21
-3.88397
0
LINE
8
BLACK
6
CONTINUOUS
10
5.69488
20
-3.88397
11
5.69158
21
-3.88463
0
LINE
8
BLACK
6
CONTINUOUS
10
5.69158
20
-3.88463
11
5.67436
21
-3.88463
0
LINE
8
BLACK
6
CONTINUOUS
10
5.67436
20
-3.88463
11
5.67106
21
-3.88397
0
LINE
8
BLACK
6
CONTINUOUS
10
5.67106
20
-3.88397
11
5.66827
21
-3.88211
0
LINE
8
BLACK
6
CONTINUOUS
10
5.66827
20
-3.88211
11
5.6664
21
-3.87931
0
LINE
8
BLACK
6
CONTINUOUS
10
5.6664
20
-3.87931
11
5.66575
21
-3.87602
0
LINE
8
BLACK
6
CONTINUOUS
10
5.66575
20
-3.87602
11
5.66575
21
-3.846
0
LINE
8
BLACK
6
CONTINUOUS
10
5.66575
20
-3.846
11
5.6664
21
-3.8427
0
LINE
8
BLACK
6
CONTINUOUS
10
5.6664
20
-3.8427
11
5.66827
21
-3.83991
0
LINE
8
BLACK
6
CONTINUOUS
10
5.66827
20
-3.83991
11
5.67106
21
-3.83804
0
LINE
8
BLACK
6
CONTINUOUS
10
5.67106
20
-3.83804
11
5.67436
21
-3.83739
0
LINE
8
BLACK
6
CONTINUOUS
10
5.67436
20
-3.83739
11
5.69158
21
-3.83739
0
LINE
8
BLACK
6
CONTINUOUS
10
5.69158
20
-3.83739
11
5.69488
21
-3.83804
0
LINE
8
BLACK
6
CONTINUOUS
10
5.77854
20
-3.83804
11
5.78134
21
-3.83991
0
LINE
8
BLACK
6
CONTINUOUS
10
5.78134
20
-3.83991
11
5.7832
21
-3.8427
0
LINE
8
BLACK
6
CONTINUOUS
10
5.7832
20
-3.8427
11
5.78386
21
-3.846
0
LINE
8
BLACK
6
CONTINUOUS
10
5.78386
20
-3.846
11
5.78386
21
-3.87602
0
LINE
8
BLACK
6
CONTINUOUS
10
5.78386
20
-3.87602
11
5.7832
21
-3.87931
0
LINE
8
BLACK
6
CONTINUOUS
10
5.7832
20
-3.87931
11
5.78134
21
-3.88211
0
LINE
8
BLACK
6
CONTINUOUS
10
5.78134
20
-3.88211
11
5.77854
21
-3.88397
0
LINE
8
BLACK
6
CONTINUOUS
10
5.77854
20
-3.88397
11
5.77525
21
-3.88463
0
LINE
8
BLACK
6
CONTINUOUS
10
5.77525
20
-3.88463
11
5.75802
21
-3.88463
0
LINE
8
BLACK
6
CONTINUOUS
10
5.75802
20
-3.88463
11
5.75473
21
-3.88397
0
LINE
8
BLACK
6
CONTINUOUS
10
5.75473
20
-3.88397
11
5.75193
21
-3.88211
0
LINE
8
BLACK
6
CONTINUOUS
10
5.75193
20
-3.88211
11
5.75007
21
-3.87931
0
LINE
8
BLACK
6
CONTINUOUS
10
5.75007
20
-3.87931
11
5.74941
21
-3.87602
0
LINE
8
BLACK
6
CONTINUOUS
10
5.74941
20
-3.87602
11
5.74941
21
-3.846
0
LINE
8
BLACK
6
CONTINUOUS
10
5.74941
20
-3.846
11
5.75007
21
-3.8427
0
LINE
8
BLACK
6
CONTINUOUS
10
5.75007
20
-3.8427
11
5.75193
21
-3.83991
0
LINE
8
BLACK
6
CONTINUOUS
10
5.75193
20
-3.83991
11
5.75473
21
-3.83804
0
LINE
8
BLACK
6
CONTINUOUS
10
5.75473
20
-3.83804
11
5.75802
21
-3.83739
0
LINE
8
BLACK
6
CONTINUOUS
10
5.75802
20
-3.83739
11
5.77525
21
-3.83739
0
LINE
8
BLACK
6
CONTINUOUS
10
5.77525
20
-3.83739
11
5.77854
21
-3.83804
0
LINE
8
BLACK
6
CONTINUOUS
10
6.00488
20
-3.83604
11
6.00767
21
-3.83791
0
LINE
8
BLACK
6
CONTINUOUS
10
6.00767
20
-3.83791
11
6.00954
21
-3.8407
0
LINE
8
BLACK
6
CONTINUOUS
10
6.00954
20
-3.8407
11
6.0102
21
-3.844
0
LINE
8
BLACK
6
CONTINUOUS
10
6.0102
20
-3.844
11
6.0102
21
-3.87402
0
LINE
8
BLACK
6
CONTINUOUS
10
6.0102
20
-3.87402
11
6.00954
21
-3.87731
0
LINE
8
BLACK
6
CONTINUOUS
10
6.00954
20
-3.87731
11
6.00767
21
-3.88011
0
LINE
8
BLACK
6
CONTINUOUS
10
6.00767
20
-3.88011
11
6.00488
21
-3.88197
0
LINE
8
BLACK
6
CONTINUOUS
10
6.00488
20
-3.88197
11
6.00158
21
-3.88263
0
LINE
8
BLACK
6
CONTINUOUS
10
6.00158
20
-3.88263
11
5.98436
21
-3.88263
0
LINE
8
BLACK
6
CONTINUOUS
10
5.98436
20
-3.88263
11
5.98106
21
-3.88197
0
LINE
8
BLACK
6
CONTINUOUS
10
5.98106
20
-3.88197
11
5.97827
21
-3.88011
0
LINE
8
BLACK
6
CONTINUOUS
10
5.97827
20
-3.88011
11
5.9764
21
-3.87731
0
LINE
8
BLACK
6
CONTINUOUS
10
5.9764
20
-3.87731
11
5.97575
21
-3.87402
0
LINE
8
BLACK
6
CONTINUOUS
10
5.97575
20
-3.87402
11
5.97575
21
-3.844
0
LINE
8
BLACK
6
CONTINUOUS
10
5.97575
20
-3.844
11
5.9764
21
-3.8407
0
LINE
8
BLACK
6
CONTINUOUS
10
5.9764
20
-3.8407
11
5.97827
21
-3.83791
0
LINE
8
BLACK
6
CONTINUOUS
10
5.97827
20
-3.83791
11
5.98106
21
-3.83604
0
LINE
8
BLACK
6
CONTINUOUS
10
5.98106
20
-3.83604
11
5.98436
21
-3.83539
0
LINE
8
BLACK
6
CONTINUOUS
10
5.98436
20
-3.83539
11
6.00158
21
-3.83539
0
LINE
8
BLACK
6
CONTINUOUS
10
6.00158
20
-3.83539
11
6.00488
21
-3.83604
0
LINE
8
BLACK
6
CONTINUOUS
10
6.08854
20
-3.83604
11
6.09134
21
-3.83791
0
LINE
8
BLACK
6
CONTINUOUS
10
6.09134
20
-3.83791
11
6.0932
21
-3.8407
0
LINE
8
BLACK
6
CONTINUOUS
10
6.0932
20
-3.8407
11
6.09386
21
-3.844
0
LINE
8
BLACK
6
CONTINUOUS
10
6.09386
20
-3.844
11
6.09386
21
-3.87402
0
LINE
8
BLACK
6
CONTINUOUS
10
6.09386
20
-3.87402
11
6.0932
21
-3.87731
0
LINE
8
BLACK
6
CONTINUOUS
10
6.0932
20
-3.87731
11
6.09134
21
-3.88011
0
LINE
8
BLACK
6
CONTINUOUS
10
6.09134
20
-3.88011
11
6.08854
21
-3.88197
0
LINE
8
BLACK
6
CONTINUOUS
10
6.08854
20
-3.88197
11
6.08525
21
-3.88263
0
LINE
8
BLACK
6
CONTINUOUS
10
6.08525
20
-3.88263
11
6.06802
21
-3.88263
0
LINE
8
BLACK
6
CONTINUOUS
10
6.06802
20
-3.88263
11
6.06473
21
-3.88197
0
LINE
8
BLACK
6
CONTINUOUS
10
6.06473
20
-3.88197
11
6.06193
21
-3.88011
0
LINE
8
BLACK
6
CONTINUOUS
10
6.06193
20
-3.88011
11
6.06006
21
-3.87731
0
LINE
8
BLACK
6
CONTINUOUS
10
6.06006
20
-3.87731
11
6.05941
21
-3.87402
0
LINE
8
BLACK
6
CONTINUOUS
10
6.05941
20
-3.87402
11
6.05941
21
-3.844
0
LINE
8
BLACK
6
CONTINUOUS
10
6.05941
20
-3.844
11
6.06006
21
-3.8407
0
LINE
8
BLACK
6
CONTINUOUS
10
6.06006
20
-3.8407
11
6.06193
21
-3.83791
0
LINE
8
BLACK
6
CONTINUOUS
10
6.06193
20
-3.83791
11
6.06473
21
-3.83604
0
LINE
8
BLACK
6
CONTINUOUS
10
6.06473
20
-3.83604
11
6.06802
21
-3.83539
0
LINE
8
BLACK
6
CONTINUOUS
10
6.06802
20
-3.83539
11
6.08525
21
-3.83539
0
LINE
8
BLACK
6
CONTINUOUS
10
6.08525
20
-3.83539
11
6.08854
21
-3.83604
0
LINE
8
BLACK
6
CONTINUOUS
10
6.31588
20
-3.83504
11
6.31867
21
-3.83691
0
LINE
8
BLACK
6
CONTINUOUS
10
6.31867
20
-3.83691
11
6.32054
21
-3.8397
0
LINE
8
BLACK
6
CONTINUOUS
10
6.32054
20
-3.8397
11
6.3212
21
-3.843
0
LINE
8
BLACK
6
CONTINUOUS
10
6.3212
20
-3.843
11
6.3212
21
-3.87302
0
LINE
8
BLACK
6
CONTINUOUS
10
6.3212
20
-3.87302
11
6.32054
21
-3.87631
0
LINE
8
BLACK
6
CONTINUOUS
10
6.32054
20
-3.87631
11
6.31867
21
-3.87911
0
LINE
8
BLACK
6
CONTINUOUS
10
6.31867
20
-3.87911
11
6.31588
21
-3.88097
0
LINE
8
BLACK
6
CONTINUOUS
10
6.31588
20
-3.88097
11
6.31258
21
-3.88163
0
LINE
8
BLACK
6
CONTINUOUS
10
6.31258
20
-3.88163
11
6.29536
21
-3.88163
0
LINE
8
BLACK
6
CONTINUOUS
10
6.29536
20
-3.88163
11
6.29206
21
-3.88097
0
LINE
8
BLACK
6
CONTINUOUS
10
6.29206
20
-3.88097
11
6.28927
21
-3.87911
0
LINE
8
BLACK
6
CONTINUOUS
10
6.28927
20
-3.87911
11
6.2874
21
-3.87631
0
LINE
8
BLACK
6
CONTINUOUS
10
6.2874
20
-3.87631
11
6.28675
21
-3.87302
0
LINE
8
BLACK
6
CONTINUOUS
10
6.28675
20
-3.87302
11
6.28675
21
-3.843
0
LINE
8
BLACK
6
CONTINUOUS
10
6.28675
20
-3.843
11
6.2874
21
-3.8397
0
LINE
8
BLACK
6
CONTINUOUS
10
6.2874
20
-3.8397
11
6.28927
21
-3.83691
0
LINE
8
BLACK
6
CONTINUOUS
10
6.28927
20
-3.83691
11
6.29206
21
-3.83504
0
LINE
8
BLACK
6
CONTINUOUS
10
6.29206
20
-3.83504
11
6.29536
21
-3.83439
0
LINE
8
BLACK
6
CONTINUOUS
10
6.29536
20
-3.83439
11
6.31258
21
-3.83439
0
LINE
8
BLACK
6
CONTINUOUS
10
6.31258
20
-3.83439
11
6.31588
21
-3.83504
0
LINE
8
BLACK
6
CONTINUOUS
10
6.39954
20
-3.83504
11
6.40234
21
-3.83691
0
LINE
8
BLACK
6
CONTINUOUS
10
6.40234
20
-3.83691
11
6.4042
21
-3.8397
0
LINE
8
BLACK
6
CONTINUOUS
10
6.4042
20
-3.8397
11
6.40486
21
-3.843
0
LINE
8
BLACK
6
CONTINUOUS
10
6.40486
20
-3.843
11
6.40486
21
-3.87302
0
LINE
8
BLACK
6
CONTINUOUS
10
6.40486
20
-3.87302
11
6.4042
21
-3.87631
0
LINE
8
BLACK
6
CONTINUOUS
10
6.4042
20
-3.87631
11
6.40234
21
-3.87911
0
LINE
8
BLACK
6
CONTINUOUS
10
6.40234
20
-3.87911
11
6.39954
21
-3.88097
0
LINE
8
BLACK
6
CONTINUOUS
10
6.39954
20
-3.88097
11
6.39625
21
-3.88163
0
LINE
8
BLACK
6
CONTINUOUS
10
6.39625
20
-3.88163
11
6.37902
21
-3.88163
0
LINE
8
BLACK
6
CONTINUOUS
10
6.37902
20
-3.88163
11
6.37573
21
-3.88097
0
LINE
8
BLACK
6
CONTINUOUS
10
6.37573
20
-3.88097
11
6.37293
21
-3.87911
0
LINE
8
BLACK
6
CONTINUOUS
10
6.37293
20
-3.87911
11
6.37106
21
-3.87631
0
LINE
8
BLACK
6
CONTINUOUS
10
6.37106
20
-3.87631
11
6.37041
21
-3.87302
0
LINE
8
BLACK
6
CONTINUOUS
10
6.37041
20
-3.87302
11
6.37041
21
-3.843
0
LINE
8
BLACK
6
CONTINUOUS
10
6.37041
20
-3.843
11
6.37106
21
-3.8397
0
LINE
8
BLACK
6
CONTINUOUS
10
6.37106
20
-3.8397
11
6.37293
21
-3.83691
0
LINE
8
BLACK
6
CONTINUOUS
10
6.37293
20
-3.83691
11
6.37573
21
-3.83504
0
LINE
8
BLACK
6
CONTINUOUS
10
6.37573
20
-3.83504
11
6.37902
21
-3.83439
0
LINE
8
BLACK
6
CONTINUOUS
10
6.37902
20
-3.83439
11
6.39625
21
-3.83439
0
LINE
8
BLACK
6
CONTINUOUS
10
6.39625
20
-3.83439
11
6.39954
21
-3.83504
0
LINE
8
BLACK
6
CONTINUOUS
10
5.94111
20
-3.84587
11
5.9439
21
-3.84774
0
LINE
8
BLACK
6
CONTINUOUS
10
5.9439
20
-3.84774
11
5.94577
21
-3.85053
0
LINE
8
BLACK
6
CONTINUOUS
10
5.94577
20
-3.85053
11
5.94643
21
-3.85382
0
LINE
8
BLACK
6
CONTINUOUS
10
5.94643
20
-3.85382
11
5.94643
21
-3.87105
0
LINE
8
BLACK
6
CONTINUOUS
10
5.94643
20
-3.87105
11
5.94577
21
-3.87434
0
LINE
8
BLACK
6
CONTINUOUS
10
5.94577
20
-3.87434
11
5.9439
21
-3.87714
0
LINE
8
BLACK
6
CONTINUOUS
10
5.9439
20
-3.87714
11
5.94111
21
-3.87901
0
LINE
8
BLACK
6
CONTINUOUS
10
5.94111
20
-3.87901
11
5.93781
21
-3.87966
0
LINE
8
BLACK
6
CONTINUOUS
10
5.93781
20
-3.87966
11
5.90779
21
-3.87966
0
LINE
8
BLACK
6
CONTINUOUS
10
5.90779
20
-3.87966
11
5.9045
21
-3.87901
0
LINE
8
BLACK
6
CONTINUOUS
10
5.9045
20
-3.87901
11
5.9017
21
-3.87714
0
LINE
8
BLACK
6
CONTINUOUS
10
5.9017
20
-3.87714
11
5.89984
21
-3.87434
0
LINE
8
BLACK
6
CONTINUOUS
10
5.89984
20
-3.87434
11
5.89918
21
-3.87105
0
LINE
8
BLACK
6
CONTINUOUS
10
5.89918
20
-3.87105
11
5.89918
21
-3.85382
0
LINE
8
BLACK
6
CONTINUOUS
10
5.89918
20
-3.85382
11
5.89984
21
-3.85053
0
LINE
8
BLACK
6
CONTINUOUS
10
5.89984
20
-3.85053
11
5.9017
21
-3.84774
0
LINE
8
BLACK
6
CONTINUOUS
10
5.9017
20
-3.84774
11
5.9045
21
-3.84587
0
LINE
8
BLACK
6
CONTINUOUS
10
5.9045
20
-3.84587
11
5.90779
21
-3.84521
0
LINE
8
BLACK
6
CONTINUOUS
10
5.90779
20
-3.84521
11
5.93781
21
-3.84521
0
LINE
8
BLACK
6
CONTINUOUS
10
5.93781
20
-3.84521
11
5.94111
21
-3.84587
0
LINE
8
BLACK
6
CONTINUOUS
10
5.86527
20
-3.83907
11
5.86846
21
-3.84121
0
LINE
8
BLACK
6
CONTINUOUS
10
5.86846
20
-3.84121
11
5.8706
21
-3.8444
0
LINE
8
BLACK
6
CONTINUOUS
10
5.8706
20
-3.8444
11
5.87135
21
-3.84817
0
LINE
8
BLACK
6
CONTINUOUS
10
5.87135
20
-3.84817
11
5.87135
21
-3.86785
0
LINE
8
BLACK
6
CONTINUOUS
10
5.87135
20
-3.86785
11
5.8706
21
-3.87162
0
LINE
8
BLACK
6
CONTINUOUS
10
5.8706
20
-3.87162
11
5.86846
21
-3.87481
0
LINE
8
BLACK
6
CONTINUOUS
10
5.86846
20
-3.87481
11
5.86527
21
-3.87694
0
LINE
8
BLACK
6
CONTINUOUS
10
5.86527
20
-3.87694
11
5.8615
21
-3.87769
0
LINE
8
BLACK
6
CONTINUOUS
10
5.8615
20
-3.87769
11
5.8241
21
-3.87769
0
LINE
8
BLACK
6
CONTINUOUS
10
5.8241
20
-3.87769
11
5.82034
21
-3.87694
0
LINE
8
BLACK
6
CONTINUOUS
10
5.82034
20
-3.87694
11
5.81714
21
-3.87481
0
LINE
8
BLACK
6
CONTINUOUS
10
5.81714
20
-3.87481
11
5.81501
21
-3.87162
0
LINE
8
BLACK
6
CONTINUOUS
10
5.81501
20
-3.87162
11
5.81426
21
-3.86785
0
LINE
8
BLACK
6
CONTINUOUS
10
5.81426
20
-3.86785
11
5.81426
21
-3.84817
0
LINE
8
BLACK
6
CONTINUOUS
10
5.81426
20
-3.84817
11
5.81501
21
-3.8444
0
LINE
8
BLACK
6
CONTINUOUS
10
5.81501
20
-3.8444
11
5.81714
21
-3.84121
0
LINE
8
BLACK
6
CONTINUOUS
10
5.81714
20
-3.84121
11
5.82034
21
-3.83907
0
LINE
8
BLACK
6
CONTINUOUS
10
5.82034
20
-3.83907
11
5.8241
21
-3.83832
0
LINE
8
BLACK
6
CONTINUOUS
10
5.8241
20
-3.83832
11
5.8615
21
-3.83832
0
LINE
8
BLACK
6
CONTINUOUS
10
5.8615
20
-3.83832
11
5.86527
21
-3.83907
0
LINE
8
BLACK
6
CONTINUOUS
10
6.25111
20
-3.84227
11
6.2539
21
-3.84414
0
LINE
8
BLACK
6
CONTINUOUS
10
6.2539
20
-3.84414
11
6.25577
21
-3.84693
0
LINE
8
BLACK
6
CONTINUOUS
10
6.25577
20
-3.84693
11
6.25643
21
-3.85023
0
LINE
8
BLACK
6
CONTINUOUS
10
6.25643
20
-3.85023
11
6.25643
21
-3.86745
0
LINE
8
BLACK
6
CONTINUOUS
10
6.25643
20
-3.86745
11
6.25577
21
-3.87075
0
LINE
8
BLACK
6
CONTINUOUS
10
6.25577
20
-3.87075
11
6.2539
21
-3.87354
0
LINE
8
BLACK
6
CONTINUOUS
10
6.2539
20
-3.87354
11
6.25111
21
-3.87541
0
LINE
8
BLACK
6
CONTINUOUS
10
6.25111
20
-3.87541
11
6.24781
21
-3.87606
0
LINE
8
BLACK
6
CONTINUOUS
10
6.24781
20
-3.87606
11
6.21779
21
-3.87606
0
LINE
8
BLACK
6
CONTINUOUS
10
6.21779
20
-3.87606
11
6.2145
21
-3.87541
0
LINE
8
BLACK
6
CONTINUOUS
10
6.2145
20
-3.87541
11
6.2117
21
-3.87354
0
LINE
8
BLACK
6
CONTINUOUS
10
6.2117
20
-3.87354
11
6.20984
21
-3.87075
0
LINE
8
BLACK
6
CONTINUOUS
10
6.20984
20
-3.87075
11
6.20918
21
-3.86745
0
LINE
8
BLACK
6
CONTINUOUS
10
6.20918
20
-3.86745
11
6.20918
21
-3.85023
0
LINE
8
BLACK
6
CONTINUOUS
10
6.20918
20
-3.85023
11
6.20984
21
-3.84693
0
LINE
8
BLACK
6
CONTINUOUS
10
6.20984
20
-3.84693
11
6.2117
21
-3.84414
0
LINE
8
BLACK
6
CONTINUOUS
10
6.2117
20
-3.84414
11
6.2145
21
-3.84227
0
LINE
8
BLACK
6
CONTINUOUS
10
6.2145
20
-3.84227
11
6.21779
21
-3.84161
0
LINE
8
BLACK
6
CONTINUOUS
10
6.21779
20
-3.84161
11
6.24781
21
-3.84161
0
LINE
8
BLACK
6
CONTINUOUS
10
6.24781
20
-3.84161
11
6.25111
21
-3.84227
0
LINE
8
BLACK
6
CONTINUOUS
10
6.17527
20
-3.83547
11
6.17846
21
-3.83761
0
LINE
8
BLACK
6
CONTINUOUS
10
6.17846
20
-3.83761
11
6.1806
21
-3.8408
0
LINE
8
BLACK
6
CONTINUOUS
10
6.1806
20
-3.8408
11
6.18135
21
-3.84457
0
LINE
8
BLACK
6
CONTINUOUS
10
6.18135
20
-3.84457
11
6.18135
21
-3.86425
0
LINE
8
BLACK
6
CONTINUOUS
10
6.18135
20
-3.86425
11
6.1806
21
-3.86802
0
LINE
8
BLACK
6
CONTINUOUS
10
6.1806
20
-3.86802
11
6.17846
21
-3.87121
0
LINE
8
BLACK
6
CONTINUOUS
10
6.17846
20
-3.87121
11
6.17527
21
-3.87335
0
LINE
8
BLACK
6
CONTINUOUS
10
6.17527
20
-3.87335
11
6.1715
21
-3.87409
0
LINE
8
BLACK
6
CONTINUOUS
10
6.1715
20
-3.87409
11
6.1341
21
-3.87409
0
LINE
8
BLACK
6
CONTINUOUS
10
6.1341
20
-3.87409
11
6.13034
21
-3.87335
0
LINE
8
BLACK
6
CONTINUOUS
10
6.13034
20
-3.87335
11
6.12714
21
-3.87121
0
LINE
8
BLACK
6
CONTINUOUS
10
6.12714
20
-3.87121
11
6.12501
21
-3.86802
0
LINE
8
BLACK
6
CONTINUOUS
10
6.12501
20
-3.86802
11
6.12426
21
-3.86425
0
LINE
8
BLACK
6
CONTINUOUS
10
6.12426
20
-3.86425
11
6.12426
21
-3.84457
0
LINE
8
BLACK
6
CONTINUOUS
10
6.12426
20
-3.84457
11
6.12501
21
-3.8408
0
LINE
8
BLACK
6
CONTINUOUS
10
6.12501
20
-3.8408
11
6.12714
21
-3.83761
0
LINE
8
BLACK
6
CONTINUOUS
10
6.12714
20
-3.83761
11
6.13034
21
-3.83547
0
LINE
8
BLACK
6
CONTINUOUS
10
6.13034
20
-3.83547
11
6.1341
21
-3.83472
0
LINE
8
BLACK
6
CONTINUOUS
10
6.1341
20
-3.83472
11
6.1715
21
-3.83472
0
LINE
8
BLACK
6
CONTINUOUS
10
6.1715
20
-3.83472
11
6.17527
21
-3.83547
0
LINE
8
BLACK
6
CONTINUOUS
10
5.69488
20
-3.75804
11
5.69767
21
-3.75991
0
LINE
8
BLACK
6
CONTINUOUS
10
5.69767
20
-3.75991
11
5.69954
21
-3.7627
0
LINE
8
BLACK
6
CONTINUOUS
10
5.69954
20
-3.7627
11
5.7002
21
-3.766
0
LINE
8
BLACK
6
CONTINUOUS
10
5.7002
20
-3.766
11
5.7002
21
-3.79602
0
LINE
8
BLACK
6
CONTINUOUS
10
5.7002
20
-3.79602
11
5.69954
21
-3.79931
0
LINE
8
BLACK
6
CONTINUOUS
10
5.69954
20
-3.79931
11
5.69767
21
-3.80211
0
LINE
8
BLACK
6
CONTINUOUS
10
5.69767
20
-3.80211
11
5.69488
21
-3.80397
0
LINE
8
BLACK
6
CONTINUOUS
10
5.69488
20
-3.80397
11
5.69158
21
-3.80463
0
LINE
8
BLACK
6
CONTINUOUS
10
5.69158
20
-3.80463
11
5.67436
21
-3.80463
0
LINE
8
BLACK
6
CONTINUOUS
10
5.67436
20
-3.80463
11
5.67106
21
-3.80397
0
LINE
8
BLACK
6
CONTINUOUS
10
5.67106
20
-3.80397
11
5.66827
21
-3.80211
0
LINE
8
BLACK
6
CONTINUOUS
10
5.66827
20
-3.80211
11
5.6664
21
-3.79931
0
LINE
8
BLACK
6
CONTINUOUS
10
5.6664
20
-3.79931
11
5.66575
21
-3.79602
0
LINE
8
BLACK
6
CONTINUOUS
10
5.66575
20
-3.79602
11
5.66575
21
-3.766
0
LINE
8
BLACK
6
CONTINUOUS
10
5.66575
20
-3.766
11
5.6664
21
-3.7627
0
LINE
8
BLACK
6
CONTINUOUS
10
5.6664
20
-3.7627
11
5.66827
21
-3.75991
0
LINE
8
BLACK
6
CONTINUOUS
10
5.66827
20
-3.75991
11
5.67106
21
-3.75804
0
LINE
8
BLACK
6
CONTINUOUS
10
5.67106
20
-3.75804
11
5.67436
21
-3.75739
0
LINE
8
BLACK
6
CONTINUOUS
10
5.67436
20
-3.75739
11
5.69158
21
-3.75739
0
LINE
8
BLACK
6
CONTINUOUS
10
5.69158
20
-3.75739
11
5.69488
21
-3.75804
0
LINE
8
BLACK
6
CONTINUOUS
10
5.77854
20
-3.75804
11
5.78134
21
-3.75991
0
LINE
8
BLACK
6
CONTINUOUS
10
5.78134
20
-3.75991
11
5.7832
21
-3.7627
0
LINE
8
BLACK
6
CONTINUOUS
10
5.7832
20
-3.7627
11
5.78386
21
-3.766
0
LINE
8
BLACK
6
CONTINUOUS
10
5.78386
20
-3.766
11
5.78386
21
-3.79602
0
LINE
8
BLACK
6
CONTINUOUS
10
5.78386
20
-3.79602
11
5.7832
21
-3.79931
0
LINE
8
BLACK
6
CONTINUOUS
10
5.7832
20
-3.79931
11
5.78134
21
-3.80211
0
LINE
8
BLACK
6
CONTINUOUS
10
5.78134
20
-3.80211
11
5.77854
21
-3.80397
0
LINE
8
BLACK
6
CONTINUOUS
10
5.77854
20
-3.80397
11
5.77525
21
-3.80463
0
LINE
8
BLACK
6
CONTINUOUS
10
5.77525
20
-3.80463
11
5.75802
21
-3.80463
0
LINE
8
BLACK
6
CONTINUOUS
10
5.75802
20
-3.80463
11
5.75473
21
-3.80397
0
LINE
8
BLACK
6
CONTINUOUS
10
5.75473
20
-3.80397
11
5.75193
21
-3.80211
0
LINE
8
BLACK
6
CONTINUOUS
10
5.75193
20
-3.80211
11
5.75007
21
-3.79931
0
LINE
8
BLACK
6
CONTINUOUS
10
5.75007
20
-3.79931
11
5.74941
21
-3.79602
0
LINE
8
BLACK
6
CONTINUOUS
10
5.74941
20
-3.79602
11
5.74941
21
-3.766
0
LINE
8
BLACK
6
CONTINUOUS
10
5.74941
20
-3.766
11
5.75007
21
-3.7627
0
LINE
8
BLACK
6
CONTINUOUS
10
5.75007
20
-3.7627
11
5.75193
21
-3.75991
0
LINE
8
BLACK
6
CONTINUOUS
10
5.75193
20
-3.75991
11
5.75473
21
-3.75804
0
LINE
8
BLACK
6
CONTINUOUS
10
5.75473
20
-3.75804
11
5.75802
21
-3.75739
0
LINE
8
BLACK
6
CONTINUOUS
10
5.75802
20
-3.75739
11
5.77525
21
-3.75739
0
LINE
8
BLACK
6
CONTINUOUS
10
5.77525
20
-3.75739
11
5.77854
21
-3.75804
0
LINE
8
BLACK
6
CONTINUOUS
10
5.55477
20
-3.74781
11
5.55797
21
-3.74995
0
LINE
8
BLACK
6
CONTINUOUS
10
5.55797
20
-3.74995
11
5.5601
21
-3.75314
0
LINE
8
BLACK
6
CONTINUOUS
10
5.5601
20
-3.75314
11
5.56085
21
-3.75691
0
LINE
8
BLACK
6
CONTINUOUS
10
5.56085
20
-3.75691
11
5.56085
21
-3.79431
0
LINE
8
BLACK
6
CONTINUOUS
10
5.56085
20
-3.79431
11
5.5601
21
-3.79807
0
LINE
8
BLACK
6
CONTINUOUS
10
5.5601
20
-3.79807
11
5.55797
21
-3.80127
0
LINE
8
BLACK
6
CONTINUOUS
10
5.55797
20
-3.80127
11
5.55477
21
-3.8034
0
LINE
8
BLACK
6
CONTINUOUS
10
5.55477
20
-3.8034
11
5.55101
21
-3.80415
0
LINE
8
BLACK
6
CONTINUOUS
10
5.55101
20
-3.80415
11
5.53132
21
-3.80415
0
LINE
8
BLACK
6
CONTINUOUS
10
5.53132
20
-3.80415
11
5.52756
21
-3.8034
0
LINE
8
BLACK
6
CONTINUOUS
10
5.52756
20
-3.8034
11
5.52436
21
-3.80127
0
LINE
8
BLACK
6
CONTINUOUS
10
5.52436
20
-3.80127
11
5.52223
21
-3.79807
0
LINE
8
BLACK
6
CONTINUOUS
10
5.52223
20
-3.79807
11
5.52148
21
-3.79431
0
LINE
8
BLACK
6
CONTINUOUS
10
5.52148
20
-3.79431
11
5.52148
21
-3.75691
0
LINE
8
BLACK
6
CONTINUOUS
10
5.52148
20
-3.75691
11
5.52223
21
-3.75314
0
LINE
8
BLACK
6
CONTINUOUS
10
5.52223
20
-3.75314
11
5.52436
21
-3.74995
0
LINE
8
BLACK
6
CONTINUOUS
10
5.52436
20
-3.74995
11
5.52756
21
-3.74781
0
LINE
8
BLACK
6
CONTINUOUS
10
5.52756
20
-3.74781
11
5.53132
21
-3.74706
0
LINE
8
BLACK
6
CONTINUOUS
10
5.53132
20
-3.74706
11
5.55101
21
-3.74706
0
LINE
8
BLACK
6
CONTINUOUS
10
5.55101
20
-3.74706
11
5.55477
21
-3.74781
0
LINE
8
BLACK
6
CONTINUOUS
10
5.62958
20
-3.74781
11
5.63277
21
-3.74995
0
LINE
8
BLACK
6
CONTINUOUS
10
5.63277
20
-3.74995
11
5.6349
21
-3.75314
0
LINE
8
BLACK
6
CONTINUOUS
10
5.6349
20
-3.75314
11
5.63565
21
-3.75691
0
LINE
8
BLACK
6
CONTINUOUS
10
5.63565
20
-3.75691
11
5.63565
21
-3.79431
0
LINE
8
BLACK
6
CONTINUOUS
10
5.63565
20
-3.79431
11
5.6349
21
-3.79807
0
LINE
8
BLACK
6
CONTINUOUS
10
5.6349
20
-3.79807
11
5.63277
21
-3.80127
0
LINE
8
BLACK
6
CONTINUOUS
10
5.63277
20
-3.80127
11
5.62958
21
-3.8034
0
LINE
8
BLACK
6
CONTINUOUS
10
5.62958
20
-3.8034
11
5.62581
21
-3.80415
0
LINE
8
BLACK
6
CONTINUOUS
10
5.62581
20
-3.80415
11
5.60613
21
-3.80415
0
LINE
8
BLACK
6
CONTINUOUS
10
5.60613
20
-3.80415
11
5.60236
21
-3.8034
0
LINE
8
BLACK
6
CONTINUOUS
10
5.60236
20
-3.8034
11
5.59917
21
-3.80127
0
LINE
8
BLACK
6
CONTINUOUS
10
5.59917
20
-3.80127
11
5.59703
21
-3.79807
0
LINE
8
BLACK
6
CONTINUOUS
10
5.59703
20
-3.79807
11
5.59628
21
-3.79431
0
LINE
8
BLACK
6
CONTINUOUS
10
5.59628
20
-3.79431
11
5.59628
21
-3.75691
0
LINE
8
BLACK
6
CONTINUOUS
10
5.59628
20
-3.75691
11
5.59703
21
-3.75314
0
LINE
8
BLACK
6
CONTINUOUS
10
5.59703
20
-3.75314
11
5.59917
21
-3.74995
0
LINE
8
BLACK
6
CONTINUOUS
10
5.59917
20
-3.74995
11
5.60236
21
-3.74781
0
LINE
8
BLACK
6
CONTINUOUS
10
5.60236
20
-3.74781
11
5.60613
21
-3.74706
0
LINE
8
BLACK
6
CONTINUOUS
10
5.60613
20
-3.74706
11
5.62581
21
-3.74706
0
LINE
8
BLACK
6
CONTINUOUS
10
5.62581
20
-3.74706
11
5.62958
21
-3.74781
0
LINE
8
BLACK
6
CONTINUOUS
10
5.86527
20
-3.76427
11
5.86846
21
-3.7664
0
LINE
8
BLACK
6
CONTINUOUS
10
5.86846
20
-3.7664
11
5.8706
21
-3.7696
0
LINE
8
BLACK
6
CONTINUOUS
10
5.8706
20
-3.7696
11
5.87135
21
-3.77336
0
LINE
8
BLACK
6
CONTINUOUS
10
5.87135
20
-3.77336
11
5.87135
21
-3.79305
0
LINE
8
BLACK
6
CONTINUOUS
10
5.87135
20
-3.79305
11
5.8706
21
-3.79681
0
LINE
8
BLACK
6
CONTINUOUS
10
5.8706
20
-3.79681
11
5.86846
21
-3.80001
0
LINE
8
BLACK
6
CONTINUOUS
10
5.86846
20
-3.80001
11
5.86527
21
-3.80214
0
LINE
8
BLACK
6
CONTINUOUS
10
5.86527
20
-3.80214
11
5.8615
21
-3.80289
0
LINE
8
BLACK
6
CONTINUOUS
10
5.8615
20
-3.80289
11
5.8241
21
-3.80289
0
LINE
8
BLACK
6
CONTINUOUS
10
5.8241
20
-3.80289
11
5.82034
21
-3.80214
0
LINE
8
BLACK
6
CONTINUOUS
10
5.82034
20
-3.80214
11
5.81714
21
-3.80001
0
LINE
8
BLACK
6
CONTINUOUS
10
5.81714
20
-3.80001
11
5.81501
21
-3.79681
0
LINE
8
BLACK
6
CONTINUOUS
10
5.81501
20
-3.79681
11
5.81426
21
-3.79305
0
LINE
8
BLACK
6
CONTINUOUS
10
5.81426
20
-3.79305
11
5.81426
21
-3.77336
0
LINE
8
BLACK
6
CONTINUOUS
10
5.81426
20
-3.77336
11
5.81501
21
-3.7696
0
LINE
8
BLACK
6
CONTINUOUS
10
5.81501
20
-3.7696
11
5.81714
21
-3.7664
0
LINE
8
BLACK
6
CONTINUOUS
10
5.81714
20
-3.7664
11
5.82034
21
-3.76427
0
LINE
8
BLACK
6
CONTINUOUS
10
5.82034
20
-3.76427
11
5.8241
21
-3.76352
0
LINE
8
BLACK
6
CONTINUOUS
10
5.8241
20
-3.76352
11
5.8615
21
-3.76352
0
LINE
8
BLACK
6
CONTINUOUS
10
5.8615
20
-3.76352
11
5.86527
21
-3.76427
0
LINE
8
BLACK
6
CONTINUOUS
10
6.00488
20
-3.75604
11
6.00767
21
-3.75791
0
LINE
8
BLACK
6
CONTINUOUS
10
6.00767
20
-3.75791
11
6.00954
21
-3.7607
0
LINE
8
BLACK
6
CONTINUOUS
10
6.00954
20
-3.7607
11
6.0102
21
-3.764
0
LINE
8
BLACK
6
CONTINUOUS
10
6.0102
20
-3.764
11
6.0102
21
-3.79402
0
LINE
8
BLACK
6
CONTINUOUS
10
6.0102
20
-3.79402
11
6.00954
21
-3.79731
0
LINE
8
BLACK
6
CONTINUOUS
10
6.00954
20
-3.79731
11
6.00767
21
-3.80011
0
LINE
8
BLACK
6
CONTINUOUS
10
6.00767
20
-3.80011
11
6.00488
21
-3.80197
0
LINE
8
BLACK
6
CONTINUOUS
10
6.00488
20
-3.80197
11
6.00158
21
-3.80263
0
LINE
8
BLACK
6
CONTINUOUS
10
6.00158
20
-3.80263
11
5.98436
21
-3.80263
0
LINE
8
BLACK
6
CONTINUOUS
10
5.98436
20
-3.80263
11
5.98106
21
-3.80197
0
LINE
8
BLACK
6
CONTINUOUS
10
5.98106
20
-3.80197
11
5.97827
21
-3.80011
0
LINE
8
BLACK
6
CONTINUOUS
10
5.97827
20
-3.80011
11
5.9764
21
-3.79731
0
LINE
8
BLACK
6
CONTINUOUS
10
5.9764
20
-3.79731
11
5.97575
21
-3.79402
0
LINE
8
BLACK
6
CONTINUOUS
10
5.97575
20
-3.79402
11
5.97575
21
-3.764
0
LINE
8
BLACK
6
CONTINUOUS
10
5.97575
20
-3.764
11
5.9764
21
-3.7607
0
LINE
8
BLACK
6
CONTINUOUS
10
5.9764
20
-3.7607
11
5.97827
21
-3.75791
0
LINE
8
BLACK
6
CONTINUOUS
10
5.97827
20
-3.75791
11
5.98106
21
-3.75604
0
LINE
8
BLACK
6
CONTINUOUS
10
5.98106
20
-3.75604
11
5.98436
21
-3.75539
0
LINE
8
BLACK
6
CONTINUOUS
10
5.98436
20
-3.75539
11
6.00158
21
-3.75539
0
LINE
8
BLACK
6
CONTINUOUS
10
6.00158
20
-3.75539
11
6.00488
21
-3.75604
0
LINE
8
BLACK
6
CONTINUOUS
10
6.08854
20
-3.75604
11
6.09134
21
-3.75791
0
LINE
8
BLACK
6
CONTINUOUS
10
6.09134
20
-3.75791
11
6.0932
21
-3.7607
0
LINE
8
BLACK
6
CONTINUOUS
10
6.0932
20
-3.7607
11
6.09386
21
-3.764
0
LINE
8
BLACK
6
CONTINUOUS
10
6.09386
20
-3.764
11
6.09386
21
-3.79402
0
LINE
8
BLACK
6
CONTINUOUS
10
6.09386
20
-3.79402
11
6.0932
21
-3.79731
0
LINE
8
BLACK
6
CONTINUOUS
10
6.0932
20
-3.79731
11
6.09134
21
-3.80011
0
LINE
8
BLACK
6
CONTINUOUS
10
6.09134
20
-3.80011
11
6.08854
21
-3.80197
0
LINE
8
BLACK
6
CONTINUOUS
10
6.08854
20
-3.80197
11
6.08525
21
-3.80263
0
LINE
8
BLACK
6
CONTINUOUS
10
6.08525
20
-3.80263
11
6.06802
21
-3.80263
0
LINE
8
BLACK
6
CONTINUOUS
10
6.06802
20
-3.80263
11
6.06473
21
-3.80197
0
LINE
8
BLACK
6
CONTINUOUS
10
6.06473
20
-3.80197
11
6.06193
21
-3.80011
0
LINE
8
BLACK
6
CONTINUOUS
10
6.06193
20
-3.80011
11
6.06006
21
-3.79731
0
LINE
8
BLACK
6
CONTINUOUS
10
6.06006
20
-3.79731
11
6.05941
21
-3.79402
0
LINE
8
BLACK
6
CONTINUOUS
10
6.05941
20
-3.79402
11
6.05941
21
-3.764
0
LINE
8
BLACK
6
CONTINUOUS
10
6.05941
20
-3.764
11
6.06006
21
-3.7607
0
LINE
8
BLACK
6
CONTINUOUS
10
6.06006
20
-3.7607
11
6.06193
21
-3.75791
0
LINE
8
BLACK
6
CONTINUOUS
10
6.06193
20
-3.75791
11
6.06473
21
-3.75604
0
LINE
8
BLACK
6
CONTINUOUS
10
6.06473
20
-3.75604
11
6.06802
21
-3.75539
0
LINE
8
BLACK
6
CONTINUOUS
10
6.06802
20
-3.75539
11
6.08525
21
-3.75539
0
LINE
8
BLACK
6
CONTINUOUS
10
6.08525
20
-3.75539
11
6.08854
21
-3.75604
0
LINE
8
BLACK
6
CONTINUOUS
10
6.31588
20
-3.75504
11
6.31867
21
-3.75691
0
LINE
8
BLACK
6
CONTINUOUS
10
6.31867
20
-3.75691
11
6.32054
21
-3.7597
0
LINE
8
BLACK
6
CONTINUOUS
10
6.32054
20
-3.7597
11
6.3212
21
-3.763
0
LINE
8
BLACK
6
CONTINUOUS
10
6.3212
20
-3.763
11
6.3212
21
-3.79302
0
LINE
8
BLACK
6
CONTINUOUS
10
6.3212
20
-3.79302
11
6.32054
21
-3.79631
0
LINE
8
BLACK
6
CONTINUOUS
10
6.32054
20
-3.79631
11
6.31867
21
-3.79911
0
LINE
8
BLACK
6
CONTINUOUS
10
6.31867
20
-3.79911
11
6.31588
21
-3.80097
0
LINE
8
BLACK
6
CONTINUOUS
10
6.31588
20
-3.80097
11
6.31258
21
-3.80163
0
LINE
8
BLACK
6
CONTINUOUS
10
6.31258
20
-3.80163
11
6.29536
21
-3.80163
0
LINE
8
BLACK
6
CONTINUOUS
10
6.29536
20
-3.80163
11
6.29206
21
-3.80097
0
LINE
8
BLACK
6
CONTINUOUS
10
6.29206
20
-3.80097
11
6.28927
21
-3.79911
0
LINE
8
BLACK
6
CONTINUOUS
10
6.28927
20
-3.79911
11
6.2874
21
-3.79631
0
LINE
8
BLACK
6
CONTINUOUS
10
6.2874
20
-3.79631
11
6.28675
21
-3.79302
0
LINE
8
BLACK
6
CONTINUOUS
10
6.28675
20
-3.79302
11
6.28675
21
-3.763
0
LINE
8
BLACK
6
CONTINUOUS
10
6.28675
20
-3.763
11
6.2874
21
-3.7597
0
LINE
8
BLACK
6
CONTINUOUS
10
6.2874
20
-3.7597
11
6.28927
21
-3.75691
0
LINE
8
BLACK
6
CONTINUOUS
10
6.28927
20
-3.75691
11
6.29206
21
-3.75504
0
LINE
8
BLACK
6
CONTINUOUS
10
6.29206
20
-3.75504
11
6.29536
21
-3.75439
0
LINE
8
BLACK
6
CONTINUOUS
10
6.29536
20
-3.75439
11
6.31258
21
-3.75439
0
LINE
8
BLACK
6
CONTINUOUS
10
6.31258
20
-3.75439
11
6.31588
21
-3.75504
0
LINE
8
BLACK
6
CONTINUOUS
10
6.39954
20
-3.75504
11
6.40234
21
-3.75691
0
LINE
8
BLACK
6
CONTINUOUS
10
6.40234
20
-3.75691
11
6.4042
21
-3.7597
0
LINE
8
BLACK
6
CONTINUOUS
10
6.4042
20
-3.7597
11
6.40486
21
-3.763
0
LINE
8
BLACK
6
CONTINUOUS
10
6.40486
20
-3.763
11
6.40486
21
-3.79302
0
LINE
8
BLACK
6
CONTINUOUS
10
6.40486
20
-3.79302
11
6.4042
21
-3.79631
0
LINE
8
BLACK
6
CONTINUOUS
10
6.4042
20
-3.79631
11
6.40234
21
-3.79911
0
LINE
8
BLACK
6
CONTINUOUS
10
6.40234
20
-3.79911
11
6.39954
21
-3.80097
0
LINE
8
BLACK
6
CONTINUOUS
10
6.39954
20
-3.80097
11
6.39625
21
-3.80163
0
LINE
8
BLACK
6
CONTINUOUS
10
6.39625
20
-3.80163
11
6.37902
21
-3.80163
0
LINE
8
BLACK
6
CONTINUOUS
10
6.37902
20
-3.80163
11
6.37573
21
-3.80097
0
LINE
8
BLACK
6
CONTINUOUS
10
6.37573
20
-3.80097
11
6.37293
21
-3.79911
0
LINE
8
BLACK
6
CONTINUOUS
10
6.37293
20
-3.79911
11
6.37106
21
-3.79631
0
LINE
8
BLACK
6
CONTINUOUS
10
6.37106
20
-3.79631
11
6.37041
21
-3.79302
0
LINE
8
BLACK
6
CONTINUOUS
10
6.37041
20
-3.79302
11
6.37041
21
-3.763
0
LINE
8
BLACK
6
CONTINUOUS
10
6.37041
20
-3.763
11
6.37106
21
-3.7597
0
LINE
8
BLACK
6
CONTINUOUS
10
6.37106
20
-3.7597
11
6.37293
21
-3.75691
0
LINE
8
BLACK
6
CONTINUOUS
10
6.37293
20
-3.75691
11
6.37573
21
-3.75504
0
LINE
8
BLACK
6
CONTINUOUS
10
6.37573
20
-3.75504
11
6.37902
21
-3.75439
0
LINE
8
BLACK
6
CONTINUOUS
10
6.37902
20
-3.75439
11
6.39625
21
-3.75439
0
LINE
8
BLACK
6
CONTINUOUS
10
6.39625
20
-3.75439
11
6.39954
21
-3.75504
0
LINE
8
BLACK
6
CONTINUOUS
10
6.46901
20
-3.74521
11
6.4722
21
-3.74735
0
LINE
8
BLACK
6
CONTINUOUS
10
6.4722
20
-3.74735
11
6.47434
21
-3.75054
0
LINE
8
BLACK
6
CONTINUOUS
10
6.47434
20
-3.75054
11
6.47509
21
-3.75431
0
LINE
8
BLACK
6
CONTINUOUS
10
6.47509
20
-3.75431
11
6.47509
21
-3.79171
0
LINE
8
BLACK
6
CONTINUOUS
10
6.47509
20
-3.79171
11
6.47434
21
-3.79548
0
LINE
8
BLACK
6
CONTINUOUS
10
6.47434
20
-3.79548
11
6.4722
21
-3.79867
0
LINE
8
BLACK
6
CONTINUOUS
10
6.4722
20
-3.79867
11
6.46901
21
-3.8008
0
LINE
8
BLACK
6
CONTINUOUS
10
6.46901
20
-3.8008
11
6.46524
21
-3.80155
0
LINE
8
BLACK
6
CONTINUOUS
10
6.46524
20
-3.80155
11
6.44556
21
-3.80155
0
LINE
8
BLACK
6
CONTINUOUS
10
6.44556
20
-3.80155
11
6.44179
21
-3.8008
0
LINE
8
BLACK
6
CONTINUOUS
10
6.44179
20
-3.8008
11
6.4386
21
-3.79867
0
LINE
8
BLACK
6
CONTINUOUS
10
6.4386
20
-3.79867
11
6.43647
21
-3.79548
0
LINE
8
BLACK
6
CONTINUOUS
10
6.43647
20
-3.79548
11
6.43572
21
-3.79171
0
LINE
8
BLACK
6
CONTINUOUS
10
6.43572
20
-3.79171
11
6.43572
21
-3.75431
0
LINE
8
BLACK
6
CONTINUOUS
10
6.43572
20
-3.75431
11
6.43647
21
-3.75054
0
LINE
8
BLACK
6
CONTINUOUS
10
6.43647
20
-3.75054
11
6.4386
21
-3.74735
0
LINE
8
BLACK
6
CONTINUOUS
10
6.4386
20
-3.74735
11
6.44179
21
-3.74521
0
LINE
8
BLACK
6
CONTINUOUS
10
6.44179
20
-3.74521
11
6.44556
21
-3.74446
0
LINE
8
BLACK
6
CONTINUOUS
10
6.44556
20
-3.74446
11
6.46524
21
-3.74446
0
LINE
8
BLACK
6
CONTINUOUS
10
6.46524
20
-3.74446
11
6.46901
21
-3.74521
0
LINE
8
BLACK
6
CONTINUOUS
10
6.54381
20
-3.74521
11
6.54701
21
-3.74735
0
LINE
8
BLACK
6
CONTINUOUS
10
6.54701
20
-3.74735
11
6.54914
21
-3.75054
0
LINE
8
BLACK
6
CONTINUOUS
10
6.54914
20
-3.75054
11
6.54989
21
-3.75431
0
LINE
8
BLACK
6
CONTINUOUS
10
6.54989
20
-3.75431
11
6.54989
21
-3.79171
0
LINE
8
BLACK
6
CONTINUOUS
10
6.54989
20
-3.79171
11
6.54914
21
-3.79548
0
LINE
8
BLACK
6
CONTINUOUS
10
6.54914
20
-3.79548
11
6.54701
21
-3.79867
0
LINE
8
BLACK
6
CONTINUOUS
10
6.54701
20
-3.79867
11
6.54381
21
-3.8008
0
LINE
8
BLACK
6
CONTINUOUS
10
6.54381
20
-3.8008
11
6.54005
21
-3.80155
0
LINE
8
BLACK
6
CONTINUOUS
10
6.54005
20
-3.80155
11
6.52036
21
-3.80155
0
LINE
8
BLACK
6
CONTINUOUS
10
6.52036
20
-3.80155
11
6.5166
21
-3.8008
0
LINE
8
BLACK
6
CONTINUOUS
10
6.5166
20
-3.8008
11
6.5134
21
-3.79867
0
LINE
8
BLACK
6
CONTINUOUS
10
6.5134
20
-3.79867
11
6.51127
21
-3.79548
0
LINE
8
BLACK
6
CONTINUOUS
10
6.51127
20
-3.79548
11
6.51052
21
-3.79171
0
LINE
8
BLACK
6
CONTINUOUS
10
6.51052
20
-3.79171
11
6.51052
21
-3.75431
0
LINE
8
BLACK
6
CONTINUOUS
10
6.51052
20
-3.75431
11
6.51127
21
-3.75054
0
LINE
8
BLACK
6
CONTINUOUS
10
6.51127
20
-3.75054
11
6.5134
21
-3.74735
0
LINE
8
BLACK
6
CONTINUOUS
10
6.5134
20
-3.74735
11
6.5166
21
-3.74521
0
LINE
8
BLACK
6
CONTINUOUS
10
6.5166
20
-3.74521
11
6.52036
21
-3.74446
0
LINE
8
BLACK
6
CONTINUOUS
10
6.52036
20
-3.74446
11
6.54005
21
-3.74446
0
LINE
8
BLACK
6
CONTINUOUS
10
6.54005
20
-3.74446
11
6.54381
21
-3.74521
0
LINE
8
BLACK
6
CONTINUOUS
10
6.17527
20
-3.76067
11
6.17846
21
-3.7628
0
LINE
8
BLACK
6
CONTINUOUS
10
6.17846
20
-3.7628
11
6.1806
21
-3.766
0
LINE
8
BLACK
6
CONTINUOUS
10
6.1806
20
-3.766
11
6.18135
21
-3.76976
0
LINE
8
BLACK
6
CONTINUOUS
10
6.18135
20
-3.76976
11
6.18135
21
-3.78945
0
LINE
8
BLACK
6
CONTINUOUS
10
6.18135
20
-3.78945
11
6.1806
21
-3.79322
0
LINE
8
BLACK
6
CONTINUOUS
10
6.1806
20
-3.79322
11
6.17846
21
-3.79641
0
LINE
8
BLACK
6
CONTINUOUS
10
6.17846
20
-3.79641
11
6.17527
21
-3.79854
0
LINE
8
BLACK
6
CONTINUOUS
10
6.17527
20
-3.79854
11
6.1715
21
-3.79929
0
LINE
8
BLACK
6
CONTINUOUS
10
6.1715
20
-3.79929
11
6.1341
21
-3.79929
0
LINE
8
BLACK
6
CONTINUOUS
10
6.1341
20
-3.79929
11
6.13034
21
-3.79854
0
LINE
8
BLACK
6
CONTINUOUS
10
6.13034
20
-3.79854
11
6.12714
21
-3.79641
0
LINE
8
BLACK
6
CONTINUOUS
10
6.12714
20
-3.79641
11
6.12501
21
-3.79322
0
LINE
8
BLACK
6
CONTINUOUS
10
6.12501
20
-3.79322
11
6.12426
21
-3.78945
0
LINE
8
BLACK
6
CONTINUOUS
10
6.12426
20
-3.78945
11
6.12426
21
-3.76976
0
LINE
8
BLACK
6
CONTINUOUS
10
6.12426
20
-3.76976
11
6.12501
21
-3.766
0
LINE
8
BLACK
6
CONTINUOUS
10
6.12501
20
-3.766
11
6.12714
21
-3.7628
0
LINE
8
BLACK
6
CONTINUOUS
10
6.12714
20
-3.7628
11
6.13034
21
-3.76067
0
LINE
8
BLACK
6
CONTINUOUS
10
6.13034
20
-3.76067
11
6.1341
21
-3.75992
0
LINE
8
BLACK
6
CONTINUOUS
10
6.1341
20
-3.75992
11
6.1715
21
-3.75992
0
LINE
8
BLACK
6
CONTINUOUS
10
6.1715
20
-3.75992
11
6.17527
21
-3.76067
0
LINE
8
BLACK
6
CONTINUOUS
10
5.94111
20
-3.76221
11
5.9439
21
-3.76407
0
LINE
8
BLACK
6
CONTINUOUS
10
5.9439
20
-3.76407
11
5.94577
21
-3.76687
0
LINE
8
BLACK
6
CONTINUOUS
10
5.94577
20
-3.76687
11
5.94643
21
-3.77016
0
LINE
8
BLACK
6
CONTINUOUS
10
5.94643
20
-3.77016
11
5.94643
21
-3.78739
0
LINE
8
BLACK
6
CONTINUOUS
10
5.94643
20
-3.78739
11
5.94577
21
-3.79068
0
LINE
8
BLACK
6
CONTINUOUS
10
5.94577
20
-3.79068
11
5.9439
21
-3.79348
0
LINE
8
BLACK
6
CONTINUOUS
10
5.9439
20
-3.79348
11
5.94111
21
-3.79534
0
LINE
8
BLACK
6
CONTINUOUS
10
5.94111
20
-3.79534
11
5.93781
21
-3.796
0
LINE
8
BLACK
6
CONTINUOUS
10
5.93781
20
-3.796
11
5.90779
21
-3.796
0
LINE
8
BLACK
6
CONTINUOUS
10
5.90779
20
-3.796
11
5.9045
21
-3.79534
0
LINE
8
BLACK
6
CONTINUOUS
10
5.9045
20
-3.79534
11
5.9017
21
-3.79348
0
LINE
8
BLACK
6
CONTINUOUS
10
5.9017
20
-3.79348
11
5.89984
21
-3.79068
0
LINE
8
BLACK
6
CONTINUOUS
10
5.89984
20
-3.79068
11
5.89918
21
-3.78739
0
LINE
8
BLACK
6
CONTINUOUS
10
5.89918
20
-3.78739
11
5.89918
21
-3.77016
0
LINE
8
BLACK
6
CONTINUOUS
10
5.89918
20
-3.77016
11
5.89984
21
-3.76687
0
LINE
8
BLACK
6
CONTINUOUS
10
5.89984
20
-3.76687
11
5.9017
21
-3.76407
0
LINE
8
BLACK
6
CONTINUOUS
10
5.9017
20
-3.76407
11
5.9045
21
-3.76221
0
LINE
8
BLACK
6
CONTINUOUS
10
5.9045
20
-3.76221
11
5.90779
21
-3.76155
0
LINE
8
BLACK
6
CONTINUOUS
10
5.90779
20
-3.76155
11
5.93781
21
-3.76155
0
LINE
8
BLACK
6
CONTINUOUS
10
5.93781
20
-3.76155
11
5.94111
21
-3.76221
0
LINE
8
BLACK
6
CONTINUOUS
10
6.25111
20
-3.75861
11
6.2539
21
-3.76048
0
LINE
8
BLACK
6
CONTINUOUS
10
6.2539
20
-3.76048
11
6.25577
21
-3.76327
0
LINE
8
BLACK
6
CONTINUOUS
10
6.25577
20
-3.76327
11
6.25643
21
-3.76656
0
LINE
8
BLACK
6
CONTINUOUS
10
6.25643
20
-3.76656
11
6.25643
21
-3.78379
0
LINE
8
BLACK
6
CONTINUOUS
10
6.25643
20
-3.78379
11
6.25577
21
-3.78709
0
LINE
8
BLACK
6
CONTINUOUS
10
6.25577
20
-3.78709
11
6.2539
21
-3.78988
0
LINE
8
BLACK
6
CONTINUOUS
10
6.2539
20
-3.78988
11
6.25111
21
-3.79175
0
LINE
8
BLACK
6
CONTINUOUS
10
6.25111
20
-3.79175
11
6.24781
21
-3.7924
0
LINE
8
BLACK
6
CONTINUOUS
10
6.24781
20
-3.7924
11
6.21779
21
-3.7924
0
LINE
8
BLACK
6
CONTINUOUS
10
6.21779
20
-3.7924
11
6.2145
21
-3.79175
0
LINE
8
BLACK
6
CONTINUOUS
10
6.2145
20
-3.79175
11
6.2117
21
-3.78988
0
LINE
8
BLACK
6
CONTINUOUS
10
6.2117
20
-3.78988
11
6.20984
21
-3.78709
0
LINE
8
BLACK
6
CONTINUOUS
10
6.20984
20
-3.78709
11
6.20918
21
-3.78379
0
LINE
8
BLACK
6
CONTINUOUS
10
6.20918
20
-3.78379
11
6.20918
21
-3.76656
0
LINE
8
BLACK
6
CONTINUOUS
10
6.20918
20
-3.76656
11
6.20984
21
-3.76327
0
LINE
8
BLACK
6
CONTINUOUS
10
6.20984
20
-3.76327
11
6.2117
21
-3.76048
0
LINE
8
BLACK
6
CONTINUOUS
10
6.2117
20
-3.76048
11
6.2145
21
-3.75861
0
LINE
8
BLACK
6
CONTINUOUS
10
6.2145
20
-3.75861
11
6.21779
21
-3.75795
0
LINE
8
BLACK
6
CONTINUOUS
10
6.21779
20
-3.75795
11
6.24781
21
-3.75795
0
LINE
8
BLACK
6
CONTINUOUS
10
6.24781
20
-3.75795
11
6.25111
21
-3.75861
0
LINE
8
BLACK
6
CONTINUOUS
10
6.08828
20
-3.59504
11
6.09108
21
-3.59691
0
LINE
8
BLACK
6
CONTINUOUS
10
6.09108
20
-3.59691
11
6.09294
21
-3.5997
0
LINE
8
BLACK
6
CONTINUOUS
10
6.09294
20
-3.5997
11
6.0936
21
-3.603
0
LINE
8
BLACK
6
CONTINUOUS
10
6.0936
20
-3.603
11
6.0936
21
-3.63302
0
LINE
8
BLACK
6
CONTINUOUS
10
6.0936
20
-3.63302
11
6.09294
21
-3.63631
0
LINE
8
BLACK
6
CONTINUOUS
10
6.09294
20
-3.63631
11
6.09108
21
-3.63911
0
LINE
8
BLACK
6
CONTINUOUS
10
6.09108
20
-3.63911
11
6.08828
21
-3.64097
0
LINE
8
BLACK
6
CONTINUOUS
10
6.08828
20
-3.64097
11
6.08499
21
-3.64163
0
LINE
8
BLACK
6
CONTINUOUS
10
6.08499
20
-3.64163
11
6.06776
21
-3.64163
0
LINE
8
BLACK
6
CONTINUOUS
10
6.06776
20
-3.64163
11
6.06447
21
-3.64097
0
LINE
8
BLACK
6
CONTINUOUS
10
6.06447
20
-3.64097
11
6.06167
21
-3.63911
0
LINE
8
BLACK
6
CONTINUOUS
10
6.06167
20
-3.63911
11
6.05981
21
-3.63631
0
LINE
8
BLACK
6
CONTINUOUS
10
6.05981
20
-3.63631
11
6.05915
21
-3.63302
0
LINE
8
BLACK
6
CONTINUOUS
10
6.05915
20
-3.63302
11
6.05915
21
-3.603
0
LINE
8
BLACK
6
CONTINUOUS
10
6.05915
20
-3.603
11
6.05981
21
-3.5997
0
LINE
8
BLACK
6
CONTINUOUS
10
6.05981
20
-3.5997
11
6.06167
21
-3.59691
0
LINE
8
BLACK
6
CONTINUOUS
10
6.06167
20
-3.59691
11
6.06447
21
-3.59504
0
LINE
8
BLACK
6
CONTINUOUS
10
6.06447
20
-3.59504
11
6.06776
21
-3.59439
0
LINE
8
BLACK
6
CONTINUOUS
10
6.06776
20
-3.59439
11
6.08499
21
-3.59439
0
LINE
8
BLACK
6
CONTINUOUS
10
6.08499
20
-3.59439
11
6.08828
21
-3.59504
0
LINE
8
BLACK
6
CONTINUOUS
10
6.17194
20
-3.59504
11
6.17474
21
-3.59691
0
LINE
8
BLACK
6
CONTINUOUS
10
6.17474
20
-3.59691
11
6.1766
21
-3.5997
0
LINE
8
BLACK
6
CONTINUOUS
10
6.1766
20
-3.5997
11
6.17726
21
-3.603
0
LINE
8
BLACK
6
CONTINUOUS
10
6.17726
20
-3.603
11
6.17726
21
-3.63302
0
LINE
8
BLACK
6
CONTINUOUS
10
6.17726
20
-3.63302
11
6.1766
21
-3.63631
0
LINE
8
BLACK
6
CONTINUOUS
10
6.1766
20
-3.63631
11
6.17474
21
-3.63911
0
LINE
8
BLACK
6
CONTINUOUS
10
6.17474
20
-3.63911
11
6.17194
21
-3.64097
0
LINE
8
BLACK
6
CONTINUOUS
10
6.17194
20
-3.64097
11
6.16865
21
-3.64163
0
LINE
8
BLACK
6
CONTINUOUS
10
6.16865
20
-3.64163
11
6.15142
21
-3.64163
0
LINE
8
BLACK
6
CONTINUOUS
10
6.15142
20
-3.64163
11
6.14813
21
-3.64097
0
LINE
8
BLACK
6
CONTINUOUS
10
6.14813
20
-3.64097
11
6.14533
21
-3.63911
0
LINE
8
BLACK
6
CONTINUOUS
10
6.14533
20
-3.63911
11
6.14347
21
-3.63631
0
LINE
8
BLACK
6
CONTINUOUS
10
6.14347
20
-3.63631
11
6.14281
21
-3.63302
0
LINE
8
BLACK
6
CONTINUOUS
10
6.14281
20
-3.63302
11
6.14281
21
-3.603
0
LINE
8
BLACK
6
CONTINUOUS
10
6.14281
20
-3.603
11
6.14347
21
-3.5997
0
LINE
8
BLACK
6
CONTINUOUS
10
6.14347
20
-3.5997
11
6.14533
21
-3.59691
0
LINE
8
BLACK
6
CONTINUOUS
10
6.14533
20
-3.59691
11
6.14813
21
-3.59504
0
LINE
8
BLACK
6
CONTINUOUS
10
6.14813
20
-3.59504
11
6.15142
21
-3.59439
0
LINE
8
BLACK
6
CONTINUOUS
10
6.15142
20
-3.59439
11
6.16865
21
-3.59439
0
LINE
8
BLACK
6
CONTINUOUS
10
6.16865
20
-3.59439
11
6.17194
21
-3.59504
0
LINE
8
BLACK
6
CONTINUOUS
10
5.92228
20
-3.59304
11
5.92508
21
-3.59491
0
LINE
8
BLACK
6
CONTINUOUS
10
5.92508
20
-3.59491
11
5.92694
21
-3.5977
0
LINE
8
BLACK
6
CONTINUOUS
10
5.92694
20
-3.5977
11
5.9276
21
-3.601
0
LINE
8
BLACK
6
CONTINUOUS
10
5.9276
20
-3.601
11
5.9276
21
-3.63102
0
LINE
8
BLACK
6
CONTINUOUS
10
5.9276
20
-3.63102
11
5.92694
21
-3.63431
0
LINE
8
BLACK
6
CONTINUOUS
10
5.92694
20
-3.63431
11
5.92508
21
-3.63711
0
LINE
8
BLACK
6
CONTINUOUS
10
5.92508
20
-3.63711
11
5.92228
21
-3.63897
0
LINE
8
BLACK
6
CONTINUOUS
10
5.92228
20
-3.63897
11
5.91899
21
-3.63963
0
LINE
8
BLACK
6
CONTINUOUS
10
5.91899
20
-3.63963
11
5.90176
21
-3.63963
0
LINE
8
BLACK
6
CONTINUOUS
10
5.90176
20
-3.63963
11
5.89847
21
-3.63897
0
LINE
8
BLACK
6
CONTINUOUS
10
5.89847
20
-3.63897
11
5.89567
21
-3.63711
0
LINE
8
BLACK
6
CONTINUOUS
10
5.89567
20
-3.63711
11
5.89381
21
-3.63431
0
LINE
8
BLACK
6
CONTINUOUS
10
5.89381
20
-3.63431
11
5.89315
21
-3.63102
0
LINE
8
BLACK
6
CONTINUOUS
10
5.89315
20
-3.63102
11
5.89315
21
-3.601
0
LINE
8
BLACK
6
CONTINUOUS
10
5.89315
20
-3.601
11
5.89381
21
-3.5977
0
LINE
8
BLACK
6
CONTINUOUS
10
5.89381
20
-3.5977
11
5.89567
21
-3.59491
0
LINE
8
BLACK
6
CONTINUOUS
10
5.89567
20
-3.59491
11
5.89847
21
-3.59304
0
LINE
8
BLACK
6
CONTINUOUS
10
5.89847
20
-3.59304
11
5.90176
21
-3.59239
0
LINE
8
BLACK
6
CONTINUOUS
10
5.90176
20
-3.59239
11
5.91899
21
-3.59239
0
LINE
8
BLACK
6
CONTINUOUS
10
5.91899
20
-3.59239
11
5.92228
21
-3.59304
0
LINE
8
BLACK
6
CONTINUOUS
10
6.00594
20
-3.59304
11
6.00874
21
-3.59491
0
LINE
8
BLACK
6
CONTINUOUS
10
6.00874
20
-3.59491
11
6.0106
21
-3.5977
0
LINE
8
BLACK
6
CONTINUOUS
10
6.0106
20
-3.5977
11
6.01126
21
-3.601
0
LINE
8
BLACK
6
CONTINUOUS
10
6.01126
20
-3.601
11
6.01126
21
-3.63102
0
LINE
8
BLACK
6
CONTINUOUS
10
6.01126
20
-3.63102
11
6.0106
21
-3.63431
0
LINE
8
BLACK
6
CONTINUOUS
10
6.0106
20
-3.63431
11
6.00874
21
-3.63711
0
LINE
8
BLACK
6
CONTINUOUS
10
6.00874
20
-3.63711
11
6.00594
21
-3.63897
0
LINE
8
BLACK
6
CONTINUOUS
10
6.00594
20
-3.63897
11
6.00265
21
-3.63963
0
LINE
8
BLACK
6
CONTINUOUS
10
6.00265
20
-3.63963
11
5.98542
21
-3.63963
0
LINE
8
BLACK
6
CONTINUOUS
10
5.98542
20
-3.63963
11
5.98213
21
-3.63897
0
LINE
8
BLACK
6
CONTINUOUS
10
5.98213
20
-3.63897
11
5.97933
21
-3.63711
0
LINE
8
BLACK
6
CONTINUOUS
10
5.97933
20
-3.63711
11
5.97747
21
-3.63431
0
LINE
8
BLACK
6
CONTINUOUS
10
5.97747
20
-3.63431
11
5.97681
21
-3.63102
0
LINE
8
BLACK
6
CONTINUOUS
10
5.97681
20
-3.63102
11
5.97681
21
-3.601
0
LINE
8
BLACK
6
CONTINUOUS
10
5.97681
20
-3.601
11
5.97747
21
-3.5977
0
LINE
8
BLACK
6
CONTINUOUS
10
5.97747
20
-3.5977
11
5.97933
21
-3.59491
0
LINE
8
BLACK
6
CONTINUOUS
10
5.97933
20
-3.59491
11
5.98213
21
-3.59304
0
LINE
8
BLACK
6
CONTINUOUS
10
5.98213
20
-3.59304
11
5.98542
21
-3.59239
0
LINE
8
BLACK
6
CONTINUOUS
10
5.98542
20
-3.59239
11
6.00265
21
-3.59239
0
LINE
8
BLACK
6
CONTINUOUS
10
6.00265
20
-3.59239
11
6.00594
21
-3.59304
0
LINE
8
BLACK
6
CONTINUOUS
10
5.54243
20
-3.52554
11
5.54563
21
-3.52768
0
LINE
8
BLACK
6
CONTINUOUS
10
5.54563
20
-3.52768
11
5.54776
21
-3.53087
0
LINE
8
BLACK
6
CONTINUOUS
10
5.54776
20
-3.53087
11
5.54851
21
-3.53464
0
LINE
8
BLACK
6
CONTINUOUS
10
5.54851
20
-3.53464
11
5.54851
21
-3.57204
0
LINE
8
BLACK
6
CONTINUOUS
10
5.54851
20
-3.57204
11
5.54776
21
-3.57581
0
LINE
8
BLACK
6
CONTINUOUS
10
5.54776
20
-3.57581
11
5.54563
21
-3.579
0
LINE
8
BLACK
6
CONTINUOUS
10
5.54563
20
-3.579
11
5.54243
21
-3.58113
0
LINE
8
BLACK
6
CONTINUOUS
10
5.54243
20
-3.58113
11
5.53867
21
-3.58188
0
LINE
8
BLACK
6
CONTINUOUS
10
5.53867
20
-3.58188
11
5.51898
21
-3.58188
0
LINE
8
BLACK
6
CONTINUOUS
10
5.51898
20
-3.58188
11
5.51521
21
-3.58113
0
LINE
8
BLACK
6
CONTINUOUS
10
5.51521
20
-3.58113
11
5.51202
21
-3.579
0
LINE
8
BLACK
6
CONTINUOUS
10
5.51202
20
-3.579
11
5.50989
21
-3.57581
0
LINE
8
BLACK
6
CONTINUOUS
10
5.50989
20
-3.57581
11
5.50914
21
-3.57204
0
LINE
8
BLACK
6
CONTINUOUS
10
5.50914
20
-3.57204
11
5.50914
21
-3.53464
0
LINE
8
BLACK
6
CONTINUOUS
10
5.50914
20
-3.53464
11
5.50989
21
-3.53087
0
LINE
8
BLACK
6
CONTINUOUS
10
5.50989
20
-3.53087
11
5.51202
21
-3.52768
0
LINE
8
BLACK
6
CONTINUOUS
10
5.51202
20
-3.52768
11
5.51521
21
-3.52554
0
LINE
8
BLACK
6
CONTINUOUS
10
5.51521
20
-3.52554
11
5.51898
21
-3.5248
0
LINE
8
BLACK
6
CONTINUOUS
10
5.51898
20
-3.5248
11
5.53867
21
-3.5248
0
LINE
8
BLACK
6
CONTINUOUS
10
5.53867
20
-3.5248
11
5.54243
21
-3.52554
0
LINE
8
BLACK
6
CONTINUOUS
10
5.61724
20
-3.52554
11
5.62043
21
-3.52768
0
LINE
8
BLACK
6
CONTINUOUS
10
5.62043
20
-3.52768
11
5.62256
21
-3.53087
0
LINE
8
BLACK
6
CONTINUOUS
10
5.62256
20
-3.53087
11
5.62331
21
-3.53464
0
LINE
8
BLACK
6
CONTINUOUS
10
5.62331
20
-3.53464
11
5.62331
21
-3.57204
0
LINE
8
BLACK
6
CONTINUOUS
10
5.62331
20
-3.57204
11
5.62256
21
-3.57581
0
LINE
8
BLACK
6
CONTINUOUS
10
5.62256
20
-3.57581
11
5.62043
21
-3.579
0
LINE
8
BLACK
6
CONTINUOUS
10
5.62043
20
-3.579
11
5.61724
21
-3.58113
0
LINE
8
BLACK
6
CONTINUOUS
10
5.61724
20
-3.58113
11
5.61347
21
-3.58188
0
LINE
8
BLACK
6
CONTINUOUS
10
5.61347
20
-3.58188
11
5.59378
21
-3.58188
0
LINE
8
BLACK
6
CONTINUOUS
10
5.59378
20
-3.58188
11
5.59002
21
-3.58113
0
LINE
8
BLACK
6
CONTINUOUS
10
5.59002
20
-3.58113
11
5.58682
21
-3.579
0
LINE
8
BLACK
6
CONTINUOUS
10
5.58682
20
-3.579
11
5.58469
21
-3.57581
0
LINE
8
BLACK
6
CONTINUOUS
10
5.58469
20
-3.57581
11
5.58394
21
-3.57204
0
LINE
8
BLACK
6
CONTINUOUS
10
5.58394
20
-3.57204
11
5.58394
21
-3.53464
0
LINE
8
BLACK
6
CONTINUOUS
10
5.58394
20
-3.53464
11
5.58469
21
-3.53087
0
LINE
8
BLACK
6
CONTINUOUS
10
5.58469
20
-3.53087
11
5.58682
21
-3.52768
0
LINE
8
BLACK
6
CONTINUOUS
10
5.58682
20
-3.52768
11
5.59002
21
-3.52554
0
LINE
8
BLACK
6
CONTINUOUS
10
5.59002
20
-3.52554
11
5.59378
21
-3.5248
0
LINE
8
BLACK
6
CONTINUOUS
10
5.59378
20
-3.5248
11
5.61347
21
-3.5248
0
LINE
8
BLACK
6
CONTINUOUS
10
5.61347
20
-3.5248
11
5.61724
21
-3.52554
0
LINE
8
BLACK
6
CONTINUOUS
10
6.47441
20
-3.52421
11
6.47761
21
-3.52635
0
LINE
8
BLACK
6
CONTINUOUS
10
6.47761
20
-3.52635
11
6.47974
21
-3.52954
0
LINE
8
BLACK
6
CONTINUOUS
10
6.47974
20
-3.52954
11
6.48049
21
-3.53331
0
LINE
8
BLACK
6
CONTINUOUS
10
6.48049
20
-3.53331
11
6.48049
21
-3.57071
0
LINE
8
BLACK
6
CONTINUOUS
10
6.48049
20
-3.57071
11
6.47974
21
-3.57448
0
LINE
8
BLACK
6
CONTINUOUS
10
6.47974
20
-3.57448
11
6.47761
21
-3.57767
0
LINE
8
BLACK
6
CONTINUOUS
10
6.47761
20
-3.57767
11
6.47441
21
-3.5798
0
LINE
8
BLACK
6
CONTINUOUS
10
6.47441
20
-3.5798
11
6.47065
21
-3.58055
0
LINE
8
BLACK
6
CONTINUOUS
10
6.47065
20
-3.58055
11
6.45096
21
-3.58055
0
LINE
8
BLACK
6
CONTINUOUS
10
6.45096
20
-3.58055
11
6.44719
21
-3.5798
0
LINE
8
BLACK
6
CONTINUOUS
10
6.44719
20
-3.5798
11
6.444
21
-3.57767
0
LINE
8
BLACK
6
CONTINUOUS
10
6.444
20
-3.57767
11
6.44187
21
-3.57448
0
LINE
8
BLACK
6
CONTINUOUS
10
6.44187
20
-3.57448
11
6.44112
21
-3.57071
0
LINE
8
BLACK
6
CONTINUOUS
10
6.44112
20
-3.57071
11
6.44112
21
-3.53331
0
LINE
8
BLACK
6
CONTINUOUS
10
6.44112
20
-3.53331
11
6.44187
21
-3.52954
0
LINE
8
BLACK
6
CONTINUOUS
10
6.44187
20
-3.52954
11
6.444
21
-3.52635
0
LINE
8
BLACK
6
CONTINUOUS
10
6.444
20
-3.52635
11
6.44719
21
-3.52421
0
LINE
8
BLACK
6
CONTINUOUS
10
6.44719
20
-3.52421
11
6.45096
21
-3.52346
0
LINE
8
BLACK
6
CONTINUOUS
10
6.45096
20
-3.52346
11
6.47065
21
-3.52346
0
LINE
8
BLACK
6
CONTINUOUS
10
6.47065
20
-3.52346
11
6.47441
21
-3.52421
0
LINE
8
BLACK
6
CONTINUOUS
10
6.54922
20
-3.52421
11
6.55241
21
-3.52635
0
LINE
8
BLACK
6
CONTINUOUS
10
6.55241
20
-3.52635
11
6.55454
21
-3.52954
0
LINE
8
BLACK
6
CONTINUOUS
10
6.55454
20
-3.52954
11
6.55529
21
-3.53331
0
LINE
8
BLACK
6
CONTINUOUS
10
6.55529
20
-3.53331
11
6.55529
21
-3.57071
0
LINE
8
BLACK
6
CONTINUOUS
10
6.55529
20
-3.57071
11
6.55454
21
-3.57448
0
LINE
8
BLACK
6
CONTINUOUS
10
6.55454
20
-3.57448
11
6.55241
21
-3.57767
0
LINE
8
BLACK
6
CONTINUOUS
10
6.55241
20
-3.57767
11
6.54922
21
-3.5798
0
LINE
8
BLACK
6
CONTINUOUS
10
6.54922
20
-3.5798
11
6.54545
21
-3.58055
0
LINE
8
BLACK
6
CONTINUOUS
10
6.54545
20
-3.58055
11
6.52576
21
-3.58055
0
LINE
8
BLACK
6
CONTINUOUS
10
6.52576
20
-3.58055
11
6.522
21
-3.5798
0
LINE
8
BLACK
6
CONTINUOUS
10
6.522
20
-3.5798
11
6.5188
21
-3.57767
0
LINE
8
BLACK
6
CONTINUOUS
10
6.5188
20
-3.57767
11
6.51667
21
-3.57448
0
LINE
8
BLACK
6
CONTINUOUS
10
6.51667
20
-3.57448
11
6.51592
21
-3.57071
0
LINE
8
BLACK
6
CONTINUOUS
10
6.51592
20
-3.57071
11
6.51592
21
-3.53331
0
LINE
8
BLACK
6
CONTINUOUS
10
6.51592
20
-3.53331
11
6.51667
21
-3.52954
0
LINE
8
BLACK
6
CONTINUOUS
10
6.51667
20
-3.52954
11
6.5188
21
-3.52635
0
LINE
8
BLACK
6
CONTINUOUS
10
6.5188
20
-3.52635
11
6.522
21
-3.52421
0
LINE
8
BLACK
6
CONTINUOUS
10
6.522
20
-3.52421
11
6.52576
21
-3.52346
0
LINE
8
BLACK
6
CONTINUOUS
10
6.52576
20
-3.52346
11
6.54545
21
-3.52346
0
LINE
8
BLACK
6
CONTINUOUS
10
6.54545
20
-3.52346
11
6.54922
21
-3.52421
0
LINE
8
BLACK
6
CONTINUOUS
10
5.68413
20
-3.52637
11
5.68693
21
-3.52824
0
LINE
8
BLACK
6
CONTINUOUS
10
5.68693
20
-3.52824
11
5.68879
21
-3.53103
0
LINE
8
BLACK
6
CONTINUOUS
10
5.68879
20
-3.53103
11
5.68945
21
-3.53433
0
LINE
8
BLACK
6
CONTINUOUS
10
5.68945
20
-3.53433
11
5.68945
21
-3.56435
0
LINE
8
BLACK
6
CONTINUOUS
10
5.68945
20
-3.56435
11
5.68879
21
-3.56764
0
LINE
8
BLACK
6
CONTINUOUS
10
5.68879
20
-3.56764
11
5.68693
21
-3.57044
0
LINE
8
BLACK
6
CONTINUOUS
10
5.68693
20
-3.57044
11
5.68413
21
-3.57231
0
LINE
8
BLACK
6
CONTINUOUS
10
5.68413
20
-3.57231
11
5.68084
21
-3.57296
0
LINE
8
BLACK
6
CONTINUOUS
10
5.68084
20
-3.57296
11
5.66361
21
-3.57296
0
LINE
8
BLACK
6
CONTINUOUS
10
5.66361
20
-3.57296
11
5.66032
21
-3.57231
0
LINE
8
BLACK
6
CONTINUOUS
10
5.66032
20
-3.57231
11
5.65752
21
-3.57044
0
LINE
8
BLACK
6
CONTINUOUS
10
5.65752
20
-3.57044
11
5.65566
21
-3.56764
0
LINE
8
BLACK
6
CONTINUOUS
10
5.65566
20
-3.56764
11
5.655
21
-3.56435
0
LINE
8
BLACK
6
CONTINUOUS
10
5.655
20
-3.56435
11
5.655
21
-3.53433
0
LINE
8
BLACK
6
CONTINUOUS
10
5.655
20
-3.53433
11
5.65566
21
-3.53103
0
LINE
8
BLACK
6
CONTINUOUS
10
5.65566
20
-3.53103
11
5.65752
21
-3.52824
0
LINE
8
BLACK
6
CONTINUOUS
10
5.65752
20
-3.52824
11
5.66032
21
-3.52637
0
LINE
8
BLACK
6
CONTINUOUS
10
5.66032
20
-3.52637
11
5.66361
21
-3.52572
0
LINE
8
BLACK
6
CONTINUOUS
10
5.66361
20
-3.52572
11
5.68084
21
-3.52572
0
LINE
8
BLACK
6
CONTINUOUS
10
5.68084
20
-3.52572
11
5.68413
21
-3.52637
0
LINE
8
BLACK
6
CONTINUOUS
10
5.76779
20
-3.52637
11
5.77059
21
-3.52824
0
LINE
8
BLACK
6
CONTINUOUS
10
5.77059
20
-3.52824
11
5.77245
21
-3.53103
0
LINE
8
BLACK
6
CONTINUOUS
10
5.77245
20
-3.53103
11
5.77311
21
-3.53433
0
LINE
8
BLACK
6
CONTINUOUS
10
5.77311
20
-3.53433
11
5.77311
21
-3.56435
0
LINE
8
BLACK
6
CONTINUOUS
10
5.77311
20
-3.56435
11
5.77245
21
-3.56764
0
LINE
8
BLACK
6
CONTINUOUS
10
5.77245
20
-3.56764
11
5.77059
21
-3.57044
0
LINE
8
BLACK
6
CONTINUOUS
10
5.77059
20
-3.57044
11
5.76779
21
-3.57231
0
LINE
8
BLACK
6
CONTINUOUS
10
5.76779
20
-3.57231
11
5.7645
21
-3.57296
0
LINE
8
BLACK
6
CONTINUOUS
10
5.7645
20
-3.57296
11
5.74727
21
-3.57296
0
LINE
8
BLACK
6
CONTINUOUS
10
5.74727
20
-3.57296
11
5.74398
21
-3.57231
0
LINE
8
BLACK
6
CONTINUOUS
10
5.74398
20
-3.57231
11
5.74118
21
-3.57044
0
LINE
8
BLACK
6
CONTINUOUS
10
5.74118
20
-3.57044
11
5.73932
21
-3.56764
0
LINE
8
BLACK
6
CONTINUOUS
10
5.73932
20
-3.56764
11
5.73866
21
-3.56435
0
LINE
8
BLACK
6
CONTINUOUS
10
5.73866
20
-3.56435
11
5.73866
21
-3.53433
0
LINE
8
BLACK
6
CONTINUOUS
10
5.73866
20
-3.53433
11
5.73932
21
-3.53103
0
LINE
8
BLACK
6
CONTINUOUS
10
5.73932
20
-3.53103
11
5.74118
21
-3.52824
0
LINE
8
BLACK
6
CONTINUOUS
10
5.74118
20
-3.52824
11
5.74398
21
-3.52637
0
LINE
8
BLACK
6
CONTINUOUS
10
5.74398
20
-3.52637
11
5.74727
21
-3.52572
0
LINE
8
BLACK
6
CONTINUOUS
10
5.74727
20
-3.52572
11
5.7645
21
-3.52572
0
LINE
8
BLACK
6
CONTINUOUS
10
5.7645
20
-3.52572
11
5.76779
21
-3.52637
0
LINE
8
BLACK
6
CONTINUOUS
10
6.32228
20
-3.52504
11
6.32508
21
-3.52691
0
LINE
8
BLACK
6
CONTINUOUS
10
6.32508
20
-3.52691
11
6.32694
21
-3.5297
0
LINE
8
BLACK
6
CONTINUOUS
10
6.32694
20
-3.5297
11
6.3276
21
-3.533
0
LINE
8
BLACK
6
CONTINUOUS
10
6.3276
20
-3.533
11
6.3276
21
-3.56302
0
LINE
8
BLACK
6
CONTINUOUS
10
6.3276
20
-3.56302
11
6.32694
21
-3.56631
0
LINE
8
BLACK
6
CONTINUOUS
10
6.32694
20
-3.56631
11
6.32508
21
-3.56911
0
LINE
8
BLACK
6
CONTINUOUS
10
6.32508
20
-3.56911
11
6.32228
21
-3.57097
0
LINE
8
BLACK
6
CONTINUOUS
10
6.32228
20
-3.57097
11
6.31899
21
-3.57163
0
LINE
8
BLACK
6
CONTINUOUS
10
6.31899
20
-3.57163
11
6.30176
21
-3.57163
0
LINE
8
BLACK
6
CONTINUOUS
10
6.30176
20
-3.57163
11
6.29847
21
-3.57097
0
LINE
8
BLACK
6
CONTINUOUS
10
6.29847
20
-3.57097
11
6.29567
21
-3.56911
0
LINE
8
BLACK
6
CONTINUOUS
10
6.29567
20
-3.56911
11
6.29381
21
-3.56631
0
LINE
8
BLACK
6
CONTINUOUS
10
6.29381
20
-3.56631
11
6.29315
21
-3.56302
0
LINE
8
BLACK
6
CONTINUOUS
10
6.29315
20
-3.56302
11
6.29315
21
-3.533
0
LINE
8
BLACK
6
CONTINUOUS
10
6.29315
20
-3.533
11
6.29381
21
-3.5297
0
LINE
8
BLACK
6
CONTINUOUS
10
6.29381
20
-3.5297
11
6.29567
21
-3.52691
0
LINE
8
BLACK
6
CONTINUOUS
10
6.29567
20
-3.52691
11
6.29847
21
-3.52504
0
LINE
8
BLACK
6
CONTINUOUS
10
6.29847
20
-3.52504
11
6.30176
21
-3.52439
0
LINE
8
BLACK
6
CONTINUOUS
10
6.30176
20
-3.52439
11
6.31899
21
-3.52439
0
LINE
8
BLACK
6
CONTINUOUS
10
6.31899
20
-3.52439
11
6.32228
21
-3.52504
0
LINE
8
BLACK
6
CONTINUOUS
10
6.40594
20
-3.52504
11
6.40874
21
-3.52691
0
LINE
8
BLACK
6
CONTINUOUS
10
6.40874
20
-3.52691
11
6.4106
21
-3.5297
0
LINE
8
BLACK
6
CONTINUOUS
10
6.4106
20
-3.5297
11
6.41126
21
-3.533
0
LINE
8
BLACK
6
CONTINUOUS
10
6.41126
20
-3.533
11
6.41126
21
-3.56302
0
LINE
8
BLACK
6
CONTINUOUS
10
6.41126
20
-3.56302
11
6.4106
21
-3.56631
0
LINE
8
BLACK
6
CONTINUOUS
10
6.4106
20
-3.56631
11
6.40874
21
-3.56911
0
LINE
8
BLACK
6
CONTINUOUS
10
6.40874
20
-3.56911
11
6.40594
21
-3.57097
0
LINE
8
BLACK
6
CONTINUOUS
10
6.40594
20
-3.57097
11
6.40265
21
-3.57163
0
LINE
8
BLACK
6
CONTINUOUS
10
6.40265
20
-3.57163
11
6.38542
21
-3.57163
0
LINE
8
BLACK
6
CONTINUOUS
10
6.38542
20
-3.57163
11
6.38213
21
-3.57097
0
LINE
8
BLACK
6
CONTINUOUS
10
6.38213
20
-3.57097
11
6.37933
21
-3.56911
0
LINE
8
BLACK
6
CONTINUOUS
10
6.37933
20
-3.56911
11
6.37747
21
-3.56631
0
LINE
8
BLACK
6
CONTINUOUS
10
6.37747
20
-3.56631
11
6.37681
21
-3.56302
0
LINE
8
BLACK
6
CONTINUOUS
10
6.37681
20
-3.56302
11
6.37681
21
-3.533
0
LINE
8
BLACK
6
CONTINUOUS
10
6.37681
20
-3.533
11
6.37747
21
-3.5297
0
LINE
8
BLACK
6
CONTINUOUS
10
6.37747
20
-3.5297
11
6.37933
21
-3.52691
0
LINE
8
BLACK
6
CONTINUOUS
10
6.37933
20
-3.52691
11
6.38213
21
-3.52504
0
LINE
8
BLACK
6
CONTINUOUS
10
6.38213
20
-3.52504
11
6.38542
21
-3.52439
0
LINE
8
BLACK
6
CONTINUOUS
10
6.38542
20
-3.52439
11
6.40265
21
-3.52439
0
LINE
8
BLACK
6
CONTINUOUS
10
6.40265
20
-3.52439
11
6.40594
21
-3.52504
0
LINE
8
BLACK
6
CONTINUOUS
10
6.25851
20
-3.53327
11
6.2613
21
-3.53514
0
LINE
8
BLACK
6
CONTINUOUS
10
6.2613
20
-3.53514
11
6.26317
21
-3.53793
0
LINE
8
BLACK
6
CONTINUOUS
10
6.26317
20
-3.53793
11
6.26383
21
-3.54123
0
LINE
8
BLACK
6
CONTINUOUS
10
6.26383
20
-3.54123
11
6.26383
21
-3.55845
0
LINE
8
BLACK
6
CONTINUOUS
10
6.26383
20
-3.55845
11
6.26317
21
-3.56175
0
LINE
8
BLACK
6
CONTINUOUS
10
6.26317
20
-3.56175
11
6.2613
21
-3.56454
0
LINE
8
BLACK
6
CONTINUOUS
10
6.2613
20
-3.56454
11
6.25851
21
-3.56641
0
LINE
8
BLACK
6
CONTINUOUS
10
6.25851
20
-3.56641
11
6.25521
21
-3.56706
0
LINE
8
BLACK
6
CONTINUOUS
10
6.25521
20
-3.56706
11
6.22519
21
-3.56706
0
LINE
8
BLACK
6
CONTINUOUS
10
6.22519
20
-3.56706
11
6.2219
21
-3.56641
0
LINE
8
BLACK
6
CONTINUOUS
10
6.2219
20
-3.56641
11
6.21911
21
-3.56454
0
LINE
8
BLACK
6
CONTINUOUS
10
6.21911
20
-3.56454
11
6.21724
21
-3.56175
0
LINE
8
BLACK
6
CONTINUOUS
10
6.21724
20
-3.56175
11
6.21658
21
-3.55845
0
LINE
8
BLACK
6
CONTINUOUS
10
6.21658
20
-3.55845
11
6.21658
21
-3.54123
0
LINE
8
BLACK
6
CONTINUOUS
10
6.21658
20
-3.54123
11
6.21724
21
-3.53793
0
LINE
8
BLACK
6
CONTINUOUS
10
6.21724
20
-3.53793
11
6.21911
21
-3.53514
0
LINE
8
BLACK
6
CONTINUOUS
10
6.21911
20
-3.53514
11
6.2219
21
-3.53327
0
LINE
8
BLACK
6
CONTINUOUS
10
6.2219
20
-3.53327
11
6.22519
21
-3.53261
0
LINE
8
BLACK
6
CONTINUOUS
10
6.22519
20
-3.53261
11
6.25521
21
-3.53261
0
LINE
8
BLACK
6
CONTINUOUS
10
6.25521
20
-3.53261
11
6.25851
21
-3.53327
0
LINE
8
BLACK
6
CONTINUOUS
10
6.09451
20
-3.53244
11
6.0973
21
-3.53431
0
LINE
8
BLACK
6
CONTINUOUS
10
6.0973
20
-3.53431
11
6.09917
21
-3.5371
0
LINE
8
BLACK
6
CONTINUOUS
10
6.09917
20
-3.5371
11
6.09983
21
-3.5404
0
LINE
8
BLACK
6
CONTINUOUS
10
6.09983
20
-3.5404
11
6.09983
21
-3.55762
0
LINE
8
BLACK
6
CONTINUOUS
10
6.09983
20
-3.55762
11
6.09917
21
-3.56092
0
LINE
8
BLACK
6
CONTINUOUS
10
6.09917
20
-3.56092
11
6.0973
21
-3.56371
0
LINE
8
BLACK
6
CONTINUOUS
10
6.0973
20
-3.56371
11
6.09451
21
-3.56558
0
LINE
8
BLACK
6
CONTINUOUS
10
6.09451
20
-3.56558
11
6.09121
21
-3.56623
0
LINE
8
BLACK
6
CONTINUOUS
10
6.09121
20
-3.56623
11
6.06119
21
-3.56623
0
LINE
8
BLACK
6
CONTINUOUS
10
6.06119
20
-3.56623
11
6.0579
21
-3.56558
0
LINE
8
BLACK
6
CONTINUOUS
10
6.0579
20
-3.56558
11
6.05511
21
-3.56371
0
LINE
8
BLACK
6
CONTINUOUS
10
6.05511
20
-3.56371
11
6.05324
21
-3.56092
0
LINE
8
BLACK
6
CONTINUOUS
10
6.05324
20
-3.56092
11
6.05258
21
-3.55762
0
LINE
8
BLACK
6
CONTINUOUS
10
6.05258
20
-3.55762
11
6.05258
21
-3.5404
0
LINE
8
BLACK
6
CONTINUOUS
10
6.05258
20
-3.5404
11
6.05324
21
-3.5371
0
LINE
8
BLACK
6
CONTINUOUS
10
6.05324
20
-3.5371
11
6.05511
21
-3.53431
0
LINE
8
BLACK
6
CONTINUOUS
10
6.05511
20
-3.53431
11
6.0579
21
-3.53244
0
LINE
8
BLACK
6
CONTINUOUS
10
6.0579
20
-3.53244
11
6.06119
21
-3.53178
0
LINE
8
BLACK
6
CONTINUOUS
10
6.06119
20
-3.53178
11
6.09121
21
-3.53178
0
LINE
8
BLACK
6
CONTINUOUS
10
6.09121
20
-3.53178
11
6.09451
21
-3.53244
0
LINE
8
BLACK
6
CONTINUOUS
10
5.92951
20
-3.53227
11
5.9323
21
-3.53414
0
LINE
8
BLACK
6
CONTINUOUS
10
5.9323
20
-3.53414
11
5.93417
21
-3.53693
0
LINE
8
BLACK
6
CONTINUOUS
10
5.93417
20
-3.53693
11
5.93483
21
-3.54023
0
LINE
8
BLACK
6
CONTINUOUS
10
5.93483
20
-3.54023
11
5.93483
21
-3.55745
0
LINE
8
BLACK
6
CONTINUOUS
10
5.93483
20
-3.55745
11
5.93417
21
-3.56075
0
LINE
8
BLACK
6
CONTINUOUS
10
5.93417
20
-3.56075
11
5.9323
21
-3.56354
0
LINE
8
BLACK
6
CONTINUOUS
10
5.9323
20
-3.56354
11
5.92951
21
-3.56541
0
LINE
8
BLACK
6
CONTINUOUS
10
5.92951
20
-3.56541
11
5.92621
21
-3.56606
0
LINE
8
BLACK
6
CONTINUOUS
10
5.92621
20
-3.56606
11
5.89619
21
-3.56606
0
LINE
8
BLACK
6
CONTINUOUS
10
5.89619
20
-3.56606
11
5.8929
21
-3.56541
0
LINE
8
BLACK
6
CONTINUOUS
10
5.8929
20
-3.56541
11
5.89011
21
-3.56354
0
LINE
8
BLACK
6
CONTINUOUS
10
5.89011
20
-3.56354
11
5.88824
21
-3.56075
0
LINE
8
BLACK
6
CONTINUOUS
10
5.88824
20
-3.56075
11
5.88758
21
-3.55745
0
LINE
8
BLACK
6
CONTINUOUS
10
5.88758
20
-3.55745
11
5.88758
21
-3.54023
0
LINE
8
BLACK
6
CONTINUOUS
10
5.88758
20
-3.54023
11
5.88824
21
-3.53693
0
LINE
8
BLACK
6
CONTINUOUS
10
5.88824
20
-3.53693
11
5.89011
21
-3.53414
0
LINE
8
BLACK
6
CONTINUOUS
10
5.89011
20
-3.53414
11
5.8929
21
-3.53227
0
LINE
8
BLACK
6
CONTINUOUS
10
5.8929
20
-3.53227
11
5.89619
21
-3.53161
0
LINE
8
BLACK
6
CONTINUOUS
10
5.89619
20
-3.53161
11
5.92621
21
-3.53161
0
LINE
8
BLACK
6
CONTINUOUS
10
5.92621
20
-3.53161
11
5.92951
21
-3.53227
0
LINE
8
BLACK
6
CONTINUOUS
10
6.18267
20
-3.52647
11
6.18587
21
-3.52861
0
LINE
8
BLACK
6
CONTINUOUS
10
6.18587
20
-3.52861
11
6.188
21
-3.5318
0
LINE
8
BLACK
6
CONTINUOUS
10
6.188
20
-3.5318
11
6.18875
21
-3.53557
0
LINE
8
BLACK
6
CONTINUOUS
10
6.18875
20
-3.53557
11
6.18875
21
-3.55525
0
LINE
8
BLACK
6
CONTINUOUS
10
6.18875
20
-3.55525
11
6.188
21
-3.55902
0
LINE
8
BLACK
6
CONTINUOUS
10
6.188
20
-3.55902
11
6.18587
21
-3.56221
0
LINE
8
BLACK
6
CONTINUOUS
10
6.18587
20
-3.56221
11
6.18267
21
-3.56435
0
LINE
8
BLACK
6
CONTINUOUS
10
6.18267
20
-3.56435
11
6.17891
21
-3.56509
0
LINE
8
BLACK
6
CONTINUOUS
10
6.17891
20
-3.56509
11
6.1415
21
-3.56509
0
LINE
8
BLACK
6
CONTINUOUS
10
6.1415
20
-3.56509
11
6.13774
21
-3.56435
0
LINE
8
BLACK
6
CONTINUOUS
10
6.13774
20
-3.56435
11
6.13454
21
-3.56221
0
LINE
8
BLACK
6
CONTINUOUS
10
6.13454
20
-3.56221
11
6.13241
21
-3.55902
0
LINE
8
BLACK
6
CONTINUOUS
10
6.13241
20
-3.55902
11
6.13166
21
-3.55525
0
LINE
8
BLACK
6
CONTINUOUS
10
6.13166
20
-3.55525
11
6.13166
21
-3.53557
0
LINE
8
BLACK
6
CONTINUOUS
10
6.13166
20
-3.53557
11
6.13241
21
-3.5318
0
LINE
8
BLACK
6
CONTINUOUS
10
6.13241
20
-3.5318
11
6.13454
21
-3.52861
0
LINE
8
BLACK
6
CONTINUOUS
10
6.13454
20
-3.52861
11
6.13774
21
-3.52647
0
LINE
8
BLACK
6
CONTINUOUS
10
6.13774
20
-3.52647
11
6.1415
21
-3.52572
0
LINE
8
BLACK
6
CONTINUOUS
10
6.1415
20
-3.52572
11
6.17891
21
-3.52572
0
LINE
8
BLACK
6
CONTINUOUS
10
6.17891
20
-3.52572
11
6.18267
21
-3.52647
0
LINE
8
BLACK
6
CONTINUOUS
10
6.01867
20
-3.52564
11
6.02187
21
-3.52778
0
LINE
8
BLACK
6
CONTINUOUS
10
6.02187
20
-3.52778
11
6.024
21
-3.53097
0
LINE
8
BLACK
6
CONTINUOUS
10
6.024
20
-3.53097
11
6.02475
21
-3.53474
0
LINE
8
BLACK
6
CONTINUOUS
10
6.02475
20
-3.53474
11
6.02475
21
-3.55442
0
LINE
8
BLACK
6
CONTINUOUS
10
6.02475
20
-3.55442
11
6.024
21
-3.55819
0
LINE
8
BLACK
6
CONTINUOUS
10
6.024
20
-3.55819
11
6.02187
21
-3.56138
0
LINE
8
BLACK
6
CONTINUOUS
10
6.02187
20
-3.56138
11
6.01867
21
-3.56351
0
LINE
8
BLACK
6
CONTINUOUS
10
6.01867
20
-3.56351
11
6.01491
21
-3.56426
0
LINE
8
BLACK
6
CONTINUOUS
10
6.01491
20
-3.56426
11
5.9775
21
-3.56426
0
LINE
8
BLACK
6
CONTINUOUS
10
5.9775
20
-3.56426
11
5.97374
21
-3.56351
0
LINE
8
BLACK
6
CONTINUOUS
10
5.97374
20
-3.56351
11
5.97054
21
-3.56138
0
LINE
8
BLACK
6
CONTINUOUS
10
5.97054
20
-3.56138
11
5.96841
21
-3.55819
0
LINE
8
BLACK
6
CONTINUOUS
10
5.96841
20
-3.55819
11
5.96766
21
-3.55442
0
LINE
8
BLACK
6
CONTINUOUS
10
5.96766
20
-3.55442
11
5.96766
21
-3.53474
0
LINE
8
BLACK
6
CONTINUOUS
10
5.96766
20
-3.53474
11
5.96841
21
-3.53097
0
LINE
8
BLACK
6
CONTINUOUS
10
5.96841
20
-3.53097
11
5.97054
21
-3.52778
0
LINE
8
BLACK
6
CONTINUOUS
10
5.97054
20
-3.52778
11
5.97374
21
-3.52564
0
LINE
8
BLACK
6
CONTINUOUS
10
5.97374
20
-3.52564
11
5.9775
21
-3.52489
0
LINE
8
BLACK
6
CONTINUOUS
10
5.9775
20
-3.52489
11
6.01491
21
-3.52489
0
LINE
8
BLACK
6
CONTINUOUS
10
6.01491
20
-3.52489
11
6.01867
21
-3.52564
0
LINE
8
BLACK
6
CONTINUOUS
10
5.85367
20
-3.52547
11
5.85687
21
-3.52761
0
LINE
8
BLACK
6
CONTINUOUS
10
5.85687
20
-3.52761
11
5.859
21
-3.5308
0
LINE
8
BLACK
6
CONTINUOUS
10
5.859
20
-3.5308
11
5.85975
21
-3.53457
0
LINE
8
BLACK
6
CONTINUOUS
10
5.85975
20
-3.53457
11
5.85975
21
-3.55425
0
LINE
8
BLACK
6
CONTINUOUS
10
5.85975
20
-3.55425
11
5.859
21
-3.55802
0
LINE
8
BLACK
6
CONTINUOUS
10
5.859
20
-3.55802
11
5.85687
21
-3.56121
0
LINE
8
BLACK
6
CONTINUOUS
10
5.85687
20
-3.56121
11
5.85367
21
-3.56335
0
LINE
8
BLACK
6
CONTINUOUS
10
5.85367
20
-3.56335
11
5.84991
21
-3.56409
0
LINE
8
BLACK
6
CONTINUOUS
10
5.84991
20
-3.56409
11
5.8125
21
-3.56409
0
LINE
8
BLACK
6
CONTINUOUS
10
5.8125
20
-3.56409
11
5.80874
21
-3.56335
0
LINE
8
BLACK
6
CONTINUOUS
10
5.80874
20
-3.56335
11
5.80554
21
-3.56121
0
LINE
8
BLACK
6
CONTINUOUS
10
5.80554
20
-3.56121
11
5.80341
21
-3.55802
0
LINE
8
BLACK
6
CONTINUOUS
10
5.80341
20
-3.55802
11
5.80266
21
-3.55425
0
LINE
8
BLACK
6
CONTINUOUS
10
5.80266
20
-3.55425
11
5.80266
21
-3.53457
0
LINE
8
BLACK
6
CONTINUOUS
10
5.80266
20
-3.53457
11
5.80341
21
-3.5308
0
LINE
8
BLACK
6
CONTINUOUS
10
5.80341
20
-3.5308
11
5.80554
21
-3.52761
0
LINE
8
BLACK
6
CONTINUOUS
10
5.80554
20
-3.52761
11
5.80874
21
-3.52547
0
LINE
8
BLACK
6
CONTINUOUS
10
5.80874
20
-3.52547
11
5.8125
21
-3.52472
0
LINE
8
BLACK
6
CONTINUOUS
10
5.8125
20
-3.52472
11
5.84991
21
-3.52472
0
LINE
8
BLACK
6
CONTINUOUS
10
5.84991
20
-3.52472
11
5.85367
21
-3.52547
0
LINE
8
BLACK
6
CONTINUOUS
10
5.68413
20
-3.44637
11
5.68693
21
-3.44824
0
LINE
8
BLACK
6
CONTINUOUS
10
5.68693
20
-3.44824
11
5.68879
21
-3.45103
0
LINE
8
BLACK
6
CONTINUOUS
10
5.68879
20
-3.45103
11
5.68945
21
-3.45433
0
LINE
8
BLACK
6
CONTINUOUS
10
5.68945
20
-3.45433
11
5.68945
21
-3.48435
0
LINE
8
BLACK
6
CONTINUOUS
10
5.68945
20
-3.48435
11
5.68879
21
-3.48764
0
LINE
8
BLACK
6
CONTINUOUS
10
5.68879
20
-3.48764
11
5.68693
21
-3.49044
0
LINE
8
BLACK
6
CONTINUOUS
10
5.68693
20
-3.49044
11
5.68413
21
-3.49231
0
LINE
8
BLACK
6
CONTINUOUS
10
5.68413
20
-3.49231
11
5.68084
21
-3.49296
0
LINE
8
BLACK
6
CONTINUOUS
10
5.68084
20
-3.49296
11
5.66361
21
-3.49296
0
LINE
8
BLACK
6
CONTINUOUS
10
5.66361
20
-3.49296
11
5.66032
21
-3.49231
0
LINE
8
BLACK
6
CONTINUOUS
10
5.66032
20
-3.49231
11
5.65752
21
-3.49044
0
LINE
8
BLACK
6
CONTINUOUS
10
5.65752
20
-3.49044
11
5.65566
21
-3.48764
0
LINE
8
BLACK
6
CONTINUOUS
10
5.65566
20
-3.48764
11
5.655
21
-3.48435
0
LINE
8
BLACK
6
CONTINUOUS
10
5.655
20
-3.48435
11
5.655
21
-3.45433
0
LINE
8
BLACK
6
CONTINUOUS
10
5.655
20
-3.45433
11
5.65566
21
-3.45103
0
LINE
8
BLACK
6
CONTINUOUS
10
5.65566
20
-3.45103
11
5.65752
21
-3.44824
0
LINE
8
BLACK
6
CONTINUOUS
10
5.65752
20
-3.44824
11
5.66032
21
-3.44637
0
LINE
8
BLACK
6
CONTINUOUS
10
5.66032
20
-3.44637
11
5.66361
21
-3.44572
0
LINE
8
BLACK
6
CONTINUOUS
10
5.66361
20
-3.44572
11
5.68084
21
-3.44572
0
LINE
8
BLACK
6
CONTINUOUS
10
5.68084
20
-3.44572
11
5.68413
21
-3.44637
0
LINE
8
BLACK
6
CONTINUOUS
10
5.76779
20
-3.44637
11
5.77059
21
-3.44824
0
LINE
8
BLACK
6
CONTINUOUS
10
5.77059
20
-3.44824
11
5.77245
21
-3.45103
0
LINE
8
BLACK
6
CONTINUOUS
10
5.77245
20
-3.45103
11
5.77311
21
-3.45433
0
LINE
8
BLACK
6
CONTINUOUS
10
5.77311
20
-3.45433
11
5.77311
21
-3.48435
0
LINE
8
BLACK
6
CONTINUOUS
10
5.77311
20
-3.48435
11
5.77245
21
-3.48764
0
LINE
8
BLACK
6
CONTINUOUS
10
5.77245
20
-3.48764
11
5.77059
21
-3.49044
0
LINE
8
BLACK
6
CONTINUOUS
10
5.77059
20
-3.49044
11
5.76779
21
-3.49231
0
LINE
8
BLACK
6
CONTINUOUS
10
5.76779
20
-3.49231
11
5.7645
21
-3.49296
0
LINE
8
BLACK
6
CONTINUOUS
10
5.7645
20
-3.49296
11
5.74727
21
-3.49296
0
LINE
8
BLACK
6
CONTINUOUS
10
5.74727
20
-3.49296
11
5.74398
21
-3.49231
0
LINE
8
BLACK
6
CONTINUOUS
10
5.74398
20
-3.49231
11
5.74118
21
-3.49044
0
LINE
8
BLACK
6
CONTINUOUS
10
5.74118
20
-3.49044
11
5.73932
21
-3.48764
0
LINE
8
BLACK
6
CONTINUOUS
10
5.73932
20
-3.48764
11
5.73866
21
-3.48435
0
LINE
8
BLACK
6
CONTINUOUS
10
5.73866
20
-3.48435
11
5.73866
21
-3.45433
0
LINE
8
BLACK
6
CONTINUOUS
10
5.73866
20
-3.45433
11
5.73932
21
-3.45103
0
LINE
8
BLACK
6
CONTINUOUS
10
5.73932
20
-3.45103
11
5.74118
21
-3.44824
0
LINE
8
BLACK
6
CONTINUOUS
10
5.74118
20
-3.44824
11
5.74398
21
-3.44637
0
LINE
8
BLACK
6
CONTINUOUS
10
5.74398
20
-3.44637
11
5.74727
21
-3.44572
0
LINE
8
BLACK
6
CONTINUOUS
10
5.74727
20
-3.44572
11
5.7645
21
-3.44572
0
LINE
8
BLACK
6
CONTINUOUS
10
5.7645
20
-3.44572
11
5.76779
21
-3.44637
0
LINE
8
BLACK
6
CONTINUOUS
10
5.54243
20
-3.43554
11
5.54563
21
-3.43768
0
LINE
8
BLACK
6
CONTINUOUS
10
5.54563
20
-3.43768
11
5.54776
21
-3.44087
0
LINE
8
BLACK
6
CONTINUOUS
10
5.54776
20
-3.44087
11
5.54851
21
-3.44464
0
LINE
8
BLACK
6
CONTINUOUS
10
5.54851
20
-3.44464
11
5.54851
21
-3.48204
0
LINE
8
BLACK
6
CONTINUOUS
10
5.54851
20
-3.48204
11
5.54776
21
-3.48581
0
LINE
8
BLACK
6
CONTINUOUS
10
5.54776
20
-3.48581
11
5.54563
21
-3.489
0
LINE
8
BLACK
6
CONTINUOUS
10
5.54563
20
-3.489
11
5.54243
21
-3.49113
0
LINE
8
BLACK
6
CONTINUOUS
10
5.54243
20
-3.49113
11
5.53867
21
-3.49188
0
LINE
8
BLACK
6
CONTINUOUS
10
5.53867
20
-3.49188
11
5.51898
21
-3.49188
0
LINE
8
BLACK
6
CONTINUOUS
10
5.51898
20
-3.49188
11
5.51521
21
-3.49113
0
LINE
8
BLACK
6
CONTINUOUS
10
5.51521
20
-3.49113
11
5.51202
21
-3.489
0
LINE
8
BLACK
6
CONTINUOUS
10
5.51202
20
-3.489
11
5.50989
21
-3.48581
0
LINE
8
BLACK
6
CONTINUOUS
10
5.50989
20
-3.48581
11
5.50914
21
-3.48204
0
LINE
8
BLACK
6
CONTINUOUS
10
5.50914
20
-3.48204
11
5.50914
21
-3.44464
0
LINE
8
BLACK
6
CONTINUOUS
10
5.50914
20
-3.44464
11
5.50989
21
-3.44087
0
LINE
8
BLACK
6
CONTINUOUS
10
5.50989
20
-3.44087
11
5.51202
21
-3.43768
0
LINE
8
BLACK
6
CONTINUOUS
10
5.51202
20
-3.43768
11
5.51521
21
-3.43554
0
LINE
8
BLACK
6
CONTINUOUS
10
5.51521
20
-3.43554
11
5.51898
21
-3.4348
0
LINE
8
BLACK
6
CONTINUOUS
10
5.51898
20
-3.4348
11
5.53867
21
-3.4348
0
LINE
8
BLACK
6
CONTINUOUS
10
5.53867
20
-3.4348
11
5.54243
21
-3.43554
0
LINE
8
BLACK
6
CONTINUOUS
10
5.61724
20
-3.43554
11
5.62043
21
-3.43768
0
LINE
8
BLACK
6
CONTINUOUS
10
5.62043
20
-3.43768
11
5.62256
21
-3.44087
0
LINE
8
BLACK
6
CONTINUOUS
10
5.62256
20
-3.44087
11
5.62331
21
-3.44464
0
LINE
8
BLACK
6
CONTINUOUS
10
5.62331
20
-3.44464
11
5.62331
21
-3.48204
0
LINE
8
BLACK
6
CONTINUOUS
10
5.62331
20
-3.48204
11
5.62256
21
-3.48581
0
LINE
8
BLACK
6
CONTINUOUS
10
5.62256
20
-3.48581
11
5.62043
21
-3.489
0
LINE
8
BLACK
6
CONTINUOUS
10
5.62043
20
-3.489
11
5.61724
21
-3.49113
0
LINE
8
BLACK
6
CONTINUOUS
10
5.61724
20
-3.49113
11
5.61347
21
-3.49188
0
LINE
8
BLACK
6
CONTINUOUS
10
5.61347
20
-3.49188
11
5.59378
21
-3.49188
0
LINE
8
BLACK
6
CONTINUOUS
10
5.59378
20
-3.49188
11
5.59002
21
-3.49113
0
LINE
8
BLACK
6
CONTINUOUS
10
5.59002
20
-3.49113
11
5.58682
21
-3.489
0
LINE
8
BLACK
6
CONTINUOUS
10
5.58682
20
-3.489
11
5.58469
21
-3.48581
0
LINE
8
BLACK
6
CONTINUOUS
10
5.58469
20
-3.48581
11
5.58394
21
-3.48204
0
LINE
8
BLACK
6
CONTINUOUS
10
5.58394
20
-3.48204
11
5.58394
21
-3.44464
0
LINE
8
BLACK
6
CONTINUOUS
10
5.58394
20
-3.44464
11
5.58469
21
-3.44087
0
LINE
8
BLACK
6
CONTINUOUS
10
5.58469
20
-3.44087
11
5.58682
21
-3.43768
0
LINE
8
BLACK
6
CONTINUOUS
10
5.58682
20
-3.43768
11
5.59002
21
-3.43554
0
LINE
8
BLACK
6
CONTINUOUS
10
5.59002
20
-3.43554
11
5.59378
21
-3.4348
0
LINE
8
BLACK
6
CONTINUOUS
10
5.59378
20
-3.4348
11
5.61347
21
-3.4348
0
LINE
8
BLACK
6
CONTINUOUS
10
5.61347
20
-3.4348
11
5.61724
21
-3.43554
0
LINE
8
BLACK
6
CONTINUOUS
10
6.32228
20
-3.44504
11
6.32508
21
-3.44691
0
LINE
8
BLACK
6
CONTINUOUS
10
6.32508
20
-3.44691
11
6.32694
21
-3.4497
0
LINE
8
BLACK
6
CONTINUOUS
10
6.32694
20
-3.4497
11
6.3276
21
-3.453
0
LINE
8
BLACK
6
CONTINUOUS
10
6.3276
20
-3.453
11
6.3276
21
-3.48302
0
LINE
8
BLACK
6
CONTINUOUS
10
6.3276
20
-3.48302
11
6.32694
21
-3.48631
0
LINE
8
BLACK
6
CONTINUOUS
10
6.32694
20
-3.48631
11
6.32508
21
-3.48911
0
LINE
8
BLACK
6
CONTINUOUS
10
6.32508
20
-3.48911
11
6.32228
21
-3.49097
0
LINE
8
BLACK
6
CONTINUOUS
10
6.32228
20
-3.49097
11
6.31899
21
-3.49163
0
LINE
8
BLACK
6
CONTINUOUS
10
6.31899
20
-3.49163
11
6.30176
21
-3.49163
0
LINE
8
BLACK
6
CONTINUOUS
10
6.30176
20
-3.49163
11
6.29847
21
-3.49097
0
LINE
8
BLACK
6
CONTINUOUS
10
6.29847
20
-3.49097
11
6.29567
21
-3.48911
0
LINE
8
BLACK
6
CONTINUOUS
10
6.29567
20
-3.48911
11
6.29381
21
-3.48631
0
LINE
8
BLACK
6
CONTINUOUS
10
6.29381
20
-3.48631
11
6.29315
21
-3.48302
0
LINE
8
BLACK
6
CONTINUOUS
10
6.29315
20
-3.48302
11
6.29315
21
-3.453
0
LINE
8
BLACK
6
CONTINUOUS
10
6.29315
20
-3.453
11
6.29381
21
-3.4497
0
LINE
8
BLACK
6
CONTINUOUS
10
6.29381
20
-3.4497
11
6.29567
21
-3.44691
0
LINE
8
BLACK
6
CONTINUOUS
10
6.29567
20
-3.44691
11
6.29847
21
-3.44504
0
LINE
8
BLACK
6
CONTINUOUS
10
6.29847
20
-3.44504
11
6.30176
21
-3.44439
0
LINE
8
BLACK
6
CONTINUOUS
10
6.30176
20
-3.44439
11
6.31899
21
-3.44439
0
LINE
8
BLACK
6
CONTINUOUS
10
6.31899
20
-3.44439
11
6.32228
21
-3.44504
0
LINE
8
BLACK
6
CONTINUOUS
10
6.40594
20
-3.44504
11
6.40874
21
-3.44691
0
LINE
8
BLACK
6
CONTINUOUS
10
6.40874
20
-3.44691
11
6.4106
21
-3.4497
0
LINE
8
BLACK
6
CONTINUOUS
10
6.4106
20
-3.4497
11
6.41126
21
-3.453
0
LINE
8
BLACK
6
CONTINUOUS
10
6.41126
20
-3.453
11
6.41126
21
-3.48302
0
LINE
8
BLACK
6
CONTINUOUS
10
6.41126
20
-3.48302
11
6.4106
21
-3.48631
0
LINE
8
BLACK
6
CONTINUOUS
10
6.4106
20
-3.48631
11
6.40874
21
-3.48911
0
LINE
8
BLACK
6
CONTINUOUS
10
6.40874
20
-3.48911
11
6.40594
21
-3.49097
0
LINE
8
BLACK
6
CONTINUOUS
10
6.40594
20
-3.49097
11
6.40265
21
-3.49163
0
LINE
8
BLACK
6
CONTINUOUS
10
6.40265
20
-3.49163
11
6.38542
21
-3.49163
0
LINE
8
BLACK
6
CONTINUOUS
10
6.38542
20
-3.49163
11
6.38213
21
-3.49097
0
LINE
8
BLACK
6
CONTINUOUS
10
6.38213
20
-3.49097
11
6.37933
21
-3.48911
0
LINE
8
BLACK
6
CONTINUOUS
10
6.37933
20
-3.48911
11
6.37747
21
-3.48631
0
LINE
8
BLACK
6
CONTINUOUS
10
6.37747
20
-3.48631
11
6.37681
21
-3.48302
0
LINE
8
BLACK
6
CONTINUOUS
10
6.37681
20
-3.48302
11
6.37681
21
-3.453
0
LINE
8
BLACK
6
CONTINUOUS
10
6.37681
20
-3.453
11
6.37747
21
-3.4497
0
LINE
8
BLACK
6
CONTINUOUS
10
6.37747
20
-3.4497
11
6.37933
21
-3.44691
0
LINE
8
BLACK
6
CONTINUOUS
10
6.37933
20
-3.44691
11
6.38213
21
-3.44504
0
LINE
8
BLACK
6
CONTINUOUS
10
6.38213
20
-3.44504
11
6.38542
21
-3.44439
0
LINE
8
BLACK
6
CONTINUOUS
10
6.38542
20
-3.44439
11
6.40265
21
-3.44439
0
LINE
8
BLACK
6
CONTINUOUS
10
6.40265
20
-3.44439
11
6.40594
21
-3.44504
0
LINE
8
BLACK
6
CONTINUOUS
10
6.47441
20
-3.43421
11
6.47761
21
-3.43635
0
LINE
8
BLACK
6
CONTINUOUS
10
6.47761
20
-3.43635
11
6.47974
21
-3.43954
0
LINE
8
BLACK
6
CONTINUOUS
10
6.47974
20
-3.43954
11
6.48049
21
-3.44331
0
LINE
8
BLACK
6
CONTINUOUS
10
6.48049
20
-3.44331
11
6.48049
21
-3.48071
0
LINE
8
BLACK
6
CONTINUOUS
10
6.48049
20
-3.48071
11
6.47974
21
-3.48448
0
LINE
8
BLACK
6
CONTINUOUS
10
6.47974
20
-3.48448
11
6.47761
21
-3.48767
0
LINE
8
BLACK
6
CONTINUOUS
10
6.47761
20
-3.48767
11
6.47441
21
-3.4898
0
LINE
8
BLACK
6
CONTINUOUS
10
6.47441
20
-3.4898
11
6.47065
21
-3.49055
0
LINE
8
BLACK
6
CONTINUOUS
10
6.47065
20
-3.49055
11
6.45096
21
-3.49055
0
LINE
8
BLACK
6
CONTINUOUS
10
6.45096
20
-3.49055
11
6.44719
21
-3.4898
0
LINE
8
BLACK
6
CONTINUOUS
10
6.44719
20
-3.4898
11
6.444
21
-3.48767
0
LINE
8
BLACK
6
CONTINUOUS
10
6.444
20
-3.48767
11
6.44187
21
-3.48448
0
LINE
8
BLACK
6
CONTINUOUS
10
6.44187
20
-3.48448
11
6.44112
21
-3.48071
0
LINE
8
BLACK
6
CONTINUOUS
10
6.44112
20
-3.48071
11
6.44112
21
-3.44331
0
LINE
8
BLACK
6
CONTINUOUS
10
6.44112
20
-3.44331
11
6.44187
21
-3.43954
0
LINE
8
BLACK
6
CONTINUOUS
10
6.44187
20
-3.43954
11
6.444
21
-3.43635
0
LINE
8
BLACK
6
CONTINUOUS
10
6.444
20
-3.43635
11
6.44719
21
-3.43421
0
LINE
8
BLACK
6
CONTINUOUS
10
6.44719
20
-3.43421
11
6.45096
21
-3.43346
0
LINE
8
BLACK
6
CONTINUOUS
10
6.45096
20
-3.43346
11
6.47065
21
-3.43346
0
LINE
8
BLACK
6
CONTINUOUS
10
6.47065
20
-3.43346
11
6.47441
21
-3.43421
0
LINE
8
BLACK
6
CONTINUOUS
10
6.54922
20
-3.43421
11
6.55241
21
-3.43635
0
LINE
8
BLACK
6
CONTINUOUS
10
6.55241
20
-3.43635
11
6.55454
21
-3.43954
0
LINE
8
BLACK
6
CONTINUOUS
10
6.55454
20
-3.43954
11
6.55529
21
-3.44331
0
LINE
8
BLACK
6
CONTINUOUS
10
6.55529
20
-3.44331
11
6.55529
21
-3.48071
0
LINE
8
BLACK
6
CONTINUOUS
10
6.55529
20
-3.48071
11
6.55454
21
-3.48448
0
LINE
8
BLACK
6
CONTINUOUS
10
6.55454
20
-3.48448
11
6.55241
21
-3.48767
0
LINE
8
BLACK
6
CONTINUOUS
10
6.55241
20
-3.48767
11
6.54922
21
-3.4898
0
LINE
8
BLACK
6
CONTINUOUS
10
6.54922
20
-3.4898
11
6.54545
21
-3.49055
0
LINE
8
BLACK
6
CONTINUOUS
10
6.54545
20
-3.49055
11
6.52576
21
-3.49055
0
LINE
8
BLACK
6
CONTINUOUS
10
6.52576
20
-3.49055
11
6.522
21
-3.4898
0
LINE
8
BLACK
6
CONTINUOUS
10
6.522
20
-3.4898
11
6.5188
21
-3.48767
0
LINE
8
BLACK
6
CONTINUOUS
10
6.5188
20
-3.48767
11
6.51667
21
-3.48448
0
LINE
8
BLACK
6
CONTINUOUS
10
6.51667
20
-3.48448
11
6.51592
21
-3.48071
0
LINE
8
BLACK
6
CONTINUOUS
10
6.51592
20
-3.48071
11
6.51592
21
-3.44331
0
LINE
8
BLACK
6
CONTINUOUS
10
6.51592
20
-3.44331
11
6.51667
21
-3.43954
0
LINE
8
BLACK
6
CONTINUOUS
10
6.51667
20
-3.43954
11
6.5188
21
-3.43635
0
LINE
8
BLACK
6
CONTINUOUS
10
6.5188
20
-3.43635
11
6.522
21
-3.43421
0
LINE
8
BLACK
6
CONTINUOUS
10
6.522
20
-3.43421
11
6.52576
21
-3.43346
0
LINE
8
BLACK
6
CONTINUOUS
10
6.52576
20
-3.43346
11
6.54545
21
-3.43346
0
LINE
8
BLACK
6
CONTINUOUS
10
6.54545
20
-3.43346
11
6.54922
21
-3.43421
0
LINE
8
BLACK
6
CONTINUOUS
10
6.18267
20
-3.45167
11
6.18587
21
-3.4538
0
LINE
8
BLACK
6
CONTINUOUS
10
6.18587
20
-3.4538
11
6.188
21
-3.457
0
LINE
8
BLACK
6
CONTINUOUS
10
6.188
20
-3.457
11
6.18875
21
-3.46076
0
LINE
8
BLACK
6
CONTINUOUS
10
6.18875
20
-3.46076
11
6.18875
21
-3.48045
0
LINE
8
BLACK
6
CONTINUOUS
10
6.18875
20
-3.48045
11
6.188
21
-3.48422
0
LINE
8
BLACK
6
CONTINUOUS
10
6.188
20
-3.48422
11
6.18587
21
-3.48741
0
LINE
8
BLACK
6
CONTINUOUS
10
6.18587
20
-3.48741
11
6.18267
21
-3.48954
0
LINE
8
BLACK
6
CONTINUOUS
10
6.18267
20
-3.48954
11
6.17891
21
-3.49029
0
LINE
8
BLACK
6
CONTINUOUS
10
6.17891
20
-3.49029
11
6.1415
21
-3.49029
0
LINE
8
BLACK
6
CONTINUOUS
10
6.1415
20
-3.49029
11
6.13774
21
-3.48954
0
LINE
8
BLACK
6
CONTINUOUS
10
6.13774
20
-3.48954
11
6.13454
21
-3.48741
0
LINE
8
BLACK
6
CONTINUOUS
10
6.13454
20
-3.48741
11
6.13241
21
-3.48422
0
LINE
8
BLACK
6
CONTINUOUS
10
6.13241
20
-3.48422
11
6.13166
21
-3.48045
0
LINE
8
BLACK
6
CONTINUOUS
10
6.13166
20
-3.48045
11
6.13166
21
-3.46076
0
LINE
8
BLACK
6
CONTINUOUS
10
6.13166
20
-3.46076
11
6.13241
21
-3.457
0
LINE
8
BLACK
6
CONTINUOUS
10
6.13241
20
-3.457
11
6.13454
21
-3.4538
0
LINE
8
BLACK
6
CONTINUOUS
10
6.13454
20
-3.4538
11
6.13774
21
-3.45167
0
LINE
8
BLACK
6
CONTINUOUS
10
6.13774
20
-3.45167
11
6.1415
21
-3.45092
0
LINE
8
BLACK
6
CONTINUOUS
10
6.1415
20
-3.45092
11
6.17891
21
-3.45092
0
LINE
8
BLACK
6
CONTINUOUS
10
6.17891
20
-3.45092
11
6.18267
21
-3.45167
0
LINE
8
BLACK
6
CONTINUOUS
10
6.01867
20
-3.45084
11
6.02187
21
-3.45297
0
LINE
8
BLACK
6
CONTINUOUS
10
6.02187
20
-3.45297
11
6.024
21
-3.45617
0
LINE
8
BLACK
6
CONTINUOUS
10
6.024
20
-3.45617
11
6.02475
21
-3.45993
0
LINE
8
BLACK
6
CONTINUOUS
10
6.02475
20
-3.45993
11
6.02475
21
-3.47962
0
LINE
8
BLACK
6
CONTINUOUS
10
6.02475
20
-3.47962
11
6.024
21
-3.48338
0
LINE
8
BLACK
6
CONTINUOUS
10
6.024
20
-3.48338
11
6.02187
21
-3.48658
0
LINE
8
BLACK
6
CONTINUOUS
10
6.02187
20
-3.48658
11
6.01867
21
-3.48871
0
LINE
8
BLACK
6
CONTINUOUS
10
6.01867
20
-3.48871
11
6.01491
21
-3.48946
0
LINE
8
BLACK
6
CONTINUOUS
10
6.01491
20
-3.48946
11
5.9775
21
-3.48946
0
LINE
8
BLACK
6
CONTINUOUS
10
5.9775
20
-3.48946
11
5.97374
21
-3.48871
0
LINE
8
BLACK
6
CONTINUOUS
10
5.97374
20
-3.48871
11
5.97054
21
-3.48658
0
LINE
8
BLACK
6
CONTINUOUS
10
5.97054
20
-3.48658
11
5.96841
21
-3.48338
0
LINE
8
BLACK
6
CONTINUOUS
10
5.96841
20
-3.48338
11
5.96766
21
-3.47962
0
LINE
8
BLACK
6
CONTINUOUS
10
5.96766
20
-3.47962
11
5.96766
21
-3.45993
0
LINE
8
BLACK
6
CONTINUOUS
10
5.96766
20
-3.45993
11
5.96841
21
-3.45617
0
LINE
8
BLACK
6
CONTINUOUS
10
5.96841
20
-3.45617
11
5.97054
21
-3.45297
0
LINE
8
BLACK
6
CONTINUOUS
10
5.97054
20
-3.45297
11
5.97374
21
-3.45084
0
LINE
8
BLACK
6
CONTINUOUS
10
5.97374
20
-3.45084
11
5.9775
21
-3.45009
0
LINE
8
BLACK
6
CONTINUOUS
10
5.9775
20
-3.45009
11
6.01491
21
-3.45009
0
LINE
8
BLACK
6
CONTINUOUS
10
6.01491
20
-3.45009
11
6.01867
21
-3.45084
0
LINE
8
BLACK
6
CONTINUOUS
10
5.85367
20
-3.45067
11
5.85687
21
-3.4528
0
LINE
8
BLACK
6
CONTINUOUS
10
5.85687
20
-3.4528
11
5.859
21
-3.456
0
LINE
8
BLACK
6
CONTINUOUS
10
5.859
20
-3.456
11
5.85975
21
-3.45976
0
LINE
8
BLACK
6
CONTINUOUS
10
5.85975
20
-3.45976
11
5.85975
21
-3.47945
0
LINE
8
BLACK
6
CONTINUOUS
10
5.85975
20
-3.47945
11
5.859
21
-3.48322
0
LINE
8
BLACK
6
CONTINUOUS
10
5.859
20
-3.48322
11
5.85687
21
-3.48641
0
LINE
8
BLACK
6
CONTINUOUS
10
5.85687
20
-3.48641
11
5.85367
21
-3.48854
0
LINE
8
BLACK
6
CONTINUOUS
10
5.85367
20
-3.48854
11
5.84991
21
-3.48929
0
LINE
8
BLACK
6
CONTINUOUS
10
5.84991
20
-3.48929
11
5.8125
21
-3.48929
0
LINE
8
BLACK
6
CONTINUOUS
10
5.8125
20
-3.48929
11
5.80874
21
-3.48854
0
LINE
8
BLACK
6
CONTINUOUS
10
5.80874
20
-3.48854
11
5.80554
21
-3.48641
0
LINE
8
BLACK
6
CONTINUOUS
10
5.80554
20
-3.48641
11
5.80341
21
-3.48322
0
LINE
8
BLACK
6
CONTINUOUS
10
5.80341
20
-3.48322
11
5.80266
21
-3.47945
0
LINE
8
BLACK
6
CONTINUOUS
10
5.80266
20
-3.47945
11
5.80266
21
-3.45976
0
LINE
8
BLACK
6
CONTINUOUS
10
5.80266
20
-3.45976
11
5.80341
21
-3.456
0
LINE
8
BLACK
6
CONTINUOUS
10
5.80341
20
-3.456
11
5.80554
21
-3.4528
0
LINE
8
BLACK
6
CONTINUOUS
10
5.80554
20
-3.4528
11
5.80874
21
-3.45067
0
LINE
8
BLACK
6
CONTINUOUS
10
5.80874
20
-3.45067
11
5.8125
21
-3.44992
0
LINE
8
BLACK
6
CONTINUOUS
10
5.8125
20
-3.44992
11
5.84991
21
-3.44992
0
LINE
8
BLACK
6
CONTINUOUS
10
5.84991
20
-3.44992
11
5.85367
21
-3.45067
0
LINE
8
BLACK
6
CONTINUOUS
10
6.25851
20
-3.44961
11
6.2613
21
-3.45148
0
LINE
8
BLACK
6
CONTINUOUS
10
6.2613
20
-3.45148
11
6.26317
21
-3.45427
0
LINE
8
BLACK
6
CONTINUOUS
10
6.26317
20
-3.45427
11
6.26383
21
-3.45756
0
LINE
8
BLACK
6
CONTINUOUS
10
6.26383
20
-3.45756
11
6.26383
21
-3.47479
0
LINE
8
BLACK
6
CONTINUOUS
10
6.26383
20
-3.47479
11
6.26317
21
-3.47809
0
LINE
8
BLACK
6
CONTINUOUS
10
6.26317
20
-3.47809
11
6.2613
21
-3.48088
0
LINE
8
BLACK
6
CONTINUOUS
10
6.2613
20
-3.48088
11
6.25851
21
-3.48275
0
LINE
8
BLACK
6
CONTINUOUS
10
6.25851
20
-3.48275
11
6.25521
21
-3.4834
0
LINE
8
BLACK
6
CONTINUOUS
10
6.25521
20
-3.4834
11
6.22519
21
-3.4834
0
LINE
8
BLACK
6
CONTINUOUS
10
6.22519
20
-3.4834
11
6.2219
21
-3.48275
0
LINE
8
BLACK
6
CONTINUOUS
10
6.2219
20
-3.48275
11
6.21911
21
-3.48088
0
LINE
8
BLACK
6
CONTINUOUS
10
6.21911
20
-3.48088
11
6.21724
21
-3.47809
0
LINE
8
BLACK
6
CONTINUOUS
10
6.21724
20
-3.47809
11
6.21658
21
-3.47479
0
LINE
8
BLACK
6
CONTINUOUS
10
6.21658
20
-3.47479
11
6.21658
21
-3.45756
0
LINE
8
BLACK
6
CONTINUOUS
10
6.21658
20
-3.45756
11
6.21724
21
-3.45427
0
LINE
8
BLACK
6
CONTINUOUS
10
6.21724
20
-3.45427
11
6.21911
21
-3.45148
0
LINE
8
BLACK
6
CONTINUOUS
10
6.21911
20
-3.45148
11
6.2219
21
-3.44961
0
LINE
8
BLACK
6
CONTINUOUS
10
6.2219
20
-3.44961
11
6.22519
21
-3.44895
0
LINE
8
BLACK
6
CONTINUOUS
10
6.22519
20
-3.44895
11
6.25521
21
-3.44895
0
LINE
8
BLACK
6
CONTINUOUS
10
6.25521
20
-3.44895
11
6.25851
21
-3.44961
0
LINE
8
BLACK
6
CONTINUOUS
10
6.09451
20
-3.44878
11
6.0973
21
-3.45064
0
LINE
8
BLACK
6
CONTINUOUS
10
6.0973
20
-3.45064
11
6.09917
21
-3.45344
0
LINE
8
BLACK
6
CONTINUOUS
10
6.09917
20
-3.45344
11
6.09983
21
-3.45673
0
LINE
8
BLACK
6
CONTINUOUS
10
6.09983
20
-3.45673
11
6.09983
21
-3.47396
0
LINE
8
BLACK
6
CONTINUOUS
10
6.09983
20
-3.47396
11
6.09917
21
-3.47725
0
LINE
8
BLACK
6
CONTINUOUS
10
6.09917
20
-3.47725
11
6.0973
21
-3.48005
0
LINE
8
BLACK
6
CONTINUOUS
10
6.0973
20
-3.48005
11
6.09451
21
-3.48192
0
LINE
8
BLACK
6
CONTINUOUS
10
6.09451
20
-3.48192
11
6.09121
21
-3.48257
0
LINE
8
BLACK
6
CONTINUOUS
10
6.09121
20
-3.48257
11
6.06119
21
-3.48257
0
LINE
8
BLACK
6
CONTINUOUS
10
6.06119
20
-3.48257
11
6.0579
21
-3.48192
0
LINE
8
BLACK
6
CONTINUOUS
10
6.0579
20
-3.48192
11
6.05511
21
-3.48005
0
LINE
8
BLACK
6
CONTINUOUS
10
6.05511
20
-3.48005
11
6.05324
21
-3.47725
0
LINE
8
BLACK
6
CONTINUOUS
10
6.05324
20
-3.47725
11
6.05258
21
-3.47396
0
LINE
8
BLACK
6
CONTINUOUS
10
6.05258
20
-3.47396
11
6.05258
21
-3.45673
0
LINE
8
BLACK
6
CONTINUOUS
10
6.05258
20
-3.45673
11
6.05324
21
-3.45344
0
LINE
8
BLACK
6
CONTINUOUS
10
6.05324
20
-3.45344
11
6.05511
21
-3.45064
0
LINE
8
BLACK
6
CONTINUOUS
10
6.05511
20
-3.45064
11
6.0579
21
-3.44878
0
LINE
8
BLACK
6
CONTINUOUS
10
6.0579
20
-3.44878
11
6.06119
21
-3.44812
0
LINE
8
BLACK
6
CONTINUOUS
10
6.06119
20
-3.44812
11
6.09121
21
-3.44812
0
LINE
8
BLACK
6
CONTINUOUS
10
6.09121
20
-3.44812
11
6.09451
21
-3.44878
0
LINE
8
BLACK
6
CONTINUOUS
10
5.92951
20
-3.44861
11
5.9323
21
-3.45048
0
LINE
8
BLACK
6
CONTINUOUS
10
5.9323
20
-3.45048
11
5.93417
21
-3.45327
0
LINE
8
BLACK
6
CONTINUOUS
10
5.93417
20
-3.45327
11
5.93483
21
-3.45656
0
LINE
8
BLACK
6
CONTINUOUS
10
5.93483
20
-3.45656
11
5.93483
21
-3.47379
0
LINE
8
BLACK
6
CONTINUOUS
10
5.93483
20
-3.47379
11
5.93417
21
-3.47709
0
LINE
8
BLACK
6
CONTINUOUS
10
5.93417
20
-3.47709
11
5.9323
21
-3.47988
0
LINE
8
BLACK
6
CONTINUOUS
10
5.9323
20
-3.47988
11
5.92951
21
-3.48175
0
LINE
8
BLACK
6
CONTINUOUS
10
5.92951
20
-3.48175
11
5.92621
21
-3.4824
0
LINE
8
BLACK
6
CONTINUOUS
10
5.92621
20
-3.4824
11
5.89619
21
-3.4824
0
LINE
8
BLACK
6
CONTINUOUS
10
5.89619
20
-3.4824
11
5.8929
21
-3.48175
0
LINE
8
BLACK
6
CONTINUOUS
10
5.8929
20
-3.48175
11
5.89011
21
-3.47988
0
LINE
8
BLACK
6
CONTINUOUS
10
5.89011
20
-3.47988
11
5.88824
21
-3.47709
0
LINE
8
BLACK
6
CONTINUOUS
10
5.88824
20
-3.47709
11
5.88758
21
-3.47379
0
LINE
8
BLACK
6
CONTINUOUS
10
5.88758
20
-3.47379
11
5.88758
21
-3.45656
0
LINE
8
BLACK
6
CONTINUOUS
10
5.88758
20
-3.45656
11
5.88824
21
-3.45327
0
LINE
8
BLACK
6
CONTINUOUS
10
5.88824
20
-3.45327
11
5.89011
21
-3.45048
0
LINE
8
BLACK
6
CONTINUOUS
10
5.89011
20
-3.45048
11
5.8929
21
-3.44861
0
LINE
8
BLACK
6
CONTINUOUS
10
5.8929
20
-3.44861
11
5.89619
21
-3.44795
0
LINE
8
BLACK
6
CONTINUOUS
10
5.89619
20
-3.44795
11
5.92621
21
-3.44795
0
LINE
8
BLACK
6
CONTINUOUS
10
5.92621
20
-3.44795
11
5.92951
21
-3.44861
0
LINE
8
BLACK
6
CONTINUOUS
10
5.92328
20
-3.37304
11
5.92608
21
-3.37491
0
LINE
8
BLACK
6
CONTINUOUS
10
5.92608
20
-3.37491
11
5.92794
21
-3.3777
0
LINE
8
BLACK
6
CONTINUOUS
10
5.92794
20
-3.3777
11
5.9286
21
-3.381
0
LINE
8
BLACK
6
CONTINUOUS
10
5.9286
20
-3.381
11
5.9286
21
-3.41102
0
LINE
8
BLACK
6
CONTINUOUS
10
5.9286
20
-3.41102
11
5.92794
21
-3.41431
0
LINE
8
BLACK
6
CONTINUOUS
10
5.92794
20
-3.41431
11
5.92608
21
-3.41711
0
LINE
8
BLACK
6
CONTINUOUS
10
5.92608
20
-3.41711
11
5.92328
21
-3.41897
0
LINE
8
BLACK
6
CONTINUOUS
10
5.92328
20
-3.41897
11
5.91999
21
-3.41963
0
LINE
8
BLACK
6
CONTINUOUS
10
5.91999
20
-3.41963
11
5.90276
21
-3.41963
0
LINE
8
BLACK
6
CONTINUOUS
10
5.90276
20
-3.41963
11
5.89947
21
-3.41897
0
LINE
8
BLACK
6
CONTINUOUS
10
5.89947
20
-3.41897
11
5.89667
21
-3.41711
0
LINE
8
BLACK
6
CONTINUOUS
10
5.89667
20
-3.41711
11
5.89481
21
-3.41431
0
LINE
8
BLACK
6
CONTINUOUS
10
5.89481
20
-3.41431
11
5.89415
21
-3.41102
0
LINE
8
BLACK
6
CONTINUOUS
10
5.89415
20
-3.41102
11
5.89415
21
-3.381
0
LINE
8
BLACK
6
CONTINUOUS
10
5.89415
20
-3.381
11
5.89481
21
-3.3777
0
LINE
8
BLACK
6
CONTINUOUS
10
5.89481
20
-3.3777
11
5.89667
21
-3.37491
0
LINE
8
BLACK
6
CONTINUOUS
10
5.89667
20
-3.37491
11
5.89947
21
-3.37304
0
LINE
8
BLACK
6
CONTINUOUS
10
5.89947
20
-3.37304
11
5.90276
21
-3.37239
0
LINE
8
BLACK
6
CONTINUOUS
10
5.90276
20
-3.37239
11
5.91999
21
-3.37239
0
LINE
8
BLACK
6
CONTINUOUS
10
5.91999
20
-3.37239
11
5.92328
21
-3.37304
0
LINE
8
BLACK
6
CONTINUOUS
10
6.00694
20
-3.37304
11
6.00974
21
-3.37491
0
LINE
8
BLACK
6
CONTINUOUS
10
6.00974
20
-3.37491
11
6.0116
21
-3.3777
0
LINE
8
BLACK
6
CONTINUOUS
10
6.0116
20
-3.3777
11
6.01226
21
-3.381
0
LINE
8
BLACK
6
CONTINUOUS
10
6.01226
20
-3.381
11
6.01226
21
-3.41102
0
LINE
8
BLACK
6
CONTINUOUS
10
6.01226
20
-3.41102
11
6.0116
21
-3.41431
0
LINE
8
BLACK
6
CONTINUOUS
10
6.0116
20
-3.41431
11
6.00974
21
-3.41711
0
LINE
8
BLACK
6
CONTINUOUS
10
6.00974
20
-3.41711
11
6.00694
21
-3.41897
0
LINE
8
BLACK
6
CONTINUOUS
10
6.00694
20
-3.41897
11
6.00365
21
-3.41963
0
LINE
8
BLACK
6
CONTINUOUS
10
6.00365
20
-3.41963
11
5.98642
21
-3.41963
0
LINE
8
BLACK
6
CONTINUOUS
10
5.98642
20
-3.41963
11
5.98313
21
-3.41897
0
LINE
8
BLACK
6
CONTINUOUS
10
5.98313
20
-3.41897
11
5.98033
21
-3.41711
0
LINE
8
BLACK
6
CONTINUOUS
10
5.98033
20
-3.41711
11
5.97847
21
-3.41431
0
LINE
8
BLACK
6
CONTINUOUS
10
5.97847
20
-3.41431
11
5.97781
21
-3.41102
0
LINE
8
BLACK
6
CONTINUOUS
10
5.97781
20
-3.41102
11
5.97781
21
-3.381
0
LINE
8
BLACK
6
CONTINUOUS
10
5.97781
20
-3.381
11
5.97847
21
-3.3777
0
LINE
8
BLACK
6
CONTINUOUS
10
5.97847
20
-3.3777
11
5.98033
21
-3.37491
0
LINE
8
BLACK
6
CONTINUOUS
10
5.98033
20
-3.37491
11
5.98313
21
-3.37304
0
LINE
8
BLACK
6
CONTINUOUS
10
5.98313
20
-3.37304
11
5.98642
21
-3.37239
0
LINE
8
BLACK
6
CONTINUOUS
10
5.98642
20
-3.37239
11
6.00365
21
-3.37239
0
LINE
8
BLACK
6
CONTINUOUS
10
6.00365
20
-3.37239
11
6.00694
21
-3.37304
0
LINE
8
BLACK
6
CONTINUOUS
10
6.08828
20
-3.37304
11
6.09108
21
-3.37491
0
LINE
8
BLACK
6
CONTINUOUS
10
6.09108
20
-3.37491
11
6.09294
21
-3.3777
0
LINE
8
BLACK
6
CONTINUOUS
10
6.09294
20
-3.3777
11
6.0936
21
-3.381
0
LINE
8
BLACK
6
CONTINUOUS
10
6.0936
20
-3.381
11
6.0936
21
-3.41102
0
LINE
8
BLACK
6
CONTINUOUS
10
6.0936
20
-3.41102
11
6.09294
21
-3.41431
0
LINE
8
BLACK
6
CONTINUOUS
10
6.09294
20
-3.41431
11
6.09108
21
-3.41711
0
LINE
8
BLACK
6
CONTINUOUS
10
6.09108
20
-3.41711
11
6.08828
21
-3.41897
0
LINE
8
BLACK
6
CONTINUOUS
10
6.08828
20
-3.41897
11
6.08499
21
-3.41963
0
LINE
8
BLACK
6
CONTINUOUS
10
6.08499
20
-3.41963
11
6.06776
21
-3.41963
0
LINE
8
BLACK
6
CONTINUOUS
10
6.06776
20
-3.41963
11
6.06447
21
-3.41897
0
LINE
8
BLACK
6
CONTINUOUS
10
6.06447
20
-3.41897
11
6.06167
21
-3.41711
0
LINE
8
BLACK
6
CONTINUOUS
10
6.06167
20
-3.41711
11
6.05981
21
-3.41431
0
LINE
8
BLACK
6
CONTINUOUS
10
6.05981
20
-3.41431
11
6.05915
21
-3.41102
0
LINE
8
BLACK
6
CONTINUOUS
10
6.05915
20
-3.41102
11
6.05915
21
-3.381
0
LINE
8
BLACK
6
CONTINUOUS
10
6.05915
20
-3.381
11
6.05981
21
-3.3777
0
LINE
8
BLACK
6
CONTINUOUS
10
6.05981
20
-3.3777
11
6.06167
21
-3.37491
0
LINE
8
BLACK
6
CONTINUOUS
10
6.06167
20
-3.37491
11
6.06447
21
-3.37304
0
LINE
8
BLACK
6
CONTINUOUS
10
6.06447
20
-3.37304
11
6.06776
21
-3.37239
0
LINE
8
BLACK
6
CONTINUOUS
10
6.06776
20
-3.37239
11
6.08499
21
-3.37239
0
LINE
8
BLACK
6
CONTINUOUS
10
6.08499
20
-3.37239
11
6.08828
21
-3.37304
0
LINE
8
BLACK
6
CONTINUOUS
10
6.17194
20
-3.37304
11
6.17474
21
-3.37491
0
LINE
8
BLACK
6
CONTINUOUS
10
6.17474
20
-3.37491
11
6.1766
21
-3.3777
0
LINE
8
BLACK
6
CONTINUOUS
10
6.1766
20
-3.3777
11
6.17726
21
-3.381
0
LINE
8
BLACK
6
CONTINUOUS
10
6.17726
20
-3.381
11
6.17726
21
-3.41102
0
LINE
8
BLACK
6
CONTINUOUS
10
6.17726
20
-3.41102
11
6.1766
21
-3.41431
0
LINE
8
BLACK
6
CONTINUOUS
10
6.1766
20
-3.41431
11
6.17474
21
-3.41711
0
LINE
8
BLACK
6
CONTINUOUS
10
6.17474
20
-3.41711
11
6.17194
21
-3.41897
0
LINE
8
BLACK
6
CONTINUOUS
10
6.17194
20
-3.41897
11
6.16865
21
-3.41963
0
LINE
8
BLACK
6
CONTINUOUS
10
6.16865
20
-3.41963
11
6.15142
21
-3.41963
0
LINE
8
BLACK
6
CONTINUOUS
10
6.15142
20
-3.41963
11
6.14813
21
-3.41897
0
LINE
8
BLACK
6
CONTINUOUS
10
6.14813
20
-3.41897
11
6.14533
21
-3.41711
0
LINE
8
BLACK
6
CONTINUOUS
10
6.14533
20
-3.41711
11
6.14347
21
-3.41431
0
LINE
8
BLACK
6
CONTINUOUS
10
6.14347
20
-3.41431
11
6.14281
21
-3.41102
0
LINE
8
BLACK
6
CONTINUOUS
10
6.14281
20
-3.41102
11
6.14281
21
-3.381
0
LINE
8
BLACK
6
CONTINUOUS
10
6.14281
20
-3.381
11
6.14347
21
-3.3777
0
LINE
8
BLACK
6
CONTINUOUS
10
6.14347
20
-3.3777
11
6.14533
21
-3.37491
0
LINE
8
BLACK
6
CONTINUOUS
10
6.14533
20
-3.37491
11
6.14813
21
-3.37304
0
LINE
8
BLACK
6
CONTINUOUS
10
6.14813
20
-3.37304
11
6.15142
21
-3.37239
0
LINE
8
BLACK
6
CONTINUOUS
10
6.15142
20
-3.37239
11
6.16865
21
-3.37239
0
LINE
8
BLACK
6
CONTINUOUS
10
6.16865
20
-3.37239
11
6.17194
21
-3.37304
  0
ENDSEC
  0
EOF
