<?xml version='1.0' encoding='ASCII' standalone='yes'?>
<svg xmlns:svg="http://www.w3.org/2000/svg" xmlns="http://www.w3.org/2000/svg" xmlns:xlink="http://www.w3.org/1999/xlink" version="1.1" width="297.0022mm" height="210.0072mm" viewBox="0.0000 0.0000 297.0022 210.0072">
<title>SVG Image created as BP02-F_Fab.svg date 2023/07/21 08:53:15 </title>
  <desc>Image generated by PCBNEW </desc>
<g style="fill:#848484; fill-opacity:1.0000;stroke:#848484; stroke-opacity:1.0000; stroke-linecap:round; stroke-linejoin:round;" transform="translate(0 0) scale(1 1)">
</g>
<g style="fill:#848484; fill-opacity:0.0;  stroke:#848484; stroke-width:0.0000; stroke-opacity:1;  stroke-linecap:round; stroke-linejoin:round;">
</g>
<g style="fill:#848484; fill-opacity:0.0;  stroke:#848484; stroke-width:0.7363; stroke-opacity:1;  stroke-linecap:round; stroke-linejoin:round;">
<g transform="rotate(-90.000000 31.7943 104.2555)">
<text x="31.7943" y="106.7099" textLength="9.2744" font-size="6.5452" lengthAdjust="spacingAndGlyphs" text-anchor="middle" opacity="0.01" style="font-family:monospace">J1</text>
</g>
<g class="stroked-text"><desc>J1</desc>
<path d="M29.1180 105.8918 L32.6244 105.8918 "/>
<path d="M32.6244 105.8918 L33.3257 106.1255 "/>
<path d="M33.3257 106.1255 L33.7932 106.5931 "/>
<path d="M33.7932 106.5931 L34.0269 107.2943 "/>
<path d="M34.0269 107.2943 L34.0269 107.7619 "/>
<path d="M34.0269 100.9829 L34.0269 103.7880 "/>
<path d="M34.0269 102.3854 L29.1180 102.3854 "/>
<path d="M29.1180 102.3854 L29.8193 102.8529 "/>
<path d="M29.8193 102.8529 L30.2868 103.3204 "/>
<path d="M30.2868 103.3204 L30.5206 103.7880 "/>
</g><g transform="rotate(-90.000000 247.6271 106.1258)">
<text x="247.6271" y="108.5802" textLength="9.2744" font-size="6.5452" lengthAdjust="spacingAndGlyphs" text-anchor="middle" opacity="0.01" style="font-family:monospace">J2</text>
</g>
<g class="stroked-text"><desc>J2</desc>
<path d="M244.9508 107.7621 L248.4572 107.7621 "/>
<path d="M248.4572 107.7621 L249.1585 107.9958 "/>
<path d="M249.1585 107.9958 L249.6260 108.4634 "/>
<path d="M249.6260 108.4634 L249.8598 109.1646 "/>
<path d="M249.8598 109.1646 L249.8598 109.6322 "/>
<path d="M245.4184 105.6583 L245.1846 105.4245 "/>
<path d="M245.1846 105.4245 L244.9508 104.9570 "/>
<path d="M244.9508 104.9570 L244.9508 103.7882 "/>
<path d="M244.9508 103.7882 L245.1846 103.3207 "/>
<path d="M245.1846 103.3207 L245.4184 103.0869 "/>
<path d="M245.4184 103.0869 L245.8859 102.8532 "/>
<path d="M245.8859 102.8532 L246.3534 102.8532 "/>
<path d="M246.3534 102.8532 L247.0547 103.0869 "/>
<path d="M247.0547 103.0869 L249.8598 105.8920 "/>
<path d="M249.8598 105.8920 L249.8598 102.8532 "/>
</g></g>
<g style="fill:#848484; fill-opacity:0.0;  stroke:#848484; stroke-width:1.8703; stroke-opacity:1;  stroke-linecap:round; stroke-linejoin:round;">
<circle cx="23.8143" cy="30.1915" r="14.7255"/> 
<circle cx="273.1879" cy="179.8157" r="14.7255"/> 
</g>
<g style="fill:#848484; fill-opacity:0.0;  stroke:#848484; stroke-width:0.4909; stroke-opacity:1;  stroke-linecap:round; stroke-linejoin:round;">
<path d="M27.2751 146.6411 L52.8359 146.6411 "/>
<path d="M52.8359 146.6411 L52.8359 64.3479 "/>
<path d="M27.2751 64.3479 L27.2751 146.6411 "/>
<path d="M52.8359 64.3479 L27.2751 64.3479 "/>
<path d="M243.1452 146.6411 L268.7060 146.6411 "/>
<path d="M268.7060 146.6411 L268.7060 64.3479 "/>
<path d="M243.1452 64.3479 L243.1452 146.6411 "/>
<path d="M268.7060 64.3479 L243.1452 64.3479 "/>
</g>
<g style="fill:#848484; fill-opacity:0.0;  stroke:#848484; stroke-width:1.8703; stroke-opacity:1;  stroke-linecap:round; stroke-linejoin:round;">
<circle cx="23.8143" cy="179.8157" r="14.7255"/> 
<circle cx="273.1879" cy="30.1915" r="14.7255"/> 
<g>
</g>
<g>
</g>
<g>
</g>
<g>
</g>
<g>
</g>
<g>
</g>
<g>
</g>
<g>
</g>
<g>
</g>
<g>
</g>
<g>
</g>
<g>
</g>
<g>
</g>
<g>
</g>
<g>
</g>
<g>
</g>
<g>
</g>
<g>
</g>
<g>
</g>
<g>
</g>
<g>
</g>
<g>
</g>
<g>
</g>
<g>
</g>
<g>
</g>
<g>
</g>
<g>
</g>
<g>
</g>
<g>
</g>
<g>
</g>
<g>
</g>
<g>
</g>
<g>
</g>
<g>
</g>
<g>
</g>
<g>
</g>
<g>
</g>
<g>
</g>
<g>
</g>
<g>
</g>
<g>
</g>
</g> 
<svg:g><svg:g><svg:title>SVG Image created as BP02-Edge_Cuts.svg date 2023/07/21 08:53:15 </svg:title>
  <svg:desc>Image generated by PCBNEW </svg:desc>
<svg:g style="fill:#C2C200; fill-opacity:1.0000;stroke:#C2C200; stroke-opacity:1.0000; stroke-linecap:round; stroke-linejoin:round;" transform="translate(0 0) scale(1 1)">
</svg:g>
<svg:g style="fill:#C2C200; fill-opacity:0.0;  stroke:#C2C200; stroke-width:0.0000; stroke-opacity:1;  stroke-linecap:round; stroke-linejoin:round;">
</svg:g>
<svg:g style="fill:#C2C200; fill-opacity:0.0;  stroke:#C2C200; stroke-width:0.2454; stroke-opacity:1;  stroke-linecap:round; stroke-linejoin:round;">
<svg:path style="fill:#C2C200; fill-opacity:0.0;  stroke:#C2C200; stroke-width:0.2454; stroke-opacity:1;  stroke-linecap:round; stroke-linejoin:round;fill:none" d="M 0.1238,6.5010 296.8784,6.5010 296.8784,203.5062 0.1238,203.5062 Z"/> 
<svg:g>
</svg:g>
<svg:g>
</svg:g>
<svg:g>
</svg:g>
<svg:g>
</svg:g>
<svg:g>
</svg:g>
<svg:g>
</svg:g>
<svg:g>
</svg:g>
<svg:g>
</svg:g>
<svg:g>
</svg:g>
<svg:g>
</svg:g>
<svg:g>
</svg:g>
<svg:g>
</svg:g>
<svg:g>
</svg:g>
<svg:g>
</svg:g>
<svg:g>
</svg:g>
<svg:g>
</svg:g>
<svg:g>
</svg:g>
<svg:g>
</svg:g>
<svg:g>
</svg:g>
<svg:g>
</svg:g>
<svg:g>
</svg:g>
<svg:g>
</svg:g>
<svg:g>
</svg:g>
<svg:g>
</svg:g>
<svg:g>
</svg:g>
<svg:g>
</svg:g>
<svg:g>
</svg:g>
<svg:g>
</svg:g>
<svg:g>
</svg:g>
<svg:g>
</svg:g>
<svg:g>
</svg:g>
<svg:g>
</svg:g>
<svg:g>
</svg:g>
<svg:g>
</svg:g>
<svg:g>
</svg:g>
<svg:g>
</svg:g>
<svg:g>
</svg:g>
<svg:g>
</svg:g>
<svg:g>
</svg:g>
<svg:g>
</svg:g>
<svg:g>
</svg:g>
</svg:g> 
</svg:g></svg:g></svg>
