<?xml version='1.0' encoding='ASCII' standalone='yes'?>
<svg xmlns:svg="http://www.w3.org/2000/svg" xmlns="http://www.w3.org/2000/svg" xmlns:xlink="http://www.w3.org/1999/xlink" version="1.1" width="29.700220cm" height="21.000720cm" viewBox="0 0 2970022 2100072">
<title>SVG Picture created as BP02-B_Fab.svg date 2023/07/05 12:38:14 </title>
  <desc>Picture generated by PCBNEW </desc>
<g style="fill:#000084; fill-opacity:1.000000;stroke:#000084; stroke-opacity:1.000000; stroke-linecap:round; stroke-linejoin:round;" transform="translate(0 0) scale(1 1)">
</g>
<g style="fill:#000084; fill-opacity:0.0;  stroke:#000084; stroke-width:0.000000; stroke-opacity:1;  stroke-linecap:round; stroke-linejoin:round;">
</g>
<g style="fill:#000084; fill-opacity:0.01;  stroke:#000084; stroke-width:7363.392946; stroke-opacity:1;  stroke-linecap:round; stroke-linejoin:round;">
<text x="1421420.734521" y="1512231.250702" transform="scale(-1 1) translate(-2842841.469042 0)" textLength="189344.347955" font-size="65452.365376" lengthAdjust="spacingAndGlyphs" text-anchor="middle" opacity="0.01" style="font-family:monospace">39nH</text>
<g class="stroked-text"><desc>39nH</desc>
<path d="M1509080 1460804 L1478691 1460804 L1495054 1479505 L1488041 1479505 L1483366 1481842 L1481029 1484180 L1478691 1488855 L1478691 1500543 L1481029 1505218 L1483366 1507556 L1488041 1509893 L1502067 1509893 L1506742 1507556 L1509080 1505218 "/>
<path d="M1455315 1509893 L1445965 1509893 L1441290 1507556 L1438952 1505218 L1434277 1498205 L1431939 1488855 L1431939 1470154 L1434277 1465479 L1436614 1463141 L1441290 1460804 L1450640 1460804 L1455315 1463141 L1457653 1465479 L1459990 1470154 L1459990 1481842 L1457653 1486517 L1455315 1488855 L1450640 1491193 L1441290 1491193 L1436614 1488855 L1434277 1486517 L1431939 1481842 "/>
<path d="M1410901 1477167 L1410901 1509893 "/>
<path d="M1410901 1481842 L1408564 1479505 L1403888 1477167 L1396876 1477167 L1392200 1479505 L1389863 1484180 L1389863 1509893 "/>
<path d="M1366487 1509893 L1366487 1460804 "/>
<path d="M1366487 1484180 L1338436 1484180 "/>
<path d="M1338436 1509893 L1338436 1460804 "/>
</g></g>
<g style="fill:#000084; fill-opacity:0.01;  stroke:#000084; stroke-width:3927.142904; stroke-opacity:1;  stroke-linecap:round; stroke-linejoin:round;">
<text x="1422667.602393" y="1326644.294899" transform="scale(-1 1) translate(-2845335.204787 0)" textLength="57048.770454" font-size="32726.158144" lengthAdjust="spacingAndGlyphs" text-anchor="middle" opacity="0.01" style="font-family:monospace">L10</text>
<g class="stroked-text"><desc>L10</desc>
<path d="M1438446 1325475 L1450134 1325475 L1450134 1300930 "/>
<path d="M1417408 1325475 L1431433 1325475 "/>
<path d="M1424420 1325475 L1424420 1300930 L1426758 1304437 L1429095 1306774 L1431433 1307943 "/>
<path d="M1402213 1300930 L1399876 1300930 L1397538 1302099 L1396369 1303268 L1395200 1305606 L1394032 1310281 L1394032 1316125 L1395200 1320800 L1396369 1323137 L1397538 1324306 L1399876 1325475 L1402213 1325475 L1404551 1324306 L1405720 1323137 L1406888 1320800 L1408057 1316125 L1408057 1310281 L1406888 1305606 L1405720 1303268 L1404551 1302099 L1402213 1300930 "/>
</g></g>
<g style="fill:#000084; fill-opacity:0.0;  stroke:#000084; stroke-width:7363.392946; stroke-opacity:1;  stroke-linecap:round; stroke-linejoin:round;">
<g transform="rotate(-90.000000 1174540.895838 723356.601931)">
<text x="1174540.895838" y="747901.245083" transform="scale(-1 1) translate(-2349081.791676 0)" textLength="174888.780371" font-size="65452.365376" lengthAdjust="spacingAndGlyphs" text-anchor="middle" opacity="0.01" style="font-family:monospace">18pF</text>
</g>
<g class="stroked-text"><desc>18pF</desc>
<path d="M1196747 670760 L1196747 642709 "/>
<path d="M1196747 656735 L1147658 656735 L1154671 652060 L1159346 647385 L1161684 642709 "/>
<path d="M1168696 698811 L1166359 694136 L1164021 691799 L1159346 689461 L1157009 689461 L1152333 691799 L1149996 694136 L1147658 698811 L1147658 708162 L1149996 712837 L1152333 715175 L1157009 717512 L1159346 717512 L1164021 715175 L1166359 712837 L1168696 708162 L1168696 698811 L1171034 694136 L1173372 691799 L1178047 689461 L1187397 689461 L1192072 691799 L1194410 694136 L1196747 698811 L1196747 708162 L1194410 712837 L1192072 715175 L1187397 717512 L1178047 717512 L1173372 715175 L1171034 712837 L1168696 708162 "/>
<path d="M1164021 738550 L1213111 738550 "/>
<path d="M1166359 738550 L1164021 743226 L1164021 752576 L1166359 757251 L1168696 759589 L1173372 761926 L1187397 761926 L1192072 759589 L1194410 757251 L1196747 752576 L1196747 743226 L1194410 738550 "/>
<path d="M1171034 799328 L1171034 782965 "/>
<path d="M1196747 782965 L1147658 782965 L1147658 806340 "/>
</g></g>
<g style="fill:#000084; fill-opacity:0.0;  stroke:#000084; stroke-width:3927.142904; stroke-opacity:1;  stroke-linecap:round; stroke-linejoin:round;">
<g transform="rotate(-90.000000 1168807.267198 875474.482331)">
<text x="1168807.267198" y="887746.803907" transform="scale(-1 1) translate(-2337614.534396 0)" textLength="38348.059568" font-size="32726.158144" lengthAdjust="spacingAndGlyphs" text-anchor="middle" opacity="0.01" style="font-family:monospace">C5</text>
</g>
<g class="stroked-text"><desc>C5</desc>
<path d="M1177573 871383 L1178741 870214 L1179910 866708 L1179910 864370 L1178741 860864 L1176404 858526 L1174066 857358 L1169391 856189 L1165885 856189 L1161210 857358 L1158872 858526 L1156534 860864 L1155366 864370 L1155366 866708 L1156534 870214 L1157703 871383 "/>
<path d="M1155366 893590 L1155366 881902 L1167054 880734 L1165885 881902 L1164716 884240 L1164716 890084 L1165885 892422 L1167054 893590 L1169391 894759 L1175235 894759 L1177573 893590 L1178741 892422 L1179910 890084 L1179910 884240 L1178741 881902 L1177573 880734 "/>
</g></g>
<g style="fill:#000084; fill-opacity:0.01;  stroke:#000084; stroke-width:7363.392946; stroke-opacity:1;  stroke-linecap:round; stroke-linejoin:round;">
<text x="1022737.186870" y="776962.102575" transform="scale(-1 1) translate(-2045474.373740 0)" textLength="184239.111269" font-size="65452.365376" lengthAdjust="spacingAndGlyphs" text-anchor="middle" opacity="0.01" style="font-family:monospace">27nH</text>
<g class="stroked-text"><desc>27nH</desc>
<path d="M1108059 730210 L1105721 727872 L1101046 725535 L1089358 725535 L1084683 727872 L1082345 730210 L1080007 734885 L1080007 739560 L1082345 746573 L1110396 774624 L1080007 774624 "/>
<path d="M1063644 725535 L1030918 725535 L1051956 774624 "/>
<path d="M1012218 741898 L1012218 774624 "/>
<path d="M1012218 746573 L1009880 744235 L1005205 741898 L998192 741898 L993517 744235 L991179 748911 L991179 774624 "/>
<path d="M967803 774624 L967803 725535 "/>
<path d="M967803 748911 L939752 748911 "/>
<path d="M939752 774624 L939752 725535 "/>
</g></g>
<g style="fill:#000084; fill-opacity:0.01;  stroke:#000084; stroke-width:3927.142904; stroke-opacity:1;  stroke-linecap:round; stroke-linejoin:round;">
<text x="1022737.186870" y="840778.174771" transform="scale(-1 1) translate(-2045474.373740 0)" textLength="33672.894119" font-size="32726.158144" lengthAdjust="spacingAndGlyphs" text-anchor="middle" opacity="0.01" style="font-family:monospace">L1</text>
<g class="stroked-text"><desc>L1</desc>
<path d="M1026827 839609 L1038515 839609 L1038515 815064 "/>
<path d="M1005789 839609 L1019815 839609 "/>
<path d="M1012802 839609 L1012802 815064 L1015140 818571 L1017477 820908 L1019815 822077 "/>
</g></g>
<g style="fill:#000084; fill-opacity:0.01;  stroke:#000084; stroke-width:7363.392946; stroke-opacity:1;  stroke-linecap:round; stroke-linejoin:round;">
<text x="1526658.346501" y="685528.397904" transform="scale(-1 1) translate(-3053316.693002 0)" textLength="184239.111269" font-size="65452.365376" lengthAdjust="spacingAndGlyphs" text-anchor="middle" opacity="0.01" style="font-family:monospace">82nH</text>
<g class="stroked-text"><desc>82nH</desc>
<path d="M1602629 655139 L1607305 652802 L1609642 650464 L1611980 645789 L1611980 643451 L1609642 638776 L1607305 636439 L1602629 634101 L1593279 634101 L1588604 636439 L1586266 638776 L1583929 643451 L1583929 645789 L1586266 650464 L1588604 652802 L1593279 655139 L1602629 655139 L1607305 657477 L1609642 659814 L1611980 664490 L1611980 673840 L1609642 678515 L1607305 680853 L1602629 683190 L1593279 683190 L1588604 680853 L1586266 678515 L1583929 673840 L1583929 664490 L1586266 659814 L1588604 657477 L1593279 655139 "/>
<path d="M1565228 638776 L1562890 636439 L1558215 634101 L1546527 634101 L1541852 636439 L1539515 638776 L1537177 643451 L1537177 648127 L1539515 655139 L1567566 683190 L1537177 683190 "/>
<path d="M1516139 650464 L1516139 683190 "/>
<path d="M1516139 655139 L1513801 652802 L1509126 650464 L1502113 650464 L1497438 652802 L1495100 657477 L1495100 683190 "/>
<path d="M1471725 683190 L1471725 634101 "/>
<path d="M1471725 657477 L1443674 657477 "/>
<path d="M1443674 683190 L1443674 634101 "/>
</g></g>
<g style="fill:#000084; fill-opacity:0.01;  stroke:#000084; stroke-width:3927.142904; stroke-opacity:1;  stroke-linecap:round; stroke-linejoin:round;">
<text x="1526658.346501" y="749344.470100" transform="scale(-1 1) translate(-3053316.693002 0)" textLength="57048.770454" font-size="32726.158144" lengthAdjust="spacingAndGlyphs" text-anchor="middle" opacity="0.01" style="font-family:monospace">L13</text>
<g class="stroked-text"><desc>L13</desc>
<path d="M1542437 748175 L1554124 748175 L1554124 723631 "/>
<path d="M1521398 748175 L1535424 748175 "/>
<path d="M1528411 748175 L1528411 723631 L1530749 727137 L1533086 729475 L1535424 730643 "/>
<path d="M1513217 723631 L1498022 723631 L1506204 732981 L1502698 732981 L1500360 734150 L1499191 735318 L1498022 737656 L1498022 743500 L1499191 745838 L1500360 747006 L1502698 748175 L1509710 748175 L1512048 747006 L1513217 745838 "/>
</g></g>
<g style="fill:#000084; fill-opacity:0.01;  stroke:#000084; stroke-width:7363.392946; stroke-opacity:1;  stroke-linecap:round; stroke-linejoin:round;">
<text x="2019917.313147" y="756629.320188" transform="scale(-1 1) translate(-4039834.626293 0)" textLength="221640.483951" font-size="65452.365376" lengthAdjust="spacingAndGlyphs" text-anchor="middle" opacity="0.01" style="font-family:monospace">100pF</text>
<g class="stroked-text"><desc>100pF</desc>
<path d="M2095888 754291 L2123939 754291 "/>
<path d="M2109914 754291 L2109914 705202 L2114589 712215 L2119264 716890 L2123939 719227 "/>
<path d="M2065500 705202 L2060825 705202 L2056149 707540 L2053812 709877 L2051474 714552 L2049137 723903 L2049137 735591 L2051474 744941 L2053812 749616 L2056149 751954 L2060825 754291 L2065500 754291 L2070175 751954 L2072512 749616 L2074850 744941 L2077188 735591 L2077188 723903 L2074850 714552 L2072512 709877 L2070175 707540 L2065500 705202 "/>
<path d="M2018748 705202 L2014073 705202 L2009398 707540 L2007060 709877 L2004723 714552 L2002385 723903 L2002385 735591 L2004723 744941 L2007060 749616 L2009398 751954 L2014073 754291 L2018748 754291 L2023423 751954 L2025761 749616 L2028098 744941 L2030436 735591 L2030436 723903 L2028098 714552 L2025761 709877 L2023423 707540 L2018748 705202 "/>
<path d="M1981347 721565 L1981347 770654 "/>
<path d="M1981347 723903 L1976671 721565 L1967321 721565 L1962646 723903 L1960308 726240 L1957971 730915 L1957971 744941 L1960308 749616 L1962646 751954 L1967321 754291 L1976671 754291 L1981347 751954 "/>
<path d="M1920569 728578 L1936933 728578 "/>
<path d="M1936933 754291 L1936933 705202 L1913557 705202 "/>
</g></g>
<g style="fill:#000084; fill-opacity:0.01;  stroke:#000084; stroke-width:3927.142904; stroke-opacity:1;  stroke-linecap:round; stroke-linejoin:round;">
<text x="2000468.137913" y="831637.749661" transform="scale(-1 1) translate(-4000936.275826 0)" textLength="61723.935903" font-size="32726.158144" lengthAdjust="spacingAndGlyphs" text-anchor="middle" opacity="0.01" style="font-family:monospace">C12</text>
<g class="stroked-text"><desc>C12</desc>
<path d="M2016246 828131 L2017415 829300 L2020921 830468 L2023259 830468 L2026765 829300 L2029103 826962 L2030272 824625 L2031441 819949 L2031441 816443 L2030272 811768 L2029103 809430 L2026765 807093 L2023259 805924 L2020921 805924 L2017415 807093 L2016246 808261 "/>
<path d="M1992870 830468 L2006896 830468 "/>
<path d="M1999883 830468 L1999883 805924 L2002221 809430 L2004558 811768 L2006896 812937 "/>
<path d="M1983520 808261 L1982351 807093 L1980014 805924 L1974170 805924 L1971832 807093 L1970663 808261 L1969495 810599 L1969495 812937 L1970663 816443 L1984689 830468 L1969495 830468 "/>
</g></g>
<g style="fill:#000084; fill-opacity:0.01;  stroke:#000084; stroke-width:7363.392946; stroke-opacity:1;  stroke-linecap:round; stroke-linejoin:round;">
<text x="1815430.982116" y="770344.866781" transform="scale(-1 1) translate(-3630861.964233 0)" textLength="184239.111269" font-size="65452.365376" lengthAdjust="spacingAndGlyphs" text-anchor="middle" opacity="0.01" style="font-family:monospace">27nH</text>
<g class="stroked-text"><desc>27nH</desc>
<path d="M1900752 723593 L1898415 721255 L1893740 718917 L1882052 718917 L1877376 721255 L1875039 723593 L1872701 728268 L1872701 732943 L1875039 739956 L1903090 768007 L1872701 768007 "/>
<path d="M1856338 718917 L1823612 718917 L1844650 768007 "/>
<path d="M1804911 735281 L1804911 768007 "/>
<path d="M1804911 739956 L1802574 737618 L1797899 735281 L1790886 735281 L1786211 737618 L1783873 742293 L1783873 768007 "/>
<path d="M1760497 768007 L1760497 718917 "/>
<path d="M1760497 742293 L1732446 742293 "/>
<path d="M1732446 768007 L1732446 718917 "/>
</g></g>
<g style="fill:#000084; fill-opacity:0.01;  stroke:#000084; stroke-width:3927.142904; stroke-opacity:1;  stroke-linecap:round; stroke-linejoin:round;">
<text x="1818425.428581" y="839118.956894" transform="scale(-1 1) translate(-3636850.857162 0)" textLength="57048.770454" font-size="32726.158144" lengthAdjust="spacingAndGlyphs" text-anchor="middle" opacity="0.01" style="font-family:monospace">L18</text>
<g class="stroked-text"><desc>L18</desc>
<path d="M1834204 837950 L1845892 837950 L1845892 813405 "/>
<path d="M1813165 837950 L1827191 837950 "/>
<path d="M1820178 837950 L1820178 813405 L1822516 816911 L1824853 819249 L1827191 820418 "/>
<path d="M1799140 823924 L1801477 822755 L1802646 821587 L1803815 819249 L1803815 818080 L1802646 815743 L1801477 814574 L1799140 813405 L1794465 813405 L1792127 814574 L1790958 815743 L1789789 818080 L1789789 819249 L1790958 821587 L1792127 822755 L1794465 823924 L1799140 823924 L1801477 825093 L1802646 826262 L1803815 828599 L1803815 833275 L1802646 835612 L1801477 836781 L1799140 837950 L1794465 837950 L1792127 836781 L1790958 835612 L1789789 833275 L1789789 828599 L1790958 826262 L1792127 825093 L1794465 823924 "/>
</g></g>
<g style="fill:#000084; fill-opacity:0.0;  stroke:#000084; stroke-width:7363.392946; stroke-opacity:1;  stroke-linecap:round; stroke-linejoin:round;">
<g transform="rotate(-90.000000 1187009.574560 1446539.967770)">
<text x="1187009.574560" y="1471084.610922" transform="scale(-1 1) translate(-2374019.149119 0)" textLength="174888.780371" font-size="65452.365376" lengthAdjust="spacingAndGlyphs" text-anchor="middle" opacity="0.01" style="font-family:monospace">33pF</text>
</g>
<g class="stroked-text"><desc>33pF</desc>
<path d="M1160127 1363555 L1160127 1393944 L1178828 1377581 L1178828 1384594 L1181165 1389269 L1183503 1391606 L1188178 1393944 L1199866 1393944 L1204541 1391606 L1206879 1389269 L1209216 1384594 L1209216 1370568 L1206879 1365893 L1204541 1363555 "/>
<path d="M1160127 1410307 L1160127 1440696 L1178828 1424332 L1178828 1431345 L1181165 1436020 L1183503 1438358 L1188178 1440696 L1199866 1440696 L1204541 1438358 L1206879 1436020 L1209216 1431345 L1209216 1417320 L1206879 1412644 L1204541 1410307 "/>
<path d="M1176490 1461734 L1225579 1461734 "/>
<path d="M1178828 1461734 L1176490 1466409 L1176490 1475759 L1178828 1480434 L1181165 1482772 L1185840 1485110 L1199866 1485110 L1204541 1482772 L1206879 1480434 L1209216 1475759 L1209216 1466409 L1206879 1461734 "/>
<path d="M1183503 1522511 L1183503 1506148 "/>
<path d="M1209216 1506148 L1160127 1506148 L1160127 1529524 "/>
</g></g>
<g style="fill:#000084; fill-opacity:0.0;  stroke:#000084; stroke-width:3927.142904; stroke-opacity:1;  stroke-linecap:round; stroke-linejoin:round;">
<g transform="rotate(-90.000000 1183268.970943 1266490.283462)">
<text x="1183268.970943" y="1278762.605038" transform="scale(-1 1) translate(-2366537.941886 0)" textLength="38348.059568" font-size="32726.158144" lengthAdjust="spacingAndGlyphs" text-anchor="middle" opacity="0.01" style="font-family:monospace">C6</text>
</g>
<g class="stroked-text"><desc>C6</desc>
<path d="M1192034 1262399 L1193203 1261230 L1194372 1257724 L1194372 1255386 L1193203 1251880 L1190866 1249542 L1188528 1248374 L1183853 1247205 L1180346 1247205 L1175671 1248374 L1173334 1249542 L1170996 1251880 L1169827 1255386 L1169827 1257724 L1170996 1261230 L1172165 1262399 "/>
<path d="M1169827 1283437 L1169827 1278762 L1170996 1276425 L1172165 1275256 L1175671 1272918 L1180346 1271749 L1189697 1271749 L1192034 1272918 L1193203 1274087 L1194372 1276425 L1194372 1281100 L1193203 1283437 L1192034 1284606 L1189697 1285775 L1183853 1285775 L1181515 1284606 L1180346 1283437 L1179178 1281100 L1179178 1276425 L1180346 1274087 L1181515 1272918 L1183853 1271749 "/>
</g></g>
<g style="fill:#000084; fill-opacity:0.0;  stroke:#000084; stroke-width:7363.392946; stroke-opacity:1;  stroke-linecap:round; stroke-linejoin:round;">
<g transform="rotate(-90.000000 1675781.780437 1456514.910747)">
<text x="1675781.780437" y="1481059.553899" transform="scale(-1 1) translate(-3351563.560874 0)" textLength="207614.938514" font-size="65452.365376" lengthAdjust="spacingAndGlyphs" text-anchor="middle" opacity="0.01" style="font-family:monospace">4.7nH</text>
</g>
<g class="stroked-text"><desc>4.7nH</desc>
<path d="M1665262 1382880 L1697988 1382880 "/>
<path d="M1646561 1371193 L1681625 1359505 L1681625 1389893 "/>
<path d="M1693313 1408594 L1695651 1410932 L1697988 1408594 L1695651 1406256 L1693313 1408594 L1697988 1408594 "/>
<path d="M1648899 1427295 L1648899 1460021 L1697988 1438983 "/>
<path d="M1665262 1478721 L1697988 1478721 "/>
<path d="M1669937 1478721 L1667600 1481059 L1665262 1485734 L1665262 1492747 L1667600 1497422 L1672275 1499760 L1697988 1499760 "/>
<path d="M1697988 1523136 L1648899 1523136 "/>
<path d="M1672275 1523136 L1672275 1551187 "/>
<path d="M1697988 1551187 L1648899 1551187 "/>
</g></g>
<g style="fill:#000084; fill-opacity:0.0;  stroke:#000084; stroke-width:3927.142904; stroke-opacity:1;  stroke-linecap:round; stroke-linejoin:round;">
<g transform="rotate(-90.000000 1669547.441076 1262003.522693)">
<text x="1669547.441076" y="1274275.844270" transform="scale(-1 1) translate(-3339094.882153 0)" textLength="57048.770454" font-size="32726.158144" lengthAdjust="spacingAndGlyphs" text-anchor="middle" opacity="0.01" style="font-family:monospace">L12</text>
</g>
<g class="stroked-text"><desc>L12</desc>
<path d="M1680650 1246224 L1680650 1234536 L1656106 1234536 "/>
<path d="M1680650 1267263 L1680650 1253237 "/>
<path d="M1680650 1260250 L1656106 1260250 L1659612 1257912 L1661950 1255575 L1663119 1253237 "/>
<path d="M1658443 1276613 L1657275 1277782 L1656106 1280119 L1656106 1285963 L1657275 1288301 L1658443 1289470 L1660781 1290638 L1663119 1290638 L1666625 1289470 L1680650 1275444 L1680650 1290638 "/>
</g></g>
<g style="fill:#000084; fill-opacity:0.01;  stroke:#000084; stroke-width:7363.392946; stroke-opacity:1;  stroke-linecap:round; stroke-linejoin:round;">
<text x="1818425.428581" y="1027229.102013" transform="scale(-1 1) translate(-3636850.857162 0)" textLength="184239.111269" font-size="65452.365376" lengthAdjust="spacingAndGlyphs" text-anchor="middle" opacity="0.01" style="font-family:monospace">27nH</text>
<g class="stroked-text"><desc>27nH</desc>
<path d="M1903747 980477 L1901409 978139 L1896734 975802 L1885046 975802 L1880371 978139 L1878033 980477 L1875696 985152 L1875696 989827 L1878033 996840 L1906084 1024891 L1875696 1024891 "/>
<path d="M1859333 975802 L1826606 975802 L1847645 1024891 "/>
<path d="M1807906 992165 L1807906 1024891 "/>
<path d="M1807906 996840 L1805568 994502 L1800893 992165 L1793880 992165 L1789205 994502 L1786867 999178 L1786867 1024891 "/>
<path d="M1763492 1024891 L1763492 975802 "/>
<path d="M1763492 999178 L1735441 999178 "/>
<path d="M1735441 1024891 L1735441 975802 "/>
</g></g>
<g style="fill:#000084; fill-opacity:0.01;  stroke:#000084; stroke-width:3927.142904; stroke-opacity:1;  stroke-linecap:round; stroke-linejoin:round;">
<text x="1818425.428581" y="938868.386665" transform="scale(-1 1) translate(-3636850.857162 0)" textLength="57048.770454" font-size="32726.158144" lengthAdjust="spacingAndGlyphs" text-anchor="middle" opacity="0.01" style="font-family:monospace">L19</text>
<g class="stroked-text"><desc>L19</desc>
<path d="M1834204 937699 L1845892 937699 L1845892 913154 "/>
<path d="M1813165 937699 L1827191 937699 "/>
<path d="M1820178 937699 L1820178 913154 L1822516 916661 L1824853 918998 L1827191 920167 "/>
<path d="M1801477 937699 L1796802 937699 L1794465 936530 L1793296 935362 L1790958 931855 L1789789 927180 L1789789 917830 L1790958 915492 L1792127 914323 L1794465 913154 L1799140 913154 L1801477 914323 L1802646 915492 L1803815 917830 L1803815 923674 L1802646 926011 L1801477 927180 L1799140 928349 L1794465 928349 L1792127 927180 L1790958 926011 L1789789 923674 "/>
</g></g>
<g style="fill:#000084; fill-opacity:0.01;  stroke:#000084; stroke-width:7363.392946; stroke-opacity:1;  stroke-linecap:round; stroke-linejoin:round;">
<text x="1056088.447985" y="1156873.907144" transform="scale(-1 1) translate(-2112176.895970 0)" textLength="184239.111269" font-size="65452.365376" lengthAdjust="spacingAndGlyphs" text-anchor="middle" opacity="0.01" style="font-family:monospace">22nH</text>
<g class="stroked-text"><desc>22nH</desc>
<path d="M1141410 1110122 L1139072 1107784 L1134397 1105447 L1122709 1105447 L1118034 1107784 L1115696 1110122 L1113359 1114797 L1113359 1119472 L1115696 1126485 L1143747 1154536 L1113359 1154536 "/>
<path d="M1094658 1110122 L1092321 1107784 L1087645 1105447 L1075957 1105447 L1071282 1107784 L1068945 1110122 L1066607 1114797 L1066607 1119472 L1068945 1126485 L1096996 1154536 L1066607 1154536 "/>
<path d="M1045569 1121810 L1045569 1154536 "/>
<path d="M1045569 1126485 L1043231 1124147 L1038556 1121810 L1031543 1121810 L1026868 1124147 L1024531 1128822 L1024531 1154536 "/>
<path d="M1001155 1154536 L1001155 1105447 "/>
<path d="M1001155 1128822 L973104 1128822 "/>
<path d="M973104 1154536 L973104 1105447 "/>
</g></g>
<g style="fill:#000084; fill-opacity:0.01;  stroke:#000084; stroke-width:3927.142904; stroke-opacity:1;  stroke-linecap:round; stroke-linejoin:round;">
<text x="1036138.562031" y="1229388.600873" transform="scale(-1 1) translate(-2072277.124062 0)" textLength="33672.894119" font-size="32726.158144" lengthAdjust="spacingAndGlyphs" text-anchor="middle" opacity="0.01" style="font-family:monospace">L3</text>
<g class="stroked-text"><desc>L3</desc>
<path d="M1040229 1228219 L1051917 1228219 L1051917 1203675 "/>
<path d="M1034385 1203675 L1019191 1203675 L1027372 1213025 L1023866 1213025 L1021528 1214194 L1020359 1215363 L1019191 1217700 L1019191 1223544 L1020359 1225882 L1021528 1227051 L1023866 1228219 L1030878 1228219 L1033216 1227051 L1034385 1225882 "/>
</g></g>
<g style="fill:#000084; fill-opacity:0.0;  stroke:#000084; stroke-width:7363.392946; stroke-opacity:1;  stroke-linecap:round; stroke-linejoin:round;">
<g transform="rotate(-90.000000 1475036.053023 526351.478133)">
<text x="1475036.053023" y="550896.121285" transform="scale(-1 1) translate(-2950072.106046 0)" textLength="184239.111269" font-size="65452.365376" lengthAdjust="spacingAndGlyphs" text-anchor="middle" opacity="0.01" style="font-family:monospace">10nH</text>
</g>
<g class="stroked-text"><desc>10nH</desc>
<path d="M1497243 469080 L1497243 441029 "/>
<path d="M1497243 455055 L1448153 455055 L1455166 450379 L1459841 445704 L1462179 441029 "/>
<path d="M1448153 499469 L1448153 504144 L1450491 508819 L1452828 511157 L1457504 513494 L1466854 515832 L1478542 515832 L1487892 513494 L1492567 511157 L1494905 508819 L1497243 504144 L1497243 499469 L1494905 494794 L1492567 492456 L1487892 490118 L1478542 487781 L1466854 487781 L1457504 490118 L1452828 492456 L1450491 494794 L1448153 499469 "/>
<path d="M1464516 536870 L1497243 536870 "/>
<path d="M1469192 536870 L1466854 539208 L1464516 543883 L1464516 550896 L1466854 555571 L1471529 557908 L1497243 557908 "/>
<path d="M1497243 581284 L1448153 581284 "/>
<path d="M1471529 581284 L1471529 609335 "/>
<path d="M1497243 609335 L1448153 609335 "/>
</g></g>
<g style="fill:#000084; fill-opacity:0.0;  stroke:#000084; stroke-width:3927.142904; stroke-opacity:1;  stroke-linecap:round; stroke-linejoin:round;">
<g transform="rotate(-90.000000 1474289.895871 875685.566262)">
<text x="1474289.895871" y="887957.887838" transform="scale(-1 1) translate(-2948579.791742 0)" textLength="57048.770454" font-size="32726.158144" lengthAdjust="spacingAndGlyphs" text-anchor="middle" opacity="0.01" style="font-family:monospace">L11</text>
</g>
<g class="stroked-text"><desc>L11</desc>
<path d="M1485393 859906 L1485393 848218 L1460848 848218 "/>
<path d="M1485393 880945 L1485393 866919 "/>
<path d="M1485393 873932 L1460848 873932 L1464355 871594 L1466692 869257 L1467861 866919 "/>
<path d="M1485393 904321 L1485393 890295 "/>
<path d="M1485393 897308 L1460848 897308 L1464355 894970 L1466692 892633 L1467861 890295 "/>
</g></g>
<g style="fill:#000084; fill-opacity:0.01;  stroke:#000084; stroke-width:7363.392946; stroke-opacity:1;  stroke-linecap:round; stroke-linejoin:round;">
<text x="1810443.510628" y="1161831.925060" transform="scale(-1 1) translate(-3620887.021255 0)" textLength="184239.111269" font-size="65452.365376" lengthAdjust="spacingAndGlyphs" text-anchor="middle" opacity="0.01" style="font-family:monospace">18nH</text>
<g class="stroked-text"><desc>18nH</desc>
<path d="M1867714 1159494 L1895765 1159494 "/>
<path d="M1881739 1159494 L1881739 1110405 L1886415 1117417 L1891090 1122093 L1895765 1124430 "/>
<path d="M1839663 1131443 L1844338 1129105 L1846676 1126768 L1849013 1122093 L1849013 1119755 L1846676 1115080 L1844338 1112742 L1839663 1110405 L1830312 1110405 L1825637 1112742 L1823300 1115080 L1820962 1119755 L1820962 1122093 L1823300 1126768 L1825637 1129105 L1830312 1131443 L1839663 1131443 L1844338 1133780 L1846676 1136118 L1849013 1140793 L1849013 1150144 L1846676 1154819 L1844338 1157156 L1839663 1159494 L1830312 1159494 L1825637 1157156 L1823300 1154819 L1820962 1150144 L1820962 1140793 L1823300 1136118 L1825637 1133780 L1830312 1131443 "/>
<path d="M1799924 1126768 L1799924 1159494 "/>
<path d="M1799924 1131443 L1797586 1129105 L1792911 1126768 L1785898 1126768 L1781223 1129105 L1778886 1133780 L1778886 1159494 "/>
<path d="M1755510 1159494 L1755510 1110405 "/>
<path d="M1755510 1133780 L1727459 1133780 "/>
<path d="M1727459 1159494 L1727459 1110405 "/>
</g></g>
<g style="fill:#000084; fill-opacity:0.01;  stroke:#000084; stroke-width:3927.142904; stroke-opacity:1;  stroke-linecap:round; stroke-linejoin:round;">
<text x="1810443.510628" y="1225647.997256" transform="scale(-1 1) translate(-3620887.021255 0)" textLength="57048.770454" font-size="32726.158144" lengthAdjust="spacingAndGlyphs" text-anchor="middle" opacity="0.01" style="font-family:monospace">L15</text>
<g class="stroked-text"><desc>L15</desc>
<path d="M1826222 1224479 L1837910 1224479 L1837910 1199934 "/>
<path d="M1805183 1224479 L1819209 1224479 "/>
<path d="M1812196 1224479 L1812196 1199934 L1814534 1203440 L1816871 1205778 L1819209 1206947 "/>
<path d="M1782976 1199934 L1794664 1199934 L1795833 1211622 L1794664 1210453 L1792327 1209284 L1786483 1209284 L1784145 1210453 L1782976 1211622 L1781808 1213960 L1781808 1219804 L1782976 1222141 L1784145 1223310 L1786483 1224479 L1792327 1224479 L1794664 1223310 L1795833 1222141 "/>
</g></g>
<g style="fill:#000084; fill-opacity:0.01;  stroke:#000084; stroke-width:7363.392946; stroke-opacity:1;  stroke-linecap:round; stroke-linejoin:round;">
<text x="815442.948663" y="1035927.723546" transform="scale(-1 1) translate(-1630885.897326 0)" textLength="221640.483951" font-size="65452.365376" lengthAdjust="spacingAndGlyphs" text-anchor="middle" opacity="0.01" style="font-family:monospace">100pF</text>
<g class="stroked-text"><desc>100pF</desc>
<path d="M891414 1033590 L919465 1033590 "/>
<path d="M905439 1033590 L905439 984500 L910115 991513 L914790 996188 L919465 998526 "/>
<path d="M861025 984500 L856350 984500 L851675 986838 L849337 989176 L847000 993851 L844662 1003201 L844662 1014889 L847000 1024239 L849337 1028914 L851675 1031252 L856350 1033590 L861025 1033590 L865701 1031252 L868038 1028914 L870376 1024239 L872713 1014889 L872713 1003201 L870376 993851 L868038 989176 L865701 986838 L861025 984500 "/>
<path d="M814274 984500 L809598 984500 L804923 986838 L802586 989176 L800248 993851 L797911 1003201 L797911 1014889 L800248 1024239 L802586 1028914 L804923 1031252 L809598 1033590 L814274 1033590 L818949 1031252 L821286 1028914 L823624 1024239 L825962 1014889 L825962 1003201 L823624 993851 L821286 989176 L818949 986838 L814274 984500 "/>
<path d="M776872 1000863 L776872 1049953 "/>
<path d="M776872 1003201 L772197 1000863 L762847 1000863 L758172 1003201 L755834 1005539 L753496 1010214 L753496 1024239 L755834 1028914 L758172 1031252 L762847 1033590 L772197 1033590 L776872 1031252 "/>
<path d="M716095 1007876 L732458 1007876 "/>
<path d="M732458 1033590 L732458 984500 L709082 984500 "/>
</g></g>
<g style="fill:#000084; fill-opacity:0.01;  stroke:#000084; stroke-width:3927.142904; stroke-opacity:1;  stroke-linecap:round; stroke-linejoin:round;">
<text x="838411.825725" y="945515.076031" transform="scale(-1 1) translate(-1676823.651450 0)" textLength="38348.059568" font-size="32726.158144" lengthAdjust="spacingAndGlyphs" text-anchor="middle" opacity="0.01" style="font-family:monospace">C2</text>
<g class="stroked-text"><desc>C2</desc>
<path d="M842502 942008 L843671 943177 L847177 944346 L849515 944346 L853021 943177 L855359 940839 L856528 938502 L857696 933827 L857696 930320 L856528 925645 L855359 923308 L853021 920970 L849515 919801 L847177 919801 L843671 920970 L842502 922139 "/>
<path d="M833152 922139 L831983 920970 L829645 919801 L823801 919801 L821464 920970 L820295 922139 L819126 924476 L819126 926814 L820295 930320 L834321 944346 L819126 944346 "/>
</g></g>
<g style="fill:#000084; fill-opacity:0.0;  stroke:#000084; stroke-width:7363.392946; stroke-opacity:1;  stroke-linecap:round; stroke-linejoin:round;">
<g transform="rotate(-90.000000 1573538.614922 1450280.571386)">
<text x="1573538.614922" y="1474825.214538" transform="scale(-1 1) translate(-3147077.229844 0)" textLength="174888.780371" font-size="65452.365376" lengthAdjust="spacingAndGlyphs" text-anchor="middle" opacity="0.01" style="font-family:monospace">39pF</text>
</g>
<g class="stroked-text"><desc>39pF</desc>
<path d="M1546656 1367296 L1546656 1397684 L1565357 1381321 L1565357 1388334 L1567694 1393009 L1570032 1395347 L1574707 1397684 L1586395 1397684 L1591070 1395347 L1593408 1393009 L1595745 1388334 L1595745 1374309 L1593408 1369633 L1591070 1367296 "/>
<path d="M1595745 1421060 L1595745 1430411 L1593408 1435086 L1591070 1437423 L1584057 1442099 L1574707 1444436 L1556006 1444436 L1551331 1442099 L1548993 1439761 L1546656 1435086 L1546656 1425735 L1548993 1421060 L1551331 1418723 L1556006 1416385 L1567694 1416385 L1572369 1418723 L1574707 1421060 L1577044 1425735 L1577044 1435086 L1574707 1439761 L1572369 1442099 L1567694 1444436 "/>
<path d="M1563019 1465474 L1612108 1465474 "/>
<path d="M1565357 1465474 L1563019 1470150 L1563019 1479500 L1565357 1484175 L1567694 1486513 L1572369 1488850 L1586395 1488850 L1591070 1486513 L1593408 1484175 L1595745 1479500 L1595745 1470150 L1593408 1465474 "/>
<path d="M1570032 1526252 L1570032 1509889 "/>
<path d="M1595745 1509889 L1546656 1509889 L1546656 1533264 "/>
</g></g>
<g style="fill:#000084; fill-opacity:0.0;  stroke:#000084; stroke-width:3927.142904; stroke-opacity:1;  stroke-linecap:round; stroke-linejoin:round;">
<g transform="rotate(-90.000000 1569798.011305 1262003.522693)">
<text x="1569798.011305" y="1274275.844270" transform="scale(-1 1) translate(-3139596.022611 0)" textLength="38348.059568" font-size="32726.158144" lengthAdjust="spacingAndGlyphs" text-anchor="middle" opacity="0.01" style="font-family:monospace">C8</text>
</g>
<g class="stroked-text"><desc>C8</desc>
<path d="M1578563 1257912 L1579732 1256743 L1580901 1253237 L1580901 1250900 L1579732 1247393 L1577395 1245056 L1575057 1243887 L1570382 1242718 L1566876 1242718 L1562200 1243887 L1559863 1245056 L1557525 1247393 L1556356 1250900 L1556356 1253237 L1557525 1256743 L1558694 1257912 "/>
<path d="M1566876 1271938 L1565707 1269600 L1564538 1268431 L1562200 1267263 L1561032 1267263 L1558694 1268431 L1557525 1269600 L1556356 1271938 L1556356 1276613 L1557525 1278951 L1558694 1280119 L1561032 1281288 L1562200 1281288 L1564538 1280119 L1565707 1278951 L1566876 1276613 L1566876 1271938 L1568044 1269600 L1569213 1268431 L1571551 1267263 L1576226 1267263 L1578563 1268431 L1579732 1269600 L1580901 1271938 L1580901 1276613 L1579732 1278951 L1578563 1280119 L1576226 1281288 L1571551 1281288 L1569213 1280119 L1568044 1278951 L1566876 1276613 "/>
</g></g>
<g style="fill:#000084; fill-opacity:0.01;  stroke:#000084; stroke-width:7363.392946; stroke-opacity:1;  stroke-linecap:round; stroke-linejoin:round;">
<text x="1026163.619054" y="1033433.987802" transform="scale(-1 1) translate(-2052327.238108 0)" textLength="184239.111269" font-size="65452.365376" lengthAdjust="spacingAndGlyphs" text-anchor="middle" opacity="0.01" style="font-family:monospace">27nH</text>
<g class="stroked-text"><desc>27nH</desc>
<path d="M1111485 986682 L1109147 984344 L1104472 982007 L1092784 982007 L1088109 984344 L1085772 986682 L1083434 991357 L1083434 996032 L1085772 1003045 L1113823 1031096 L1083434 1031096 "/>
<path d="M1067071 982007 L1034345 982007 L1055383 1031096 "/>
<path d="M1015644 998370 L1015644 1031096 "/>
<path d="M1015644 1003045 L1013306 1000707 L1008631 998370 L1001618 998370 L996943 1000707 L994606 1005382 L994606 1031096 "/>
<path d="M971230 1031096 L971230 982007 "/>
<path d="M971230 1005382 L943179 1005382 "/>
<path d="M943179 1031096 L943179 982007 "/>
</g></g>
<g style="fill:#000084; fill-opacity:0.01;  stroke:#000084; stroke-width:3927.142904; stroke-opacity:1;  stroke-linecap:round; stroke-linejoin:round;">
<text x="1022737.186870" y="940527.604542" transform="scale(-1 1) translate(-2045474.373740 0)" textLength="33672.894119" font-size="32726.158144" lengthAdjust="spacingAndGlyphs" text-anchor="middle" opacity="0.01" style="font-family:monospace">L2</text>
<g class="stroked-text"><desc>L2</desc>
<path d="M1026827 939358 L1038515 939358 L1038515 914814 "/>
<path d="M1019815 917151 L1018646 915982 L1016308 914814 L1010464 914814 L1008127 915982 L1006958 917151 L1005789 919489 L1005789 921826 L1006958 925333 L1020983 939358 L1005789 939358 "/>
</g></g>
<g style="fill:#000084; fill-opacity:0.01;  stroke:#000084; stroke-width:7363.392946; stroke-opacity:1;  stroke-linecap:round; stroke-linejoin:round;">
<text x="826664.759512" y="1431184.839014" transform="scale(-1 1) translate(-1653329.519024 0)" textLength="221640.483951" font-size="65452.365376" lengthAdjust="spacingAndGlyphs" text-anchor="middle" opacity="0.01" style="font-family:monospace">100pF</text>
<g class="stroked-text"><desc>100pF</desc>
<path d="M902636 1428847 L930687 1428847 "/>
<path d="M916661 1428847 L916661 1379757 L921336 1386770 L926012 1391445 L930687 1393783 "/>
<path d="M872247 1379757 L867572 1379757 L862897 1382095 L860559 1384433 L858222 1389108 L855884 1398458 L855884 1410146 L858222 1419496 L860559 1424172 L862897 1426509 L867572 1428847 L872247 1428847 L876922 1426509 L879260 1424172 L881597 1419496 L883935 1410146 L883935 1398458 L881597 1389108 L879260 1384433 L876922 1382095 L872247 1379757 "/>
<path d="M825495 1379757 L820820 1379757 L816145 1382095 L813808 1384433 L811470 1389108 L809132 1398458 L809132 1410146 L811470 1419496 L813808 1424172 L816145 1426509 L820820 1428847 L825495 1428847 L830171 1426509 L832508 1424172 L834846 1419496 L837183 1410146 L837183 1398458 L834846 1389108 L832508 1384433 L830171 1382095 L825495 1379757 "/>
<path d="M788094 1396121 L788094 1445210 "/>
<path d="M788094 1398458 L783419 1396121 L774069 1396121 L769393 1398458 L767056 1400796 L764718 1405471 L764718 1419496 L767056 1424172 L769393 1426509 L774069 1428847 L783419 1428847 L788094 1426509 "/>
<path d="M727317 1403133 L743680 1403133 "/>
<path d="M743680 1428847 L743680 1379757 L720304 1379757 "/>
</g></g>
<g style="fill:#000084; fill-opacity:0.01;  stroke:#000084; stroke-width:3927.142904; stroke-opacity:1;  stroke-linecap:round; stroke-linejoin:round;">
<text x="853801.316981" y="1334871.659284" transform="scale(-1 1) translate(-1707602.633963 0)" textLength="38348.059568" font-size="32726.158144" lengthAdjust="spacingAndGlyphs" text-anchor="middle" opacity="0.01" style="font-family:monospace">C4</text>
<g class="stroked-text"><desc>C4</desc>
<path d="M857892 1331365 L859060 1332534 L862567 1333702 L864904 1333702 L868411 1332534 L870748 1330196 L871917 1327858 L873086 1323183 L873086 1319677 L871917 1315002 L870748 1312664 L868411 1310327 L864904 1309158 L862567 1309158 L859060 1310327 L857892 1311495 "/>
<path d="M836853 1317339 L836853 1333702 "/>
<path d="M842697 1307989 L848541 1325521 L833347 1325521 "/>
</g></g>
<g style="fill:#000084; fill-opacity:0.01;  stroke:#000084; stroke-width:7363.392946; stroke-opacity:1;  stroke-linecap:round; stroke-linejoin:round;">
<text x="851602.116955" y="1155627.039271" transform="scale(-1 1) translate(-1703204.233910 0)" textLength="221640.483951" font-size="65452.365376" lengthAdjust="spacingAndGlyphs" text-anchor="middle" opacity="0.01" style="font-family:monospace">100pF</text>
<g class="stroked-text"><desc>100pF</desc>
<path d="M927573 1153289 L955624 1153289 "/>
<path d="M941599 1153289 L941599 1104200 L946274 1111212 L950949 1115888 L955624 1118225 "/>
<path d="M897185 1104200 L892509 1104200 L887834 1106537 L885497 1108875 L883159 1113550 L880821 1122900 L880821 1134588 L883159 1143939 L885497 1148614 L887834 1150951 L892509 1153289 L897185 1153289 L901860 1150951 L904197 1148614 L906535 1143939 L908872 1134588 L908872 1122900 L906535 1113550 L904197 1108875 L901860 1106537 L897185 1104200 "/>
<path d="M850433 1104200 L845758 1104200 L841082 1106537 L838745 1108875 L836407 1113550 L834070 1122900 L834070 1134588 L836407 1143939 L838745 1148614 L841082 1150951 L845758 1153289 L850433 1153289 L855108 1150951 L857446 1148614 L859783 1143939 L862121 1134588 L862121 1122900 L859783 1113550 L857446 1108875 L855108 1106537 L850433 1104200 "/>
<path d="M813031 1120563 L813031 1169652 "/>
<path d="M813031 1122900 L808356 1120563 L799006 1120563 L794331 1122900 L791993 1125238 L789656 1129913 L789656 1143939 L791993 1148614 L794331 1150951 L799006 1153289 L808356 1153289 L813031 1150951 "/>
<path d="M752254 1127576 L768617 1127576 "/>
<path d="M768617 1153289 L768617 1104200 L745241 1104200 "/>
</g></g>
<g style="fill:#000084; fill-opacity:0.01;  stroke:#000084; stroke-width:3927.142904; stroke-opacity:1;  stroke-linecap:round; stroke-linejoin:round;">
<text x="853801.316981" y="1222653.550792" transform="scale(-1 1) translate(-1707602.633963 0)" textLength="38348.059568" font-size="32726.158144" lengthAdjust="spacingAndGlyphs" text-anchor="middle" opacity="0.01" style="font-family:monospace">C3</text>
<g class="stroked-text"><desc>C3</desc>
<path d="M857892 1219147 L859060 1220315 L862567 1221484 L864904 1221484 L868411 1220315 L870748 1217978 L871917 1215640 L873086 1210965 L873086 1207459 L871917 1202784 L870748 1200446 L868411 1198108 L864904 1196940 L862567 1196940 L859060 1198108 L857892 1199277 "/>
<path d="M849710 1196940 L834516 1196940 L842697 1206290 L839191 1206290 L836853 1207459 L835685 1208628 L834516 1210965 L834516 1216809 L835685 1219147 L836853 1220315 L839191 1221484 L846204 1221484 L848541 1220315 L849710 1219147 "/>
</g></g>
<g style="fill:#000084; fill-opacity:0.01;  stroke:#000084; stroke-width:7363.392946; stroke-opacity:1;  stroke-linecap:round; stroke-linejoin:round;">
<text x="1420173.866649" y="1423703.631781" transform="scale(-1 1) translate(-2840347.733298 0)" textLength="184239.111269" font-size="65452.365376" lengthAdjust="spacingAndGlyphs" text-anchor="middle" opacity="0.01" style="font-family:monospace">39nH</text>
<g class="stroked-text"><desc>39nH</desc>
<path d="M1507833 1372276 L1477444 1372276 L1493807 1390977 L1486794 1390977 L1482119 1393315 L1479782 1395652 L1477444 1400327 L1477444 1412015 L1479782 1416690 L1482119 1419028 L1486794 1421366 L1500820 1421366 L1505495 1419028 L1507833 1416690 "/>
<path d="M1454068 1421366 L1444718 1421366 L1440043 1419028 L1437705 1416690 L1433030 1409678 L1430692 1400327 L1430692 1381627 L1433030 1376951 L1435368 1374614 L1440043 1372276 L1449393 1372276 L1454068 1374614 L1456406 1376951 L1458744 1381627 L1458744 1393315 L1456406 1397990 L1454068 1400327 L1449393 1402665 L1440043 1402665 L1435368 1400327 L1433030 1397990 L1430692 1393315 "/>
<path d="M1409654 1388639 L1409654 1421366 "/>
<path d="M1409654 1393315 L1407317 1390977 L1402641 1388639 L1395629 1388639 L1390954 1390977 L1388616 1395652 L1388616 1421366 "/>
<path d="M1365240 1421366 L1365240 1372276 "/>
<path d="M1365240 1395652 L1337189 1395652 "/>
<path d="M1337189 1421366 L1337189 1372276 "/>
</g></g>
<g style="fill:#000084; fill-opacity:0.01;  stroke:#000084; stroke-width:3927.142904; stroke-opacity:1;  stroke-linecap:round; stroke-linejoin:round;">
<text x="1422667.602393" y="1226894.865128" transform="scale(-1 1) translate(-2845335.204787 0)" textLength="33672.894119" font-size="32726.158144" lengthAdjust="spacingAndGlyphs" text-anchor="middle" opacity="0.01" style="font-family:monospace">L9</text>
<g class="stroked-text"><desc>L9</desc>
<path d="M1426758 1225726 L1438446 1225726 L1438446 1201181 "/>
<path d="M1417408 1225726 L1412732 1225726 L1410395 1224557 L1409226 1223388 L1406888 1219882 L1405720 1215206 L1405720 1205856 L1406888 1203519 L1408057 1202350 L1410395 1201181 L1415070 1201181 L1417408 1202350 L1418576 1203519 L1419745 1205856 L1419745 1211700 L1418576 1214038 L1417408 1215206 L1415070 1216375 L1410395 1216375 L1408057 1215206 L1406888 1214038 L1405720 1211700 "/>
</g></g>
<g style="fill:#000084; fill-opacity:0.01;  stroke:#000084; stroke-width:7363.392946; stroke-opacity:1;  stroke-linecap:round; stroke-linejoin:round;">
<text x="1526658.346501" y="1114509.853063" transform="scale(-1 1) translate(-3053316.693002 0)" textLength="184239.111269" font-size="65452.365376" lengthAdjust="spacingAndGlyphs" text-anchor="middle" opacity="0.01" style="font-family:monospace">82nH</text>
<g class="stroked-text"><desc>82nH</desc>
<path d="M1602629 1084121 L1607305 1081783 L1609642 1079446 L1611980 1074770 L1611980 1072433 L1609642 1067758 L1607305 1065420 L1602629 1063082 L1593279 1063082 L1588604 1065420 L1586266 1067758 L1583929 1072433 L1583929 1074770 L1586266 1079446 L1588604 1081783 L1593279 1084121 L1602629 1084121 L1607305 1086458 L1609642 1088796 L1611980 1093471 L1611980 1102821 L1609642 1107497 L1607305 1109834 L1602629 1112172 L1593279 1112172 L1588604 1109834 L1586266 1107497 L1583929 1102821 L1583929 1093471 L1586266 1088796 L1588604 1086458 L1593279 1084121 "/>
<path d="M1565228 1067758 L1562890 1065420 L1558215 1063082 L1546527 1063082 L1541852 1065420 L1539515 1067758 L1537177 1072433 L1537177 1077108 L1539515 1084121 L1567566 1112172 L1537177 1112172 "/>
<path d="M1516139 1079446 L1516139 1112172 "/>
<path d="M1516139 1084121 L1513801 1081783 L1509126 1079446 L1502113 1079446 L1497438 1081783 L1495100 1086458 L1495100 1112172 "/>
<path d="M1471725 1112172 L1471725 1063082 "/>
<path d="M1471725 1086458 L1443674 1086458 "/>
<path d="M1443674 1112172 L1443674 1063082 "/>
</g></g>
<g style="fill:#000084; fill-opacity:0.01;  stroke:#000084; stroke-width:3927.142904; stroke-opacity:1;  stroke-linecap:round; stroke-linejoin:round;">
<text x="1526658.346501" y="1026149.137714" transform="scale(-1 1) translate(-3053316.693002 0)" textLength="57048.770454" font-size="32726.158144" lengthAdjust="spacingAndGlyphs" text-anchor="middle" opacity="0.01" style="font-family:monospace">L14</text>
<g class="stroked-text"><desc>L14</desc>
<path d="M1542437 1024980 L1554124 1024980 L1554124 1000435 "/>
<path d="M1521398 1024980 L1535424 1024980 "/>
<path d="M1528411 1024980 L1528411 1000435 L1530749 1003942 L1533086 1006279 L1535424 1007448 "/>
<path d="M1500360 1008617 L1500360 1024980 "/>
<path d="M1506204 999266 L1512048 1016798 L1496854 1016798 "/>
</g></g>
<g style="fill:#000084; fill-opacity:0.0;  stroke:#000084; stroke-width:7363.392946; stroke-opacity:1;  stroke-linecap:round; stroke-linejoin:round;">
<g transform="rotate(-90.000000 1682016.119798 699666.112360)">
<text x="1682016.119798" y="724210.755512" transform="scale(-1 1) translate(-3364032.239595 0)" textLength="184239.111269" font-size="65452.365376" lengthAdjust="spacingAndGlyphs" text-anchor="middle" opacity="0.01" style="font-family:monospace">10nH</text>
</g>
<g class="stroked-text"><desc>10nH</desc>
<path d="M1704223 642395 L1704223 614344 "/>
<path d="M1704223 628369 L1655133 628369 L1662146 623694 L1666821 619019 L1669159 614344 "/>
<path d="M1655133 672783 L1655133 677459 L1657471 682134 L1659809 684471 L1664484 686809 L1673834 689147 L1685522 689147 L1694872 686809 L1699547 684471 L1701885 682134 L1704223 677459 L1704223 672783 L1701885 668108 L1699547 665771 L1694872 663433 L1685522 661095 L1673834 661095 L1664484 663433 L1659809 665771 L1657471 668108 L1655133 672783 "/>
<path d="M1671496 710185 L1704223 710185 "/>
<path d="M1676172 710185 L1673834 712522 L1671496 717198 L1671496 724210 L1673834 728885 L1678509 731223 L1704223 731223 "/>
<path d="M1704223 754599 L1655133 754599 "/>
<path d="M1678509 754599 L1678509 782650 "/>
<path d="M1704223 782650 L1655133 782650 "/>
</g></g>
<g style="fill:#000084; fill-opacity:0.0;  stroke:#000084; stroke-width:3927.142904; stroke-opacity:1;  stroke-linecap:round; stroke-linejoin:round;">
<g transform="rotate(-90.000000 1678776.226902 876721.350203)">
<text x="1678776.226902" y="888993.671779" transform="scale(-1 1) translate(-3357552.453803 0)" textLength="57048.770454" font-size="32726.158144" lengthAdjust="spacingAndGlyphs" text-anchor="middle" opacity="0.01" style="font-family:monospace">L17</text>
</g>
<g class="stroked-text"><desc>L17</desc>
<path d="M1689879 860942 L1689879 849254 L1665335 849254 "/>
<path d="M1689879 881980 L1689879 867955 "/>
<path d="M1689879 874968 L1665335 874968 L1668841 872630 L1671179 870293 L1672347 867955 "/>
<path d="M1665335 890162 L1665335 906525 L1689879 896006 "/>
</g></g>
<g style="fill:#000084; fill-opacity:0.01;  stroke:#000084; stroke-width:7363.392946; stroke-opacity:1;  stroke-linecap:round; stroke-linejoin:round;">
<text x="1809196.642756" y="1417469.292420" transform="scale(-1 1) translate(-3618393.285511 0)" textLength="184239.111269" font-size="65452.365376" lengthAdjust="spacingAndGlyphs" text-anchor="middle" opacity="0.01" style="font-family:monospace">18nH</text>
<g class="stroked-text"><desc>18nH</desc>
<path d="M1866467 1415131 L1894518 1415131 "/>
<path d="M1880492 1415131 L1880492 1366042 L1885168 1373055 L1889843 1377730 L1894518 1380067 "/>
<path d="M1838416 1387080 L1843091 1384743 L1845429 1382405 L1847766 1377730 L1847766 1375392 L1845429 1370717 L1843091 1368380 L1838416 1366042 L1829066 1366042 L1824390 1368380 L1822053 1370717 L1819715 1375392 L1819715 1377730 L1822053 1382405 L1824390 1384743 L1829066 1387080 L1838416 1387080 L1843091 1389418 L1845429 1391755 L1847766 1396431 L1847766 1405781 L1845429 1410456 L1843091 1412794 L1838416 1415131 L1829066 1415131 L1824390 1412794 L1822053 1410456 L1819715 1405781 L1819715 1396431 L1822053 1391755 L1824390 1389418 L1829066 1387080 "/>
<path d="M1798677 1382405 L1798677 1415131 "/>
<path d="M1798677 1387080 L1796339 1384743 L1791664 1382405 L1784651 1382405 L1779976 1384743 L1777639 1389418 L1777639 1415131 "/>
<path d="M1754263 1415131 L1754263 1366042 "/>
<path d="M1754263 1389418 L1726212 1389418 "/>
<path d="M1726212 1415131 L1726212 1366042 "/>
</g></g>
<g style="fill:#000084; fill-opacity:0.01;  stroke:#000084; stroke-width:3927.142904; stroke-opacity:1;  stroke-linecap:round; stroke-linejoin:round;">
<text x="1810443.510628" y="1325397.427027" transform="scale(-1 1) translate(-3620887.021255 0)" textLength="57048.770454" font-size="32726.158144" lengthAdjust="spacingAndGlyphs" text-anchor="middle" opacity="0.01" style="font-family:monospace">L16</text>
<g class="stroked-text"><desc>L16</desc>
<path d="M1826222 1324228 L1837910 1324228 L1837910 1299684 "/>
<path d="M1805183 1324228 L1819209 1324228 "/>
<path d="M1812196 1324228 L1812196 1299684 L1814534 1303190 L1816871 1305527 L1819209 1306696 "/>
<path d="M1784145 1299684 L1788820 1299684 L1791158 1300852 L1792327 1302021 L1794664 1305527 L1795833 1310203 L1795833 1319553 L1794664 1321891 L1793495 1323059 L1791158 1324228 L1786483 1324228 L1784145 1323059 L1782976 1321891 L1781808 1319553 L1781808 1313709 L1782976 1311371 L1784145 1310203 L1786483 1309034 L1791158 1309034 L1793495 1310203 L1794664 1311371 L1795833 1313709 "/>
</g></g>
<g style="fill:#000084; fill-opacity:0.01;  stroke:#000084; stroke-width:7363.392946; stroke-opacity:1;  stroke-linecap:round; stroke-linejoin:round;">
<text x="1037385.429903" y="1433678.574758" transform="scale(-1 1) translate(-2074770.859806 0)" textLength="184239.111269" font-size="65452.365376" lengthAdjust="spacingAndGlyphs" text-anchor="middle" opacity="0.01" style="font-family:monospace">22nH</text>
<g class="stroked-text"><desc>22nH</desc>
<path d="M1122707 1386926 L1120369 1384589 L1115694 1382251 L1104006 1382251 L1099331 1384589 L1096993 1386926 L1094656 1391602 L1094656 1396277 L1096993 1403289 L1125044 1431340 L1094656 1431340 "/>
<path d="M1075955 1386926 L1073617 1384589 L1068942 1382251 L1057254 1382251 L1052579 1384589 L1050242 1386926 L1047904 1391602 L1047904 1396277 L1050242 1403289 L1078293 1431340 L1047904 1431340 "/>
<path d="M1026866 1398614 L1026866 1431340 "/>
<path d="M1026866 1403289 L1024528 1400952 L1019853 1398614 L1012840 1398614 L1008165 1400952 L1005827 1405627 L1005827 1431340 "/>
<path d="M982452 1431340 L982452 1382251 "/>
<path d="M982452 1405627 L954401 1405627 "/>
<path d="M954401 1431340 L954401 1382251 "/>
</g></g>
<g style="fill:#000084; fill-opacity:0.01;  stroke:#000084; stroke-width:3927.142904; stroke-opacity:1;  stroke-linecap:round; stroke-linejoin:round;">
<text x="1036138.562031" y="1329138.030644" transform="scale(-1 1) translate(-2072277.124062 0)" textLength="33672.894119" font-size="32726.158144" lengthAdjust="spacingAndGlyphs" text-anchor="middle" opacity="0.01" style="font-family:monospace">L4</text>
<g class="stroked-text"><desc>L4</desc>
<path d="M1040229 1327969 L1051917 1327969 L1051917 1303424 "/>
<path d="M1021528 1311606 L1021528 1327969 "/>
<path d="M1027372 1302255 L1033216 1319787 L1018022 1319787 "/>
</g></g>
<g style="fill:#000084; fill-opacity:0.0;  stroke:#000084; stroke-width:7363.392946; stroke-opacity:1;  stroke-linecap:round; stroke-linejoin:round;">
<g transform="rotate(-90.000000 1275537.193481 545054.496215)">
<text x="1275537.193481" y="569599.139367" transform="scale(-1 1) translate(-2551074.386962 0)" textLength="184239.111269" font-size="65452.365376" lengthAdjust="spacingAndGlyphs" text-anchor="middle" opacity="0.01" style="font-family:monospace">10nH</text>
</g>
<g class="stroked-text"><desc>10nH</desc>
<path d="M1297744 487783 L1297744 459732 "/>
<path d="M1297744 473758 L1248654 473758 L1255667 469082 L1260342 464407 L1262680 459732 "/>
<path d="M1248654 518172 L1248654 522847 L1250992 527522 L1253330 529860 L1258005 532197 L1267355 534535 L1279043 534535 L1288393 532197 L1293069 529860 L1295406 527522 L1297744 522847 L1297744 518172 L1295406 513497 L1293069 511159 L1288393 508821 L1279043 506484 L1267355 506484 L1258005 508821 L1253330 511159 L1250992 513497 L1248654 518172 "/>
<path d="M1265018 555573 L1297744 555573 "/>
<path d="M1269693 555573 L1267355 557911 L1265018 562586 L1265018 569599 L1267355 574274 L1272030 576611 L1297744 576611 "/>
<path d="M1297744 599987 L1248654 599987 "/>
<path d="M1272030 599987 L1272030 628038 "/>
<path d="M1297744 628038 L1248654 628038 "/>
</g></g>
<g style="fill:#000084; fill-opacity:0.0;  stroke:#000084; stroke-width:3927.142904; stroke-opacity:1;  stroke-linecap:round; stroke-linejoin:round;">
<g transform="rotate(-90.000000 1268556.696969 875474.482331)">
<text x="1268556.696969" y="887746.803907" transform="scale(-1 1) translate(-2537113.393937 0)" textLength="33672.894119" font-size="32726.158144" lengthAdjust="spacingAndGlyphs" text-anchor="middle" opacity="0.01" style="font-family:monospace">L5</text>
</g>
<g class="stroked-text"><desc>L5</desc>
<path d="M1279660 871383 L1279660 859695 L1255115 859695 "/>
<path d="M1255115 891253 L1255115 879565 L1266803 878396 L1265634 879565 L1264465 881902 L1264465 887746 L1265634 890084 L1266803 891253 L1269141 892422 L1274985 892422 L1277322 891253 L1278491 890084 L1279660 887746 L1279660 881902 L1278491 879565 L1277322 878396 "/>
</g></g>
<g style="fill:#000084; fill-opacity:0.01;  stroke:#000084; stroke-width:7363.392946; stroke-opacity:1;  stroke-linecap:round; stroke-linejoin:round;">
<text x="2024904.784635" y="1035927.723546" transform="scale(-1 1) translate(-4049809.569270 0)" textLength="221640.483951" font-size="65452.365376" lengthAdjust="spacingAndGlyphs" text-anchor="middle" opacity="0.01" style="font-family:monospace">100pF</text>
<g class="stroked-text"><desc>100pF</desc>
<path d="M2100876 1033590 L2128927 1033590 "/>
<path d="M2114901 1033590 L2114901 984500 L2119576 991513 L2124252 996188 L2128927 998526 "/>
<path d="M2070487 984500 L2065812 984500 L2061137 986838 L2058799 989176 L2056462 993851 L2054124 1003201 L2054124 1014889 L2056462 1024239 L2058799 1028914 L2061137 1031252 L2065812 1033590 L2070487 1033590 L2075162 1031252 L2077500 1028914 L2079838 1024239 L2082175 1014889 L2082175 1003201 L2079838 993851 L2077500 989176 L2075162 986838 L2070487 984500 "/>
<path d="M2023735 984500 L2019060 984500 L2014385 986838 L2012048 989176 L2009710 993851 L2007372 1003201 L2007372 1014889 L2009710 1024239 L2012048 1028914 L2014385 1031252 L2019060 1033590 L2023735 1033590 L2028411 1031252 L2030748 1028914 L2033086 1024239 L2035423 1014889 L2035423 1003201 L2033086 993851 L2030748 989176 L2028411 986838 L2023735 984500 "/>
<path d="M1986334 1000863 L1986334 1049953 "/>
<path d="M1986334 1003201 L1981659 1000863 L1972309 1000863 L1967633 1003201 L1965296 1005539 L1962958 1010214 L1962958 1024239 L1965296 1028914 L1967633 1031252 L1972309 1033590 L1981659 1033590 L1986334 1031252 "/>
<path d="M1925557 1007876 L1941920 1007876 "/>
<path d="M1941920 1033590 L1941920 984500 L1918544 984500 "/>
</g></g>
<g style="fill:#000084; fill-opacity:0.01;  stroke:#000084; stroke-width:3927.142904; stroke-opacity:1;  stroke-linecap:round; stroke-linejoin:round;">
<text x="2000468.137913" y="943855.858153" transform="scale(-1 1) translate(-4000936.275826 0)" textLength="61723.935903" font-size="32726.158144" lengthAdjust="spacingAndGlyphs" text-anchor="middle" opacity="0.01" style="font-family:monospace">C13</text>
<g class="stroked-text"><desc>C13</desc>
<path d="M2016246 940349 L2017415 941518 L2020921 942687 L2023259 942687 L2026765 941518 L2029103 939180 L2030272 936843 L2031441 932167 L2031441 928661 L2030272 923986 L2029103 921648 L2026765 919311 L2023259 918142 L2020921 918142 L2017415 919311 L2016246 920480 "/>
<path d="M1992870 942687 L2006896 942687 "/>
<path d="M1999883 942687 L1999883 918142 L2002221 921648 L2004558 923986 L2006896 925155 "/>
<path d="M1984689 918142 L1969495 918142 L1977676 927492 L1974170 927492 L1971832 928661 L1970663 929830 L1969495 932167 L1969495 938011 L1970663 940349 L1971832 941518 L1974170 942687 L1981183 942687 L1983520 941518 L1984689 940349 "/>
</g></g>
<g style="fill:#000084; fill-opacity:0.01;  stroke:#000084; stroke-width:7363.392946; stroke-opacity:1;  stroke-linecap:round; stroke-linejoin:round;">
<text x="2022411.048891" y="1146898.964166" transform="scale(-1 1) translate(-4044822.097782 0)" textLength="221640.483951" font-size="65452.365376" lengthAdjust="spacingAndGlyphs" text-anchor="middle" opacity="0.01" style="font-family:monospace">100pF</text>
<g class="stroked-text"><desc>100pF</desc>
<path d="M2098382 1144561 L2126433 1144561 "/>
<path d="M2112408 1144561 L2112408 1095472 L2117083 1102484 L2121758 1107160 L2126433 1109497 "/>
<path d="M2067993 1095472 L2063318 1095472 L2058643 1097809 L2056306 1100147 L2053968 1104822 L2051630 1114172 L2051630 1125860 L2053968 1135211 L2056306 1139886 L2058643 1142223 L2063318 1144561 L2067993 1144561 L2072669 1142223 L2075006 1139886 L2077344 1135211 L2079681 1125860 L2079681 1114172 L2077344 1104822 L2075006 1100147 L2072669 1097809 L2067993 1095472 "/>
<path d="M2021242 1095472 L2016567 1095472 L2011891 1097809 L2009554 1100147 L2007216 1104822 L2004879 1114172 L2004879 1125860 L2007216 1135211 L2009554 1139886 L2011891 1142223 L2016567 1144561 L2021242 1144561 L2025917 1142223 L2028254 1139886 L2030592 1135211 L2032930 1125860 L2032930 1114172 L2030592 1104822 L2028254 1100147 L2025917 1097809 L2021242 1095472 "/>
<path d="M1983840 1111835 L1983840 1160924 "/>
<path d="M1983840 1114172 L1979165 1111835 L1969815 1111835 L1965140 1114172 L1962802 1116510 L1960465 1121185 L1960465 1135211 L1962802 1139886 L1965140 1142223 L1969815 1144561 L1979165 1144561 L1983840 1142223 "/>
<path d="M1923063 1118847 L1939426 1118847 "/>
<path d="M1939426 1144561 L1939426 1095472 L1916050 1095472 "/>
</g></g>
<g style="fill:#000084; fill-opacity:0.01;  stroke:#000084; stroke-width:3927.142904; stroke-opacity:1;  stroke-linecap:round; stroke-linejoin:round;">
<text x="1993733.087832" y="1219413.657896" transform="scale(-1 1) translate(-3987466.175664 0)" textLength="61723.935903" font-size="32726.158144" lengthAdjust="spacingAndGlyphs" text-anchor="middle" opacity="0.01" style="font-family:monospace">C10</text>
<g class="stroked-text"><desc>C10</desc>
<path d="M2009511 1215907 L2010680 1217076 L2014186 1218244 L2016524 1218244 L2020030 1217076 L2022368 1214738 L2023537 1212400 L2024706 1207725 L2024706 1204219 L2023537 1199544 L2022368 1197206 L2020030 1194869 L2016524 1193700 L2014186 1193700 L2010680 1194869 L2009511 1196037 "/>
<path d="M1986135 1218244 L2000161 1218244 "/>
<path d="M1993148 1218244 L1993148 1193700 L1995486 1197206 L1997823 1199544 L2000161 1200712 "/>
<path d="M1970941 1193700 L1968604 1193700 L1966266 1194869 L1965097 1196037 L1963928 1198375 L1962760 1203050 L1962760 1208894 L1963928 1213569 L1965097 1215907 L1966266 1217076 L1968604 1218244 L1970941 1218244 L1973279 1217076 L1974447 1215907 L1975616 1213569 L1976785 1208894 L1976785 1203050 L1975616 1198375 L1974447 1196037 L1973279 1194869 L1970941 1193700 "/>
</g></g>
<g style="fill:#000084; fill-opacity:0.0;  stroke:#000084; stroke-width:7363.392946; stroke-opacity:1;  stroke-linecap:round; stroke-linejoin:round;">
<g transform="rotate(-90.000000 1582266.690027 533832.685366)">
<text x="1582266.690027" y="558377.328518" transform="scale(-1 1) translate(-3164533.380054 0)" textLength="174888.780371" font-size="65452.365376" lengthAdjust="spacingAndGlyphs" text-anchor="middle" opacity="0.01" style="font-family:monospace">18pF</text>
</g>
<g class="stroked-text"><desc>18pF</desc>
<path d="M1604473 481237 L1604473 453186 "/>
<path d="M1604473 467211 L1555384 467211 L1562397 462536 L1567072 457861 L1569409 453186 "/>
<path d="M1576422 509288 L1574085 504612 L1571747 502275 L1567072 499937 L1564734 499937 L1560059 502275 L1557722 504612 L1555384 509288 L1555384 518638 L1557722 523313 L1560059 525651 L1564734 527988 L1567072 527988 L1571747 525651 L1574085 523313 L1576422 518638 L1576422 509288 L1578760 504612 L1581097 502275 L1585773 499937 L1595123 499937 L1599798 502275 L1602136 504612 L1604473 509288 L1604473 518638 L1602136 523313 L1599798 525651 L1595123 527988 L1585773 527988 L1581097 525651 L1578760 523313 L1576422 518638 "/>
<path d="M1571747 549026 L1620836 549026 "/>
<path d="M1574085 549026 L1571747 553702 L1571747 563052 L1574085 567727 L1576422 570065 L1581097 572402 L1595123 572402 L1599798 570065 L1602136 567727 L1604473 563052 L1604473 553702 L1602136 549026 "/>
<path d="M1578760 609804 L1578760 593441 "/>
<path d="M1604473 593441 L1555384 593441 L1555384 616816 "/>
</g></g>
<g style="fill:#000084; fill-opacity:0.0;  stroke:#000084; stroke-width:3927.142904; stroke-opacity:1;  stroke-linecap:round; stroke-linejoin:round;">
<g transform="rotate(-90.000000 1579026.797131 876721.350203)">
<text x="1579026.797131" y="888993.671779" transform="scale(-1 1) translate(-3158053.594261 0)" textLength="38348.059568" font-size="32726.158144" lengthAdjust="spacingAndGlyphs" text-anchor="middle" opacity="0.01" style="font-family:monospace">C9</text>
</g>
<g class="stroked-text"><desc>C9</desc>
<path d="M1587792 872630 L1588961 871461 L1590130 867955 L1590130 865617 L1588961 862111 L1586623 859773 L1584286 858605 L1579611 857436 L1576104 857436 L1571429 858605 L1569092 859773 L1566754 862111 L1565585 865617 L1565585 867955 L1566754 871461 L1567923 872630 "/>
<path d="M1590130 884318 L1590130 888993 L1588961 891331 L1587792 892500 L1584286 894837 L1579611 896006 L1570260 896006 L1567923 894837 L1566754 893668 L1565585 891331 L1565585 886656 L1566754 884318 L1567923 883149 L1570260 881980 L1576104 881980 L1578442 883149 L1579611 884318 L1580779 886656 L1580779 891331 L1579611 893668 L1578442 894837 L1576104 896006 "/>
</g></g>
<g style="fill:#000084; fill-opacity:0.01;  stroke:#000084; stroke-width:7363.392946; stroke-opacity:1;  stroke-linecap:round; stroke-linejoin:round;">
<text x="2027398.520379" y="1438666.046246" transform="scale(-1 1) translate(-4054797.040759 0)" textLength="221640.483951" font-size="65452.365376" lengthAdjust="spacingAndGlyphs" text-anchor="middle" opacity="0.01" style="font-family:monospace">100pF</text>
<g class="stroked-text"><desc>100pF</desc>
<path d="M2103370 1436328 L2131421 1436328 "/>
<path d="M2117395 1436328 L2117395 1387239 L2122070 1394251 L2126745 1398927 L2131421 1401264 "/>
<path d="M2072981 1387239 L2068306 1387239 L2063631 1389576 L2061293 1391914 L2058955 1396589 L2056618 1405939 L2056618 1417627 L2058955 1426978 L2061293 1431653 L2063631 1433990 L2068306 1436328 L2072981 1436328 L2077656 1433990 L2079994 1431653 L2082331 1426978 L2084669 1417627 L2084669 1405939 L2082331 1396589 L2079994 1391914 L2077656 1389576 L2072981 1387239 "/>
<path d="M2026229 1387239 L2021554 1387239 L2016879 1389576 L2014541 1391914 L2012204 1396589 L2009866 1405939 L2009866 1417627 L2012204 1426978 L2014541 1431653 L2016879 1433990 L2021554 1436328 L2026229 1436328 L2030904 1433990 L2033242 1431653 L2035580 1426978 L2037917 1417627 L2037917 1405939 L2035580 1396589 L2033242 1391914 L2030904 1389576 L2026229 1387239 "/>
<path d="M1988828 1403602 L1988828 1452691 "/>
<path d="M1988828 1405939 L1984153 1403602 L1974802 1403602 L1970127 1405939 L1967790 1408277 L1965452 1412952 L1965452 1426978 L1967790 1431653 L1970127 1433990 L1974802 1436328 L1984153 1436328 L1988828 1433990 "/>
<path d="M1928051 1410615 L1944414 1410615 "/>
<path d="M1944414 1436328 L1944414 1387239 L1921038 1387239 "/>
</g></g>
<g style="fill:#000084; fill-opacity:0.01;  stroke:#000084; stroke-width:3927.142904; stroke-opacity:1;  stroke-linecap:round; stroke-linejoin:round;">
<text x="1993733.087832" y="1331631.766388" transform="scale(-1 1) translate(-3987466.175664 0)" textLength="61723.935903" font-size="32726.158144" lengthAdjust="spacingAndGlyphs" text-anchor="middle" opacity="0.01" style="font-family:monospace">C11</text>
<g class="stroked-text"><desc>C11</desc>
<path d="M2009511 1328125 L2010680 1329294 L2014186 1330462 L2016524 1330462 L2020030 1329294 L2022368 1326956 L2023537 1324619 L2024706 1319943 L2024706 1316437 L2023537 1311762 L2022368 1309424 L2020030 1307087 L2016524 1305918 L2014186 1305918 L2010680 1307087 L2009511 1308255 "/>
<path d="M1986135 1330462 L2000161 1330462 "/>
<path d="M1993148 1330462 L1993148 1305918 L1995486 1309424 L1997823 1311762 L2000161 1312931 "/>
<path d="M1962760 1330462 L1976785 1330462 "/>
<path d="M1969772 1330462 L1969772 1305918 L1972110 1309424 L1974447 1311762 L1976785 1312931 "/>
</g></g>
<g style="fill:#000084; fill-opacity:0.01;  stroke:#000084; stroke-width:7363.392946; stroke-opacity:1;  stroke-linecap:round; stroke-linejoin:round;">
<text x="1316683.833262" y="1105752.324386" transform="scale(-1 1) translate(-2633367.666523 0)" textLength="184239.111269" font-size="65452.365376" lengthAdjust="spacingAndGlyphs" text-anchor="middle" opacity="0.01" style="font-family:monospace">82nH</text>
<g class="stroked-text"><desc>82nH</desc>
<path d="M1392655 1075363 L1397330 1073026 L1399668 1070688 L1402005 1066013 L1402005 1063675 L1399668 1059000 L1397330 1056663 L1392655 1054325 L1383304 1054325 L1378629 1056663 L1376292 1059000 L1373954 1063675 L1373954 1066013 L1376292 1070688 L1378629 1073026 L1383304 1075363 L1392655 1075363 L1397330 1077701 L1399668 1080038 L1402005 1084714 L1402005 1094064 L1399668 1098739 L1397330 1101077 L1392655 1103414 L1383304 1103414 L1378629 1101077 L1376292 1098739 L1373954 1094064 L1373954 1084714 L1376292 1080038 L1378629 1077701 L1383304 1075363 "/>
<path d="M1355253 1059000 L1352916 1056663 L1348241 1054325 L1336553 1054325 L1331878 1056663 L1329540 1059000 L1327202 1063675 L1327202 1068351 L1329540 1075363 L1357591 1103414 L1327202 1103414 "/>
<path d="M1306164 1070688 L1306164 1103414 "/>
<path d="M1306164 1075363 L1303827 1073026 L1299151 1070688 L1292139 1070688 L1287463 1073026 L1285126 1077701 L1285126 1103414 "/>
<path d="M1261750 1103414 L1261750 1054325 "/>
<path d="M1261750 1077701 L1233699 1077701 "/>
<path d="M1233699 1103414 L1233699 1054325 "/>
</g></g>
<g style="fill:#000084; fill-opacity:0.01;  stroke:#000084; stroke-width:3927.142904; stroke-opacity:1;  stroke-linecap:round; stroke-linejoin:round;">
<text x="1319678.279726" y="1023655.401970" transform="scale(-1 1) translate(-2639356.559453 0)" textLength="33672.894119" font-size="32726.158144" lengthAdjust="spacingAndGlyphs" text-anchor="middle" opacity="0.01" style="font-family:monospace">L8</text>
<g class="stroked-text"><desc>L8</desc>
<path d="M1323769 1022486 L1335456 1022486 L1335456 997941 "/>
<path d="M1312081 1008461 L1314418 1007292 L1315587 1006123 L1316756 1003785 L1316756 1002617 L1315587 1000279 L1314418 999110 L1312081 997941 L1307405 997941 L1305068 999110 L1303899 1000279 L1302730 1002617 L1302730 1003785 L1303899 1006123 L1305068 1007292 L1307405 1008461 L1312081 1008461 L1314418 1009629 L1315587 1010798 L1316756 1013136 L1316756 1017811 L1315587 1020149 L1314418 1021317 L1312081 1022486 L1307405 1022486 L1305068 1021317 L1303899 1020149 L1302730 1017811 L1302730 1013136 L1303899 1010798 L1305068 1009629 L1307405 1008461 "/>
</g></g>
<g style="fill:#000084; fill-opacity:0.01;  stroke:#000084; stroke-width:7363.392946; stroke-opacity:1;  stroke-linecap:round; stroke-linejoin:round;">
<text x="1329152.511983" y="698026.530197" transform="scale(-1 1) translate(-2658305.023966 0)" textLength="184239.111269" font-size="65452.365376" lengthAdjust="spacingAndGlyphs" text-anchor="middle" opacity="0.01" style="font-family:monospace">82nH</text>
<g class="stroked-text"><desc>82nH</desc>
<path d="M1405124 667637 L1409799 665300 L1412136 662962 L1414474 658287 L1414474 655950 L1412136 651274 L1409799 648937 L1405124 646599 L1395773 646599 L1391098 648937 L1388760 651274 L1386423 655950 L1386423 658287 L1388760 662962 L1391098 665300 L1395773 667637 L1405124 667637 L1409799 669975 L1412136 672313 L1414474 676988 L1414474 686338 L1412136 691013 L1409799 693351 L1405124 695688 L1395773 695688 L1391098 693351 L1388760 691013 L1386423 686338 L1386423 676988 L1388760 672313 L1391098 669975 L1395773 667637 "/>
<path d="M1367722 651274 L1365385 648937 L1360709 646599 L1349021 646599 L1344346 648937 L1342009 651274 L1339671 655950 L1339671 660625 L1342009 667637 L1370060 695688 L1339671 695688 "/>
<path d="M1318633 662962 L1318633 695688 "/>
<path d="M1318633 667637 L1316295 665300 L1311620 662962 L1304607 662962 L1299932 665300 L1297595 669975 L1297595 695688 "/>
<path d="M1274219 695688 L1274219 646599 "/>
<path d="M1274219 669975 L1246168 669975 "/>
<path d="M1246168 695688 L1246168 646599 "/>
</g></g>
<g style="fill:#000084; fill-opacity:0.01;  stroke:#000084; stroke-width:3927.142904; stroke-opacity:1;  stroke-linecap:round; stroke-linejoin:round;">
<text x="1320925.147598" y="749344.470100" transform="scale(-1 1) translate(-2641850.295197 0)" textLength="33672.894119" font-size="32726.158144" lengthAdjust="spacingAndGlyphs" text-anchor="middle" opacity="0.01" style="font-family:monospace">L7</text>
<g class="stroked-text"><desc>L7</desc>
<path d="M1325015 748175 L1336703 748175 L1336703 723631 "/>
<path d="M1319171 723631 L1302808 723631 L1313327 748175 "/>
</g></g>
<g style="fill:#000084; fill-opacity:0.0;  stroke:#000084; stroke-width:7363.392946; stroke-opacity:1;  stroke-linecap:round; stroke-linejoin:round;">
<g transform="rotate(-90.000000 1380274.094741 552535.703448)">
<text x="1380274.094741" y="577080.346600" transform="scale(-1 1) translate(-2760548.189481 0)" textLength="174888.780371" font-size="65452.365376" lengthAdjust="spacingAndGlyphs" text-anchor="middle" opacity="0.01" style="font-family:monospace">18pF</text>
</g>
<g class="stroked-text"><desc>18pF</desc>
<path d="M1402481 499940 L1402481 471889 "/>
<path d="M1402481 485914 L1353391 485914 L1360404 481239 L1365079 476564 L1367417 471889 "/>
<path d="M1374430 527991 L1372092 523315 L1369754 520978 L1365079 518640 L1362742 518640 L1358067 520978 L1355729 523315 L1353391 527991 L1353391 537341 L1355729 542016 L1358067 544354 L1362742 546691 L1365079 546691 L1369754 544354 L1372092 542016 L1374430 537341 L1374430 527991 L1376767 523315 L1379105 520978 L1383780 518640 L1393130 518640 L1397805 520978 L1400143 523315 L1402481 527991 L1402481 537341 L1400143 542016 L1397805 544354 L1393130 546691 L1383780 546691 L1379105 544354 L1376767 542016 L1374430 537341 "/>
<path d="M1369754 567730 L1418844 567730 "/>
<path d="M1372092 567730 L1369754 572405 L1369754 581755 L1372092 586430 L1374430 588768 L1379105 591105 L1393130 591105 L1397805 588768 L1400143 586430 L1402481 581755 L1402481 572405 L1400143 567730 "/>
<path d="M1376767 628507 L1376767 612144 "/>
<path d="M1402481 612144 L1353391 612144 L1353391 635520 "/>
</g></g>
<g style="fill:#000084; fill-opacity:0.0;  stroke:#000084; stroke-width:3927.142904; stroke-opacity:1;  stroke-linecap:round; stroke-linejoin:round;">
<g transform="rotate(-90.000000 1374540.466100 875685.566262)">
<text x="1374540.466100" y="887957.887838" transform="scale(-1 1) translate(-2749080.932201 0)" textLength="38348.059568" font-size="32726.158144" lengthAdjust="spacingAndGlyphs" text-anchor="middle" opacity="0.01" style="font-family:monospace">C7</text>
</g>
<g class="stroked-text"><desc>C7</desc>
<path d="M1383306 871594 L1384475 870426 L1385643 866919 L1385643 864582 L1384475 861075 L1382137 858738 L1379799 857569 L1375124 856400 L1371618 856400 L1366943 857569 L1364605 858738 L1362268 861075 L1361099 864582 L1361099 866919 L1362268 870426 L1363436 871594 "/>
<path d="M1361099 879776 L1361099 896139 L1385643 885620 "/>
</g></g>
<g style="fill:#000084; fill-opacity:0.01;  stroke:#000084; stroke-width:7363.392946; stroke-opacity:1;  stroke-linecap:round; stroke-linejoin:round;">
<text x="829158.495256" y="762863.659548" transform="scale(-1 1) translate(-1658316.990513 0)" textLength="221640.483951" font-size="65452.365376" lengthAdjust="spacingAndGlyphs" text-anchor="middle" opacity="0.01" style="font-family:monospace">100pF</text>
<g class="stroked-text"><desc>100pF</desc>
<path d="M905130 760526 L933181 760526 "/>
<path d="M919155 760526 L919155 711436 L923830 718449 L928505 723124 L933181 725462 "/>
<path d="M874741 711436 L870066 711436 L865391 713774 L863053 716112 L860715 720787 L858378 730137 L858378 741825 L860715 751175 L863053 755850 L865391 758188 L870066 760526 L874741 760526 L879416 758188 L881754 755850 L884091 751175 L886429 741825 L886429 730137 L884091 720787 L881754 716112 L879416 713774 L874741 711436 "/>
<path d="M827989 711436 L823314 711436 L818639 713774 L816301 716112 L813964 720787 L811626 730137 L811626 741825 L813964 751175 L816301 755850 L818639 758188 L823314 760526 L827989 760526 L832664 758188 L835002 755850 L837340 751175 L839677 741825 L839677 730137 L837340 720787 L835002 716112 L832664 713774 L827989 711436 "/>
<path d="M790588 727799 L790588 776889 "/>
<path d="M790588 730137 L785913 727799 L776562 727799 L771887 730137 L769550 732475 L767212 737150 L767212 751175 L769550 755850 L771887 758188 L776562 760526 L785913 760526 L790588 758188 "/>
<path d="M729811 734812 L746174 734812 "/>
<path d="M746174 760526 L746174 711436 L722798 711436 "/>
</g></g>
<g style="fill:#000084; fill-opacity:0.01;  stroke:#000084; stroke-width:3927.142904; stroke-opacity:1;  stroke-linecap:round; stroke-linejoin:round;">
<text x="838411.825725" y="833296.967538" transform="scale(-1 1) translate(-1676823.651450 0)" textLength="38348.059568" font-size="32726.158144" lengthAdjust="spacingAndGlyphs" text-anchor="middle" opacity="0.01" style="font-family:monospace">C1</text>
<g class="stroked-text"><desc>C1</desc>
<path d="M842502 829790 L843671 830959 L847177 832128 L849515 832128 L853021 830959 L855359 828621 L856528 826284 L857696 821609 L857696 818102 L856528 813427 L855359 811089 L853021 808752 L849515 807583 L847177 807583 L843671 808752 L842502 809921 "/>
<path d="M819126 832128 L833152 832128 "/>
<path d="M826139 832128 L826139 807583 L828477 811089 L830814 813427 L833152 814596 "/>
</g></g>
<g style="fill:#000084; fill-opacity:0.0;  stroke:#000084; stroke-width:7363.392946; stroke-opacity:1;  stroke-linecap:round; stroke-linejoin:round;">
<g transform="rotate(-90.000000 1285512.136458 1466489.853724)">
<text x="1285512.136458" y="1491034.496876" transform="scale(-1 1) translate(-2571024.272917 0)" textLength="207614.938514" font-size="65452.365376" lengthAdjust="spacingAndGlyphs" text-anchor="middle" opacity="0.01" style="font-family:monospace">5.6nH</text>
</g>
<g class="stroked-text"><desc>5.6nH</desc>
<path d="M1258629 1395193 L1258629 1371817 L1282005 1369480 L1279668 1371817 L1277330 1376492 L1277330 1388180 L1279668 1392855 L1282005 1395193 L1286680 1397531 L1298368 1397531 L1303043 1395193 L1305381 1392855 L1307719 1388180 L1307719 1376492 L1305381 1371817 L1303043 1369480 "/>
<path d="M1303043 1418569 L1305381 1420906 L1307719 1418569 L1305381 1416231 L1303043 1418569 L1307719 1418569 "/>
<path d="M1258629 1462983 L1258629 1453633 L1260967 1448958 L1263305 1446620 L1270317 1441945 L1279668 1439607 L1298368 1439607 L1303043 1441945 L1305381 1444282 L1307719 1448958 L1307719 1458308 L1305381 1462983 L1303043 1465321 L1298368 1467658 L1286680 1467658 L1282005 1465321 L1279668 1462983 L1277330 1458308 L1277330 1448958 L1279668 1444282 L1282005 1441945 L1286680 1439607 "/>
<path d="M1274992 1488696 L1307719 1488696 "/>
<path d="M1279668 1488696 L1277330 1491034 L1274992 1495709 L1274992 1502722 L1277330 1507397 L1282005 1509735 L1307719 1509735 "/>
<path d="M1307719 1533111 L1258629 1533111 "/>
<path d="M1282005 1533111 L1282005 1561162 "/>
<path d="M1307719 1561162 L1258629 1561162 "/>
</g></g>
<g style="fill:#000084; fill-opacity:0.0;  stroke:#000084; stroke-width:3927.142904; stroke-opacity:1;  stroke-linecap:round; stroke-linejoin:round;">
<g transform="rotate(-90.000000 1283018.400714 1266490.283462)">
<text x="1283018.400714" y="1278762.605038" transform="scale(-1 1) translate(-2566036.801428 0)" textLength="33672.894119" font-size="32726.158144" lengthAdjust="spacingAndGlyphs" text-anchor="middle" opacity="0.01" style="font-family:monospace">L6</text>
</g>
<g class="stroked-text"><desc>L6</desc>
<path d="M1294121 1262399 L1294121 1250711 L1269577 1250711 "/>
<path d="M1269577 1281100 L1269577 1276425 L1270746 1274087 L1271914 1272918 L1275421 1270581 L1280096 1269412 L1289446 1269412 L1291784 1270581 L1292953 1271749 L1294121 1274087 L1294121 1278762 L1292953 1281100 L1291784 1282269 L1289446 1283437 L1283602 1283437 L1281265 1282269 L1280096 1281100 L1278927 1278762 L1278927 1274087 L1280096 1271749 L1281265 1270581 L1283602 1269412 "/>
</g></g>
<g style="fill:#000084; fill-opacity:0.0;  stroke:#000084; stroke-width:4908.928630; stroke-opacity:1;  stroke-linecap:round; stroke-linejoin:round;">
<path d="M1471756 1336462 L1471756 1292281 "/>
<path d="M1373578 1292281 L1373578 1336462 "/>
<path d="M1373578 1336462 L1471756 1336462 "/>
<path d="M1471756 1292281 L1373578 1292281 "/>
<path d="M1138126 826385 L1138126 924563 "/>
<path d="M1199488 826385 L1138126 826385 "/>
<path d="M1138126 924563 L1199488 924563 "/>
<path d="M1199488 924563 L1199488 826385 "/>
<path d="M973647 850596 L1071826 850596 "/>
<path d="M1071826 806415 L973647 806415 "/>
<path d="M1071826 850596 L1071826 806415 "/>
<path d="M973647 806415 L973647 850596 "/>
<path d="M1477569 759162 L1575747 759162 "/>
<path d="M1575747 714981 L1477569 714981 "/>
<path d="M1575747 759162 L1575747 714981 "/>
<path d="M1477569 714981 L1477569 759162 "/>
<path d="M2049557 850046 L2049557 788684 "/>
<path d="M2049557 788684 L1951378 788684 "/>
<path d="M1951378 788684 L1951378 850046 "/>
<path d="M1951378 850046 L2049557 850046 "/>
<path d="M1769336 848936 L1867514 848936 "/>
<path d="M1867514 848936 L1867514 804756 "/>
<path d="M1769336 804756 L1769336 848936 "/>
<path d="M1867514 804756 L1769336 804756 "/>
<path d="M1152588 1217400 L1152588 1315579 "/>
<path d="M1213949 1315579 L1213949 1217400 "/>
<path d="M1213949 1217400 L1152588 1217400 "/>
<path d="M1152588 1315579 L1213949 1315579 "/>
<path d="M1647457 1212914 L1647457 1311092 "/>
<path d="M1691637 1311092 L1691637 1212914 "/>
<path d="M1647457 1311092 L1691637 1311092 "/>
<path d="M1691637 1212914 L1647457 1212914 "/>
<path d="M1769336 948686 L1867514 948686 "/>
<path d="M1769336 904505 L1769336 948686 "/>
<path d="M1867514 948686 L1867514 904505 "/>
<path d="M1867514 904505 L1769336 904505 "/>
<path d="M1085227 1195026 L987049 1195026 "/>
<path d="M1085227 1239206 L1085227 1195026 "/>
<path d="M987049 1195026 L987049 1239206 "/>
<path d="M987049 1239206 L1085227 1239206 "/>
<path d="M1496380 924774 L1496380 826596 "/>
<path d="M1452199 826596 L1452199 924774 "/>
<path d="M1496380 826596 L1452199 826596 "/>
<path d="M1452199 924774 L1496380 924774 "/>
<path d="M1859532 1191285 L1761354 1191285 "/>
<path d="M1859532 1235465 L1859532 1191285 "/>
<path d="M1761354 1235465 L1859532 1235465 "/>
<path d="M1761354 1191285 L1761354 1235465 "/>
<path d="M887501 902561 L789322 902561 "/>
<path d="M789322 902561 L789322 963923 "/>
<path d="M887501 963923 L887501 902561 "/>
<path d="M789322 963923 L887501 963923 "/>
<path d="M1600478 1212914 L1539117 1212914 "/>
<path d="M1600478 1311092 L1600478 1212914 "/>
<path d="M1539117 1212914 L1539117 1311092 "/>
<path d="M1539117 1311092 L1600478 1311092 "/>
<path d="M973647 906165 L973647 950345 "/>
<path d="M1071826 950345 L1071826 906165 "/>
<path d="M973647 950345 L1071826 950345 "/>
<path d="M1071826 906165 L973647 906165 "/>
<path d="M804712 1353280 L902890 1353280 "/>
<path d="M804712 1291918 L804712 1353280 "/>
<path d="M902890 1291918 L804712 1291918 "/>
<path d="M902890 1353280 L902890 1291918 "/>
<path d="M902890 1179700 L804712 1179700 "/>
<path d="M804712 1179700 L804712 1241062 "/>
<path d="M804712 1241062 L902890 1241062 "/>
<path d="M902890 1241062 L902890 1179700 "/>
<path d="M1471756 1192532 L1373578 1192532 "/>
<path d="M1373578 1236712 L1471756 1236712 "/>
<path d="M1373578 1192532 L1373578 1236712 "/>
<path d="M1471756 1236712 L1471756 1192532 "/>
<path d="M1477569 991786 L1477569 1035966 "/>
<path d="M1477569 1035966 L1575747 1035966 "/>
<path d="M1575747 991786 L1477569 991786 "/>
<path d="M1575747 1035966 L1575747 991786 "/>
<path d="M1700866 827632 L1656686 827632 "/>
<path d="M1656686 925810 L1700866 925810 "/>
<path d="M1700866 925810 L1700866 827632 "/>
<path d="M1656686 827632 L1656686 925810 "/>
<path d="M1761354 1291034 L1761354 1335215 "/>
<path d="M1859532 1291034 L1761354 1291034 "/>
<path d="M1761354 1335215 L1859532 1335215 "/>
<path d="M1859532 1335215 L1859532 1291034 "/>
<path d="M1085227 1294775 L987049 1294775 "/>
<path d="M987049 1338955 L1085227 1338955 "/>
<path d="M987049 1294775 L987049 1338955 "/>
<path d="M1085227 1338955 L1085227 1294775 "/>
<path d="M1246466 924563 L1290646 924563 "/>
<path d="M1246466 826385 L1246466 924563 "/>
<path d="M1290646 826385 L1246466 826385 "/>
<path d="M1290646 924563 L1290646 826385 "/>
<path d="M2049557 900902 L1951378 900902 "/>
<path d="M1951378 900902 L1951378 962264 "/>
<path d="M2049557 962264 L2049557 900902 "/>
<path d="M1951378 962264 L2049557 962264 "/>
<path d="M1944643 1176460 L1944643 1237822 "/>
<path d="M2042822 1176460 L1944643 1176460 "/>
<path d="M2042822 1237822 L2042822 1176460 "/>
<path d="M1944643 1237822 L2042822 1237822 "/>
<path d="M1548345 925810 L1609707 925810 "/>
<path d="M1548345 827632 L1548345 925810 "/>
<path d="M1609707 925810 L1609707 827632 "/>
<path d="M1609707 827632 L1548345 827632 "/>
<path d="M2042822 1288678 L1944643 1288678 "/>
<path d="M1944643 1350040 L2042822 1350040 "/>
<path d="M1944643 1288678 L1944643 1350040 "/>
<path d="M2042822 1350040 L2042822 1288678 "/>
<path d="M1270588 989292 L1270588 1033473 "/>
<path d="M1368767 989292 L1270588 989292 "/>
<path d="M1368767 1033473 L1368767 989292 "/>
<path d="M1270588 1033473 L1368767 1033473 "/>
<path d="M1271835 759162 L1370014 759162 "/>
<path d="M1271835 714981 L1271835 759162 "/>
<path d="M1370014 759162 L1370014 714981 "/>
<path d="M1370014 714981 L1271835 714981 "/>
<path d="M1343859 826596 L1343859 924774 "/>
<path d="M1405221 826596 L1343859 826596 "/>
<path d="M1343859 924774 L1405221 924774 "/>
<path d="M1405221 924774 L1405221 826596 "/>
<path d="M789322 790343 L789322 851705 "/>
<path d="M789322 851705 L887501 851705 "/>
<path d="M887501 851705 L887501 790343 "/>
<path d="M887501 790343 L789322 790343 "/>
<path d="M1305108 1217400 L1260928 1217400 "/>
<path d="M1305108 1315579 L1305108 1217400 "/>
<path d="M1260928 1217400 L1260928 1315579 "/>
<path d="M1260928 1315579 L1305108 1315579 "/>
<g>
</g>
<g>
</g>
<g>
</g>
<g>
</g>
<g>
</g>
<g>
</g>
<g>
</g>
<g>
</g>
<g>
</g>
<g>
</g>
<g>
</g>
<g>
</g>
<g>
</g>
<g>
</g>
<g>
</g>
<g>
</g>
<g>
</g>
<g>
</g>
<g>
</g>
<g>
</g>
<g>
</g>
<g>
</g>
<g>
</g>
<g>
</g>
<g>
</g>
<g>
</g>
<g>
</g>
<g>
</g>
<g>
</g>
<g>
</g>
<g>
</g>
<g>
</g>
<g>
</g>
<g>
</g>
<g>
</g>
<g>
</g>
<g>
</g>
<g>
</g>
<g>
</g>
<g>
</g>
<g>
</g>
</g> 
<svg:g><svg:g><svg:title>SVG Picture created as BP02-Edge_Cuts.svg date 2023/07/05 12:38:14 </svg:title>
  <svg:desc>Picture generated by PCBNEW </svg:desc>
<svg:g style="fill:#C2C200; fill-opacity:1.000000;stroke:#C2C200; stroke-opacity:1.000000; stroke-linecap:round; stroke-linejoin:round;" transform="translate(0 0) scale(1 1)">
</svg:g>
<svg:g style="fill:#C2C200; fill-opacity:0.0;  stroke:#C2C200; stroke-width:0.000000; stroke-opacity:1;  stroke-linecap:round; stroke-linejoin:round;">
</svg:g>
<svg:g style="fill:#C2C200; fill-opacity:0.0;  stroke:#C2C200; stroke-width:2454.464315; stroke-opacity:1;  stroke-linecap:round; stroke-linejoin:round;">
<svg:path d="M1238 65010 L2968783 65010 "/>
<svg:path d="M2968783 65010 L2968783 2035061 "/>
<svg:path d="M2968783 2035061 L1238 2035061 "/>
<svg:path d="M1238 2035061 L1238 65010 "/>
<svg:g>
</svg:g>
<svg:g>
</svg:g>
<svg:g>
</svg:g>
<svg:g>
</svg:g>
<svg:g>
</svg:g>
<svg:g>
</svg:g>
<svg:g>
</svg:g>
<svg:g>
</svg:g>
<svg:g>
</svg:g>
<svg:g>
</svg:g>
<svg:g>
</svg:g>
<svg:g>
</svg:g>
<svg:g>
</svg:g>
<svg:g>
</svg:g>
<svg:g>
</svg:g>
<svg:g>
</svg:g>
<svg:g>
</svg:g>
<svg:g>
</svg:g>
<svg:g>
</svg:g>
<svg:g>
</svg:g>
<svg:g>
</svg:g>
<svg:g>
</svg:g>
<svg:g>
</svg:g>
<svg:g>
</svg:g>
<svg:g>
</svg:g>
<svg:g>
</svg:g>
<svg:g>
</svg:g>
<svg:g>
</svg:g>
<svg:g>
</svg:g>
<svg:g>
</svg:g>
<svg:g>
</svg:g>
<svg:g>
</svg:g>
<svg:g>
</svg:g>
<svg:g>
</svg:g>
<svg:g>
</svg:g>
<svg:g>
</svg:g>
<svg:g>
</svg:g>
<svg:g>
</svg:g>
<svg:g>
</svg:g>
<svg:g>
</svg:g>
<svg:g>
</svg:g>
</svg:g> 
</svg:g></svg:g></svg>
