<?xml version='1.0' encoding='ASCII' standalone='yes'?>
<svg xmlns:svg="http://www.w3.org/2000/svg" xmlns="http://www.w3.org/2000/svg" xmlns:xlink="http://www.w3.org/1999/xlink" version="1.1" width="29.700220cm" height="21.000720cm" viewBox="0 0 2970022 2100072">
<title>SVG Picture created as BP02-F_Fab.svg date 2023/07/05 12:38:14 </title>
  <desc>Picture generated by PCBNEW </desc>
<g style="fill:#848484; fill-opacity:1.000000;stroke:#848484; stroke-opacity:1.000000; stroke-linecap:round; stroke-linejoin:round;" transform="translate(0 0) scale(1 1)">
</g>
<g style="fill:#848484; fill-opacity:0.0;  stroke:#848484; stroke-width:0.000000; stroke-opacity:1;  stroke-linecap:round; stroke-linejoin:round;">
</g>
<g style="fill:#848484; fill-opacity:0.0;  stroke:#848484; stroke-width:7363.392946; stroke-opacity:1;  stroke-linecap:round; stroke-linejoin:round;">
<g transform="rotate(-90.000000 2652079.332320 1042554.777197)">
<text x="2652079.332320" y="1067099.420350" textLength="89258.362038" font-size="65452.365376" lengthAdjust="spacingAndGlyphs" text-anchor="middle" opacity="0.01" style="font-family:monospace">J1</text>
</g>
<g class="stroked-text"><desc>J1</desc>
<path d="M2678961 1058917 L2643897 1058917 L2636885 1061255 L2632209 1065930 L2629872 1072943 L2629872 1077618 "/>
<path d="M2629872 1009828 L2629872 1037879 "/>
<path d="M2629872 1023854 L2678961 1023854 L2671948 1028529 L2667273 1033204 L2664936 1037879 "/>
</g><g transform="rotate(-90.000000 493751.045651 1061257.795279)">
<text x="493751.045651" y="1085802.438432" textLength="93725.487091" font-size="65452.365376" lengthAdjust="spacingAndGlyphs" text-anchor="middle" opacity="0.01" style="font-family:monospace">J2</text>
</g>
<g class="stroked-text"><desc>J2</desc>
<path d="M520633 1077620 L485569 1077620 L478556 1079958 L473881 1084633 L471544 1091646 L471544 1096321 "/>
<path d="M515958 1056582 L518295 1054245 L520633 1049569 L520633 1037881 L518295 1033206 L515958 1030869 L511282 1028531 L506607 1028531 L499595 1030869 L471544 1058920 L471544 1028531 "/>
</g></g>
<g style="fill:#848484; fill-opacity:0.0;  stroke:#848484; stroke-width:18703.018082; stroke-opacity:1;  stroke-linecap:round; stroke-linejoin:round;">
<circle cx="2731878.876136" cy="301915.261148" r="147255.095699"/> 
<circle cx="238143.131863" cy="1798156.707712" r="147255.095699"/> 
</g>
<g style="fill:#848484; fill-opacity:0.0;  stroke:#848484; stroke-width:4908.928630; stroke-opacity:1;  stroke-linecap:round; stroke-linejoin:round;">
<path d="M2697270 643478 L2697270 1466411 "/>
<path d="M2697270 1466411 L2441663 1466411 "/>
<path d="M2441663 643478 L2697270 643478 "/>
<path d="M2441663 1466411 L2441663 643478 "/>
<path d="M538569 1466411 L282961 1466411 "/>
<path d="M282961 1466411 L282961 643478 "/>
<path d="M282961 643478 L538569 643478 "/>
<path d="M538569 643478 L538569 1466411 "/>
</g>
<g style="fill:#848484; fill-opacity:0.0;  stroke:#848484; stroke-width:18703.018082; stroke-opacity:1;  stroke-linecap:round; stroke-linejoin:round;">
<circle cx="2731878.876136" cy="1798156.707712" r="147255.095699"/> 
<circle cx="238143.131863" cy="301915.261148" r="147255.095699"/> 
<g>
</g>
<g>
</g>
<g>
</g>
<g>
</g>
<g>
</g>
<g>
</g>
<g>
</g>
<g>
</g>
<g>
</g>
<g>
</g>
<g>
</g>
<g>
</g>
<g>
</g>
<g>
</g>
<g>
</g>
<g>
</g>
<g>
</g>
<g>
</g>
<g>
</g>
<g>
</g>
<g>
</g>
<g>
</g>
<g>
</g>
<g>
</g>
<g>
</g>
<g>
</g>
<g>
</g>
<g>
</g>
<g>
</g>
<g>
</g>
<g>
</g>
<g>
</g>
<g>
</g>
<g>
</g>
<g>
</g>
<g>
</g>
<g>
</g>
<g>
</g>
<g>
</g>
<g>
</g>
<g>
</g>
</g> 
<svg:g><svg:g><svg:title>SVG Picture created as BP02-Edge_Cuts.svg date 2023/07/05 12:38:14 </svg:title>
  <svg:desc>Picture generated by PCBNEW </svg:desc>
<svg:g style="fill:#C2C200; fill-opacity:1.000000;stroke:#C2C200; stroke-opacity:1.000000; stroke-linecap:round; stroke-linejoin:round;" transform="translate(0 0) scale(1 1)">
</svg:g>
<svg:g style="fill:#C2C200; fill-opacity:0.0;  stroke:#C2C200; stroke-width:0.000000; stroke-opacity:1;  stroke-linecap:round; stroke-linejoin:round;">
</svg:g>
<svg:g style="fill:#C2C200; fill-opacity:0.0;  stroke:#C2C200; stroke-width:2454.464315; stroke-opacity:1;  stroke-linecap:round; stroke-linejoin:round;">
<svg:path d="M2968783 65010 L1238 65010 "/>
<svg:path d="M1238 65010 L1238 2035061 "/>
<svg:path d="M1238 2035061 L2968783 2035061 "/>
<svg:path d="M2968783 2035061 L2968783 65010 "/>
<svg:g>
</svg:g>
<svg:g>
</svg:g>
<svg:g>
</svg:g>
<svg:g>
</svg:g>
<svg:g>
</svg:g>
<svg:g>
</svg:g>
<svg:g>
</svg:g>
<svg:g>
</svg:g>
<svg:g>
</svg:g>
<svg:g>
</svg:g>
<svg:g>
</svg:g>
<svg:g>
</svg:g>
<svg:g>
</svg:g>
<svg:g>
</svg:g>
<svg:g>
</svg:g>
<svg:g>
</svg:g>
<svg:g>
</svg:g>
<svg:g>
</svg:g>
<svg:g>
</svg:g>
<svg:g>
</svg:g>
<svg:g>
</svg:g>
<svg:g>
</svg:g>
<svg:g>
</svg:g>
<svg:g>
</svg:g>
<svg:g>
</svg:g>
<svg:g>
</svg:g>
<svg:g>
</svg:g>
<svg:g>
</svg:g>
<svg:g>
</svg:g>
<svg:g>
</svg:g>
<svg:g>
</svg:g>
<svg:g>
</svg:g>
<svg:g>
</svg:g>
<svg:g>
</svg:g>
<svg:g>
</svg:g>
<svg:g>
</svg:g>
<svg:g>
</svg:g>
<svg:g>
</svg:g>
<svg:g>
</svg:g>
<svg:g>
</svg:g>
<svg:g>
</svg:g>
</svg:g> 
</svg:g></svg:g></svg>
