M48
; DRILL file {KiCad 6.0.11+dfsg-1~bpo11+1} date Wed Jul  5 12:36:45 2023
; FORMAT={3:3/ absolute / metric / suppress leading zeros}
; #@! TF.CreationDate,2023-07-05T12:36:45+00:00
; #@! TF.GenerationSoftware,Kicad,Pcbnew,6.0.11+dfsg-1~bpo11+1
; #@! TF.FileFunction,Plated,1,2,PTH
FMAT,2
METRIC,TZ
; #@! TA.AperFunction,Plated,PTH,ComponentDrill
T1C0.740
; #@! TA.AperFunction,Plated,PTH,ComponentDrill
T2C1.350
; #@! TA.AperFunction,Plated,PTH,ComponentDrill
T3C3.000
%
G90
G05
T1
X8349Y22760
X8349Y21490
X8349Y18950
X8349Y17680
X9849Y24030
X9849Y20220
X9849Y16410
X52324Y22760
X52324Y21490
X52324Y18950
X52324Y17680
X53824Y24030
X53824Y20220
X53824Y16410
T2
X7349Y13660
X8349Y26490
X51324Y13660
X52324Y26490
T3
X5080Y35560
X5080Y5080
X55880Y35560
X55880Y5080
T0
M30
