%TF.GenerationSoftware,KiCad,Pcbnew,6.0.11+dfsg-1~bpo11+1*%
%TF.CreationDate,2023-07-05T12:36:45+00:00*%
%TF.ProjectId,BP02,42503032-2e6b-4696-9361-645f70636258,rev?*%
%TF.SameCoordinates,Original*%
%TF.FileFunction,Copper,L1,Top*%
%TF.FilePolarity,Positive*%
%FSLAX46Y46*%
G04 Gerber Fmt 4.6, Leading zero omitted, Abs format (unit mm)*
G04 Created by KiCad (PCBNEW 6.0.11+dfsg-1~bpo11+1) date 2023-07-05 12:36:45*
%MOMM*%
%LPD*%
G01*
G04 APERTURE LIST*
%TA.AperFunction,ComponentPad*%
%ADD10C,6.000000*%
%TD*%
%TA.AperFunction,ComponentPad*%
%ADD11O,1.300000X1.100000*%
%TD*%
%TA.AperFunction,ComponentPad*%
%ADD12C,2.500000*%
%TD*%
%TA.AperFunction,Conductor*%
%ADD13C,0.254000*%
%TD*%
G04 APERTURE END LIST*
D10*
%TO.P,M1,1*%
%TO.N,GND*%
X5080000Y35560000D03*
%TD*%
%TO.P,M3,1*%
%TO.N,GND*%
X55880000Y5080000D03*
%TD*%
D11*
%TO.P,J1,1,1*%
%TO.N,GND*%
X9849000Y24030000D03*
%TO.P,J1,2,2*%
%TO.N,3rd_order_in_P*%
X8349000Y22760000D03*
%TO.P,J1,3,3*%
%TO.N,3rd_order_in_N*%
X8349000Y21490000D03*
%TO.P,J1,4,4*%
%TO.N,GND*%
X9849000Y20220000D03*
%TO.P,J1,5,5*%
%TO.N,2rd_order_in_P*%
X8349000Y18950000D03*
%TO.P,J1,6,6*%
%TO.N,2rd_order_in_N*%
X8349000Y17680000D03*
%TO.P,J1,7,7*%
%TO.N,GND*%
X9849000Y16410000D03*
D12*
%TO.P,J1,8,4*%
X7349000Y13660000D03*
%TO.P,J1,9,7*%
X8349000Y26490000D03*
%TD*%
D11*
%TO.P,J2,1,1*%
%TO.N,GND*%
X53824000Y24030000D03*
%TO.P,J2,2,2*%
%TO.N,3rd_order_out_P*%
X52324000Y22760000D03*
%TO.P,J2,3,3*%
%TO.N,3rd_order_out_N*%
X52324000Y21490000D03*
%TO.P,J2,4,4*%
%TO.N,GND*%
X53824000Y20220000D03*
%TO.P,J2,5,5*%
%TO.N,2rd_order_out_P*%
X52324000Y18950000D03*
%TO.P,J2,6,6*%
%TO.N,2rd_order_out_N*%
X52324000Y17680000D03*
%TO.P,J2,7,7*%
%TO.N,GND*%
X53824000Y16410000D03*
D12*
%TO.P,J2,8,4*%
X51324000Y13660000D03*
%TO.P,J2,9,7*%
X52324000Y26490000D03*
%TD*%
D10*
%TO.P,M4,1*%
%TO.N,GND*%
X5080000Y5080000D03*
%TD*%
%TO.P,M2,1*%
%TO.N,GND*%
X55880000Y35560000D03*
%TD*%
%TO.N,GND*%
D13*
X60071500Y888500D02*
X888500Y888500D01*
X888500Y12277031D01*
X6175337Y12277031D01*
X6180402Y12206216D01*
X6223953Y12148636D01*
X6340284Y12063339D01*
X6356121Y12053443D01*
X6587365Y11931779D01*
X6604492Y11924332D01*
X6851179Y11838185D01*
X6869218Y11833351D01*
X7125929Y11784613D01*
X7144484Y11782499D01*
X7405578Y11772241D01*
X7424242Y11772893D01*
X7683985Y11801339D01*
X7702348Y11804742D01*
X7955034Y11871269D01*
X7972692Y11877349D01*
X8212768Y11980494D01*
X8229333Y11989118D01*
X8451527Y12126616D01*
X8466635Y12137592D01*
X8483318Y12151715D01*
X8522387Y12210996D01*
X8523147Y12277031D01*
X50150337Y12277031D01*
X50155402Y12206216D01*
X50198953Y12148636D01*
X50315284Y12063339D01*
X50331121Y12053443D01*
X50562365Y11931779D01*
X50579492Y11924332D01*
X50826179Y11838185D01*
X50844218Y11833351D01*
X51100929Y11784613D01*
X51119484Y11782499D01*
X51380578Y11772241D01*
X51399242Y11772893D01*
X51658985Y11801339D01*
X51677348Y11804742D01*
X51930034Y11871269D01*
X51947692Y11877349D01*
X52187768Y11980494D01*
X52204333Y11989118D01*
X52426527Y12126616D01*
X52441635Y12137592D01*
X52458318Y12151715D01*
X52497387Y12210996D01*
X52498204Y12281987D01*
X52466002Y12336978D01*
X51413095Y13389885D01*
X51350783Y13423911D01*
X51279968Y13418846D01*
X51234905Y13389885D01*
X50184363Y12339343D01*
X50150337Y12277031D01*
X8523147Y12277031D01*
X8523204Y12281987D01*
X8491002Y12336978D01*
X7438095Y13389885D01*
X7375783Y13423911D01*
X7304968Y13418846D01*
X7259905Y13389885D01*
X6209363Y12339343D01*
X6175337Y12277031D01*
X888500Y12277031D01*
X888500Y13700103D01*
X5460819Y13700103D01*
X5473356Y13439108D01*
X5475632Y13420572D01*
X5526608Y13164296D01*
X5531599Y13146300D01*
X5619895Y12900375D01*
X5627491Y12883314D01*
X5751168Y12653140D01*
X5761202Y12637389D01*
X5838327Y12534106D01*
X5895112Y12491492D01*
X5965922Y12486343D01*
X6028380Y12520400D01*
X7078885Y13570905D01*
X7112911Y13633217D01*
X7109080Y13686783D01*
X7585089Y13686783D01*
X7590154Y13615968D01*
X7619115Y13570905D01*
X8672630Y12517390D01*
X8734942Y12483364D01*
X8805757Y12488429D01*
X8862593Y12530976D01*
X8867696Y12538322D01*
X9004264Y12750640D01*
X9013175Y12767052D01*
X9120494Y13005291D01*
X9126881Y13022840D01*
X9197808Y13274326D01*
X9201532Y13292627D01*
X9234507Y13551834D01*
X9235471Y13564437D01*
X9237887Y13656702D01*
X9237584Y13669338D01*
X9235298Y13700103D01*
X49435819Y13700103D01*
X49448356Y13439108D01*
X49450632Y13420572D01*
X49501608Y13164296D01*
X49506599Y13146300D01*
X49594895Y12900375D01*
X49602491Y12883314D01*
X49726168Y12653140D01*
X49736202Y12637389D01*
X49813327Y12534106D01*
X49870112Y12491492D01*
X49940922Y12486343D01*
X50003380Y12520400D01*
X51053885Y13570905D01*
X51087911Y13633217D01*
X51084080Y13686783D01*
X51560089Y13686783D01*
X51565154Y13615968D01*
X51594115Y13570905D01*
X52647630Y12517390D01*
X52709942Y12483364D01*
X52780757Y12488429D01*
X52837593Y12530976D01*
X52842696Y12538322D01*
X52979264Y12750640D01*
X52988175Y12767052D01*
X53095494Y13005291D01*
X53101881Y13022840D01*
X53172808Y13274326D01*
X53176532Y13292627D01*
X53209507Y13551834D01*
X53210471Y13564437D01*
X53212887Y13656702D01*
X53212584Y13669338D01*
X53193220Y13929916D01*
X53190459Y13948386D01*
X53132791Y14203239D01*
X53127331Y14221098D01*
X53032628Y14464628D01*
X53024588Y14481484D01*
X52894928Y14708341D01*
X52884485Y14723824D01*
X52833126Y14788972D01*
X52775244Y14830085D01*
X52704324Y14833379D01*
X52645081Y14800061D01*
X51594115Y13749095D01*
X51560089Y13686783D01*
X51084080Y13686783D01*
X51082846Y13704032D01*
X51053885Y13749095D01*
X50001604Y14801376D01*
X49939292Y14835402D01*
X49868477Y14830337D01*
X49815635Y14792850D01*
X49791897Y14764308D01*
X49781052Y14749104D01*
X49645499Y14525718D01*
X49637021Y14509079D01*
X49535975Y14268112D01*
X49530049Y14250401D01*
X49465730Y13997145D01*
X49462487Y13978754D01*
X49436308Y13718772D01*
X49435819Y13700103D01*
X9235298Y13700103D01*
X9218220Y13929916D01*
X9215459Y13948386D01*
X9157791Y14203239D01*
X9152331Y14221098D01*
X9057628Y14464628D01*
X9049588Y14481484D01*
X8919928Y14708341D01*
X8909485Y14723824D01*
X8858126Y14788972D01*
X8800244Y14830085D01*
X8729324Y14833379D01*
X8670081Y14800061D01*
X7619115Y13749095D01*
X7585089Y13686783D01*
X7109080Y13686783D01*
X7107846Y13704032D01*
X7078885Y13749095D01*
X6026604Y14801376D01*
X5964292Y14835402D01*
X5893477Y14830337D01*
X5840635Y14792850D01*
X5816897Y14764308D01*
X5806052Y14749104D01*
X5670499Y14525718D01*
X5662021Y14509079D01*
X5560975Y14268112D01*
X5555049Y14250401D01*
X5490730Y13997145D01*
X5487487Y13978754D01*
X5461308Y13718772D01*
X5460819Y13700103D01*
X888500Y13700103D01*
X888500Y15052937D01*
X6171655Y15052937D01*
X6201736Y14988628D01*
X6207109Y14982911D01*
X7259905Y13930115D01*
X7322217Y13896089D01*
X7393032Y13901154D01*
X7438095Y13930115D01*
X8489326Y14981346D01*
X8523352Y15043658D01*
X8522688Y15052937D01*
X50146655Y15052937D01*
X50176736Y14988628D01*
X50182109Y14982911D01*
X51234905Y13930115D01*
X51297217Y13896089D01*
X51368032Y13901154D01*
X51413095Y13930115D01*
X52464326Y14981346D01*
X52498352Y15043658D01*
X52493287Y15114473D01*
X52447050Y15173969D01*
X52290574Y15282520D01*
X52274483Y15291998D01*
X52040133Y15407566D01*
X52022818Y15414562D01*
X51773961Y15494222D01*
X51755802Y15498582D01*
X51497903Y15540584D01*
X51479298Y15542211D01*
X51218025Y15545631D01*
X51199385Y15544491D01*
X50940475Y15509255D01*
X50922208Y15505372D01*
X50671351Y15432254D01*
X50653857Y15425714D01*
X50416563Y15316319D01*
X50400230Y15307265D01*
X50202119Y15177378D01*
X50156118Y15123301D01*
X50146655Y15052937D01*
X8522688Y15052937D01*
X8518287Y15114473D01*
X8472050Y15173969D01*
X8315574Y15282520D01*
X8299483Y15291998D01*
X8065133Y15407566D01*
X8047818Y15414562D01*
X7798961Y15494222D01*
X7780802Y15498582D01*
X7522903Y15540584D01*
X7504298Y15542211D01*
X7243025Y15545631D01*
X7224385Y15544491D01*
X6965475Y15509255D01*
X6947208Y15505372D01*
X6696351Y15432254D01*
X6678857Y15425714D01*
X6441563Y15316319D01*
X6425230Y15307265D01*
X6227119Y15177378D01*
X6181118Y15123301D01*
X6171655Y15052937D01*
X888500Y15052937D01*
X888500Y16138068D01*
X8596120Y16138068D01*
X8599964Y16120425D01*
X8642419Y15976174D01*
X8651631Y15953374D01*
X8747758Y15769500D01*
X8761224Y15748923D01*
X8891235Y15587223D01*
X8908439Y15569654D01*
X9067381Y15436285D01*
X9087672Y15422391D01*
X9269492Y15322435D01*
X9292094Y15312748D01*
X9489866Y15250011D01*
X9513920Y15244898D01*
X9580955Y15237379D01*
X9650881Y15249663D01*
X9703065Y15297802D01*
X9720830Y15361981D01*
X9977000Y15361981D01*
X9997002Y15293860D01*
X10050658Y15247367D01*
X10115295Y15236582D01*
X10167789Y15241729D01*
X10191912Y15246506D01*
X10390541Y15306476D01*
X10413276Y15315847D01*
X10596474Y15413255D01*
X10616957Y15426863D01*
X10777746Y15557999D01*
X10795194Y15575326D01*
X10927450Y15735195D01*
X10941202Y15755583D01*
X11039886Y15938097D01*
X11049415Y15960765D01*
X11098317Y16118740D01*
X11098599Y16138068D01*
X52571120Y16138068D01*
X52574964Y16120425D01*
X52617419Y15976174D01*
X52626631Y15953374D01*
X52722758Y15769500D01*
X52736224Y15748923D01*
X52866235Y15587223D01*
X52883439Y15569654D01*
X53042381Y15436285D01*
X53062672Y15422391D01*
X53244492Y15322435D01*
X53267094Y15312748D01*
X53464866Y15250011D01*
X53488920Y15244898D01*
X53555955Y15237379D01*
X53625881Y15249663D01*
X53678065Y15297802D01*
X53695830Y15361981D01*
X53952000Y15361981D01*
X53972002Y15293860D01*
X54025658Y15247367D01*
X54090295Y15236582D01*
X54142789Y15241729D01*
X54166912Y15246506D01*
X54365541Y15306476D01*
X54388276Y15315847D01*
X54571474Y15413255D01*
X54591957Y15426863D01*
X54752746Y15557999D01*
X54770194Y15575326D01*
X54902450Y15735195D01*
X54916202Y15755583D01*
X55014886Y15938097D01*
X55024415Y15960765D01*
X55073317Y16118740D01*
X55074354Y16189729D01*
X55036846Y16250010D01*
X54972703Y16280442D01*
X54952952Y16282000D01*
X54078000Y16282000D01*
X54009879Y16261998D01*
X53963386Y16208342D01*
X53952000Y16156000D01*
X53952000Y15361981D01*
X53695830Y15361981D01*
X53696000Y15362594D01*
X53696000Y16156000D01*
X53675998Y16224121D01*
X53622342Y16270614D01*
X53570000Y16282000D01*
X52695838Y16282000D01*
X52627717Y16261998D01*
X52581224Y16208342D01*
X52571120Y16138068D01*
X11098599Y16138068D01*
X11099354Y16189729D01*
X11061846Y16250010D01*
X10997703Y16280442D01*
X10977952Y16282000D01*
X10103000Y16282000D01*
X10034879Y16261998D01*
X9988386Y16208342D01*
X9977000Y16156000D01*
X9977000Y15361981D01*
X9720830Y15361981D01*
X9721000Y15362594D01*
X9721000Y16156000D01*
X9700998Y16224121D01*
X9647342Y16270614D01*
X9595000Y16282000D01*
X8720838Y16282000D01*
X8652717Y16261998D01*
X8606224Y16208342D01*
X8596120Y16138068D01*
X888500Y16138068D01*
X888500Y17676005D01*
X7059923Y17676005D01*
X7078737Y17469277D01*
X7083344Y17445122D01*
X7141953Y17245985D01*
X7151165Y17223185D01*
X7247337Y17039225D01*
X7260802Y17018648D01*
X7390874Y16856871D01*
X7408080Y16839301D01*
X7567098Y16705869D01*
X7587388Y16691976D01*
X7769294Y16591972D01*
X7791897Y16582285D01*
X7989763Y16519519D01*
X8013816Y16514406D01*
X8175368Y16496285D01*
X8189413Y16495500D01*
X8501237Y16495500D01*
X8513533Y16496101D01*
X8667888Y16511236D01*
X8692009Y16516013D01*
X8764835Y16538000D01*
X9595000Y16538000D01*
X9663121Y16558002D01*
X9709614Y16611658D01*
X9721000Y16664000D01*
X9977000Y16664000D01*
X9997002Y16595879D01*
X10050658Y16549386D01*
X10103000Y16538000D01*
X10977162Y16538000D01*
X11045283Y16558002D01*
X11091776Y16611658D01*
X11101880Y16681932D01*
X11098036Y16699575D01*
X11055581Y16843826D01*
X11046369Y16866626D01*
X10950242Y17050500D01*
X10936776Y17071077D01*
X10806765Y17232777D01*
X10789561Y17250346D01*
X10630619Y17383715D01*
X10610328Y17397609D01*
X10428508Y17497565D01*
X10405906Y17507252D01*
X10208134Y17569989D01*
X10184080Y17575102D01*
X10117045Y17582621D01*
X10047119Y17570337D01*
X9994935Y17522198D01*
X9977000Y17457406D01*
X9977000Y16664000D01*
X9721000Y16664000D01*
X9721000Y17458019D01*
X9700998Y17526140D01*
X9647342Y17572633D01*
X9629106Y17575676D01*
X9637906Y17659405D01*
X9638021Y17676005D01*
X51034923Y17676005D01*
X51053737Y17469277D01*
X51058344Y17445122D01*
X51116953Y17245985D01*
X51126165Y17223185D01*
X51222337Y17039225D01*
X51235802Y17018648D01*
X51365874Y16856871D01*
X51383080Y16839301D01*
X51542098Y16705869D01*
X51562388Y16691976D01*
X51744294Y16591972D01*
X51766897Y16582285D01*
X51964763Y16519519D01*
X51988816Y16514406D01*
X52150368Y16496285D01*
X52164413Y16495500D01*
X52476237Y16495500D01*
X52488533Y16496101D01*
X52642888Y16511236D01*
X52667009Y16516013D01*
X52739835Y16538000D01*
X53570000Y16538000D01*
X53638121Y16558002D01*
X53684614Y16611658D01*
X53696000Y16664000D01*
X53952000Y16664000D01*
X53972002Y16595879D01*
X54025658Y16549386D01*
X54078000Y16538000D01*
X54952162Y16538000D01*
X55020283Y16558002D01*
X55066776Y16611658D01*
X55076880Y16681932D01*
X55073036Y16699575D01*
X55030581Y16843826D01*
X55021369Y16866626D01*
X54925242Y17050500D01*
X54911776Y17071077D01*
X54781765Y17232777D01*
X54764561Y17250346D01*
X54605619Y17383715D01*
X54585328Y17397609D01*
X54403508Y17497565D01*
X54380906Y17507252D01*
X54183134Y17569989D01*
X54159080Y17575102D01*
X54092045Y17582621D01*
X54022119Y17570337D01*
X53969935Y17522198D01*
X53952000Y17457406D01*
X53952000Y16664000D01*
X53696000Y16664000D01*
X53696000Y17458019D01*
X53675998Y17526140D01*
X53622342Y17572633D01*
X53604106Y17575676D01*
X53612906Y17659405D01*
X53613077Y17683995D01*
X53594263Y17890723D01*
X53589656Y17914878D01*
X53531047Y18114015D01*
X53521835Y18136815D01*
X53427988Y18316328D01*
X53515350Y18477902D01*
X53524879Y18500571D01*
X53586263Y18698870D01*
X53591208Y18722959D01*
X53612906Y18929405D01*
X53613077Y18953995D01*
X53603813Y19055786D01*
X53625881Y19059663D01*
X53678065Y19107802D01*
X53695830Y19171981D01*
X53952000Y19171981D01*
X53972002Y19103860D01*
X54025658Y19057367D01*
X54090295Y19046582D01*
X54142789Y19051729D01*
X54166912Y19056506D01*
X54365541Y19116476D01*
X54388276Y19125847D01*
X54571474Y19223255D01*
X54591957Y19236863D01*
X54752746Y19367999D01*
X54770194Y19385326D01*
X54902450Y19545195D01*
X54916202Y19565583D01*
X55014886Y19748097D01*
X55024415Y19770765D01*
X55073317Y19928740D01*
X55074354Y19999729D01*
X55036846Y20060010D01*
X54972703Y20090442D01*
X54952952Y20092000D01*
X54078000Y20092000D01*
X54009879Y20071998D01*
X53963386Y20018342D01*
X53952000Y19966000D01*
X53952000Y19171981D01*
X53695830Y19171981D01*
X53696000Y19172594D01*
X53696000Y19966000D01*
X53675998Y20034121D01*
X53622342Y20080614D01*
X53570000Y20092000D01*
X52741497Y20092000D01*
X52683237Y20110481D01*
X52659184Y20115594D01*
X52497632Y20133715D01*
X52483587Y20134500D01*
X52171763Y20134500D01*
X52159467Y20133899D01*
X52005112Y20118764D01*
X51980991Y20113987D01*
X51782268Y20053990D01*
X51759531Y20044619D01*
X51576247Y19947164D01*
X51555765Y19933556D01*
X51394900Y19802358D01*
X51377452Y19785031D01*
X51245133Y19625086D01*
X51231381Y19604698D01*
X51132650Y19422098D01*
X51123121Y19399429D01*
X51061737Y19201130D01*
X51056792Y19177041D01*
X51035094Y18970595D01*
X51034923Y18946005D01*
X51053737Y18739277D01*
X51058344Y18715122D01*
X51116953Y18515985D01*
X51126165Y18493185D01*
X51220012Y18313672D01*
X51132650Y18152098D01*
X51123121Y18129429D01*
X51061737Y17931130D01*
X51056792Y17907041D01*
X51035094Y17700595D01*
X51034923Y17676005D01*
X9638021Y17676005D01*
X9638077Y17683995D01*
X9619263Y17890723D01*
X9614656Y17914878D01*
X9556047Y18114015D01*
X9546835Y18136815D01*
X9452988Y18316328D01*
X9540350Y18477902D01*
X9549879Y18500571D01*
X9611263Y18698870D01*
X9616208Y18722959D01*
X9637906Y18929405D01*
X9638077Y18953995D01*
X9628813Y19055786D01*
X9650881Y19059663D01*
X9703065Y19107802D01*
X9720830Y19171981D01*
X9977000Y19171981D01*
X9997002Y19103860D01*
X10050658Y19057367D01*
X10115295Y19046582D01*
X10167789Y19051729D01*
X10191912Y19056506D01*
X10390541Y19116476D01*
X10413276Y19125847D01*
X10596474Y19223255D01*
X10616957Y19236863D01*
X10777746Y19367999D01*
X10795194Y19385326D01*
X10927450Y19545195D01*
X10941202Y19565583D01*
X11039886Y19748097D01*
X11049415Y19770765D01*
X11098317Y19928740D01*
X11099354Y19999729D01*
X11061846Y20060010D01*
X10997703Y20090442D01*
X10977952Y20092000D01*
X10103000Y20092000D01*
X10034879Y20071998D01*
X9988386Y20018342D01*
X9977000Y19966000D01*
X9977000Y19171981D01*
X9720830Y19171981D01*
X9721000Y19172594D01*
X9721000Y19966000D01*
X9700998Y20034121D01*
X9647342Y20080614D01*
X9595000Y20092000D01*
X8766497Y20092000D01*
X8708237Y20110481D01*
X8684184Y20115594D01*
X8522632Y20133715D01*
X8508587Y20134500D01*
X8196763Y20134500D01*
X8184467Y20133899D01*
X8030112Y20118764D01*
X8005991Y20113987D01*
X7807268Y20053990D01*
X7784531Y20044619D01*
X7601247Y19947164D01*
X7580765Y19933556D01*
X7419900Y19802358D01*
X7402452Y19785031D01*
X7270133Y19625086D01*
X7256381Y19604698D01*
X7157650Y19422098D01*
X7148121Y19399429D01*
X7086737Y19201130D01*
X7081792Y19177041D01*
X7060094Y18970595D01*
X7059923Y18946005D01*
X7078737Y18739277D01*
X7083344Y18715122D01*
X7141953Y18515985D01*
X7151165Y18493185D01*
X7245012Y18313672D01*
X7157650Y18152098D01*
X7148121Y18129429D01*
X7086737Y17931130D01*
X7081792Y17907041D01*
X7060094Y17700595D01*
X7059923Y17676005D01*
X888500Y17676005D01*
X888500Y21486005D01*
X7059923Y21486005D01*
X7078737Y21279277D01*
X7083344Y21255122D01*
X7141953Y21055985D01*
X7151165Y21033185D01*
X7247337Y20849225D01*
X7260802Y20828648D01*
X7390874Y20666871D01*
X7408080Y20649301D01*
X7567098Y20515869D01*
X7587388Y20501976D01*
X7769294Y20401972D01*
X7791897Y20392285D01*
X7989763Y20329519D01*
X8013816Y20324406D01*
X8175368Y20306285D01*
X8189413Y20305500D01*
X8501237Y20305500D01*
X8513533Y20306101D01*
X8667888Y20321236D01*
X8692009Y20326013D01*
X8764835Y20348000D01*
X9595000Y20348000D01*
X9663121Y20368002D01*
X9709614Y20421658D01*
X9721000Y20474000D01*
X9977000Y20474000D01*
X9997002Y20405879D01*
X10050658Y20359386D01*
X10103000Y20348000D01*
X10977162Y20348000D01*
X11045283Y20368002D01*
X11091776Y20421658D01*
X11101880Y20491932D01*
X11098036Y20509575D01*
X11055581Y20653826D01*
X11046369Y20676626D01*
X10950242Y20860500D01*
X10936776Y20881077D01*
X10806765Y21042777D01*
X10789561Y21060346D01*
X10630619Y21193715D01*
X10610328Y21207609D01*
X10428508Y21307565D01*
X10405906Y21317252D01*
X10208134Y21379989D01*
X10184080Y21385102D01*
X10117045Y21392621D01*
X10047119Y21380337D01*
X9994935Y21332198D01*
X9977000Y21267406D01*
X9977000Y20474000D01*
X9721000Y20474000D01*
X9721000Y21268019D01*
X9700998Y21336140D01*
X9647342Y21382633D01*
X9629106Y21385676D01*
X9637906Y21469405D01*
X9638021Y21486005D01*
X51034923Y21486005D01*
X51053737Y21279277D01*
X51058344Y21255122D01*
X51116953Y21055985D01*
X51126165Y21033185D01*
X51222337Y20849225D01*
X51235802Y20828648D01*
X51365874Y20666871D01*
X51383080Y20649301D01*
X51542098Y20515869D01*
X51562388Y20501976D01*
X51744294Y20401972D01*
X51766897Y20392285D01*
X51964763Y20329519D01*
X51988816Y20324406D01*
X52150368Y20306285D01*
X52164413Y20305500D01*
X52476237Y20305500D01*
X52488533Y20306101D01*
X52642888Y20321236D01*
X52667009Y20326013D01*
X52739835Y20348000D01*
X53570000Y20348000D01*
X53638121Y20368002D01*
X53684614Y20421658D01*
X53696000Y20474000D01*
X53952000Y20474000D01*
X53972002Y20405879D01*
X54025658Y20359386D01*
X54078000Y20348000D01*
X54952162Y20348000D01*
X55020283Y20368002D01*
X55066776Y20421658D01*
X55076880Y20491932D01*
X55073036Y20509575D01*
X55030581Y20653826D01*
X55021369Y20676626D01*
X54925242Y20860500D01*
X54911776Y20881077D01*
X54781765Y21042777D01*
X54764561Y21060346D01*
X54605619Y21193715D01*
X54585328Y21207609D01*
X54403508Y21307565D01*
X54380906Y21317252D01*
X54183134Y21379989D01*
X54159080Y21385102D01*
X54092045Y21392621D01*
X54022119Y21380337D01*
X53969935Y21332198D01*
X53952000Y21267406D01*
X53952000Y20474000D01*
X53696000Y20474000D01*
X53696000Y21268019D01*
X53675998Y21336140D01*
X53622342Y21382633D01*
X53604106Y21385676D01*
X53612906Y21469405D01*
X53613077Y21493995D01*
X53594263Y21700723D01*
X53589656Y21724878D01*
X53531047Y21924015D01*
X53521835Y21946815D01*
X53427988Y22126328D01*
X53515350Y22287902D01*
X53524879Y22310571D01*
X53586263Y22508870D01*
X53591208Y22532959D01*
X53612906Y22739405D01*
X53613077Y22763995D01*
X53603813Y22865786D01*
X53625881Y22869663D01*
X53678065Y22917802D01*
X53695830Y22981981D01*
X53952000Y22981981D01*
X53972002Y22913860D01*
X54025658Y22867367D01*
X54090295Y22856582D01*
X54142789Y22861729D01*
X54166912Y22866506D01*
X54365541Y22926476D01*
X54388276Y22935847D01*
X54571474Y23033255D01*
X54591957Y23046863D01*
X54752746Y23177999D01*
X54770194Y23195326D01*
X54902450Y23355195D01*
X54916202Y23375583D01*
X55014886Y23558097D01*
X55024415Y23580765D01*
X55073317Y23738740D01*
X55074354Y23809729D01*
X55036846Y23870010D01*
X54972703Y23900442D01*
X54952952Y23902000D01*
X54078000Y23902000D01*
X54009879Y23881998D01*
X53963386Y23828342D01*
X53952000Y23776000D01*
X53952000Y22981981D01*
X53695830Y22981981D01*
X53696000Y22982594D01*
X53696000Y23776000D01*
X53675998Y23844121D01*
X53622342Y23890614D01*
X53570000Y23902000D01*
X52741497Y23902000D01*
X52683237Y23920481D01*
X52659184Y23925594D01*
X52497632Y23943715D01*
X52483587Y23944500D01*
X52171763Y23944500D01*
X52159467Y23943899D01*
X52005112Y23928764D01*
X51980991Y23923987D01*
X51782268Y23863990D01*
X51759531Y23854619D01*
X51576247Y23757164D01*
X51555765Y23743556D01*
X51394900Y23612358D01*
X51377452Y23595031D01*
X51245133Y23435086D01*
X51231381Y23414698D01*
X51132650Y23232098D01*
X51123121Y23209429D01*
X51061737Y23011130D01*
X51056792Y22987041D01*
X51035094Y22780595D01*
X51034923Y22756005D01*
X51053737Y22549277D01*
X51058344Y22525122D01*
X51116953Y22325985D01*
X51126165Y22303185D01*
X51220012Y22123672D01*
X51132650Y21962098D01*
X51123121Y21939429D01*
X51061737Y21741130D01*
X51056792Y21717041D01*
X51035094Y21510595D01*
X51034923Y21486005D01*
X9638021Y21486005D01*
X9638077Y21493995D01*
X9619263Y21700723D01*
X9614656Y21724878D01*
X9556047Y21924015D01*
X9546835Y21946815D01*
X9452988Y22126328D01*
X9540350Y22287902D01*
X9549879Y22310571D01*
X9611263Y22508870D01*
X9616208Y22532959D01*
X9637906Y22739405D01*
X9638077Y22763995D01*
X9628813Y22865786D01*
X9650881Y22869663D01*
X9703065Y22917802D01*
X9720830Y22981981D01*
X9977000Y22981981D01*
X9997002Y22913860D01*
X10050658Y22867367D01*
X10115295Y22856582D01*
X10167789Y22861729D01*
X10191912Y22866506D01*
X10390541Y22926476D01*
X10413276Y22935847D01*
X10596474Y23033255D01*
X10616957Y23046863D01*
X10777746Y23177999D01*
X10795194Y23195326D01*
X10927450Y23355195D01*
X10941202Y23375583D01*
X11039886Y23558097D01*
X11049415Y23580765D01*
X11098317Y23738740D01*
X11099354Y23809729D01*
X11061846Y23870010D01*
X10997703Y23900442D01*
X10977952Y23902000D01*
X10103000Y23902000D01*
X10034879Y23881998D01*
X9988386Y23828342D01*
X9977000Y23776000D01*
X9977000Y22981981D01*
X9720830Y22981981D01*
X9721000Y22982594D01*
X9721000Y23776000D01*
X9700998Y23844121D01*
X9647342Y23890614D01*
X9595000Y23902000D01*
X8766497Y23902000D01*
X8708237Y23920481D01*
X8684184Y23925594D01*
X8522632Y23943715D01*
X8508587Y23944500D01*
X8196763Y23944500D01*
X8184467Y23943899D01*
X8030112Y23928764D01*
X8005991Y23923987D01*
X7807268Y23863990D01*
X7784531Y23854619D01*
X7601247Y23757164D01*
X7580765Y23743556D01*
X7419900Y23612358D01*
X7402452Y23595031D01*
X7270133Y23435086D01*
X7256381Y23414698D01*
X7157650Y23232098D01*
X7148121Y23209429D01*
X7086737Y23011130D01*
X7081792Y22987041D01*
X7060094Y22780595D01*
X7059923Y22756005D01*
X7078737Y22549277D01*
X7083344Y22525122D01*
X7141953Y22325985D01*
X7151165Y22303185D01*
X7245012Y22123672D01*
X7157650Y21962098D01*
X7148121Y21939429D01*
X7086737Y21741130D01*
X7081792Y21717041D01*
X7060094Y21510595D01*
X7059923Y21486005D01*
X888500Y21486005D01*
X888500Y25107031D01*
X7175337Y25107031D01*
X7180402Y25036216D01*
X7223953Y24978636D01*
X7340284Y24893339D01*
X7356121Y24883443D01*
X7587365Y24761779D01*
X7604492Y24754332D01*
X7851179Y24668185D01*
X7869218Y24663351D01*
X8125929Y24614613D01*
X8144484Y24612499D01*
X8405578Y24602241D01*
X8424242Y24602893D01*
X8683985Y24631339D01*
X8702348Y24634742D01*
X8734519Y24643212D01*
X8658114Y24501903D01*
X8648585Y24479235D01*
X8599683Y24321260D01*
X8598646Y24250271D01*
X8636154Y24189990D01*
X8700297Y24159558D01*
X8720048Y24158000D01*
X9595000Y24158000D01*
X9663121Y24178002D01*
X9709614Y24231658D01*
X9721000Y24284000D01*
X9977000Y24284000D01*
X9997002Y24215879D01*
X10050658Y24169386D01*
X10103000Y24158000D01*
X10977162Y24158000D01*
X11045283Y24178002D01*
X11091776Y24231658D01*
X11101880Y24301932D01*
X11098036Y24319575D01*
X11055581Y24463826D01*
X11046369Y24486626D01*
X10950242Y24670500D01*
X10936776Y24691077D01*
X10806765Y24852777D01*
X10789561Y24870346D01*
X10630619Y25003715D01*
X10610328Y25017609D01*
X10447669Y25107031D01*
X51150337Y25107031D01*
X51155402Y25036216D01*
X51198953Y24978636D01*
X51315284Y24893339D01*
X51331121Y24883443D01*
X51562365Y24761779D01*
X51579492Y24754332D01*
X51826179Y24668185D01*
X51844218Y24663351D01*
X52100929Y24614613D01*
X52119484Y24612499D01*
X52380578Y24602241D01*
X52399242Y24602893D01*
X52658985Y24631339D01*
X52677348Y24634742D01*
X52709519Y24643212D01*
X52633114Y24501903D01*
X52623585Y24479235D01*
X52574683Y24321260D01*
X52573646Y24250271D01*
X52611154Y24189990D01*
X52675297Y24159558D01*
X52695048Y24158000D01*
X53570000Y24158000D01*
X53638121Y24178002D01*
X53684614Y24231658D01*
X53696000Y24284000D01*
X53952000Y24284000D01*
X53972002Y24215879D01*
X54025658Y24169386D01*
X54078000Y24158000D01*
X54952162Y24158000D01*
X55020283Y24178002D01*
X55066776Y24231658D01*
X55076880Y24301932D01*
X55073036Y24319575D01*
X55030581Y24463826D01*
X55021369Y24486626D01*
X54925242Y24670500D01*
X54911776Y24691077D01*
X54781765Y24852777D01*
X54764561Y24870346D01*
X54605619Y25003715D01*
X54585328Y25017609D01*
X54403508Y25117565D01*
X54380906Y25127252D01*
X54183134Y25189989D01*
X54159080Y25195102D01*
X54092045Y25202621D01*
X54022119Y25190337D01*
X53969935Y25142198D01*
X53952000Y25077406D01*
X53952000Y24284000D01*
X53696000Y24284000D01*
X53696000Y25078019D01*
X53675998Y25146140D01*
X53622342Y25192633D01*
X53557705Y25203418D01*
X53505211Y25198271D01*
X53481088Y25193494D01*
X53449134Y25183846D01*
X52413095Y26219885D01*
X52350783Y26253911D01*
X52279968Y26248846D01*
X52234905Y26219885D01*
X51184363Y25169343D01*
X51150337Y25107031D01*
X10447669Y25107031D01*
X10428508Y25117565D01*
X10405906Y25127252D01*
X10208134Y25189989D01*
X10184080Y25195102D01*
X10117045Y25202621D01*
X10047119Y25190337D01*
X9994935Y25142198D01*
X9977000Y25077406D01*
X9977000Y24284000D01*
X9721000Y24284000D01*
X9721000Y25078019D01*
X9700998Y25146140D01*
X9647342Y25192633D01*
X9582705Y25203418D01*
X9530211Y25198271D01*
X9506088Y25193494D01*
X9474134Y25183846D01*
X8438095Y26219885D01*
X8375783Y26253911D01*
X8304968Y26248846D01*
X8259905Y26219885D01*
X7209363Y25169343D01*
X7175337Y25107031D01*
X888500Y25107031D01*
X888500Y26530103D01*
X6460819Y26530103D01*
X6473356Y26269108D01*
X6475632Y26250572D01*
X6526608Y25994296D01*
X6531599Y25976300D01*
X6619895Y25730375D01*
X6627491Y25713314D01*
X6751168Y25483140D01*
X6761202Y25467389D01*
X6838327Y25364106D01*
X6895112Y25321492D01*
X6965922Y25316343D01*
X7028380Y25350400D01*
X8078885Y26400905D01*
X8112911Y26463217D01*
X8109080Y26516783D01*
X8585089Y26516783D01*
X8590154Y26445968D01*
X8619115Y26400905D01*
X9672630Y25347390D01*
X9734942Y25313364D01*
X9805757Y25318429D01*
X9862593Y25360976D01*
X9867696Y25368322D01*
X10004264Y25580640D01*
X10013175Y25597052D01*
X10120494Y25835291D01*
X10126881Y25852840D01*
X10197808Y26104326D01*
X10201532Y26122627D01*
X10234507Y26381834D01*
X10235471Y26394437D01*
X10237887Y26486702D01*
X10237584Y26499338D01*
X10235298Y26530103D01*
X50435819Y26530103D01*
X50448356Y26269108D01*
X50450632Y26250572D01*
X50501608Y25994296D01*
X50506599Y25976300D01*
X50594895Y25730375D01*
X50602491Y25713314D01*
X50726168Y25483140D01*
X50736202Y25467389D01*
X50813327Y25364106D01*
X50870112Y25321492D01*
X50940922Y25316343D01*
X51003380Y25350400D01*
X52053885Y26400905D01*
X52087911Y26463217D01*
X52084080Y26516783D01*
X52560089Y26516783D01*
X52565154Y26445968D01*
X52594115Y26400905D01*
X53647630Y25347390D01*
X53709942Y25313364D01*
X53780757Y25318429D01*
X53837593Y25360976D01*
X53842696Y25368322D01*
X53979264Y25580640D01*
X53988175Y25597052D01*
X54095494Y25835291D01*
X54101881Y25852840D01*
X54172808Y26104326D01*
X54176532Y26122627D01*
X54209507Y26381834D01*
X54210471Y26394437D01*
X54212887Y26486702D01*
X54212584Y26499338D01*
X54193220Y26759916D01*
X54190459Y26778386D01*
X54132791Y27033239D01*
X54127331Y27051098D01*
X54032628Y27294628D01*
X54024588Y27311484D01*
X53894928Y27538341D01*
X53884485Y27553824D01*
X53833126Y27618972D01*
X53775244Y27660085D01*
X53704324Y27663379D01*
X53645081Y27630061D01*
X52594115Y26579095D01*
X52560089Y26516783D01*
X52084080Y26516783D01*
X52082846Y26534032D01*
X52053885Y26579095D01*
X51001604Y27631376D01*
X50939292Y27665402D01*
X50868477Y27660337D01*
X50815635Y27622850D01*
X50791897Y27594308D01*
X50781052Y27579104D01*
X50645499Y27355718D01*
X50637021Y27339079D01*
X50535975Y27098112D01*
X50530049Y27080401D01*
X50465730Y26827145D01*
X50462487Y26808754D01*
X50436308Y26548772D01*
X50435819Y26530103D01*
X10235298Y26530103D01*
X10218220Y26759916D01*
X10215459Y26778386D01*
X10157791Y27033239D01*
X10152331Y27051098D01*
X10057628Y27294628D01*
X10049588Y27311484D01*
X9919928Y27538341D01*
X9909485Y27553824D01*
X9858126Y27618972D01*
X9800244Y27660085D01*
X9729324Y27663379D01*
X9670081Y27630061D01*
X8619115Y26579095D01*
X8585089Y26516783D01*
X8109080Y26516783D01*
X8107846Y26534032D01*
X8078885Y26579095D01*
X7026604Y27631376D01*
X6964292Y27665402D01*
X6893477Y27660337D01*
X6840635Y27622850D01*
X6816897Y27594308D01*
X6806052Y27579104D01*
X6670499Y27355718D01*
X6662021Y27339079D01*
X6560975Y27098112D01*
X6555049Y27080401D01*
X6490730Y26827145D01*
X6487487Y26808754D01*
X6461308Y26548772D01*
X6460819Y26530103D01*
X888500Y26530103D01*
X888500Y27882937D01*
X7171655Y27882937D01*
X7201736Y27818628D01*
X7207109Y27812911D01*
X8259905Y26760115D01*
X8322217Y26726089D01*
X8393032Y26731154D01*
X8438095Y26760115D01*
X9489326Y27811346D01*
X9523352Y27873658D01*
X9522688Y27882937D01*
X51146655Y27882937D01*
X51176736Y27818628D01*
X51182109Y27812911D01*
X52234905Y26760115D01*
X52297217Y26726089D01*
X52368032Y26731154D01*
X52413095Y26760115D01*
X53464326Y27811346D01*
X53498352Y27873658D01*
X53493287Y27944473D01*
X53447050Y28003969D01*
X53290574Y28112520D01*
X53274483Y28121998D01*
X53040133Y28237566D01*
X53022818Y28244562D01*
X52773961Y28324222D01*
X52755802Y28328582D01*
X52497903Y28370584D01*
X52479298Y28372211D01*
X52218025Y28375631D01*
X52199385Y28374491D01*
X51940475Y28339255D01*
X51922208Y28335372D01*
X51671351Y28262254D01*
X51653857Y28255714D01*
X51416563Y28146319D01*
X51400230Y28137265D01*
X51202119Y28007378D01*
X51156118Y27953301D01*
X51146655Y27882937D01*
X9522688Y27882937D01*
X9518287Y27944473D01*
X9472050Y28003969D01*
X9315574Y28112520D01*
X9299483Y28121998D01*
X9065133Y28237566D01*
X9047818Y28244562D01*
X8798961Y28324222D01*
X8780802Y28328582D01*
X8522903Y28370584D01*
X8504298Y28372211D01*
X8243025Y28375631D01*
X8224385Y28374491D01*
X7965475Y28339255D01*
X7947208Y28335372D01*
X7696351Y28262254D01*
X7678857Y28255714D01*
X7441563Y28146319D01*
X7425230Y28137265D01*
X7227119Y28007378D01*
X7181118Y27953301D01*
X7171655Y27882937D01*
X888500Y27882937D01*
X888500Y39751500D01*
X60071500Y39751500D01*
X60071500Y888500D01*
X60071500Y888500D02*
X60071500Y39751500D01*
%TA.AperFunction,Conductor*%
G36*
X60071500Y888500D02*
G01*
X888500Y888500D01*
X888500Y12277031D01*
X6175337Y12277031D01*
X6180402Y12206216D01*
X6223953Y12148636D01*
X6340284Y12063339D01*
X6356121Y12053443D01*
X6587365Y11931779D01*
X6604492Y11924332D01*
X6851179Y11838185D01*
X6869218Y11833351D01*
X7125929Y11784613D01*
X7144484Y11782499D01*
X7405578Y11772241D01*
X7424242Y11772893D01*
X7683985Y11801339D01*
X7702348Y11804742D01*
X7955034Y11871269D01*
X7972692Y11877349D01*
X8212768Y11980494D01*
X8229333Y11989118D01*
X8451527Y12126616D01*
X8466635Y12137592D01*
X8483318Y12151715D01*
X8522387Y12210996D01*
X8523147Y12277031D01*
X50150337Y12277031D01*
X50155402Y12206216D01*
X50198953Y12148636D01*
X50315284Y12063339D01*
X50331121Y12053443D01*
X50562365Y11931779D01*
X50579492Y11924332D01*
X50826179Y11838185D01*
X50844218Y11833351D01*
X51100929Y11784613D01*
X51119484Y11782499D01*
X51380578Y11772241D01*
X51399242Y11772893D01*
X51658985Y11801339D01*
X51677348Y11804742D01*
X51930034Y11871269D01*
X51947692Y11877349D01*
X52187768Y11980494D01*
X52204333Y11989118D01*
X52426527Y12126616D01*
X52441635Y12137592D01*
X52458318Y12151715D01*
X52497387Y12210996D01*
X52498204Y12281987D01*
X52466002Y12336978D01*
X51413095Y13389885D01*
X51350783Y13423911D01*
X51279968Y13418846D01*
X51234905Y13389885D01*
X50184363Y12339343D01*
X50150337Y12277031D01*
X8523147Y12277031D01*
X8523204Y12281987D01*
X8491002Y12336978D01*
X7438095Y13389885D01*
X7375783Y13423911D01*
X7304968Y13418846D01*
X7259905Y13389885D01*
X6209363Y12339343D01*
X6175337Y12277031D01*
X888500Y12277031D01*
X888500Y13700103D01*
X5460819Y13700103D01*
X5473356Y13439108D01*
X5475632Y13420572D01*
X5526608Y13164296D01*
X5531599Y13146300D01*
X5619895Y12900375D01*
X5627491Y12883314D01*
X5751168Y12653140D01*
X5761202Y12637389D01*
X5838327Y12534106D01*
X5895112Y12491492D01*
X5965922Y12486343D01*
X6028380Y12520400D01*
X7078885Y13570905D01*
X7112911Y13633217D01*
X7109080Y13686783D01*
X7585089Y13686783D01*
X7590154Y13615968D01*
X7619115Y13570905D01*
X8672630Y12517390D01*
X8734942Y12483364D01*
X8805757Y12488429D01*
X8862593Y12530976D01*
X8867696Y12538322D01*
X9004264Y12750640D01*
X9013175Y12767052D01*
X9120494Y13005291D01*
X9126881Y13022840D01*
X9197808Y13274326D01*
X9201532Y13292627D01*
X9234507Y13551834D01*
X9235471Y13564437D01*
X9237887Y13656702D01*
X9237584Y13669338D01*
X9235298Y13700103D01*
X49435819Y13700103D01*
X49448356Y13439108D01*
X49450632Y13420572D01*
X49501608Y13164296D01*
X49506599Y13146300D01*
X49594895Y12900375D01*
X49602491Y12883314D01*
X49726168Y12653140D01*
X49736202Y12637389D01*
X49813327Y12534106D01*
X49870112Y12491492D01*
X49940922Y12486343D01*
X50003380Y12520400D01*
X51053885Y13570905D01*
X51087911Y13633217D01*
X51084080Y13686783D01*
X51560089Y13686783D01*
X51565154Y13615968D01*
X51594115Y13570905D01*
X52647630Y12517390D01*
X52709942Y12483364D01*
X52780757Y12488429D01*
X52837593Y12530976D01*
X52842696Y12538322D01*
X52979264Y12750640D01*
X52988175Y12767052D01*
X53095494Y13005291D01*
X53101881Y13022840D01*
X53172808Y13274326D01*
X53176532Y13292627D01*
X53209507Y13551834D01*
X53210471Y13564437D01*
X53212887Y13656702D01*
X53212584Y13669338D01*
X53193220Y13929916D01*
X53190459Y13948386D01*
X53132791Y14203239D01*
X53127331Y14221098D01*
X53032628Y14464628D01*
X53024588Y14481484D01*
X52894928Y14708341D01*
X52884485Y14723824D01*
X52833126Y14788972D01*
X52775244Y14830085D01*
X52704324Y14833379D01*
X52645081Y14800061D01*
X51594115Y13749095D01*
X51560089Y13686783D01*
X51084080Y13686783D01*
X51082846Y13704032D01*
X51053885Y13749095D01*
X50001604Y14801376D01*
X49939292Y14835402D01*
X49868477Y14830337D01*
X49815635Y14792850D01*
X49791897Y14764308D01*
X49781052Y14749104D01*
X49645499Y14525718D01*
X49637021Y14509079D01*
X49535975Y14268112D01*
X49530049Y14250401D01*
X49465730Y13997145D01*
X49462487Y13978754D01*
X49436308Y13718772D01*
X49435819Y13700103D01*
X9235298Y13700103D01*
X9218220Y13929916D01*
X9215459Y13948386D01*
X9157791Y14203239D01*
X9152331Y14221098D01*
X9057628Y14464628D01*
X9049588Y14481484D01*
X8919928Y14708341D01*
X8909485Y14723824D01*
X8858126Y14788972D01*
X8800244Y14830085D01*
X8729324Y14833379D01*
X8670081Y14800061D01*
X7619115Y13749095D01*
X7585089Y13686783D01*
X7109080Y13686783D01*
X7107846Y13704032D01*
X7078885Y13749095D01*
X6026604Y14801376D01*
X5964292Y14835402D01*
X5893477Y14830337D01*
X5840635Y14792850D01*
X5816897Y14764308D01*
X5806052Y14749104D01*
X5670499Y14525718D01*
X5662021Y14509079D01*
X5560975Y14268112D01*
X5555049Y14250401D01*
X5490730Y13997145D01*
X5487487Y13978754D01*
X5461308Y13718772D01*
X5460819Y13700103D01*
X888500Y13700103D01*
X888500Y15052937D01*
X6171655Y15052937D01*
X6201736Y14988628D01*
X6207109Y14982911D01*
X7259905Y13930115D01*
X7322217Y13896089D01*
X7393032Y13901154D01*
X7438095Y13930115D01*
X8489326Y14981346D01*
X8523352Y15043658D01*
X8522688Y15052937D01*
X50146655Y15052937D01*
X50176736Y14988628D01*
X50182109Y14982911D01*
X51234905Y13930115D01*
X51297217Y13896089D01*
X51368032Y13901154D01*
X51413095Y13930115D01*
X52464326Y14981346D01*
X52498352Y15043658D01*
X52493287Y15114473D01*
X52447050Y15173969D01*
X52290574Y15282520D01*
X52274483Y15291998D01*
X52040133Y15407566D01*
X52022818Y15414562D01*
X51773961Y15494222D01*
X51755802Y15498582D01*
X51497903Y15540584D01*
X51479298Y15542211D01*
X51218025Y15545631D01*
X51199385Y15544491D01*
X50940475Y15509255D01*
X50922208Y15505372D01*
X50671351Y15432254D01*
X50653857Y15425714D01*
X50416563Y15316319D01*
X50400230Y15307265D01*
X50202119Y15177378D01*
X50156118Y15123301D01*
X50146655Y15052937D01*
X8522688Y15052937D01*
X8518287Y15114473D01*
X8472050Y15173969D01*
X8315574Y15282520D01*
X8299483Y15291998D01*
X8065133Y15407566D01*
X8047818Y15414562D01*
X7798961Y15494222D01*
X7780802Y15498582D01*
X7522903Y15540584D01*
X7504298Y15542211D01*
X7243025Y15545631D01*
X7224385Y15544491D01*
X6965475Y15509255D01*
X6947208Y15505372D01*
X6696351Y15432254D01*
X6678857Y15425714D01*
X6441563Y15316319D01*
X6425230Y15307265D01*
X6227119Y15177378D01*
X6181118Y15123301D01*
X6171655Y15052937D01*
X888500Y15052937D01*
X888500Y16138068D01*
X8596120Y16138068D01*
X8599964Y16120425D01*
X8642419Y15976174D01*
X8651631Y15953374D01*
X8747758Y15769500D01*
X8761224Y15748923D01*
X8891235Y15587223D01*
X8908439Y15569654D01*
X9067381Y15436285D01*
X9087672Y15422391D01*
X9269492Y15322435D01*
X9292094Y15312748D01*
X9489866Y15250011D01*
X9513920Y15244898D01*
X9580955Y15237379D01*
X9650881Y15249663D01*
X9703065Y15297802D01*
X9720830Y15361981D01*
X9977000Y15361981D01*
X9997002Y15293860D01*
X10050658Y15247367D01*
X10115295Y15236582D01*
X10167789Y15241729D01*
X10191912Y15246506D01*
X10390541Y15306476D01*
X10413276Y15315847D01*
X10596474Y15413255D01*
X10616957Y15426863D01*
X10777746Y15557999D01*
X10795194Y15575326D01*
X10927450Y15735195D01*
X10941202Y15755583D01*
X11039886Y15938097D01*
X11049415Y15960765D01*
X11098317Y16118740D01*
X11098599Y16138068D01*
X52571120Y16138068D01*
X52574964Y16120425D01*
X52617419Y15976174D01*
X52626631Y15953374D01*
X52722758Y15769500D01*
X52736224Y15748923D01*
X52866235Y15587223D01*
X52883439Y15569654D01*
X53042381Y15436285D01*
X53062672Y15422391D01*
X53244492Y15322435D01*
X53267094Y15312748D01*
X53464866Y15250011D01*
X53488920Y15244898D01*
X53555955Y15237379D01*
X53625881Y15249663D01*
X53678065Y15297802D01*
X53695830Y15361981D01*
X53952000Y15361981D01*
X53972002Y15293860D01*
X54025658Y15247367D01*
X54090295Y15236582D01*
X54142789Y15241729D01*
X54166912Y15246506D01*
X54365541Y15306476D01*
X54388276Y15315847D01*
X54571474Y15413255D01*
X54591957Y15426863D01*
X54752746Y15557999D01*
X54770194Y15575326D01*
X54902450Y15735195D01*
X54916202Y15755583D01*
X55014886Y15938097D01*
X55024415Y15960765D01*
X55073317Y16118740D01*
X55074354Y16189729D01*
X55036846Y16250010D01*
X54972703Y16280442D01*
X54952952Y16282000D01*
X54078000Y16282000D01*
X54009879Y16261998D01*
X53963386Y16208342D01*
X53952000Y16156000D01*
X53952000Y15361981D01*
X53695830Y15361981D01*
X53696000Y15362594D01*
X53696000Y16156000D01*
X53675998Y16224121D01*
X53622342Y16270614D01*
X53570000Y16282000D01*
X52695838Y16282000D01*
X52627717Y16261998D01*
X52581224Y16208342D01*
X52571120Y16138068D01*
X11098599Y16138068D01*
X11099354Y16189729D01*
X11061846Y16250010D01*
X10997703Y16280442D01*
X10977952Y16282000D01*
X10103000Y16282000D01*
X10034879Y16261998D01*
X9988386Y16208342D01*
X9977000Y16156000D01*
X9977000Y15361981D01*
X9720830Y15361981D01*
X9721000Y15362594D01*
X9721000Y16156000D01*
X9700998Y16224121D01*
X9647342Y16270614D01*
X9595000Y16282000D01*
X8720838Y16282000D01*
X8652717Y16261998D01*
X8606224Y16208342D01*
X8596120Y16138068D01*
X888500Y16138068D01*
X888500Y17676005D01*
X7059923Y17676005D01*
X7078737Y17469277D01*
X7083344Y17445122D01*
X7141953Y17245985D01*
X7151165Y17223185D01*
X7247337Y17039225D01*
X7260802Y17018648D01*
X7390874Y16856871D01*
X7408080Y16839301D01*
X7567098Y16705869D01*
X7587388Y16691976D01*
X7769294Y16591972D01*
X7791897Y16582285D01*
X7989763Y16519519D01*
X8013816Y16514406D01*
X8175368Y16496285D01*
X8189413Y16495500D01*
X8501237Y16495500D01*
X8513533Y16496101D01*
X8667888Y16511236D01*
X8692009Y16516013D01*
X8764835Y16538000D01*
X9595000Y16538000D01*
X9663121Y16558002D01*
X9709614Y16611658D01*
X9721000Y16664000D01*
X9977000Y16664000D01*
X9997002Y16595879D01*
X10050658Y16549386D01*
X10103000Y16538000D01*
X10977162Y16538000D01*
X11045283Y16558002D01*
X11091776Y16611658D01*
X11101880Y16681932D01*
X11098036Y16699575D01*
X11055581Y16843826D01*
X11046369Y16866626D01*
X10950242Y17050500D01*
X10936776Y17071077D01*
X10806765Y17232777D01*
X10789561Y17250346D01*
X10630619Y17383715D01*
X10610328Y17397609D01*
X10428508Y17497565D01*
X10405906Y17507252D01*
X10208134Y17569989D01*
X10184080Y17575102D01*
X10117045Y17582621D01*
X10047119Y17570337D01*
X9994935Y17522198D01*
X9977000Y17457406D01*
X9977000Y16664000D01*
X9721000Y16664000D01*
X9721000Y17458019D01*
X9700998Y17526140D01*
X9647342Y17572633D01*
X9629106Y17575676D01*
X9637906Y17659405D01*
X9638021Y17676005D01*
X51034923Y17676005D01*
X51053737Y17469277D01*
X51058344Y17445122D01*
X51116953Y17245985D01*
X51126165Y17223185D01*
X51222337Y17039225D01*
X51235802Y17018648D01*
X51365874Y16856871D01*
X51383080Y16839301D01*
X51542098Y16705869D01*
X51562388Y16691976D01*
X51744294Y16591972D01*
X51766897Y16582285D01*
X51964763Y16519519D01*
X51988816Y16514406D01*
X52150368Y16496285D01*
X52164413Y16495500D01*
X52476237Y16495500D01*
X52488533Y16496101D01*
X52642888Y16511236D01*
X52667009Y16516013D01*
X52739835Y16538000D01*
X53570000Y16538000D01*
X53638121Y16558002D01*
X53684614Y16611658D01*
X53696000Y16664000D01*
X53952000Y16664000D01*
X53972002Y16595879D01*
X54025658Y16549386D01*
X54078000Y16538000D01*
X54952162Y16538000D01*
X55020283Y16558002D01*
X55066776Y16611658D01*
X55076880Y16681932D01*
X55073036Y16699575D01*
X55030581Y16843826D01*
X55021369Y16866626D01*
X54925242Y17050500D01*
X54911776Y17071077D01*
X54781765Y17232777D01*
X54764561Y17250346D01*
X54605619Y17383715D01*
X54585328Y17397609D01*
X54403508Y17497565D01*
X54380906Y17507252D01*
X54183134Y17569989D01*
X54159080Y17575102D01*
X54092045Y17582621D01*
X54022119Y17570337D01*
X53969935Y17522198D01*
X53952000Y17457406D01*
X53952000Y16664000D01*
X53696000Y16664000D01*
X53696000Y17458019D01*
X53675998Y17526140D01*
X53622342Y17572633D01*
X53604106Y17575676D01*
X53612906Y17659405D01*
X53613077Y17683995D01*
X53594263Y17890723D01*
X53589656Y17914878D01*
X53531047Y18114015D01*
X53521835Y18136815D01*
X53427988Y18316328D01*
X53515350Y18477902D01*
X53524879Y18500571D01*
X53586263Y18698870D01*
X53591208Y18722959D01*
X53612906Y18929405D01*
X53613077Y18953995D01*
X53603813Y19055786D01*
X53625881Y19059663D01*
X53678065Y19107802D01*
X53695830Y19171981D01*
X53952000Y19171981D01*
X53972002Y19103860D01*
X54025658Y19057367D01*
X54090295Y19046582D01*
X54142789Y19051729D01*
X54166912Y19056506D01*
X54365541Y19116476D01*
X54388276Y19125847D01*
X54571474Y19223255D01*
X54591957Y19236863D01*
X54752746Y19367999D01*
X54770194Y19385326D01*
X54902450Y19545195D01*
X54916202Y19565583D01*
X55014886Y19748097D01*
X55024415Y19770765D01*
X55073317Y19928740D01*
X55074354Y19999729D01*
X55036846Y20060010D01*
X54972703Y20090442D01*
X54952952Y20092000D01*
X54078000Y20092000D01*
X54009879Y20071998D01*
X53963386Y20018342D01*
X53952000Y19966000D01*
X53952000Y19171981D01*
X53695830Y19171981D01*
X53696000Y19172594D01*
X53696000Y19966000D01*
X53675998Y20034121D01*
X53622342Y20080614D01*
X53570000Y20092000D01*
X52741497Y20092000D01*
X52683237Y20110481D01*
X52659184Y20115594D01*
X52497632Y20133715D01*
X52483587Y20134500D01*
X52171763Y20134500D01*
X52159467Y20133899D01*
X52005112Y20118764D01*
X51980991Y20113987D01*
X51782268Y20053990D01*
X51759531Y20044619D01*
X51576247Y19947164D01*
X51555765Y19933556D01*
X51394900Y19802358D01*
X51377452Y19785031D01*
X51245133Y19625086D01*
X51231381Y19604698D01*
X51132650Y19422098D01*
X51123121Y19399429D01*
X51061737Y19201130D01*
X51056792Y19177041D01*
X51035094Y18970595D01*
X51034923Y18946005D01*
X51053737Y18739277D01*
X51058344Y18715122D01*
X51116953Y18515985D01*
X51126165Y18493185D01*
X51220012Y18313672D01*
X51132650Y18152098D01*
X51123121Y18129429D01*
X51061737Y17931130D01*
X51056792Y17907041D01*
X51035094Y17700595D01*
X51034923Y17676005D01*
X9638021Y17676005D01*
X9638077Y17683995D01*
X9619263Y17890723D01*
X9614656Y17914878D01*
X9556047Y18114015D01*
X9546835Y18136815D01*
X9452988Y18316328D01*
X9540350Y18477902D01*
X9549879Y18500571D01*
X9611263Y18698870D01*
X9616208Y18722959D01*
X9637906Y18929405D01*
X9638077Y18953995D01*
X9628813Y19055786D01*
X9650881Y19059663D01*
X9703065Y19107802D01*
X9720830Y19171981D01*
X9977000Y19171981D01*
X9997002Y19103860D01*
X10050658Y19057367D01*
X10115295Y19046582D01*
X10167789Y19051729D01*
X10191912Y19056506D01*
X10390541Y19116476D01*
X10413276Y19125847D01*
X10596474Y19223255D01*
X10616957Y19236863D01*
X10777746Y19367999D01*
X10795194Y19385326D01*
X10927450Y19545195D01*
X10941202Y19565583D01*
X11039886Y19748097D01*
X11049415Y19770765D01*
X11098317Y19928740D01*
X11099354Y19999729D01*
X11061846Y20060010D01*
X10997703Y20090442D01*
X10977952Y20092000D01*
X10103000Y20092000D01*
X10034879Y20071998D01*
X9988386Y20018342D01*
X9977000Y19966000D01*
X9977000Y19171981D01*
X9720830Y19171981D01*
X9721000Y19172594D01*
X9721000Y19966000D01*
X9700998Y20034121D01*
X9647342Y20080614D01*
X9595000Y20092000D01*
X8766497Y20092000D01*
X8708237Y20110481D01*
X8684184Y20115594D01*
X8522632Y20133715D01*
X8508587Y20134500D01*
X8196763Y20134500D01*
X8184467Y20133899D01*
X8030112Y20118764D01*
X8005991Y20113987D01*
X7807268Y20053990D01*
X7784531Y20044619D01*
X7601247Y19947164D01*
X7580765Y19933556D01*
X7419900Y19802358D01*
X7402452Y19785031D01*
X7270133Y19625086D01*
X7256381Y19604698D01*
X7157650Y19422098D01*
X7148121Y19399429D01*
X7086737Y19201130D01*
X7081792Y19177041D01*
X7060094Y18970595D01*
X7059923Y18946005D01*
X7078737Y18739277D01*
X7083344Y18715122D01*
X7141953Y18515985D01*
X7151165Y18493185D01*
X7245012Y18313672D01*
X7157650Y18152098D01*
X7148121Y18129429D01*
X7086737Y17931130D01*
X7081792Y17907041D01*
X7060094Y17700595D01*
X7059923Y17676005D01*
X888500Y17676005D01*
X888500Y21486005D01*
X7059923Y21486005D01*
X7078737Y21279277D01*
X7083344Y21255122D01*
X7141953Y21055985D01*
X7151165Y21033185D01*
X7247337Y20849225D01*
X7260802Y20828648D01*
X7390874Y20666871D01*
X7408080Y20649301D01*
X7567098Y20515869D01*
X7587388Y20501976D01*
X7769294Y20401972D01*
X7791897Y20392285D01*
X7989763Y20329519D01*
X8013816Y20324406D01*
X8175368Y20306285D01*
X8189413Y20305500D01*
X8501237Y20305500D01*
X8513533Y20306101D01*
X8667888Y20321236D01*
X8692009Y20326013D01*
X8764835Y20348000D01*
X9595000Y20348000D01*
X9663121Y20368002D01*
X9709614Y20421658D01*
X9721000Y20474000D01*
X9977000Y20474000D01*
X9997002Y20405879D01*
X10050658Y20359386D01*
X10103000Y20348000D01*
X10977162Y20348000D01*
X11045283Y20368002D01*
X11091776Y20421658D01*
X11101880Y20491932D01*
X11098036Y20509575D01*
X11055581Y20653826D01*
X11046369Y20676626D01*
X10950242Y20860500D01*
X10936776Y20881077D01*
X10806765Y21042777D01*
X10789561Y21060346D01*
X10630619Y21193715D01*
X10610328Y21207609D01*
X10428508Y21307565D01*
X10405906Y21317252D01*
X10208134Y21379989D01*
X10184080Y21385102D01*
X10117045Y21392621D01*
X10047119Y21380337D01*
X9994935Y21332198D01*
X9977000Y21267406D01*
X9977000Y20474000D01*
X9721000Y20474000D01*
X9721000Y21268019D01*
X9700998Y21336140D01*
X9647342Y21382633D01*
X9629106Y21385676D01*
X9637906Y21469405D01*
X9638021Y21486005D01*
X51034923Y21486005D01*
X51053737Y21279277D01*
X51058344Y21255122D01*
X51116953Y21055985D01*
X51126165Y21033185D01*
X51222337Y20849225D01*
X51235802Y20828648D01*
X51365874Y20666871D01*
X51383080Y20649301D01*
X51542098Y20515869D01*
X51562388Y20501976D01*
X51744294Y20401972D01*
X51766897Y20392285D01*
X51964763Y20329519D01*
X51988816Y20324406D01*
X52150368Y20306285D01*
X52164413Y20305500D01*
X52476237Y20305500D01*
X52488533Y20306101D01*
X52642888Y20321236D01*
X52667009Y20326013D01*
X52739835Y20348000D01*
X53570000Y20348000D01*
X53638121Y20368002D01*
X53684614Y20421658D01*
X53696000Y20474000D01*
X53952000Y20474000D01*
X53972002Y20405879D01*
X54025658Y20359386D01*
X54078000Y20348000D01*
X54952162Y20348000D01*
X55020283Y20368002D01*
X55066776Y20421658D01*
X55076880Y20491932D01*
X55073036Y20509575D01*
X55030581Y20653826D01*
X55021369Y20676626D01*
X54925242Y20860500D01*
X54911776Y20881077D01*
X54781765Y21042777D01*
X54764561Y21060346D01*
X54605619Y21193715D01*
X54585328Y21207609D01*
X54403508Y21307565D01*
X54380906Y21317252D01*
X54183134Y21379989D01*
X54159080Y21385102D01*
X54092045Y21392621D01*
X54022119Y21380337D01*
X53969935Y21332198D01*
X53952000Y21267406D01*
X53952000Y20474000D01*
X53696000Y20474000D01*
X53696000Y21268019D01*
X53675998Y21336140D01*
X53622342Y21382633D01*
X53604106Y21385676D01*
X53612906Y21469405D01*
X53613077Y21493995D01*
X53594263Y21700723D01*
X53589656Y21724878D01*
X53531047Y21924015D01*
X53521835Y21946815D01*
X53427988Y22126328D01*
X53515350Y22287902D01*
X53524879Y22310571D01*
X53586263Y22508870D01*
X53591208Y22532959D01*
X53612906Y22739405D01*
X53613077Y22763995D01*
X53603813Y22865786D01*
X53625881Y22869663D01*
X53678065Y22917802D01*
X53695830Y22981981D01*
X53952000Y22981981D01*
X53972002Y22913860D01*
X54025658Y22867367D01*
X54090295Y22856582D01*
X54142789Y22861729D01*
X54166912Y22866506D01*
X54365541Y22926476D01*
X54388276Y22935847D01*
X54571474Y23033255D01*
X54591957Y23046863D01*
X54752746Y23177999D01*
X54770194Y23195326D01*
X54902450Y23355195D01*
X54916202Y23375583D01*
X55014886Y23558097D01*
X55024415Y23580765D01*
X55073317Y23738740D01*
X55074354Y23809729D01*
X55036846Y23870010D01*
X54972703Y23900442D01*
X54952952Y23902000D01*
X54078000Y23902000D01*
X54009879Y23881998D01*
X53963386Y23828342D01*
X53952000Y23776000D01*
X53952000Y22981981D01*
X53695830Y22981981D01*
X53696000Y22982594D01*
X53696000Y23776000D01*
X53675998Y23844121D01*
X53622342Y23890614D01*
X53570000Y23902000D01*
X52741497Y23902000D01*
X52683237Y23920481D01*
X52659184Y23925594D01*
X52497632Y23943715D01*
X52483587Y23944500D01*
X52171763Y23944500D01*
X52159467Y23943899D01*
X52005112Y23928764D01*
X51980991Y23923987D01*
X51782268Y23863990D01*
X51759531Y23854619D01*
X51576247Y23757164D01*
X51555765Y23743556D01*
X51394900Y23612358D01*
X51377452Y23595031D01*
X51245133Y23435086D01*
X51231381Y23414698D01*
X51132650Y23232098D01*
X51123121Y23209429D01*
X51061737Y23011130D01*
X51056792Y22987041D01*
X51035094Y22780595D01*
X51034923Y22756005D01*
X51053737Y22549277D01*
X51058344Y22525122D01*
X51116953Y22325985D01*
X51126165Y22303185D01*
X51220012Y22123672D01*
X51132650Y21962098D01*
X51123121Y21939429D01*
X51061737Y21741130D01*
X51056792Y21717041D01*
X51035094Y21510595D01*
X51034923Y21486005D01*
X9638021Y21486005D01*
X9638077Y21493995D01*
X9619263Y21700723D01*
X9614656Y21724878D01*
X9556047Y21924015D01*
X9546835Y21946815D01*
X9452988Y22126328D01*
X9540350Y22287902D01*
X9549879Y22310571D01*
X9611263Y22508870D01*
X9616208Y22532959D01*
X9637906Y22739405D01*
X9638077Y22763995D01*
X9628813Y22865786D01*
X9650881Y22869663D01*
X9703065Y22917802D01*
X9720830Y22981981D01*
X9977000Y22981981D01*
X9997002Y22913860D01*
X10050658Y22867367D01*
X10115295Y22856582D01*
X10167789Y22861729D01*
X10191912Y22866506D01*
X10390541Y22926476D01*
X10413276Y22935847D01*
X10596474Y23033255D01*
X10616957Y23046863D01*
X10777746Y23177999D01*
X10795194Y23195326D01*
X10927450Y23355195D01*
X10941202Y23375583D01*
X11039886Y23558097D01*
X11049415Y23580765D01*
X11098317Y23738740D01*
X11099354Y23809729D01*
X11061846Y23870010D01*
X10997703Y23900442D01*
X10977952Y23902000D01*
X10103000Y23902000D01*
X10034879Y23881998D01*
X9988386Y23828342D01*
X9977000Y23776000D01*
X9977000Y22981981D01*
X9720830Y22981981D01*
X9721000Y22982594D01*
X9721000Y23776000D01*
X9700998Y23844121D01*
X9647342Y23890614D01*
X9595000Y23902000D01*
X8766497Y23902000D01*
X8708237Y23920481D01*
X8684184Y23925594D01*
X8522632Y23943715D01*
X8508587Y23944500D01*
X8196763Y23944500D01*
X8184467Y23943899D01*
X8030112Y23928764D01*
X8005991Y23923987D01*
X7807268Y23863990D01*
X7784531Y23854619D01*
X7601247Y23757164D01*
X7580765Y23743556D01*
X7419900Y23612358D01*
X7402452Y23595031D01*
X7270133Y23435086D01*
X7256381Y23414698D01*
X7157650Y23232098D01*
X7148121Y23209429D01*
X7086737Y23011130D01*
X7081792Y22987041D01*
X7060094Y22780595D01*
X7059923Y22756005D01*
X7078737Y22549277D01*
X7083344Y22525122D01*
X7141953Y22325985D01*
X7151165Y22303185D01*
X7245012Y22123672D01*
X7157650Y21962098D01*
X7148121Y21939429D01*
X7086737Y21741130D01*
X7081792Y21717041D01*
X7060094Y21510595D01*
X7059923Y21486005D01*
X888500Y21486005D01*
X888500Y25107031D01*
X7175337Y25107031D01*
X7180402Y25036216D01*
X7223953Y24978636D01*
X7340284Y24893339D01*
X7356121Y24883443D01*
X7587365Y24761779D01*
X7604492Y24754332D01*
X7851179Y24668185D01*
X7869218Y24663351D01*
X8125929Y24614613D01*
X8144484Y24612499D01*
X8405578Y24602241D01*
X8424242Y24602893D01*
X8683985Y24631339D01*
X8702348Y24634742D01*
X8734519Y24643212D01*
X8658114Y24501903D01*
X8648585Y24479235D01*
X8599683Y24321260D01*
X8598646Y24250271D01*
X8636154Y24189990D01*
X8700297Y24159558D01*
X8720048Y24158000D01*
X9595000Y24158000D01*
X9663121Y24178002D01*
X9709614Y24231658D01*
X9721000Y24284000D01*
X9977000Y24284000D01*
X9997002Y24215879D01*
X10050658Y24169386D01*
X10103000Y24158000D01*
X10977162Y24158000D01*
X11045283Y24178002D01*
X11091776Y24231658D01*
X11101880Y24301932D01*
X11098036Y24319575D01*
X11055581Y24463826D01*
X11046369Y24486626D01*
X10950242Y24670500D01*
X10936776Y24691077D01*
X10806765Y24852777D01*
X10789561Y24870346D01*
X10630619Y25003715D01*
X10610328Y25017609D01*
X10447669Y25107031D01*
X51150337Y25107031D01*
X51155402Y25036216D01*
X51198953Y24978636D01*
X51315284Y24893339D01*
X51331121Y24883443D01*
X51562365Y24761779D01*
X51579492Y24754332D01*
X51826179Y24668185D01*
X51844218Y24663351D01*
X52100929Y24614613D01*
X52119484Y24612499D01*
X52380578Y24602241D01*
X52399242Y24602893D01*
X52658985Y24631339D01*
X52677348Y24634742D01*
X52709519Y24643212D01*
X52633114Y24501903D01*
X52623585Y24479235D01*
X52574683Y24321260D01*
X52573646Y24250271D01*
X52611154Y24189990D01*
X52675297Y24159558D01*
X52695048Y24158000D01*
X53570000Y24158000D01*
X53638121Y24178002D01*
X53684614Y24231658D01*
X53696000Y24284000D01*
X53952000Y24284000D01*
X53972002Y24215879D01*
X54025658Y24169386D01*
X54078000Y24158000D01*
X54952162Y24158000D01*
X55020283Y24178002D01*
X55066776Y24231658D01*
X55076880Y24301932D01*
X55073036Y24319575D01*
X55030581Y24463826D01*
X55021369Y24486626D01*
X54925242Y24670500D01*
X54911776Y24691077D01*
X54781765Y24852777D01*
X54764561Y24870346D01*
X54605619Y25003715D01*
X54585328Y25017609D01*
X54403508Y25117565D01*
X54380906Y25127252D01*
X54183134Y25189989D01*
X54159080Y25195102D01*
X54092045Y25202621D01*
X54022119Y25190337D01*
X53969935Y25142198D01*
X53952000Y25077406D01*
X53952000Y24284000D01*
X53696000Y24284000D01*
X53696000Y25078019D01*
X53675998Y25146140D01*
X53622342Y25192633D01*
X53557705Y25203418D01*
X53505211Y25198271D01*
X53481088Y25193494D01*
X53449134Y25183846D01*
X52413095Y26219885D01*
X52350783Y26253911D01*
X52279968Y26248846D01*
X52234905Y26219885D01*
X51184363Y25169343D01*
X51150337Y25107031D01*
X10447669Y25107031D01*
X10428508Y25117565D01*
X10405906Y25127252D01*
X10208134Y25189989D01*
X10184080Y25195102D01*
X10117045Y25202621D01*
X10047119Y25190337D01*
X9994935Y25142198D01*
X9977000Y25077406D01*
X9977000Y24284000D01*
X9721000Y24284000D01*
X9721000Y25078019D01*
X9700998Y25146140D01*
X9647342Y25192633D01*
X9582705Y25203418D01*
X9530211Y25198271D01*
X9506088Y25193494D01*
X9474134Y25183846D01*
X8438095Y26219885D01*
X8375783Y26253911D01*
X8304968Y26248846D01*
X8259905Y26219885D01*
X7209363Y25169343D01*
X7175337Y25107031D01*
X888500Y25107031D01*
X888500Y26530103D01*
X6460819Y26530103D01*
X6473356Y26269108D01*
X6475632Y26250572D01*
X6526608Y25994296D01*
X6531599Y25976300D01*
X6619895Y25730375D01*
X6627491Y25713314D01*
X6751168Y25483140D01*
X6761202Y25467389D01*
X6838327Y25364106D01*
X6895112Y25321492D01*
X6965922Y25316343D01*
X7028380Y25350400D01*
X8078885Y26400905D01*
X8112911Y26463217D01*
X8109080Y26516783D01*
X8585089Y26516783D01*
X8590154Y26445968D01*
X8619115Y26400905D01*
X9672630Y25347390D01*
X9734942Y25313364D01*
X9805757Y25318429D01*
X9862593Y25360976D01*
X9867696Y25368322D01*
X10004264Y25580640D01*
X10013175Y25597052D01*
X10120494Y25835291D01*
X10126881Y25852840D01*
X10197808Y26104326D01*
X10201532Y26122627D01*
X10234507Y26381834D01*
X10235471Y26394437D01*
X10237887Y26486702D01*
X10237584Y26499338D01*
X10235298Y26530103D01*
X50435819Y26530103D01*
X50448356Y26269108D01*
X50450632Y26250572D01*
X50501608Y25994296D01*
X50506599Y25976300D01*
X50594895Y25730375D01*
X50602491Y25713314D01*
X50726168Y25483140D01*
X50736202Y25467389D01*
X50813327Y25364106D01*
X50870112Y25321492D01*
X50940922Y25316343D01*
X51003380Y25350400D01*
X52053885Y26400905D01*
X52087911Y26463217D01*
X52084080Y26516783D01*
X52560089Y26516783D01*
X52565154Y26445968D01*
X52594115Y26400905D01*
X53647630Y25347390D01*
X53709942Y25313364D01*
X53780757Y25318429D01*
X53837593Y25360976D01*
X53842696Y25368322D01*
X53979264Y25580640D01*
X53988175Y25597052D01*
X54095494Y25835291D01*
X54101881Y25852840D01*
X54172808Y26104326D01*
X54176532Y26122627D01*
X54209507Y26381834D01*
X54210471Y26394437D01*
X54212887Y26486702D01*
X54212584Y26499338D01*
X54193220Y26759916D01*
X54190459Y26778386D01*
X54132791Y27033239D01*
X54127331Y27051098D01*
X54032628Y27294628D01*
X54024588Y27311484D01*
X53894928Y27538341D01*
X53884485Y27553824D01*
X53833126Y27618972D01*
X53775244Y27660085D01*
X53704324Y27663379D01*
X53645081Y27630061D01*
X52594115Y26579095D01*
X52560089Y26516783D01*
X52084080Y26516783D01*
X52082846Y26534032D01*
X52053885Y26579095D01*
X51001604Y27631376D01*
X50939292Y27665402D01*
X50868477Y27660337D01*
X50815635Y27622850D01*
X50791897Y27594308D01*
X50781052Y27579104D01*
X50645499Y27355718D01*
X50637021Y27339079D01*
X50535975Y27098112D01*
X50530049Y27080401D01*
X50465730Y26827145D01*
X50462487Y26808754D01*
X50436308Y26548772D01*
X50435819Y26530103D01*
X10235298Y26530103D01*
X10218220Y26759916D01*
X10215459Y26778386D01*
X10157791Y27033239D01*
X10152331Y27051098D01*
X10057628Y27294628D01*
X10049588Y27311484D01*
X9919928Y27538341D01*
X9909485Y27553824D01*
X9858126Y27618972D01*
X9800244Y27660085D01*
X9729324Y27663379D01*
X9670081Y27630061D01*
X8619115Y26579095D01*
X8585089Y26516783D01*
X8109080Y26516783D01*
X8107846Y26534032D01*
X8078885Y26579095D01*
X7026604Y27631376D01*
X6964292Y27665402D01*
X6893477Y27660337D01*
X6840635Y27622850D01*
X6816897Y27594308D01*
X6806052Y27579104D01*
X6670499Y27355718D01*
X6662021Y27339079D01*
X6560975Y27098112D01*
X6555049Y27080401D01*
X6490730Y26827145D01*
X6487487Y26808754D01*
X6461308Y26548772D01*
X6460819Y26530103D01*
X888500Y26530103D01*
X888500Y27882937D01*
X7171655Y27882937D01*
X7201736Y27818628D01*
X7207109Y27812911D01*
X8259905Y26760115D01*
X8322217Y26726089D01*
X8393032Y26731154D01*
X8438095Y26760115D01*
X9489326Y27811346D01*
X9523352Y27873658D01*
X9522688Y27882937D01*
X51146655Y27882937D01*
X51176736Y27818628D01*
X51182109Y27812911D01*
X52234905Y26760115D01*
X52297217Y26726089D01*
X52368032Y26731154D01*
X52413095Y26760115D01*
X53464326Y27811346D01*
X53498352Y27873658D01*
X53493287Y27944473D01*
X53447050Y28003969D01*
X53290574Y28112520D01*
X53274483Y28121998D01*
X53040133Y28237566D01*
X53022818Y28244562D01*
X52773961Y28324222D01*
X52755802Y28328582D01*
X52497903Y28370584D01*
X52479298Y28372211D01*
X52218025Y28375631D01*
X52199385Y28374491D01*
X51940475Y28339255D01*
X51922208Y28335372D01*
X51671351Y28262254D01*
X51653857Y28255714D01*
X51416563Y28146319D01*
X51400230Y28137265D01*
X51202119Y28007378D01*
X51156118Y27953301D01*
X51146655Y27882937D01*
X9522688Y27882937D01*
X9518287Y27944473D01*
X9472050Y28003969D01*
X9315574Y28112520D01*
X9299483Y28121998D01*
X9065133Y28237566D01*
X9047818Y28244562D01*
X8798961Y28324222D01*
X8780802Y28328582D01*
X8522903Y28370584D01*
X8504298Y28372211D01*
X8243025Y28375631D01*
X8224385Y28374491D01*
X7965475Y28339255D01*
X7947208Y28335372D01*
X7696351Y28262254D01*
X7678857Y28255714D01*
X7441563Y28146319D01*
X7425230Y28137265D01*
X7227119Y28007378D01*
X7181118Y27953301D01*
X7171655Y27882937D01*
X888500Y27882937D01*
X888500Y39751500D01*
X60071500Y39751500D01*
X60071500Y888500D01*
G37*
%TD.AperFunction*%
%TD*%
M02*
