%TF.GenerationSoftware,KiCad,Pcbnew,6.0.11+dfsg-1~bpo11+1*%
%TF.CreationDate,2023-07-05T12:36:45+00:00*%
%TF.ProjectId,BP02,42503032-2e6b-4696-9361-645f70636258,rev?*%
%TF.SameCoordinates,Original*%
%TF.FileFunction,Legend,Bot*%
%TF.FilePolarity,Positive*%
%FSLAX46Y46*%
G04 Gerber Fmt 4.6, Leading zero omitted, Abs format (unit mm)*
G04 Created by KiCad (PCBNEW 6.0.11+dfsg-1~bpo11+1) date 2023-07-05 12:36:45*
%MOMM*%
%LPD*%
G01*
G04 APERTURE LIST*
%ADD10C,0.150000*%
%ADD11C,0.120000*%
G04 APERTURE END LIST*
D10*
%TO.C,L10*%
X29675057Y12501619D02*
X30151247Y12501619D01*
X30151247Y13501619D01*
X28817914Y12501619D02*
X29389342Y12501619D01*
X29103628Y12501619D02*
X29103628Y13501619D01*
X29198866Y13358761D01*
X29294104Y13263523D01*
X29389342Y13215904D01*
X28198866Y13501619D02*
X28103628Y13501619D01*
X28008390Y13454000D01*
X27960771Y13406380D01*
X27913152Y13311142D01*
X27865533Y13120666D01*
X27865533Y12882571D01*
X27913152Y12692095D01*
X27960771Y12596857D01*
X28008390Y12549238D01*
X28103628Y12501619D01*
X28198866Y12501619D01*
X28294104Y12549238D01*
X28341723Y12596857D01*
X28389342Y12692095D01*
X28436961Y12882571D01*
X28436961Y13120666D01*
X28389342Y13311142D01*
X28341723Y13406380D01*
X28294104Y13454000D01*
X28198866Y13501619D01*
%TO.C,C5*%
X24417342Y26929866D02*
X24464961Y26977485D01*
X24512580Y27120342D01*
X24512580Y27215580D01*
X24464961Y27358438D01*
X24369723Y27453676D01*
X24274485Y27501295D01*
X24084009Y27548914D01*
X23941152Y27548914D01*
X23750676Y27501295D01*
X23655438Y27453676D01*
X23560200Y27358438D01*
X23512580Y27215580D01*
X23512580Y27120342D01*
X23560200Y26977485D01*
X23607819Y26929866D01*
X23512580Y26025104D02*
X23512580Y26501295D01*
X23988771Y26548914D01*
X23941152Y26501295D01*
X23893533Y26406057D01*
X23893533Y26167961D01*
X23941152Y26072723D01*
X23988771Y26025104D01*
X24084009Y25977485D01*
X24322104Y25977485D01*
X24417342Y26025104D01*
X24464961Y26072723D01*
X24512580Y26167961D01*
X24512580Y26406057D01*
X24464961Y26501295D01*
X24417342Y26548914D01*
%TO.C,L1*%
X21229666Y27530019D02*
X21705857Y27530019D01*
X21705857Y28530019D01*
X20372523Y27530019D02*
X20943952Y27530019D01*
X20658238Y27530019D02*
X20658238Y28530019D01*
X20753476Y28387161D01*
X20848714Y28291923D01*
X20943952Y28244304D01*
%TO.C,L13*%
X31920457Y31196019D02*
X32396647Y31196019D01*
X32396647Y32196019D01*
X31063314Y31196019D02*
X31634742Y31196019D01*
X31349028Y31196019D02*
X31349028Y32196019D01*
X31444266Y32053161D01*
X31539504Y31957923D01*
X31634742Y31910304D01*
X30729980Y32196019D02*
X30110933Y32196019D01*
X30444266Y31815066D01*
X30301409Y31815066D01*
X30206171Y31767447D01*
X30158552Y31719828D01*
X30110933Y31624590D01*
X30110933Y31386495D01*
X30158552Y31291257D01*
X30206171Y31243638D01*
X30301409Y31196019D01*
X30587123Y31196019D01*
X30682361Y31243638D01*
X30729980Y31291257D01*
%TO.C,C12*%
X41496257Y28090857D02*
X41543876Y28043238D01*
X41686733Y27995619D01*
X41781971Y27995619D01*
X41924828Y28043238D01*
X42020066Y28138476D01*
X42067685Y28233714D01*
X42115304Y28424190D01*
X42115304Y28567047D01*
X42067685Y28757523D01*
X42020066Y28852761D01*
X41924828Y28948000D01*
X41781971Y28995619D01*
X41686733Y28995619D01*
X41543876Y28948000D01*
X41496257Y28900380D01*
X40543876Y27995619D02*
X41115304Y27995619D01*
X40829590Y27995619D02*
X40829590Y28995619D01*
X40924828Y28852761D01*
X41020066Y28757523D01*
X41115304Y28709904D01*
X40162923Y28900380D02*
X40115304Y28948000D01*
X40020066Y28995619D01*
X39781971Y28995619D01*
X39686733Y28948000D01*
X39639114Y28900380D01*
X39591495Y28805142D01*
X39591495Y28709904D01*
X39639114Y28567047D01*
X40210542Y27995619D01*
X39591495Y27995619D01*
%TO.C,L18*%
X37889457Y27944819D02*
X38365647Y27944819D01*
X38365647Y28944819D01*
X37032314Y27944819D02*
X37603742Y27944819D01*
X37318028Y27944819D02*
X37318028Y28944819D01*
X37413266Y28801961D01*
X37508504Y28706723D01*
X37603742Y28659104D01*
X36460885Y28516247D02*
X36556123Y28563866D01*
X36603742Y28611485D01*
X36651361Y28706723D01*
X36651361Y28754342D01*
X36603742Y28849580D01*
X36556123Y28897200D01*
X36460885Y28944819D01*
X36270409Y28944819D01*
X36175171Y28897200D01*
X36127552Y28849580D01*
X36079933Y28754342D01*
X36079933Y28706723D01*
X36127552Y28611485D01*
X36175171Y28563866D01*
X36270409Y28516247D01*
X36460885Y28516247D01*
X36556123Y28468628D01*
X36603742Y28421009D01*
X36651361Y28325771D01*
X36651361Y28135295D01*
X36603742Y28040057D01*
X36556123Y27992438D01*
X36460885Y27944819D01*
X36270409Y27944819D01*
X36175171Y27992438D01*
X36127552Y28040057D01*
X36079933Y28135295D01*
X36079933Y28325771D01*
X36127552Y28421009D01*
X36175171Y28468628D01*
X36270409Y28516247D01*
%TO.C,C6*%
X24660742Y12978466D02*
X24708361Y13026085D01*
X24755980Y13168942D01*
X24755980Y13264180D01*
X24708361Y13407038D01*
X24613123Y13502276D01*
X24517885Y13549895D01*
X24327409Y13597514D01*
X24184552Y13597514D01*
X23994076Y13549895D01*
X23898838Y13502276D01*
X23803600Y13407038D01*
X23755980Y13264180D01*
X23755980Y13168942D01*
X23803600Y13026085D01*
X23851219Y12978466D01*
X23755980Y12121323D02*
X23755980Y12311800D01*
X23803600Y12407038D01*
X23851219Y12454657D01*
X23994076Y12549895D01*
X24184552Y12597514D01*
X24565504Y12597514D01*
X24660742Y12549895D01*
X24708361Y12502276D01*
X24755980Y12407038D01*
X24755980Y12216561D01*
X24708361Y12121323D01*
X24660742Y12073704D01*
X24565504Y12026085D01*
X24327409Y12026085D01*
X24232171Y12073704D01*
X24184552Y12121323D01*
X24136933Y12216561D01*
X24136933Y12407038D01*
X24184552Y12502276D01*
X24232171Y12549895D01*
X24327409Y12597514D01*
%TO.C,L12*%
X34691580Y13190457D02*
X34691580Y13666647D01*
X33691580Y13666647D01*
X34691580Y12333314D02*
X34691580Y12904742D01*
X34691580Y12619028D02*
X33691580Y12619028D01*
X33834438Y12714266D01*
X33929676Y12809504D01*
X33977295Y12904742D01*
X33786819Y11952361D02*
X33739200Y11904742D01*
X33691580Y11809504D01*
X33691580Y11571409D01*
X33739200Y11476171D01*
X33786819Y11428552D01*
X33882057Y11380933D01*
X33977295Y11380933D01*
X34120152Y11428552D01*
X34691580Y11999980D01*
X34691580Y11380933D01*
%TO.C,L19*%
X37838657Y26217619D02*
X38314847Y26217619D01*
X38314847Y27217619D01*
X36981514Y26217619D02*
X37552942Y26217619D01*
X37267228Y26217619D02*
X37267228Y27217619D01*
X37362466Y27074761D01*
X37457704Y26979523D01*
X37552942Y26931904D01*
X36505323Y26217619D02*
X36314847Y26217619D01*
X36219609Y26265238D01*
X36171990Y26312857D01*
X36076752Y26455714D01*
X36029133Y26646190D01*
X36029133Y27027142D01*
X36076752Y27122380D01*
X36124371Y27170000D01*
X36219609Y27217619D01*
X36410085Y27217619D01*
X36505323Y27170000D01*
X36552942Y27122380D01*
X36600561Y27027142D01*
X36600561Y26789047D01*
X36552942Y26693809D01*
X36505323Y26646190D01*
X36410085Y26598571D01*
X36219609Y26598571D01*
X36124371Y26646190D01*
X36076752Y26693809D01*
X36029133Y26789047D01*
%TO.C,L3*%
X21422166Y12425419D02*
X21898357Y12425419D01*
X21898357Y13425419D01*
X21184071Y13425419D02*
X20565023Y13425419D01*
X20898357Y13044466D01*
X20755500Y13044466D01*
X20660261Y12996847D01*
X20612642Y12949228D01*
X20565023Y12853990D01*
X20565023Y12615895D01*
X20612642Y12520657D01*
X20660261Y12473038D01*
X20755500Y12425419D01*
X21041214Y12425419D01*
X21136452Y12473038D01*
X21184071Y12520657D01*
%TO.C,L11*%
X30536180Y30208457D02*
X30536180Y30684647D01*
X29536180Y30684647D01*
X30536180Y29351314D02*
X30536180Y29922742D01*
X30536180Y29637028D02*
X29536180Y29637028D01*
X29679038Y29732266D01*
X29774276Y29827504D01*
X29821895Y29922742D01*
X30536180Y28398933D02*
X30536180Y28970361D01*
X30536180Y28684647D02*
X29536180Y28684647D01*
X29679038Y28779885D01*
X29774276Y28875123D01*
X29821895Y28970361D01*
%TO.C,L15*%
X37726857Y12628619D02*
X38203047Y12628619D01*
X38203047Y13628619D01*
X36869714Y12628619D02*
X37441142Y12628619D01*
X37155428Y12628619D02*
X37155428Y13628619D01*
X37250666Y13485761D01*
X37345904Y13390523D01*
X37441142Y13342904D01*
X35964952Y13628619D02*
X36441142Y13628619D01*
X36488761Y13152428D01*
X36441142Y13200047D01*
X36345904Y13247666D01*
X36107809Y13247666D01*
X36012571Y13200047D01*
X35964952Y13152428D01*
X35917333Y13057190D01*
X35917333Y12819095D01*
X35964952Y12723857D01*
X36012571Y12676238D01*
X36107809Y12628619D01*
X36345904Y12628619D01*
X36441142Y12676238D01*
X36488761Y12723857D01*
%TO.C,C2*%
X17525566Y26355257D02*
X17573185Y26307638D01*
X17716042Y26260019D01*
X17811280Y26260019D01*
X17954138Y26307638D01*
X18049376Y26402876D01*
X18096995Y26498114D01*
X18144614Y26688590D01*
X18144614Y26831447D01*
X18096995Y27021923D01*
X18049376Y27117161D01*
X17954138Y27212400D01*
X17811280Y27260019D01*
X17716042Y27260019D01*
X17573185Y27212400D01*
X17525566Y27164780D01*
X17144614Y27164780D02*
X17096995Y27212400D01*
X17001757Y27260019D01*
X16763661Y27260019D01*
X16668423Y27212400D01*
X16620804Y27164780D01*
X16573185Y27069542D01*
X16573185Y26974304D01*
X16620804Y26831447D01*
X17192233Y26260019D01*
X16573185Y26260019D01*
%TO.C,C8*%
X32589742Y13095266D02*
X32637361Y13142885D01*
X32684980Y13285742D01*
X32684980Y13380980D01*
X32637361Y13523838D01*
X32542123Y13619076D01*
X32446885Y13666695D01*
X32256409Y13714314D01*
X32113552Y13714314D01*
X31923076Y13666695D01*
X31827838Y13619076D01*
X31732600Y13523838D01*
X31684980Y13380980D01*
X31684980Y13285742D01*
X31732600Y13142885D01*
X31780219Y13095266D01*
X32113552Y12523838D02*
X32065933Y12619076D01*
X32018314Y12666695D01*
X31923076Y12714314D01*
X31875457Y12714314D01*
X31780219Y12666695D01*
X31732600Y12619076D01*
X31684980Y12523838D01*
X31684980Y12333361D01*
X31732600Y12238123D01*
X31780219Y12190504D01*
X31875457Y12142885D01*
X31923076Y12142885D01*
X32018314Y12190504D01*
X32065933Y12238123D01*
X32113552Y12333361D01*
X32113552Y12523838D01*
X32161171Y12619076D01*
X32208790Y12666695D01*
X32304028Y12714314D01*
X32494504Y12714314D01*
X32589742Y12666695D01*
X32637361Y12619076D01*
X32684980Y12523838D01*
X32684980Y12333361D01*
X32637361Y12238123D01*
X32589742Y12190504D01*
X32494504Y12142885D01*
X32304028Y12142885D01*
X32208790Y12190504D01*
X32161171Y12238123D01*
X32113552Y12333361D01*
%TO.C,L2*%
X21178866Y26056819D02*
X21655057Y26056819D01*
X21655057Y27056819D01*
X20893152Y26961580D02*
X20845533Y27009200D01*
X20750295Y27056819D01*
X20512200Y27056819D01*
X20416961Y27009200D01*
X20369342Y26961580D01*
X20321723Y26866342D01*
X20321723Y26771104D01*
X20369342Y26628247D01*
X20940771Y26056819D01*
X20321723Y26056819D01*
%TO.C,C4*%
X17697066Y10920457D02*
X17744685Y10872838D01*
X17887542Y10825219D01*
X17982780Y10825219D01*
X18125638Y10872838D01*
X18220876Y10968076D01*
X18268495Y11063314D01*
X18316114Y11253790D01*
X18316114Y11396647D01*
X18268495Y11587123D01*
X18220876Y11682361D01*
X18125638Y11777600D01*
X17982780Y11825219D01*
X17887542Y11825219D01*
X17744685Y11777600D01*
X17697066Y11729980D01*
X16839923Y11491885D02*
X16839923Y10825219D01*
X17078019Y11872838D02*
X17316114Y11158552D01*
X16697066Y11158552D01*
%TO.C,C3*%
X17798666Y12342857D02*
X17846285Y12295238D01*
X17989142Y12247619D01*
X18084380Y12247619D01*
X18227238Y12295238D01*
X18322476Y12390476D01*
X18370095Y12485714D01*
X18417714Y12676190D01*
X18417714Y12819047D01*
X18370095Y13009523D01*
X18322476Y13104761D01*
X18227238Y13200000D01*
X18084380Y13247619D01*
X17989142Y13247619D01*
X17846285Y13200000D01*
X17798666Y13152380D01*
X17465333Y13247619D02*
X16846285Y13247619D01*
X17179619Y12866666D01*
X17036761Y12866666D01*
X16941523Y12819047D01*
X16893904Y12771428D01*
X16846285Y12676190D01*
X16846285Y12438095D01*
X16893904Y12342857D01*
X16941523Y12295238D01*
X17036761Y12247619D01*
X17322476Y12247619D01*
X17417714Y12295238D01*
X17465333Y12342857D01*
%TO.C,L9*%
X29275066Y10926819D02*
X29751257Y10926819D01*
X29751257Y11926819D01*
X28894114Y10926819D02*
X28703638Y10926819D01*
X28608400Y10974438D01*
X28560780Y11022057D01*
X28465542Y11164914D01*
X28417923Y11355390D01*
X28417923Y11736342D01*
X28465542Y11831580D01*
X28513161Y11879200D01*
X28608400Y11926819D01*
X28798876Y11926819D01*
X28894114Y11879200D01*
X28941733Y11831580D01*
X28989352Y11736342D01*
X28989352Y11498247D01*
X28941733Y11403009D01*
X28894114Y11355390D01*
X28798876Y11307771D01*
X28608400Y11307771D01*
X28513161Y11355390D01*
X28465542Y11403009D01*
X28417923Y11498247D01*
%TO.C,L14*%
X31945857Y18369019D02*
X32422047Y18369019D01*
X32422047Y19369019D01*
X31088714Y18369019D02*
X31660142Y18369019D01*
X31374428Y18369019D02*
X31374428Y19369019D01*
X31469666Y19226161D01*
X31564904Y19130923D01*
X31660142Y19083304D01*
X30231571Y19035685D02*
X30231571Y18369019D01*
X30469666Y19416638D02*
X30707761Y18702352D01*
X30088714Y18702352D01*
%TO.C,L17*%
X34930380Y27973257D02*
X34930380Y28449447D01*
X33930380Y28449447D01*
X34930380Y27116114D02*
X34930380Y27687542D01*
X34930380Y27401828D02*
X33930380Y27401828D01*
X34073238Y27497066D01*
X34168476Y27592304D01*
X34216095Y27687542D01*
X33930380Y26782780D02*
X33930380Y26116114D01*
X34930380Y26544685D01*
%TO.C,L16*%
X37701457Y11130019D02*
X38177647Y11130019D01*
X38177647Y12130019D01*
X36844314Y11130019D02*
X37415742Y11130019D01*
X37130028Y11130019D02*
X37130028Y12130019D01*
X37225266Y11987161D01*
X37320504Y11891923D01*
X37415742Y11844304D01*
X35987171Y12130019D02*
X36177647Y12130019D01*
X36272885Y12082400D01*
X36320504Y12034780D01*
X36415742Y11891923D01*
X36463361Y11701447D01*
X36463361Y11320495D01*
X36415742Y11225257D01*
X36368123Y11177638D01*
X36272885Y11130019D01*
X36082409Y11130019D01*
X35987171Y11177638D01*
X35939552Y11225257D01*
X35891933Y11320495D01*
X35891933Y11558590D01*
X35939552Y11653828D01*
X35987171Y11701447D01*
X36082409Y11749066D01*
X36272885Y11749066D01*
X36368123Y11701447D01*
X36415742Y11653828D01*
X36463361Y11558590D01*
%TO.C,L4*%
X21523766Y10799819D02*
X21999957Y10799819D01*
X21999957Y11799819D01*
X20761861Y11466485D02*
X20761861Y10799819D01*
X20999957Y11847438D02*
X21238052Y11133152D01*
X20619004Y11133152D01*
%TO.C,L5*%
X26472180Y29910066D02*
X26472180Y30386257D01*
X25472180Y30386257D01*
X25472180Y29100542D02*
X25472180Y29576733D01*
X25948371Y29624352D01*
X25900752Y29576733D01*
X25853133Y29481495D01*
X25853133Y29243400D01*
X25900752Y29148161D01*
X25948371Y29100542D01*
X26043609Y29052923D01*
X26281704Y29052923D01*
X26376942Y29100542D01*
X26424561Y29148161D01*
X26472180Y29243400D01*
X26472180Y29481495D01*
X26424561Y29576733D01*
X26376942Y29624352D01*
%TO.C,C13*%
X41572457Y26541457D02*
X41620076Y26493838D01*
X41762933Y26446219D01*
X41858171Y26446219D01*
X42001028Y26493838D01*
X42096266Y26589076D01*
X42143885Y26684314D01*
X42191504Y26874790D01*
X42191504Y27017647D01*
X42143885Y27208123D01*
X42096266Y27303361D01*
X42001028Y27398600D01*
X41858171Y27446219D01*
X41762933Y27446219D01*
X41620076Y27398600D01*
X41572457Y27350980D01*
X40620076Y26446219D02*
X41191504Y26446219D01*
X40905790Y26446219D02*
X40905790Y27446219D01*
X41001028Y27303361D01*
X41096266Y27208123D01*
X41191504Y27160504D01*
X40286742Y27446219D02*
X39667695Y27446219D01*
X40001028Y27065266D01*
X39858171Y27065266D01*
X39762933Y27017647D01*
X39715314Y26970028D01*
X39667695Y26874790D01*
X39667695Y26636695D01*
X39715314Y26541457D01*
X39762933Y26493838D01*
X39858171Y26446219D01*
X40143885Y26446219D01*
X40239123Y26493838D01*
X40286742Y26541457D01*
%TO.C,C10*%
X41460657Y12495257D02*
X41508276Y12447638D01*
X41651133Y12400019D01*
X41746371Y12400019D01*
X41889228Y12447638D01*
X41984466Y12542876D01*
X42032085Y12638114D01*
X42079704Y12828590D01*
X42079704Y12971447D01*
X42032085Y13161923D01*
X41984466Y13257161D01*
X41889228Y13352400D01*
X41746371Y13400019D01*
X41651133Y13400019D01*
X41508276Y13352400D01*
X41460657Y13304780D01*
X40508276Y12400019D02*
X41079704Y12400019D01*
X40793990Y12400019D02*
X40793990Y13400019D01*
X40889228Y13257161D01*
X40984466Y13161923D01*
X41079704Y13114304D01*
X39889228Y13400019D02*
X39793990Y13400019D01*
X39698752Y13352400D01*
X39651133Y13304780D01*
X39603514Y13209542D01*
X39555895Y13019066D01*
X39555895Y12780971D01*
X39603514Y12590495D01*
X39651133Y12495257D01*
X39698752Y12447638D01*
X39793990Y12400019D01*
X39889228Y12400019D01*
X39984466Y12447638D01*
X40032085Y12495257D01*
X40079704Y12590495D01*
X40127323Y12780971D01*
X40127323Y13019066D01*
X40079704Y13209542D01*
X40032085Y13304780D01*
X39984466Y13352400D01*
X39889228Y13400019D01*
%TO.C,C9*%
X32396742Y29808466D02*
X32444361Y29856085D01*
X32491980Y29998942D01*
X32491980Y30094180D01*
X32444361Y30237038D01*
X32349123Y30332276D01*
X32253885Y30379895D01*
X32063409Y30427514D01*
X31920552Y30427514D01*
X31730076Y30379895D01*
X31634838Y30332276D01*
X31539600Y30237038D01*
X31491980Y30094180D01*
X31491980Y29998942D01*
X31539600Y29856085D01*
X31587219Y29808466D01*
X32491980Y29332276D02*
X32491980Y29141800D01*
X32444361Y29046561D01*
X32396742Y28998942D01*
X32253885Y28903704D01*
X32063409Y28856085D01*
X31682457Y28856085D01*
X31587219Y28903704D01*
X31539600Y28951323D01*
X31491980Y29046561D01*
X31491980Y29237038D01*
X31539600Y29332276D01*
X31587219Y29379895D01*
X31682457Y29427514D01*
X31920552Y29427514D01*
X32015790Y29379895D01*
X32063409Y29332276D01*
X32111028Y29237038D01*
X32111028Y29046561D01*
X32063409Y28951323D01*
X32015790Y28903704D01*
X31920552Y28856085D01*
%TO.C,C11*%
X41460657Y11199857D02*
X41508276Y11152238D01*
X41651133Y11104619D01*
X41746371Y11104619D01*
X41889228Y11152238D01*
X41984466Y11247476D01*
X42032085Y11342714D01*
X42079704Y11533190D01*
X42079704Y11676047D01*
X42032085Y11866523D01*
X41984466Y11961761D01*
X41889228Y12057000D01*
X41746371Y12104619D01*
X41651133Y12104619D01*
X41508276Y12057000D01*
X41460657Y12009380D01*
X40508276Y11104619D02*
X41079704Y11104619D01*
X40793990Y11104619D02*
X40793990Y12104619D01*
X40889228Y11961761D01*
X40984466Y11866523D01*
X41079704Y11818904D01*
X39555895Y11104619D02*
X40127323Y11104619D01*
X39841609Y11104619D02*
X39841609Y12104619D01*
X39936847Y11961761D01*
X40032085Y11866523D01*
X40127323Y11818904D01*
%TO.C,L8*%
X27380266Y18521419D02*
X27856457Y18521419D01*
X27856457Y19521419D01*
X26904076Y19092847D02*
X26999314Y19140466D01*
X27046933Y19188085D01*
X27094552Y19283323D01*
X27094552Y19330942D01*
X27046933Y19426180D01*
X26999314Y19473800D01*
X26904076Y19521419D01*
X26713600Y19521419D01*
X26618361Y19473800D01*
X26570742Y19426180D01*
X26523123Y19330942D01*
X26523123Y19283323D01*
X26570742Y19188085D01*
X26618361Y19140466D01*
X26713600Y19092847D01*
X26904076Y19092847D01*
X26999314Y19045228D01*
X27046933Y18997609D01*
X27094552Y18902371D01*
X27094552Y18711895D01*
X27046933Y18616657D01*
X26999314Y18569038D01*
X26904076Y18521419D01*
X26713600Y18521419D01*
X26618361Y18569038D01*
X26570742Y18616657D01*
X26523123Y18711895D01*
X26523123Y18902371D01*
X26570742Y18997609D01*
X26618361Y19045228D01*
X26713600Y19092847D01*
%TO.C,L7*%
X27024666Y31069019D02*
X27500857Y31069019D01*
X27500857Y32069019D01*
X26786571Y32069019D02*
X26119904Y32069019D01*
X26548476Y31069019D01*
%TO.C,C7*%
X28485142Y30011666D02*
X28532761Y30059285D01*
X28580380Y30202142D01*
X28580380Y30297380D01*
X28532761Y30440238D01*
X28437523Y30535476D01*
X28342285Y30583095D01*
X28151809Y30630714D01*
X28008952Y30630714D01*
X27818476Y30583095D01*
X27723238Y30535476D01*
X27628000Y30440238D01*
X27580380Y30297380D01*
X27580380Y30202142D01*
X27628000Y30059285D01*
X27675619Y30011666D01*
X27580380Y29678333D02*
X27580380Y29011666D01*
X28580380Y29440238D01*
%TO.C,C1*%
X17525566Y27726857D02*
X17573185Y27679238D01*
X17716042Y27631619D01*
X17811280Y27631619D01*
X17954138Y27679238D01*
X18049376Y27774476D01*
X18096995Y27869714D01*
X18144614Y28060190D01*
X18144614Y28203047D01*
X18096995Y28393523D01*
X18049376Y28488761D01*
X17954138Y28584000D01*
X17811280Y28631619D01*
X17716042Y28631619D01*
X17573185Y28584000D01*
X17525566Y28536380D01*
X16573185Y27631619D02*
X17144614Y27631619D01*
X16858900Y27631619D02*
X16858900Y28631619D01*
X16954138Y28488761D01*
X17049376Y28393523D01*
X17144614Y28345904D01*
%TO.C,L6*%
X26838780Y13080066D02*
X26838780Y13556257D01*
X25838780Y13556257D01*
X25838780Y12318161D02*
X25838780Y12508638D01*
X25886400Y12603876D01*
X25934019Y12651495D01*
X26076876Y12746733D01*
X26267352Y12794352D01*
X26648304Y12794352D01*
X26743542Y12746733D01*
X26791161Y12699114D01*
X26838780Y12603876D01*
X26838780Y12413400D01*
X26791161Y12318161D01*
X26743542Y12270542D01*
X26648304Y12222923D01*
X26410209Y12222923D01*
X26314971Y12270542D01*
X26267352Y12318161D01*
X26219733Y12413400D01*
X26219733Y12603876D01*
X26267352Y12699114D01*
X26314971Y12746733D01*
X26410209Y12794352D01*
D11*
%TO.C,L10*%
X28810378Y15495200D02*
X29609622Y15495200D01*
X28810378Y14375200D02*
X29609622Y14375200D01*
%TO.C,C5*%
X23303600Y23614748D02*
X23303600Y24137252D01*
X24773600Y23614748D02*
X24773600Y24137252D01*
%TO.C,L1*%
X20663378Y25392800D02*
X21462622Y25392800D01*
X20663378Y24272800D02*
X21462622Y24272800D01*
%TO.C,L13*%
X30928778Y27255400D02*
X31728022Y27255400D01*
X30928778Y26135400D02*
X31728022Y26135400D01*
%TO.C,C12*%
X41241652Y25754000D02*
X40719148Y25754000D01*
X41241652Y24284000D02*
X40719148Y24284000D01*
%TO.C,L18*%
X36872378Y25426600D02*
X37671622Y25426600D01*
X36872378Y24306600D02*
X37671622Y24306600D01*
%TO.C,C6*%
X25068200Y16171852D02*
X25068200Y15649348D01*
X23598200Y16171852D02*
X23598200Y15649348D01*
%TO.C,L12*%
X34799200Y16401622D02*
X34799200Y15602378D01*
X33679200Y16401622D02*
X33679200Y15602378D01*
%TO.C,L19*%
X37671622Y22274600D02*
X36872378Y22274600D01*
X37671622Y23394600D02*
X36872378Y23394600D01*
%TO.C,L3*%
X20936378Y16356400D02*
X21735622Y16356400D01*
X20936378Y17476400D02*
X21735622Y17476400D01*
%TO.C,L11*%
X30821600Y24271322D02*
X30821600Y23472078D01*
X29701600Y24271322D02*
X29701600Y23472078D01*
%TO.C,L15*%
X36709778Y17552600D02*
X37509022Y17552600D01*
X36709778Y16432600D02*
X37509022Y16432600D01*
%TO.C,C2*%
X17569352Y23434200D02*
X17046848Y23434200D01*
X17569352Y21964200D02*
X17046848Y21964200D01*
%TO.C,C8*%
X32942200Y16263252D02*
X32942200Y15740748D01*
X31472200Y16263252D02*
X31472200Y15740748D01*
%TO.C,L2*%
X21462622Y23360800D02*
X20663378Y23360800D01*
X21462622Y22240800D02*
X20663378Y22240800D01*
%TO.C,C4*%
X17360348Y15502600D02*
X17882852Y15502600D01*
X17360348Y14032600D02*
X17882852Y14032600D01*
%TO.C,C3*%
X17882852Y16318600D02*
X17360348Y16318600D01*
X17882852Y17788600D02*
X17360348Y17788600D01*
%TO.C,L9*%
X28810378Y16407200D02*
X29609622Y16407200D01*
X28810378Y17527200D02*
X29609622Y17527200D01*
%TO.C,L14*%
X31728022Y21616600D02*
X30928778Y21616600D01*
X31728022Y20496600D02*
X30928778Y20496600D01*
%TO.C,L17*%
X33867200Y24250222D02*
X33867200Y23450978D01*
X34987200Y24250222D02*
X34987200Y23450978D01*
%TO.C,L16*%
X36709778Y15520600D02*
X37509022Y15520600D01*
X36709778Y14400600D02*
X37509022Y14400600D01*
%TO.C,L4*%
X20936378Y15444400D02*
X21735622Y15444400D01*
X20936378Y14324400D02*
X21735622Y14324400D01*
%TO.C,L5*%
X26630600Y24275622D02*
X26630600Y23476378D01*
X25510600Y24275622D02*
X25510600Y23476378D01*
%TO.C,C13*%
X41241652Y21998000D02*
X40719148Y21998000D01*
X41241652Y23468000D02*
X40719148Y23468000D01*
%TO.C,C10*%
X41104452Y16384600D02*
X40581948Y16384600D01*
X41104452Y17854600D02*
X40581948Y17854600D01*
%TO.C,C9*%
X33130200Y23589348D02*
X33130200Y24111852D01*
X31660200Y23589348D02*
X31660200Y24111852D01*
%TO.C,C11*%
X40581948Y15568600D02*
X41104452Y15568600D01*
X40581948Y14098600D02*
X41104452Y14098600D01*
%TO.C,L8*%
X27511622Y21667400D02*
X26712378Y21667400D01*
X27511622Y20547400D02*
X26712378Y20547400D01*
%TO.C,L7*%
X26737778Y27255400D02*
X27537022Y27255400D01*
X26737778Y26135400D02*
X27537022Y26135400D01*
%TO.C,C7*%
X27494600Y23610448D02*
X27494600Y24132952D01*
X28964600Y23610448D02*
X28964600Y24132952D01*
%TO.C,C1*%
X17569352Y24250200D02*
X17046848Y24250200D01*
X17569352Y25720200D02*
X17046848Y25720200D01*
%TO.C,L6*%
X26925200Y16310222D02*
X26925200Y15510978D01*
X25805200Y16310222D02*
X25805200Y15510978D01*
%TD*%
M02*
