M48
; DRILL file {KiCad 7.0.5.1-1-g8f565ef7f0-dirty-deb11} date Fri Jul 21 08:52:31 2023
; FORMAT={3:3/ absolute / metric / suppress leading zeros}
; #@! TF.CreationDate,2023-07-21T08:52:31+00:00
; #@! TF.GenerationSoftware,Kicad,Pcbnew,7.0.5.1-1-g8f565ef7f0-dirty-deb11
; #@! TF.FileFunction,Plated,1,2,PTH
FMAT,2
METRIC,TZ
; #@! TA.AperFunction,Plated,PTH,ComponentDrill
T1C0.740
; #@! TA.AperFunction,Plated,PTH,ComponentDrill
T2C1.350
; #@! TA.AperFunction,Plated,PTH,ComponentDrill
T3C3.000
%
G90
G05
T1
X132423Y-90194
X132423Y-91464
X132423Y-94004
X132423Y-95274
X133923Y-88924
X133923Y-92734
X133923Y-96544
X176398Y-90194
X176398Y-91464
X176398Y-94004
X176398Y-95274
X177898Y-88924
X177898Y-92734
X177898Y-96544
T2
X131423Y-99294
X132423Y-86464
X175398Y-99294
X176398Y-86464
T3
X129154Y-77394
X129154Y-107874
X179954Y-77394
X179954Y-107874
T0
M30
