%TF.GenerationSoftware,KiCad,Pcbnew,6.0.11+dfsg-1~bpo11+1*%
%TF.CreationDate,2023-07-05T12:36:45+00:00*%
%TF.ProjectId,BP02,42503032-2e6b-4696-9361-645f70636258,rev?*%
%TF.SameCoordinates,Original*%
%TF.FileFunction,Paste,Bot*%
%TF.FilePolarity,Positive*%
%FSLAX46Y46*%
G04 Gerber Fmt 4.6, Leading zero omitted, Abs format (unit mm)*
G04 Created by KiCad (PCBNEW 6.0.11+dfsg-1~bpo11+1) date 2023-07-05 12:36:45*
%MOMM*%
%LPD*%
G01*
G04 APERTURE LIST*
G04 Aperture macros list*
%AMRoundRect*
0 Rectangle with rounded corners*
0 $1 Rounding radius*
0 $2 $3 $4 $5 $6 $7 $8 $9 X,Y pos of 4 corners*
0 Add a 4 corners polygon primitive as box body*
4,1,4,$2,$3,$4,$5,$6,$7,$8,$9,$2,$3,0*
0 Add four circle primitives for the rounded corners*
1,1,$1+$1,$2,$3*
1,1,$1+$1,$4,$5*
1,1,$1+$1,$6,$7*
1,1,$1+$1,$8,$9*
0 Add four rect primitives between the rounded corners*
20,1,$1+$1,$2,$3,$4,$5,0*
20,1,$1+$1,$4,$5,$6,$7,0*
20,1,$1+$1,$6,$7,$8,$9,0*
20,1,$1+$1,$8,$9,$2,$3,0*%
G04 Aperture macros list end*
%ADD10RoundRect,0.218750X-0.218750X-0.381250X0.218750X-0.381250X0.218750X0.381250X-0.218750X0.381250X0*%
%ADD11RoundRect,0.250000X0.475000X-0.250000X0.475000X0.250000X-0.475000X0.250000X-0.475000X-0.250000X0*%
%ADD12RoundRect,0.250000X0.250000X0.475000X-0.250000X0.475000X-0.250000X-0.475000X0.250000X-0.475000X0*%
%ADD13RoundRect,0.250000X-0.475000X0.250000X-0.475000X-0.250000X0.475000X-0.250000X0.475000X0.250000X0*%
%ADD14RoundRect,0.218750X-0.381250X0.218750X-0.381250X-0.218750X0.381250X-0.218750X0.381250X0.218750X0*%
%ADD15RoundRect,0.218750X0.218750X0.381250X-0.218750X0.381250X-0.218750X-0.381250X0.218750X-0.381250X0*%
%ADD16RoundRect,0.250000X-0.250000X-0.475000X0.250000X-0.475000X0.250000X0.475000X-0.250000X0.475000X0*%
G04 APERTURE END LIST*
D10*
%TO.C,L10*%
X28147500Y14935200D03*
X30272500Y14935200D03*
%TD*%
D11*
%TO.C,C5*%
X24038600Y22926000D03*
X24038600Y24826000D03*
%TD*%
D10*
%TO.C,L1*%
X20000500Y24832800D03*
X22125500Y24832800D03*
%TD*%
%TO.C,L13*%
X30265900Y26695400D03*
X32390900Y26695400D03*
%TD*%
D12*
%TO.C,C12*%
X41930400Y25019000D03*
X40030400Y25019000D03*
%TD*%
D10*
%TO.C,L18*%
X36209500Y24866600D03*
X38334500Y24866600D03*
%TD*%
D13*
%TO.C,C6*%
X24333200Y16860600D03*
X24333200Y14960600D03*
%TD*%
D14*
%TO.C,L12*%
X34239200Y17064500D03*
X34239200Y14939500D03*
%TD*%
D15*
%TO.C,L19*%
X38334500Y22834600D03*
X36209500Y22834600D03*
%TD*%
D10*
%TO.C,L3*%
X20273500Y16916400D03*
X22398500Y16916400D03*
%TD*%
D14*
%TO.C,L11*%
X30261600Y24934200D03*
X30261600Y22809200D03*
%TD*%
D10*
%TO.C,L15*%
X36046900Y16992600D03*
X38171900Y16992600D03*
%TD*%
D12*
%TO.C,C2*%
X18258100Y22699200D03*
X16358100Y22699200D03*
%TD*%
D13*
%TO.C,C8*%
X32207200Y16952000D03*
X32207200Y15052000D03*
%TD*%
D15*
%TO.C,L2*%
X22125500Y22800800D03*
X20000500Y22800800D03*
%TD*%
D16*
%TO.C,C4*%
X16671600Y14767600D03*
X18571600Y14767600D03*
%TD*%
D12*
%TO.C,C3*%
X18571600Y17053600D03*
X16671600Y17053600D03*
%TD*%
D10*
%TO.C,L9*%
X28147500Y16967200D03*
X30272500Y16967200D03*
%TD*%
D15*
%TO.C,L14*%
X32390900Y21056600D03*
X30265900Y21056600D03*
%TD*%
D14*
%TO.C,L17*%
X34427200Y24913100D03*
X34427200Y22788100D03*
%TD*%
D10*
%TO.C,L16*%
X36046900Y14960600D03*
X38171900Y14960600D03*
%TD*%
%TO.C,L4*%
X20273500Y14884400D03*
X22398500Y14884400D03*
%TD*%
D14*
%TO.C,L5*%
X26070600Y24938500D03*
X26070600Y22813500D03*
%TD*%
D12*
%TO.C,C13*%
X41930400Y22733000D03*
X40030400Y22733000D03*
%TD*%
%TO.C,C10*%
X41793200Y17119600D03*
X39893200Y17119600D03*
%TD*%
D11*
%TO.C,C9*%
X32395200Y22900600D03*
X32395200Y24800600D03*
%TD*%
D16*
%TO.C,C11*%
X39893200Y14833600D03*
X41793200Y14833600D03*
%TD*%
D15*
%TO.C,L8*%
X28174500Y21107400D03*
X26049500Y21107400D03*
%TD*%
D10*
%TO.C,L7*%
X26074900Y26695400D03*
X28199900Y26695400D03*
%TD*%
D11*
%TO.C,C7*%
X28229600Y22921700D03*
X28229600Y24821700D03*
%TD*%
D12*
%TO.C,C1*%
X18258100Y24985200D03*
X16358100Y24985200D03*
%TD*%
D14*
%TO.C,L6*%
X26365200Y16973100D03*
X26365200Y14848100D03*
%TD*%
M02*
