%TF.GenerationSoftware,KiCad,Pcbnew,7.0.7-7.0.7~ubuntu23.04.1*%
%TF.CreationDate,2023-09-11T00:30:10+00:00*%
%TF.ProjectId,BP02,42503032-2e6b-4696-9361-645f70636258,rev?*%
%TF.SameCoordinates,Original*%
%TF.FileFunction,Copper,L2,Bot*%
%TF.FilePolarity,Positive*%
%FSLAX46Y46*%
G04 Gerber Fmt 4.6, Leading zero omitted, Abs format (unit mm)*
G04 Created by KiCad (PCBNEW 7.0.7-7.0.7~ubuntu23.04.1) date 2023-09-11 00:30:10*
%MOMM*%
%LPD*%
G01*
G04 APERTURE LIST*
G04 Aperture macros list*
%AMRoundRect*
0 Rectangle with rounded corners*
0 $1 Rounding radius*
0 $2 $3 $4 $5 $6 $7 $8 $9 X,Y pos of 4 corners*
0 Add a 4 corners polygon primitive as box body*
4,1,4,$2,$3,$4,$5,$6,$7,$8,$9,$2,$3,0*
0 Add four circle primitives for the rounded corners*
1,1,$1+$1,$2,$3*
1,1,$1+$1,$4,$5*
1,1,$1+$1,$6,$7*
1,1,$1+$1,$8,$9*
0 Add four rect primitives between the rounded corners*
20,1,$1+$1,$2,$3,$4,$5,0*
20,1,$1+$1,$4,$5,$6,$7,0*
20,1,$1+$1,$6,$7,$8,$9,0*
20,1,$1+$1,$8,$9,$2,$3,0*%
G04 Aperture macros list end*
%TA.AperFunction,ComponentPad*%
%ADD10C,6.000000*%
%TD*%
%TA.AperFunction,ComponentPad*%
%ADD11O,1.300000X1.100000*%
%TD*%
%TA.AperFunction,ComponentPad*%
%ADD12C,2.500000*%
%TD*%
%TA.AperFunction,SMDPad,CuDef*%
%ADD13RoundRect,0.218750X-0.218750X-0.381250X0.218750X-0.381250X0.218750X0.381250X-0.218750X0.381250X0*%
%TD*%
%TA.AperFunction,SMDPad,CuDef*%
%ADD14RoundRect,0.250000X0.475000X-0.250000X0.475000X0.250000X-0.475000X0.250000X-0.475000X-0.250000X0*%
%TD*%
%TA.AperFunction,SMDPad,CuDef*%
%ADD15RoundRect,0.250000X0.250000X0.475000X-0.250000X0.475000X-0.250000X-0.475000X0.250000X-0.475000X0*%
%TD*%
%TA.AperFunction,SMDPad,CuDef*%
%ADD16RoundRect,0.250000X-0.475000X0.250000X-0.475000X-0.250000X0.475000X-0.250000X0.475000X0.250000X0*%
%TD*%
%TA.AperFunction,SMDPad,CuDef*%
%ADD17RoundRect,0.218750X-0.381250X0.218750X-0.381250X-0.218750X0.381250X-0.218750X0.381250X0.218750X0*%
%TD*%
%TA.AperFunction,SMDPad,CuDef*%
%ADD18RoundRect,0.218750X0.218750X0.381250X-0.218750X0.381250X-0.218750X-0.381250X0.218750X-0.381250X0*%
%TD*%
%TA.AperFunction,SMDPad,CuDef*%
%ADD19RoundRect,0.250000X-0.250000X-0.475000X0.250000X-0.475000X0.250000X0.475000X-0.250000X0.475000X0*%
%TD*%
%TA.AperFunction,Conductor*%
%ADD20C,0.600000*%
%TD*%
G04 APERTURE END LIST*
D10*
%TO.P,M1,1*%
%TO.N,GND*%
X129154000Y-77394000D03*
%TD*%
%TO.P,M3,1*%
%TO.N,GND*%
X179954000Y-107874000D03*
%TD*%
D11*
%TO.P,J1,1,1*%
%TO.N,GND*%
X133923000Y-88924000D03*
%TO.P,J1,2,2*%
%TO.N,3rd_order_in_P*%
X132423000Y-90194000D03*
%TO.P,J1,3,3*%
%TO.N,3rd_order_in_N*%
X132423000Y-91464000D03*
%TO.P,J1,4,4*%
%TO.N,GND*%
X133923000Y-92734000D03*
%TO.P,J1,5,5*%
%TO.N,2rd_order_in_P*%
X132423000Y-94004000D03*
%TO.P,J1,6,6*%
%TO.N,2rd_order_in_N*%
X132423000Y-95274000D03*
%TO.P,J1,7,7*%
%TO.N,GND*%
X133923000Y-96544000D03*
D12*
%TO.P,J1,8,4*%
X131423000Y-99294000D03*
%TO.P,J1,9,7*%
X132423000Y-86464000D03*
%TD*%
D11*
%TO.P,J2,1,1*%
%TO.N,GND*%
X177898000Y-88924000D03*
%TO.P,J2,2,2*%
%TO.N,3rd_order_out_P*%
X176398000Y-90194000D03*
%TO.P,J2,3,3*%
%TO.N,3rd_order_out_N*%
X176398000Y-91464000D03*
%TO.P,J2,4,4*%
%TO.N,GND*%
X177898000Y-92734000D03*
%TO.P,J2,5,5*%
%TO.N,2rd_order_out_P*%
X176398000Y-94004000D03*
%TO.P,J2,6,6*%
%TO.N,2rd_order_out_N*%
X176398000Y-95274000D03*
%TO.P,J2,7,7*%
%TO.N,GND*%
X177898000Y-96544000D03*
D12*
%TO.P,J2,8,4*%
X175398000Y-99294000D03*
%TO.P,J2,9,7*%
X176398000Y-86464000D03*
%TD*%
D10*
%TO.P,M4,1*%
%TO.N,GND*%
X129154000Y-107874000D03*
%TD*%
%TO.P,M2,1*%
%TO.N,GND*%
X179954000Y-77394000D03*
%TD*%
D13*
%TO.P,L10,1,1*%
%TO.N,Net-(C6-Pad2)*%
X152221500Y-98018800D03*
%TO.P,L10,2,2*%
%TO.N,Net-(C8-Pad2)*%
X154346500Y-98018800D03*
%TD*%
D14*
%TO.P,C5,1*%
%TO.N,Net-(C5-Pad1)*%
X148112600Y-90028000D03*
%TO.P,C5,2*%
%TO.N,Net-(C5-Pad2)*%
X148112600Y-88128000D03*
%TD*%
D13*
%TO.P,L1,1,1*%
%TO.N,Net-(C1-Pad1)*%
X144074500Y-88121200D03*
%TO.P,L1,2,2*%
%TO.N,Net-(C5-Pad2)*%
X146199500Y-88121200D03*
%TD*%
%TO.P,L13,1,1*%
%TO.N,Net-(C7-Pad2)*%
X154339900Y-86258600D03*
%TO.P,L13,2,2*%
%TO.N,Net-(C9-Pad2)*%
X156464900Y-86258600D03*
%TD*%
D15*
%TO.P,C12,1*%
%TO.N,3rd_order_out_P*%
X166004400Y-87935000D03*
%TO.P,C12,2*%
%TO.N,Net-(C12-Pad2)*%
X164104400Y-87935000D03*
%TD*%
D13*
%TO.P,L18,1,1*%
%TO.N,Net-(C9-Pad2)*%
X160283500Y-88087400D03*
%TO.P,L18,2,2*%
%TO.N,Net-(C12-Pad2)*%
X162408500Y-88087400D03*
%TD*%
D16*
%TO.P,C6,1*%
%TO.N,Net-(C6-Pad1)*%
X148407200Y-96093400D03*
%TO.P,C6,2*%
%TO.N,Net-(C6-Pad2)*%
X148407200Y-97993400D03*
%TD*%
D17*
%TO.P,L12,1,1*%
%TO.N,Net-(C8-Pad1)*%
X158313200Y-95889500D03*
%TO.P,L12,2,2*%
%TO.N,Net-(C8-Pad2)*%
X158313200Y-98014500D03*
%TD*%
D18*
%TO.P,L19,1,1*%
%TO.N,Net-(C13-Pad2)*%
X162408500Y-90119400D03*
%TO.P,L19,2,2*%
%TO.N,Net-(C9-Pad1)*%
X160283500Y-90119400D03*
%TD*%
D13*
%TO.P,L3,1,1*%
%TO.N,Net-(C3-Pad1)*%
X144347500Y-96037600D03*
%TO.P,L3,2,2*%
%TO.N,Net-(C6-Pad1)*%
X146472500Y-96037600D03*
%TD*%
D17*
%TO.P,L11,1,1*%
%TO.N,Net-(C7-Pad2)*%
X154335600Y-88019800D03*
%TO.P,L11,2,2*%
%TO.N,Net-(C7-Pad1)*%
X154335600Y-90144800D03*
%TD*%
D13*
%TO.P,L15,1,1*%
%TO.N,Net-(C8-Pad1)*%
X160120900Y-95961400D03*
%TO.P,L15,2,2*%
%TO.N,Net-(C10-Pad2)*%
X162245900Y-95961400D03*
%TD*%
D15*
%TO.P,C2,1*%
%TO.N,Net-(C2-Pad1)*%
X142332100Y-90254800D03*
%TO.P,C2,2*%
%TO.N,3rd_order_in_N*%
X140432100Y-90254800D03*
%TD*%
D16*
%TO.P,C8,1*%
%TO.N,Net-(C8-Pad1)*%
X156281200Y-96002000D03*
%TO.P,C8,2*%
%TO.N,Net-(C8-Pad2)*%
X156281200Y-97902000D03*
%TD*%
D18*
%TO.P,L2,1,1*%
%TO.N,Net-(C5-Pad1)*%
X146199500Y-90153200D03*
%TO.P,L2,2,2*%
%TO.N,Net-(C2-Pad1)*%
X144074500Y-90153200D03*
%TD*%
D19*
%TO.P,C4,1*%
%TO.N,2rd_order_in_N*%
X140745600Y-98186400D03*
%TO.P,C4,2*%
%TO.N,Net-(C4-Pad2)*%
X142645600Y-98186400D03*
%TD*%
D15*
%TO.P,C3,1*%
%TO.N,Net-(C3-Pad1)*%
X142645600Y-95900400D03*
%TO.P,C3,2*%
%TO.N,2rd_order_in_P*%
X140745600Y-95900400D03*
%TD*%
D13*
%TO.P,L9,1,1*%
%TO.N,Net-(C6-Pad1)*%
X152221500Y-95986800D03*
%TO.P,L9,2,2*%
%TO.N,Net-(C8-Pad1)*%
X154346500Y-95986800D03*
%TD*%
D18*
%TO.P,L14,1,1*%
%TO.N,Net-(C9-Pad1)*%
X156464900Y-91897400D03*
%TO.P,L14,2,2*%
%TO.N,Net-(C7-Pad1)*%
X154339900Y-91897400D03*
%TD*%
D17*
%TO.P,L17,1,1*%
%TO.N,Net-(C9-Pad2)*%
X158501200Y-88040900D03*
%TO.P,L17,2,2*%
%TO.N,Net-(C9-Pad1)*%
X158501200Y-90165900D03*
%TD*%
D13*
%TO.P,L16,1,1*%
%TO.N,Net-(C8-Pad2)*%
X160120900Y-97993400D03*
%TO.P,L16,2,2*%
%TO.N,Net-(C11-Pad1)*%
X162245900Y-97993400D03*
%TD*%
%TO.P,L4,1,1*%
%TO.N,Net-(C4-Pad2)*%
X144347500Y-98069600D03*
%TO.P,L4,2,2*%
%TO.N,Net-(C6-Pad2)*%
X146472500Y-98069600D03*
%TD*%
D17*
%TO.P,L5,1,1*%
%TO.N,Net-(C5-Pad2)*%
X150144600Y-88015500D03*
%TO.P,L5,2,2*%
%TO.N,Net-(C5-Pad1)*%
X150144600Y-90140500D03*
%TD*%
D15*
%TO.P,C13,1*%
%TO.N,3rd_order_out_N*%
X166004400Y-90221000D03*
%TO.P,C13,2*%
%TO.N,Net-(C13-Pad2)*%
X164104400Y-90221000D03*
%TD*%
%TO.P,C10,1*%
%TO.N,2rd_order_out_P*%
X165867200Y-95834400D03*
%TO.P,C10,2*%
%TO.N,Net-(C10-Pad2)*%
X163967200Y-95834400D03*
%TD*%
D14*
%TO.P,C9,1*%
%TO.N,Net-(C9-Pad1)*%
X156469200Y-90053400D03*
%TO.P,C9,2*%
%TO.N,Net-(C9-Pad2)*%
X156469200Y-88153400D03*
%TD*%
D19*
%TO.P,C11,1*%
%TO.N,Net-(C11-Pad1)*%
X163967200Y-98120400D03*
%TO.P,C11,2*%
%TO.N,2rd_order_out_N*%
X165867200Y-98120400D03*
%TD*%
D18*
%TO.P,L8,1,1*%
%TO.N,Net-(C7-Pad1)*%
X152248500Y-91846600D03*
%TO.P,L8,2,2*%
%TO.N,Net-(C5-Pad1)*%
X150123500Y-91846600D03*
%TD*%
D13*
%TO.P,L7,1,1*%
%TO.N,Net-(C5-Pad2)*%
X150148900Y-86258600D03*
%TO.P,L7,2,2*%
%TO.N,Net-(C7-Pad2)*%
X152273900Y-86258600D03*
%TD*%
D14*
%TO.P,C7,1*%
%TO.N,Net-(C7-Pad1)*%
X152303600Y-90032300D03*
%TO.P,C7,2*%
%TO.N,Net-(C7-Pad2)*%
X152303600Y-88132300D03*
%TD*%
D15*
%TO.P,C1,1*%
%TO.N,Net-(C1-Pad1)*%
X142332100Y-87968800D03*
%TO.P,C1,2*%
%TO.N,3rd_order_in_P*%
X140432100Y-87968800D03*
%TD*%
D17*
%TO.P,L6,1,1*%
%TO.N,Net-(C6-Pad1)*%
X150439200Y-95980900D03*
%TO.P,L6,2,2*%
%TO.N,Net-(C6-Pad2)*%
X150439200Y-98105900D03*
%TD*%
D20*
%TO.N,Net-(C1-Pad1)*%
X142484500Y-88121200D02*
X142332100Y-87968800D01*
X144074500Y-88121200D02*
X142484500Y-88121200D01*
%TO.N,3rd_order_in_P*%
X137883200Y-87968800D02*
X140432100Y-87968800D01*
X132423000Y-90194000D02*
X135658000Y-90194000D01*
X135658000Y-90194000D02*
X137883200Y-87968800D01*
%TO.N,Net-(C2-Pad1)*%
X144074500Y-90153200D02*
X142433700Y-90153200D01*
X142433700Y-90153200D02*
X142332100Y-90254800D01*
%TO.N,3rd_order_in_N*%
X132423000Y-91464000D02*
X135835800Y-91464000D01*
X139703400Y-90254800D02*
X140432100Y-90254800D01*
X137866200Y-89433600D02*
X138882200Y-89433600D01*
X138882200Y-89433600D02*
X139703400Y-90254800D01*
X135835800Y-91464000D02*
X137866200Y-89433600D01*
%TO.N,Net-(C3-Pad1)*%
X144347500Y-96037600D02*
X142782800Y-96037600D01*
X142782800Y-96037600D02*
X142645600Y-95900400D01*
%TO.N,2rd_order_in_P*%
X138983800Y-96596400D02*
X139679800Y-95900400D01*
X138247200Y-96596400D02*
X138983800Y-96596400D01*
X135654800Y-94004000D02*
X138247200Y-96596400D01*
X132423000Y-94004000D02*
X135654800Y-94004000D01*
X139679800Y-95900400D02*
X140745600Y-95900400D01*
%TO.N,2rd_order_in_N*%
X132423000Y-95274000D02*
X133302930Y-95274000D01*
X140745600Y-98186400D02*
X138262400Y-98186400D01*
X138262400Y-98186400D02*
X135350000Y-95274000D01*
X135350000Y-95274000D02*
X132423000Y-95274000D01*
%TO.N,Net-(C4-Pad2)*%
X142762400Y-98069600D02*
X142645600Y-98186400D01*
X144347500Y-98069600D02*
X142762400Y-98069600D01*
%TO.N,Net-(C5-Pad1)*%
X150123500Y-90161600D02*
X150144600Y-90140500D01*
X148112600Y-90028000D02*
X150032100Y-90028000D01*
X150032100Y-90028000D02*
X150144600Y-90140500D01*
X150123500Y-91846600D02*
X150123500Y-90161600D01*
X146199500Y-90153200D02*
X147987400Y-90153200D01*
X147987400Y-90153200D02*
X148112600Y-90028000D01*
%TO.N,Net-(C5-Pad2)*%
X148112600Y-88128000D02*
X146206300Y-88128000D01*
X150148900Y-88011200D02*
X150144600Y-88015500D01*
X146206300Y-88128000D02*
X146199500Y-88121200D01*
X150032100Y-88128000D02*
X150144600Y-88015500D01*
X150148900Y-86258600D02*
X150148900Y-88011200D01*
X148112600Y-88128000D02*
X150032100Y-88128000D01*
%TO.N,Net-(C6-Pad1)*%
X152221500Y-95986800D02*
X150445100Y-95986800D01*
X146528300Y-96093400D02*
X146472500Y-96037600D01*
X148407200Y-96093400D02*
X150326700Y-96093400D01*
X150445100Y-95986800D02*
X150439200Y-95980900D01*
X150326700Y-96093400D02*
X150439200Y-95980900D01*
X148407200Y-96093400D02*
X146528300Y-96093400D01*
%TO.N,Net-(C6-Pad2)*%
X150326700Y-97993400D02*
X150439200Y-98105900D01*
X152221500Y-98018800D02*
X150526300Y-98018800D01*
X146548700Y-97993400D02*
X146472500Y-98069600D01*
X148407200Y-97993400D02*
X146548700Y-97993400D01*
X150526300Y-98018800D02*
X150439200Y-98105900D01*
X148407200Y-97993400D02*
X150326700Y-97993400D01*
%TO.N,Net-(C7-Pad1)*%
X154223100Y-90032300D02*
X154335600Y-90144800D01*
X154339900Y-90149100D02*
X154335600Y-90144800D01*
X152248500Y-90087400D02*
X152303600Y-90032300D01*
X152248500Y-91846600D02*
X152248500Y-90087400D01*
X152303600Y-90032300D02*
X154223100Y-90032300D01*
X154386400Y-90094000D02*
X154335600Y-90144800D01*
X154339900Y-91897400D02*
X154339900Y-90149100D01*
%TO.N,Net-(C7-Pad2)*%
X154223100Y-88132300D02*
X154335600Y-88019800D01*
X152303600Y-88132300D02*
X154223100Y-88132300D01*
X152273900Y-86258600D02*
X152273900Y-88102600D01*
X154335600Y-86262900D02*
X154339900Y-86258600D01*
X154335600Y-88019800D02*
X154335600Y-86262900D01*
X152273900Y-88102600D02*
X152303600Y-88132300D01*
X154377800Y-88062000D02*
X154335600Y-88019800D01*
%TO.N,Net-(C8-Pad1)*%
X160120900Y-95961400D02*
X158385100Y-95961400D01*
X156281200Y-96002000D02*
X158200700Y-96002000D01*
X154361700Y-96002000D02*
X154346500Y-95986800D01*
X158385100Y-95961400D02*
X158313200Y-95889500D01*
X158200700Y-96002000D02*
X158313200Y-95889500D01*
X156281200Y-96002000D02*
X154361700Y-96002000D01*
%TO.N,Net-(C8-Pad2)*%
X154463300Y-97902000D02*
X154346500Y-98018800D01*
X158200700Y-97902000D02*
X158313200Y-98014500D01*
X156281200Y-97902000D02*
X154463300Y-97902000D01*
X156281200Y-97902000D02*
X158200700Y-97902000D01*
X160120900Y-97993400D02*
X158334300Y-97993400D01*
X158334300Y-97993400D02*
X158313200Y-98014500D01*
%TO.N,Net-(C9-Pad1)*%
X158388700Y-90053400D02*
X158501200Y-90165900D01*
X156469200Y-90053400D02*
X158388700Y-90053400D01*
X160237000Y-90165900D02*
X160283500Y-90119400D01*
X156464900Y-90057700D02*
X156469200Y-90053400D01*
X158501200Y-90165900D02*
X160237000Y-90165900D01*
X156464900Y-91897400D02*
X156464900Y-90057700D01*
%TO.N,Net-(C9-Pad2)*%
X158388700Y-88153400D02*
X158501200Y-88040900D01*
X156469200Y-86262900D02*
X156464900Y-86258600D01*
X156469200Y-88153400D02*
X156469200Y-86262900D01*
X158547700Y-88087400D02*
X158501200Y-88040900D01*
X156469200Y-88153400D02*
X158388700Y-88153400D01*
X160283500Y-88087400D02*
X158547700Y-88087400D01*
%TO.N,2rd_order_out_P*%
X169260600Y-96647200D02*
X171903800Y-94004000D01*
X167685800Y-96647200D02*
X169260600Y-96647200D01*
X171903800Y-94004000D02*
X176398000Y-94004000D01*
X165867200Y-95834400D02*
X166873000Y-95834400D01*
X166873000Y-95834400D02*
X167685800Y-96647200D01*
%TO.N,Net-(C10-Pad2)*%
X163840200Y-95961400D02*
X163967200Y-95834400D01*
X162245900Y-95961400D02*
X163840200Y-95961400D01*
%TO.N,Net-(C11-Pad1)*%
X163840200Y-97993400D02*
X163967200Y-98120400D01*
X162245900Y-97993400D02*
X163840200Y-97993400D01*
%TO.N,2rd_order_out_N*%
X165867200Y-98120400D02*
X169540000Y-98120400D01*
X172386400Y-95274000D02*
X176398000Y-95274000D01*
X169540000Y-98120400D02*
X172386400Y-95274000D01*
%TO.N,3rd_order_out_P*%
X169260600Y-87935000D02*
X166004400Y-87935000D01*
X176398000Y-90194000D02*
X171519600Y-90194000D01*
X171519600Y-90194000D02*
X169260600Y-87935000D01*
%TO.N,Net-(C12-Pad2)*%
X163952000Y-88087400D02*
X164104400Y-87935000D01*
X162408500Y-88087400D02*
X163952000Y-88087400D01*
%TO.N,3rd_order_out_N*%
X167177800Y-90221000D02*
X166004400Y-90221000D01*
X167990600Y-89408200D02*
X167177800Y-90221000D01*
X171062400Y-91464000D02*
X169006600Y-89408200D01*
X176398000Y-91464000D02*
X171062400Y-91464000D01*
X169006600Y-89408200D02*
X167990600Y-89408200D01*
%TO.N,Net-(C13-Pad2)*%
X164002800Y-90119400D02*
X164104400Y-90221000D01*
X162408500Y-90119400D02*
X164002800Y-90119400D01*
%TD*%
%TA.AperFunction,Conductor*%
%TO.N,GND*%
G36*
X168687639Y-90236702D02*
G01*
X168708613Y-90253604D01*
X170426289Y-91971281D01*
X170555119Y-92100111D01*
X170590814Y-92122539D01*
X170596568Y-92126622D01*
X170629530Y-92152909D01*
X170667518Y-92171203D01*
X170673679Y-92174607D01*
X170709385Y-92197043D01*
X170749171Y-92210965D01*
X170755693Y-92213666D01*
X170768525Y-92219845D01*
X170793676Y-92231958D01*
X170793677Y-92231958D01*
X170793679Y-92231959D01*
X170834777Y-92241338D01*
X170841564Y-92243294D01*
X170859591Y-92249602D01*
X170881353Y-92257217D01*
X170923234Y-92261935D01*
X170930197Y-92263117D01*
X170971303Y-92272500D01*
X171016994Y-92272500D01*
X175569553Y-92272500D01*
X175637674Y-92292502D01*
X175649487Y-92301101D01*
X175707083Y-92348369D01*
X175890969Y-92446659D01*
X176090498Y-92507185D01*
X176090503Y-92507185D01*
X176090505Y-92507186D01*
X176204349Y-92518398D01*
X176245995Y-92522500D01*
X176246004Y-92522500D01*
X176549996Y-92522500D01*
X176550005Y-92522500D01*
X176603100Y-92517270D01*
X176705496Y-92507186D01*
X176705497Y-92507185D01*
X176705502Y-92507185D01*
X176753370Y-92492664D01*
X176777237Y-92485425D01*
X176813811Y-92480000D01*
X177413480Y-92480000D01*
X177481601Y-92500002D01*
X177528094Y-92553658D01*
X177538198Y-92623932D01*
X177535622Y-92636940D01*
X177534361Y-92641915D01*
X177524165Y-92764976D01*
X177524165Y-92764977D01*
X177539640Y-92826084D01*
X177540902Y-92831068D01*
X177538235Y-92902015D01*
X177497635Y-92960257D01*
X177431992Y-92987303D01*
X177418758Y-92988000D01*
X176813811Y-92988000D01*
X176777237Y-92982575D01*
X176729181Y-92967998D01*
X176705502Y-92960815D01*
X176705499Y-92960814D01*
X176705494Y-92960813D01*
X176705498Y-92960813D01*
X176550013Y-92945500D01*
X176550005Y-92945500D01*
X176245995Y-92945500D01*
X176245986Y-92945500D01*
X176090505Y-92960813D01*
X175890968Y-93021341D01*
X175707082Y-93119631D01*
X175649487Y-93166899D01*
X175584140Y-93194653D01*
X175569553Y-93195500D01*
X171812703Y-93195500D01*
X171771610Y-93204878D01*
X171764644Y-93206061D01*
X171722753Y-93210782D01*
X171722743Y-93210785D01*
X171682966Y-93224703D01*
X171676176Y-93226660D01*
X171635083Y-93236040D01*
X171635079Y-93236041D01*
X171610857Y-93247705D01*
X171597100Y-93254330D01*
X171590571Y-93257034D01*
X171550783Y-93270957D01*
X171515095Y-93293382D01*
X171508908Y-93296801D01*
X171470930Y-93315091D01*
X171470924Y-93315094D01*
X171437974Y-93341371D01*
X171432211Y-93345461D01*
X171396524Y-93367884D01*
X171396522Y-93367886D01*
X171346489Y-93417916D01*
X171346486Y-93417921D01*
X168962613Y-95801795D01*
X168900301Y-95835820D01*
X168873518Y-95838700D01*
X168072882Y-95838700D01*
X168004761Y-95818698D01*
X167983787Y-95801795D01*
X167700617Y-95518625D01*
X167412589Y-95230597D01*
X167380281Y-95198289D01*
X167348469Y-95178300D01*
X167344591Y-95175863D01*
X167338825Y-95171772D01*
X167319794Y-95156595D01*
X167305870Y-95145491D01*
X167305869Y-95145490D01*
X167305867Y-95145489D01*
X167267890Y-95127200D01*
X167261702Y-95123780D01*
X167226015Y-95101357D01*
X167211851Y-95096401D01*
X167186226Y-95087434D01*
X167179698Y-95084730D01*
X167141724Y-95066442D01*
X167141717Y-95066440D01*
X167100620Y-95057059D01*
X167093830Y-95055102D01*
X167054052Y-95041184D01*
X167054046Y-95041182D01*
X167012156Y-95036462D01*
X167005187Y-95035278D01*
X166964099Y-95025900D01*
X166964097Y-95025900D01*
X166918406Y-95025900D01*
X166873000Y-95025900D01*
X166804879Y-95005898D01*
X166765759Y-94966047D01*
X166760022Y-94956746D01*
X166716230Y-94885748D01*
X166716229Y-94885747D01*
X166716224Y-94885741D01*
X166590858Y-94760375D01*
X166590852Y-94760370D01*
X166546940Y-94733285D01*
X166439938Y-94667285D01*
X166354578Y-94639000D01*
X166271627Y-94611513D01*
X166271620Y-94611512D01*
X166167753Y-94600900D01*
X165566655Y-94600900D01*
X165462774Y-94611512D01*
X165294461Y-94667285D01*
X165143547Y-94760370D01*
X165143541Y-94760375D01*
X165018172Y-94885744D01*
X165016034Y-94888449D01*
X165014095Y-94889821D01*
X165012980Y-94890937D01*
X165012789Y-94890746D01*
X164958092Y-94929476D01*
X164887167Y-94932664D01*
X164825777Y-94897002D01*
X164818366Y-94888449D01*
X164816227Y-94885744D01*
X164690858Y-94760375D01*
X164690852Y-94760370D01*
X164646940Y-94733285D01*
X164539938Y-94667285D01*
X164454578Y-94639000D01*
X164371627Y-94611513D01*
X164371620Y-94611512D01*
X164267753Y-94600900D01*
X163666655Y-94600900D01*
X163562774Y-94611512D01*
X163394461Y-94667285D01*
X163243547Y-94760370D01*
X163243541Y-94760375D01*
X163118175Y-94885741D01*
X163118168Y-94885749D01*
X163075725Y-94954561D01*
X163022939Y-95002038D01*
X162952864Y-95013441D01*
X162902338Y-94995654D01*
X162774092Y-94916551D01*
X162774091Y-94916550D01*
X162612714Y-94863076D01*
X162612711Y-94863075D01*
X162612709Y-94863075D01*
X162513119Y-94852900D01*
X161978689Y-94852900D01*
X161879090Y-94863075D01*
X161879087Y-94863075D01*
X161879086Y-94863076D01*
X161867341Y-94866968D01*
X161717707Y-94916551D01*
X161573012Y-95005800D01*
X161573006Y-95005805D01*
X161452805Y-95126006D01*
X161452800Y-95126012D01*
X161363551Y-95270707D01*
X161310075Y-95432089D01*
X161308747Y-95445091D01*
X161281924Y-95510825D01*
X161223820Y-95551623D01*
X161152883Y-95554531D01*
X161091635Y-95518625D01*
X161059522Y-95455306D01*
X161058052Y-95445085D01*
X161056724Y-95432090D01*
X161056724Y-95432089D01*
X161056724Y-95432086D01*
X161003249Y-95270708D01*
X160914000Y-95126013D01*
X160913999Y-95126012D01*
X160913994Y-95126006D01*
X160793793Y-95005805D01*
X160793787Y-95005800D01*
X160649092Y-94916551D01*
X160487714Y-94863076D01*
X160487711Y-94863075D01*
X160487709Y-94863075D01*
X160388119Y-94852900D01*
X159853689Y-94852900D01*
X159754090Y-94863075D01*
X159754087Y-94863075D01*
X159754086Y-94863076D01*
X159742341Y-94866968D01*
X159592707Y-94916551D01*
X159448012Y-95005800D01*
X159342094Y-95111718D01*
X159279782Y-95145743D01*
X159208966Y-95140677D01*
X159163903Y-95111716D01*
X159148587Y-95096400D01*
X159003892Y-95007151D01*
X158842514Y-94953676D01*
X158842511Y-94953675D01*
X158842509Y-94953675D01*
X158742919Y-94943500D01*
X157883489Y-94943500D01*
X157783890Y-94953675D01*
X157783887Y-94953675D01*
X157783886Y-94953676D01*
X157755742Y-94963002D01*
X157622507Y-95007151D01*
X157477812Y-95096400D01*
X157477811Y-95096401D01*
X157462498Y-95111715D01*
X157417616Y-95156596D01*
X157355307Y-95190620D01*
X157328523Y-95193500D01*
X157322573Y-95193500D01*
X157254452Y-95173498D01*
X157233478Y-95156595D01*
X157229858Y-95152975D01*
X157229852Y-95152970D01*
X157209922Y-95140677D01*
X157078938Y-95059885D01*
X156938777Y-95013441D01*
X156910627Y-95004113D01*
X156910620Y-95004112D01*
X156806753Y-94993500D01*
X155755655Y-94993500D01*
X155651774Y-95004112D01*
X155483461Y-95059885D01*
X155332547Y-95152970D01*
X155332541Y-95152975D01*
X155328922Y-95156595D01*
X155266610Y-95190621D01*
X155239827Y-95193500D01*
X155233878Y-95193500D01*
X155165757Y-95173498D01*
X155144783Y-95156595D01*
X155019393Y-95031205D01*
X155019387Y-95031200D01*
X154874692Y-94941951D01*
X154846665Y-94932664D01*
X154713314Y-94888476D01*
X154713311Y-94888475D01*
X154713309Y-94888475D01*
X154613719Y-94878300D01*
X154079289Y-94878300D01*
X153979690Y-94888475D01*
X153979687Y-94888475D01*
X153979686Y-94888476D01*
X153899723Y-94914972D01*
X153818307Y-94941951D01*
X153673612Y-95031200D01*
X153673606Y-95031205D01*
X153553405Y-95151406D01*
X153553400Y-95151412D01*
X153464151Y-95296107D01*
X153410675Y-95457489D01*
X153409347Y-95470491D01*
X153382524Y-95536225D01*
X153324420Y-95577023D01*
X153253483Y-95579931D01*
X153192235Y-95544025D01*
X153160122Y-95480706D01*
X153158652Y-95470485D01*
X153157324Y-95457490D01*
X153157324Y-95457489D01*
X153157324Y-95457486D01*
X153103849Y-95296108D01*
X153014600Y-95151413D01*
X153014599Y-95151412D01*
X153014594Y-95151406D01*
X152894393Y-95031205D01*
X152894387Y-95031200D01*
X152749692Y-94941951D01*
X152721665Y-94932664D01*
X152588314Y-94888476D01*
X152588311Y-94888475D01*
X152588309Y-94888475D01*
X152488719Y-94878300D01*
X151954289Y-94878300D01*
X151854690Y-94888475D01*
X151854687Y-94888475D01*
X151854686Y-94888476D01*
X151774723Y-94914972D01*
X151693307Y-94941951D01*
X151548612Y-95031200D01*
X151548606Y-95031205D01*
X151438417Y-95141395D01*
X151376105Y-95175421D01*
X151349322Y-95178300D01*
X151294919Y-95178300D01*
X151228772Y-95159541D01*
X151129892Y-95098551D01*
X151092818Y-95086266D01*
X150968514Y-95045076D01*
X150968511Y-95045075D01*
X150968509Y-95045075D01*
X150868919Y-95034900D01*
X150009489Y-95034900D01*
X149909890Y-95045075D01*
X149909887Y-95045075D01*
X149909886Y-95045076D01*
X149863469Y-95060457D01*
X149748507Y-95098551D01*
X149603812Y-95187800D01*
X149603811Y-95187801D01*
X149580124Y-95211489D01*
X149543616Y-95247996D01*
X149481307Y-95282020D01*
X149454523Y-95284900D01*
X149448573Y-95284900D01*
X149380452Y-95264898D01*
X149359478Y-95247995D01*
X149355858Y-95244375D01*
X149355852Y-95244370D01*
X149345160Y-95237775D01*
X149204938Y-95151285D01*
X149113856Y-95121104D01*
X149036627Y-95095513D01*
X149036620Y-95095512D01*
X148932753Y-95084900D01*
X147881655Y-95084900D01*
X147777774Y-95095512D01*
X147609461Y-95151285D01*
X147458536Y-95244377D01*
X147457381Y-95245291D01*
X147456440Y-95245670D01*
X147452302Y-95248223D01*
X147451865Y-95247515D01*
X147391537Y-95271845D01*
X147321790Y-95258585D01*
X147272002Y-95212593D01*
X147271322Y-95211491D01*
X147265600Y-95202213D01*
X147265599Y-95202212D01*
X147265594Y-95202206D01*
X147145393Y-95082005D01*
X147145387Y-95082000D01*
X147000692Y-94992751D01*
X146839314Y-94939276D01*
X146839311Y-94939275D01*
X146839309Y-94939275D01*
X146739719Y-94929100D01*
X146205289Y-94929100D01*
X146105690Y-94939275D01*
X146105687Y-94939275D01*
X146105686Y-94939276D01*
X146034085Y-94963002D01*
X145944307Y-94992751D01*
X145799612Y-95082000D01*
X145799606Y-95082005D01*
X145679405Y-95202206D01*
X145679400Y-95202212D01*
X145590151Y-95346907D01*
X145536675Y-95508289D01*
X145535347Y-95521291D01*
X145508524Y-95587025D01*
X145450420Y-95627823D01*
X145379483Y-95630731D01*
X145318235Y-95594825D01*
X145286122Y-95531506D01*
X145284652Y-95521285D01*
X145283324Y-95508290D01*
X145283324Y-95508289D01*
X145283324Y-95508286D01*
X145229849Y-95346908D01*
X145140600Y-95202213D01*
X145140599Y-95202212D01*
X145140594Y-95202206D01*
X145020393Y-95082005D01*
X145020387Y-95082000D01*
X144875692Y-94992751D01*
X144875691Y-94992750D01*
X144714314Y-94939276D01*
X144714311Y-94939275D01*
X144714309Y-94939275D01*
X144614719Y-94929100D01*
X144080289Y-94929100D01*
X143980690Y-94939275D01*
X143980687Y-94939275D01*
X143980686Y-94939276D01*
X143899896Y-94966047D01*
X143819305Y-94992752D01*
X143709671Y-95060375D01*
X143641192Y-95079112D01*
X143573453Y-95057852D01*
X143536284Y-95019280D01*
X143532682Y-95013441D01*
X143494630Y-94951748D01*
X143494626Y-94951744D01*
X143494624Y-94951741D01*
X143369258Y-94826375D01*
X143369252Y-94826370D01*
X143218338Y-94733285D01*
X143113048Y-94698396D01*
X143050027Y-94677513D01*
X143050020Y-94677512D01*
X142946153Y-94666900D01*
X142345055Y-94666900D01*
X142241174Y-94677512D01*
X142072861Y-94733285D01*
X141921947Y-94826370D01*
X141921941Y-94826375D01*
X141796572Y-94951744D01*
X141794434Y-94954449D01*
X141792495Y-94955821D01*
X141791380Y-94956937D01*
X141791189Y-94956746D01*
X141736492Y-94995476D01*
X141665567Y-94998664D01*
X141604177Y-94963002D01*
X141596766Y-94954449D01*
X141594627Y-94951744D01*
X141469258Y-94826375D01*
X141469252Y-94826370D01*
X141469251Y-94826370D01*
X141318338Y-94733285D01*
X141213048Y-94698396D01*
X141150027Y-94677513D01*
X141150020Y-94677512D01*
X141046153Y-94666900D01*
X140445055Y-94666900D01*
X140341174Y-94677512D01*
X140172861Y-94733285D01*
X140021947Y-94826370D01*
X140021941Y-94826375D01*
X139896575Y-94951741D01*
X139896570Y-94951747D01*
X139847041Y-95032047D01*
X139794255Y-95079525D01*
X139739800Y-95091900D01*
X139588699Y-95091900D01*
X139547612Y-95101278D01*
X139540644Y-95102462D01*
X139498762Y-95107181D01*
X139498750Y-95107183D01*
X139458966Y-95121104D01*
X139452178Y-95123059D01*
X139440786Y-95125660D01*
X139411077Y-95132441D01*
X139411074Y-95132443D01*
X139373105Y-95150727D01*
X139366576Y-95153432D01*
X139326788Y-95167355D01*
X139326783Y-95167358D01*
X139291092Y-95189783D01*
X139284906Y-95193202D01*
X139246933Y-95211489D01*
X139213970Y-95237775D01*
X139208207Y-95241864D01*
X139172518Y-95264289D01*
X139122494Y-95314311D01*
X139122487Y-95314321D01*
X138704593Y-95732214D01*
X138642283Y-95766238D01*
X138571468Y-95761174D01*
X138526405Y-95732213D01*
X137373796Y-94579604D01*
X136194389Y-93400197D01*
X136162081Y-93367889D01*
X136142374Y-93355506D01*
X136126391Y-93345463D01*
X136120625Y-93341372D01*
X136087671Y-93315092D01*
X136087667Y-93315089D01*
X136049690Y-93296800D01*
X136043502Y-93293380D01*
X136007815Y-93270957D01*
X136007814Y-93270956D01*
X135968026Y-93257034D01*
X135961498Y-93254330D01*
X135923524Y-93236042D01*
X135923517Y-93236040D01*
X135882420Y-93226659D01*
X135875630Y-93224702D01*
X135835852Y-93210784D01*
X135835846Y-93210782D01*
X135793956Y-93206062D01*
X135786987Y-93204878D01*
X135745899Y-93195500D01*
X135745897Y-93195500D01*
X135700206Y-93195500D01*
X135158503Y-93195500D01*
X135090382Y-93175498D01*
X135043889Y-93121842D01*
X135033785Y-93051568D01*
X135037928Y-93032925D01*
X135051556Y-92988000D01*
X134407520Y-92988000D01*
X134339399Y-92967998D01*
X134292906Y-92914342D01*
X134282802Y-92844068D01*
X134285378Y-92831060D01*
X134286636Y-92826088D01*
X134286638Y-92826086D01*
X134296835Y-92703023D01*
X134280098Y-92636931D01*
X134282765Y-92565985D01*
X134323365Y-92507743D01*
X134389008Y-92480697D01*
X134402242Y-92480000D01*
X135051555Y-92480000D01*
X135037928Y-92435075D01*
X135037295Y-92364081D01*
X135075144Y-92304015D01*
X135139460Y-92273947D01*
X135158503Y-92272500D01*
X135926893Y-92272500D01*
X135926897Y-92272500D01*
X135968009Y-92263115D01*
X135974945Y-92261937D01*
X136016847Y-92257217D01*
X136056643Y-92243291D01*
X136063423Y-92241338D01*
X136104520Y-92231959D01*
X136142504Y-92213665D01*
X136149017Y-92210967D01*
X136188815Y-92197043D01*
X136224503Y-92174618D01*
X136230680Y-92171202D01*
X136268670Y-92152909D01*
X136301627Y-92126625D01*
X136307392Y-92122535D01*
X136311155Y-92120170D01*
X136343081Y-92100111D01*
X136471911Y-91971281D01*
X136508803Y-91934389D01*
X136508816Y-91934374D01*
X138164188Y-90279004D01*
X138226500Y-90244979D01*
X138253283Y-90242100D01*
X138495118Y-90242100D01*
X138563239Y-90262102D01*
X138584212Y-90279004D01*
X139067288Y-90762080D01*
X139067289Y-90762081D01*
X139196119Y-90890911D01*
X139231814Y-90913339D01*
X139237568Y-90917422D01*
X139270530Y-90943709D01*
X139308518Y-90962003D01*
X139314679Y-90965407D01*
X139350385Y-90987843D01*
X139390171Y-91001765D01*
X139396693Y-91004466D01*
X139434679Y-91022759D01*
X139434681Y-91022759D01*
X139439602Y-91024481D01*
X139497298Y-91065854D01*
X139505230Y-91077254D01*
X139559139Y-91164654D01*
X139583070Y-91203452D01*
X139583075Y-91203458D01*
X139708441Y-91328824D01*
X139708447Y-91328829D01*
X139708448Y-91328830D01*
X139859362Y-91421915D01*
X140027674Y-91477687D01*
X140131555Y-91488300D01*
X140732644Y-91488299D01*
X140836526Y-91477687D01*
X141004838Y-91421915D01*
X141155752Y-91328830D01*
X141281130Y-91203452D01*
X141281131Y-91203449D01*
X141283262Y-91200756D01*
X141285198Y-91199384D01*
X141286320Y-91198263D01*
X141286511Y-91198454D01*
X141341201Y-91159725D01*
X141412126Y-91156533D01*
X141473518Y-91192192D01*
X141480938Y-91200756D01*
X141483071Y-91203454D01*
X141608441Y-91328824D01*
X141608447Y-91328829D01*
X141608448Y-91328830D01*
X141759362Y-91421915D01*
X141927674Y-91477687D01*
X142031555Y-91488300D01*
X142632644Y-91488299D01*
X142736526Y-91477687D01*
X142904838Y-91421915D01*
X143055752Y-91328830D01*
X143181130Y-91203452D01*
X143218325Y-91143148D01*
X143271107Y-91095673D01*
X143341182Y-91084269D01*
X143394377Y-91106551D01*
X143395367Y-91104947D01*
X143401611Y-91108798D01*
X143401613Y-91108800D01*
X143546308Y-91198049D01*
X143707686Y-91251524D01*
X143807289Y-91261700D01*
X144341710Y-91261699D01*
X144441314Y-91251524D01*
X144602692Y-91198049D01*
X144747387Y-91108800D01*
X144867600Y-90988587D01*
X144956849Y-90843892D01*
X145010324Y-90682514D01*
X145011652Y-90669511D01*
X145038471Y-90603779D01*
X145096573Y-90562978D01*
X145167510Y-90560067D01*
X145228760Y-90595969D01*
X145260876Y-90659286D01*
X145262346Y-90669508D01*
X145263674Y-90682505D01*
X145263674Y-90682507D01*
X145263675Y-90682512D01*
X145263676Y-90682514D01*
X145290042Y-90762081D01*
X145317151Y-90843892D01*
X145406400Y-90988587D01*
X145406405Y-90988593D01*
X145526606Y-91108794D01*
X145526612Y-91108799D01*
X145526613Y-91108800D01*
X145671308Y-91198049D01*
X145832686Y-91251524D01*
X145932289Y-91261700D01*
X146466710Y-91261699D01*
X146566314Y-91251524D01*
X146727692Y-91198049D01*
X146872387Y-91108800D01*
X146924590Y-91056597D01*
X146982583Y-90998605D01*
X147044895Y-90964579D01*
X147071678Y-90961700D01*
X147269136Y-90961700D01*
X147308768Y-90968095D01*
X147314859Y-90970113D01*
X147314862Y-90970115D01*
X147483174Y-91025887D01*
X147587055Y-91036500D01*
X148638144Y-91036499D01*
X148742026Y-91025887D01*
X148910338Y-90970115D01*
X149061252Y-90877030D01*
X149061258Y-90877024D01*
X149064878Y-90873405D01*
X149127190Y-90839379D01*
X149153973Y-90836500D01*
X149159923Y-90836500D01*
X149228044Y-90856502D01*
X149249018Y-90873405D01*
X149278095Y-90902482D01*
X149312121Y-90964794D01*
X149315000Y-90991577D01*
X149315000Y-91000446D01*
X149296241Y-91066592D01*
X149241152Y-91155905D01*
X149241151Y-91155907D01*
X149241151Y-91155908D01*
X149217296Y-91227900D01*
X149187675Y-91317290D01*
X149177500Y-91416880D01*
X149177500Y-92276310D01*
X149187675Y-92375905D01*
X149187676Y-92375914D01*
X149238347Y-92528831D01*
X149241151Y-92537292D01*
X149330400Y-92681987D01*
X149330405Y-92681993D01*
X149450606Y-92802194D01*
X149450612Y-92802199D01*
X149450613Y-92802200D01*
X149595308Y-92891449D01*
X149756686Y-92944924D01*
X149856289Y-92955100D01*
X150390710Y-92955099D01*
X150490314Y-92944924D01*
X150651692Y-92891449D01*
X150796387Y-92802200D01*
X150916600Y-92681987D01*
X151005849Y-92537292D01*
X151059324Y-92375914D01*
X151060652Y-92362911D01*
X151087471Y-92297179D01*
X151145573Y-92256378D01*
X151216510Y-92253467D01*
X151277760Y-92289369D01*
X151309876Y-92352686D01*
X151311346Y-92362908D01*
X151312674Y-92375905D01*
X151312674Y-92375907D01*
X151312675Y-92375909D01*
X151312676Y-92375914D01*
X151361249Y-92522499D01*
X151366151Y-92537292D01*
X151455400Y-92681987D01*
X151455405Y-92681993D01*
X151575606Y-92802194D01*
X151575612Y-92802199D01*
X151575613Y-92802200D01*
X151720308Y-92891449D01*
X151881686Y-92944924D01*
X151981289Y-92955100D01*
X152515710Y-92955099D01*
X152615314Y-92944924D01*
X152776692Y-92891449D01*
X152921387Y-92802200D01*
X153041600Y-92681987D01*
X153130849Y-92537292D01*
X153166180Y-92430668D01*
X153206592Y-92372300D01*
X153272148Y-92345044D01*
X153342033Y-92357557D01*
X153394059Y-92405866D01*
X153405385Y-92430664D01*
X153440718Y-92537292D01*
X153457551Y-92588092D01*
X153546800Y-92732787D01*
X153546805Y-92732793D01*
X153667006Y-92852994D01*
X153667012Y-92852999D01*
X153667013Y-92853000D01*
X153811708Y-92942249D01*
X153973086Y-92995724D01*
X154072689Y-93005900D01*
X154607110Y-93005899D01*
X154706714Y-92995724D01*
X154868092Y-92942249D01*
X155012787Y-92853000D01*
X155133000Y-92732787D01*
X155222249Y-92588092D01*
X155275724Y-92426714D01*
X155277052Y-92413711D01*
X155303871Y-92347979D01*
X155361973Y-92307178D01*
X155432910Y-92304267D01*
X155494160Y-92340169D01*
X155526276Y-92403486D01*
X155527746Y-92413708D01*
X155529074Y-92426705D01*
X155529074Y-92426707D01*
X155529075Y-92426709D01*
X155529076Y-92426714D01*
X155535685Y-92446658D01*
X155582551Y-92588092D01*
X155671800Y-92732787D01*
X155671805Y-92732793D01*
X155792006Y-92852994D01*
X155792012Y-92852999D01*
X155792013Y-92853000D01*
X155936708Y-92942249D01*
X156098086Y-92995724D01*
X156197689Y-93005900D01*
X156732110Y-93005899D01*
X156831714Y-92995724D01*
X156993092Y-92942249D01*
X157137787Y-92853000D01*
X157258000Y-92732787D01*
X157347249Y-92588092D01*
X157400724Y-92426714D01*
X157410900Y-92327111D01*
X157410899Y-91467690D01*
X157409551Y-91454499D01*
X157406223Y-91421914D01*
X157400724Y-91368086D01*
X157347249Y-91206708D01*
X157296896Y-91125073D01*
X157278160Y-91056597D01*
X157299419Y-90988858D01*
X157337988Y-90951690D01*
X157417852Y-90902430D01*
X157417857Y-90902424D01*
X157421478Y-90898805D01*
X157483790Y-90864779D01*
X157510573Y-90861900D01*
X157516523Y-90861900D01*
X157584644Y-90881902D01*
X157605613Y-90898800D01*
X157665813Y-90959000D01*
X157810508Y-91048249D01*
X157971886Y-91101724D01*
X158071489Y-91111900D01*
X158930910Y-91111899D01*
X159030514Y-91101724D01*
X159191892Y-91048249D01*
X159251788Y-91011305D01*
X159281208Y-90993159D01*
X159347354Y-90974400D01*
X159457823Y-90974400D01*
X159525944Y-90994402D01*
X159546913Y-91011300D01*
X159610613Y-91075000D01*
X159755308Y-91164249D01*
X159916686Y-91217724D01*
X160016289Y-91227900D01*
X160550710Y-91227899D01*
X160650314Y-91217724D01*
X160811692Y-91164249D01*
X160956387Y-91075000D01*
X161076600Y-90954787D01*
X161165849Y-90810092D01*
X161219324Y-90648714D01*
X161220652Y-90635711D01*
X161247471Y-90569979D01*
X161305573Y-90529178D01*
X161376510Y-90526267D01*
X161437760Y-90562169D01*
X161469876Y-90625486D01*
X161471346Y-90635708D01*
X161472674Y-90648705D01*
X161472674Y-90648707D01*
X161472675Y-90648712D01*
X161472676Y-90648714D01*
X161479569Y-90669515D01*
X161526151Y-90810092D01*
X161615400Y-90954787D01*
X161615405Y-90954793D01*
X161735606Y-91074994D01*
X161735611Y-91074998D01*
X161735613Y-91075000D01*
X161880308Y-91164249D01*
X162041686Y-91217724D01*
X162141289Y-91227900D01*
X162675710Y-91227899D01*
X162775314Y-91217724D01*
X162936692Y-91164249D01*
X163057889Y-91089493D01*
X163126366Y-91070757D01*
X163194105Y-91092016D01*
X163231274Y-91130587D01*
X163255368Y-91169650D01*
X163255375Y-91169658D01*
X163380741Y-91295024D01*
X163380747Y-91295029D01*
X163380748Y-91295030D01*
X163531662Y-91388115D01*
X163699974Y-91443887D01*
X163803855Y-91454500D01*
X164404944Y-91454499D01*
X164508826Y-91443887D01*
X164677138Y-91388115D01*
X164828052Y-91295030D01*
X164953430Y-91169652D01*
X164953431Y-91169649D01*
X164955562Y-91166956D01*
X164957498Y-91165584D01*
X164958620Y-91164463D01*
X164958811Y-91164654D01*
X165013501Y-91125925D01*
X165084426Y-91122733D01*
X165145818Y-91158392D01*
X165153238Y-91166956D01*
X165155371Y-91169654D01*
X165280741Y-91295024D01*
X165280747Y-91295029D01*
X165280748Y-91295030D01*
X165431662Y-91388115D01*
X165599974Y-91443887D01*
X165703855Y-91454500D01*
X166304944Y-91454499D01*
X166408826Y-91443887D01*
X166577138Y-91388115D01*
X166728052Y-91295030D01*
X166853430Y-91169652D01*
X166902959Y-91089352D01*
X166955745Y-91041875D01*
X167010200Y-91029500D01*
X167268893Y-91029500D01*
X167268897Y-91029500D01*
X167310009Y-91020115D01*
X167316945Y-91018937D01*
X167358847Y-91014217D01*
X167398643Y-91000291D01*
X167405423Y-90998338D01*
X167446520Y-90988959D01*
X167484504Y-90970665D01*
X167491017Y-90967967D01*
X167530815Y-90954043D01*
X167565605Y-90932182D01*
X167566503Y-90931618D01*
X167572680Y-90928202D01*
X167610670Y-90909909D01*
X167643627Y-90883625D01*
X167649392Y-90879535D01*
X167659148Y-90873405D01*
X167685081Y-90857111D01*
X167813911Y-90728281D01*
X167873436Y-90668756D01*
X167873438Y-90668752D01*
X168288587Y-90253604D01*
X168350900Y-90219579D01*
X168377683Y-90216700D01*
X168619518Y-90216700D01*
X168687639Y-90236702D01*
G37*
%TD.AperFunction*%
%TA.AperFunction,Conductor*%
G36*
X184221621Y-73088502D02*
G01*
X184268114Y-73142158D01*
X184279500Y-73194500D01*
X184279500Y-112073500D01*
X184259498Y-112141621D01*
X184205842Y-112188114D01*
X184153500Y-112199500D01*
X124954500Y-112199500D01*
X124886379Y-112179498D01*
X124839886Y-112125842D01*
X124828500Y-112073500D01*
X124828500Y-99294000D01*
X129660070Y-99294000D01*
X129679760Y-99556754D01*
X129738392Y-99813634D01*
X129738393Y-99813636D01*
X129834651Y-100058900D01*
X129834653Y-100058904D01*
X129966397Y-100287092D01*
X129966400Y-100287097D01*
X130012670Y-100345117D01*
X130012671Y-100345117D01*
X130681440Y-99676347D01*
X130743753Y-99642322D01*
X130814568Y-99647386D01*
X130864849Y-99681889D01*
X130972102Y-99802954D01*
X130972106Y-99802958D01*
X131025847Y-99840053D01*
X131070546Y-99895211D01*
X131078329Y-99965780D01*
X131046724Y-100029354D01*
X131043365Y-100032843D01*
X130371437Y-100704770D01*
X130541532Y-100820739D01*
X130541532Y-100820740D01*
X130778923Y-100935062D01*
X131030704Y-101012728D01*
X131030712Y-101012729D01*
X131291260Y-101052000D01*
X131554740Y-101052000D01*
X131815287Y-101012729D01*
X131815295Y-101012728D01*
X132067076Y-100935062D01*
X132304467Y-100820740D01*
X132474560Y-100704770D01*
X131802633Y-100032844D01*
X131768608Y-99970531D01*
X131773672Y-99899716D01*
X131816219Y-99842880D01*
X131820121Y-99840073D01*
X131873896Y-99802956D01*
X131981152Y-99681887D01*
X132041292Y-99644164D01*
X132112284Y-99644943D01*
X132164558Y-99676347D01*
X132833327Y-100345117D01*
X132879603Y-100287090D01*
X133011346Y-100058904D01*
X133011348Y-100058900D01*
X133107606Y-99813636D01*
X133107607Y-99813634D01*
X133166239Y-99556754D01*
X133185929Y-99294000D01*
X133166239Y-99031245D01*
X133107607Y-98774365D01*
X133107606Y-98774363D01*
X133011348Y-98529099D01*
X133011346Y-98529095D01*
X132879605Y-98300913D01*
X132879600Y-98300905D01*
X132833328Y-98242881D01*
X132833326Y-98242881D01*
X132164557Y-98911651D01*
X132102245Y-98945677D01*
X132031430Y-98940612D01*
X131981149Y-98906109D01*
X131972945Y-98896849D01*
X131934492Y-98853443D01*
X131873897Y-98785045D01*
X131873895Y-98785043D01*
X131832561Y-98756513D01*
X131820150Y-98747946D01*
X131775451Y-98692789D01*
X131767668Y-98622221D01*
X131799272Y-98558646D01*
X131802632Y-98555155D01*
X132474560Y-97883228D01*
X132304467Y-97767259D01*
X132067076Y-97652937D01*
X131815295Y-97575271D01*
X131815287Y-97575270D01*
X131554740Y-97536000D01*
X131291260Y-97536000D01*
X131030712Y-97575270D01*
X131030704Y-97575271D01*
X130778923Y-97652937D01*
X130541532Y-97767259D01*
X130541525Y-97767263D01*
X130371438Y-97883227D01*
X130371438Y-97883228D01*
X131043366Y-98555155D01*
X131077391Y-98617468D01*
X131072327Y-98688283D01*
X131029780Y-98745119D01*
X131025848Y-98747946D01*
X130972106Y-98785041D01*
X130972102Y-98785045D01*
X130864850Y-98906110D01*
X130804706Y-98943836D01*
X130733714Y-98943056D01*
X130681441Y-98911652D01*
X130012670Y-98242881D01*
X129966400Y-98300904D01*
X129966397Y-98300907D01*
X129834653Y-98529095D01*
X129834651Y-98529099D01*
X129738393Y-98774363D01*
X129738392Y-98774365D01*
X129679760Y-99031245D01*
X129660070Y-99294000D01*
X124828500Y-99294000D01*
X124828500Y-86464000D01*
X130660070Y-86464000D01*
X130679760Y-86726754D01*
X130738392Y-86983634D01*
X130738393Y-86983636D01*
X130834651Y-87228900D01*
X130834653Y-87228904D01*
X130966397Y-87457092D01*
X130966400Y-87457097D01*
X131012670Y-87515117D01*
X131012671Y-87515117D01*
X131681440Y-86846347D01*
X131743753Y-86812322D01*
X131814568Y-86817386D01*
X131864849Y-86851889D01*
X131972102Y-86972954D01*
X131972106Y-86972958D01*
X132025847Y-87010053D01*
X132070546Y-87065211D01*
X132078329Y-87135780D01*
X132046724Y-87199354D01*
X132043365Y-87202843D01*
X131371437Y-87874770D01*
X131541532Y-87990739D01*
X131541532Y-87990740D01*
X131778923Y-88105062D01*
X132030704Y-88182728D01*
X132030712Y-88182729D01*
X132291260Y-88222000D01*
X132554740Y-88222000D01*
X132789218Y-88186659D01*
X132859559Y-88196285D01*
X132913530Y-88242412D01*
X132933994Y-88310396D01*
X132919119Y-88370648D01*
X132840806Y-88517161D01*
X132794444Y-88670000D01*
X133438480Y-88670000D01*
X133506601Y-88690002D01*
X133553094Y-88743658D01*
X133563198Y-88813932D01*
X133560622Y-88826940D01*
X133559361Y-88831915D01*
X133551794Y-88923245D01*
X133549165Y-88954977D01*
X133563513Y-89011635D01*
X133565902Y-89021068D01*
X133563235Y-89092015D01*
X133522635Y-89150257D01*
X133456992Y-89177303D01*
X133443758Y-89178000D01*
X132838811Y-89178000D01*
X132802237Y-89172575D01*
X132754181Y-89157998D01*
X132730502Y-89150815D01*
X132730499Y-89150814D01*
X132730494Y-89150813D01*
X132730498Y-89150813D01*
X132575013Y-89135500D01*
X132575005Y-89135500D01*
X132270995Y-89135500D01*
X132270986Y-89135500D01*
X132115505Y-89150813D01*
X131915968Y-89211341D01*
X131732082Y-89309631D01*
X131570906Y-89441906D01*
X131438631Y-89603082D01*
X131340341Y-89786968D01*
X131279813Y-89986504D01*
X131259378Y-90193996D01*
X131259378Y-90194003D01*
X131279813Y-90401495D01*
X131330921Y-90569979D01*
X131340341Y-90601031D01*
X131430446Y-90769605D01*
X131444918Y-90839108D01*
X131430446Y-90888395D01*
X131340341Y-91056968D01*
X131279813Y-91256504D01*
X131259378Y-91463996D01*
X131259378Y-91464003D01*
X131279813Y-91671495D01*
X131279814Y-91671501D01*
X131279815Y-91671502D01*
X131340341Y-91871031D01*
X131438631Y-92054917D01*
X131570906Y-92216094D01*
X131732083Y-92348369D01*
X131915969Y-92446659D01*
X132115498Y-92507185D01*
X132115503Y-92507185D01*
X132115505Y-92507186D01*
X132229349Y-92518398D01*
X132270995Y-92522500D01*
X132271004Y-92522500D01*
X132574996Y-92522500D01*
X132575005Y-92522500D01*
X132628100Y-92517270D01*
X132730496Y-92507186D01*
X132730497Y-92507185D01*
X132730502Y-92507185D01*
X132778370Y-92492664D01*
X132802237Y-92485425D01*
X132838811Y-92480000D01*
X133438480Y-92480000D01*
X133506601Y-92500002D01*
X133553094Y-92553658D01*
X133563198Y-92623932D01*
X133560622Y-92636940D01*
X133559361Y-92641915D01*
X133549165Y-92764976D01*
X133549165Y-92764977D01*
X133564640Y-92826084D01*
X133565902Y-92831068D01*
X133563235Y-92902015D01*
X133522635Y-92960257D01*
X133456992Y-92987303D01*
X133443758Y-92988000D01*
X132838811Y-92988000D01*
X132802237Y-92982575D01*
X132754181Y-92967998D01*
X132730502Y-92960815D01*
X132730499Y-92960814D01*
X132730494Y-92960813D01*
X132730498Y-92960813D01*
X132575013Y-92945500D01*
X132575005Y-92945500D01*
X132270995Y-92945500D01*
X132270986Y-92945500D01*
X132115505Y-92960813D01*
X131915968Y-93021341D01*
X131732082Y-93119631D01*
X131570906Y-93251906D01*
X131438631Y-93413082D01*
X131340341Y-93596968D01*
X131279813Y-93796504D01*
X131259378Y-94003996D01*
X131259378Y-94004003D01*
X131279813Y-94211495D01*
X131340341Y-94411031D01*
X131430446Y-94579604D01*
X131444918Y-94649110D01*
X131430446Y-94698396D01*
X131340341Y-94866968D01*
X131279813Y-95066504D01*
X131259378Y-95273996D01*
X131259378Y-95274003D01*
X131279813Y-95481495D01*
X131279814Y-95481501D01*
X131279815Y-95481502D01*
X131340341Y-95681031D01*
X131438631Y-95864917D01*
X131570906Y-96026094D01*
X131732083Y-96158369D01*
X131915969Y-96256659D01*
X132115498Y-96317185D01*
X132115503Y-96317185D01*
X132115505Y-96317186D01*
X132229349Y-96328398D01*
X132270995Y-96332500D01*
X132271004Y-96332500D01*
X132574996Y-96332500D01*
X132575005Y-96332500D01*
X132628100Y-96327270D01*
X132730496Y-96317186D01*
X132730497Y-96317185D01*
X132730502Y-96317185D01*
X132778370Y-96302664D01*
X132802237Y-96295425D01*
X132838811Y-96290000D01*
X133438480Y-96290000D01*
X133506601Y-96310002D01*
X133553094Y-96363658D01*
X133563198Y-96433932D01*
X133560622Y-96446940D01*
X133559361Y-96451915D01*
X133550911Y-96553908D01*
X133549165Y-96574977D01*
X133564640Y-96636084D01*
X133565902Y-96641068D01*
X133563235Y-96712015D01*
X133522635Y-96770257D01*
X133456992Y-96797303D01*
X133443758Y-96798000D01*
X132794444Y-96798000D01*
X132840806Y-96950838D01*
X132939047Y-97134634D01*
X133071261Y-97295738D01*
X133232365Y-97427952D01*
X133416160Y-97526193D01*
X133615596Y-97586691D01*
X133615602Y-97586692D01*
X133668999Y-97591950D01*
X133669000Y-97591950D01*
X133669000Y-97024471D01*
X133689002Y-96956350D01*
X133742658Y-96909857D01*
X133812932Y-96899753D01*
X133835909Y-96905298D01*
X133861258Y-96914000D01*
X133953658Y-96914000D01*
X134030260Y-96901217D01*
X134100743Y-96909733D01*
X134155434Y-96955004D01*
X134176967Y-97022656D01*
X134176999Y-97025498D01*
X134176999Y-97591949D01*
X134177000Y-97591950D01*
X134230397Y-97586692D01*
X134230403Y-97586691D01*
X134429839Y-97526193D01*
X134613634Y-97427952D01*
X134774738Y-97295738D01*
X134906952Y-97134634D01*
X135005193Y-96950838D01*
X135051556Y-96798000D01*
X134407520Y-96798000D01*
X134339399Y-96777998D01*
X134292906Y-96724342D01*
X134282802Y-96654068D01*
X134285378Y-96641060D01*
X134286636Y-96636088D01*
X134286638Y-96636086D01*
X134296835Y-96513023D01*
X134280098Y-96446931D01*
X134282765Y-96375985D01*
X134323365Y-96317743D01*
X134389008Y-96290697D01*
X134402242Y-96290000D01*
X135062673Y-96290000D01*
X135094024Y-96266311D01*
X135164816Y-96260929D01*
X135227281Y-96294674D01*
X135227681Y-96295073D01*
X137608564Y-98675955D01*
X137608569Y-98675962D01*
X137755116Y-98822509D01*
X137755118Y-98822510D01*
X137755119Y-98822511D01*
X137790810Y-98844937D01*
X137796572Y-98849026D01*
X137829528Y-98875307D01*
X137829531Y-98875309D01*
X137856626Y-98888357D01*
X137867503Y-98893595D01*
X137873682Y-98897009D01*
X137896986Y-98911652D01*
X137907621Y-98918335D01*
X137909385Y-98919443D01*
X137949182Y-98933368D01*
X137955684Y-98936061D01*
X137993680Y-98954359D01*
X138034777Y-98963738D01*
X138041564Y-98965694D01*
X138066427Y-98974394D01*
X138081353Y-98979617D01*
X138081357Y-98979617D01*
X138081360Y-98979618D01*
X138095606Y-98981222D01*
X138123239Y-98984336D01*
X138130182Y-98985515D01*
X138171304Y-98994901D01*
X138171305Y-98994901D01*
X138357297Y-98994901D01*
X138357313Y-98994900D01*
X139739800Y-98994900D01*
X139807921Y-99014902D01*
X139847040Y-99054752D01*
X139893369Y-99129863D01*
X139896570Y-99135052D01*
X139896575Y-99135058D01*
X140021941Y-99260424D01*
X140021947Y-99260429D01*
X140021948Y-99260430D01*
X140172862Y-99353515D01*
X140341174Y-99409287D01*
X140445055Y-99419900D01*
X141046144Y-99419899D01*
X141150026Y-99409287D01*
X141318338Y-99353515D01*
X141469252Y-99260430D01*
X141594630Y-99135052D01*
X141594631Y-99135049D01*
X141596762Y-99132356D01*
X141598698Y-99130984D01*
X141599820Y-99129863D01*
X141600011Y-99130054D01*
X141654701Y-99091325D01*
X141725626Y-99088133D01*
X141787018Y-99123792D01*
X141794438Y-99132356D01*
X141796571Y-99135054D01*
X141921941Y-99260424D01*
X141921947Y-99260429D01*
X141921948Y-99260430D01*
X142072862Y-99353515D01*
X142241174Y-99409287D01*
X142345055Y-99419900D01*
X142946144Y-99419899D01*
X143050026Y-99409287D01*
X143218338Y-99353515D01*
X143369252Y-99260430D01*
X143494630Y-99135052D01*
X143527170Y-99082295D01*
X143579954Y-99034819D01*
X143650029Y-99023415D01*
X143700555Y-99041201D01*
X143819308Y-99114449D01*
X143980686Y-99167924D01*
X144080289Y-99178100D01*
X144614710Y-99178099D01*
X144714314Y-99167924D01*
X144875692Y-99114449D01*
X145020387Y-99025200D01*
X145140600Y-98904987D01*
X145229849Y-98760292D01*
X145283324Y-98598914D01*
X145284652Y-98585911D01*
X145311471Y-98520179D01*
X145369573Y-98479378D01*
X145440510Y-98476467D01*
X145501760Y-98512369D01*
X145533876Y-98575686D01*
X145535346Y-98585908D01*
X145536674Y-98598905D01*
X145536674Y-98598907D01*
X145536675Y-98598912D01*
X145536676Y-98598914D01*
X145573318Y-98709492D01*
X145590151Y-98760292D01*
X145679400Y-98904987D01*
X145679405Y-98904993D01*
X145799606Y-99025194D01*
X145799612Y-99025199D01*
X145799613Y-99025200D01*
X145944308Y-99114449D01*
X146105686Y-99167924D01*
X146205289Y-99178100D01*
X146739710Y-99178099D01*
X146839314Y-99167924D01*
X147000692Y-99114449D01*
X147145387Y-99025200D01*
X147265600Y-98904987D01*
X147280580Y-98880699D01*
X147333364Y-98833222D01*
X147403439Y-98821818D01*
X147453968Y-98839605D01*
X147458547Y-98842429D01*
X147458548Y-98842430D01*
X147609462Y-98935515D01*
X147777774Y-98991287D01*
X147881655Y-99001900D01*
X148932744Y-99001899D01*
X149036626Y-98991287D01*
X149204938Y-98935515D01*
X149355852Y-98842430D01*
X149355857Y-98842424D01*
X149359478Y-98838805D01*
X149421790Y-98804779D01*
X149448573Y-98801900D01*
X149454523Y-98801900D01*
X149522644Y-98821902D01*
X149543613Y-98838800D01*
X149603813Y-98899000D01*
X149748508Y-98988249D01*
X149909886Y-99041724D01*
X150009489Y-99051900D01*
X150868910Y-99051899D01*
X150968514Y-99041724D01*
X151129892Y-98988249D01*
X151274587Y-98899000D01*
X151284802Y-98888784D01*
X151347108Y-98854758D01*
X151417924Y-98859818D01*
X151462994Y-98888782D01*
X151548606Y-98974394D01*
X151548612Y-98974399D01*
X151548613Y-98974400D01*
X151693308Y-99063649D01*
X151854686Y-99117124D01*
X151954289Y-99127300D01*
X152488710Y-99127299D01*
X152588314Y-99117124D01*
X152749692Y-99063649D01*
X152894387Y-98974400D01*
X153014600Y-98854187D01*
X153103849Y-98709492D01*
X153157324Y-98548114D01*
X153158652Y-98535111D01*
X153185471Y-98469379D01*
X153243573Y-98428578D01*
X153314510Y-98425667D01*
X153375760Y-98461569D01*
X153407876Y-98524886D01*
X153409346Y-98535108D01*
X153410674Y-98548105D01*
X153410674Y-98548107D01*
X153410675Y-98548112D01*
X153410676Y-98548114D01*
X153437042Y-98627681D01*
X153464151Y-98709492D01*
X153553400Y-98854187D01*
X153553405Y-98854193D01*
X153673606Y-98974394D01*
X153673612Y-98974399D01*
X153673613Y-98974400D01*
X153818308Y-99063649D01*
X153979686Y-99117124D01*
X154079289Y-99127300D01*
X154613710Y-99127299D01*
X154713314Y-99117124D01*
X154874692Y-99063649D01*
X155019387Y-98974400D01*
X155139600Y-98854187D01*
X155172721Y-98800488D01*
X155225506Y-98753010D01*
X155295581Y-98741607D01*
X155346106Y-98759393D01*
X155483462Y-98844115D01*
X155651774Y-98899887D01*
X155755655Y-98910500D01*
X156806744Y-98910499D01*
X156910626Y-98899887D01*
X157078938Y-98844115D01*
X157229852Y-98751030D01*
X157229857Y-98751024D01*
X157233478Y-98747405D01*
X157295790Y-98713379D01*
X157322573Y-98710500D01*
X157328523Y-98710500D01*
X157396644Y-98730502D01*
X157417613Y-98747400D01*
X157477813Y-98807600D01*
X157622508Y-98896849D01*
X157783886Y-98950324D01*
X157883489Y-98960500D01*
X158742910Y-98960499D01*
X158842514Y-98950324D01*
X159003892Y-98896849D01*
X159127416Y-98820658D01*
X159193561Y-98801900D01*
X159248722Y-98801900D01*
X159316843Y-98821902D01*
X159337817Y-98838805D01*
X159448006Y-98948994D01*
X159448012Y-98948999D01*
X159448013Y-98949000D01*
X159592708Y-99038249D01*
X159754086Y-99091724D01*
X159853689Y-99101900D01*
X160388110Y-99101899D01*
X160487714Y-99091724D01*
X160649092Y-99038249D01*
X160793787Y-98949000D01*
X160914000Y-98828787D01*
X161003249Y-98684092D01*
X161056724Y-98522714D01*
X161058052Y-98509711D01*
X161084871Y-98443979D01*
X161142973Y-98403178D01*
X161213910Y-98400267D01*
X161275160Y-98436169D01*
X161307276Y-98499486D01*
X161308746Y-98509708D01*
X161310074Y-98522705D01*
X161310074Y-98522707D01*
X161310075Y-98522712D01*
X161310076Y-98522714D01*
X161318493Y-98548114D01*
X161363551Y-98684092D01*
X161452800Y-98828787D01*
X161452805Y-98828793D01*
X161573006Y-98948994D01*
X161573012Y-98948999D01*
X161573013Y-98949000D01*
X161717708Y-99038249D01*
X161879086Y-99091724D01*
X161978689Y-99101900D01*
X162513110Y-99101899D01*
X162612714Y-99091724D01*
X162774092Y-99038249D01*
X162902340Y-98959144D01*
X162970817Y-98940408D01*
X163038556Y-98961667D01*
X163075724Y-99000237D01*
X163109350Y-99054753D01*
X163118170Y-99069052D01*
X163118175Y-99069058D01*
X163243541Y-99194424D01*
X163243547Y-99194429D01*
X163243548Y-99194430D01*
X163394462Y-99287515D01*
X163562774Y-99343287D01*
X163666655Y-99353900D01*
X164267744Y-99353899D01*
X164371626Y-99343287D01*
X164539938Y-99287515D01*
X164690852Y-99194430D01*
X164816230Y-99069052D01*
X164816231Y-99069049D01*
X164818362Y-99066356D01*
X164820298Y-99064984D01*
X164821420Y-99063863D01*
X164821611Y-99064054D01*
X164876301Y-99025325D01*
X164947226Y-99022133D01*
X165008618Y-99057792D01*
X165016038Y-99066356D01*
X165018171Y-99069054D01*
X165143541Y-99194424D01*
X165143547Y-99194429D01*
X165143548Y-99194430D01*
X165294462Y-99287515D01*
X165462774Y-99343287D01*
X165566655Y-99353900D01*
X166167744Y-99353899D01*
X166271626Y-99343287D01*
X166420370Y-99293999D01*
X173635070Y-99293999D01*
X173654760Y-99556754D01*
X173713392Y-99813634D01*
X173713393Y-99813636D01*
X173809651Y-100058900D01*
X173809653Y-100058904D01*
X173941397Y-100287092D01*
X173941400Y-100287097D01*
X173987670Y-100345117D01*
X173987671Y-100345117D01*
X174656440Y-99676347D01*
X174718753Y-99642322D01*
X174789568Y-99647386D01*
X174839849Y-99681889D01*
X174947102Y-99802954D01*
X174947106Y-99802958D01*
X175000847Y-99840053D01*
X175045546Y-99895211D01*
X175053329Y-99965780D01*
X175021724Y-100029354D01*
X175018365Y-100032843D01*
X174346437Y-100704770D01*
X174516532Y-100820739D01*
X174516532Y-100820740D01*
X174753923Y-100935062D01*
X175005704Y-101012728D01*
X175005712Y-101012729D01*
X175266260Y-101052000D01*
X175529740Y-101052000D01*
X175790287Y-101012729D01*
X175790295Y-101012728D01*
X176042076Y-100935062D01*
X176279467Y-100820740D01*
X176449560Y-100704770D01*
X175777633Y-100032844D01*
X175743608Y-99970531D01*
X175748672Y-99899716D01*
X175791219Y-99842880D01*
X175795121Y-99840073D01*
X175848896Y-99802956D01*
X175956152Y-99681887D01*
X176016292Y-99644164D01*
X176087284Y-99644943D01*
X176139558Y-99676347D01*
X176808327Y-100345117D01*
X176854603Y-100287090D01*
X176986346Y-100058904D01*
X176986348Y-100058900D01*
X177082606Y-99813636D01*
X177082607Y-99813634D01*
X177141239Y-99556754D01*
X177160929Y-99293999D01*
X177141239Y-99031245D01*
X177082607Y-98774365D01*
X177082606Y-98774363D01*
X176986348Y-98529099D01*
X176986346Y-98529095D01*
X176854605Y-98300913D01*
X176854600Y-98300905D01*
X176808328Y-98242881D01*
X176808326Y-98242881D01*
X176139557Y-98911651D01*
X176077245Y-98945677D01*
X176006430Y-98940612D01*
X175956149Y-98906109D01*
X175947945Y-98896849D01*
X175909492Y-98853443D01*
X175848897Y-98785045D01*
X175848895Y-98785043D01*
X175807561Y-98756513D01*
X175795150Y-98747946D01*
X175750451Y-98692789D01*
X175742668Y-98622221D01*
X175774272Y-98558646D01*
X175777632Y-98555155D01*
X176449560Y-97883228D01*
X176279467Y-97767259D01*
X176042076Y-97652937D01*
X175790295Y-97575271D01*
X175790287Y-97575270D01*
X175529740Y-97536000D01*
X175266260Y-97536000D01*
X175005712Y-97575270D01*
X175005704Y-97575271D01*
X174753923Y-97652937D01*
X174516532Y-97767259D01*
X174516525Y-97767263D01*
X174346438Y-97883227D01*
X174346438Y-97883228D01*
X175018366Y-98555155D01*
X175052391Y-98617468D01*
X175047327Y-98688283D01*
X175004780Y-98745119D01*
X175000848Y-98747946D01*
X174947106Y-98785041D01*
X174947102Y-98785045D01*
X174839850Y-98906110D01*
X174779706Y-98943836D01*
X174708714Y-98943056D01*
X174656441Y-98911652D01*
X173987670Y-98242881D01*
X173941400Y-98300904D01*
X173941397Y-98300907D01*
X173809653Y-98529095D01*
X173809651Y-98529099D01*
X173713393Y-98774363D01*
X173713392Y-98774365D01*
X173654760Y-99031245D01*
X173635070Y-99293999D01*
X166420370Y-99293999D01*
X166439938Y-99287515D01*
X166590852Y-99194430D01*
X166716230Y-99069052D01*
X166765759Y-98988752D01*
X166818545Y-98941275D01*
X166873000Y-98928900D01*
X169631093Y-98928900D01*
X169631097Y-98928900D01*
X169672209Y-98919515D01*
X169679145Y-98918337D01*
X169721047Y-98913617D01*
X169760843Y-98899691D01*
X169767623Y-98897738D01*
X169808720Y-98888359D01*
X169846704Y-98870065D01*
X169853217Y-98867367D01*
X169893015Y-98853443D01*
X169928703Y-98831018D01*
X169934880Y-98827602D01*
X169972870Y-98809309D01*
X170005827Y-98783025D01*
X170011592Y-98778935D01*
X170018865Y-98774365D01*
X170047281Y-98756511D01*
X170176111Y-98627681D01*
X170193831Y-98609961D01*
X170193833Y-98609958D01*
X172684385Y-96119405D01*
X172746698Y-96085379D01*
X172773481Y-96082500D01*
X175569553Y-96082500D01*
X175637674Y-96102502D01*
X175649487Y-96111101D01*
X175674525Y-96131649D01*
X175707083Y-96158369D01*
X175890969Y-96256659D01*
X176090498Y-96317185D01*
X176090503Y-96317185D01*
X176090505Y-96317186D01*
X176204349Y-96328398D01*
X176245995Y-96332500D01*
X176246004Y-96332500D01*
X176549996Y-96332500D01*
X176550005Y-96332500D01*
X176603100Y-96327270D01*
X176705496Y-96317186D01*
X176705497Y-96317185D01*
X176705502Y-96317185D01*
X176753370Y-96302664D01*
X176777237Y-96295425D01*
X176813811Y-96290000D01*
X177413480Y-96290000D01*
X177481601Y-96310002D01*
X177528094Y-96363658D01*
X177538198Y-96433932D01*
X177535622Y-96446940D01*
X177534361Y-96451915D01*
X177525911Y-96553908D01*
X177524165Y-96574977D01*
X177539640Y-96636084D01*
X177540902Y-96641068D01*
X177538235Y-96712015D01*
X177497635Y-96770257D01*
X177431992Y-96797303D01*
X177418758Y-96798000D01*
X176769444Y-96798000D01*
X176815806Y-96950838D01*
X176914047Y-97134634D01*
X177046261Y-97295738D01*
X177207365Y-97427952D01*
X177391160Y-97526193D01*
X177590596Y-97586691D01*
X177590602Y-97586692D01*
X177643999Y-97591950D01*
X177643999Y-97024471D01*
X177664001Y-96956350D01*
X177717657Y-96909857D01*
X177787930Y-96899753D01*
X177810904Y-96905296D01*
X177836258Y-96914000D01*
X177836259Y-96914000D01*
X177928659Y-96914000D01*
X177962840Y-96908296D01*
X178005261Y-96901217D01*
X178075744Y-96909733D01*
X178130435Y-96955004D01*
X178151968Y-97022657D01*
X178152000Y-97025498D01*
X178152000Y-97591950D01*
X178205397Y-97586692D01*
X178205403Y-97586691D01*
X178404839Y-97526193D01*
X178588634Y-97427952D01*
X178749738Y-97295738D01*
X178881952Y-97134634D01*
X178980193Y-96950838D01*
X179026556Y-96798000D01*
X178382520Y-96798000D01*
X178314399Y-96777998D01*
X178267906Y-96724342D01*
X178257802Y-96654068D01*
X178260378Y-96641060D01*
X178261636Y-96636088D01*
X178261638Y-96636086D01*
X178271835Y-96513023D01*
X178255098Y-96446931D01*
X178257765Y-96375985D01*
X178298365Y-96317743D01*
X178364008Y-96290697D01*
X178377242Y-96290000D01*
X179026555Y-96290000D01*
X178980193Y-96137161D01*
X178881952Y-95953365D01*
X178749738Y-95792261D01*
X178588634Y-95660047D01*
X178404838Y-95561806D01*
X178205396Y-95501307D01*
X178205397Y-95501307D01*
X178152001Y-95496048D01*
X178152000Y-95496049D01*
X178152000Y-96063528D01*
X178131998Y-96131649D01*
X178078342Y-96178142D01*
X178008068Y-96188246D01*
X177985089Y-96182701D01*
X177959743Y-96174000D01*
X177959742Y-96174000D01*
X177867342Y-96174000D01*
X177790738Y-96186783D01*
X177720254Y-96178265D01*
X177665564Y-96132994D01*
X177644032Y-96065341D01*
X177644000Y-96062501D01*
X177644000Y-95496049D01*
X177624887Y-95478726D01*
X177621758Y-95478133D01*
X177570235Y-95429287D01*
X177553299Y-95360340D01*
X177553780Y-95353624D01*
X177561622Y-95274002D01*
X177561622Y-95273996D01*
X177541186Y-95066504D01*
X177541185Y-95066502D01*
X177541185Y-95066498D01*
X177480659Y-94866969D01*
X177390553Y-94698395D01*
X177376082Y-94628890D01*
X177390554Y-94579604D01*
X177480659Y-94411031D01*
X177541185Y-94211502D01*
X177561622Y-94004000D01*
X177553779Y-93924371D01*
X177567007Y-93854621D01*
X177615847Y-93803092D01*
X177622469Y-93801464D01*
X177643999Y-93781950D01*
X177643999Y-93214471D01*
X177664001Y-93146350D01*
X177717657Y-93099857D01*
X177787930Y-93089753D01*
X177810904Y-93095296D01*
X177836258Y-93104000D01*
X177836259Y-93104000D01*
X177928659Y-93104000D01*
X177955393Y-93099538D01*
X178005261Y-93091217D01*
X178075744Y-93099733D01*
X178130435Y-93145004D01*
X178151968Y-93212657D01*
X178152000Y-93215498D01*
X178152000Y-93781950D01*
X178205397Y-93776692D01*
X178205403Y-93776691D01*
X178404839Y-93716193D01*
X178588634Y-93617952D01*
X178749738Y-93485738D01*
X178881952Y-93324634D01*
X178980193Y-93140838D01*
X179026556Y-92988000D01*
X178382520Y-92988000D01*
X178314399Y-92967998D01*
X178267906Y-92914342D01*
X178257802Y-92844068D01*
X178260378Y-92831060D01*
X178261636Y-92826088D01*
X178261638Y-92826086D01*
X178271835Y-92703023D01*
X178255098Y-92636931D01*
X178257765Y-92565985D01*
X178298365Y-92507743D01*
X178364008Y-92480697D01*
X178377242Y-92480000D01*
X179026555Y-92480000D01*
X178980193Y-92327161D01*
X178881952Y-92143365D01*
X178749738Y-91982261D01*
X178588634Y-91850047D01*
X178404838Y-91751806D01*
X178205396Y-91691307D01*
X178205397Y-91691307D01*
X178152001Y-91686048D01*
X178152000Y-91686049D01*
X178152000Y-92253528D01*
X178131998Y-92321649D01*
X178078342Y-92368142D01*
X178008068Y-92378246D01*
X177985089Y-92372701D01*
X177959743Y-92364000D01*
X177959742Y-92364000D01*
X177867342Y-92364000D01*
X177790738Y-92376783D01*
X177720254Y-92368265D01*
X177665564Y-92322994D01*
X177644032Y-92255341D01*
X177644000Y-92252501D01*
X177644000Y-91686049D01*
X177624887Y-91668726D01*
X177621758Y-91668133D01*
X177570235Y-91619287D01*
X177553299Y-91550340D01*
X177553780Y-91543624D01*
X177561622Y-91464002D01*
X177561622Y-91463996D01*
X177541186Y-91256504D01*
X177541185Y-91256502D01*
X177541185Y-91256498D01*
X177480659Y-91056969D01*
X177428293Y-90959000D01*
X177390554Y-90888395D01*
X177376082Y-90818889D01*
X177390552Y-90769606D01*
X177480659Y-90601031D01*
X177541185Y-90401502D01*
X177555752Y-90253605D01*
X177561622Y-90194003D01*
X177561622Y-90193998D01*
X177559649Y-90173969D01*
X177553779Y-90114371D01*
X177567007Y-90044621D01*
X177615847Y-89993092D01*
X177622469Y-89991464D01*
X177643999Y-89971950D01*
X177643999Y-89404471D01*
X177664001Y-89336350D01*
X177717657Y-89289857D01*
X177787930Y-89279753D01*
X177810904Y-89285296D01*
X177836258Y-89294000D01*
X177836259Y-89294000D01*
X177928659Y-89294000D01*
X177955393Y-89289538D01*
X178005261Y-89281217D01*
X178075744Y-89289733D01*
X178130435Y-89335004D01*
X178151968Y-89402657D01*
X178152000Y-89405498D01*
X178152000Y-89971950D01*
X178205397Y-89966692D01*
X178205403Y-89966691D01*
X178404839Y-89906193D01*
X178588634Y-89807952D01*
X178749738Y-89675738D01*
X178881952Y-89514634D01*
X178980193Y-89330838D01*
X179026556Y-89178000D01*
X178382520Y-89178000D01*
X178314399Y-89157998D01*
X178267906Y-89104342D01*
X178257802Y-89034068D01*
X178260378Y-89021060D01*
X178261636Y-89016088D01*
X178261638Y-89016086D01*
X178271835Y-88893023D01*
X178255098Y-88826931D01*
X178257765Y-88755985D01*
X178298365Y-88697743D01*
X178364008Y-88670697D01*
X178377242Y-88670000D01*
X179026555Y-88670000D01*
X178980193Y-88517161D01*
X178881952Y-88333365D01*
X178749738Y-88172261D01*
X178588634Y-88040047D01*
X178404838Y-87941806D01*
X178205396Y-87881307D01*
X178205397Y-87881307D01*
X178152001Y-87876048D01*
X178152000Y-87876049D01*
X178152000Y-88443528D01*
X178131998Y-88511649D01*
X178078342Y-88558142D01*
X178008068Y-88568246D01*
X177985089Y-88562701D01*
X177959743Y-88554000D01*
X177959742Y-88554000D01*
X177867342Y-88554000D01*
X177790738Y-88566783D01*
X177720254Y-88558265D01*
X177665564Y-88512994D01*
X177644032Y-88445341D01*
X177644000Y-88442501D01*
X177644000Y-87876049D01*
X177643999Y-87876048D01*
X177590594Y-87881308D01*
X177559668Y-87890689D01*
X177488674Y-87891321D01*
X177434000Y-87859210D01*
X176777633Y-87202844D01*
X176743608Y-87140531D01*
X176748672Y-87069716D01*
X176791219Y-87012880D01*
X176795121Y-87010073D01*
X176848896Y-86972956D01*
X176956152Y-86851887D01*
X177016292Y-86814164D01*
X177087284Y-86814943D01*
X177139558Y-86846347D01*
X177808327Y-87515117D01*
X177854603Y-87457090D01*
X177986346Y-87228904D01*
X177986348Y-87228900D01*
X178082606Y-86983636D01*
X178082607Y-86983634D01*
X178141239Y-86726754D01*
X178160929Y-86464000D01*
X178141239Y-86201245D01*
X178082607Y-85944365D01*
X178082606Y-85944363D01*
X177986348Y-85699099D01*
X177986346Y-85699095D01*
X177854605Y-85470913D01*
X177854600Y-85470905D01*
X177808328Y-85412881D01*
X177808326Y-85412881D01*
X177139557Y-86081651D01*
X177077245Y-86115677D01*
X177006430Y-86110612D01*
X176956149Y-86076109D01*
X176848897Y-85955045D01*
X176848895Y-85955043D01*
X176795151Y-85917947D01*
X176750451Y-85862789D01*
X176742668Y-85792221D01*
X176774272Y-85728646D01*
X176777632Y-85725155D01*
X177449560Y-85053228D01*
X177279467Y-84937259D01*
X177042076Y-84822937D01*
X176790295Y-84745271D01*
X176790287Y-84745270D01*
X176529740Y-84706000D01*
X176266260Y-84706000D01*
X176005712Y-84745270D01*
X176005704Y-84745271D01*
X175753923Y-84822937D01*
X175516532Y-84937259D01*
X175516525Y-84937263D01*
X175346438Y-85053227D01*
X175346438Y-85053228D01*
X176018366Y-85725155D01*
X176052391Y-85787468D01*
X176047327Y-85858283D01*
X176004780Y-85915119D01*
X176000848Y-85917946D01*
X175947106Y-85955041D01*
X175947102Y-85955045D01*
X175839850Y-86076110D01*
X175779706Y-86113836D01*
X175708714Y-86113056D01*
X175656441Y-86081652D01*
X174987670Y-85412881D01*
X174941400Y-85470904D01*
X174941397Y-85470907D01*
X174809653Y-85699095D01*
X174809651Y-85699099D01*
X174713393Y-85944363D01*
X174713392Y-85944365D01*
X174654760Y-86201245D01*
X174635070Y-86464000D01*
X174654760Y-86726754D01*
X174713392Y-86983634D01*
X174713393Y-86983636D01*
X174809651Y-87228900D01*
X174809653Y-87228904D01*
X174941397Y-87457092D01*
X174941400Y-87457097D01*
X174987670Y-87515117D01*
X174987671Y-87515117D01*
X175656440Y-86846347D01*
X175718753Y-86812322D01*
X175789568Y-86817386D01*
X175839849Y-86851889D01*
X175947102Y-86972954D01*
X175947106Y-86972958D01*
X176000847Y-87010053D01*
X176045546Y-87065211D01*
X176053329Y-87135780D01*
X176021724Y-87199354D01*
X176018365Y-87202843D01*
X175346437Y-87874770D01*
X175516532Y-87990739D01*
X175516532Y-87990740D01*
X175753923Y-88105062D01*
X176005704Y-88182728D01*
X176005712Y-88182729D01*
X176266260Y-88222000D01*
X176529740Y-88222000D01*
X176764218Y-88186659D01*
X176834559Y-88196285D01*
X176888530Y-88242412D01*
X176908994Y-88310396D01*
X176894119Y-88370648D01*
X176815806Y-88517161D01*
X176769444Y-88670000D01*
X177413480Y-88670000D01*
X177481601Y-88690002D01*
X177528094Y-88743658D01*
X177538198Y-88813932D01*
X177535622Y-88826940D01*
X177534361Y-88831915D01*
X177526794Y-88923245D01*
X177524165Y-88954977D01*
X177538513Y-89011635D01*
X177540902Y-89021068D01*
X177538235Y-89092015D01*
X177497635Y-89150257D01*
X177431992Y-89177303D01*
X177418758Y-89178000D01*
X176813811Y-89178000D01*
X176777237Y-89172575D01*
X176729181Y-89157998D01*
X176705502Y-89150815D01*
X176705499Y-89150814D01*
X176705494Y-89150813D01*
X176705498Y-89150813D01*
X176550013Y-89135500D01*
X176550005Y-89135500D01*
X176245995Y-89135500D01*
X176245986Y-89135500D01*
X176090505Y-89150813D01*
X175890968Y-89211341D01*
X175707082Y-89309631D01*
X175649487Y-89356899D01*
X175584140Y-89384653D01*
X175569553Y-89385500D01*
X171906681Y-89385500D01*
X171838560Y-89365498D01*
X171817586Y-89348595D01*
X170839639Y-88370648D01*
X169800189Y-87331197D01*
X169767881Y-87298889D01*
X169743426Y-87283523D01*
X169732191Y-87276463D01*
X169726425Y-87272372D01*
X169704442Y-87254841D01*
X169693470Y-87246091D01*
X169693469Y-87246090D01*
X169693467Y-87246089D01*
X169655490Y-87227800D01*
X169649302Y-87224380D01*
X169613615Y-87201957D01*
X169590652Y-87193922D01*
X169573826Y-87188034D01*
X169567298Y-87185330D01*
X169529324Y-87167042D01*
X169529317Y-87167040D01*
X169488220Y-87157659D01*
X169481430Y-87155702D01*
X169441652Y-87141784D01*
X169441646Y-87141782D01*
X169399756Y-87137062D01*
X169392787Y-87135878D01*
X169351699Y-87126500D01*
X169351697Y-87126500D01*
X169306006Y-87126500D01*
X167010200Y-87126500D01*
X166942079Y-87106498D01*
X166902959Y-87066647D01*
X166889963Y-87045577D01*
X166853430Y-86986348D01*
X166853429Y-86986347D01*
X166853424Y-86986341D01*
X166728058Y-86860975D01*
X166728052Y-86860970D01*
X166657391Y-86817386D01*
X166577138Y-86767885D01*
X166478801Y-86735300D01*
X166408827Y-86712113D01*
X166408820Y-86712112D01*
X166304953Y-86701500D01*
X165703855Y-86701500D01*
X165599974Y-86712112D01*
X165431661Y-86767885D01*
X165280747Y-86860970D01*
X165280741Y-86860975D01*
X165155372Y-86986344D01*
X165153234Y-86989049D01*
X165151295Y-86990421D01*
X165150180Y-86991537D01*
X165149989Y-86991346D01*
X165095292Y-87030076D01*
X165024367Y-87033264D01*
X164962977Y-86997602D01*
X164955566Y-86989049D01*
X164953427Y-86986344D01*
X164828058Y-86860975D01*
X164828052Y-86860970D01*
X164757391Y-86817386D01*
X164677138Y-86767885D01*
X164578801Y-86735300D01*
X164508827Y-86712113D01*
X164508820Y-86712112D01*
X164404953Y-86701500D01*
X163803855Y-86701500D01*
X163699974Y-86712112D01*
X163531661Y-86767885D01*
X163380747Y-86860970D01*
X163380741Y-86860975D01*
X163255375Y-86986341D01*
X163255366Y-86986353D01*
X163208576Y-87062211D01*
X163155790Y-87109689D01*
X163085715Y-87121092D01*
X163035189Y-87103305D01*
X163030555Y-87100447D01*
X162936692Y-87042551D01*
X162775314Y-86989076D01*
X162775311Y-86989075D01*
X162775309Y-86989075D01*
X162675719Y-86978900D01*
X162141289Y-86978900D01*
X162041690Y-86989075D01*
X162041687Y-86989075D01*
X162041686Y-86989076D01*
X161978387Y-87010051D01*
X161880307Y-87042551D01*
X161735612Y-87131800D01*
X161735606Y-87131805D01*
X161615405Y-87252006D01*
X161615400Y-87252012D01*
X161526151Y-87396707D01*
X161472675Y-87558089D01*
X161471347Y-87571091D01*
X161444524Y-87636825D01*
X161386420Y-87677623D01*
X161315483Y-87680531D01*
X161254235Y-87644625D01*
X161222122Y-87581306D01*
X161220652Y-87571085D01*
X161219324Y-87558090D01*
X161219324Y-87558089D01*
X161219324Y-87558086D01*
X161165849Y-87396708D01*
X161076600Y-87252013D01*
X161076599Y-87252012D01*
X161076594Y-87252006D01*
X160956393Y-87131805D01*
X160956387Y-87131800D01*
X160811692Y-87042551D01*
X160778046Y-87031402D01*
X160650314Y-86989076D01*
X160650311Y-86989075D01*
X160650309Y-86989075D01*
X160550719Y-86978900D01*
X160016289Y-86978900D01*
X159916690Y-86989075D01*
X159916687Y-86989075D01*
X159916686Y-86989076D01*
X159853387Y-87010051D01*
X159755307Y-87042551D01*
X159610612Y-87131800D01*
X159504123Y-87238289D01*
X159441811Y-87272314D01*
X159370995Y-87267248D01*
X159342955Y-87251454D01*
X159342833Y-87251653D01*
X159337836Y-87248571D01*
X159336890Y-87248038D01*
X159336598Y-87247807D01*
X159318618Y-87236717D01*
X159191892Y-87158551D01*
X159030514Y-87105076D01*
X159030511Y-87105075D01*
X159030509Y-87105075D01*
X158930919Y-87094900D01*
X158071489Y-87094900D01*
X157971890Y-87105075D01*
X157971887Y-87105075D01*
X157971886Y-87105076D01*
X157928357Y-87119500D01*
X157810507Y-87158551D01*
X157665812Y-87247800D01*
X157665811Y-87247801D01*
X157646365Y-87267248D01*
X157605616Y-87307996D01*
X157543307Y-87342020D01*
X157516523Y-87344900D01*
X157510573Y-87344900D01*
X157442452Y-87324898D01*
X157421478Y-87307995D01*
X157417858Y-87304375D01*
X157417852Y-87304370D01*
X157389521Y-87286895D01*
X157337552Y-87254840D01*
X157290075Y-87202055D01*
X157277700Y-87147600D01*
X157277700Y-87097781D01*
X157296458Y-87031635D01*
X157347249Y-86949292D01*
X157400724Y-86787914D01*
X157410900Y-86688311D01*
X157410899Y-85828890D01*
X157400724Y-85729286D01*
X157347249Y-85567908D01*
X157258000Y-85423213D01*
X157257999Y-85423212D01*
X157257994Y-85423206D01*
X157137793Y-85303005D01*
X157137787Y-85303000D01*
X156993092Y-85213751D01*
X156831714Y-85160276D01*
X156831711Y-85160275D01*
X156831709Y-85160275D01*
X156732119Y-85150100D01*
X156197689Y-85150100D01*
X156098090Y-85160275D01*
X156098087Y-85160275D01*
X156098086Y-85160276D01*
X156018123Y-85186772D01*
X155936707Y-85213751D01*
X155792012Y-85303000D01*
X155792006Y-85303005D01*
X155671805Y-85423206D01*
X155671800Y-85423212D01*
X155582551Y-85567907D01*
X155529075Y-85729289D01*
X155527747Y-85742291D01*
X155500924Y-85808025D01*
X155442820Y-85848823D01*
X155371883Y-85851731D01*
X155310635Y-85815825D01*
X155278522Y-85752506D01*
X155277052Y-85742285D01*
X155276805Y-85739870D01*
X155275724Y-85729286D01*
X155222249Y-85567908D01*
X155133000Y-85423213D01*
X155132999Y-85423212D01*
X155132994Y-85423206D01*
X155012793Y-85303005D01*
X155012787Y-85303000D01*
X154868092Y-85213751D01*
X154868092Y-85213750D01*
X154706714Y-85160276D01*
X154706711Y-85160275D01*
X154706709Y-85160275D01*
X154607119Y-85150100D01*
X154072689Y-85150100D01*
X153973090Y-85160275D01*
X153973087Y-85160275D01*
X153973086Y-85160276D01*
X153893123Y-85186772D01*
X153811707Y-85213751D01*
X153667012Y-85303000D01*
X153667006Y-85303005D01*
X153546805Y-85423206D01*
X153546800Y-85423212D01*
X153457549Y-85567911D01*
X153426504Y-85661601D01*
X153386091Y-85719972D01*
X153320534Y-85747228D01*
X153250649Y-85734715D01*
X153198623Y-85686405D01*
X153187296Y-85661601D01*
X153156250Y-85567911D01*
X153156249Y-85567910D01*
X153156249Y-85567908D01*
X153067000Y-85423213D01*
X153066999Y-85423212D01*
X153066994Y-85423206D01*
X152946793Y-85303005D01*
X152946787Y-85303000D01*
X152802092Y-85213751D01*
X152802092Y-85213750D01*
X152640714Y-85160276D01*
X152640711Y-85160275D01*
X152640709Y-85160275D01*
X152541119Y-85150100D01*
X152006689Y-85150100D01*
X151907090Y-85160275D01*
X151907087Y-85160275D01*
X151907086Y-85160276D01*
X151827123Y-85186772D01*
X151745707Y-85213751D01*
X151601012Y-85303000D01*
X151601006Y-85303005D01*
X151480805Y-85423206D01*
X151480800Y-85423212D01*
X151391551Y-85567907D01*
X151338075Y-85729289D01*
X151336747Y-85742291D01*
X151309924Y-85808025D01*
X151251820Y-85848823D01*
X151180883Y-85851731D01*
X151119635Y-85815825D01*
X151087522Y-85752506D01*
X151086052Y-85742285D01*
X151085805Y-85739870D01*
X151084724Y-85729286D01*
X151031249Y-85567908D01*
X150942000Y-85423213D01*
X150941999Y-85423212D01*
X150941994Y-85423206D01*
X150821793Y-85303005D01*
X150821787Y-85303000D01*
X150677092Y-85213751D01*
X150677091Y-85213750D01*
X150515714Y-85160276D01*
X150515711Y-85160275D01*
X150515709Y-85160275D01*
X150416119Y-85150100D01*
X149881689Y-85150100D01*
X149782090Y-85160275D01*
X149782087Y-85160275D01*
X149782086Y-85160276D01*
X149702123Y-85186772D01*
X149620707Y-85213751D01*
X149476012Y-85303000D01*
X149476006Y-85303005D01*
X149355805Y-85423206D01*
X149355800Y-85423212D01*
X149266551Y-85567907D01*
X149266551Y-85567908D01*
X149216163Y-85719972D01*
X149213075Y-85729290D01*
X149202900Y-85828880D01*
X149202900Y-86688310D01*
X149211747Y-86774908D01*
X149213076Y-86787914D01*
X149266551Y-86949292D01*
X149321641Y-87038607D01*
X149340400Y-87104752D01*
X149340400Y-87139022D01*
X149320398Y-87207143D01*
X149303496Y-87228116D01*
X149249016Y-87282596D01*
X149186707Y-87316620D01*
X149159923Y-87319500D01*
X149153973Y-87319500D01*
X149085852Y-87299498D01*
X149064878Y-87282595D01*
X149061258Y-87278975D01*
X149061254Y-87278972D01*
X149061252Y-87278970D01*
X148910338Y-87185885D01*
X148794863Y-87147621D01*
X148742027Y-87130113D01*
X148742020Y-87130112D01*
X148638153Y-87119500D01*
X147587055Y-87119500D01*
X147483174Y-87130112D01*
X147314861Y-87185885D01*
X147229902Y-87238289D01*
X147163948Y-87278970D01*
X147163947Y-87278971D01*
X147163941Y-87278975D01*
X147163939Y-87278978D01*
X147163936Y-87278979D01*
X147158190Y-87283523D01*
X147157413Y-87282540D01*
X147101623Y-87312997D01*
X147030808Y-87307925D01*
X146985757Y-87278969D01*
X146872393Y-87165605D01*
X146872387Y-87165600D01*
X146727692Y-87076351D01*
X146698407Y-87066647D01*
X146566314Y-87022876D01*
X146566311Y-87022875D01*
X146566309Y-87022875D01*
X146466719Y-87012700D01*
X145932289Y-87012700D01*
X145832690Y-87022875D01*
X145832687Y-87022875D01*
X145832686Y-87022876D01*
X145752723Y-87049372D01*
X145671307Y-87076351D01*
X145526612Y-87165600D01*
X145526606Y-87165605D01*
X145406405Y-87285806D01*
X145406400Y-87285812D01*
X145317151Y-87430507D01*
X145263675Y-87591889D01*
X145262347Y-87604891D01*
X145235524Y-87670625D01*
X145177420Y-87711423D01*
X145106483Y-87714331D01*
X145045235Y-87678425D01*
X145013122Y-87615106D01*
X145011652Y-87604885D01*
X145010324Y-87591890D01*
X145010324Y-87591889D01*
X145010324Y-87591886D01*
X144956849Y-87430508D01*
X144867600Y-87285813D01*
X144867599Y-87285812D01*
X144867594Y-87285806D01*
X144747393Y-87165605D01*
X144747387Y-87165600D01*
X144602692Y-87076351D01*
X144573407Y-87066647D01*
X144441314Y-87022876D01*
X144441311Y-87022875D01*
X144441309Y-87022875D01*
X144341719Y-87012700D01*
X143807289Y-87012700D01*
X143707690Y-87022875D01*
X143707687Y-87022875D01*
X143707686Y-87022876D01*
X143627723Y-87049372D01*
X143546307Y-87076351D01*
X143465004Y-87126500D01*
X143414488Y-87157659D01*
X143414126Y-87157882D01*
X143345646Y-87176619D01*
X143277908Y-87155360D01*
X143240738Y-87116788D01*
X143181130Y-87020148D01*
X143181129Y-87020147D01*
X143181124Y-87020141D01*
X143055758Y-86894775D01*
X143055752Y-86894770D01*
X143000962Y-86860975D01*
X142904838Y-86801685D01*
X142809130Y-86769971D01*
X142736527Y-86745913D01*
X142736520Y-86745912D01*
X142632653Y-86735300D01*
X142031555Y-86735300D01*
X141927674Y-86745912D01*
X141759361Y-86801685D01*
X141608447Y-86894770D01*
X141608441Y-86894775D01*
X141483072Y-87020144D01*
X141480934Y-87022849D01*
X141478995Y-87024221D01*
X141477880Y-87025337D01*
X141477689Y-87025146D01*
X141422992Y-87063876D01*
X141352067Y-87067064D01*
X141290677Y-87031402D01*
X141283266Y-87022849D01*
X141281127Y-87020144D01*
X141155758Y-86894775D01*
X141155752Y-86894770D01*
X141100962Y-86860975D01*
X141004838Y-86801685D01*
X140909130Y-86769971D01*
X140836527Y-86745913D01*
X140836520Y-86745912D01*
X140732653Y-86735300D01*
X140131555Y-86735300D01*
X140027674Y-86745912D01*
X139859361Y-86801685D01*
X139708447Y-86894770D01*
X139708441Y-86894775D01*
X139583075Y-87020141D01*
X139583070Y-87020147D01*
X139533541Y-87100447D01*
X139480755Y-87147925D01*
X139426300Y-87160300D01*
X137792101Y-87160300D01*
X137751011Y-87169678D01*
X137744042Y-87170863D01*
X137702153Y-87175582D01*
X137662365Y-87189504D01*
X137655575Y-87191460D01*
X137614483Y-87200839D01*
X137614482Y-87200840D01*
X137576498Y-87219131D01*
X137569969Y-87221835D01*
X137530183Y-87235757D01*
X137494492Y-87258183D01*
X137488305Y-87261602D01*
X137450329Y-87279890D01*
X137417369Y-87306176D01*
X137411603Y-87310266D01*
X137375919Y-87332689D01*
X137343611Y-87364997D01*
X136337960Y-88370648D01*
X135360013Y-89348595D01*
X135297701Y-89382621D01*
X135270918Y-89385500D01*
X135158503Y-89385500D01*
X135090382Y-89365498D01*
X135043889Y-89311842D01*
X135033785Y-89241568D01*
X135037928Y-89222925D01*
X135051556Y-89178000D01*
X134407520Y-89178000D01*
X134339399Y-89157998D01*
X134292906Y-89104342D01*
X134282802Y-89034068D01*
X134285378Y-89021060D01*
X134286636Y-89016088D01*
X134286638Y-89016086D01*
X134296835Y-88893023D01*
X134280098Y-88826931D01*
X134282765Y-88755985D01*
X134323365Y-88697743D01*
X134389008Y-88670697D01*
X134402242Y-88670000D01*
X135051555Y-88670000D01*
X135005193Y-88517161D01*
X134906952Y-88333365D01*
X134774738Y-88172261D01*
X134613634Y-88040047D01*
X134429838Y-87941806D01*
X134230396Y-87881307D01*
X134230397Y-87881307D01*
X134177001Y-87876048D01*
X134177000Y-87876049D01*
X134177000Y-88443528D01*
X134156998Y-88511649D01*
X134103342Y-88558142D01*
X134033068Y-88568246D01*
X134010089Y-88562701D01*
X133984743Y-88554000D01*
X133984742Y-88554000D01*
X133892342Y-88554000D01*
X133840200Y-88562701D01*
X133815737Y-88566783D01*
X133745253Y-88558265D01*
X133690563Y-88512993D01*
X133669031Y-88445341D01*
X133668999Y-88442501D01*
X133668999Y-87876048D01*
X133615594Y-87881308D01*
X133584668Y-87890689D01*
X133513674Y-87891321D01*
X133459000Y-87859210D01*
X132802633Y-87202844D01*
X132768608Y-87140531D01*
X132773672Y-87069716D01*
X132816219Y-87012880D01*
X132820121Y-87010073D01*
X132873896Y-86972956D01*
X132981152Y-86851887D01*
X133041292Y-86814164D01*
X133112284Y-86814943D01*
X133164558Y-86846347D01*
X133833327Y-87515117D01*
X133879603Y-87457090D01*
X134011346Y-87228904D01*
X134011348Y-87228900D01*
X134107606Y-86983636D01*
X134107607Y-86983634D01*
X134166239Y-86726754D01*
X134185929Y-86464000D01*
X134166239Y-86201245D01*
X134107607Y-85944365D01*
X134107606Y-85944363D01*
X134011348Y-85699099D01*
X134011346Y-85699095D01*
X133879605Y-85470913D01*
X133879600Y-85470905D01*
X133833328Y-85412881D01*
X133833326Y-85412881D01*
X133164557Y-86081651D01*
X133102245Y-86115677D01*
X133031430Y-86110612D01*
X132981149Y-86076109D01*
X132873897Y-85955045D01*
X132873895Y-85955043D01*
X132820151Y-85917947D01*
X132775451Y-85862789D01*
X132767668Y-85792221D01*
X132799272Y-85728646D01*
X132802632Y-85725155D01*
X133474560Y-85053228D01*
X133304467Y-84937259D01*
X133067076Y-84822937D01*
X132815295Y-84745271D01*
X132815287Y-84745270D01*
X132554740Y-84706000D01*
X132291260Y-84706000D01*
X132030712Y-84745270D01*
X132030704Y-84745271D01*
X131778923Y-84822937D01*
X131541532Y-84937259D01*
X131541525Y-84937263D01*
X131371438Y-85053227D01*
X131371438Y-85053228D01*
X132043366Y-85725155D01*
X132077391Y-85787468D01*
X132072327Y-85858283D01*
X132029780Y-85915119D01*
X132025848Y-85917946D01*
X131972106Y-85955041D01*
X131972102Y-85955045D01*
X131864850Y-86076110D01*
X131804706Y-86113836D01*
X131733714Y-86113056D01*
X131681441Y-86081652D01*
X131012670Y-85412881D01*
X130966400Y-85470904D01*
X130966397Y-85470907D01*
X130834653Y-85699095D01*
X130834651Y-85699099D01*
X130738393Y-85944363D01*
X130738392Y-85944365D01*
X130679760Y-86201245D01*
X130660070Y-86464000D01*
X124828500Y-86464000D01*
X124828500Y-73194500D01*
X124848502Y-73126379D01*
X124902158Y-73079886D01*
X124954500Y-73068500D01*
X184153500Y-73068500D01*
X184221621Y-73088502D01*
G37*
%TD.AperFunction*%
%TD*%
M02*
