%TF.GenerationSoftware,KiCad,Pcbnew,7.0.7-7.0.7~ubuntu23.04.1*%
%TF.CreationDate,2023-09-11T00:30:10+00:00*%
%TF.ProjectId,BP02,42503032-2e6b-4696-9361-645f70636258,rev?*%
%TF.SameCoordinates,Original*%
%TF.FileFunction,Legend,Top*%
%TF.FilePolarity,Positive*%
%FSLAX46Y46*%
G04 Gerber Fmt 4.6, Leading zero omitted, Abs format (unit mm)*
G04 Created by KiCad (PCBNEW 7.0.7-7.0.7~ubuntu23.04.1) date 2023-09-11 00:30:10*
%MOMM*%
%LPD*%
G01*
G04 APERTURE LIST*
%ADD10C,0.281999*%
%ADD11C,0.028222*%
%ADD12C,0.300000*%
%ADD13C,0.150000*%
%ADD14C,0.120000*%
G04 APERTURE END LIST*
D10*
X155144836Y-89367068D02*
X155089176Y-89340425D01*
X155200467Y-99435338D02*
X155144836Y-99413024D01*
D11*
X154732927Y-87737400D02*
X154732927Y-87737400D01*
D10*
X155477552Y-96866125D02*
X155422338Y-96865086D01*
X154091243Y-88464088D02*
X154146927Y-88495084D01*
X153868856Y-87075036D02*
X153924365Y-87088766D01*
X155587550Y-90734800D02*
X155532629Y-90742097D01*
D12*
X153983000Y-90528000D02*
X155243000Y-89978000D01*
D10*
X155367004Y-90738953D02*
X155311569Y-90729477D01*
X152850927Y-90211112D02*
X152901760Y-90148228D01*
X155200467Y-89389382D02*
X155144836Y-89367068D01*
X156019131Y-89221421D02*
X155966109Y-89261076D01*
X156279091Y-97702241D02*
X156227846Y-97761316D01*
X154811078Y-97879011D02*
X154755625Y-97825875D01*
X153004622Y-97463157D02*
X153056615Y-97411776D01*
X155751196Y-90688221D02*
X155696851Y-90707837D01*
X155642296Y-96844260D02*
X155587550Y-96855688D01*
X155144836Y-96796312D02*
X155089176Y-96769669D01*
X153758120Y-95797915D02*
X153813435Y-95803160D01*
X154866610Y-87881713D02*
X154811078Y-87833055D01*
X153321503Y-87167671D02*
X153375341Y-87139966D01*
X152952998Y-90089153D02*
X153004622Y-90033913D01*
X153267927Y-89816097D02*
X153321503Y-89784383D01*
X155642296Y-90723372D02*
X155587550Y-90734800D01*
X153429426Y-97162248D02*
X153483740Y-97142632D01*
X154866610Y-89190069D02*
X154811078Y-89141411D01*
X156329927Y-97639356D02*
X156279091Y-97702241D01*
D11*
X154732927Y-97783356D02*
X154732927Y-97783356D01*
D10*
X155089176Y-88032069D02*
X155033505Y-88001072D01*
X155477552Y-98174481D02*
X155422338Y-98173442D01*
X155477552Y-88128525D02*
X155422338Y-88127486D01*
X154700270Y-89030637D02*
X154645032Y-88968472D01*
X154535735Y-97573640D02*
X154590927Y-97640356D01*
X156124199Y-87821980D02*
X156071833Y-87869477D01*
X153321503Y-95905271D02*
X153375341Y-95877566D01*
X152952998Y-96210041D02*
X153004622Y-96154801D01*
X154755625Y-90396631D02*
X154700270Y-90338993D01*
X155367004Y-89430597D02*
X155311569Y-89421121D01*
X154700270Y-90338993D02*
X154645032Y-90276828D01*
X153375341Y-95877566D02*
X153429426Y-95853892D01*
X156279091Y-99010597D02*
X156227846Y-99069672D01*
X154922204Y-96663519D02*
X154866610Y-96619313D01*
X153483740Y-95834276D02*
X153538264Y-95818741D01*
D11*
X154732927Y-96475000D02*
X154732927Y-96475000D01*
D10*
X155805312Y-88047835D02*
X155751196Y-88071509D01*
X154700270Y-87722281D02*
X154645032Y-87660116D01*
X153647876Y-87062416D02*
X153702927Y-87059275D01*
X154202612Y-89838815D02*
X154258279Y-89878594D01*
X156176209Y-99124912D02*
X156124199Y-99176292D01*
X153214633Y-97281037D02*
X153267927Y-97245341D01*
X155587550Y-98164044D02*
X155532629Y-98171341D01*
X152850927Y-98948712D02*
X152901760Y-98885828D01*
X155859182Y-88020129D02*
X155805312Y-88047835D01*
X153483740Y-87096676D02*
X153538264Y-87081141D01*
X155422338Y-89435842D02*
X155367004Y-89430597D01*
X154480420Y-87465520D02*
X154535735Y-87527684D01*
X153868856Y-89691748D02*
X153924365Y-89705478D01*
X154369490Y-87354746D02*
X154424999Y-87407882D01*
X152952998Y-87472441D02*
X153004622Y-87417201D01*
X154035576Y-87129089D02*
X154091243Y-87155732D01*
X154977842Y-98011653D02*
X154922204Y-97971875D01*
X154424999Y-96145482D02*
X154480420Y-96203120D01*
X153321503Y-88476027D02*
X153375341Y-88448322D01*
X155587550Y-96855688D02*
X155532629Y-96862985D01*
X155696851Y-88091125D02*
X155642296Y-88106660D01*
X156227846Y-89023716D02*
X156176209Y-89078956D01*
X154369490Y-98709058D02*
X154424999Y-98762194D01*
X154091243Y-89772444D02*
X154146927Y-89803440D01*
X154091243Y-87155732D02*
X154146927Y-87186728D01*
X155532629Y-99479697D02*
X155477552Y-99482837D01*
X153214633Y-87235081D02*
X153267927Y-87199385D01*
X153924365Y-97134722D02*
X153979944Y-97152731D01*
X152901760Y-90148228D02*
X152952998Y-90089153D01*
X154811078Y-87833055D02*
X154755625Y-87779919D01*
X155912787Y-99342728D02*
X155859182Y-99374441D01*
X155532629Y-88125385D02*
X155477552Y-88128525D01*
X155033505Y-96738672D02*
X154977842Y-96703297D01*
X152901760Y-97577472D02*
X152952998Y-97518397D01*
X155200467Y-88081026D02*
X155144836Y-88058712D01*
X153868856Y-97120992D02*
X153924365Y-97134722D01*
X154645032Y-96397716D02*
X154589927Y-96331000D01*
X154700270Y-99076593D02*
X154645032Y-99014428D01*
X155751196Y-88071509D02*
X155696851Y-88091125D01*
X155200467Y-90697738D02*
X155144836Y-90675424D01*
X154258279Y-89878594D02*
X154313911Y-89922799D01*
X153108960Y-89935036D02*
X153161638Y-89891448D01*
X155751196Y-96809109D02*
X155696851Y-96828725D01*
X155144836Y-99413024D02*
X155089176Y-99386381D01*
X153056615Y-89982532D02*
X153108960Y-89935036D01*
X154146927Y-95924328D02*
X154202612Y-95959703D01*
X154811078Y-96570655D02*
X154755625Y-96517519D01*
X152952998Y-97518397D02*
X153004622Y-97463157D01*
X154313911Y-88614443D02*
X154369490Y-88663102D01*
X155642296Y-98152616D02*
X155587550Y-98164044D01*
X153056615Y-98720132D02*
X153108960Y-98672636D01*
X153108960Y-87318324D02*
X153161638Y-87274736D01*
X153321503Y-89784383D02*
X153375341Y-89756678D01*
D11*
X154732927Y-89045756D02*
X154732927Y-89045756D01*
D10*
X153214633Y-98589393D02*
X153267927Y-98553697D01*
X156176209Y-96508200D02*
X156124199Y-96559580D01*
X152901760Y-96269116D02*
X152952998Y-96210041D01*
X153979944Y-95844375D02*
X154035576Y-95866689D01*
X153214633Y-95972681D02*
X153267927Y-95936985D01*
X154258279Y-98616194D02*
X154313911Y-98660399D01*
X155966109Y-87952720D02*
X155912787Y-87988416D01*
X153161638Y-96012336D02*
X153214633Y-95972681D01*
X153429426Y-89733004D02*
X153483740Y-89713388D01*
X156176209Y-87770600D02*
X156124199Y-87821980D01*
X153702927Y-89675987D02*
X153758120Y-89677027D01*
X156071833Y-89177833D02*
X156019131Y-89221421D01*
X155966109Y-89261076D02*
X155912787Y-89296772D01*
X154424999Y-90024594D02*
X154480420Y-90082232D01*
X156227846Y-90332072D02*
X156176209Y-90387312D01*
X154755625Y-99134231D02*
X154700270Y-99076593D01*
X155256050Y-98144991D02*
X155200467Y-98126982D01*
X153108960Y-98672636D02*
X153161638Y-98629048D01*
X154977842Y-99320009D02*
X154922204Y-99280231D01*
X156071833Y-96607077D02*
X156019131Y-96650665D01*
X156019131Y-99267377D02*
X155966109Y-99307032D01*
D11*
X154732927Y-90354112D02*
X154732927Y-90354112D01*
D10*
X154202612Y-87222103D02*
X154258279Y-87261882D01*
X155805312Y-99402147D02*
X155751196Y-99425821D01*
X152850927Y-96332000D02*
X152901760Y-96269116D01*
X153538264Y-97127097D02*
X153592982Y-97115669D01*
X154535735Y-88836040D02*
X154590927Y-88902756D01*
X154091243Y-98510044D02*
X154146927Y-98541040D01*
X155859182Y-98066085D02*
X155805312Y-98093791D01*
X154035576Y-89745801D02*
X154091243Y-89772444D01*
X156227846Y-97761316D02*
X156176209Y-97816556D01*
X152952998Y-98826753D02*
X153004622Y-98771513D01*
X152850927Y-87594400D02*
X152901760Y-87531516D01*
X153214633Y-89851793D02*
X153267927Y-89816097D01*
X154700270Y-96459881D02*
X154645032Y-96397716D01*
X154811078Y-89141411D02*
X154755625Y-89088275D01*
X155912787Y-98034372D02*
X155859182Y-98066085D01*
X154202612Y-88530459D02*
X154258279Y-88570238D01*
X154424999Y-98762194D02*
X154480420Y-98819832D01*
X153647876Y-89679128D02*
X153702927Y-89675987D01*
X153702927Y-88367631D02*
X153758120Y-88368671D01*
X155587550Y-89426444D02*
X155532629Y-89433741D01*
X153267927Y-97245341D02*
X153321503Y-97213627D01*
X153592982Y-98424025D02*
X153647876Y-98416728D01*
X154866610Y-99236025D02*
X154811078Y-99187367D01*
X154424999Y-88716238D02*
X154480420Y-88773876D01*
X155642296Y-99460972D02*
X155587550Y-99472400D01*
X155805312Y-98093791D02*
X155751196Y-98117465D01*
X155367004Y-99476553D02*
X155311569Y-99467077D01*
X155144836Y-98104668D02*
X155089176Y-98078025D01*
X154146927Y-97232684D02*
X154202612Y-97268059D01*
X155422338Y-88127486D02*
X155367004Y-88122241D01*
X156227846Y-99069672D02*
X156176209Y-99124912D01*
D12*
X152242600Y-97587000D02*
X134894400Y-97587000D01*
D10*
X155642296Y-88106660D02*
X155587550Y-88118088D01*
X154202612Y-97268059D02*
X154258279Y-97307838D01*
X155696851Y-98137081D02*
X155642296Y-98152616D01*
X153924365Y-88397122D02*
X153979944Y-88415131D01*
X155311569Y-88112765D02*
X155256050Y-88099035D01*
X153924365Y-87088766D02*
X153979944Y-87106775D01*
X153647876Y-98416728D02*
X153702927Y-98413587D01*
X152952998Y-88780797D02*
X153004622Y-88725557D01*
X153702927Y-98413587D02*
X153758120Y-98414627D01*
X154480420Y-96203120D02*
X154535735Y-96265284D01*
X153214633Y-88543437D02*
X153267927Y-88507741D01*
X155477552Y-90745237D02*
X155422338Y-90744198D01*
X153702927Y-97105231D02*
X153758120Y-97106271D01*
X153056615Y-88674176D02*
X153108960Y-88626680D01*
X154035576Y-97175045D02*
X154091243Y-97201688D01*
X153592982Y-95807313D02*
X153647876Y-95800016D01*
X155477552Y-89436881D02*
X155422338Y-89435842D01*
X153267927Y-98553697D02*
X153321503Y-98521983D01*
X154258279Y-88570238D02*
X154313911Y-88614443D01*
X153868856Y-98429348D02*
X153924365Y-98443078D01*
X153538264Y-89697853D02*
X153592982Y-89686425D01*
X155696851Y-96828725D02*
X155642296Y-96844260D01*
X154313911Y-89922799D02*
X154369490Y-89971458D01*
X153758120Y-98414627D02*
X153813435Y-98419872D01*
X153375341Y-98494278D02*
X153429426Y-98470604D01*
X153375341Y-97185922D02*
X153429426Y-97162248D01*
X154480420Y-98819832D02*
X154535735Y-98881996D01*
X156071833Y-87869477D02*
X156019131Y-87913065D01*
X153161638Y-88583092D02*
X153214633Y-88543437D01*
X154755625Y-96517519D02*
X154700270Y-96459881D01*
X154369490Y-89971458D02*
X154424999Y-90024594D01*
X155256050Y-99453347D02*
X155200467Y-99435338D01*
X155532629Y-89433741D02*
X155477552Y-89436881D01*
X154202612Y-95959703D02*
X154258279Y-95999482D01*
X154091243Y-97201688D02*
X154146927Y-97232684D01*
X155367004Y-96859841D02*
X155311569Y-96850365D01*
X153267927Y-95936985D02*
X153321503Y-95905271D01*
X153429426Y-88424648D02*
X153483740Y-88405032D01*
X156227846Y-96452960D02*
X156176209Y-96508200D01*
X156279091Y-88964641D02*
X156227846Y-89023716D01*
X154922204Y-90542631D02*
X154866610Y-90498425D01*
X155696851Y-90707837D02*
X155642296Y-90723372D01*
D12*
X156865400Y-97587000D02*
X173883400Y-97587000D01*
D10*
X156124199Y-97867936D02*
X156071833Y-97915433D01*
X155089176Y-89340425D02*
X155033505Y-89309428D01*
X155912787Y-96726016D02*
X155859182Y-96757729D01*
X153004622Y-90033913D02*
X153056615Y-89982532D01*
X155587550Y-88118088D02*
X155532629Y-88125385D01*
X154313911Y-87306087D02*
X154369490Y-87354746D01*
D12*
X153983000Y-99265600D02*
X155243000Y-98715600D01*
D10*
X153056615Y-97411776D02*
X153108960Y-97364280D01*
X153592982Y-87069713D02*
X153647876Y-87062416D01*
X155033505Y-89309428D02*
X154977842Y-89274053D01*
X154035576Y-95866689D02*
X154091243Y-95893332D01*
X155805312Y-90664547D02*
X155751196Y-90688221D01*
X154645032Y-97706072D02*
X154589927Y-97639356D01*
X153375341Y-87139966D02*
X153429426Y-87116292D01*
X154480420Y-97511476D02*
X154535735Y-97573640D01*
X152850927Y-88902756D02*
X152901760Y-88839872D01*
X154369490Y-97400702D02*
X154424999Y-97453838D01*
X153979944Y-89723487D02*
X154035576Y-89745801D01*
X154258279Y-95999482D02*
X154313911Y-96043687D01*
X155751196Y-98117465D02*
X155696851Y-98137081D01*
X153979944Y-97152731D02*
X154035576Y-97175045D01*
X154977842Y-96703297D02*
X154922204Y-96663519D01*
X153702927Y-87059275D02*
X153758120Y-87060315D01*
X153813435Y-88373916D02*
X153868856Y-88383392D01*
X153979944Y-98461087D02*
X154035576Y-98483401D01*
X154535735Y-98881996D02*
X154590927Y-98948712D01*
X153483740Y-98450988D02*
X153538264Y-98435453D01*
X155966109Y-96690320D02*
X155912787Y-96726016D01*
X156071833Y-99223789D02*
X156019131Y-99267377D01*
X153868856Y-88383392D02*
X153924365Y-88397122D01*
X152901760Y-87531516D02*
X152952998Y-87472441D01*
X155311569Y-96850365D02*
X155256050Y-96836635D01*
X153758120Y-88368671D02*
X153813435Y-88373916D01*
X154755625Y-89088275D02*
X154700270Y-89030637D01*
X153924365Y-98443078D02*
X153979944Y-98461087D01*
X154369490Y-96092346D02*
X154424999Y-96145482D01*
X156279091Y-90272997D02*
X156227846Y-90332072D01*
X155912787Y-87988416D02*
X155859182Y-88020129D01*
X155422338Y-99481798D02*
X155367004Y-99476553D01*
X153161638Y-98629048D02*
X153214633Y-98589393D01*
X154202612Y-98576415D02*
X154258279Y-98616194D01*
X155144836Y-90675424D02*
X155089176Y-90648781D01*
X155256050Y-89407391D02*
X155200467Y-89389382D01*
X153538264Y-95818741D02*
X153592982Y-95807313D01*
X156124199Y-89130336D02*
X156071833Y-89177833D01*
X155089176Y-96769669D02*
X155033505Y-96738672D01*
D12*
X152242600Y-88849400D02*
X134945200Y-88849400D01*
D10*
X153056615Y-87365820D02*
X153108960Y-87318324D01*
X155805312Y-89356191D02*
X155751196Y-89379865D01*
X154645032Y-88968472D02*
X154589927Y-88901756D01*
X154922204Y-89234275D02*
X154866610Y-89190069D01*
X154424999Y-87407882D02*
X154480420Y-87465520D01*
X156124199Y-99176292D02*
X156071833Y-99223789D01*
X154922204Y-87925919D02*
X154866610Y-87881713D01*
X153161638Y-89891448D02*
X153214633Y-89851793D01*
X153538264Y-88389497D02*
X153592982Y-88378069D01*
X153483740Y-88405032D02*
X153538264Y-88389497D01*
X153813435Y-87065560D02*
X153868856Y-87075036D01*
X155089176Y-98078025D02*
X155033505Y-98047028D01*
X154313911Y-96043687D02*
X154369490Y-96092346D01*
X156329927Y-98947712D02*
X156279091Y-99010597D01*
X153647876Y-88370772D02*
X153702927Y-88367631D01*
X153758120Y-89677027D02*
X153813435Y-89682272D01*
X153429426Y-98470604D02*
X153483740Y-98450988D01*
X153868856Y-95812636D02*
X153924365Y-95826366D01*
X155859182Y-99374441D02*
X155805312Y-99402147D01*
X153924365Y-95826366D02*
X153979944Y-95844375D01*
X154866610Y-97927669D02*
X154811078Y-97879011D01*
X154922204Y-97971875D02*
X154866610Y-97927669D01*
X156071833Y-97915433D02*
X156019131Y-97959021D01*
X154258279Y-87261882D02*
X154313911Y-87306087D01*
X153267927Y-87199385D02*
X153321503Y-87167671D01*
X154480420Y-88773876D02*
X154535735Y-88836040D01*
X156329927Y-88901756D02*
X156279091Y-88964641D01*
X155696851Y-99445437D02*
X155642296Y-99460972D01*
X153321503Y-98521983D02*
X153375341Y-98494278D01*
X153056615Y-96103420D02*
X153108960Y-96055924D01*
X154035576Y-98483401D02*
X154091243Y-98510044D01*
X156124199Y-96559580D02*
X156071833Y-96607077D01*
X153592982Y-97115669D02*
X153647876Y-97108372D01*
X155422338Y-96865086D02*
X155367004Y-96859841D01*
X155751196Y-99425821D02*
X155696851Y-99445437D01*
X156176209Y-90387312D02*
X156124199Y-90438692D01*
X154146927Y-98541040D02*
X154202612Y-98576415D01*
X154313911Y-97352043D02*
X154369490Y-97400702D01*
D12*
X152242600Y-86512600D02*
X156865400Y-86512600D01*
X156865400Y-91186200D01*
X152242600Y-91186200D01*
X152242600Y-86512600D01*
D10*
X156227846Y-87715360D02*
X156176209Y-87770600D01*
X154977842Y-89274053D02*
X154922204Y-89234275D01*
X155966109Y-97998676D02*
X155912787Y-98034372D01*
X153702927Y-95796875D02*
X153758120Y-95797915D01*
X156279091Y-87656285D02*
X156227846Y-87715360D01*
X154811078Y-99187367D02*
X154755625Y-99134231D01*
X154146927Y-87186728D02*
X154202612Y-87222103D01*
X153647876Y-97108372D02*
X153702927Y-97105231D01*
X153813435Y-97111516D02*
X153868856Y-97120992D01*
X155859182Y-89328485D02*
X155805312Y-89356191D01*
X153592982Y-89686425D02*
X153647876Y-89679128D01*
X153161638Y-87274736D02*
X153214633Y-87235081D01*
X154755625Y-87779919D02*
X154700270Y-87722281D01*
X154146927Y-89803440D02*
X154202612Y-89838815D01*
X153979944Y-87106775D02*
X154035576Y-87129089D01*
X155256050Y-88099035D02*
X155200467Y-88081026D01*
X155089176Y-90648781D02*
X155033505Y-90617784D01*
X155200467Y-96818626D02*
X155144836Y-96796312D01*
X156019131Y-96650665D02*
X155966109Y-96690320D01*
X153375341Y-89756678D02*
X153429426Y-89733004D01*
X153538264Y-98435453D02*
X153592982Y-98424025D01*
X156124199Y-90438692D02*
X156071833Y-90486189D01*
X155311569Y-99467077D02*
X155256050Y-99453347D01*
X156329927Y-90210112D02*
X156279091Y-90272997D01*
X153321503Y-97213627D02*
X153375341Y-97185922D01*
X153108960Y-88626680D02*
X153161638Y-88583092D01*
X154480420Y-90082232D02*
X154535735Y-90144396D01*
X155966109Y-99307032D02*
X155912787Y-99342728D01*
X153813435Y-95803160D02*
X153868856Y-95812636D01*
X154535735Y-87527684D02*
X154590927Y-87594400D01*
X155532629Y-90742097D02*
X155477552Y-90745237D01*
X155311569Y-89421121D02*
X155256050Y-89407391D01*
X153538264Y-87081141D02*
X153592982Y-87069713D01*
X155033505Y-90617784D02*
X154977842Y-90582409D01*
X154755625Y-97825875D02*
X154700270Y-97768237D01*
X153813435Y-89682272D02*
X153868856Y-89691748D01*
X155587550Y-99472400D02*
X155532629Y-99479697D01*
D12*
X154084600Y-96624000D02*
X155344600Y-96074000D01*
D10*
X154700270Y-97768237D02*
X154645032Y-97706072D01*
X154369490Y-88663102D02*
X154424999Y-88716238D01*
X153004622Y-96154801D02*
X153056615Y-96103420D01*
X155422338Y-90744198D02*
X155367004Y-90738953D01*
X153483740Y-97142632D02*
X153538264Y-97127097D01*
X154035576Y-88437445D02*
X154091243Y-88464088D01*
X154424999Y-97453838D02*
X154480420Y-97511476D01*
X155367004Y-88122241D02*
X155311569Y-88112765D01*
X155859182Y-96757729D02*
X155805312Y-96785435D01*
X153647876Y-95800016D02*
X153702927Y-95796875D01*
X153924365Y-89705478D02*
X153979944Y-89723487D01*
X155033505Y-98047028D02*
X154977842Y-98011653D01*
X154977842Y-87965697D02*
X154922204Y-87925919D01*
X155532629Y-98171341D02*
X155477552Y-98174481D01*
X155532629Y-96862985D02*
X155477552Y-96866125D01*
X155422338Y-98173442D02*
X155367004Y-98168197D01*
X156279091Y-96393885D02*
X156227846Y-96452960D01*
X155144836Y-88058712D02*
X155089176Y-88032069D01*
X153161638Y-97320692D02*
X153214633Y-97281037D01*
X154922204Y-99280231D02*
X154866610Y-99236025D01*
X153429426Y-95853892D02*
X153483740Y-95834276D01*
X155200467Y-98126982D02*
X155144836Y-98104668D01*
X152850927Y-97640356D02*
X152901760Y-97577472D01*
D11*
X154732927Y-99091712D02*
X154732927Y-99091712D01*
D10*
X152901760Y-88839872D02*
X152952998Y-88780797D01*
X155256050Y-96836635D02*
X155200467Y-96818626D01*
X154313911Y-98660399D02*
X154369490Y-98709058D01*
X153004622Y-98771513D02*
X153056615Y-98720132D01*
X155912787Y-90605128D02*
X155859182Y-90636841D01*
X155367004Y-98168197D02*
X155311569Y-98158721D01*
X156071833Y-90486189D02*
X156019131Y-90529777D01*
X154091243Y-95893332D02*
X154146927Y-95924328D01*
X153108960Y-96055924D02*
X153161638Y-96012336D01*
X156176209Y-89078956D02*
X156124199Y-89130336D01*
X154977842Y-90582409D02*
X154922204Y-90542631D01*
X154146927Y-88495084D02*
X154202612Y-88530459D01*
X153267927Y-88507741D02*
X153321503Y-88476027D01*
X156329927Y-96331000D02*
X156279091Y-96393885D01*
X155311569Y-90729477D02*
X155256050Y-90715747D01*
X153004622Y-87417201D02*
X153056615Y-87365820D01*
X155912787Y-89296772D02*
X155859182Y-89328485D01*
X155966109Y-90569432D02*
X155912787Y-90605128D01*
X153758120Y-87060315D02*
X153813435Y-87065560D01*
X153758120Y-97106271D02*
X153813435Y-97111516D01*
X154866610Y-90498425D02*
X154811078Y-90449767D01*
X156019131Y-90529777D02*
X155966109Y-90569432D01*
X153979944Y-88415131D02*
X154035576Y-88437445D01*
X155256050Y-90715747D02*
X155200467Y-90697738D01*
X156019131Y-97959021D02*
X155966109Y-97998676D01*
X156176209Y-97816556D02*
X156124199Y-97867936D01*
X156019131Y-87913065D02*
X155966109Y-87952720D01*
D12*
X152242600Y-95250200D02*
X156865400Y-95250200D01*
X156865400Y-99923800D01*
X152242600Y-99923800D01*
X152242600Y-95250200D01*
D10*
X153375341Y-88448322D02*
X153429426Y-88424648D01*
D13*
X134894400Y-97587000D02*
X134919800Y-97587000D01*
D10*
X155805312Y-96785435D02*
X155751196Y-96809109D01*
X155859182Y-90636841D02*
X155805312Y-90664547D01*
X155642296Y-89415016D02*
X155587550Y-89426444D01*
X155033505Y-99355384D02*
X154977842Y-99320009D01*
X153483740Y-89713388D02*
X153538264Y-89697853D01*
X154535735Y-96265284D02*
X154590927Y-96332000D01*
X154258279Y-97307838D02*
X154313911Y-97352043D01*
X154645032Y-90276828D02*
X154589927Y-90210112D01*
X154645032Y-87660116D02*
X154589927Y-87593400D01*
X154535735Y-90144396D02*
X154590927Y-90211112D01*
X153813435Y-98419872D02*
X153868856Y-98429348D01*
X156329927Y-87593400D02*
X156279091Y-87656285D01*
X154811078Y-90449767D02*
X154755625Y-90396631D01*
X152901760Y-98885828D02*
X152952998Y-98826753D01*
D12*
X156865400Y-88849400D02*
X173908800Y-88849400D01*
D10*
X153004622Y-88725557D02*
X153056615Y-88674176D01*
X155696851Y-89399481D02*
X155642296Y-89415016D01*
D12*
X154084600Y-87886400D02*
X155344600Y-87336400D01*
D10*
X153108960Y-97364280D02*
X153161638Y-97320692D01*
X153429426Y-87116292D02*
X153483740Y-87096676D01*
X153592982Y-88378069D02*
X153647876Y-88370772D01*
X155089176Y-99386381D02*
X155033505Y-99355384D01*
X154645032Y-99014428D02*
X154589927Y-98947712D01*
X154866610Y-96619313D02*
X154811078Y-96570655D01*
X155033505Y-88001072D02*
X154977842Y-87965697D01*
X155751196Y-89379865D02*
X155696851Y-89399481D01*
X155477552Y-99482837D02*
X155422338Y-99481798D01*
X155311569Y-98158721D02*
X155256050Y-98144991D01*
D12*
X162953277Y-86687404D02*
X163758039Y-86687404D01*
X163758039Y-86687404D02*
X163324705Y-87182642D01*
X163324705Y-87182642D02*
X163510420Y-87182642D01*
X163510420Y-87182642D02*
X163634229Y-87244547D01*
X163634229Y-87244547D02*
X163696134Y-87306452D01*
X163696134Y-87306452D02*
X163758039Y-87430261D01*
X163758039Y-87430261D02*
X163758039Y-87739785D01*
X163758039Y-87739785D02*
X163696134Y-87863595D01*
X163696134Y-87863595D02*
X163634229Y-87925500D01*
X163634229Y-87925500D02*
X163510420Y-87987404D01*
X163510420Y-87987404D02*
X163138991Y-87987404D01*
X163138991Y-87987404D02*
X163015182Y-87925500D01*
X163015182Y-87925500D02*
X162953277Y-87863595D01*
X164315181Y-87987404D02*
X164315181Y-87120738D01*
X164315181Y-87368357D02*
X164377086Y-87244547D01*
X164377086Y-87244547D02*
X164438991Y-87182642D01*
X164438991Y-87182642D02*
X164562800Y-87120738D01*
X164562800Y-87120738D02*
X164686610Y-87120738D01*
X165677086Y-87987404D02*
X165677086Y-86687404D01*
X165677086Y-87925500D02*
X165553277Y-87987404D01*
X165553277Y-87987404D02*
X165305658Y-87987404D01*
X165305658Y-87987404D02*
X165181848Y-87925500D01*
X165181848Y-87925500D02*
X165119943Y-87863595D01*
X165119943Y-87863595D02*
X165058039Y-87739785D01*
X165058039Y-87739785D02*
X165058039Y-87368357D01*
X165058039Y-87368357D02*
X165119943Y-87244547D01*
X165119943Y-87244547D02*
X165181848Y-87182642D01*
X165181848Y-87182642D02*
X165305658Y-87120738D01*
X165305658Y-87120738D02*
X165553277Y-87120738D01*
X165553277Y-87120738D02*
X165677086Y-87182642D01*
X167286609Y-87987404D02*
X167286609Y-87120738D01*
X167286609Y-86687404D02*
X167224705Y-86749309D01*
X167224705Y-86749309D02*
X167286609Y-86811214D01*
X167286609Y-86811214D02*
X167348514Y-86749309D01*
X167348514Y-86749309D02*
X167286609Y-86687404D01*
X167286609Y-86687404D02*
X167286609Y-86811214D01*
X167905657Y-87120738D02*
X167905657Y-87987404D01*
X167905657Y-87244547D02*
X167967562Y-87182642D01*
X167967562Y-87182642D02*
X168091372Y-87120738D01*
X168091372Y-87120738D02*
X168277086Y-87120738D01*
X168277086Y-87120738D02*
X168400895Y-87182642D01*
X168400895Y-87182642D02*
X168462800Y-87306452D01*
X168462800Y-87306452D02*
X168462800Y-87987404D01*
X170010419Y-86625500D02*
X168896133Y-88296928D01*
X170629467Y-87987404D02*
X170505657Y-87925500D01*
X170505657Y-87925500D02*
X170443752Y-87863595D01*
X170443752Y-87863595D02*
X170381848Y-87739785D01*
X170381848Y-87739785D02*
X170381848Y-87368357D01*
X170381848Y-87368357D02*
X170443752Y-87244547D01*
X170443752Y-87244547D02*
X170505657Y-87182642D01*
X170505657Y-87182642D02*
X170629467Y-87120738D01*
X170629467Y-87120738D02*
X170815181Y-87120738D01*
X170815181Y-87120738D02*
X170938990Y-87182642D01*
X170938990Y-87182642D02*
X171000895Y-87244547D01*
X171000895Y-87244547D02*
X171062800Y-87368357D01*
X171062800Y-87368357D02*
X171062800Y-87739785D01*
X171062800Y-87739785D02*
X171000895Y-87863595D01*
X171000895Y-87863595D02*
X170938990Y-87925500D01*
X170938990Y-87925500D02*
X170815181Y-87987404D01*
X170815181Y-87987404D02*
X170629467Y-87987404D01*
X172177085Y-87120738D02*
X172177085Y-87987404D01*
X171619942Y-87120738D02*
X171619942Y-87801690D01*
X171619942Y-87801690D02*
X171681847Y-87925500D01*
X171681847Y-87925500D02*
X171805657Y-87987404D01*
X171805657Y-87987404D02*
X171991371Y-87987404D01*
X171991371Y-87987404D02*
X172115180Y-87925500D01*
X172115180Y-87925500D02*
X172177085Y-87863595D01*
X172610418Y-87120738D02*
X173105656Y-87120738D01*
X172796132Y-86687404D02*
X172796132Y-87801690D01*
X172796132Y-87801690D02*
X172858037Y-87925500D01*
X172858037Y-87925500D02*
X172981847Y-87987404D01*
X172981847Y-87987404D02*
X173105656Y-87987404D01*
X135741963Y-86687404D02*
X136546725Y-86687404D01*
X136546725Y-86687404D02*
X136113391Y-87182642D01*
X136113391Y-87182642D02*
X136299106Y-87182642D01*
X136299106Y-87182642D02*
X136422915Y-87244547D01*
X136422915Y-87244547D02*
X136484820Y-87306452D01*
X136484820Y-87306452D02*
X136546725Y-87430261D01*
X136546725Y-87430261D02*
X136546725Y-87739785D01*
X136546725Y-87739785D02*
X136484820Y-87863595D01*
X136484820Y-87863595D02*
X136422915Y-87925500D01*
X136422915Y-87925500D02*
X136299106Y-87987404D01*
X136299106Y-87987404D02*
X135927677Y-87987404D01*
X135927677Y-87987404D02*
X135803868Y-87925500D01*
X135803868Y-87925500D02*
X135741963Y-87863595D01*
X137103867Y-87987404D02*
X137103867Y-87120738D01*
X137103867Y-87368357D02*
X137165772Y-87244547D01*
X137165772Y-87244547D02*
X137227677Y-87182642D01*
X137227677Y-87182642D02*
X137351486Y-87120738D01*
X137351486Y-87120738D02*
X137475296Y-87120738D01*
X138465772Y-87987404D02*
X138465772Y-86687404D01*
X138465772Y-87925500D02*
X138341963Y-87987404D01*
X138341963Y-87987404D02*
X138094344Y-87987404D01*
X138094344Y-87987404D02*
X137970534Y-87925500D01*
X137970534Y-87925500D02*
X137908629Y-87863595D01*
X137908629Y-87863595D02*
X137846725Y-87739785D01*
X137846725Y-87739785D02*
X137846725Y-87368357D01*
X137846725Y-87368357D02*
X137908629Y-87244547D01*
X137908629Y-87244547D02*
X137970534Y-87182642D01*
X137970534Y-87182642D02*
X138094344Y-87120738D01*
X138094344Y-87120738D02*
X138341963Y-87120738D01*
X138341963Y-87120738D02*
X138465772Y-87182642D01*
X140075295Y-87987404D02*
X140075295Y-87120738D01*
X140075295Y-86687404D02*
X140013391Y-86749309D01*
X140013391Y-86749309D02*
X140075295Y-86811214D01*
X140075295Y-86811214D02*
X140137200Y-86749309D01*
X140137200Y-86749309D02*
X140075295Y-86687404D01*
X140075295Y-86687404D02*
X140075295Y-86811214D01*
X140694343Y-87120738D02*
X140694343Y-87987404D01*
X140694343Y-87244547D02*
X140756248Y-87182642D01*
X140756248Y-87182642D02*
X140880058Y-87120738D01*
X140880058Y-87120738D02*
X141065772Y-87120738D01*
X141065772Y-87120738D02*
X141189581Y-87182642D01*
X141189581Y-87182642D02*
X141251486Y-87306452D01*
X141251486Y-87306452D02*
X141251486Y-87987404D01*
X142799105Y-86625500D02*
X141684819Y-88296928D01*
X143418153Y-87987404D02*
X143294343Y-87925500D01*
X143294343Y-87925500D02*
X143232438Y-87863595D01*
X143232438Y-87863595D02*
X143170534Y-87739785D01*
X143170534Y-87739785D02*
X143170534Y-87368357D01*
X143170534Y-87368357D02*
X143232438Y-87244547D01*
X143232438Y-87244547D02*
X143294343Y-87182642D01*
X143294343Y-87182642D02*
X143418153Y-87120738D01*
X143418153Y-87120738D02*
X143603867Y-87120738D01*
X143603867Y-87120738D02*
X143727676Y-87182642D01*
X143727676Y-87182642D02*
X143789581Y-87244547D01*
X143789581Y-87244547D02*
X143851486Y-87368357D01*
X143851486Y-87368357D02*
X143851486Y-87739785D01*
X143851486Y-87739785D02*
X143789581Y-87863595D01*
X143789581Y-87863595D02*
X143727676Y-87925500D01*
X143727676Y-87925500D02*
X143603867Y-87987404D01*
X143603867Y-87987404D02*
X143418153Y-87987404D01*
X144965771Y-87120738D02*
X144965771Y-87987404D01*
X144408628Y-87120738D02*
X144408628Y-87801690D01*
X144408628Y-87801690D02*
X144470533Y-87925500D01*
X144470533Y-87925500D02*
X144594343Y-87987404D01*
X144594343Y-87987404D02*
X144780057Y-87987404D01*
X144780057Y-87987404D02*
X144903866Y-87925500D01*
X144903866Y-87925500D02*
X144965771Y-87863595D01*
X145399104Y-87120738D02*
X145894342Y-87120738D01*
X145584818Y-86687404D02*
X145584818Y-87801690D01*
X145584818Y-87801690D02*
X145646723Y-87925500D01*
X145646723Y-87925500D02*
X145770533Y-87987404D01*
X145770533Y-87987404D02*
X145894342Y-87987404D01*
X162643754Y-95472614D02*
X162705658Y-95410709D01*
X162705658Y-95410709D02*
X162829468Y-95348804D01*
X162829468Y-95348804D02*
X163138992Y-95348804D01*
X163138992Y-95348804D02*
X163262801Y-95410709D01*
X163262801Y-95410709D02*
X163324706Y-95472614D01*
X163324706Y-95472614D02*
X163386611Y-95596423D01*
X163386611Y-95596423D02*
X163386611Y-95720233D01*
X163386611Y-95720233D02*
X163324706Y-95905947D01*
X163324706Y-95905947D02*
X162581849Y-96648804D01*
X162581849Y-96648804D02*
X163386611Y-96648804D01*
X163943753Y-95782138D02*
X163943753Y-96648804D01*
X163943753Y-95905947D02*
X164005658Y-95844042D01*
X164005658Y-95844042D02*
X164129468Y-95782138D01*
X164129468Y-95782138D02*
X164315182Y-95782138D01*
X164315182Y-95782138D02*
X164438991Y-95844042D01*
X164438991Y-95844042D02*
X164500896Y-95967852D01*
X164500896Y-95967852D02*
X164500896Y-96648804D01*
X165677086Y-96648804D02*
X165677086Y-95348804D01*
X165677086Y-96586900D02*
X165553277Y-96648804D01*
X165553277Y-96648804D02*
X165305658Y-96648804D01*
X165305658Y-96648804D02*
X165181848Y-96586900D01*
X165181848Y-96586900D02*
X165119943Y-96524995D01*
X165119943Y-96524995D02*
X165058039Y-96401185D01*
X165058039Y-96401185D02*
X165058039Y-96029757D01*
X165058039Y-96029757D02*
X165119943Y-95905947D01*
X165119943Y-95905947D02*
X165181848Y-95844042D01*
X165181848Y-95844042D02*
X165305658Y-95782138D01*
X165305658Y-95782138D02*
X165553277Y-95782138D01*
X165553277Y-95782138D02*
X165677086Y-95844042D01*
X167286609Y-96648804D02*
X167286609Y-95782138D01*
X167286609Y-95348804D02*
X167224705Y-95410709D01*
X167224705Y-95410709D02*
X167286609Y-95472614D01*
X167286609Y-95472614D02*
X167348514Y-95410709D01*
X167348514Y-95410709D02*
X167286609Y-95348804D01*
X167286609Y-95348804D02*
X167286609Y-95472614D01*
X167905657Y-95782138D02*
X167905657Y-96648804D01*
X167905657Y-95905947D02*
X167967562Y-95844042D01*
X167967562Y-95844042D02*
X168091372Y-95782138D01*
X168091372Y-95782138D02*
X168277086Y-95782138D01*
X168277086Y-95782138D02*
X168400895Y-95844042D01*
X168400895Y-95844042D02*
X168462800Y-95967852D01*
X168462800Y-95967852D02*
X168462800Y-96648804D01*
X170010419Y-95286900D02*
X168896133Y-96958328D01*
X170629467Y-96648804D02*
X170505657Y-96586900D01*
X170505657Y-96586900D02*
X170443752Y-96524995D01*
X170443752Y-96524995D02*
X170381848Y-96401185D01*
X170381848Y-96401185D02*
X170381848Y-96029757D01*
X170381848Y-96029757D02*
X170443752Y-95905947D01*
X170443752Y-95905947D02*
X170505657Y-95844042D01*
X170505657Y-95844042D02*
X170629467Y-95782138D01*
X170629467Y-95782138D02*
X170815181Y-95782138D01*
X170815181Y-95782138D02*
X170938990Y-95844042D01*
X170938990Y-95844042D02*
X171000895Y-95905947D01*
X171000895Y-95905947D02*
X171062800Y-96029757D01*
X171062800Y-96029757D02*
X171062800Y-96401185D01*
X171062800Y-96401185D02*
X171000895Y-96524995D01*
X171000895Y-96524995D02*
X170938990Y-96586900D01*
X170938990Y-96586900D02*
X170815181Y-96648804D01*
X170815181Y-96648804D02*
X170629467Y-96648804D01*
X172177085Y-95782138D02*
X172177085Y-96648804D01*
X171619942Y-95782138D02*
X171619942Y-96463090D01*
X171619942Y-96463090D02*
X171681847Y-96586900D01*
X171681847Y-96586900D02*
X171805657Y-96648804D01*
X171805657Y-96648804D02*
X171991371Y-96648804D01*
X171991371Y-96648804D02*
X172115180Y-96586900D01*
X172115180Y-96586900D02*
X172177085Y-96524995D01*
X172610418Y-95782138D02*
X173105656Y-95782138D01*
X172796132Y-95348804D02*
X172796132Y-96463090D01*
X172796132Y-96463090D02*
X172858037Y-96586900D01*
X172858037Y-96586900D02*
X172981847Y-96648804D01*
X172981847Y-96648804D02*
X173105656Y-96648804D01*
X135803868Y-95472614D02*
X135865772Y-95410709D01*
X135865772Y-95410709D02*
X135989582Y-95348804D01*
X135989582Y-95348804D02*
X136299106Y-95348804D01*
X136299106Y-95348804D02*
X136422915Y-95410709D01*
X136422915Y-95410709D02*
X136484820Y-95472614D01*
X136484820Y-95472614D02*
X136546725Y-95596423D01*
X136546725Y-95596423D02*
X136546725Y-95720233D01*
X136546725Y-95720233D02*
X136484820Y-95905947D01*
X136484820Y-95905947D02*
X135741963Y-96648804D01*
X135741963Y-96648804D02*
X136546725Y-96648804D01*
X137103867Y-95782138D02*
X137103867Y-96648804D01*
X137103867Y-95905947D02*
X137165772Y-95844042D01*
X137165772Y-95844042D02*
X137289582Y-95782138D01*
X137289582Y-95782138D02*
X137475296Y-95782138D01*
X137475296Y-95782138D02*
X137599105Y-95844042D01*
X137599105Y-95844042D02*
X137661010Y-95967852D01*
X137661010Y-95967852D02*
X137661010Y-96648804D01*
X138837200Y-96648804D02*
X138837200Y-95348804D01*
X138837200Y-96586900D02*
X138713391Y-96648804D01*
X138713391Y-96648804D02*
X138465772Y-96648804D01*
X138465772Y-96648804D02*
X138341962Y-96586900D01*
X138341962Y-96586900D02*
X138280057Y-96524995D01*
X138280057Y-96524995D02*
X138218153Y-96401185D01*
X138218153Y-96401185D02*
X138218153Y-96029757D01*
X138218153Y-96029757D02*
X138280057Y-95905947D01*
X138280057Y-95905947D02*
X138341962Y-95844042D01*
X138341962Y-95844042D02*
X138465772Y-95782138D01*
X138465772Y-95782138D02*
X138713391Y-95782138D01*
X138713391Y-95782138D02*
X138837200Y-95844042D01*
X140446723Y-96648804D02*
X140446723Y-95782138D01*
X140446723Y-95348804D02*
X140384819Y-95410709D01*
X140384819Y-95410709D02*
X140446723Y-95472614D01*
X140446723Y-95472614D02*
X140508628Y-95410709D01*
X140508628Y-95410709D02*
X140446723Y-95348804D01*
X140446723Y-95348804D02*
X140446723Y-95472614D01*
X141065771Y-95782138D02*
X141065771Y-96648804D01*
X141065771Y-95905947D02*
X141127676Y-95844042D01*
X141127676Y-95844042D02*
X141251486Y-95782138D01*
X141251486Y-95782138D02*
X141437200Y-95782138D01*
X141437200Y-95782138D02*
X141561009Y-95844042D01*
X141561009Y-95844042D02*
X141622914Y-95967852D01*
X141622914Y-95967852D02*
X141622914Y-96648804D01*
X143170533Y-95286900D02*
X142056247Y-96958328D01*
X143789581Y-96648804D02*
X143665771Y-96586900D01*
X143665771Y-96586900D02*
X143603866Y-96524995D01*
X143603866Y-96524995D02*
X143541962Y-96401185D01*
X143541962Y-96401185D02*
X143541962Y-96029757D01*
X143541962Y-96029757D02*
X143603866Y-95905947D01*
X143603866Y-95905947D02*
X143665771Y-95844042D01*
X143665771Y-95844042D02*
X143789581Y-95782138D01*
X143789581Y-95782138D02*
X143975295Y-95782138D01*
X143975295Y-95782138D02*
X144099104Y-95844042D01*
X144099104Y-95844042D02*
X144161009Y-95905947D01*
X144161009Y-95905947D02*
X144222914Y-96029757D01*
X144222914Y-96029757D02*
X144222914Y-96401185D01*
X144222914Y-96401185D02*
X144161009Y-96524995D01*
X144161009Y-96524995D02*
X144099104Y-96586900D01*
X144099104Y-96586900D02*
X143975295Y-96648804D01*
X143975295Y-96648804D02*
X143789581Y-96648804D01*
X145337199Y-95782138D02*
X145337199Y-96648804D01*
X144780056Y-95782138D02*
X144780056Y-96463090D01*
X144780056Y-96463090D02*
X144841961Y-96586900D01*
X144841961Y-96586900D02*
X144965771Y-96648804D01*
X144965771Y-96648804D02*
X145151485Y-96648804D01*
X145151485Y-96648804D02*
X145275294Y-96586900D01*
X145275294Y-96586900D02*
X145337199Y-96524995D01*
X145770532Y-95782138D02*
X146265770Y-95782138D01*
X145956246Y-95348804D02*
X145956246Y-96463090D01*
X145956246Y-96463090D02*
X146018151Y-96586900D01*
X146018151Y-96586900D02*
X146141961Y-96648804D01*
X146141961Y-96648804D02*
X146265770Y-96648804D01*
X134895143Y-109853738D02*
X135142762Y-110720404D01*
X135142762Y-110720404D02*
X135390381Y-110101357D01*
X135390381Y-110101357D02*
X135638000Y-110720404D01*
X135638000Y-110720404D02*
X135885619Y-109853738D01*
X136257048Y-109853738D02*
X136504667Y-110720404D01*
X136504667Y-110720404D02*
X136752286Y-110101357D01*
X136752286Y-110101357D02*
X136999905Y-110720404D01*
X136999905Y-110720404D02*
X137247524Y-109853738D01*
X137618953Y-109853738D02*
X137866572Y-110720404D01*
X137866572Y-110720404D02*
X138114191Y-110101357D01*
X138114191Y-110101357D02*
X138361810Y-110720404D01*
X138361810Y-110720404D02*
X138609429Y-109853738D01*
X139104667Y-110596595D02*
X139166572Y-110658500D01*
X139166572Y-110658500D02*
X139104667Y-110720404D01*
X139104667Y-110720404D02*
X139042763Y-110658500D01*
X139042763Y-110658500D02*
X139104667Y-110596595D01*
X139104667Y-110596595D02*
X139104667Y-110720404D01*
X139723715Y-110720404D02*
X139723715Y-109853738D01*
X139723715Y-109977547D02*
X139785620Y-109915642D01*
X139785620Y-109915642D02*
X139909430Y-109853738D01*
X139909430Y-109853738D02*
X140095144Y-109853738D01*
X140095144Y-109853738D02*
X140218953Y-109915642D01*
X140218953Y-109915642D02*
X140280858Y-110039452D01*
X140280858Y-110039452D02*
X140280858Y-110720404D01*
X140280858Y-110039452D02*
X140342763Y-109915642D01*
X140342763Y-109915642D02*
X140466572Y-109853738D01*
X140466572Y-109853738D02*
X140652287Y-109853738D01*
X140652287Y-109853738D02*
X140776096Y-109915642D01*
X140776096Y-109915642D02*
X140838001Y-110039452D01*
X140838001Y-110039452D02*
X140838001Y-110720404D01*
X141642763Y-110720404D02*
X141518953Y-110658500D01*
X141518953Y-110658500D02*
X141457048Y-110534690D01*
X141457048Y-110534690D02*
X141457048Y-109420404D01*
X142695143Y-110720404D02*
X142695143Y-110039452D01*
X142695143Y-110039452D02*
X142633238Y-109915642D01*
X142633238Y-109915642D02*
X142509429Y-109853738D01*
X142509429Y-109853738D02*
X142261810Y-109853738D01*
X142261810Y-109853738D02*
X142138000Y-109915642D01*
X142695143Y-110658500D02*
X142571334Y-110720404D01*
X142571334Y-110720404D02*
X142261810Y-110720404D01*
X142261810Y-110720404D02*
X142138000Y-110658500D01*
X142138000Y-110658500D02*
X142076096Y-110534690D01*
X142076096Y-110534690D02*
X142076096Y-110410880D01*
X142076096Y-110410880D02*
X142138000Y-110287071D01*
X142138000Y-110287071D02*
X142261810Y-110225166D01*
X142261810Y-110225166D02*
X142571334Y-110225166D01*
X142571334Y-110225166D02*
X142695143Y-110163261D01*
X143314190Y-110720404D02*
X143314190Y-109420404D01*
X143314190Y-109915642D02*
X143438000Y-109853738D01*
X143438000Y-109853738D02*
X143685619Y-109853738D01*
X143685619Y-109853738D02*
X143809428Y-109915642D01*
X143809428Y-109915642D02*
X143871333Y-109977547D01*
X143871333Y-109977547D02*
X143933238Y-110101357D01*
X143933238Y-110101357D02*
X143933238Y-110472785D01*
X143933238Y-110472785D02*
X143871333Y-110596595D01*
X143871333Y-110596595D02*
X143809428Y-110658500D01*
X143809428Y-110658500D02*
X143685619Y-110720404D01*
X143685619Y-110720404D02*
X143438000Y-110720404D01*
X143438000Y-110720404D02*
X143314190Y-110658500D01*
X144490380Y-110596595D02*
X144552285Y-110658500D01*
X144552285Y-110658500D02*
X144490380Y-110720404D01*
X144490380Y-110720404D02*
X144428476Y-110658500D01*
X144428476Y-110658500D02*
X144490380Y-110596595D01*
X144490380Y-110596595D02*
X144490380Y-110720404D01*
X145666571Y-110658500D02*
X145542762Y-110720404D01*
X145542762Y-110720404D02*
X145295143Y-110720404D01*
X145295143Y-110720404D02*
X145171333Y-110658500D01*
X145171333Y-110658500D02*
X145109428Y-110596595D01*
X145109428Y-110596595D02*
X145047524Y-110472785D01*
X145047524Y-110472785D02*
X145047524Y-110101357D01*
X145047524Y-110101357D02*
X145109428Y-109977547D01*
X145109428Y-109977547D02*
X145171333Y-109915642D01*
X145171333Y-109915642D02*
X145295143Y-109853738D01*
X145295143Y-109853738D02*
X145542762Y-109853738D01*
X145542762Y-109853738D02*
X145666571Y-109915642D01*
X146099905Y-109853738D02*
X146780857Y-109853738D01*
X146780857Y-109853738D02*
X146099905Y-110720404D01*
X146099905Y-110720404D02*
X146780857Y-110720404D01*
X151788914Y-78734414D02*
X152003200Y-78805842D01*
X152003200Y-78805842D02*
X152074629Y-78877271D01*
X152074629Y-78877271D02*
X152146057Y-79020128D01*
X152146057Y-79020128D02*
X152146057Y-79234414D01*
X152146057Y-79234414D02*
X152074629Y-79377271D01*
X152074629Y-79377271D02*
X152003200Y-79448700D01*
X152003200Y-79448700D02*
X151860343Y-79520128D01*
X151860343Y-79520128D02*
X151288914Y-79520128D01*
X151288914Y-79520128D02*
X151288914Y-78020128D01*
X151288914Y-78020128D02*
X151788914Y-78020128D01*
X151788914Y-78020128D02*
X151931772Y-78091557D01*
X151931772Y-78091557D02*
X152003200Y-78162985D01*
X152003200Y-78162985D02*
X152074629Y-78305842D01*
X152074629Y-78305842D02*
X152074629Y-78448700D01*
X152074629Y-78448700D02*
X152003200Y-78591557D01*
X152003200Y-78591557D02*
X151931772Y-78662985D01*
X151931772Y-78662985D02*
X151788914Y-78734414D01*
X151788914Y-78734414D02*
X151288914Y-78734414D01*
X152788914Y-79520128D02*
X152788914Y-78020128D01*
X152788914Y-78020128D02*
X153360343Y-78020128D01*
X153360343Y-78020128D02*
X153503200Y-78091557D01*
X153503200Y-78091557D02*
X153574629Y-78162985D01*
X153574629Y-78162985D02*
X153646057Y-78305842D01*
X153646057Y-78305842D02*
X153646057Y-78520128D01*
X153646057Y-78520128D02*
X153574629Y-78662985D01*
X153574629Y-78662985D02*
X153503200Y-78734414D01*
X153503200Y-78734414D02*
X153360343Y-78805842D01*
X153360343Y-78805842D02*
X152788914Y-78805842D01*
X154574629Y-78020128D02*
X154717486Y-78020128D01*
X154717486Y-78020128D02*
X154860343Y-78091557D01*
X154860343Y-78091557D02*
X154931772Y-78162985D01*
X154931772Y-78162985D02*
X155003200Y-78305842D01*
X155003200Y-78305842D02*
X155074629Y-78591557D01*
X155074629Y-78591557D02*
X155074629Y-78948700D01*
X155074629Y-78948700D02*
X155003200Y-79234414D01*
X155003200Y-79234414D02*
X154931772Y-79377271D01*
X154931772Y-79377271D02*
X154860343Y-79448700D01*
X154860343Y-79448700D02*
X154717486Y-79520128D01*
X154717486Y-79520128D02*
X154574629Y-79520128D01*
X154574629Y-79520128D02*
X154431772Y-79448700D01*
X154431772Y-79448700D02*
X154360343Y-79377271D01*
X154360343Y-79377271D02*
X154288914Y-79234414D01*
X154288914Y-79234414D02*
X154217486Y-78948700D01*
X154217486Y-78948700D02*
X154217486Y-78591557D01*
X154217486Y-78591557D02*
X154288914Y-78305842D01*
X154288914Y-78305842D02*
X154360343Y-78162985D01*
X154360343Y-78162985D02*
X154431772Y-78091557D01*
X154431772Y-78091557D02*
X154574629Y-78020128D01*
X155646057Y-78162985D02*
X155717485Y-78091557D01*
X155717485Y-78091557D02*
X155860343Y-78020128D01*
X155860343Y-78020128D02*
X156217485Y-78020128D01*
X156217485Y-78020128D02*
X156360343Y-78091557D01*
X156360343Y-78091557D02*
X156431771Y-78162985D01*
X156431771Y-78162985D02*
X156503200Y-78305842D01*
X156503200Y-78305842D02*
X156503200Y-78448700D01*
X156503200Y-78448700D02*
X156431771Y-78662985D01*
X156431771Y-78662985D02*
X155574628Y-79520128D01*
X155574628Y-79520128D02*
X156503200Y-79520128D01*
X157074628Y-79091557D02*
X157788914Y-79091557D01*
X156931771Y-79520128D02*
X157431771Y-78020128D01*
X157431771Y-78020128D02*
X157931771Y-79520128D01*
X162769219Y-110720404D02*
X162769219Y-109420404D01*
X163512076Y-110720404D02*
X162954934Y-109977547D01*
X163512076Y-109420404D02*
X162769219Y-110163261D01*
X164626362Y-110720404D02*
X164626362Y-110039452D01*
X164626362Y-110039452D02*
X164564457Y-109915642D01*
X164564457Y-109915642D02*
X164440648Y-109853738D01*
X164440648Y-109853738D02*
X164193029Y-109853738D01*
X164193029Y-109853738D02*
X164069219Y-109915642D01*
X164626362Y-110658500D02*
X164502553Y-110720404D01*
X164502553Y-110720404D02*
X164193029Y-110720404D01*
X164193029Y-110720404D02*
X164069219Y-110658500D01*
X164069219Y-110658500D02*
X164007315Y-110534690D01*
X164007315Y-110534690D02*
X164007315Y-110410880D01*
X164007315Y-110410880D02*
X164069219Y-110287071D01*
X164069219Y-110287071D02*
X164193029Y-110225166D01*
X164193029Y-110225166D02*
X164502553Y-110225166D01*
X164502553Y-110225166D02*
X164626362Y-110163261D01*
X165245409Y-110720404D02*
X165245409Y-109420404D01*
X165369219Y-110225166D02*
X165740647Y-110720404D01*
X165740647Y-109853738D02*
X165245409Y-110348976D01*
X166483505Y-110720404D02*
X166359695Y-110658500D01*
X166359695Y-110658500D02*
X166297790Y-110534690D01*
X166297790Y-110534690D02*
X166297790Y-109420404D01*
X166978742Y-110720404D02*
X166978742Y-109853738D01*
X166978742Y-109420404D02*
X166916838Y-109482309D01*
X166916838Y-109482309D02*
X166978742Y-109544214D01*
X166978742Y-109544214D02*
X167040647Y-109482309D01*
X167040647Y-109482309D02*
X166978742Y-109420404D01*
X166978742Y-109420404D02*
X166978742Y-109544214D01*
X167597790Y-110720404D02*
X167597790Y-109420404D01*
X167721600Y-110225166D02*
X168093028Y-110720404D01*
X168093028Y-109853738D02*
X167597790Y-110348976D01*
X169578743Y-109544214D02*
X169640647Y-109482309D01*
X169640647Y-109482309D02*
X169764457Y-109420404D01*
X169764457Y-109420404D02*
X170073981Y-109420404D01*
X170073981Y-109420404D02*
X170197790Y-109482309D01*
X170197790Y-109482309D02*
X170259695Y-109544214D01*
X170259695Y-109544214D02*
X170321600Y-109668023D01*
X170321600Y-109668023D02*
X170321600Y-109791833D01*
X170321600Y-109791833D02*
X170259695Y-109977547D01*
X170259695Y-109977547D02*
X169516838Y-110720404D01*
X169516838Y-110720404D02*
X170321600Y-110720404D01*
X171126361Y-109420404D02*
X171250171Y-109420404D01*
X171250171Y-109420404D02*
X171373980Y-109482309D01*
X171373980Y-109482309D02*
X171435885Y-109544214D01*
X171435885Y-109544214D02*
X171497790Y-109668023D01*
X171497790Y-109668023D02*
X171559695Y-109915642D01*
X171559695Y-109915642D02*
X171559695Y-110225166D01*
X171559695Y-110225166D02*
X171497790Y-110472785D01*
X171497790Y-110472785D02*
X171435885Y-110596595D01*
X171435885Y-110596595D02*
X171373980Y-110658500D01*
X171373980Y-110658500D02*
X171250171Y-110720404D01*
X171250171Y-110720404D02*
X171126361Y-110720404D01*
X171126361Y-110720404D02*
X171002552Y-110658500D01*
X171002552Y-110658500D02*
X170940647Y-110596595D01*
X170940647Y-110596595D02*
X170878742Y-110472785D01*
X170878742Y-110472785D02*
X170816838Y-110225166D01*
X170816838Y-110225166D02*
X170816838Y-109915642D01*
X170816838Y-109915642D02*
X170878742Y-109668023D01*
X170878742Y-109668023D02*
X170940647Y-109544214D01*
X170940647Y-109544214D02*
X171002552Y-109482309D01*
X171002552Y-109482309D02*
X171126361Y-109420404D01*
X172054933Y-109544214D02*
X172116837Y-109482309D01*
X172116837Y-109482309D02*
X172240647Y-109420404D01*
X172240647Y-109420404D02*
X172550171Y-109420404D01*
X172550171Y-109420404D02*
X172673980Y-109482309D01*
X172673980Y-109482309D02*
X172735885Y-109544214D01*
X172735885Y-109544214D02*
X172797790Y-109668023D01*
X172797790Y-109668023D02*
X172797790Y-109791833D01*
X172797790Y-109791833D02*
X172735885Y-109977547D01*
X172735885Y-109977547D02*
X171993028Y-110720404D01*
X171993028Y-110720404D02*
X172797790Y-110720404D01*
X174035885Y-110720404D02*
X173293028Y-110720404D01*
X173664456Y-110720404D02*
X173664456Y-109420404D01*
X173664456Y-109420404D02*
X173540647Y-109606119D01*
X173540647Y-109606119D02*
X173416837Y-109729928D01*
X173416837Y-109729928D02*
X173293028Y-109791833D01*
D13*
X132300466Y-82690819D02*
X132300466Y-83405104D01*
X132300466Y-83405104D02*
X132252847Y-83547961D01*
X132252847Y-83547961D02*
X132157609Y-83643200D01*
X132157609Y-83643200D02*
X132014752Y-83690819D01*
X132014752Y-83690819D02*
X131919514Y-83690819D01*
X133300466Y-83690819D02*
X132729038Y-83690819D01*
X133014752Y-83690819D02*
X133014752Y-82690819D01*
X133014752Y-82690819D02*
X132919514Y-82833676D01*
X132919514Y-82833676D02*
X132824276Y-82928914D01*
X132824276Y-82928914D02*
X132729038Y-82976533D01*
X175937666Y-82665419D02*
X175937666Y-83379704D01*
X175937666Y-83379704D02*
X175890047Y-83522561D01*
X175890047Y-83522561D02*
X175794809Y-83617800D01*
X175794809Y-83617800D02*
X175651952Y-83665419D01*
X175651952Y-83665419D02*
X175556714Y-83665419D01*
X176366238Y-82760657D02*
X176413857Y-82713038D01*
X176413857Y-82713038D02*
X176509095Y-82665419D01*
X176509095Y-82665419D02*
X176747190Y-82665419D01*
X176747190Y-82665419D02*
X176842428Y-82713038D01*
X176842428Y-82713038D02*
X176890047Y-82760657D01*
X176890047Y-82760657D02*
X176937666Y-82855895D01*
X176937666Y-82855895D02*
X176937666Y-82951133D01*
X176937666Y-82951133D02*
X176890047Y-83093990D01*
X176890047Y-83093990D02*
X176318619Y-83665419D01*
X176318619Y-83665419D02*
X176937666Y-83665419D01*
D14*
%TO.C,J1*%
X129923000Y-101034000D02*
X129923000Y-84434000D01*
X134923000Y-101034000D02*
X129923000Y-101034000D01*
X129923000Y-84434000D02*
X134923000Y-84434000D01*
X134923000Y-84434000D02*
X134923000Y-101034000D01*
%TO.C,J2*%
X173898000Y-101034000D02*
X173898000Y-84434000D01*
X178898000Y-101034000D02*
X173898000Y-101034000D01*
X173898000Y-84434000D02*
X178898000Y-84434000D01*
X178898000Y-84434000D02*
X178898000Y-101034000D01*
%TD*%
M02*
